<?xml version="1.0" encoding="UTF-8" standalone="no"?>
<!-- Created with Inkscape (http://www.inkscape.org/) -->

<svg
   xmlns:dc="http://purl.org/dc/elements/1.1/"
   xmlns:cc="http://creativecommons.org/ns#"
   xmlns:rdf="http://www.w3.org/1999/02/22-rdf-syntax-ns#"
   xmlns:svg="http://www.w3.org/2000/svg"
   xmlns="http://www.w3.org/2000/svg"
   xmlns:xlink="http://www.w3.org/1999/xlink"
   xmlns:sodipodi="http://sodipodi.sourceforge.net/DTD/sodipodi-0.dtd"
   xmlns:inkscape="http://www.inkscape.org/namespaces/inkscape"
   width="70mm"
   height="100mm"
   viewBox="0 0 70 100"
   version="1.1"
   id="svg8"
   inkscape:version="0.92.2 5c3e80d, 2017-08-06"
   sodipodi:docname="sticker.it.svg"
   inkscape:export-filename="/home/emes/doc/dontbuymonero-sticker/sticker.en.png"
   inkscape:export-xdpi="300"
   inkscape:export-ydpi="300">
  <defs
     id="defs2" />
  <sodipodi:namedview
     id="base"
     pagecolor="#ffffff"
     bordercolor="#666666"
     borderopacity="1.0"
     inkscape:pageopacity="0.0"
     inkscape:pageshadow="2"
     inkscape:zoom="1.979899"
     inkscape:cx="52.139733"
     inkscape:cy="145.37301"
     inkscape:document-units="mm"
     inkscape:current-layer="layer1"
     showgrid="false"
     showguides="true"
     inkscape:guide-bbox="true"
     inkscape:snap-to-guides="true"
     inkscape:snap-grids="true"
     inkscape:snap-page="true"
     inkscape:snap-bbox="true"
     inkscape:bbox-nodes="true"
     inkscape:bbox-paths="true"
     inkscape:window-width="1920"
     inkscape:window-height="1136"
     inkscape:window-x="0"
     inkscape:window-y="747"
     inkscape:window-maximized="1"
     inkscape:pagecheckerboard="true"
     inkscape:measure-start="0,0"
     inkscape:measure-end="0,0">
    <sodipodi:guide
       position="5,91.472997"
       orientation="1,0"
       id="guide889"
       inkscape:locked="false"
       inkscape:label=""
       inkscape:color="rgb(0,0,255)" />
    <sodipodi:guide
       position="65,88.533032"
       orientation="1,0"
       id="guide891"
       inkscape:locked="false"
       inkscape:label=""
       inkscape:color="rgb(0,0,255)" />
    <sodipodi:guide
       position="28.86511,95"
       orientation="0,1"
       id="guide893"
       inkscape:locked="false"
       inkscape:label=""
       inkscape:color="rgb(0,0,255)" />
    <sodipodi:guide
       position="36.348657,5"
       orientation="0,1"
       id="guide895"
       inkscape:locked="false"
       inkscape:label=""
       inkscape:color="rgb(0,0,255)" />
    <sodipodi:guide
       position="8,45.435819"
       orientation="1,0"
       id="guide951"
       inkscape:locked="false"
       inkscape:label=""
       inkscape:color="rgb(0,0,255)" />
    <sodipodi:guide
       position="62,64.54559"
       orientation="1,0"
       id="guide953"
       inkscape:locked="false"
       inkscape:label=""
       inkscape:color="rgb(0,0,255)" />
    <sodipodi:guide
       position="25.52424,8"
       orientation="0,1"
       id="guide955"
       inkscape:locked="false"
       inkscape:label=""
       inkscape:color="rgb(0,0,255)" />
    <sodipodi:guide
       position="26.125597,31"
       orientation="0,1"
       id="guide957"
       inkscape:locked="false"
       inkscape:label=""
       inkscape:color="rgb(0,0,255)" />
  </sodipodi:namedview>
  <metadata
     id="metadata5">
    <rdf:RDF>
      <cc:Work
         rdf:about="">
        <dc:format>image/svg+xml</dc:format>
        <dc:type
           rdf:resource="http://purl.org/dc/dcmitype/StillImage" />
        <dc:title></dc:title>
      </cc:Work>
    </rdf:RDF>
  </metadata>
  <g
     inkscape:label="Layer 1"
     inkscape:groupmode="layer"
     id="layer1"
     transform="translate(0,-197)">
    <rect
       style="fill:#ffffff;fill-opacity:1;stroke:none;stroke-width:1;stroke-linecap:square;stroke-miterlimit:4;stroke-dasharray:none;stroke-opacity:1"
       id="rect858"
       width="70"
       height="100"
       x="0"
       y="197" />
    <g
       id="g875"
       transform="translate(-2.0000006,5.4790253)"
       inkscape:export-xdpi="352.57999"
       inkscape:export-ydpi="352.57999">
      <g
         transform="matrix(1.3011002,0,0,1.3011002,16.420217,-75.468301)"
         id="g915">
        <path
           inkscape:connector-curvature="0"
           d="m 15.817084,222.05063 c -5.391414,0 -9.7639184,4.37197 -9.7639184,9.76365 0,1.07791 0.174625,2.11455 0.4974166,3.08425 h 2.9199417 v -8.21505 l 6.3465601,6.34656 6.346561,-6.34656 v 8.21505 h 2.920206 c 0.322791,-0.9697 0.497416,-2.00634 0.497416,-3.08425 0,-5.39168 -4.372504,-9.76365 -9.764183,-9.76365"
           id="path22"
           style="fill:#ff6600;stroke-width:0.26458332" />
        <path
           inkscape:connector-curvature="0"
           d="m 11.58809,231.71921 v 5.16917 H 7.4738193 c 1.7139708,2.81199 4.8095957,4.69 8.3431057,4.69 3.533511,0 6.6294,-1.87801 8.343107,-4.69 h -4.114007 v -5.16917 l -4.2291,4.2291 z"
           id="path26"
           style="fill:#4c4c4c;stroke-width:0.26458332" />
      </g>
      <g
         transform="matrix(0.88274719,0,0,0.88274719,-10.947117,38.872224)"
         id="g911">
        <path
           inkscape:connector-curvature="0"
           d="m 78.102302,234.59405 c -0.516202,0.53154 -1.142206,0.79639 -1.878277,0.79639 -0.650346,0 -1.225285,-0.20426 -1.728523,-0.61489 -0.646906,-0.52361 -0.969962,-1.23666 -0.969962,-2.13889 0,-0.80778 0.257175,-1.47532 0.771525,-1.99919 0.512497,-0.52573 1.14591,-0.78687 1.900766,-0.78687 0.745331,0 1.379008,0.26881 1.898915,0.80565 0.522023,0.53711 0.782902,1.1938 0.782902,1.97088 0,0.7792 -0.258763,1.43352 -0.777346,1.96692 m 1.083998,-5.01042 c -0.828675,-0.8337 -1.81954,-1.25174 -2.973388,-1.25174 -0.760412,0 -1.471347,0.19129 -2.129366,0.57308 -0.6604,0.38206 -1.178719,0.90012 -1.554956,1.5547 -0.376503,0.65431 -0.565415,1.37133 -0.565415,2.15026 0,1.16338 0.404548,2.16747 1.214437,3.01334 0.809096,0.8472 1.825096,1.26895 3.046413,1.26895 1.167077,0 2.160323,-0.41037 2.979208,-1.23508 0.818886,-0.82285 1.227402,-1.83065 1.227402,-3.02048 0,-1.19936 -0.414337,-2.21668 -1.244335,-3.05303"
           id="path30"
           style="fill:#4c4c4c;stroke-width:0.26458332" />
        <path
           inkscape:connector-curvature="0"
           d="m 69,231.47434 c -0.196585,0.13706 -0.289454,0.20453 -0.809625,0.20453 h -2.046816 v -1.75102 h 1.983316 c 0.397669,0 0.468048,0.0299 0.631032,0.0913 0.162454,0.0595 0.29157,0.15902 0.388937,0.29581 0.09737,0.13705 0.144992,0.29977 0.144992,0.4863 0,0.3138 -0.09737,0.53817 -0.291836,0.6731 m 0.246063,1.61211 c 0.542131,-0.19473 0.94906,-0.48048 1.218935,-0.85752 0.27014,-0.37914 0.403225,-0.84798 0.403225,-1.41155 0,-0.53419 -0.120914,-0.9988 -0.365389,-1.38985 -0.244211,-0.39106 -0.567796,-0.67099 -0.96864,-0.83979 -0.401108,-0.16881 -1.074208,-0.254 -2.021152,-0.254 h -2.997464 v 8.55662 h 1.627981 v -3.6232 h 1.420812 l 1.926167,3.6232 h 1.780646 z"
           id="path34"
           style="fill:#4c4c4c;stroke-width:0.26458332" />
        <path
           inkscape:connector-curvature="0"
           d="m 57.217787,228.33189 h 5.547783 v 1.59411 h -3.929591 v 1.75128 h 3.929591 v 1.56633 h -3.929591 v 2.0447 h 3.929591 v 1.60047 h -5.547783 z"
           id="path38"
           style="fill:#4c4c4c;stroke-width:0.26458332" />
        <path
           inkscape:connector-curvature="0"
           d="m 48.621925,228.33189 h 1.55866 l 3.670829,5.63033 v -5.63033 h 1.627981 v 8.55662 h -1.564481 l -3.665008,-5.61234 v 5.61234 h -1.627981 z"
           id="path42"
           style="fill:#4c4c4c;stroke-width:0.26458332" />
        <use
           transform="translate(-33.088422,-1.0786894e-6)"
           id="use46"
           x="0"
           y="0"
           width="282"
           height="75"
           xlink:href="#path30" />
        <path
           inkscape:connector-curvature="0"
           d="m 29.678129,228.33165 h 1.594114 l 1.977231,5.9682 2.007394,-5.9682 h 1.570302 l 1.441715,8.55689 h -1.570567 l -0.919162,-5.40412 -1.820598,5.40412 h -1.435629 l -1.796521,-5.40412 -0.937154,5.40412 H 28.20096 Z"
           id="path50"
           style="fill:#4c4c4c;stroke-width:0.26458332" />
      </g>
    </g>
    <flowRoot
       xml:space="preserve"
       id="flowRoot840"
       style="font-style:normal;font-weight:normal;font-size:26.66666603px;line-height:1.25;font-family:sans-serif;letter-spacing:0px;word-spacing:0px;fill:#000000;fill-opacity:1;stroke:none"><flowRegion
         id="flowRegion842"><rect
           id="rect844"
           width="77.781746"
           height="47.477169"
           x="239.40616"
           y="264.52042" /></flowRegion><flowPara
         id="flowPara846" /></flowRoot>    <flowRoot
       xml:space="preserve"
       id="flowRoot866"
       style="font-style:normal;font-variant:normal;font-weight:bold;font-stretch:normal;font-size:16px;line-height:1.25;font-family:'Century Gothic';-inkscape-font-specification:'Century Gothic Bold';text-align:center;letter-spacing:0px;word-spacing:0px;text-anchor:middle;fill:#000000;fill-opacity:1;stroke:none"
       transform="matrix(0.26458333,0,0,0.26458333,0,192)"><flowRegion
         id="flowRegion868"
         style="font-size:16px"><rect
           id="rect870"
           width="241.88977"
           height="148.28261"
           x="18.897638"
           y="229.67015"
           style="font-size:16px" /></flowRegion><flowPara
         id="flowPara872" /></flowRoot>    <flowRoot
       xml:space="preserve"
       id="flowRoot874"
       style="font-style:normal;font-variant:normal;font-weight:bold;font-stretch:normal;font-size:26.66666603px;line-height:1.25;font-family:'Century Gothic';-inkscape-font-specification:'Century Gothic Bold';text-align:center;letter-spacing:0px;word-spacing:0px;text-anchor:middle;fill:#000000;fill-opacity:1;stroke:none"><flowRegion
         id="flowRegion876"><rect
           id="rect878"
           width="241.88977"
           height="148.28261"
           x="18.897638"
           y="229.67015" /></flowRegion><flowPara
         id="flowPara880" /></flowRoot>    <g
       id="g861">
      <path
         inkscape:connector-curvature="0"
         id="rect861"
         d="M 5,263.0024 V 263.44051 292 h 60 v -28.9976 z m 0.874399,0.8744 h 58.251202 v 27.24879 H 5.874399 Z"
         style="color:#000000;font-style:normal;font-variant:normal;font-weight:normal;font-stretch:normal;font-size:medium;line-height:normal;font-family:sans-serif;font-variant-ligatures:normal;font-variant-position:normal;font-variant-caps:normal;font-variant-numeric:normal;font-variant-alternates:normal;font-feature-settings:normal;text-indent:0;text-align:start;text-decoration:none;text-decoration-line:none;text-decoration-style:solid;text-decoration-color:#000000;letter-spacing:normal;word-spacing:normal;text-transform:none;writing-mode:lr-tb;direction:ltr;text-orientation:mixed;dominant-baseline:auto;baseline-shift:baseline;text-anchor:start;white-space:normal;shape-padding:0;clip-rule:nonzero;display:inline;overflow:visible;visibility:visible;opacity:1;isolation:auto;mix-blend-mode:normal;color-interpolation:sRGB;color-interpolation-filters:linearRGB;solid-color:#000000;solid-opacity:1;vector-effect:none;fill:#4c4c4c;fill-opacity:1;fill-rule:nonzero;stroke:none;stroke-width:0.87388474;stroke-linecap:square;stroke-linejoin:miter;stroke-miterlimit:4;stroke-dasharray:none;stroke-dashoffset:0;stroke-opacity:1;color-rendering:auto;image-rendering:auto;shape-rendering:auto;text-rendering:auto;enable-background:accumulate" />
    </g>
    <g
       aria-label="NON COMPRARE"
       transform="matrix(0.26879227,0,0,0.29726148,-1.3772542,194.70764)"
       style="font-style:normal;font-variant:normal;font-weight:bold;font-stretch:normal;font-size:26.66666794px;line-height:1.25;font-family:'Century Gothic';-inkscape-font-specification:'Century Gothic Bold';text-align:center;letter-spacing:0px;word-spacing:0px;text-anchor:middle;fill:#4c4c4c;fill-opacity:1;stroke:none"
       id="flowRoot1094">
      <path
         d="m 23.725586,25.037677 h 3.664062 l 8.626954,13.234375 V 25.037677 h 3.828125 V 45.149005 H 36.166992 L 27.553711,31.955646 v 13.193359 h -3.828125 z"
         style="font-size:28px;fill:#4c4c4c;fill-opacity:1"
         id="path1106" />
      <path
         d="m 53.94043,24.531817 q 4.265625,0 7.328125,3.089844 3.076172,3.089844 3.076172,7.533203 0,4.402344 -3.035157,7.451172 -3.021484,3.048828 -7.341797,3.048828 -4.52539,0 -7.519531,-3.130859 -2.99414,-3.130859 -2.99414,-7.4375 0,-2.884766 1.394531,-5.304688 1.394531,-2.419921 3.828125,-3.828125 2.447265,-1.421875 5.263672,-1.421875 z m -0.04102,3.746094 q -2.789062,0 -4.689453,1.941406 -1.900391,1.941407 -1.900391,4.935547 0,3.335938 2.392578,5.277344 1.859375,1.517578 4.265625,1.517578 2.720704,0 4.634766,-1.96875 1.914063,-1.96875 1.914063,-4.853515 0,-2.871094 -1.927735,-4.853516 -1.927734,-1.996094 -4.689453,-1.996094 z"
         style="font-size:28px;fill:#4c4c4c;fill-opacity:1"
         id="path1108" />
      <path
         d="m 67.967773,25.037677 h 3.664063 l 8.626953,13.234375 V 25.037677 h 3.828125 V 45.149005 H 80.40918 L 71.795898,31.955646 v 13.193359 h -3.828125 z"
         style="font-size:28px;fill:#4c4c4c;fill-opacity:1"
         id="path1110" />
      <path
         d="m 114.98535,28.578692 -2.67969,2.556641 q -2.73437,-2.884766 -6.15234,-2.884766 -2.88477,0 -4.86719,1.96875 -1.968747,1.96875 -1.968747,4.853516 0,2.009766 0.874997,3.568359 0.875,1.558594 2.47461,2.447266 1.59961,0.888672 3.55469,0.888672 1.66797,0 3.04883,-0.615234 1.38086,-0.628907 3.03515,-2.269532 l 2.59766,2.707032 q -2.22852,2.173828 -4.21094,3.021484 -1.98242,0.833984 -4.52539,0.833984 -4.68945,0 -7.683592,-2.966797 -2.980468,-2.980468 -2.980468,-7.628906 0,-3.007812 1.353515,-5.345703 1.367188,-2.337891 3.896485,-3.759766 2.54297,-1.421875 5.46875,-1.421875 2.48828,0 4.78516,1.052735 2.31054,1.052734 3.97851,2.99414 z"
         style="font-size:28px;fill:#4c4c4c;fill-opacity:1"
         id="path1112" />
      <path
         d="m 127.82324,24.531817 q 4.26563,0 7.32813,3.089844 3.07617,3.089844 3.07617,7.533203 0,4.402344 -3.03516,7.451172 -3.02148,3.048828 -7.34179,3.048828 -4.52539,0 -7.51954,-3.130859 -2.99414,-3.130859 -2.99414,-7.4375 0,-2.884766 1.39454,-5.304688 1.39453,-2.419921 3.82812,-3.828125 2.44727,-1.421875 5.26367,-1.421875 z m -0.041,3.746094 q -2.78907,0 -4.68946,1.941406 -1.90039,1.941407 -1.90039,4.935547 0,3.335938 2.39258,5.277344 1.85938,1.517578 4.26563,1.517578 2.7207,0 4.63476,-1.96875 1.91406,-1.96875 1.91406,-4.853515 0,-2.871094 -1.92773,-4.853516 -1.92773,-1.996094 -4.68945,-1.996094 z"
         style="font-size:28px;fill:#4c4c4c;fill-opacity:1"
         id="path1114" />
      <path
         d="m 143.77832,25.037677 h 3.74609 l 4.64844,14.027344 4.7168,-14.027344 h 3.6914 l 3.39063,20.111328 h -3.69141 l -2.16015,-12.701172 -4.2793,12.701172 h -3.37695 l -4.22461,-12.701172 -2.20117,12.701172 h -3.73243 z"
         style="font-size:28px;fill:#4c4c4c;fill-opacity:1"
         id="path1116" />
      <path
         d="m 167.03418,25.037677 h 4.06055 q 3.29492,0 4.74414,0.615234 1.46289,0.601563 2.29687,1.96875 0.84766,1.353516 0.84766,3.253906 0,2.105469 -1.10742,3.5 -1.09375,1.394532 -2.98047,1.941407 -1.10742,0.314453 -4.03321,0.314453 v 8.517578 h -3.82812 z m 3.82812,7.861328 h 1.2168 q 1.43555,0 1.9961,-0.205078 0.56054,-0.205078 0.875,-0.669922 0.32812,-0.478516 0.32812,-1.148438 0,-1.162109 -0.90234,-1.695312 -0.65625,-0.396484 -2.4336,-0.396484 h -1.08008 z"
         style="font-size:28px;fill:#4c4c4c;fill-opacity:1"
         id="path1118" />
      <path
         d="m 183.00293,25.037677 h 4.06055 q 3.33593,0 4.74414,0.601562 1.42187,0.587891 2.2832,1.96875 0.86133,1.38086 0.86133,3.267578 0,1.982422 -0.95703,3.322266 -0.94336,1.326172 -2.85742,2.009766 l 4.75781,8.941406 h -4.1836 l -4.52539,-8.517578 h -0.35547 v 8.517578 h -3.82812 z m 3.82812,7.861328 h 1.20313 q 1.83203,0 2.51562,-0.478516 0.69727,-0.478515 0.69727,-1.585937 0,-0.65625 -0.3418,-1.134766 -0.34179,-0.492187 -0.91601,-0.697265 -0.57422,-0.21875 -2.10547,-0.21875 h -1.05274 z"
         style="font-size:28px;fill:#4c4c4c;fill-opacity:1"
         id="path1120" />
      <path
         d="m 205.11035,25.037677 h 3.88281 l 7.73829,20.111328 h -3.97852 l -1.57227,-4.142578 h -8.20312 l -1.64063,4.142578 h -3.97851 z m 1.96875,5.332031 -2.67969,6.904297 h 5.34571 z"
         style="font-size:28px;fill:#4c4c4c;fill-opacity:1"
         id="path1122" />
      <path
         d="m 219.97168,25.037677 h 4.06055 q 3.33593,0 4.74414,0.601562 1.42187,0.587891 2.2832,1.96875 0.86133,1.38086 0.86133,3.267578 0,1.982422 -0.95703,3.322266 -0.94336,1.326172 -2.85742,2.009766 l 4.75781,8.941406 h -4.1836 l -4.52539,-8.517578 h -0.35547 v 8.517578 h -3.82812 z m 3.82812,7.861328 h 1.20313 q 1.83203,0 2.51562,-0.478516 0.69727,-0.478515 0.69727,-1.585937 0,-0.65625 -0.3418,-1.134766 -0.34179,-0.492187 -0.91601,-0.697265 -0.57422,-0.21875 -2.10547,-0.21875 h -1.05274 z"
         style="font-size:28px;fill:#4c4c4c;fill-opacity:1"
         id="path1124" />
      <path
         d="m 235.96777,25.037677 h 10.97852 v 3.746094 h -7.17774 v 3.636718 h 7.17774 v 3.677735 h -7.17774 v 5.291015 h 7.17774 v 3.759766 h -10.97852 z"
         style="font-size:28px;fill:#4c4c4c;fill-opacity:1"
         id="path1126" />
    </g>
    <g
       aria-label="Le criptovalute sono dannose per il sistema bancario e possono indebolire l'apparato statale
"
       transform="matrix(0.26458333,0,0,0.26458333,0,197.53182)"
       style="font-style:normal;font-variant:normal;font-weight:bold;font-stretch:normal;font-size:16px;line-height:1.25;font-family:'Century Gothic';-inkscape-font-specification:'Century Gothic Bold';text-align:center;letter-spacing:0px;word-spacing:0px;text-anchor:middle;fill:#4c4c4c;fill-opacity:1;stroke:none"
       id="flowRoot1129">
      <path
         d="m 61.886066,264.7786 h 2.005209 v 8.62239 h 2.921875 v 1.91211 h -4.927084 z"
         style="font-size:14.66666698px;fill:#4c4c4c;fill-opacity:1"
         id="path1139" />
      <path
         d="m 75.922525,271.98303 h -6.280599 q 0.136067,0.83072 0.723307,1.32486 0.594401,0.48698 1.511068,0.48698 1.095703,0 1.883463,-0.76627 l 1.647136,0.77344 q -0.615886,0.87369 -1.475261,1.29622 -0.859375,0.41536 -2.041015,0.41536 -1.833334,0 -2.986329,-1.15299 -1.152994,-1.16016 -1.152994,-2.90039 0,-1.7832 1.145833,-2.95768 1.152995,-1.18164 2.886068,-1.18164 1.840495,0 2.993489,1.18164 1.152995,1.17448 1.152995,3.10807 z m -1.96224,-1.53972 q -0.193359,-0.65169 -0.766276,-1.05989 -0.565755,-0.40821 -1.317708,-0.40821 -0.816407,0 -1.432292,0.45834 -0.386719,0.28645 -0.716146,1.00976 z"
         style="font-size:14.66666698px;fill:#4c4c4c;fill-opacity:1"
         id="path1141" />
      <path
         d="m 89.235676,269.09696 -1.625651,0.89518 q -0.458334,-0.47982 -0.909506,-0.66602 -0.44401,-0.18619 -1.045573,-0.18619 -1.095703,0 -1.776041,0.65885 -0.673177,0.65169 -0.673177,1.67578 0,0.99544 0.651692,1.62565 0.651693,0.63021 1.711589,0.63021 1.310547,0 2.041016,-0.89518 l 1.539713,1.05273 q -1.253255,1.62565 -3.53776,1.62565 -2.055339,0 -3.222657,-1.21744 -1.160156,-1.21745 -1.160156,-2.85026 0,-1.13151 0.565755,-2.08399 0.565756,-0.95247 1.575521,-1.49674 1.016927,-0.54427 2.270183,-0.54427 1.160156,0 2.083984,0.46549 0.923828,0.45833 1.511068,1.31055 z"
         style="font-size:14.66666698px;fill:#4c4c4c;fill-opacity:1"
         id="path1143" />
      <path
         d="m 90.546225,267.52144 h 1.675781 v 0.98112 q 0.272136,-0.58008 0.723308,-0.88086 0.451171,-0.30078 0.988281,-0.30078 0.379557,0 0.794922,0.20052 l -0.608724,1.68294 q -0.34375,-0.17188 -0.565755,-0.17188 -0.451172,0 -0.766277,0.5586 -0.307942,0.55859 -0.307942,2.1914 l 0.0072,0.37956 v 3.15104 h -1.940755 z"
         style="font-size:14.66666698px;fill:#4c4c4c;fill-opacity:1"
         id="path1145" />
      <path
         d="m 96.468748,264.3131 q 0.515625,0 0.88086,0.3724 0.372396,0.37239 0.372396,0.90234 0,0.52279 -0.365235,0.89518 -0.365234,0.36524 -0.873698,0.36524 -0.522786,0 -0.895182,-0.3724 -0.365234,-0.37955 -0.365234,-0.91666 0,-0.51563 0.365234,-0.88086 0.365234,-0.36524 0.880859,-0.36524 z m -0.981119,3.20834 h 1.962239 v 7.79166 h -1.962239 z"
         style="font-size:14.66666698px;fill:#4c4c4c;fill-opacity:1"
         id="path1147" />
      <path
         d="m 101.16667,267.52144 v 0.85937 q 0.52994,-0.52995 1.14583,-0.79492 0.61588,-0.26497 1.31771,-0.26497 1.52539,0 2.59244,1.15299 1.06706,1.153 1.06706,2.95768 0,1.74024 -1.10286,2.91472 -1.10287,1.16731 -2.61393,1.16731 -0.67318,0 -1.25326,-0.23632 -0.58008,-0.24349 -1.15299,-0.78776 v 3.67382 h -1.94076 v -10.64192 z m 2.05533,1.60416 q -0.92382,0 -1.53255,0.63021 -0.60872,0.63021 -0.60872,1.64714 0,1.03841 0.60872,1.68294 0.60873,0.63737 1.53255,0.63737 0.89519,0 1.50391,-0.65169 0.61589,-0.6517 0.61589,-1.66146 0,-1.00261 -0.60157,-1.63998 -0.60156,-0.64453 -1.51823,-0.64453 z"
         style="font-size:14.66666698px;fill:#4c4c4c;fill-opacity:1"
         id="path1149" />
      <path
         d="m 109.14453,264.64969 h 1.94792 v 2.87175 h 1.16015 v 1.68294 h -1.16015 v 6.10872 h -1.94792 v -6.10872 h -1.0026 v -1.68294 h 1.0026 z"
         style="font-size:14.66666698px;fill:#4c4c4c;fill-opacity:1"
         id="path1151" />
      <path
         d="m 116.97917,267.32092 q 1.10286,0 2.06966,0.55143 0.97396,0.55143 1.51823,1.49674 0.54427,0.94532 0.54427,2.04102 0,1.10286 -0.55143,2.0625 -0.54427,0.95963 -1.48959,1.5039 -0.94531,0.53711 -2.08398,0.53711 -1.67578,0 -2.86458,-1.1888 -1.18164,-1.19596 -1.18164,-2.90039 0,-1.82617 1.33919,-3.04362 1.17448,-1.05989 2.69987,-1.05989 z m 0.0286,1.84049 q -0.9095,0 -1.51822,0.63737 -0.60157,0.63021 -0.60157,1.61849 0,1.01693 0.5944,1.64714 0.60157,0.6302 1.51823,0.6302 0.91667,0 1.52539,-0.63737 0.60873,-0.63737 0.60873,-1.63997 0,-1.0026 -0.60156,-1.62565 -0.59441,-0.63021 -1.5254,-0.63021 z"
         style="font-size:14.66666698px;fill:#4c4c4c;fill-opacity:1"
         id="path1153" />
      <path
         d="m 121.87761,267.52144 h 1.99088 l 1.9694,4.59765 1.96224,-4.59765 h 1.98373 l -3.31576,7.79166 h -1.26758 z"
         style="font-size:14.66666698px;fill:#4c4c4c;fill-opacity:1"
         id="path1155" />
      <path
         d="m 136.69466,267.52144 h 1.94792 v 7.79166 h -1.94792 v -0.82356 q -0.57292,0.54427 -1.15299,0.78776 -0.57292,0.23632 -1.2461,0.23632 -1.51107,0 -2.61393,-1.16731 -1.10287,-1.17448 -1.10287,-2.91472 0,-1.80468 1.06706,-2.95768 1.06706,-1.15299 2.59245,-1.15299 0.70182,0 1.31771,0.26497 0.61588,0.26497 1.13867,0.79492 z m -2.05534,1.60416 q -0.9095,0 -1.51107,0.64453 -0.60156,0.63737 -0.60156,1.63998 0,1.00976 0.60873,1.66146 0.61588,0.65169 1.51106,0.65169 0.92383,0 1.53256,-0.63737 0.60872,-0.64453 0.60872,-1.68294 0,-1.01693 -0.60872,-1.64714 -0.60873,-0.63021 -1.53972,-0.63021 z"
         style="font-size:14.66666698px;fill:#4c4c4c;fill-opacity:1"
         id="path1157" />
      <path
         d="m 140.41146,264.51362 h 1.95508 v 10.79948 h -1.95508 z"
         style="font-size:14.66666698px;fill:#4c4c4c;fill-opacity:1"
         id="path1159" />
      <path
         d="m 144.13542,267.52144 h 1.97656 v 3.7526 q 0,1.0957 0.15039,1.52539 0.15039,0.42253 0.47982,0.65886 0.33659,0.23632 0.82357,0.23632 0.48698,0 0.82357,-0.22916 0.34375,-0.23633 0.50846,-0.6875 0.12174,-0.33659 0.12174,-1.43946 v -3.81705 h 1.96224 v 3.30143 q 0,2.04101 -0.32226,2.79297 -0.39388,0.91666 -1.16016,1.4108 -0.76627,0.48698 -1.94791,0.48698 -1.28191,0 -2.07683,-0.57291 -0.78776,-0.57292 -1.11002,-1.59701 -0.22917,-0.70898 -0.22917,-2.57812 z"
         style="font-size:14.66666698px;fill:#4c4c4c;fill-opacity:1"
         id="path1161" />
      <path
         d="m 153.17318,264.64969 h 1.94792 v 2.87175 h 1.16016 v 1.68294 h -1.16016 v 6.10872 h -1.94792 v -6.10872 h -1.0026 v -1.68294 h 1.0026 z"
         style="font-size:14.66666698px;fill:#4c4c4c;fill-opacity:1"
         id="path1163" />
      <path
         d="m 165.1543,271.98303 h -6.2806 q 0.13607,0.83072 0.72331,1.32486 0.5944,0.48698 1.51106,0.48698 1.09571,0 1.88347,-0.76627 l 1.64713,0.77344 q -0.61588,0.87369 -1.47526,1.29622 -0.85937,0.41536 -2.04101,0.41536 -1.83334,0 -2.98633,-1.15299 -1.153,-1.16016 -1.153,-2.90039 0,-1.7832 1.14584,-2.95768 1.15299,-1.18164 2.88607,-1.18164 1.84049,0 2.99348,1.18164 1.153,1.17448 1.153,3.10807 z m -1.96224,-1.53972 q -0.19336,-0.65169 -0.76628,-1.05989 -0.56575,-0.40821 -1.31771,-0.40821 -0.8164,0 -1.43229,0.45834 -0.38672,0.28645 -0.71614,1.00976 z"
         style="font-size:14.66666698px;fill:#4c4c4c;fill-opacity:1"
         id="path1165" />
      <path
         d="m 175.61003,268.60998 -1.21029,1.21028 q -0.73763,-0.73046 -1.33919,-0.73046 -0.32943,0 -0.51563,0.14323 -0.18619,0.13606 -0.18619,0.34375 0,0.15755 0.11458,0.29361 0.12174,0.12891 0.58724,0.35808 l 0.71614,0.35807 q 1.13151,0.55859 1.55404,1.13867 0.42253,0.58008 0.42253,1.36068 0,1.03841 -0.76628,1.73307 -0.75911,0.69466 -2.04102,0.69466 -1.70442,0 -2.72135,-1.33203 l 1.20313,-1.31054 q 0.34375,0.40104 0.80208,0.65169 0.46549,0.24349 0.82357,0.24349 0.38672,0 0.62304,-0.1862 0.23633,-0.1862 0.23633,-0.42969 0,-0.45117 -0.85221,-0.88086 l -0.65886,-0.32942 q -1.89062,-0.95248 -1.89062,-2.38477 0,-0.92383 0.70898,-1.57552 0.71615,-0.65885 1.82618,-0.65885 0.75911,0 1.42513,0.33658 0.67317,0.32943 1.13867,0.95248 z"
         style="font-size:14.66666698px;fill:#4c4c4c;fill-opacity:1"
         id="path1167" />
      <path
         d="m 180.94531,267.32092 q 1.10287,0 2.06967,0.55143 0.97395,0.55143 1.51822,1.49674 0.54428,0.94532 0.54428,2.04102 0,1.10286 -0.55144,2.0625 -0.54427,0.95963 -1.48958,1.5039 -0.94531,0.53711 -2.08398,0.53711 -1.67579,0 -2.86459,-1.1888 -1.18164,-1.19596 -1.18164,-2.90039 0,-1.82617 1.33919,-3.04362 1.17448,-1.05989 2.69987,-1.05989 z m 0.0286,1.84049 q -0.90951,0 -1.51823,0.63737 -0.60156,0.63021 -0.60156,1.61849 0,1.01693 0.5944,1.64714 0.60156,0.6302 1.51823,0.6302 0.91666,0 1.52539,-0.63737 0.60872,-0.63737 0.60872,-1.63997 0,-1.0026 -0.60156,-1.62565 -0.5944,-0.63021 -1.52539,-0.63021 z"
         style="font-size:14.66666698px;fill:#4c4c4c;fill-opacity:1"
         id="path1169" />
      <path
         d="m 186.68164,267.52144 h 1.94792 v 0.79492 q 0.66602,-0.5586 1.20313,-0.77344 0.54427,-0.222 1.11002,-0.222 1.16016,0 1.9694,0.80924 0.68034,0.6875 0.68034,2.03385 v 5.14909 h -1.93359 v -3.41601 q 0,-1.39649 -0.12891,-1.85482 -0.12174,-0.45833 -0.43685,-0.69466 -0.30794,-0.24349 -0.76627,-0.24349 -0.5944,0 -1.02409,0.40104 -0.42253,0.39388 -0.58724,1.0957 -0.0859,0.36524 -0.0859,1.58269 v 3.12955 h -1.94792 z"
         style="font-size:14.66666698px;fill:#4c4c4c;fill-opacity:1"
         id="path1171" />
      <path
         d="m 199.13542,267.32092 q 1.10286,0 2.06966,0.55143 0.97396,0.55143 1.51823,1.49674 0.54427,0.94532 0.54427,2.04102 0,1.10286 -0.55144,2.0625 -0.54427,0.95963 -1.48958,1.5039 -0.94531,0.53711 -2.08398,0.53711 -1.67578,0 -2.86459,-1.1888 -1.18164,-1.19596 -1.18164,-2.90039 0,-1.82617 1.3392,-3.04362 1.17447,-1.05989 2.69987,-1.05989 z m 0.0286,1.84049 q -0.9095,0 -1.51823,0.63737 -0.60156,0.63021 -0.60156,1.61849 0,1.01693 0.5944,1.64714 0.60156,0.6302 1.51823,0.6302 0.91667,0 1.52539,-0.63737 0.60872,-0.63737 0.60872,-1.63997 0,-1.0026 -0.60156,-1.62565 -0.5944,-0.63021 -1.52539,-0.63021 z"
         style="font-size:14.66666698px;fill:#4c4c4c;fill-opacity:1"
         id="path1173" />
      <path
         d="m 59.537108,284.51362 h 1.947917 v 10.79948 h -1.947917 v -0.82356 q -0.572917,0.54427 -1.152995,0.78776 -0.572917,0.23632 -1.246094,0.23632 -1.511068,0 -2.613932,-1.16731 -1.102865,-1.17448 -1.102865,-2.91472 0,-1.80468 1.067058,-2.95768 1.067057,-1.15299 2.592448,-1.15299 0.701822,0 1.317708,0.26497 0.615885,0.26497 1.138672,0.79492 z m -2.055339,4.61198 q -0.909505,0 -1.511068,0.64453 -0.601562,0.63737 -0.601562,1.63998 0,1.00976 0.608724,1.66146 0.615885,0.65169 1.511068,0.65169 0.923828,0 1.532552,-0.63737 0.608724,-0.64453 0.608724,-1.68294 0,-1.01693 -0.608724,-1.64714 -0.608724,-0.63021 -1.539714,-0.63021 z"
         style="font-size:14.66666698px;fill:#4c4c4c;fill-opacity:1"
         id="path1175" />
      <path
         d="m 69.2194,287.52144 h 1.947916 v 7.79166 H 69.2194 v -0.82356 q -0.572917,0.54427 -1.152995,0.78776 -0.572917,0.23632 -1.246094,0.23632 -1.511068,0 -2.613932,-1.16731 -1.102865,-1.17448 -1.102865,-2.91472 0,-1.80468 1.067058,-2.95768 1.067057,-1.15299 2.592448,-1.15299 0.701822,0 1.317708,0.26497 0.615885,0.26497 1.138672,0.79492 z m -2.055339,1.60416 q -0.909505,0 -1.511068,0.64453 -0.601562,0.63737 -0.601562,1.63998 0,1.00976 0.608724,1.66146 0.615885,0.65169 1.511068,0.65169 0.923828,0 1.532552,-0.63737 0.608724,-0.64453 0.608724,-1.68294 0,-1.01693 -0.608724,-1.64714 -0.608724,-0.63021 -1.539714,-0.63021 z"
         style="font-size:14.66666698px;fill:#4c4c4c;fill-opacity:1"
         id="path1177" />
      <path
         d="m 73.143879,287.52144 h 1.947917 v 0.79492 q 0.666015,-0.5586 1.203125,-0.77344 0.544271,-0.222 1.110026,-0.222 1.160156,0 1.969401,0.80924 0.680339,0.6875 0.680339,2.03385 v 5.14909 h -1.933594 v -3.41601 q 0,-1.39649 -0.128906,-1.85482 -0.121745,-0.45833 -0.436849,-0.69466 -0.307943,-0.24349 -0.766276,-0.24349 -0.594402,0 -1.024089,0.40104 -0.422526,0.39388 -0.58724,1.0957 -0.08594,0.36524 -0.08594,1.58269 v 3.12955 h -1.947917 z"
         style="font-size:14.66666698px;fill:#4c4c4c;fill-opacity:1"
         id="path1179" />
      <path
         d="m 81.938151,287.52144 h 1.947916 v 0.79492 q 0.666016,-0.5586 1.203125,-0.77344 0.544271,-0.222 1.110026,-0.222 1.160157,0 1.969401,0.80924 0.680339,0.6875 0.680339,2.03385 v 5.14909 h -1.933594 v -3.41601 q 0,-1.39649 -0.128906,-1.85482 -0.121745,-0.45833 -0.436849,-0.69466 -0.307943,-0.24349 -0.766276,-0.24349 -0.594401,0 -1.024089,0.40104 -0.422526,0.39388 -0.587239,1.0957 -0.08594,0.36524 -0.08594,1.58269 v 3.12955 h -1.947916 z"
         style="font-size:14.66666698px;fill:#4c4c4c;fill-opacity:1"
         id="path1181" />
      <path
         d="m 94.391925,287.32092 q 1.102865,0 2.069662,0.55143 0.973958,0.55143 1.518229,1.49674 0.544271,0.94532 0.544271,2.04102 0,1.10286 -0.551432,2.0625 -0.544271,0.95963 -1.489584,1.5039 -0.945312,0.53711 -2.083984,0.53711 -1.675781,0 -2.864583,-1.1888 -1.181641,-1.19596 -1.181641,-2.90039 0,-1.82617 1.339193,-3.04362 1.174479,-1.05989 2.699869,-1.05989 z m 0.02865,1.84049 q -0.909505,0 -1.518229,0.63737 -0.601562,0.63021 -0.601562,1.61849 0,1.01693 0.594401,1.64714 0.601562,0.6302 1.518229,0.6302 0.916667,0 1.52539,-0.63737 0.608724,-0.63737 0.608724,-1.63997 0,-1.0026 -0.601562,-1.62565 -0.594401,-0.63021 -1.525391,-0.63021 z"
         style="font-size:14.66666698px;fill:#4c4c4c;fill-opacity:1"
         id="path1183" />
      <path
         d="m 104.89779,288.60998 -1.21029,1.21028 q -0.73763,-0.73046 -1.33919,-0.73046 -0.32943,0 -0.51563,0.14323 -0.18619,0.13606 -0.18619,0.34375 0,0.15755 0.11458,0.29361 0.12174,0.12891 0.58724,0.35808 l 0.71614,0.35807 q 1.13151,0.55859 1.55404,1.13867 0.42253,0.58008 0.42253,1.36068 0,1.03841 -0.76628,1.73307 -0.75911,0.69466 -2.04102,0.69466 -1.70442,0 -2.721349,-1.33203 l 1.203129,-1.31054 q 0.34375,0.40104 0.80208,0.65169 0.46549,0.24349 0.82357,0.24349 0.38672,0 0.62304,-0.1862 0.23633,-0.1862 0.23633,-0.42969 0,-0.45117 -0.85221,-0.88086 l -0.65886,-0.32942 q -1.890621,-0.95248 -1.890621,-2.38477 0,-0.92383 0.708981,-1.57552 0.71615,-0.65885 1.82618,-0.65885 0.75911,0 1.42513,0.33658 0.67317,0.32943 1.13867,0.95248 z"
         style="font-size:14.66666698px;fill:#4c4c4c;fill-opacity:1"
         id="path1185" />
      <path
         d="m 114.37956,291.98303 h -6.2806 q 0.13607,0.83072 0.72331,1.32486 0.5944,0.48698 1.51106,0.48698 1.09571,0 1.88347,-0.76627 l 1.64713,0.77344 q -0.61588,0.87369 -1.47526,1.29622 -0.85937,0.41536 -2.04101,0.41536 -1.83334,0 -2.98633,-1.15299 -1.153,-1.16016 -1.153,-2.90039 0,-1.7832 1.14584,-2.95768 1.15299,-1.18164 2.88607,-1.18164 1.84049,0 2.99348,1.18164 1.153,1.17448 1.153,3.10807 z m -1.96224,-1.53972 q -0.19336,-0.65169 -0.76628,-1.05989 -0.56575,-0.40821 -1.31771,-0.40821 -0.8164,0 -1.43229,0.45834 -0.38672,0.28645 -0.71614,1.00976 z"
         style="font-size:14.66666698px;fill:#4c4c4c;fill-opacity:1"
         id="path1187" />
      <path
         d="m 122.00651,287.52144 v 0.85937 q 0.52995,-0.52995 1.14583,-0.79492 0.61589,-0.26497 1.31771,-0.26497 1.52539,0 2.59245,1.15299 1.06706,1.153 1.06706,2.95768 0,1.74024 -1.10287,2.91472 -1.10286,1.16731 -2.61393,1.16731 -0.67318,0 -1.25325,-0.23632 -0.58008,-0.24349 -1.153,-0.78776 v 3.67382 h -1.94075 v -10.64192 z m 2.05534,1.60416 q -0.92383,0 -1.53255,0.63021 -0.60873,0.63021 -0.60873,1.64714 0,1.03841 0.60873,1.68294 0.60872,0.63737 1.53255,0.63737 0.89518,0 1.50391,-0.65169 0.61588,-0.6517 0.61588,-1.66146 0,-1.00261 -0.60156,-1.63998 -0.60156,-0.64453 -1.51823,-0.64453 z"
         style="font-size:14.66666698px;fill:#4c4c4c;fill-opacity:1"
         id="path1189" />
      <path
         d="m 137.55403,291.98303 h -6.28059 q 0.13606,0.83072 0.7233,1.32486 0.5944,0.48698 1.51107,0.48698 1.0957,0 1.88346,-0.76627 l 1.64714,0.77344 q -0.61589,0.87369 -1.47526,1.29622 -0.85938,0.41536 -2.04102,0.41536 -1.83333,0 -2.98632,-1.15299 -1.153,-1.16016 -1.153,-2.90039 0,-1.7832 1.14583,-2.95768 1.153,-1.18164 2.88607,-1.18164 1.8405,0 2.99349,1.18164 1.153,1.17448 1.153,3.10807 z m -1.96223,-1.53972 q -0.19336,-0.65169 -0.76628,-1.05989 -0.56576,-0.40821 -1.31771,-0.40821 -0.81641,0 -1.43229,0.45834 -0.38672,0.28645 -0.71615,1.00976 z"
         style="font-size:14.66666698px;fill:#4c4c4c;fill-opacity:1"
         id="path1191" />
      <path
         d="m 138.68555,287.52144 h 1.67578 v 0.98112 q 0.27213,-0.58008 0.72331,-0.88086 0.45117,-0.30078 0.98828,-0.30078 0.37955,0 0.79492,0.20052 l -0.60872,1.68294 q -0.34375,-0.17188 -0.56576,-0.17188 -0.45117,0 -0.76628,0.5586 -0.30794,0.55859 -0.30794,2.1914 l 0.007,0.37956 v 3.15104 h -1.94075 z"
         style="font-size:14.66666698px;fill:#4c4c4c;fill-opacity:1"
         id="path1193" />
      <path
         d="m 148.70443,284.3131 q 0.51563,0 0.88086,0.3724 0.3724,0.37239 0.3724,0.90234 0,0.52279 -0.36524,0.89518 -0.36523,0.36524 -0.8737,0.36524 -0.52278,0 -0.89518,-0.3724 -0.36523,-0.37955 -0.36523,-0.91666 0,-0.51563 0.36523,-0.88086 0.36524,-0.36524 0.88086,-0.36524 z m -0.98112,3.20834 h 1.96224 v 7.79166 h -1.96224 z"
         style="font-size:14.66666698px;fill:#4c4c4c;fill-opacity:1"
         id="path1195" />
      <path
         d="m 151.25391,284.51362 h 1.95508 v 10.79948 h -1.95508 z"
         style="font-size:14.66666698px;fill:#4c4c4c;fill-opacity:1"
         id="path1197" />
      <path
         d="m 163.85091,288.60998 -1.21028,1.21028 q -0.73763,-0.73046 -1.3392,-0.73046 -0.32942,0 -0.51562,0.14323 -0.1862,0.13606 -0.1862,0.34375 0,0.15755 0.11458,0.29361 0.12175,0.12891 0.58724,0.35808 l 0.71615,0.35807 q 1.13151,0.55859 1.55404,1.13867 0.42252,0.58008 0.42252,1.36068 0,1.03841 -0.76627,1.73307 -0.75912,0.69466 -2.04102,0.69466 -1.70443,0 -2.72135,-1.33203 l 1.20312,-1.31054 q 0.34375,0.40104 0.80208,0.65169 0.4655,0.24349 0.82357,0.24349 0.38672,0 0.62305,-0.1862 0.23633,-0.1862 0.23633,-0.42969 0,-0.45117 -0.85222,-0.88086 l -0.65885,-0.32942 q -1.89063,-0.95248 -1.89063,-2.38477 0,-0.92383 0.70899,-1.57552 0.71614,-0.65885 1.82617,-0.65885 0.75911,0 1.42513,0.33658 0.67318,0.32943 1.13867,0.95248 z"
         style="font-size:14.66666698px;fill:#4c4c4c;fill-opacity:1"
         id="path1199" />
      <path
         d="m 166.29297,284.3131 q 0.51562,0 0.88086,0.3724 0.37239,0.37239 0.37239,0.90234 0,0.52279 -0.36523,0.89518 -0.36523,0.36524 -0.8737,0.36524 -0.52278,0 -0.89518,-0.3724 -0.36523,-0.37955 -0.36523,-0.91666 0,-0.51563 0.36523,-0.88086 0.36523,-0.36524 0.88086,-0.36524 z m -0.98112,3.20834 h 1.96224 v 7.79166 h -1.96224 z"
         style="font-size:14.66666698px;fill:#4c4c4c;fill-opacity:1"
         id="path1201" />
      <path
         d="m 173.81966,288.60998 -1.21028,1.21028 q -0.73763,-0.73046 -1.3392,-0.73046 -0.32942,0 -0.51562,0.14323 -0.1862,0.13606 -0.1862,0.34375 0,0.15755 0.11458,0.29361 0.12175,0.12891 0.58724,0.35808 l 0.71615,0.35807 q 1.13151,0.55859 1.55404,1.13867 0.42252,0.58008 0.42252,1.36068 0,1.03841 -0.76627,1.73307 -0.75912,0.69466 -2.04102,0.69466 -1.70443,0 -2.72135,-1.33203 l 1.20312,-1.31054 q 0.34375,0.40104 0.80208,0.65169 0.4655,0.24349 0.82357,0.24349 0.38672,0 0.62305,-0.1862 0.23633,-0.1862 0.23633,-0.42969 0,-0.45117 -0.85222,-0.88086 l -0.65885,-0.32942 q -1.89063,-0.95248 -1.89063,-2.38477 0,-0.92383 0.70899,-1.57552 0.71614,-0.65885 1.82617,-0.65885 0.75911,0 1.42513,0.33658 0.67318,0.32943 1.13867,0.95248 z"
         style="font-size:14.66666698px;fill:#4c4c4c;fill-opacity:1"
         id="path1203" />
      <path
         d="m 175.73177,284.64969 h 1.94792 v 2.87175 h 1.16015 v 1.68294 h -1.16015 v 6.10872 h -1.94792 v -6.10872 h -1.0026 v -1.68294 h 1.0026 z"
         style="font-size:14.66666698px;fill:#4c4c4c;fill-opacity:1"
         id="path1205" />
      <path
         d="m 187.71289,291.98303 h -6.28059 q 0.13606,0.83072 0.7233,1.32486 0.5944,0.48698 1.51107,0.48698 1.0957,0 1.88346,-0.76627 l 1.64714,0.77344 q -0.61589,0.87369 -1.47526,1.29622 -0.85938,0.41536 -2.04102,0.41536 -1.83333,0 -2.98633,-1.15299 -1.15299,-1.16016 -1.15299,-2.90039 0,-1.7832 1.14583,-2.95768 1.153,-1.18164 2.88607,-1.18164 1.8405,0 2.99349,1.18164 1.153,1.17448 1.153,3.10807 z m -1.96224,-1.53972 q -0.19335,-0.65169 -0.76627,-1.05989 -0.56576,-0.40821 -1.31771,-0.40821 -0.81641,0 -1.43229,0.45834 -0.38672,0.28645 -0.71615,1.00976 z"
         style="font-size:14.66666698px;fill:#4c4c4c;fill-opacity:1"
         id="path1207" />
      <path
         d="m 189.28841,287.52144 h 1.96224 v 0.89518 q 0.5013,-0.55143 1.11003,-0.82357 0.61588,-0.27213 1.33919,-0.27213 0.73047,0 1.31771,0.35807 0.58724,0.35807 0.94531,1.04557 0.46549,-0.6875 1.13867,-1.04557 0.68034,-0.35807 1.48242,-0.35807 0.83073,0 1.46094,0.38671 0.63021,0.38672 0.90234,1.00977 0.2793,0.62305 0.2793,2.02669 v 4.56901 h -1.9694 v -3.95312 q 0,-1.32487 -0.32943,-1.79037 -0.32942,-0.47265 -0.98828,-0.47265 -0.5013,0 -0.90234,0.28646 -0.39388,0.28645 -0.58724,0.79492 -0.19336,0.5013 -0.19336,1.61849 v 3.51627 h -1.9694 v -3.77409 q 0,-1.04557 -0.15755,-1.51106 -0.15039,-0.47266 -0.45834,-0.70183 -0.30794,-0.22916 -0.74479,-0.22916 -0.48698,0 -0.88802,0.29362 -0.39388,0.28646 -0.5944,0.80924 -0.19336,0.52279 -0.19336,1.64714 v 3.46614 h -1.96224 z"
         style="font-size:14.66666698px;fill:#4c4c4c;fill-opacity:1"
         id="path1209" />
      <path
         d="m 208.8392,287.52144 h 1.94792 v 7.79166 h -1.94792 v -0.82356 q -0.57292,0.54427 -1.15299,0.78776 -0.57292,0.23632 -1.2461,0.23632 -1.51107,0 -2.61393,-1.16731 -1.10286,-1.17448 -1.10286,-2.91472 0,-1.80468 1.06705,-2.95768 1.06706,-1.15299 2.59245,-1.15299 0.70182,0 1.31771,0.26497 0.61588,0.26497 1.13867,0.79492 z m -2.05534,1.60416 q -0.9095,0 -1.51107,0.64453 -0.60156,0.63737 -0.60156,1.63998 0,1.00976 0.60873,1.66146 0.61588,0.65169 1.51106,0.65169 0.92383,0 1.53256,-0.63737 0.60872,-0.64453 0.60872,-1.68294 0,-1.01693 -0.60872,-1.64714 -0.60873,-0.63021 -1.53972,-0.63021 z"
         style="font-size:14.66666698px;fill:#4c4c4c;fill-opacity:1"
         id="path1211" />
      <path
         d="m 64.21354,304.51362 v 3.86719 q 0.529948,-0.52995 1.145834,-0.79492 0.615885,-0.26497 1.317708,-0.26497 1.525391,0 2.592448,1.15299 1.067057,1.153 1.067057,2.95768 0,1.74024 -1.102864,2.91472 -1.102865,1.16731 -2.613933,1.16731 -0.673177,0 -1.253255,-0.23632 -0.580078,-0.24349 -1.152995,-0.78776 v 0.82356 h -1.940755 v -10.79948 z m 2.055339,4.61198 q -0.923828,0 -1.532552,0.63021 -0.608724,0.63021 -0.608724,1.64714 0,1.03841 0.608724,1.68294 0.608724,0.63737 1.532552,0.63737 0.895182,0 1.503906,-0.65169 0.615885,-0.6517 0.615885,-1.66146 0,-1.00261 -0.601562,-1.63998 -0.601563,-0.64453 -1.518229,-0.64453 z"
         style="font-size:14.66666698px;fill:#4c4c4c;fill-opacity:1"
         id="path1213" />
      <path
         d="m 77.71289,307.52144 h 1.947916 v 7.79166 H 77.71289 v -0.82356 q -0.572917,0.54427 -1.152995,0.78776 -0.572917,0.23632 -1.246094,0.23632 -1.511068,0 -2.613932,-1.16731 -1.102865,-1.17448 -1.102865,-2.91472 0,-1.80468 1.067057,-2.95768 1.067058,-1.15299 2.592448,-1.15299 0.701823,0 1.317709,0.26497 0.615885,0.26497 1.138672,0.79492 z m -2.055339,1.60416 q -0.909505,0 -1.511068,0.64453 -0.601562,0.63737 -0.601562,1.63998 0,1.00976 0.608724,1.66146 0.615885,0.65169 1.511067,0.65169 0.923829,0 1.532553,-0.63737 0.608724,-0.64453 0.608724,-1.68294 0,-1.01693 -0.608724,-1.64714 -0.608724,-0.63021 -1.539714,-0.63021 z"
         style="font-size:14.66666698px;fill:#4c4c4c;fill-opacity:1"
         id="path1215" />
      <path
         d="m 81.637369,307.52144 h 1.947917 v 0.79492 q 0.666015,-0.5586 1.203125,-0.77344 0.54427,-0.222 1.110026,-0.222 1.160156,0 1.969401,0.80924 0.680338,0.6875 0.680338,2.03385 v 5.14909 h -1.933593 v -3.41601 q 0,-1.39649 -0.128907,-1.85482 -0.121744,-0.45833 -0.436849,-0.69466 -0.307942,-0.24349 -0.766276,-0.24349 -0.594401,0 -1.024088,0.40104 -0.422526,0.39388 -0.58724,1.0957 -0.08594,0.36524 -0.08594,1.58269 v 3.12955 h -1.947917 z"
         style="font-size:14.66666698px;fill:#4c4c4c;fill-opacity:1"
         id="path1217" />
      <path
         d="m 98.058594,309.09696 -1.625651,0.89518 q -0.458334,-0.47982 -0.909506,-0.66602 -0.44401,-0.18619 -1.045573,-0.18619 -1.095703,0 -1.776041,0.65885 -0.673177,0.65169 -0.673177,1.67578 0,0.99544 0.651692,1.62565 0.651693,0.63021 1.711589,0.63021 1.310547,0 2.041016,-0.89518 l 1.539713,1.05273 q -1.253255,1.62565 -3.53776,1.62565 -2.055339,0 -3.222657,-1.21744 -1.160156,-1.21745 -1.160156,-2.85026 0,-1.13151 0.565755,-2.08399 0.565756,-0.95247 1.575521,-1.49674 1.016927,-0.54427 2.270183,-0.54427 1.160156,0 2.083984,0.46549 0.923828,0.45833 1.511068,1.31055 z"
         style="font-size:14.66666698px;fill:#4c4c4c;fill-opacity:1"
         id="path1219" />
      <path
         d="m 105.58529,307.52144 h 1.94791 v 7.79166 h -1.94791 v -0.82356 q -0.57292,0.54427 -1.153,0.78776 -0.57292,0.23632 -1.24609,0.23632 -1.51107,0 -2.61394,-1.16731 -1.10286,-1.17448 -1.10286,-2.91472 0,-1.80468 1.06706,-2.95768 1.06705,-1.15299 2.59244,-1.15299 0.70183,0 1.31771,0.26497 0.61589,0.26497 1.13868,0.79492 z m -2.05534,1.60416 q -0.90951,0 -1.51107,0.64453 -0.60156,0.63737 -0.60156,1.63998 0,1.00976 0.60872,1.66146 0.61589,0.65169 1.51107,0.65169 0.92383,0 1.53255,-0.63737 0.60872,-0.64453 0.60872,-1.68294 0,-1.01693 -0.60872,-1.64714 -0.60872,-0.63021 -1.53971,-0.63021 z"
         style="font-size:14.66666698px;fill:#4c4c4c;fill-opacity:1"
         id="path1221" />
      <path
         d="m 109.05143,307.52144 h 1.67578 v 0.98112 q 0.27214,-0.58008 0.72331,-0.88086 0.45117,-0.30078 0.98828,-0.30078 0.37956,0 0.79492,0.20052 l -0.60872,1.68294 q -0.34375,-0.17188 -0.56576,-0.17188 -0.45117,0 -0.76627,0.5586 -0.30794,0.55859 -0.30794,2.1914 l 0.007,0.37956 v 3.15104 h -1.94076 z"
         style="font-size:14.66666698px;fill:#4c4c4c;fill-opacity:1"
         id="path1223" />
      <path
         d="m 114.97396,304.3131 q 0.51562,0 0.88086,0.3724 0.37239,0.37239 0.37239,0.90234 0,0.52279 -0.36523,0.89518 -0.36523,0.36524 -0.8737,0.36524 -0.52278,0 -0.89518,-0.3724 -0.36523,-0.37955 -0.36523,-0.91666 0,-0.51563 0.36523,-0.88086 0.36523,-0.36524 0.88086,-0.36524 z m -0.98112,3.20834 h 1.96224 v 7.79166 h -1.96224 z"
         style="font-size:14.66666698px;fill:#4c4c4c;fill-opacity:1"
         id="path1225" />
      <path
         d="m 121.39063,307.32092 q 1.10286,0 2.06966,0.55143 0.97396,0.55143 1.51823,1.49674 0.54427,0.94532 0.54427,2.04102 0,1.10286 -0.55143,2.0625 -0.54428,0.95963 -1.48959,1.5039 -0.94531,0.53711 -2.08398,0.53711 -1.67578,0 -2.86459,-1.1888 -1.18164,-1.19596 -1.18164,-2.90039 0,-1.82617 1.3392,-3.04362 1.17448,-1.05989 2.69987,-1.05989 z m 0.0286,1.84049 q -0.9095,0 -1.51823,0.63737 -0.60156,0.63021 -0.60156,1.61849 0,1.01693 0.5944,1.64714 0.60156,0.6302 1.51823,0.6302 0.91667,0 1.52539,-0.63737 0.60873,-0.63737 0.60873,-1.63997 0,-1.0026 -0.60157,-1.62565 -0.5944,-0.63021 -1.52539,-0.63021 z"
         style="font-size:14.66666698px;fill:#4c4c4c;fill-opacity:1"
         id="path1227" />
      <path
         d="m 139.0293,311.98303 h -6.2806 q 0.13607,0.83072 0.72331,1.32486 0.5944,0.48698 1.51106,0.48698 1.09571,0 1.88347,-0.76627 l 1.64713,0.77344 q -0.61588,0.87369 -1.47526,1.29622 -0.85937,0.41536 -2.04101,0.41536 -1.83334,0 -2.98633,-1.15299 -1.153,-1.16016 -1.153,-2.90039 0,-1.7832 1.14584,-2.95768 1.15299,-1.18164 2.88607,-1.18164 1.84049,0 2.99348,1.18164 1.153,1.17448 1.153,3.10807 z m -1.96224,-1.53972 q -0.19336,-0.65169 -0.76628,-1.05989 -0.56575,-0.40821 -1.31771,-0.40821 -0.8164,0 -1.43229,0.45834 -0.38672,0.28645 -0.71614,1.00976 z"
         style="font-size:14.66666698px;fill:#4c4c4c;fill-opacity:1"
         id="path1229" />
      <path
         d="m 146.65625,307.52144 v 0.85937 q 0.52995,-0.52995 1.14583,-0.79492 0.61589,-0.26497 1.31771,-0.26497 1.52539,0 2.59245,1.15299 1.06706,1.153 1.06706,2.95768 0,1.74024 -1.10287,2.91472 -1.10286,1.16731 -2.61393,1.16731 -0.67318,0 -1.25325,-0.23632 -0.58008,-0.24349 -1.153,-0.78776 v 3.67382 h -1.94075 v -10.64192 z m 2.05534,1.60416 q -0.92383,0 -1.53255,0.63021 -0.60873,0.63021 -0.60873,1.64714 0,1.03841 0.60873,1.68294 0.60872,0.63737 1.53255,0.63737 0.89518,0 1.50391,-0.65169 0.61588,-0.6517 0.61588,-1.66146 0,-1.00261 -0.60156,-1.63998 -0.60156,-0.64453 -1.51823,-0.64453 z"
         style="font-size:14.66666698px;fill:#4c4c4c;fill-opacity:1"
         id="path1231" />
      <path
         d="m 158.0573,307.32092 q 1.10286,0 2.06966,0.55143 0.97396,0.55143 1.51823,1.49674 0.54427,0.94532 0.54427,2.04102 0,1.10286 -0.55143,2.0625 -0.54427,0.95963 -1.48959,1.5039 -0.94531,0.53711 -2.08398,0.53711 -1.67578,0 -2.86458,-1.1888 -1.18164,-1.19596 -1.18164,-2.90039 0,-1.82617 1.33919,-3.04362 1.17448,-1.05989 2.69987,-1.05989 z m 0.0286,1.84049 q -0.9095,0 -1.51823,0.63737 -0.60156,0.63021 -0.60156,1.61849 0,1.01693 0.5944,1.64714 0.60157,0.6302 1.51823,0.6302 0.91667,0 1.52539,-0.63737 0.60873,-0.63737 0.60873,-1.63997 0,-1.0026 -0.60157,-1.62565 -0.5944,-0.63021 -1.52539,-0.63021 z"
         style="font-size:14.66666698px;fill:#4c4c4c;fill-opacity:1"
         id="path1233" />
      <path
         d="m 168.56315,308.60998 -1.21028,1.21028 q -0.73763,-0.73046 -1.3392,-0.73046 -0.32942,0 -0.51562,0.14323 -0.1862,0.13606 -0.1862,0.34375 0,0.15755 0.11458,0.29361 0.12175,0.12891 0.58724,0.35808 l 0.71615,0.35807 q 1.13151,0.55859 1.55404,1.13867 0.42252,0.58008 0.42252,1.36068 0,1.03841 -0.76627,1.73307 -0.75912,0.69466 -2.04102,0.69466 -1.70443,0 -2.72135,-1.33203 l 1.20312,-1.31054 q 0.34375,0.40104 0.80208,0.65169 0.4655,0.24349 0.82357,0.24349 0.38672,0 0.62305,-0.1862 0.23633,-0.1862 0.23633,-0.42969 0,-0.45117 -0.85222,-0.88086 l -0.65885,-0.32942 q -1.89063,-0.95248 -1.89063,-2.38477 0,-0.92383 0.70899,-1.57552 0.71614,-0.65885 1.82617,-0.65885 0.75911,0 1.42513,0.33658 0.67318,0.32943 1.13867,0.95248 z"
         style="font-size:14.66666698px;fill:#4c4c4c;fill-opacity:1"
         id="path1235" />
      <path
         d="m 175.00846,308.60998 -1.21028,1.21028 q -0.73763,-0.73046 -1.33919,-0.73046 -0.32943,0 -0.51563,0.14323 -0.1862,0.13606 -0.1862,0.34375 0,0.15755 0.11459,0.29361 0.12174,0.12891 0.58724,0.35808 l 0.71614,0.35807 q 1.13151,0.55859 1.55404,1.13867 0.42252,0.58008 0.42252,1.36068 0,1.03841 -0.76627,1.73307 -0.75912,0.69466 -2.04102,0.69466 -1.70443,0 -2.72135,-1.33203 l 1.20312,-1.31054 q 0.34375,0.40104 0.80209,0.65169 0.46549,0.24349 0.82356,0.24349 0.38672,0 0.62305,-0.1862 0.23633,-0.1862 0.23633,-0.42969 0,-0.45117 -0.85221,-0.88086 l -0.65886,-0.32942 q -1.89062,-0.95248 -1.89062,-2.38477 0,-0.92383 0.70898,-1.57552 0.71615,-0.65885 1.82617,-0.65885 0.75912,0 1.42513,0.33658 0.67318,0.32943 1.13867,0.95248 z"
         style="font-size:14.66666698px;fill:#4c4c4c;fill-opacity:1"
         id="path1237" />
      <path
         d="m 180.34375,307.32092 q 1.10287,0 2.06966,0.55143 0.97396,0.55143 1.51823,1.49674 0.54427,0.94532 0.54427,2.04102 0,1.10286 -0.55143,2.0625 -0.54427,0.95963 -1.48958,1.5039 -0.94532,0.53711 -2.08399,0.53711 -1.67578,0 -2.86458,-1.1888 -1.18164,-1.19596 -1.18164,-2.90039 0,-1.82617 1.33919,-3.04362 1.17448,-1.05989 2.69987,-1.05989 z m 0.0286,1.84049 q -0.90951,0 -1.51823,0.63737 -0.60156,0.63021 -0.60156,1.61849 0,1.01693 0.5944,1.64714 0.60156,0.6302 1.51823,0.6302 0.91666,0 1.52539,-0.63737 0.60872,-0.63737 0.60872,-1.63997 0,-1.0026 -0.60156,-1.62565 -0.5944,-0.63021 -1.52539,-0.63021 z"
         style="font-size:14.66666698px;fill:#4c4c4c;fill-opacity:1"
         id="path1239" />
      <path
         d="m 186.08008,307.52144 h 1.94792 v 0.79492 q 0.66601,-0.5586 1.20312,-0.77344 0.54427,-0.222 1.11003,-0.222 1.16016,0 1.9694,0.80924 0.68034,0.6875 0.68034,2.03385 v 5.14909 h -1.93359 v -3.41601 q 0,-1.39649 -0.12891,-1.85482 -0.12175,-0.45833 -0.43685,-0.69466 -0.30794,-0.24349 -0.76628,-0.24349 -0.5944,0 -1.02408,0.40104 -0.42253,0.39388 -0.58724,1.0957 -0.0859,0.36524 -0.0859,1.58269 v 3.12955 h -1.94792 z"
         style="font-size:14.66666698px;fill:#4c4c4c;fill-opacity:1"
         id="path1241" />
      <path
         d="m 198.53385,307.32092 q 1.10287,0 2.06966,0.55143 0.97396,0.55143 1.51823,1.49674 0.54427,0.94532 0.54427,2.04102 0,1.10286 -0.55143,2.0625 -0.54427,0.95963 -1.48958,1.5039 -0.94531,0.53711 -2.08399,0.53711 -1.67578,0 -2.86458,-1.1888 -1.18164,-1.19596 -1.18164,-2.90039 0,-1.82617 1.33919,-3.04362 1.17448,-1.05989 2.69987,-1.05989 z m 0.0286,1.84049 q -0.90951,0 -1.51823,0.63737 -0.60156,0.63021 -0.60156,1.61849 0,1.01693 0.5944,1.64714 0.60156,0.6302 1.51823,0.6302 0.91666,0 1.52539,-0.63737 0.60872,-0.63737 0.60872,-1.63997 0,-1.0026 -0.60156,-1.62565 -0.5944,-0.63021 -1.52539,-0.63021 z"
         style="font-size:14.66666698px;fill:#4c4c4c;fill-opacity:1"
         id="path1243" />
      <path
         d="m 33.519529,324.3131 q 0.515625,0 0.88086,0.3724 0.372395,0.37239 0.372395,0.90234 0,0.52279 -0.365234,0.89518 -0.365234,0.36524 -0.873698,0.36524 -0.522786,0 -0.895182,-0.3724 -0.365235,-0.37955 -0.365235,-0.91666 0,-0.51563 0.365235,-0.88086 0.365234,-0.36524 0.880859,-0.36524 z m -0.98112,3.20834 h 1.96224 v 7.79166 h -1.96224 z"
         style="font-size:14.66666698px;fill:#4c4c4c;fill-opacity:1"
         id="path1245" />
      <path
         d="m 36.276691,327.52144 h 1.947916 v 0.79492 q 0.666016,-0.5586 1.203125,-0.77344 0.544271,-0.222 1.110026,-0.222 1.160157,0 1.969401,0.80924 0.680339,0.6875 0.680339,2.03385 v 5.14909 h -1.933594 v -3.41601 q 0,-1.39649 -0.128906,-1.85482 -0.121745,-0.45833 -0.436849,-0.69466 -0.307943,-0.24349 -0.766276,-0.24349 -0.594401,0 -1.024089,0.40104 -0.422526,0.39388 -0.587239,1.0957 -0.08594,0.36524 -0.08594,1.58269 v 3.12955 h -1.947916 z"
         style="font-size:14.66666698px;fill:#4c4c4c;fill-opacity:1"
         id="path1247" />
      <path
         d="m 50.828775,324.51362 h 1.947916 v 10.79948 h -1.947916 v -0.82356 q -0.572917,0.54427 -1.152995,0.78776 -0.572917,0.23632 -1.246094,0.23632 -1.511068,0 -2.613932,-1.16731 -1.102865,-1.17448 -1.102865,-2.91472 0,-1.80468 1.067057,-2.95768 1.067058,-1.15299 2.592448,-1.15299 0.701823,0 1.317709,0.26497 0.615885,0.26497 1.138672,0.79492 z m -2.055339,4.61198 q -0.909505,0 -1.511068,0.64453 -0.601562,0.63737 -0.601562,1.63998 0,1.00976 0.608724,1.66146 0.615885,0.65169 1.511068,0.65169 0.923828,0 1.532552,-0.63737 0.608724,-0.64453 0.608724,-1.68294 0,-1.01693 -0.608724,-1.64714 -0.608724,-0.63021 -1.539714,-0.63021 z"
         style="font-size:14.66666698px;fill:#4c4c4c;fill-opacity:1"
         id="path1249" />
      <path
         d="m 62.559243,331.98303 h -6.280599 q 0.136067,0.83072 0.723307,1.32486 0.594401,0.48698 1.511068,0.48698 1.095703,0 1.883463,-0.76627 l 1.647136,0.77344 q -0.615886,0.87369 -1.475261,1.29622 -0.859375,0.41536 -2.041015,0.41536 -1.833334,0 -2.986329,-1.15299 -1.152994,-1.16016 -1.152994,-2.90039 0,-1.7832 1.145833,-2.95768 1.152995,-1.18164 2.886068,-1.18164 1.840495,0 2.993489,1.18164 1.152995,1.17448 1.152995,3.10807 z m -1.96224,-1.53972 q -0.193359,-0.65169 -0.766276,-1.05989 -0.565755,-0.40821 -1.317708,-0.40821 -0.816407,0 -1.432292,0.45834 -0.386719,0.28645 -0.716146,1.00976 z"
         style="font-size:14.66666698px;fill:#4c4c4c;fill-opacity:1"
         id="path1251" />
      <path
         d="m 66.089844,324.51362 v 3.86719 q 0.529948,-0.52995 1.145834,-0.79492 0.615885,-0.26497 1.317708,-0.26497 1.525391,0 2.592448,1.15299 1.067057,1.153 1.067057,2.95768 0,1.74024 -1.102864,2.91472 -1.102865,1.16731 -2.613933,1.16731 -0.673177,0 -1.253255,-0.23632 -0.580078,-0.24349 -1.152995,-0.78776 v 0.82356 h -1.940755 v -10.79948 z m 2.055339,4.61198 q -0.923828,0 -1.532552,0.63021 -0.608724,0.63021 -0.608724,1.64714 0,1.03841 0.608724,1.68294 0.608724,0.63737 1.532552,0.63737 0.895182,0 1.503906,-0.65169 0.615885,-0.6517 0.615885,-1.66146 0,-1.00261 -0.601562,-1.63998 -0.601563,-0.64453 -1.518229,-0.64453 z"
         style="font-size:14.66666698px;fill:#4c4c4c;fill-opacity:1"
         id="path1253" />
      <path
         d="m 77.490883,327.32092 q 1.102865,0 2.069662,0.55143 0.973958,0.55143 1.518229,1.49674 0.544271,0.94532 0.544271,2.04102 0,1.10286 -0.551432,2.0625 -0.544271,0.95963 -1.489584,1.5039 -0.945312,0.53711 -2.083984,0.53711 -1.675781,0 -2.864584,-1.1888 -1.18164,-1.19596 -1.18164,-2.90039 0,-1.82617 1.339192,-3.04362 1.17448,-1.05989 2.69987,-1.05989 z m 0.02865,1.84049 q -0.909505,0 -1.518229,0.63737 -0.601563,0.63021 -0.601563,1.61849 0,1.01693 0.594402,1.64714 0.601562,0.6302 1.518229,0.6302 0.916666,0 1.52539,-0.63737 0.608724,-0.63737 0.608724,-1.63997 0,-1.0026 -0.601562,-1.62565 -0.594401,-0.63021 -1.525391,-0.63021 z"
         style="font-size:14.66666698px;fill:#4c4c4c;fill-opacity:1"
         id="path1255" />
      <path
         d="M 83.019532,324.51362 H 84.97461 V 335.3131 H 83.019532 Z"
         style="font-size:14.66666698px;fill:#4c4c4c;fill-opacity:1"
         id="path1257" />
      <path
         d="m 87.516927,324.3131 q 0.515625,0 0.88086,0.3724 0.372396,0.37239 0.372396,0.90234 0,0.52279 -0.365235,0.89518 -0.365234,0.36524 -0.873698,0.36524 -0.522786,0 -0.895182,-0.3724 -0.365234,-0.37955 -0.365234,-0.91666 0,-0.51563 0.365234,-0.88086 0.365234,-0.36524 0.880859,-0.36524 z m -0.981119,3.20834 h 1.962239 v 7.79166 h -1.962239 z"
         style="font-size:14.66666698px;fill:#4c4c4c;fill-opacity:1"
         id="path1259" />
      <path
         d="m 89.815756,327.52144 h 1.675781 v 0.98112 q 0.272135,-0.58008 0.723307,-0.88086 0.451172,-0.30078 0.988281,-0.30078 0.379558,0 0.794922,0.20052 l -0.608724,1.68294 q -0.34375,-0.17188 -0.565755,-0.17188 -0.451172,0 -0.766276,0.5586 -0.307943,0.55859 -0.307943,2.1914 l 0.0072,0.37956 v 3.15104 h -1.940755 z"
         style="font-size:14.66666698px;fill:#4c4c4c;fill-opacity:1"
         id="path1261" />
      <path
         d="m 102.778,331.98303 h -6.280602 q 0.136067,0.83072 0.723307,1.32486 0.594401,0.48698 1.511068,0.48698 1.095703,0 1.883467,-0.76627 l 1.64713,0.77344 q -0.61588,0.87369 -1.47526,1.29622 -0.859374,0.41536 -2.041015,0.41536 -1.833333,0 -2.986328,-1.15299 -1.152995,-1.16016 -1.152995,-2.90039 0,-1.7832 1.145834,-2.95768 1.152995,-1.18164 2.886068,-1.18164 1.840496,0 2.993486,1.18164 1.153,1.17448 1.153,3.10807 z m -1.96224,-1.53972 q -0.19336,-0.65169 -0.76628,-1.05989 -0.565754,-0.40821 -1.317707,-0.40821 -0.816407,0 -1.432292,0.45834 -0.386719,0.28645 -0.716146,1.00976 z"
         style="font-size:14.66666698px;fill:#4c4c4c;fill-opacity:1"
         id="path1263" />
      <path
         d="m 108.25651,324.51362 h 1.95508 v 10.79948 h -1.95508 z"
         style="font-size:14.66666698px;fill:#4c4c4c;fill-opacity:1"
         id="path1265" />
      <path
         d="m 113.16927,328.123 h -1.11719 l -0.39388,-3.60938 h 1.90495 z"
         style="font-size:14.66666698px;fill:#4c4c4c;fill-opacity:1"
         id="path1267" />
      <path
         d="m 120.98242,327.52144 h 1.94792 v 7.79166 h -1.94792 v -0.82356 q -0.57291,0.54427 -1.15299,0.78776 -0.57292,0.23632 -1.24609,0.23632 -1.51107,0 -2.61394,-1.16731 -1.10286,-1.17448 -1.10286,-2.91472 0,-1.80468 1.06706,-2.95768 1.06705,-1.15299 2.59244,-1.15299 0.70183,0 1.31771,0.26497 0.61589,0.26497 1.13867,0.79492 z m -2.05533,1.60416 q -0.90951,0 -1.51107,0.64453 -0.60156,0.63737 -0.60156,1.63998 0,1.00976 0.60872,1.66146 0.61589,0.65169 1.51107,0.65169 0.92383,0 1.53255,-0.63737 0.60872,-0.64453 0.60872,-1.68294 0,-1.01693 -0.60872,-1.64714 -0.60872,-0.63021 -1.53971,-0.63021 z"
         style="font-size:14.66666698px;fill:#4c4c4c;fill-opacity:1"
         id="path1269" />
      <path
         d="m 126.84766,327.52144 v 0.85937 q 0.52994,-0.52995 1.14583,-0.79492 0.61589,-0.26497 1.31771,-0.26497 1.52539,0 2.59245,1.15299 1.06705,1.153 1.06705,2.95768 0,1.74024 -1.10286,2.91472 -1.10287,1.16731 -2.61393,1.16731 -0.67318,0 -1.25326,-0.23632 -0.58008,-0.24349 -1.15299,-0.78776 v 3.67382 h -1.94076 v -10.64192 z m 2.05534,1.60416 q -0.92383,0 -1.53256,0.63021 -0.60872,0.63021 -0.60872,1.64714 0,1.03841 0.60872,1.68294 0.60873,0.63737 1.53256,0.63737 0.89518,0 1.5039,-0.65169 0.61589,-0.6517 0.61589,-1.66146 0,-1.00261 -0.60157,-1.63998 -0.60156,-0.64453 -1.51822,-0.64453 z"
         style="font-size:14.66666698px;fill:#4c4c4c;fill-opacity:1"
         id="path1271" />
      <path
         d="m 136.52995,327.52144 v 0.85937 q 0.52995,-0.52995 1.14584,-0.79492 0.61588,-0.26497 1.31771,-0.26497 1.52539,0 2.59244,1.15299 1.06706,1.153 1.06706,2.95768 0,1.74024 -1.10286,2.91472 -1.10287,1.16731 -2.61394,1.16731 -0.67317,0 -1.25325,-0.23632 -0.58008,-0.24349 -1.153,-0.78776 v 3.67382 h -1.94075 v -10.64192 z m 2.05534,1.60416 q -0.92383,0 -1.53255,0.63021 -0.60872,0.63021 -0.60872,1.64714 0,1.03841 0.60872,1.68294 0.60872,0.63737 1.53255,0.63737 0.89518,0 1.50391,-0.65169 0.61588,-0.6517 0.61588,-1.66146 0,-1.00261 -0.60156,-1.63998 -0.60156,-0.64453 -1.51823,-0.64453 z"
         style="font-size:14.66666698px;fill:#4c4c4c;fill-opacity:1"
         id="path1273" />
      <path
         d="m 150.0293,327.52144 h 1.94792 v 7.79166 h -1.94792 v -0.82356 q -0.57292,0.54427 -1.15299,0.78776 -0.57292,0.23632 -1.2461,0.23632 -1.51107,0 -2.61393,-1.16731 -1.10287,-1.17448 -1.10287,-2.91472 0,-1.80468 1.06706,-2.95768 1.06706,-1.15299 2.59245,-1.15299 0.70182,0 1.31771,0.26497 0.61588,0.26497 1.13867,0.79492 z m -2.05534,1.60416 q -0.9095,0 -1.51107,0.64453 -0.60156,0.63737 -0.60156,1.63998 0,1.00976 0.60873,1.66146 0.61588,0.65169 1.51106,0.65169 0.92383,0 1.53255,-0.63737 0.60873,-0.64453 0.60873,-1.68294 0,-1.01693 -0.60873,-1.64714 -0.60872,-0.63021 -1.53971,-0.63021 z"
         style="font-size:14.66666698px;fill:#4c4c4c;fill-opacity:1"
         id="path1275" />
      <path
         d="m 153.49544,327.52144 h 1.67578 v 0.98112 q 0.27214,-0.58008 0.72331,-0.88086 0.45117,-0.30078 0.98828,-0.30078 0.37956,0 0.79492,0.20052 l -0.60872,1.68294 q -0.34375,-0.17188 -0.56575,-0.17188 -0.45118,0 -0.76628,0.5586 -0.30794,0.55859 -0.30794,2.1914 l 0.007,0.37956 v 3.15104 h -1.94076 z"
         style="font-size:14.66666698px;fill:#4c4c4c;fill-opacity:1"
         id="path1277" />
      <path
         d="m 164.40951,327.52144 h 1.94792 v 7.79166 h -1.94792 v -0.82356 q -0.57292,0.54427 -1.15299,0.78776 -0.57292,0.23632 -1.2461,0.23632 -1.51107,0 -2.61393,-1.16731 -1.10286,-1.17448 -1.10286,-2.91472 0,-1.80468 1.06705,-2.95768 1.06706,-1.15299 2.59245,-1.15299 0.70182,0 1.31771,0.26497 0.61588,0.26497 1.13867,0.79492 z m -2.05534,1.60416 q -0.9095,0 -1.51107,0.64453 -0.60156,0.63737 -0.60156,1.63998 0,1.00976 0.60873,1.66146 0.61588,0.65169 1.51106,0.65169 0.92383,0 1.53256,-0.63737 0.60872,-0.64453 0.60872,-1.68294 0,-1.01693 -0.60872,-1.64714 -0.60873,-0.63021 -1.53972,-0.63021 z"
         style="font-size:14.66666698px;fill:#4c4c4c;fill-opacity:1"
         id="path1279" />
      <path
         d="m 168.57032,324.64969 h 1.94791 v 2.87175 h 1.16016 v 1.68294 h -1.16016 v 6.10872 h -1.94791 v -6.10872 h -1.00261 v -1.68294 h 1.00261 z"
         style="font-size:14.66666698px;fill:#4c4c4c;fill-opacity:1"
         id="path1281" />
      <path
         d="m 176.40495,327.32092 q 1.10286,0 2.06966,0.55143 0.97396,0.55143 1.51823,1.49674 0.54427,0.94532 0.54427,2.04102 0,1.10286 -0.55143,2.0625 -0.54428,0.95963 -1.48959,1.5039 -0.94531,0.53711 -2.08398,0.53711 -1.67578,0 -2.86459,-1.1888 -1.18164,-1.19596 -1.18164,-2.90039 0,-1.82617 1.3392,-3.04362 1.17448,-1.05989 2.69987,-1.05989 z m 0.0286,1.84049 q -0.9095,0 -1.51823,0.63737 -0.60156,0.63021 -0.60156,1.61849 0,1.01693 0.5944,1.64714 0.60156,0.6302 1.51823,0.6302 0.91667,0 1.52539,-0.63737 0.60872,-0.63737 0.60872,-1.63997 0,-1.0026 -0.60156,-1.62565 -0.5944,-0.63021 -1.52539,-0.63021 z"
         style="font-size:14.66666698px;fill:#4c4c4c;fill-opacity:1"
         id="path1283" />
      <path
         d="m 191.00716,328.60998 -1.21029,1.21028 q -0.73763,-0.73046 -1.33919,-0.73046 -0.32943,0 -0.51562,0.14323 -0.1862,0.13606 -0.1862,0.34375 0,0.15755 0.11458,0.29361 0.12175,0.12891 0.58724,0.35808 l 0.71615,0.35807 q 1.13151,0.55859 1.55403,1.13867 0.42253,0.58008 0.42253,1.36068 0,1.03841 -0.76628,1.73307 -0.75911,0.69466 -2.04101,0.69466 -1.70443,0 -2.72136,-1.33203 l 1.20313,-1.31054 q 0.34375,0.40104 0.80208,0.65169 0.4655,0.24349 0.82357,0.24349 0.38672,0 0.62305,-0.1862 0.23632,-0.1862 0.23632,-0.42969 0,-0.45117 -0.85221,-0.88086 l -0.65885,-0.32942 q -1.89063,-0.95248 -1.89063,-2.38477 0,-0.92383 0.70899,-1.57552 0.71614,-0.65885 1.82617,-0.65885 0.75911,0 1.42513,0.33658 0.67317,0.32943 1.13867,0.95248 z"
         style="font-size:14.66666698px;fill:#4c4c4c;fill-opacity:1"
         id="path1285" />
      <path
         d="m 192.91927,324.64969 h 1.94792 v 2.87175 h 1.16015 v 1.68294 h -1.16015 v 6.10872 h -1.94792 v -6.10872 h -1.00261 v -1.68294 h 1.00261 z"
         style="font-size:14.66666698px;fill:#4c4c4c;fill-opacity:1"
         id="path1287" />
      <path
         d="m 202.85222,327.52144 h 1.94792 v 7.79166 h -1.94792 v -0.82356 q -0.57291,0.54427 -1.15299,0.78776 -0.57292,0.23632 -1.2461,0.23632 -1.51106,0 -2.61393,-1.16731 -1.10286,-1.17448 -1.10286,-2.91472 0,-1.80468 1.06705,-2.95768 1.06706,-1.15299 2.59245,-1.15299 0.70182,0 1.31771,0.26497 0.61589,0.26497 1.13867,0.79492 z m -2.05534,1.60416 q -0.9095,0 -1.51106,0.64453 -0.60157,0.63737 -0.60157,1.63998 0,1.00976 0.60873,1.66146 0.61588,0.65169 1.51106,0.65169 0.92383,0 1.53256,-0.63737 0.60872,-0.64453 0.60872,-1.68294 0,-1.01693 -0.60872,-1.64714 -0.60873,-0.63021 -1.53972,-0.63021 z"
         style="font-size:14.66666698px;fill:#4c4c4c;fill-opacity:1"
         id="path1289" />
      <path
         d="m 207.01302,324.64969 h 1.94792 v 2.87175 h 1.16015 v 1.68294 h -1.16015 v 6.10872 h -1.94792 v -6.10872 h -1.00261 v -1.68294 h 1.00261 z"
         style="font-size:14.66666698px;fill:#4c4c4c;fill-opacity:1"
         id="path1291" />
      <path
         d="m 216.94597,327.52144 h 1.94792 v 7.79166 h -1.94792 v -0.82356 q -0.57291,0.54427 -1.15299,0.78776 -0.57292,0.23632 -1.2461,0.23632 -1.51106,0 -2.61393,-1.16731 -1.10286,-1.17448 -1.10286,-2.91472 0,-1.80468 1.06705,-2.95768 1.06706,-1.15299 2.59245,-1.15299 0.70182,0 1.31771,0.26497 0.61589,0.26497 1.13867,0.79492 z m -2.05534,1.60416 q -0.9095,0 -1.51106,0.64453 -0.60157,0.63737 -0.60157,1.63998 0,1.00976 0.60873,1.66146 0.61588,0.65169 1.51106,0.65169 0.92383,0 1.53256,-0.63737 0.60872,-0.64453 0.60872,-1.68294 0,-1.01693 -0.60872,-1.64714 -0.60873,-0.63021 -1.53972,-0.63021 z"
         style="font-size:14.66666698px;fill:#4c4c4c;fill-opacity:1"
         id="path1293" />
      <path
         d="m 220.66277,324.51362 h 1.95508 v 10.79948 h -1.95508 z"
         style="font-size:14.66666698px;fill:#4c4c4c;fill-opacity:1"
         id="path1295" />
      <path
         d="m 232.19988,331.98303 h -6.2806 q 0.13607,0.83072 0.72331,1.32486 0.5944,0.48698 1.51107,0.48698 1.0957,0 1.88346,-0.76627 l 1.64714,0.77344 q -0.61589,0.87369 -1.47526,1.29622 -0.85938,0.41536 -2.04102,0.41536 -1.83333,0 -2.98633,-1.15299 -1.15299,-1.16016 -1.15299,-2.90039 0,-1.7832 1.14583,-2.95768 1.153,-1.18164 2.88607,-1.18164 1.84049,0 2.99349,1.18164 1.15299,1.17448 1.15299,3.10807 z m -1.96224,-1.53972 q -0.19336,-0.65169 -0.76627,-1.05989 -0.56576,-0.40821 -1.31771,-0.40821 -0.81641,0 -1.43229,0.45834 -0.38672,0.28645 -0.71615,1.00976 z"
         style="font-size:14.66666698px;fill:#4c4c4c;fill-opacity:1"
         id="path1297" />
    </g>
  </g>
</svg>
