<?xml version="1.0" encoding="UTF-8" standalone="no"?>
<!-- Created with Inkscape (http://www.inkscape.org/) -->

<svg
   xmlns:dc="http://purl.org/dc/elements/1.1/"
   xmlns:cc="http://creativecommons.org/ns#"
   xmlns:rdf="http://www.w3.org/1999/02/22-rdf-syntax-ns#"
   xmlns:svg="http://www.w3.org/2000/svg"
   xmlns="http://www.w3.org/2000/svg"
   xmlns:xlink="http://www.w3.org/1999/xlink"
   xmlns:sodipodi="http://sodipodi.sourceforge.net/DTD/sodipodi-0.dtd"
   xmlns:inkscape="http://www.inkscape.org/namespaces/inkscape"
   width="70mm"
   height="100mm"
   viewBox="0 0 70 100"
   version="1.1"
   id="svg8"
   inkscape:version="0.92.2 5c3e80d, 2017-08-06"
   sodipodi:docname="sticker.pl.svg"
   inkscape:export-filename="/home/emes/doc/dontbuymonero-sticker/sticker.pl.png"
   inkscape:export-xdpi="300"
   inkscape:export-ydpi="300">
  <defs
     id="defs2" />
  <sodipodi:namedview
     id="base"
     pagecolor="#ffffff"
     bordercolor="#666666"
     borderopacity="1.0"
     inkscape:pageopacity="0.0"
     inkscape:pageshadow="2"
     inkscape:zoom="1.979899"
     inkscape:cx="33.278149"
     inkscape:cy="213.70545"
     inkscape:document-units="mm"
     inkscape:current-layer="layer1"
     showgrid="false"
     showguides="true"
     inkscape:guide-bbox="true"
     inkscape:snap-to-guides="true"
     inkscape:snap-grids="true"
     inkscape:snap-page="true"
     inkscape:snap-bbox="true"
     inkscape:bbox-nodes="true"
     inkscape:bbox-paths="true"
     inkscape:window-width="1920"
     inkscape:window-height="1136"
     inkscape:window-x="0"
     inkscape:window-y="747"
     inkscape:window-maximized="1"
     inkscape:pagecheckerboard="true">
    <sodipodi:guide
       position="5,91.472997"
       orientation="1,0"
       id="guide889"
       inkscape:locked="false"
       inkscape:label=""
       inkscape:color="rgb(0,0,255)" />
    <sodipodi:guide
       position="65,88.533032"
       orientation="1,0"
       id="guide891"
       inkscape:locked="false"
       inkscape:label=""
       inkscape:color="rgb(0,0,255)" />
    <sodipodi:guide
       position="28.86511,95"
       orientation="0,1"
       id="guide893"
       inkscape:locked="false"
       inkscape:label=""
       inkscape:color="rgb(0,0,255)" />
    <sodipodi:guide
       position="36.348657,5"
       orientation="0,1"
       id="guide895"
       inkscape:locked="false"
       inkscape:label=""
       inkscape:color="rgb(0,0,255)" />
  </sodipodi:namedview>
  <metadata
     id="metadata5">
    <rdf:RDF>
      <cc:Work
         rdf:about="">
        <dc:format>image/svg+xml</dc:format>
        <dc:type
           rdf:resource="http://purl.org/dc/dcmitype/StillImage" />
        <dc:title />
      </cc:Work>
    </rdf:RDF>
  </metadata>
  <g
     inkscape:label="Layer 1"
     inkscape:groupmode="layer"
     id="layer1"
     transform="translate(0,-197)">
    <rect
       style="fill:#ffffff;fill-opacity:1;stroke:none;stroke-width:1;stroke-linecap:square;stroke-miterlimit:4;stroke-dasharray:none;stroke-opacity:1"
       id="rect858"
       width="70"
       height="100"
       x="0"
       y="197" />
    <g
       id="g875"
       transform="translate(-2.0000006,5.4790253)"
       inkscape:export-xdpi="352.57999"
       inkscape:export-ydpi="352.57999">
      <g
         transform="matrix(1.3011002,0,0,1.3011002,16.420217,-75.468301)"
         id="g915">
        <path
           inkscape:connector-curvature="0"
           d="m 15.817084,222.05063 c -5.391414,0 -9.7639184,4.37197 -9.7639184,9.76365 0,1.07791 0.174625,2.11455 0.4974166,3.08425 h 2.9199417 v -8.21505 l 6.3465601,6.34656 6.346561,-6.34656 v 8.21505 h 2.920206 c 0.322791,-0.9697 0.497416,-2.00634 0.497416,-3.08425 0,-5.39168 -4.372504,-9.76365 -9.764183,-9.76365"
           id="path22"
           style="fill:#ff6600;stroke-width:0.26458332" />
        <path
           inkscape:connector-curvature="0"
           d="m 11.58809,231.71921 v 5.16917 H 7.4738193 c 1.7139708,2.81199 4.8095957,4.69 8.3431057,4.69 3.533511,0 6.6294,-1.87801 8.343107,-4.69 h -4.114007 v -5.16917 l -4.2291,4.2291 z"
           id="path26"
           style="fill:#4c4c4c;stroke-width:0.26458332" />
      </g>
      <g
         transform="matrix(0.88274719,0,0,0.88274719,-10.947117,38.872224)"
         id="g911">
        <path
           inkscape:connector-curvature="0"
           d="m 78.102302,234.59405 c -0.516202,0.53154 -1.142206,0.79639 -1.878277,0.79639 -0.650346,0 -1.225285,-0.20426 -1.728523,-0.61489 -0.646906,-0.52361 -0.969962,-1.23666 -0.969962,-2.13889 0,-0.80778 0.257175,-1.47532 0.771525,-1.99919 0.512497,-0.52573 1.14591,-0.78687 1.900766,-0.78687 0.745331,0 1.379008,0.26881 1.898915,0.80565 0.522023,0.53711 0.782902,1.1938 0.782902,1.97088 0,0.7792 -0.258763,1.43352 -0.777346,1.96692 m 1.083998,-5.01042 c -0.828675,-0.8337 -1.81954,-1.25174 -2.973388,-1.25174 -0.760412,0 -1.471347,0.19129 -2.129366,0.57308 -0.6604,0.38206 -1.178719,0.90012 -1.554956,1.5547 -0.376503,0.65431 -0.565415,1.37133 -0.565415,2.15026 0,1.16338 0.404548,2.16747 1.214437,3.01334 0.809096,0.8472 1.825096,1.26895 3.046413,1.26895 1.167077,0 2.160323,-0.41037 2.979208,-1.23508 0.818886,-0.82285 1.227402,-1.83065 1.227402,-3.02048 0,-1.19936 -0.414337,-2.21668 -1.244335,-3.05303"
           id="path30"
           style="fill:#4c4c4c;stroke-width:0.26458332" />
        <path
           inkscape:connector-curvature="0"
           d="m 69,231.47434 c -0.196585,0.13706 -0.289454,0.20453 -0.809625,0.20453 h -2.046816 v -1.75102 h 1.983316 c 0.397669,0 0.468048,0.0299 0.631032,0.0913 0.162454,0.0595 0.29157,0.15902 0.388937,0.29581 0.09737,0.13705 0.144992,0.29977 0.144992,0.4863 0,0.3138 -0.09737,0.53817 -0.291836,0.6731 m 0.246063,1.61211 c 0.542131,-0.19473 0.94906,-0.48048 1.218935,-0.85752 0.27014,-0.37914 0.403225,-0.84798 0.403225,-1.41155 0,-0.53419 -0.120914,-0.9988 -0.365389,-1.38985 -0.244211,-0.39106 -0.567796,-0.67099 -0.96864,-0.83979 -0.401108,-0.16881 -1.074208,-0.254 -2.021152,-0.254 h -2.997464 v 8.55662 h 1.627981 v -3.6232 h 1.420812 l 1.926167,3.6232 h 1.780646 z"
           id="path34"
           style="fill:#4c4c4c;stroke-width:0.26458332" />
        <path
           inkscape:connector-curvature="0"
           d="m 57.217787,228.33189 h 5.547783 v 1.59411 h -3.929591 v 1.75128 h 3.929591 v 1.56633 h -3.929591 v 2.0447 h 3.929591 v 1.60047 h -5.547783 z"
           id="path38"
           style="fill:#4c4c4c;stroke-width:0.26458332" />
        <path
           inkscape:connector-curvature="0"
           d="m 48.621925,228.33189 h 1.55866 l 3.670829,5.63033 v -5.63033 h 1.627981 v 8.55662 h -1.564481 l -3.665008,-5.61234 v 5.61234 h -1.627981 z"
           id="path42"
           style="fill:#4c4c4c;stroke-width:0.26458332" />
        <use
           transform="translate(-33.088422,-1.0786894e-6)"
           id="use46"
           x="0"
           y="0"
           width="282"
           height="75"
           xlink:href="#path30" />
        <path
           inkscape:connector-curvature="0"
           d="m 29.678129,228.33165 h 1.594114 l 1.977231,5.9682 2.007394,-5.9682 h 1.570302 l 1.441715,8.55689 h -1.570567 l -0.919162,-5.40412 -1.820598,5.40412 h -1.435629 l -1.796521,-5.40412 -0.937154,5.40412 H 28.20096 Z"
           id="path50"
           style="fill:#4c4c4c;stroke-width:0.26458332" />
      </g>
    </g>
    <g
       aria-label="NIE KUPUJ"
       style="font-style:normal;font-weight:normal;font-size:10.87741661px;line-height:1.25;font-family:sans-serif;letter-spacing:0px;word-spacing:0px;fill:#4c4c4c;fill-opacity:1;stroke:none;stroke-width:0.2719354"
       id="text4608">
      <path
         d="m 5.0000017,202 h 1.7080942 l 4.0216701,6.16953 V 202 h 1.784576 v 9.3754 h -1.714468 l -4.0152962,-6.15042 v 6.15042 H 5.0000017 Z"
         style="font-style:normal;font-variant:normal;font-weight:bold;font-stretch:normal;font-size:13.05289936px;font-family:'Century Gothic';-inkscape-font-specification:'Century Gothic Bold';fill:#4c4c4c;fill-opacity:1;stroke-width:0.2719354"
         id="path1010" />
      <path
         d="m 14.528363,202 h 1.771829 v 9.3754 h -1.771829 z"
         style="font-style:normal;font-variant:normal;font-weight:bold;font-stretch:normal;font-size:13.05289936px;font-family:'Century Gothic';-inkscape-font-specification:'Century Gothic Bold';fill:#4c4c4c;fill-opacity:1;stroke-width:0.2719354"
         id="path1012" />
      <path
         d="m 18.30784,202 h 5.117909 v 1.74633 h -3.34608 v 1.69535 h 3.34608 v 1.71447 h -3.34608 v 2.46654 h 3.34608 v 1.75271 H 18.30784 Z"
         style="font-style:normal;font-variant:normal;font-weight:bold;font-stretch:normal;font-size:13.05289936px;font-family:'Century Gothic';-inkscape-font-specification:'Century Gothic Bold';fill:#4c4c4c;fill-opacity:1;stroke-width:0.2719354"
         id="path1014" />
      <path
         d="m 28.741237,202 h 1.803696 v 3.22498 L 33.087954,202 h 2.147865 l -3.275972,4.18101 3.594646,5.19439 h -2.115997 l -2.893563,-4.16189 v 4.16189 h -1.803696 z"
         style="font-style:normal;font-variant:normal;font-weight:bold;font-stretch:normal;font-size:13.05289936px;font-family:'Century Gothic';-inkscape-font-specification:'Century Gothic Bold';fill:#4c4c4c;fill-opacity:1;stroke-width:0.2719354"
         id="path1016" />
      <path
         d="m 36.771829,202 h 1.79095 v 6.06756 q 0,0.78394 0.133843,1.10898 0.140217,0.32505 0.452518,0.52263 0.318674,0.1912 0.764818,0.1912 0.471638,0 0.809433,-0.21669 0.344168,-0.2167 0.471638,-0.54812 0.133843,-0.3378 0.133843,-1.28107 V 202 h 1.79095 v 5.58955 q 0,1.41491 -0.159338,1.96303 -0.159337,0.54812 -0.611854,1.058 -0.446144,0.50988 -1.032505,0.75844 -0.586361,0.2422 -1.363926,0.2422 -1.019758,0 -1.778203,-0.46527 -0.752071,-0.47164 -1.077119,-1.17272 -0.325048,-0.70746 -0.325048,-2.38368 z"
         style="font-style:normal;font-variant:normal;font-weight:bold;font-stretch:normal;font-size:13.05289936px;font-family:'Century Gothic';-inkscape-font-specification:'Century Gothic Bold';fill:#4c4c4c;fill-opacity:1;stroke-width:0.2719354"
         id="path1018" />
      <path
         d="m 45.191204,202 h 1.892925 q 1.53601,0 2.2116,0.28681 0.681963,0.28043 1.070745,0.91778 0.395156,0.63097 0.395156,1.51689 0,0.98151 -0.516252,1.63161 -0.509879,0.6501 -1.38942,0.90503 -0.516252,0.14659 -1.880178,0.14659 v 3.97069 h -1.784576 z m 1.784576,3.66475 h 0.56724 q 0.669216,0 0.930529,-0.0956 0.261313,-0.0956 0.407903,-0.3123 0.152964,-0.22307 0.152964,-0.53537 0,-0.54175 -0.42065,-0.79031 -0.305928,-0.18484 -1.134481,-0.18484 H 46.97578 Z"
         style="font-style:normal;font-variant:normal;font-weight:bold;font-stretch:normal;font-size:13.05289936px;font-family:'Century Gothic';-inkscape-font-specification:'Century Gothic Bold';fill:#4c4c4c;fill-opacity:1;stroke-width:0.2719354"
         id="path1020" />
      <path
         d="m 52.450603,202 h 1.79095 v 6.06756 q 0,0.78394 0.133843,1.10898 0.140217,0.32505 0.452518,0.52263 0.318674,0.1912 0.764818,0.1912 0.471638,0 0.809433,-0.21669 0.344168,-0.2167 0.471638,-0.54812 0.133843,-0.3378 0.133843,-1.28107 V 202 h 1.790949 v 5.58955 q 0,1.41491 -0.159337,1.96303 -0.159337,0.54812 -0.611854,1.058 -0.446144,0.50988 -1.032505,0.75844 -0.586361,0.2422 -1.363926,0.2422 -1.019758,0 -1.778203,-0.46527 -0.752071,-0.47164 -1.077119,-1.17272 -0.325048,-0.70746 -0.325048,-2.38368 z"
         style="font-style:normal;font-variant:normal;font-weight:bold;font-stretch:normal;font-size:13.05289936px;font-family:'Century Gothic';-inkscape-font-specification:'Century Gothic Bold';fill:#4c4c4c;fill-opacity:1;stroke-width:0.2719354"
         id="path1022" />
      <path
         d="m 63.209049,202 h 1.790949 v 6.22052 q 0,1.48502 -0.235819,2.08413 -0.235819,0.59911 -0.777565,0.95602 -0.541746,0.35055 -1.300191,0.35055 -1.548757,0 -2.638623,-1.35756 l 1.287444,-1.20459 q 0.427024,0.48439 0.726577,0.6501 0.299554,0.16571 0.579988,0.16571 0.286806,0 0.427023,-0.24219 0.140217,-0.24219 0.140217,-1.06437 z"
         style="font-style:normal;font-variant:normal;font-weight:bold;font-stretch:normal;font-size:13.05289936px;font-family:'Century Gothic';-inkscape-font-specification:'Century Gothic Bold';fill:#4c4c4c;fill-opacity:1;stroke-width:0.2719354"
         id="path1024" />
    </g>
    <flowRoot
       xml:space="preserve"
       id="flowRoot840"
       style="font-style:normal;font-weight:normal;font-size:26.66666603px;line-height:1.25;font-family:sans-serif;letter-spacing:0px;word-spacing:0px;fill:#000000;fill-opacity:1;stroke:none"><flowRegion
         id="flowRegion842"><rect
           id="rect844"
           width="77.781746"
           height="47.477169"
           x="239.40616"
           y="264.52042" /></flowRegion><flowPara
         id="flowPara846" /></flowRoot>    <flowRoot
       xml:space="preserve"
       id="flowRoot866"
       style="font-style:normal;font-variant:normal;font-weight:bold;font-stretch:normal;font-size:16px;line-height:1.25;font-family:'Century Gothic';-inkscape-font-specification:'Century Gothic Bold';text-align:center;letter-spacing:0px;word-spacing:0px;text-anchor:middle;fill:#000000;fill-opacity:1;stroke:none"
       transform="matrix(0.26458333,0,0,0.26458333,0,192)"><flowRegion
         id="flowRegion868"
         style="font-size:16px"><rect
           id="rect870"
           width="241.88977"
           height="148.28261"
           x="18.897638"
           y="229.67015"
           style="font-size:16px" /></flowRegion><flowPara
         id="flowPara872" /></flowRoot>    <flowRoot
       xml:space="preserve"
       id="flowRoot874"
       style="font-style:normal;font-variant:normal;font-weight:bold;font-stretch:normal;font-size:26.66666603px;line-height:1.25;font-family:'Century Gothic';-inkscape-font-specification:'Century Gothic Bold';text-align:center;letter-spacing:0px;word-spacing:0px;text-anchor:middle;fill:#000000;fill-opacity:1;stroke:none"><flowRegion
         id="flowRegion876"><rect
           id="rect878"
           width="241.88977"
           height="148.28261"
           x="18.897638"
           y="229.67015" /></flowRegion><flowPara
         id="flowPara880" /></flowRoot>    <g
       id="g861">
      <path
         inkscape:connector-curvature="0"
         id="rect861"
         d="M 5,263.0024 V 263.44051 292 h 60 v -28.9976 z m 0.874399,0.8744 h 58.251202 v 27.24879 H 5.874399 Z"
         style="color:#000000;font-style:normal;font-variant:normal;font-weight:normal;font-stretch:normal;font-size:medium;line-height:normal;font-family:sans-serif;font-variant-ligatures:normal;font-variant-position:normal;font-variant-caps:normal;font-variant-numeric:normal;font-variant-alternates:normal;font-feature-settings:normal;text-indent:0;text-align:start;text-decoration:none;text-decoration-line:none;text-decoration-style:solid;text-decoration-color:#000000;letter-spacing:normal;word-spacing:normal;text-transform:none;writing-mode:lr-tb;direction:ltr;text-orientation:mixed;dominant-baseline:auto;baseline-shift:baseline;text-anchor:start;white-space:normal;shape-padding:0;clip-rule:nonzero;display:inline;overflow:visible;visibility:visible;opacity:1;isolation:auto;mix-blend-mode:normal;color-interpolation:sRGB;color-interpolation-filters:linearRGB;solid-color:#000000;solid-opacity:1;vector-effect:none;fill:#4c4c4c;fill-opacity:1;fill-rule:nonzero;stroke:none;stroke-width:0.87388474;stroke-linecap:square;stroke-linejoin:miter;stroke-miterlimit:4;stroke-dasharray:none;stroke-dashoffset:0;stroke-opacity:1;color-rendering:auto;image-rendering:auto;shape-rendering:auto;text-rendering:auto;enable-background:accumulate" />
    </g>
    <g
       aria-label="Kryptowaluty szkodzą systemowi bankowemu i mogą osłabiać aparat państwowy"
       transform="matrix(0.26458333,0,0,0.26458333,-1.9142838,206.50176)"
       style="font-style:normal;font-variant:normal;font-weight:bold;font-stretch:normal;font-size:16px;line-height:1.25;font-family:'Century Gothic';-inkscape-font-specification:'Century Gothic Bold';text-align:center;letter-spacing:0px;word-spacing:0px;text-anchor:middle;fill:#4c4c4c;fill-opacity:1;stroke:none"
       id="flowRoot882">
      <path
         d="m 57.280273,231.1881 h 2.210938 v 3.95313 l 3.117187,-3.95313 h 2.632813 l -4.015625,5.125 4.40625,6.36719 h -2.59375 l -3.546875,-5.10156 v 5.10156 h -2.210938 z"
         style="font-size:16px"
         id="path879" />
      <path
         d="m 66.467773,234.18029 h 1.828125 v 1.07031 q 0.296875,-0.63281 0.789063,-0.96093 0.492187,-0.32813 1.078125,-0.32813 0.414062,0 0.867187,0.21875 l -0.664062,1.83594 q -0.375,-0.1875 -0.617188,-0.1875 -0.492187,0 -0.835937,0.60937 -0.335938,0.60938 -0.335938,2.39063 l 0.0078,0.41406 v 3.4375 h -2.117188 z"
         style="font-size:16px"
         id="path881" />
      <path
         d="m 71.147461,234.18029 h 2.179687 l 2.210938,5.33594 2.4375,-5.33594 h 2.1875 l -5.328125,11.60938 h -2.203125 l 1.75,-3.74219 z"
         style="font-size:16px"
         id="path883" />
      <path
         d="m 83.491211,234.18029 v 0.9375 q 0.578125,-0.57812 1.25,-0.86719 0.671875,-0.28906 1.4375,-0.28906 1.664062,0 2.828125,1.25781 1.164062,1.25782 1.164062,3.22657 0,1.89843 -1.203125,3.17968 -1.203125,1.27344 -2.851562,1.27344 -0.734375,0 -1.367188,-0.25781 -0.632812,-0.26563 -1.257812,-0.85938 v 4.00782 h -2.117188 v -11.60938 z m 2.242187,1.75 q -1.007812,0 -1.671875,0.6875 -0.664062,0.6875 -0.664062,1.79688 0,1.13281 0.664062,1.83593 0.664063,0.69532 1.671875,0.69532 0.976563,0 1.640625,-0.71094 0.671875,-0.71094 0.671875,-1.8125 0,-1.09375 -0.65625,-1.78906 -0.65625,-0.70313 -1.65625,-0.70313 z"
         style="font-size:16px"
         id="path885" />
      <path
         d="m 92.194336,231.04748 h 2.125 v 3.13281 h 1.265625 v 1.83594 h -1.265625 v 6.66406 h -2.125 v -6.66406 h -1.09375 v -1.83594 h 1.09375 z"
         style="font-size:16px"
         id="path887" />
      <path
         d="m 100.74121,233.96154 q 1.20313,0 2.25781,0.60156 1.0625,0.60157 1.65625,1.63282 0.59375,1.03125 0.59375,2.22656 0,1.20312 -0.60156,2.25 -0.59375,1.04687 -1.625,1.64062 -1.03125,0.58594 -2.27344,0.58594 -1.828122,0 -3.124997,-1.29687 -1.289062,-1.30469 -1.289062,-3.16407 0,-1.99218 1.460937,-3.32031 1.28125,-1.15625 2.945312,-1.15625 z m 0.0312,2.00781 q -0.992187,0 -1.656249,0.69532 -0.65625,0.6875 -0.65625,1.76562 0,1.10938 0.648437,1.79688 0.65625,0.6875 1.656252,0.6875 1,0 1.66406,-0.69532 0.66406,-0.69531 0.66406,-1.78906 0,-1.09375 -0.65625,-1.77344 -0.64843,-0.6875 -1.66406,-0.6875 z"
         style="font-size:16px"
         id="path889" />
      <path
         d="m 106.05371,234.18029 h 2.08594 l 1.71094,4.83594 1.84375,-4.83594 h 1.27343 l 1.80469,4.78125 1.71094,-4.78125 h 2.10156 l -3.10156,8.5 h -1.35156 l -1.8125,-4.84375 -1.86719,4.84375 h -1.33594 z"
         style="font-size:16px"
         id="path891" />
      <path
         d="m 126.09277,234.18029 h 2.125 v 8.5 h -2.125 v -0.89844 q -0.625,0.59375 -1.25781,0.85938 -0.625,0.25781 -1.35937,0.25781 -1.64844,0 -2.85157,-1.27344 -1.20312,-1.28125 -1.20312,-3.17968 0,-1.96875 1.16406,-3.22657 1.16406,-1.25781 2.82813,-1.25781 0.76562,0 1.4375,0.28906 0.67187,0.28907 1.24218,0.86719 z m -2.24218,1.75 q -0.99219,0 -1.64844,0.70313 -0.65625,0.69531 -0.65625,1.78906 0,1.10156 0.66406,1.8125 0.67188,0.71094 1.64844,0.71094 1.00781,0 1.67187,-0.69532 0.66407,-0.70312 0.66407,-1.83593 0,-1.10938 -0.66407,-1.79688 -0.66406,-0.6875 -1.67968,-0.6875 z"
         style="font-size:16px"
         id="path893" />
      <path
         d="m 130.14746,230.89904 h 2.13281 v 11.78125 h -2.13281 z"
         style="font-size:16px"
         id="path895" />
      <path
         d="m 134.20996,234.18029 h 2.15625 v 4.09375 q 0,1.19531 0.16406,1.66406 0.16407,0.46094 0.52344,0.71875 0.36719,0.25782 0.89844,0.25782 0.53125,0 0.89844,-0.25 0.375,-0.25782 0.55468,-0.75 0.13282,-0.36719 0.13282,-1.57032 v -4.16406 h 2.14062 v 3.60156 q 0,2.22657 -0.35156,3.04688 -0.42969,1 -1.26563,1.53906 -0.83593,0.53125 -2.125,0.53125 -1.39843,0 -2.26562,-0.625 -0.85938,-0.625 -1.21094,-1.74219 -0.25,-0.77343 -0.25,-2.8125 z"
         style="font-size:16px"
         id="path897" />
      <path
         d="m 144.06934,231.04748 h 2.125 v 3.13281 h 1.26562 v 1.83594 h -1.26562 v 6.66406 h -2.125 v -6.66406 h -1.09375 v -1.83594 h 1.09375 z"
         style="font-size:16px"
         id="path899" />
      <path
         d="m 147.67871,234.18029 h 2.17969 l 2.21094,5.33594 2.4375,-5.33594 h 2.1875 l -5.32813,11.60938 h -2.20312 l 1.75,-3.74219 z"
         style="font-size:16px"
         id="path901" />
      <path
         d="m 167.57715,235.36779 -1.32031,1.32031 q -0.80469,-0.79687 -1.46094,-0.79687 -0.35938,0 -0.5625,0.15625 -0.20313,0.14844 -0.20313,0.375 0,0.17187 0.125,0.32031 0.13282,0.14063 0.64063,0.39063 l 0.78125,0.39062 q 1.23437,0.60938 1.69531,1.24219 0.46094,0.63281 0.46094,1.48437 0,1.13282 -0.83594,1.89063 -0.82812,0.75781 -2.22656,0.75781 -1.85938,0 -2.96875,-1.45312 l 1.3125,-1.42969 q 0.375,0.4375 0.875,0.71094 0.50781,0.26562 0.89844,0.26562 0.42187,0 0.67968,-0.20312 0.25782,-0.20313 0.25782,-0.46875 0,-0.49219 -0.92969,-0.96094 l -0.71875,-0.35938 q -2.0625,-1.03906 -2.0625,-2.60156 0,-1.00781 0.77344,-1.71875 0.78125,-0.71875 1.99218,-0.71875 0.82813,0 1.55469,0.36719 0.73438,0.35937 1.24219,1.03906 z"
         style="font-size:16px"
         id="path903" />
      <path
         d="m 169.03809,234.18029 h 6.52343 l -3.82812,6.69531 h 3.60937 v 1.80469 h -6.89062 l 3.84375,-6.69531 h -3.25781 z"
         style="font-size:16px"
         id="path905" />
      <path
         d="m 176.7959,230.89904 h 2.13281 v 6.78906 l 3.14063,-3.50781 h 2.67187 l -3.65625,4.07813 4.10156,4.42187 h -2.64843 l -3.60938,-3.91406 v 3.91406 h -2.13281 z"
         style="font-size:16px"
         id="path907" />
      <path
         d="m 190.05371,233.96154 q 1.20313,0 2.25781,0.60156 1.0625,0.60157 1.65625,1.63282 0.59375,1.03125 0.59375,2.22656 0,1.20312 -0.60156,2.25 -0.59375,1.04687 -1.625,1.64062 -1.03125,0.58594 -2.27344,0.58594 -1.82812,0 -3.125,-1.29687 -1.28906,-1.30469 -1.28906,-3.16407 0,-1.99218 1.46094,-3.32031 1.28125,-1.15625 2.94531,-1.15625 z m 0.0312,2.00781 q -0.99219,0 -1.65625,0.69532 -0.65625,0.6875 -0.65625,1.76562 0,1.10938 0.64844,1.79688 0.65625,0.6875 1.65625,0.6875 1,0 1.66406,-0.69532 0.66406,-0.69531 0.66406,-1.78906 0,-1.09375 -0.65625,-1.77344 -0.64843,-0.6875 -1.66406,-0.6875 z"
         style="font-size:16px"
         id="path909" />
      <path
         d="m 202.59277,230.89904 h 2.125 v 11.78125 h -2.125 v -0.89844 q -0.625,0.59375 -1.25781,0.85938 -0.625,0.25781 -1.35937,0.25781 -1.64844,0 -2.85157,-1.27344 -1.20312,-1.28125 -1.20312,-3.17968 0,-1.96875 1.16406,-3.22657 1.16406,-1.25781 2.82813,-1.25781 0.76562,0 1.4375,0.28906 0.67187,0.28907 1.24218,0.86719 z m -2.24218,5.03125 q -0.99219,0 -1.64844,0.70313 -0.65625,0.69531 -0.65625,1.78906 0,1.10156 0.66406,1.8125 0.67188,0.71094 1.64844,0.71094 1.00781,0 1.67187,-0.69532 0.66407,-0.70312 0.66407,-1.83593 0,-1.10938 -0.66407,-1.79688 -0.66406,-0.6875 -1.67968,-0.6875 z"
         style="font-size:16px"
         id="path911" />
      <path
         d="m 206.50684,234.18029 h 6.52343 l -3.82812,6.69531 h 3.60937 v 1.80469 h -6.89062 l 3.84375,-6.69531 h -3.25781 z"
         style="font-size:16px"
         id="path913" />
      <path
         d="m 220.53027,234.18029 h 2.125 v 8.5 h -2.125 v -0.89844 q -0.625,0.59375 -1.25781,0.85938 -0.625,0.25781 -1.35937,0.25781 -1.64844,0 -2.85157,-1.27344 -1.20312,-1.28125 -1.20312,-3.17968 0,-1.96875 1.16406,-3.22657 1.16406,-1.25781 2.82813,-1.25781 0.76562,0 1.4375,0.28906 0.67187,0.28907 1.24218,0.86719 z m -2.24218,1.75 q -0.99219,0 -1.64844,0.70313 -0.65625,0.69531 -0.65625,1.78906 0,1.10156 0.66406,1.8125 0.67188,0.71094 1.64844,0.71094 1.00781,0 1.67187,-0.69532 0.66407,-0.70312 0.66407,-1.83593 0,-1.10938 -0.66407,-1.79688 -0.66406,-0.6875 -1.67968,-0.6875 z m 3.35156,6.75 h 1.125 q -1.09375,0.64844 -1.09375,1.28906 0,0.32032 0.22656,0.52344 0.22656,0.20313 0.58594,0.20313 0.26562,0 0.67969,-0.21094 v 1.24219 q -0.53907,0.11718 -1,0.11718 -0.92188,0 -1.41407,-0.42187 -0.49218,-0.42188 -0.49218,-1.05469 0,-0.47656 0.35156,-0.92969 0.35156,-0.45312 1.03125,-0.75781 z"
         style="font-size:16px"
         id="path915" />
      <path
         d="m 54.749023,255.36779 -1.320312,1.32031 q -0.804688,-0.79687 -1.460938,-0.79687 -0.359375,0 -0.5625,0.15625 -0.203125,0.14844 -0.203125,0.375 0,0.17187 0.125,0.32031 0.132813,0.14063 0.640625,0.39063 l 0.78125,0.39062 q 1.234375,0.60938 1.695313,1.24219 0.460937,0.63281 0.460937,1.48437 0,1.13282 -0.835937,1.89063 -0.828125,0.75781 -2.226563,0.75781 -1.859375,0 -2.96875,-1.45312 l 1.3125,-1.42969 q 0.375,0.4375 0.875,0.71094 0.507813,0.26562 0.898438,0.26562 0.421875,0 0.679687,-0.20312 0.257813,-0.20313 0.257813,-0.46875 0,-0.49219 -0.929688,-0.96094 l -0.71875,-0.35938 q -2.0625,-1.03906 -2.0625,-2.60156 0,-1.00781 0.773438,-1.71875 0.78125,-0.71875 1.992187,-0.71875 0.828125,0 1.554688,0.36719 0.734375,0.35937 1.242187,1.03906 z"
         style="font-size:16px"
         id="path917" />
      <path
         d="m 55.631836,254.18029 h 2.179687 l 2.210938,5.33594 2.4375,-5.33594 h 2.1875 l -5.328125,11.60938 h -2.203125 l 1.75,-3.74219 z"
         style="font-size:16px"
         id="path919" />
      <path
         d="m 71.061523,255.36779 -1.320312,1.32031 q -0.804688,-0.79687 -1.460938,-0.79687 -0.359375,0 -0.5625,0.15625 -0.203125,0.14844 -0.203125,0.375 0,0.17187 0.125,0.32031 0.132813,0.14063 0.640625,0.39063 l 0.78125,0.39062 q 1.234375,0.60938 1.695313,1.24219 0.460937,0.63281 0.460937,1.48437 0,1.13282 -0.835937,1.89063 -0.828125,0.75781 -2.226563,0.75781 -1.859375,0 -2.96875,-1.45312 l 1.3125,-1.42969 q 0.375,0.4375 0.875,0.71094 0.507813,0.26562 0.898438,0.26562 0.421875,0 0.679687,-0.20312 0.257813,-0.20313 0.257813,-0.46875 0,-0.49219 -0.929688,-0.96094 l -0.71875,-0.35938 q -2.0625,-1.03906 -2.0625,-2.60156 0,-1.00781 0.773438,-1.71875 0.78125,-0.71875 1.992187,-0.71875 0.828125,0 1.554688,0.36719 0.734375,0.35937 1.242187,1.03906 z"
         style="font-size:16px"
         id="path921" />
      <path
         d="m 73.147461,251.04748 h 2.125 v 3.13281 h 1.265625 v 1.83594 h -1.265625 v 6.66406 h -2.125 v -6.66406 h -1.09375 v -1.83594 h 1.09375 z"
         style="font-size:16px"
         id="path923" />
      <path
         d="m 86.217773,259.04748 h -6.851562 q 0.148437,0.90625 0.789062,1.44531 0.648438,0.53125 1.648438,0.53125 1.195312,0 2.054687,-0.83594 l 1.796875,0.84375 q -0.671875,0.95313 -1.609375,1.41407 -0.9375,0.45312 -2.226562,0.45312 -2,0 -3.257813,-1.25781 -1.257812,-1.26563 -1.257812,-3.16406 0,-1.94532 1.25,-3.22657 1.257812,-1.28906 3.148437,-1.28906 2.007813,0 3.265625,1.28906 1.257813,1.28125 1.257813,3.39063 z m -2.140625,-1.67969 q -0.210937,-0.71094 -0.835937,-1.15625 -0.617188,-0.44531 -1.4375,-0.44531 -0.890625,0 -1.5625,0.5 -0.421875,0.3125 -0.78125,1.10156 z"
         style="font-size:16px"
         id="path925" />
      <path
         d="m 87.936523,254.18029 h 2.140625 v 0.97656 q 0.546875,-0.60156 1.210938,-0.89843 0.671875,-0.29688 1.460937,-0.29688 0.796875,0 1.4375,0.39063 0.640625,0.39062 1.03125,1.14062 0.507813,-0.75 1.242188,-1.14062 0.742187,-0.39063 1.617187,-0.39063 0.90625,0 1.59375,0.42188 0.687502,0.42187 0.984372,1.10156 0.30469,0.67969 0.30469,2.21094 v 4.98437 h -2.148437 v -4.3125 q 0,-1.44531 -0.359375,-1.95312 -0.359375,-0.51563 -1.078125,-0.51563 -0.546875,0 -0.984375,0.3125 -0.429687,0.3125 -0.640625,0.86719 -0.210937,0.54687 -0.210937,1.76562 v 3.83594 h -2.148438 v -4.11719 q 0,-1.14062 -0.171875,-1.64843 -0.164062,-0.51563 -0.5,-0.76563 -0.335937,-0.25 -0.8125,-0.25 -0.53125,0 -0.96875,0.32031 -0.429687,0.3125 -0.648437,0.88282 -0.210938,0.57031 -0.210938,1.79687 v 3.78125 h -2.140625 z"
         style="font-size:16px"
         id="path927" />
      <path
         d="m 106.97559,253.96154 q 1.20312,0 2.25781,0.60156 1.0625,0.60157 1.65625,1.63282 0.59375,1.03125 0.59375,2.22656 0,1.20312 -0.60156,2.25 -0.59375,1.04687 -1.625,1.64062 -1.03125,0.58594 -2.27344,0.58594 -1.82813,0 -3.125,-1.29687 -1.28906,-1.30469 -1.28906,-3.16407 0,-1.99218 1.46093,-3.32031 1.28125,-1.15625 2.94532,-1.15625 z m 0.0312,2.00781 q -0.99219,0 -1.65625,0.69532 -0.65625,0.6875 -0.65625,1.76562 0,1.10938 0.64843,1.79688 0.65625,0.6875 1.65625,0.6875 1,0 1.66407,-0.69532 0.66406,-0.69531 0.66406,-1.78906 0,-1.09375 -0.65625,-1.77344 -0.64844,-0.6875 -1.66406,-0.6875 z"
         style="font-size:16px"
         id="path929" />
      <path
         d="m 112.28809,254.18029 h 2.08593 l 1.71094,4.83594 1.84375,-4.83594 h 1.27344 l 1.80469,4.78125 1.71093,-4.78125 h 2.10157 l -3.10157,8.5 h -1.35156 l -1.8125,-4.84375 -1.86719,4.84375 h -1.33593 z"
         style="font-size:16px"
         id="path931" />
      <path
         d="m 126.88184,250.68029 q 0.5625,0 0.96093,0.40625 0.40625,0.40625 0.40625,0.98438 0,0.57031 -0.39843,0.97656 -0.39844,0.39844 -0.95313,0.39844 -0.57031,0 -0.97656,-0.40625 -0.39844,-0.41407 -0.39844,-1 0,-0.5625 0.39844,-0.96094 0.39844,-0.39844 0.96094,-0.39844 z m -1.07032,3.5 h 2.14063 v 8.5 h -2.14063 z"
         style="font-size:16px"
         id="path933" />
      <path
         d="m 136.47559,250.89904 v 4.21875 q 0.57812,-0.57812 1.25,-0.86719 0.67187,-0.28906 1.4375,-0.28906 1.66406,0 2.82812,1.25781 1.16406,1.25782 1.16406,3.22657 0,1.89843 -1.20312,3.17968 -1.20313,1.27344 -2.85156,1.27344 -0.73438,0 -1.36719,-0.25781 -0.63281,-0.26563 -1.25781,-0.85938 v 0.89844 h -2.11719 v -11.78125 z m 2.24218,5.03125 q -1.00781,0 -1.67187,0.6875 -0.66406,0.6875 -0.66406,1.79688 0,1.13281 0.66406,1.83593 0.66406,0.69532 1.67187,0.69532 0.97657,0 1.64063,-0.71094 0.67187,-0.71094 0.67187,-1.8125 0,-1.09375 -0.65625,-1.78906 -0.65625,-0.70313 -1.65625,-0.70313 z"
         style="font-size:16px"
         id="path935" />
      <path
         d="m 151.20215,254.18029 h 2.125 v 8.5 h -2.125 v -0.89844 q -0.625,0.59375 -1.25781,0.85938 -0.625,0.25781 -1.35938,0.25781 -1.64844,0 -2.85156,-1.27344 -1.20313,-1.28125 -1.20313,-3.17968 0,-1.96875 1.16407,-3.22657 1.16406,-1.25781 2.82812,-1.25781 0.76563,0 1.4375,0.28906 0.67188,0.28907 1.24219,0.86719 z m -2.24219,1.75 q -0.99219,0 -1.64844,0.70313 -0.65625,0.69531 -0.65625,1.78906 0,1.10156 0.66407,1.8125 0.67187,0.71094 1.64843,0.71094 1.00782,0 1.67188,-0.69532 0.66406,-0.70312 0.66406,-1.83593 0,-1.10938 -0.66406,-1.79688 -0.66406,-0.6875 -1.67969,-0.6875 z"
         style="font-size:16px"
         id="path937" />
      <path
         d="m 155.4834,254.18029 h 2.125 v 0.86719 q 0.72656,-0.60938 1.3125,-0.84375 0.59375,-0.24219 1.21094,-0.24219 1.26562,0 2.14843,0.88281 0.74219,0.75 0.74219,2.21875 v 5.61719 h -2.10937 v -3.72656 q 0,-1.52344 -0.14063,-2.02344 -0.13281,-0.5 -0.47656,-0.75781 -0.33594,-0.26563 -0.83594,-0.26563 -0.64844,0 -1.11719,0.4375 -0.46093,0.42969 -0.64062,1.19532 -0.0937,0.39843 -0.0937,1.72656 v 3.41406 h -2.125 z"
         style="font-size:16px"
         id="path939" />
      <path
         d="m 165.09277,250.89904 h 2.13282 v 6.78906 l 3.14062,-3.50781 h 2.67188 l -3.65625,4.07813 4.10156,4.42187 h -2.64844 l -3.60937,-3.91406 v 3.91406 h -2.13282 z"
         style="font-size:16px"
         id="path941" />
      <path
         d="m 178.35059,253.96154 q 1.20312,0 2.25781,0.60156 1.0625,0.60157 1.65625,1.63282 0.59375,1.03125 0.59375,2.22656 0,1.20312 -0.60156,2.25 -0.59375,1.04687 -1.625,1.64062 -1.03125,0.58594 -2.27344,0.58594 -1.82813,0 -3.125,-1.29687 -1.28906,-1.30469 -1.28906,-3.16407 0,-1.99218 1.46093,-3.32031 1.28125,-1.15625 2.94532,-1.15625 z m 0.0312,2.00781 q -0.99219,0 -1.65625,0.69532 -0.65625,0.6875 -0.65625,1.76562 0,1.10938 0.64843,1.79688 0.65625,0.6875 1.65625,0.6875 1,0 1.66407,-0.69532 0.66406,-0.69531 0.66406,-1.78906 0,-1.09375 -0.65625,-1.77344 -0.64844,-0.6875 -1.66406,-0.6875 z"
         style="font-size:16px"
         id="path943" />
      <path
         d="m 183.66309,254.18029 h 2.08593 l 1.71094,4.83594 1.84375,-4.83594 h 1.27344 l 1.80469,4.78125 1.71093,-4.78125 h 2.10157 l -3.10157,8.5 h -1.35156 l -1.8125,-4.84375 -1.86719,4.84375 h -1.33593 z"
         style="font-size:16px"
         id="path945" />
      <path
         d="m 205.93652,259.04748 h -6.85156 q 0.14844,0.90625 0.78906,1.44531 0.64844,0.53125 1.64844,0.53125 1.19531,0 2.05469,-0.83594 l 1.79687,0.84375 q -0.67187,0.95313 -1.60937,1.41407 -0.9375,0.45312 -2.22656,0.45312 -2,0 -3.25782,-1.25781 -1.25781,-1.26563 -1.25781,-3.16406 0,-1.94532 1.25,-3.22657 1.25781,-1.28906 3.14844,-1.28906 2.00781,0 3.26562,1.28906 1.25782,1.28125 1.25782,3.39063 z m -2.14062,-1.67969 q -0.21094,-0.71094 -0.83594,-1.15625 -0.61719,-0.44531 -1.4375,-0.44531 -0.89062,0 -1.5625,0.5 -0.42187,0.3125 -0.78125,1.10156 z"
         style="font-size:16px"
         id="path947" />
      <path
         d="m 207.65527,254.18029 h 2.14063 v 0.97656 q 0.54687,-0.60156 1.21094,-0.89843 0.67187,-0.29688 1.46093,-0.29688 0.79688,0 1.4375,0.39063 0.64063,0.39062 1.03125,1.14062 0.50782,-0.75 1.24219,-1.14062 0.74219,-0.39063 1.61719,-0.39063 0.90625,0 1.59375,0.42188 0.6875,0.42187 0.98437,1.10156 0.30469,0.67969 0.30469,2.21094 v 4.98437 h -2.14844 v -4.3125 q 0,-1.44531 -0.35937,-1.95312 -0.35938,-0.51563 -1.07813,-0.51563 -0.54687,0 -0.98437,0.3125 -0.42969,0.3125 -0.64063,0.86719 -0.21093,0.54687 -0.21093,1.76562 v 3.83594 h -2.14844 v -4.11719 q 0,-1.14062 -0.17188,-1.64843 -0.16406,-0.51563 -0.5,-0.76563 -0.33593,-0.25 -0.8125,-0.25 -0.53125,0 -0.96875,0.32031 -0.42968,0.3125 -0.64843,0.88282 -0.21094,0.57031 -0.21094,1.79687 v 3.78125 h -2.14063 z"
         style="font-size:16px"
         id="path949" />
      <path
         d="m 222.69434,254.18029 h 2.15625 v 4.09375 q 0,1.19531 0.16406,1.66406 0.16406,0.46094 0.52344,0.71875 0.36718,0.25782 0.89843,0.25782 0.53125,0 0.89844,-0.25 0.375,-0.25782 0.55469,-0.75 0.13281,-0.36719 0.13281,-1.57032 v -4.16406 h 2.14063 v 3.60156 q 0,2.22657 -0.35157,3.04688 -0.42968,1 -1.26562,1.53906 -0.83594,0.53125 -2.125,0.53125 -1.39844,0 -2.26563,-0.625 -0.85937,-0.625 -1.21093,-1.74219 -0.25,-0.77343 -0.25,-2.8125 z"
         style="font-size:16px"
         id="path951" />
      <path
         d="m 78.069336,270.68029 q 0.5625,0 0.960937,0.40625 0.40625,0.40625 0.40625,0.98438 0,0.57031 -0.398437,0.97656 -0.398438,0.39844 -0.953125,0.39844 -0.570313,0 -0.976563,-0.40625 -0.398437,-0.41407 -0.398437,-1 0,-0.5625 0.398437,-0.96094 0.398438,-0.39844 0.960938,-0.39844 z m -1.070313,3.5 h 2.140625 v 8.5 h -2.140625 z"
         style="font-size:16px"
         id="path953" />
      <path
         d="m 85.530273,274.18029 h 2.140625 v 0.97656 q 0.546875,-0.60156 1.210938,-0.89843 0.671875,-0.29688 1.460937,-0.29688 0.796875,0 1.4375,0.39063 0.640625,0.39062 1.03125,1.14062 0.507813,-0.75 1.242188,-1.14062 0.742187,-0.39063 1.617187,-0.39063 0.90625,0 1.59375,0.42188 0.6875,0.42187 0.984375,1.10156 0.304688,0.67969 0.304688,2.21094 v 4.98437 h -2.148438 v -4.3125 q 0,-1.44531 -0.359375,-1.95312 -0.359375,-0.51563 -1.078125,-0.51563 -0.546875,0 -0.984375,0.3125 -0.429687,0.3125 -0.640625,0.86719 -0.210937,0.54687 -0.210937,1.76562 v 3.83594 h -2.148438 v -4.11719 q 0,-1.14062 -0.171875,-1.64843 -0.164062,-0.51563 -0.5,-0.76563 -0.335937,-0.25 -0.8125,-0.25 -0.53125,0 -0.96875,0.32031 -0.429687,0.3125 -0.648437,0.88282 -0.210938,0.57031 -0.210938,1.79687 v 3.78125 h -2.140625 z"
         style="font-size:16px"
         id="path955" />
      <path
         d="m 104.56934,273.96154 q 1.20312,0 2.25781,0.60156 1.0625,0.60157 1.65625,1.63282 0.59375,1.03125 0.59375,2.22656 0,1.20312 -0.60156,2.25 -0.59375,1.04687 -1.625,1.64062 -1.03125,0.58594 -2.27344,0.58594 -1.82813,0 -3.125,-1.29687 -1.28906,-1.30469 -1.28906,-3.16407 0,-1.99218 1.46093,-3.32031 1.28125,-1.15625 2.94532,-1.15625 z m 0.0312,2.00781 q -0.99219,0 -1.65625,0.69532 -0.65625,0.6875 -0.65625,1.76562 0,1.10938 0.64843,1.79688 0.65625,0.6875 1.65625,0.6875 1,0 1.66407,-0.69532 0.66406,-0.69531 0.66406,-1.78906 0,-1.09375 -0.65625,-1.77344 -0.64844,-0.6875 -1.66406,-0.6875 z"
         style="font-size:16px"
         id="path957" />
      <path
         d="m 117.1084,274.18029 h 2.125 v 7.28125 q 0,2.15625 -0.86719,3.17188 -1.16406,1.375 -3.50781,1.375 -1.25,0 -2.10156,-0.3125 -0.85157,-0.3125 -1.4375,-0.92188 -0.58594,-0.60156 -0.86719,-1.46875 h 2.35156 q 0.3125,0.35938 0.80469,0.53906 0.49219,0.1875 1.16406,0.1875 0.85938,0 1.38281,-0.26562 0.52344,-0.26563 0.73438,-0.6875 0.21875,-0.42188 0.21875,-1.45313 -0.5625,0.5625 -1.17969,0.8125 -0.61719,0.24219 -1.39844,0.24219 -1.71093,0 -2.89062,-1.23437 -1.17969,-1.23438 -1.17969,-3.125 0,-2.02344 1.25,-3.25 1.13281,-1.10938 2.70313,-1.10938 0.73437,0 1.38281,0.27344 0.65625,0.26562 1.3125,0.88281 z m -2.21094,1.77344 q -1.00781,0 -1.66406,0.67969 -0.65625,0.67187 -0.65625,1.69531 0,1.0625 0.67187,1.74219 0.67188,0.67968 1.6875,0.67968 0.99219,0 1.63282,-0.66406 0.64843,-0.66406 0.64843,-1.74219 0,-1.0625 -0.64843,-1.72656 -0.64844,-0.66406 -1.67188,-0.66406 z"
         style="font-size:16px"
         id="path959" />
      <path
         d="m 127.6709,274.18029 h 2.125 v 8.5 h -2.125 v -0.89844 q -0.625,0.59375 -1.25781,0.85938 -0.625,0.25781 -1.35938,0.25781 -1.64844,0 -2.85156,-1.27344 -1.20313,-1.28125 -1.20313,-3.17968 0,-1.96875 1.16407,-3.22657 1.16406,-1.25781 2.82812,-1.25781 0.76563,0 1.4375,0.28906 0.67188,0.28907 1.24219,0.86719 z m -2.24219,1.75 q -0.99219,0 -1.64844,0.70313 -0.65625,0.69531 -0.65625,1.78906 0,1.10156 0.66407,1.8125 0.67187,0.71094 1.64843,0.71094 1.00782,0 1.67188,-0.69532 0.66406,-0.70312 0.66406,-1.83593 0,-1.10938 -0.66406,-1.79688 -0.66406,-0.6875 -1.67969,-0.6875 z m 3.35156,6.75 h 1.125 q -1.09375,0.64844 -1.09375,1.28906 0,0.32032 0.22657,0.52344 0.22656,0.20313 0.58593,0.20313 0.26563,0 0.67969,-0.21094 v 1.24219 q -0.53906,0.11718 -1,0.11718 -0.92187,0 -1.41406,-0.42187 -0.49219,-0.42188 -0.49219,-1.05469 0,-0.47656 0.35156,-0.92969 0.35157,-0.45312 1.03125,-0.75781 z"
         style="font-size:16px"
         id="path961" />
      <path
         d="m 140.41309,273.96154 q 1.20312,0 2.25781,0.60156 1.0625,0.60157 1.65625,1.63282 0.59375,1.03125 0.59375,2.22656 0,1.20312 -0.60156,2.25 -0.59375,1.04687 -1.625,1.64062 -1.03125,0.58594 -2.27344,0.58594 -1.82813,0 -3.125,-1.29687 -1.28906,-1.30469 -1.28906,-3.16407 0,-1.99218 1.46093,-3.32031 1.28125,-1.15625 2.94532,-1.15625 z m 0.0312,2.00781 q -0.99219,0 -1.65625,0.69532 -0.65625,0.6875 -0.65625,1.76562 0,1.10938 0.64843,1.79688 0.65625,0.6875 1.65625,0.6875 1,0 1.66407,-0.69532 0.66406,-0.69531 0.66406,-1.78906 0,-1.09375 -0.65625,-1.77344 -0.64844,-0.6875 -1.66406,-0.6875 z"
         style="font-size:16px"
         id="path963" />
      <path
         d="m 151.87402,275.36779 -1.32031,1.32031 q -0.80469,-0.79687 -1.46094,-0.79687 -0.35937,0 -0.5625,0.15625 -0.20312,0.14844 -0.20312,0.375 0,0.17187 0.125,0.32031 0.13281,0.14063 0.64062,0.39063 l 0.78125,0.39062 q 1.23438,0.60938 1.69532,1.24219 0.46093,0.63281 0.46093,1.48437 0,1.13282 -0.83593,1.89063 -0.82813,0.75781 -2.22657,0.75781 -1.85937,0 -2.96875,-1.45312 l 1.3125,-1.42969 q 0.375,0.4375 0.875,0.71094 0.50782,0.26562 0.89844,0.26562 0.42188,0 0.67969,-0.20312 0.25781,-0.20313 0.25781,-0.46875 0,-0.49219 -0.92969,-0.96094 l -0.71875,-0.35938 q -2.0625,-1.03906 -2.0625,-2.60156 0,-1.00781 0.77344,-1.71875 0.78125,-0.71875 1.99219,-0.71875 0.82812,0 1.55469,0.36719 0.73437,0.35937 1.24218,1.03906 z"
         style="font-size:16px"
         id="path965" />
      <path
         d="m 156.25684,274.63342 0.84375,-0.95313 v 1.9375 l -0.84375,0.95313 v 6.10937 h -2.14063 v -3.72656 l -0.85156,0.94531 v -1.91406 l 0.85156,-0.96094 v -6.125 h 2.14063 z"
         style="font-size:16px"
         id="path967" />
      <path
         d="m 165.1084,274.18029 h 2.125 v 8.5 h -2.125 v -0.89844 q -0.625,0.59375 -1.25781,0.85938 -0.625,0.25781 -1.35938,0.25781 -1.64844,0 -2.85156,-1.27344 -1.20313,-1.28125 -1.20313,-3.17968 0,-1.96875 1.16407,-3.22657 1.16406,-1.25781 2.82812,-1.25781 0.76563,0 1.4375,0.28906 0.67188,0.28907 1.24219,0.86719 z m -2.24219,1.75 q -0.99219,0 -1.64844,0.70313 -0.65625,0.69531 -0.65625,1.78906 0,1.10156 0.66407,1.8125 0.67187,0.71094 1.64843,0.71094 1.00782,0 1.67188,-0.69532 0.66406,-0.70312 0.66406,-1.83593 0,-1.10938 -0.66406,-1.79688 -0.66406,-0.6875 -1.67969,-0.6875 z"
         style="font-size:16px"
         id="path969" />
      <path
         d="m 171.50684,270.89904 v 4.21875 q 0.57812,-0.57812 1.25,-0.86719 0.67187,-0.28906 1.4375,-0.28906 1.66406,0 2.82812,1.25781 1.16406,1.25782 1.16406,3.22657 0,1.89843 -1.20312,3.17968 -1.20313,1.27344 -2.85156,1.27344 -0.73438,0 -1.36719,-0.25781 -0.63281,-0.26563 -1.25781,-0.85938 v 0.89844 h -2.11719 v -11.78125 z m 2.24218,5.03125 q -1.00781,0 -1.67187,0.6875 -0.66406,0.6875 -0.66406,1.79688 0,1.13281 0.66406,1.83593 0.66406,0.69532 1.67187,0.69532 0.97657,0 1.64063,-0.71094 0.67187,-0.71094 0.67187,-1.8125 0,-1.09375 -0.65625,-1.78906 -0.65625,-0.70313 -1.65625,-0.70313 z"
         style="font-size:16px"
         id="path971" />
      <path
         d="m 180.78809,270.68029 q 0.5625,0 0.96093,0.40625 0.40625,0.40625 0.40625,0.98438 0,0.57031 -0.39843,0.97656 -0.39844,0.39844 -0.95313,0.39844 -0.57031,0 -0.97656,-0.40625 -0.39844,-0.41407 -0.39844,-1 0,-0.5625 0.39844,-0.96094 0.39844,-0.39844 0.96094,-0.39844 z m -1.07032,3.5 h 2.14063 v 8.5 h -2.14063 z"
         style="font-size:16px"
         id="path973" />
      <path
         d="m 190.07715,274.18029 h 2.125 v 8.5 h -2.125 v -0.89844 q -0.625,0.59375 -1.25781,0.85938 -0.625,0.25781 -1.35938,0.25781 -1.64844,0 -2.85156,-1.27344 -1.20313,-1.28125 -1.20313,-3.17968 0,-1.96875 1.16407,-3.22657 1.16406,-1.25781 2.82812,-1.25781 0.76563,0 1.4375,0.28906 0.67188,0.28907 1.24219,0.86719 z m -2.24219,1.75 q -0.99219,0 -1.64844,0.70313 -0.65625,0.69531 -0.65625,1.78906 0,1.10156 0.66407,1.8125 0.67187,0.71094 1.64843,0.71094 1.00782,0 1.67188,-0.69532 0.66406,-0.70312 0.66406,-1.83593 0,-1.10938 -0.66406,-1.79688 -0.66406,-0.6875 -1.67969,-0.6875 z"
         style="font-size:16px"
         id="path975" />
      <path
         d="m 202.67871,275.89904 -1.77344,0.97656 q -0.5,-0.52343 -0.99218,-0.72656 -0.48438,-0.20312 -1.14063,-0.20312 -1.19531,0 -1.9375,0.71875 -0.73437,0.71093 -0.73437,1.82812 0,1.08594 0.71093,1.77344 0.71094,0.6875 1.86719,0.6875 1.42969,0 2.22656,-0.97656 l 1.67969,1.14843 q -1.36719,1.77344 -3.85937,1.77344 -2.24219,0 -3.51563,-1.32812 -1.26562,-1.32813 -1.26562,-3.10938 0,-1.23437 0.61718,-2.27344 0.61719,-1.03906 1.71875,-1.63281 1.10938,-0.59375 2.47657,-0.59375 1.26562,0 2.27343,0.50781 1.00782,0.5 1.64844,1.42969 z m -3.61719,-6.33594 h 2.52344 l -2.85937,3.0625 h -1.53125 z"
         style="font-size:16px"
         id="path977" />
      <path
         d="m 75.014648,294.18029 h 2.125 v 8.5 h -2.125 v -0.89844 q -0.625,0.59375 -1.257812,0.85938 -0.625,0.25781 -1.359375,0.25781 -1.648438,0 -2.851563,-1.27344 -1.203125,-1.28125 -1.203125,-3.17968 0,-1.96875 1.164063,-3.22657 1.164062,-1.25781 2.828125,-1.25781 0.765625,0 1.4375,0.28906 0.671875,0.28907 1.242187,0.86719 z m -2.242187,1.75 q -0.992188,0 -1.648438,0.70313 -0.65625,0.69531 -0.65625,1.78906 0,1.10156 0.664063,1.8125 0.671875,0.71094 1.648437,0.71094 1.007813,0 1.671875,-0.69532 0.664063,-0.70312 0.664063,-1.83593 0,-1.10938 -0.664063,-1.79688 -0.664062,-0.6875 -1.679687,-0.6875 z"
         style="font-size:16px"
         id="path979" />
      <path
         d="m 81.413086,294.18029 v 0.9375 q 0.578125,-0.57812 1.25,-0.86719 0.671875,-0.28906 1.4375,-0.28906 1.664062,0 2.828125,1.25781 1.164062,1.25782 1.164062,3.22657 0,1.89843 -1.203125,3.17968 -1.203125,1.27344 -2.851562,1.27344 -0.734375,0 -1.367188,-0.25781 -0.632812,-0.26563 -1.257812,-0.85938 v 4.00782 h -2.117188 v -11.60938 z m 2.242187,1.75 q -1.007812,0 -1.671875,0.6875 -0.664062,0.6875 -0.664062,1.79688 0,1.13281 0.664062,1.83593 0.664063,0.69532 1.671875,0.69532 0.976563,0 1.640625,-0.71094 0.671875,-0.71094 0.671875,-1.8125 0,-1.09375 -0.65625,-1.78906 -0.65625,-0.70313 -1.65625,-0.70313 z"
         style="font-size:16px"
         id="path981" />
      <path
         d="m 96.139648,294.18029 h 2.125 v 8.5 h -2.125 v -0.89844 q -0.625,0.59375 -1.257812,0.85938 -0.625,0.25781 -1.359375,0.25781 -1.648438,0 -2.851563,-1.27344 -1.203125,-1.28125 -1.203125,-3.17968 0,-1.96875 1.164063,-3.22657 1.164062,-1.25781 2.828125,-1.25781 0.765625,0 1.4375,0.28906 0.671875,0.28907 1.242187,0.86719 z m -2.242187,1.75 q -0.992188,0 -1.648438,0.70313 -0.65625,0.69531 -0.65625,1.78906 0,1.10156 0.664063,1.8125 0.671875,0.71094 1.648437,0.71094 1.007813,0 1.671875,-0.69532 0.664063,-0.70312 0.664063,-1.83593 0,-1.10938 -0.664063,-1.79688 -0.664062,-0.6875 -1.679687,-0.6875 z"
         style="font-size:16px"
         id="path983" />
      <path
         d="m 99.920898,294.18029 h 1.828122 v 1.07031 q 0.29688,-0.63281 0.78907,-0.96093 0.49218,-0.32813 1.07812,-0.32813 0.41406,0 0.86719,0.21875 l -0.66406,1.83594 q -0.375,-0.1875 -0.61719,-0.1875 -0.49219,0 -0.83594,0.60937 -0.33594,0.60938 -0.33594,2.39063 l 0.008,0.41406 v 3.4375 h -2.117192 z"
         style="font-size:16px"
         id="path985" />
      <path
         d="m 111.82715,294.18029 h 2.125 v 8.5 h -2.125 v -0.89844 q -0.625,0.59375 -1.25781,0.85938 -0.625,0.25781 -1.35938,0.25781 -1.64844,0 -2.85156,-1.27344 -1.20313,-1.28125 -1.20313,-3.17968 0,-1.96875 1.16407,-3.22657 1.16406,-1.25781 2.82812,-1.25781 0.76563,0 1.4375,0.28906 0.67188,0.28907 1.24219,0.86719 z m -2.24219,1.75 q -0.99219,0 -1.64844,0.70313 -0.65625,0.69531 -0.65625,1.78906 0,1.10156 0.66407,1.8125 0.67187,0.71094 1.64843,0.71094 1.00782,0 1.67188,-0.69532 0.66406,-0.70312 0.66406,-1.83593 0,-1.10938 -0.66406,-1.79688 -0.66406,-0.6875 -1.67969,-0.6875 z"
         style="font-size:16px"
         id="path987" />
      <path
         d="m 116.36621,291.04748 h 2.125 v 3.13281 h 1.26563 v 1.83594 h -1.26563 v 6.66406 h -2.125 v -6.66406 h -1.09375 v -1.83594 h 1.09375 z"
         style="font-size:16px"
         id="path989" />
      <path
         d="m 127.50684,294.18029 v 0.9375 q 0.57812,-0.57812 1.25,-0.86719 0.67187,-0.28906 1.4375,-0.28906 1.66406,0 2.82812,1.25781 1.16406,1.25782 1.16406,3.22657 0,1.89843 -1.20312,3.17968 -1.20313,1.27344 -2.85156,1.27344 -0.73438,0 -1.36719,-0.25781 -0.63281,-0.26563 -1.25781,-0.85938 v 4.00782 h -2.11719 v -11.60938 z m 2.24218,1.75 q -1.00781,0 -1.67187,0.6875 -0.66406,0.6875 -0.66406,1.79688 0,1.13281 0.66406,1.83593 0.66406,0.69532 1.67187,0.69532 0.97657,0 1.64063,-0.71094 0.67187,-0.71094 0.67187,-1.8125 0,-1.09375 -0.65625,-1.78906 -0.65625,-0.70313 -1.65625,-0.70313 z"
         style="font-size:16px"
         id="path991" />
      <path
         d="m 142.2334,294.18029 h 2.125 v 8.5 h -2.125 v -0.89844 q -0.625,0.59375 -1.25781,0.85938 -0.625,0.25781 -1.35938,0.25781 -1.64844,0 -2.85156,-1.27344 -1.20313,-1.28125 -1.20313,-3.17968 0,-1.96875 1.16407,-3.22657 1.16406,-1.25781 2.82812,-1.25781 0.76563,0 1.4375,0.28906 0.67188,0.28907 1.24219,0.86719 z m -2.24219,1.75 q -0.99219,0 -1.64844,0.70313 -0.65625,0.69531 -0.65625,1.78906 0,1.10156 0.66407,1.8125 0.67187,0.71094 1.64843,0.71094 1.00782,0 1.67188,-0.69532 0.66406,-0.70312 0.66406,-1.83593 0,-1.10938 -0.66406,-1.79688 -0.66406,-0.6875 -1.67969,-0.6875 z"
         style="font-size:16px"
         id="path993" />
      <path
         d="m 146.51465,294.18029 h 2.125 v 0.86719 q 0.72656,-0.60938 1.3125,-0.84375 0.59375,-0.24219 1.21094,-0.24219 1.26562,0 2.14843,0.88281 0.74219,0.75 0.74219,2.21875 v 5.61719 h -2.10937 v -3.72656 q 0,-1.52344 -0.14063,-2.02344 -0.13281,-0.5 -0.47656,-0.75781 -0.33594,-0.26563 -0.83594,-0.26563 -0.64844,0 -1.11719,0.4375 -0.46093,0.42969 -0.64062,1.19532 -0.0937,0.39843 -0.0937,1.72656 v 3.41406 h -2.125 z m 4.00781,-4.61719 h 2.52344 l -2.85938,3.0625 h -1.53125 z"
         style="font-size:16px"
         id="path995" />
      <path
         d="m 161.31152,295.36779 -1.32031,1.32031 q -0.80469,-0.79687 -1.46094,-0.79687 -0.35937,0 -0.5625,0.15625 -0.20312,0.14844 -0.20312,0.375 0,0.17187 0.125,0.32031 0.13281,0.14063 0.64062,0.39063 l 0.78125,0.39062 q 1.23438,0.60938 1.69532,1.24219 0.46093,0.63281 0.46093,1.48437 0,1.13282 -0.83593,1.89063 -0.82813,0.75781 -2.22657,0.75781 -1.85937,0 -2.96875,-1.45312 l 1.3125,-1.42969 q 0.375,0.4375 0.875,0.71094 0.50782,0.26562 0.89844,0.26562 0.42188,0 0.67969,-0.20312 0.25781,-0.20313 0.25781,-0.46875 0,-0.49219 -0.92969,-0.96094 l -0.71875,-0.35938 q -2.0625,-1.03906 -2.0625,-2.60156 0,-1.00781 0.77344,-1.71875 0.78125,-0.71875 1.99219,-0.71875 0.82812,0 1.55469,0.36719 0.73437,0.35937 1.24218,1.03906 z"
         style="font-size:16px"
         id="path997" />
      <path
         d="m 163.39746,291.04748 h 2.125 v 3.13281 h 1.26563 v 1.83594 h -1.26563 v 6.66406 h -2.125 v -6.66406 h -1.09375 v -1.83594 h 1.09375 z"
         style="font-size:16px"
         id="path999" />
      <path
         d="m 167.00684,294.18029 h 2.08593 l 1.71094,4.83594 1.84375,-4.83594 h 1.27344 l 1.80469,4.78125 1.71093,-4.78125 h 2.10157 l -3.10157,8.5 h -1.35156 l -1.8125,-4.84375 -1.86719,4.84375 h -1.33593 z"
         style="font-size:16px"
         id="path1001" />
      <path
         d="m 184.75684,293.96154 q 1.20312,0 2.25781,0.60156 1.0625,0.60157 1.65625,1.63282 0.59375,1.03125 0.59375,2.22656 0,1.20312 -0.60156,2.25 -0.59375,1.04687 -1.625,1.64062 -1.03125,0.58594 -2.27344,0.58594 -1.82813,0 -3.125,-1.29687 -1.28906,-1.30469 -1.28906,-3.16407 0,-1.99218 1.46093,-3.32031 1.28125,-1.15625 2.94532,-1.15625 z m 0.0312,2.00781 q -0.99219,0 -1.65625,0.69532 -0.65625,0.6875 -0.65625,1.76562 0,1.10938 0.64843,1.79688 0.65625,0.6875 1.65625,0.6875 1,0 1.66407,-0.69532 0.66406,-0.69531 0.66406,-1.78906 0,-1.09375 -0.65625,-1.77344 -0.64844,-0.6875 -1.66406,-0.6875 z"
         style="font-size:16px"
         id="path1003" />
      <path
         d="m 190.06934,294.18029 h 2.08593 l 1.71094,4.83594 1.84375,-4.83594 h 1.27344 l 1.80469,4.78125 1.71093,-4.78125 h 2.10157 l -3.10157,8.5 h -1.35156 l -1.8125,-4.84375 -1.86719,4.84375 h -1.33593 z"
         style="font-size:16px"
         id="path1005" />
      <path
         d="m 202.88184,294.18029 h 2.17968 l 2.21094,5.33594 2.4375,-5.33594 h 2.1875 l -5.32812,11.60938 h -2.20313 l 1.75,-3.74219 z"
         style="font-size:16px"
         id="path1007" />
    </g>
  </g>
</svg>
