<?xml version="1.0" encoding="UTF-8" standalone="no"?>
<!-- Created with Inkscape (http://www.inkscape.org/) -->

<svg
   xmlns:dc="http://purl.org/dc/elements/1.1/"
   xmlns:cc="http://creativecommons.org/ns#"
   xmlns:rdf="http://www.w3.org/1999/02/22-rdf-syntax-ns#"
   xmlns:svg="http://www.w3.org/2000/svg"
   xmlns="http://www.w3.org/2000/svg"
   xmlns:xlink="http://www.w3.org/1999/xlink"
   xmlns:sodipodi="http://sodipodi.sourceforge.net/DTD/sodipodi-0.dtd"
   xmlns:inkscape="http://www.inkscape.org/namespaces/inkscape"
   width="70mm"
   height="100mm"
   viewBox="0 0 70 100"
   version="1.1"
   id="svg8"
   inkscape:version="0.92.2 5c3e80d, 2017-08-06"
   sodipodi:docname="sticker.no.svg"
   inkscape:export-filename="/home/emes/doc/dontbuymonero-sticker/sticker.no.png"
   inkscape:export-xdpi="300"
   inkscape:export-ydpi="300">
  <defs
     id="defs2" />
  <sodipodi:namedview
     id="base"
     pagecolor="#ffffff"
     bordercolor="#666666"
     borderopacity="1.0"
     inkscape:pageopacity="0.0"
     inkscape:pageshadow="2"
     inkscape:zoom="1.979899"
     inkscape:cx="33.278149"
     inkscape:cy="213.70545"
     inkscape:document-units="mm"
     inkscape:current-layer="layer1"
     showgrid="false"
     showguides="true"
     inkscape:guide-bbox="true"
     inkscape:snap-to-guides="true"
     inkscape:snap-grids="true"
     inkscape:snap-page="true"
     inkscape:snap-bbox="true"
     inkscape:bbox-nodes="true"
     inkscape:bbox-paths="true"
     inkscape:window-width="1920"
     inkscape:window-height="1136"
     inkscape:window-x="0"
     inkscape:window-y="747"
     inkscape:window-maximized="1"
     inkscape:pagecheckerboard="true">
    <sodipodi:guide
       position="5,91.472997"
       orientation="1,0"
       id="guide889"
       inkscape:locked="false"
       inkscape:label=""
       inkscape:color="rgb(0,0,255)" />
    <sodipodi:guide
       position="65,88.533032"
       orientation="1,0"
       id="guide891"
       inkscape:locked="false"
       inkscape:label=""
       inkscape:color="rgb(0,0,255)" />
    <sodipodi:guide
       position="28.86511,95"
       orientation="0,1"
       id="guide893"
       inkscape:locked="false"
       inkscape:label=""
       inkscape:color="rgb(0,0,255)" />
    <sodipodi:guide
       position="36.348657,5"
       orientation="0,1"
       id="guide895"
       inkscape:locked="false"
       inkscape:label=""
       inkscape:color="rgb(0,0,255)" />
    <sodipodi:guide
       position="8,62.407434"
       orientation="1,0"
       id="guide4775"
       inkscape:locked="false"
       inkscape:label=""
       inkscape:color="rgb(0,0,255)" />
    <sodipodi:guide
       position="65.000001,59.868373"
       orientation="1,0"
       id="guide4777"
       inkscape:locked="false" />
    <sodipodi:guide
       position="62,66.016"
       orientation="1,0"
       id="guide4779"
       inkscape:locked="false"
       inkscape:label=""
       inkscape:color="rgb(0,0,255)" />
  </sodipodi:namedview>
  <metadata
     id="metadata5">
    <rdf:RDF>
      <cc:Work
         rdf:about="">
        <dc:format>image/svg+xml</dc:format>
        <dc:type
           rdf:resource="http://purl.org/dc/dcmitype/StillImage" />
        <dc:title></dc:title>
      </cc:Work>
    </rdf:RDF>
  </metadata>
  <g
     inkscape:label="Layer 1"
     inkscape:groupmode="layer"
     id="layer1"
     transform="translate(0,-197)">
    <rect
       style="fill:#ffffff;fill-opacity:1;stroke:none;stroke-width:1;stroke-linecap:square;stroke-miterlimit:4;stroke-dasharray:none;stroke-opacity:1"
       id="rect858"
       width="70"
       height="100"
       x="0"
       y="197" />
    <g
       id="g875"
       transform="translate(-2.0000006,5.4790253)"
       inkscape:export-xdpi="352.57999"
       inkscape:export-ydpi="352.57999">
      <g
         transform="matrix(1.3011002,0,0,1.3011002,16.420217,-75.468301)"
         id="g915">
        <path
           inkscape:connector-curvature="0"
           d="m 15.817084,222.05063 c -5.391414,0 -9.7639184,4.37197 -9.7639184,9.76365 0,1.07791 0.174625,2.11455 0.4974166,3.08425 h 2.9199417 v -8.21505 l 6.3465601,6.34656 6.346561,-6.34656 v 8.21505 h 2.920206 c 0.322791,-0.9697 0.497416,-2.00634 0.497416,-3.08425 0,-5.39168 -4.372504,-9.76365 -9.764183,-9.76365"
           id="path22"
           style="fill:#ff6600;stroke-width:0.26458332" />
        <path
           inkscape:connector-curvature="0"
           d="m 11.58809,231.71921 v 5.16917 H 7.4738193 c 1.7139708,2.81199 4.8095957,4.69 8.3431057,4.69 3.533511,0 6.6294,-1.87801 8.343107,-4.69 h -4.114007 v -5.16917 l -4.2291,4.2291 z"
           id="path26"
           style="fill:#4c4c4c;stroke-width:0.26458332" />
      </g>
      <g
         transform="matrix(0.88274719,0,0,0.88274719,-10.947117,38.872224)"
         id="g911">
        <path
           inkscape:connector-curvature="0"
           d="m 78.102302,234.59405 c -0.516202,0.53154 -1.142206,0.79639 -1.878277,0.79639 -0.650346,0 -1.225285,-0.20426 -1.728523,-0.61489 -0.646906,-0.52361 -0.969962,-1.23666 -0.969962,-2.13889 0,-0.80778 0.257175,-1.47532 0.771525,-1.99919 0.512497,-0.52573 1.14591,-0.78687 1.900766,-0.78687 0.745331,0 1.379008,0.26881 1.898915,0.80565 0.522023,0.53711 0.782902,1.1938 0.782902,1.97088 0,0.7792 -0.258763,1.43352 -0.777346,1.96692 m 1.083998,-5.01042 c -0.828675,-0.8337 -1.81954,-1.25174 -2.973388,-1.25174 -0.760412,0 -1.471347,0.19129 -2.129366,0.57308 -0.6604,0.38206 -1.178719,0.90012 -1.554956,1.5547 -0.376503,0.65431 -0.565415,1.37133 -0.565415,2.15026 0,1.16338 0.404548,2.16747 1.214437,3.01334 0.809096,0.8472 1.825096,1.26895 3.046413,1.26895 1.167077,0 2.160323,-0.41037 2.979208,-1.23508 0.818886,-0.82285 1.227402,-1.83065 1.227402,-3.02048 0,-1.19936 -0.414337,-2.21668 -1.244335,-3.05303"
           id="path30"
           style="fill:#4c4c4c;stroke-width:0.26458332" />
        <path
           inkscape:connector-curvature="0"
           d="m 69,231.47434 c -0.196585,0.13706 -0.289454,0.20453 -0.809625,0.20453 h -2.046816 v -1.75102 h 1.983316 c 0.397669,0 0.468048,0.0299 0.631032,0.0913 0.162454,0.0595 0.29157,0.15902 0.388937,0.29581 0.09737,0.13705 0.144992,0.29977 0.144992,0.4863 0,0.3138 -0.09737,0.53817 -0.291836,0.6731 m 0.246063,1.61211 c 0.542131,-0.19473 0.94906,-0.48048 1.218935,-0.85752 0.27014,-0.37914 0.403225,-0.84798 0.403225,-1.41155 0,-0.53419 -0.120914,-0.9988 -0.365389,-1.38985 -0.244211,-0.39106 -0.567796,-0.67099 -0.96864,-0.83979 -0.401108,-0.16881 -1.074208,-0.254 -2.021152,-0.254 h -2.997464 v 8.55662 h 1.627981 v -3.6232 h 1.420812 l 1.926167,3.6232 h 1.780646 z"
           id="path34"
           style="fill:#4c4c4c;stroke-width:0.26458332" />
        <path
           inkscape:connector-curvature="0"
           d="m 57.217787,228.33189 h 5.547783 v 1.59411 h -3.929591 v 1.75128 h 3.929591 v 1.56633 h -3.929591 v 2.0447 h 3.929591 v 1.60047 h -5.547783 z"
           id="path38"
           style="fill:#4c4c4c;stroke-width:0.26458332" />
        <path
           inkscape:connector-curvature="0"
           d="m 48.621925,228.33189 h 1.55866 l 3.670829,5.63033 v -5.63033 h 1.627981 v 8.55662 h -1.564481 l -3.665008,-5.61234 v 5.61234 h -1.627981 z"
           id="path42"
           style="fill:#4c4c4c;stroke-width:0.26458332" />
        <use
           transform="translate(-33.088422,-1.0786894e-6)"
           id="use46"
           x="0"
           y="0"
           width="282"
           height="75"
           xlink:href="#path30" />
        <path
           inkscape:connector-curvature="0"
           d="m 29.678129,228.33165 h 1.594114 l 1.977231,5.9682 2.007394,-5.9682 h 1.570302 l 1.441715,8.55689 h -1.570567 l -0.919162,-5.40412 -1.820598,5.40412 h -1.435629 l -1.796521,-5.40412 -0.937154,5.40412 H 28.20096 Z"
           id="path50"
           style="fill:#4c4c4c;stroke-width:0.26458332" />
      </g>
    </g>
    <flowRoot
       xml:space="preserve"
       id="flowRoot840"
       style="font-style:normal;font-weight:normal;font-size:26.66666603px;line-height:1.25;font-family:sans-serif;letter-spacing:0px;word-spacing:0px;fill:#000000;fill-opacity:1;stroke:none"><flowRegion
         id="flowRegion842"><rect
           id="rect844"
           width="77.781746"
           height="47.477169"
           x="239.40616"
           y="264.52042" /></flowRegion><flowPara
         id="flowPara846" /></flowRoot>    <flowRoot
       xml:space="preserve"
       id="flowRoot866"
       style="font-style:normal;font-variant:normal;font-weight:bold;font-stretch:normal;font-size:16px;line-height:1.25;font-family:'Century Gothic';-inkscape-font-specification:'Century Gothic Bold';text-align:center;letter-spacing:0px;word-spacing:0px;text-anchor:middle;fill:#000000;fill-opacity:1;stroke:none"
       transform="matrix(0.26458333,0,0,0.26458333,0,192)"><flowRegion
         id="flowRegion868"
         style="font-size:16px"><rect
           id="rect870"
           width="241.88977"
           height="148.28261"
           x="18.897638"
           y="229.67015"
           style="font-size:16px" /></flowRegion><flowPara
         id="flowPara872" /></flowRoot>    <flowRoot
       xml:space="preserve"
       id="flowRoot874"
       style="font-style:normal;font-variant:normal;font-weight:bold;font-stretch:normal;font-size:26.66666603px;line-height:1.25;font-family:'Century Gothic';-inkscape-font-specification:'Century Gothic Bold';text-align:center;letter-spacing:0px;word-spacing:0px;text-anchor:middle;fill:#000000;fill-opacity:1;stroke:none"><flowRegion
         id="flowRegion876"><rect
           id="rect878"
           width="241.88977"
           height="148.28261"
           x="18.897638"
           y="229.67015" /></flowRegion><flowPara
         id="flowPara880" /></flowRoot>    <g
       id="g861">
      <path
         inkscape:connector-curvature="0"
         id="rect861"
         d="M 5,263.0024 V 263.44051 292 h 60 v -28.9976 z m 0.874399,0.8744 h 58.251202 v 27.24879 H 5.874399 Z"
         style="color:#000000;font-style:normal;font-variant:normal;font-weight:normal;font-stretch:normal;font-size:medium;line-height:normal;font-family:sans-serif;font-variant-ligatures:normal;font-variant-position:normal;font-variant-caps:normal;font-variant-numeric:normal;font-variant-alternates:normal;font-feature-settings:normal;text-indent:0;text-align:start;text-decoration:none;text-decoration-line:none;text-decoration-style:solid;text-decoration-color:#000000;letter-spacing:normal;word-spacing:normal;text-transform:none;writing-mode:lr-tb;direction:ltr;text-orientation:mixed;dominant-baseline:auto;baseline-shift:baseline;text-anchor:start;white-space:normal;shape-padding:0;clip-rule:nonzero;display:inline;overflow:visible;visibility:visible;opacity:1;isolation:auto;mix-blend-mode:normal;color-interpolation:sRGB;color-interpolation-filters:linearRGB;solid-color:#000000;solid-opacity:1;vector-effect:none;fill:#4c4c4c;fill-opacity:1;fill-rule:nonzero;stroke:none;stroke-width:0.87388474;stroke-linecap:square;stroke-linejoin:miter;stroke-miterlimit:4;stroke-dasharray:none;stroke-dashoffset:0;stroke-opacity:1;color-rendering:auto;image-rendering:auto;shape-rendering:auto;text-rendering:auto;enable-background:accumulate" />
    </g>
    <g
       aria-label="IKKE KJØP"
       transform="matrix(0.27368701,0,0,0.27368701,-1.3323077,194.58608)"
       style="font-style:normal;font-variant:normal;font-weight:bold;font-stretch:normal;font-size:48px;line-height:1.25;font-family:'Century Gothic';-inkscape-font-specification:'Century Gothic Bold';text-align:center;letter-spacing:0px;word-spacing:0px;text-anchor:middle;fill:#4c4c4c;fill-opacity:1;stroke:none"
       id="flowRoot4759">
      <path
         d="m 23.137041,28.957538 h 6.334636 v 33.518881 h -6.334636 z"
         style="font-size:46.66666794px;fill:#4c4c4c;fill-opacity:1"
         id="path4828" />
      <path
         d="m 36.672198,28.957538 h 6.448568 V 40.487486 L 52.212563,28.957538 H 59.8916 L 48.17936,43.905455 61.030923,62.476419 H 53.465818 L 43.120766,47.596861 v 14.879558 h -6.448568 z"
         style="font-size:46.66666794px;fill:#4c4c4c;fill-opacity:1"
         id="path4830" />
      <path
         d="m 65.656574,28.957538 h 6.448568 v 11.529948 l 9.091797,-11.529948 h 7.679037 L 77.163736,43.905455 90.015298,62.476419 H 82.450194 L 72.105142,47.596861 v 14.879558 h -6.448568 z"
         style="font-size:46.66666794px;fill:#4c4c4c;fill-opacity:1"
         id="path4832" />
      <path
         d="m 94.618159,28.957538 h 18.297531 v 6.24349 h -11.9629 v 6.061198 h 11.9629 v 6.129557 h -11.9629 v 8.81836 h 11.9629 v 6.266276 H 94.618159 Z"
         style="font-size:46.66666794px;fill:#4c4c4c;fill-opacity:1"
         id="path4834" />
      <path
         d="m 131.91959,28.957538 h 6.44857 v 11.529948 l 9.0918,-11.529948 h 7.67904 l -11.71224,14.947917 12.85156,18.570964 h -7.56511 L 138.36816,47.596861 v 14.879558 h -6.44857 z"
         style="font-size:46.66666794px;fill:#4c4c4c;fill-opacity:1"
         id="path4836" />
      <path
         d="m 169.19824,28.957538 h 6.40299 v 22.239584 q 0,5.309245 -0.84309,7.451172 -0.8431,2.141927 -2.77995,3.417969 -1.93685,1.253255 -4.64844,1.253255 -5.53711,0 -9.43359,-4.853516 l 4.60286,-4.30664 q 1.52669,1.731771 2.59766,2.324218 1.07096,0.592448 2.07356,0.592448 1.0254,0 1.5267,-0.865885 0.5013,-0.865886 0.5013,-3.805339 z"
         style="font-size:46.66666794px;fill:#4c4c4c;fill-opacity:1"
         id="path4838" />
      <path
         d="m 212.014,33.970559 q 4.46614,4.990235 4.46614,11.848959 0,7.337239 -5.05859,12.41862 -5.03581,5.08138 -12.21354,5.08138 -5.44597,0 -9.70704,-2.848307 l -3.89648,4.602864 -2.89388,-2.415364 3.89648,-4.602865 q -2.347,-2.392578 -3.64583,-5.605469 -1.29883,-3.212891 -1.29883,-6.744792 0,-4.807942 2.32422,-8.818359 2.32422,-4.033203 6.38021,-6.402995 4.07878,-2.369792 8.75,-2.369792 5.42318,0 10.0944,3.304037 l 3.66862,-4.329428 2.87109,2.369792 z m -21.32813,19.277344 14.49219,-17.067057 q -2.57487,-1.822917 -6.08399,-1.822917 -4.67122,0 -7.83854,3.235677 -3.16732,3.235677 -3.16732,8.225912 0,4.420573 2.59766,7.428385 z m 17.13542,-14.423828 -14.24154,16.816406 q 2.55208,1.503907 5.62826,1.503907 4.51171,0 7.70182,-3.28125 3.1901,-3.28125 3.1901,-8.089193 0,-3.850912 -2.27864,-6.94987 z"
         style="font-size:46.66666794px;fill:#4c4c4c;fill-opacity:1"
         id="path4840" />
      <path
         d="m 222.4502,28.957538 h 6.76758 q 5.49154,0 7.9069,1.025391 2.43815,1.002604 3.82813,3.28125 1.41276,2.255859 1.41276,5.423177 0,3.509115 -1.84571,5.833333 -1.82291,2.324219 -4.96744,3.235678 -1.84571,0.524088 -6.72201,0.524088 v 14.195964 h -6.38021 z m 6.38021,13.102214 h 2.028 q 2.39257,0 3.32682,-0.341797 0.93424,-0.341797 1.45833,-1.116536 0.54688,-0.797527 0.54688,-1.914063 0,-1.936849 -1.50391,-2.825521 -1.09375,-0.660807 -4.05599,-0.660807 h -1.80013 z"
         style="font-size:46.66666794px;fill:#4c4c4c;fill-opacity:1"
         id="path4842" />
    </g>
    <flowRoot
       xml:space="preserve"
       id="flowRoot4781"
       style="fill:black;fill-opacity:1;stroke:none;font-family:'Century Gothic';font-style:normal;font-weight:bold;font-size:16px;line-height:1.25;letter-spacing:0px;word-spacing:0px;-inkscape-font-specification:'Century Gothic Bold';font-stretch:normal;font-variant:normal;text-anchor:middle;text-align:center"><flowRegion
         id="flowRegion4783"><rect
           id="rect4785"
           width="169.22145"
           height="84.27887"
           x="22.202454"
           y="252.76271" /></flowRegion><flowPara
         id="flowPara4787"></flowPara></flowRoot>    <flowRoot
       xml:space="preserve"
       id="flowRoot4789"
       style="fill:black;fill-opacity:1;stroke:none;font-family:'Century Gothic';font-style:normal;font-weight:bold;font-size:16px;line-height:1.25;letter-spacing:0px;word-spacing:0px;-inkscape-font-specification:'Century Gothic Bold';font-stretch:normal;font-variant:normal;text-anchor:middle;text-align:center"><flowRegion
         id="flowRegion4791"><rect
           id="rect4793"
           width="30.236219"
           height="22.223356"
           x="0"
           y="217.3385" /></flowRegion><flowPara
         id="flowPara4795"></flowPara></flowRoot>    <g
       aria-label="Kryptovaluta
er skadelig for banksystemet og kan svekke statsapparatet"
       transform="matrix(0.26458333,0,0,0.26458333,0,196.46546)"
       style="font-style:normal;font-variant:normal;font-weight:bold;font-stretch:normal;font-size:16px;line-height:1.25;font-family:'Century Gothic';-inkscape-font-specification:'Century Gothic, Bold';font-variant-ligatures:normal;font-variant-caps:normal;font-variant-numeric:normal;font-feature-settings:normal;text-align:center;letter-spacing:0px;word-spacing:0px;writing-mode:lr-tb;text-anchor:middle;fill:#4c4c4c;fill-opacity:1;stroke:none"
       id="flowRoot4797">
      <path
         d="m 80.469399,266.08155 h 2.395183 v 4.28255 l 3.376953,-4.28255 h 2.852213 l -4.35026,5.55208 4.773438,6.89779 H 86.70703 l -3.842448,-5.5267 v 5.5267 h -2.395183 z"
         style="font-style:normal;font-variant:normal;font-weight:bold;font-stretch:normal;font-size:17.33333397px;font-family:'Century Gothic';-inkscape-font-specification:'Century Gothic, Bold';font-variant-ligatures:normal;font-variant-caps:normal;font-variant-numeric:normal;font-feature-settings:normal;text-align:center;writing-mode:lr-tb;text-anchor:middle;fill:#4c4c4c;fill-opacity:1"
         id="path4845" />
      <path
         d="m 90.422524,269.32308 h 1.980469 v 1.15951 q 0.321615,-0.68555 0.854818,-1.04102 0.533203,-0.35547 1.167968,-0.35547 0.448568,0 0.939454,0.23698 l -0.719401,1.98893 q -0.40625,-0.20312 -0.66862,-0.20312 -0.533203,0 -0.905599,0.66016 -0.363933,0.66015 -0.363933,2.58984 l 0.0085,0.44857 v 3.72396 h -2.29362 z"
         style="font-style:normal;font-variant:normal;font-weight:bold;font-stretch:normal;font-size:17.33333397px;font-family:'Century Gothic';-inkscape-font-specification:'Century Gothic, Bold';font-variant-ligatures:normal;font-variant-caps:normal;font-variant-numeric:normal;font-feature-settings:normal;text-align:center;writing-mode:lr-tb;text-anchor:middle;fill:#4c4c4c;fill-opacity:1"
         id="path4847" />
      <path
         d="m 95.492186,269.32308 h 2.361328 l 2.395186,5.7806 2.64062,-5.7806 h 2.36979 l -5.772132,12.57683 h -2.386719 l 1.895834,-4.05404 z"
         style="font-style:normal;font-variant:normal;font-weight:bold;font-stretch:normal;font-size:17.33333397px;font-family:'Century Gothic';-inkscape-font-specification:'Century Gothic, Bold';font-variant-ligatures:normal;font-variant-caps:normal;font-variant-numeric:normal;font-feature-settings:normal;text-align:center;writing-mode:lr-tb;text-anchor:middle;fill:#4c4c4c;fill-opacity:1"
         id="path4849" />
      <path
         d="m 108.86458,269.32308 v 1.01563 q 0.6263,-0.6263 1.35417,-0.93946 0.72786,-0.31315 1.55729,-0.31315 1.80274,0 3.0638,1.36263 1.26107,1.36263 1.26107,3.49545 0,2.05664 -1.30338,3.44466 -1.30339,1.37956 -3.0892,1.37956 -0.79557,0 -1.48112,-0.2793 -0.68554,-0.28776 -1.36263,-0.93099 v 4.3418 h -2.29362 v -12.57683 z m 2.42904,1.89584 q -1.0918,0 -1.8112,0.74479 -0.7194,0.74479 -0.7194,1.94661 0,1.22722 0.7194,1.98893 0.7194,0.75326 1.8112,0.75326 1.05794,0 1.77734,-0.77018 0.72787,-0.77019 0.72787,-1.96354 0,-1.1849 -0.71094,-1.93816 -0.71094,-0.76171 -1.79427,-0.76171 z"
         style="font-style:normal;font-variant:normal;font-weight:bold;font-stretch:normal;font-size:17.33333397px;font-family:'Century Gothic';-inkscape-font-specification:'Century Gothic, Bold';font-variant-ligatures:normal;font-variant-caps:normal;font-variant-numeric:normal;font-feature-settings:normal;text-align:center;writing-mode:lr-tb;text-anchor:middle;fill:#4c4c4c;fill-opacity:1"
         id="path4851" />
      <path
         d="m 118.29297,265.9292 h 2.30208 v 3.39388 h 1.3711 v 1.98893 h -1.3711 v 7.21941 h -2.30208 v -7.21941 h -1.1849 v -1.98893 h 1.1849 z"
         style="font-style:normal;font-variant:normal;font-weight:bold;font-stretch:normal;font-size:17.33333397px;font-family:'Century Gothic';-inkscape-font-specification:'Century Gothic, Bold';font-variant-ligatures:normal;font-variant-caps:normal;font-variant-numeric:normal;font-feature-settings:normal;text-align:center;writing-mode:lr-tb;text-anchor:middle;fill:#4c4c4c;fill-opacity:1"
         id="path4853" />
      <path
         d="m 127.55208,269.0861 q 1.30339,0 2.44597,0.6517 1.15104,0.65169 1.79427,1.76888 0.64323,1.11718 0.64323,2.41211 0,1.30338 -0.65169,2.4375 -0.64323,1.13411 -1.76042,1.77734 -1.11719,0.63477 -2.46289,0.63477 -1.98047,0 -3.38542,-1.40495 -1.39648,-1.41341 -1.39648,-3.42774 0,-2.1582 1.58268,-3.597 1.38802,-1.25261 3.19075,-1.25261 z m 0.0339,2.17513 q -1.07487,0 -1.79427,0.75326 -0.71094,0.74479 -0.71094,1.91276 0,1.20182 0.70247,1.94661 0.71094,0.7448 1.79427,0.7448 1.08334,0 1.80274,-0.75326 0.7194,-0.75326 0.7194,-1.93815 0,-1.1849 -0.71094,-1.92123 -0.70247,-0.74479 -1.80273,-0.74479 z"
         style="font-style:normal;font-variant:normal;font-weight:bold;font-stretch:normal;font-size:17.33333397px;font-family:'Century Gothic';-inkscape-font-specification:'Century Gothic, Bold';font-variant-ligatures:normal;font-variant-caps:normal;font-variant-numeric:normal;font-feature-settings:normal;text-align:center;writing-mode:lr-tb;text-anchor:middle;fill:#4c4c4c;fill-opacity:1"
         id="path4855" />
      <path
         d="m 133.34114,269.32308 h 2.35287 l 2.32747,5.4336 2.31901,-5.4336 h 2.3444 l -3.91862,9.20834 h -1.49804 z"
         style="font-style:normal;font-variant:normal;font-weight:bold;font-stretch:normal;font-size:17.33333397px;font-family:'Century Gothic';-inkscape-font-specification:'Century Gothic, Bold';font-variant-ligatures:normal;font-variant-caps:normal;font-variant-numeric:normal;font-feature-settings:normal;text-align:center;writing-mode:lr-tb;text-anchor:middle;fill:#4c4c4c;fill-opacity:1"
         id="path4857" />
      <path
         d="m 150.85221,269.32308 h 2.30209 v 9.20834 h -2.30209 v -0.97331 q -0.67708,0.64323 -1.36263,0.93099 -0.67708,0.2793 -1.47265,0.2793 -1.78581,0 -3.08919,-1.37956 -1.30339,-1.38802 -1.30339,-3.44466 0,-2.13282 1.26107,-3.49545 1.26107,-1.36263 3.0638,-1.36263 0.82943,0 1.55729,0.31315 0.72787,0.31316 1.3457,0.93946 z m -2.42903,1.89584 q -1.07487,0 -1.78581,0.76171 -0.71094,0.75326 -0.71094,1.93816 0,1.19335 0.7194,1.96354 0.72787,0.77018 1.78581,0.77018 1.0918,0 1.8112,-0.75326 0.7194,-0.76171 0.7194,-1.98893 0,-1.20182 -0.7194,-1.94661 -0.7194,-0.74479 -1.81966,-0.74479 z"
         style="font-style:normal;font-variant:normal;font-weight:bold;font-stretch:normal;font-size:17.33333397px;font-family:'Century Gothic';-inkscape-font-specification:'Century Gothic, Bold';font-variant-ligatures:normal;font-variant-caps:normal;font-variant-numeric:normal;font-feature-settings:normal;text-align:center;writing-mode:lr-tb;text-anchor:middle;fill:#4c4c4c;fill-opacity:1"
         id="path4859" />
      <path
         d="m 155.24479,265.76839 h 2.31055 v 12.76303 h -2.31055 z"
         style="font-style:normal;font-variant:normal;font-weight:bold;font-stretch:normal;font-size:17.33333397px;font-family:'Century Gothic';-inkscape-font-specification:'Century Gothic, Bold';font-variant-ligatures:normal;font-variant-caps:normal;font-variant-numeric:normal;font-feature-settings:normal;text-align:center;writing-mode:lr-tb;text-anchor:middle;fill:#4c4c4c;fill-opacity:1"
         id="path4861" />
      <path
         d="m 159.64584,269.32308 h 2.33593 v 4.4349 q 0,1.29492 0.17774,1.80273 0.17773,0.49935 0.56706,0.77865 0.39778,0.2793 0.9733,0.2793 0.57552,0 0.97331,-0.27084 0.40625,-0.27929 0.60091,-0.8125 0.14388,-0.39778 0.14388,-1.70117 v -4.51107 h 2.31901 v 3.9017 q 0,2.4121 -0.38086,3.30078 -0.46549,1.08333 -1.37109,1.66731 -0.9056,0.57553 -2.30208,0.57553 -1.51498,0 -2.45443,-0.67709 -0.93099,-0.67708 -1.31185,-1.88737 -0.27083,-0.83789 -0.27083,-3.04687 z"
         style="font-style:normal;font-variant:normal;font-weight:bold;font-stretch:normal;font-size:17.33333397px;font-family:'Century Gothic';-inkscape-font-specification:'Century Gothic, Bold';font-variant-ligatures:normal;font-variant-caps:normal;font-variant-numeric:normal;font-feature-settings:normal;text-align:center;writing-mode:lr-tb;text-anchor:middle;fill:#4c4c4c;fill-opacity:1"
         id="path4863" />
      <path
         d="m 170.32682,265.9292 h 2.30209 v 3.39388 H 174 v 1.98893 h -1.37109 v 7.21941 h -2.30209 v -7.21941 h -1.18489 v -1.98893 h 1.18489 z"
         style="font-style:normal;font-variant:normal;font-weight:bold;font-stretch:normal;font-size:17.33333397px;font-family:'Century Gothic';-inkscape-font-specification:'Century Gothic, Bold';font-variant-ligatures:normal;font-variant-caps:normal;font-variant-numeric:normal;font-feature-settings:normal;text-align:center;writing-mode:lr-tb;text-anchor:middle;fill:#4c4c4c;fill-opacity:1"
         id="path4865" />
      <path
         d="m 182.06575,269.32308 h 2.30209 v 9.20834 h -2.30209 v -0.97331 q -0.67708,0.64323 -1.36263,0.93099 -0.67708,0.2793 -1.47265,0.2793 -1.78581,0 -3.0892,-1.37956 -1.30338,-1.38802 -1.30338,-3.44466 0,-2.13282 1.26107,-3.49545 1.26106,-1.36263 3.0638,-1.36263 0.82943,0 1.55729,0.31315 0.72786,0.31316 1.3457,0.93946 z m -2.42903,1.89584 q -1.07487,0 -1.78581,0.76171 -0.71094,0.75326 -0.71094,1.93816 0,1.19335 0.7194,1.96354 0.72787,0.77018 1.78581,0.77018 1.0918,0 1.8112,-0.75326 0.7194,-0.76171 0.7194,-1.98893 0,-1.20182 -0.7194,-1.94661 -0.7194,-0.74479 -1.81966,-0.74479 z"
         style="font-style:normal;font-variant:normal;font-weight:bold;font-stretch:normal;font-size:17.33333397px;font-family:'Century Gothic';-inkscape-font-specification:'Century Gothic, Bold';font-variant-ligatures:normal;font-variant-caps:normal;font-variant-numeric:normal;font-feature-settings:normal;text-align:center;writing-mode:lr-tb;text-anchor:middle;fill:#4c4c4c;fill-opacity:1"
         id="path4867" />
      <path
         d="M 83.042316,296.26253 H 75.61979 q 0.160807,0.98177 0.854817,1.56575 0.702474,0.57552 1.785808,0.57552 1.294922,0 2.225911,-0.9056 l 1.946615,0.91406 q -0.727865,1.03256 -1.74349,1.53191 -1.015625,0.49088 -2.412109,0.49088 -2.166667,0 -3.529297,-1.36263 -1.36263,-1.37109 -1.36263,-3.42773 0,-2.10743 1.354166,-3.49545 1.36263,-1.39648 3.410808,-1.39648 2.17513,0 3.53776,1.39648 1.36263,1.38802 1.36263,3.67318 z m -2.319011,-1.81967 q -0.228515,-0.77018 -0.905599,-1.2526 -0.668619,-0.48242 -1.557291,-0.48242 -0.964844,0 -1.692709,0.54166 -0.457031,0.33855 -0.846354,1.19336 z"
         style="font-style:normal;font-variant:normal;font-weight:bold;font-stretch:normal;font-size:17.33333397px;font-family:'Century Gothic';-inkscape-font-specification:'Century Gothic, Bold';font-variant-ligatures:normal;font-variant-caps:normal;font-variant-numeric:normal;font-feature-settings:normal;text-align:center;writing-mode:lr-tb;text-anchor:middle;fill:#4c4c4c;fill-opacity:1"
         id="path4869" />
      <path
         d="m 84.379555,290.98974 h 1.980469 v 1.1595 q 0.321615,-0.68554 0.854818,-1.04101 0.533203,-0.35547 1.167969,-0.35547 0.448568,0 0.939453,0.23698 l -0.719401,1.98893 q -0.40625,-0.20312 -0.66862,-0.20312 -0.533203,0 -0.905599,0.66015 -0.363932,0.66016 -0.363932,2.58985 l 0.0085,0.44856 v 3.72396 h -2.29362 z"
         style="font-style:normal;font-variant:normal;font-weight:bold;font-stretch:normal;font-size:17.33333397px;font-family:'Century Gothic';-inkscape-font-specification:'Century Gothic, Bold';font-variant-ligatures:normal;font-variant-caps:normal;font-variant-numeric:normal;font-feature-settings:normal;text-align:center;writing-mode:lr-tb;text-anchor:middle;fill:#4c4c4c;fill-opacity:1"
         id="path4871" />
      <path
         d="m 100.95117,292.2762 -1.430338,1.43034 q -0.871745,-0.86329 -1.582682,-0.86329 -0.389323,0 -0.609375,0.16928 -0.220052,0.1608 -0.220052,0.40625 0,0.18619 0.135416,0.347 0.14388,0.15234 0.694011,0.42318 l 0.846354,0.42317 q 1.337236,0.66016 1.836586,1.34571 0.49935,0.68554 0.49935,1.60807 0,1.22721 -0.9056,2.04818 -0.897133,0.82096 -2.412107,0.82096 -2.014323,0 -3.216146,-1.57422 l 1.421875,-1.54883 q 0.40625,0.47396 0.947917,0.77019 0.55013,0.28776 0.973307,0.28776 0.457031,0 0.736328,-0.22005 0.279297,-0.22006 0.279297,-0.50782 0,-0.5332 -1.007161,-1.04101 l -0.778646,-0.38933 q -2.234375,-1.12565 -2.234375,-2.81836 0,-1.09179 0.83789,-1.86197 0.846355,-0.77865 2.158204,-0.77865 0.897135,0 1.684244,0.39779 0.795573,0.38932 1.345703,1.12565 z"
         style="font-style:normal;font-variant:normal;font-weight:bold;font-stretch:normal;font-size:17.33333397px;font-family:'Century Gothic';-inkscape-font-specification:'Century Gothic, Bold';font-variant-ligatures:normal;font-variant-caps:normal;font-variant-numeric:normal;font-feature-settings:normal;text-align:center;writing-mode:lr-tb;text-anchor:middle;fill:#4c4c4c;fill-opacity:1"
         id="path4873" />
      <path
         d="m 102.94857,287.43505 h 2.31054 v 7.35482 l 3.40235,-3.80013 h 2.89453 l -3.96094,4.41797 4.44336,4.79036 h -2.86914 l -3.91016,-4.24023 v 4.24023 h -2.31054 z"
         style="font-style:normal;font-variant:normal;font-weight:bold;font-stretch:normal;font-size:17.33333397px;font-family:'Century Gothic';-inkscape-font-specification:'Century Gothic, Bold';font-variant-ligatures:normal;font-variant-caps:normal;font-variant-numeric:normal;font-feature-settings:normal;text-align:center;writing-mode:lr-tb;text-anchor:middle;fill:#4c4c4c;fill-opacity:1"
         id="path4875" />
      <path
         d="m 119.79102,290.98974 h 2.30208 v 9.20833 h -2.30208 v -0.97331 q -0.67709,0.64323 -1.36263,0.93099 -0.67709,0.2793 -1.47266,0.2793 -1.78581,0 -3.08919,-1.37956 -1.30339,-1.38802 -1.30339,-3.44466 0,-2.13281 1.26107,-3.49544 1.26107,-1.36263 3.0638,-1.36263 0.82943,0 1.55729,0.31315 0.72787,0.31315 1.34571,0.93945 z m -2.42904,1.89583 q -1.07487,0 -1.78581,0.76172 -0.71094,0.75326 -0.71094,1.93815 0,1.19336 0.71941,1.96354 0.72786,0.77019 1.7858,0.77019 1.0918,0 1.8112,-0.75326 0.7194,-0.76172 0.7194,-1.98893 0,-1.20182 -0.7194,-1.94662 -0.7194,-0.74479 -1.81966,-0.74479 z"
         style="font-style:normal;font-variant:normal;font-weight:bold;font-stretch:normal;font-size:17.33333397px;font-family:'Century Gothic';-inkscape-font-specification:'Century Gothic, Bold';font-variant-ligatures:normal;font-variant-caps:normal;font-variant-numeric:normal;font-feature-settings:normal;text-align:center;writing-mode:lr-tb;text-anchor:middle;fill:#4c4c4c;fill-opacity:1"
         id="path4877" />
      <path
         d="m 131.23372,287.43505 h 2.30209 v 12.76302 h -2.30209 v -0.97331 q -0.67708,0.64323 -1.36263,0.93099 -0.67708,0.2793 -1.47265,0.2793 -1.78581,0 -3.0892,-1.37956 -1.30338,-1.38802 -1.30338,-3.44466 0,-2.13281 1.26107,-3.49544 1.26106,-1.36263 3.0638,-1.36263 0.82943,0 1.55729,0.31315 0.72786,0.31315 1.3457,0.93945 z m -2.42903,5.45052 q -1.07487,0 -1.78581,0.76172 -0.71094,0.75326 -0.71094,1.93815 0,1.19336 0.7194,1.96354 0.72787,0.77019 1.78581,0.77019 1.0918,0 1.8112,-0.75326 0.7194,-0.76172 0.7194,-1.98893 0,-1.20182 -0.7194,-1.94662 -0.7194,-0.74479 -1.81966,-0.74479 z"
         style="font-style:normal;font-variant:normal;font-weight:bold;font-stretch:normal;font-size:17.33333397px;font-family:'Century Gothic';-inkscape-font-specification:'Century Gothic, Bold';font-variant-ligatures:normal;font-variant-caps:normal;font-variant-numeric:normal;font-feature-settings:normal;text-align:center;writing-mode:lr-tb;text-anchor:middle;fill:#4c4c4c;fill-opacity:1"
         id="path4879" />
      <path
         d="m 145.09701,296.26253 h -7.42253 q 0.16081,0.98177 0.85482,1.56575 0.70247,0.57552 1.78581,0.57552 1.29492,0 2.22591,-0.9056 l 1.94661,0.91406 q -0.72786,1.03256 -1.74349,1.53191 -1.01562,0.49088 -2.41211,0.49088 -2.16666,0 -3.52929,-1.36263 -1.36263,-1.37109 -1.36263,-3.42773 0,-2.10743 1.35416,-3.49545 1.36263,-1.39648 3.41081,-1.39648 2.17513,0 3.53776,1.39648 1.36263,1.38802 1.36263,3.67318 z m -2.31901,-1.81967 q -0.22852,-0.77018 -0.9056,-1.2526 -0.66862,-0.48242 -1.55729,-0.48242 -0.96485,0 -1.69271,0.54166 -0.45703,0.33855 -0.84636,1.19336 z"
         style="font-style:normal;font-variant:normal;font-weight:bold;font-stretch:normal;font-size:17.33333397px;font-family:'Century Gothic';-inkscape-font-specification:'Century Gothic, Bold';font-variant-ligatures:normal;font-variant-caps:normal;font-variant-numeric:normal;font-feature-settings:normal;text-align:center;writing-mode:lr-tb;text-anchor:middle;fill:#4c4c4c;fill-opacity:1"
         id="path4881" />
      <path
         d="m 146.73047,287.43505 h 2.31055 v 12.76302 h -2.31055 z"
         style="font-style:normal;font-variant:normal;font-weight:bold;font-stretch:normal;font-size:17.33333397px;font-family:'Century Gothic';-inkscape-font-specification:'Century Gothic, Bold';font-variant-ligatures:normal;font-variant-caps:normal;font-variant-numeric:normal;font-feature-settings:normal;text-align:center;writing-mode:lr-tb;text-anchor:middle;fill:#4c4c4c;fill-opacity:1"
         id="path4883" />
      <path
         d="m 152.04558,287.19807 q 0.60937,0 1.04101,0.44011 0.44011,0.4401 0.44011,1.0664 0,0.61784 -0.43164,1.05795 -0.43165,0.43164 -1.03256,0.43164 -0.61784,0 -1.05794,-0.44011 -0.43164,-0.44857 -0.43164,-1.08333 0,-0.60938 0.43164,-1.04102 0.43164,-0.43164 1.04102,-0.43164 z m -1.15951,3.79167 h 2.31901 v 9.20833 h -2.31901 z"
         style="font-style:normal;font-variant:normal;font-weight:bold;font-stretch:normal;font-size:17.33333397px;font-family:'Century Gothic';-inkscape-font-specification:'Century Gothic, Bold';font-variant-ligatures:normal;font-variant-caps:normal;font-variant-numeric:normal;font-feature-settings:normal;text-align:center;writing-mode:lr-tb;text-anchor:middle;fill:#4c4c4c;fill-opacity:1"
         id="path4885" />
      <path
         d="m 162.10873,290.98974 h 2.30208 v 7.88802 q 0,2.33594 -0.93945,3.4362 -1.26107,1.48958 -3.80013,1.48958 -1.35417,0 -2.2767,-0.33854 -0.92252,-0.33854 -1.55729,-0.9987 -0.63476,-0.65169 -0.93945,-1.59114 h 2.54753 q 0.33854,0.38932 0.87174,0.58398 0.5332,0.20313 1.26107,0.20313 0.93099,0 1.49805,-0.28777 0.56705,-0.28776 0.79557,-0.74479 0.23698,-0.45703 0.23698,-1.57422 -0.60938,0.60938 -1.278,0.88021 -0.66862,0.26237 -1.51497,0.26237 -1.85352,0 -3.13151,-1.33724 -1.278,-1.33724 -1.278,-3.38541 0,-2.19206 1.35417,-3.52084 1.22721,-1.20182 2.92839,-1.20182 0.79557,0 1.49804,0.29622 0.71094,0.28776 1.42188,0.95638 z m -2.39519,1.92122 q -1.09179,0 -1.80273,0.73633 -0.71094,0.72787 -0.71094,1.83659 0,1.15104 0.72787,1.88737 0.72786,0.73633 1.82812,0.73633 1.07487,0 1.76888,-0.7194 0.70248,-0.7194 0.70248,-1.88737 0,-1.15105 -0.70248,-1.87045 -0.70247,-0.7194 -1.8112,-0.7194 z"
         style="font-style:normal;font-variant:normal;font-weight:bold;font-stretch:normal;font-size:17.33333397px;font-family:'Century Gothic';-inkscape-font-specification:'Century Gothic, Bold';font-variant-ligatures:normal;font-variant-caps:normal;font-variant-numeric:normal;font-feature-settings:normal;text-align:center;writing-mode:lr-tb;text-anchor:middle;fill:#4c4c4c;fill-opacity:1"
         id="path4887" />
      <path
         d="m 170.48763,290.98974 h 0.82096 q 0.008,-1.8112 0.0592,-2.14128 0.0931,-0.76172 0.63476,-1.20182 0.55013,-0.44857 1.54883,-0.44857 0.7194,0 1.625,0.33008 v 1.76042 q -0.49935,-0.14388 -0.82096,-0.14388 -0.40625,0 -0.59245,0.16927 -0.13542,0.12695 -0.13542,0.52474 l -0.008,1.15104 h 1.46419 v 1.96354 h -1.46419 v 7.24479 h -2.31055 v -7.24479 h -0.82096 z"
         style="font-style:normal;font-variant:normal;font-weight:bold;font-stretch:normal;font-size:17.33333397px;font-family:'Century Gothic';-inkscape-font-specification:'Century Gothic, Bold';font-variant-ligatures:normal;font-variant-caps:normal;font-variant-numeric:normal;font-feature-settings:normal;text-align:center;writing-mode:lr-tb;text-anchor:middle;fill:#4c4c4c;fill-opacity:1"
         id="path4889" />
      <path
         d="m 180.75391,290.75276 q 1.30338,0 2.44596,0.65169 1.15104,0.65169 1.79427,1.76888 0.64323,1.11719 0.64323,2.41211 0,1.30339 -0.65169,2.4375 -0.64323,1.13412 -1.76042,1.77735 -1.11718,0.63476 -2.46289,0.63476 -1.98047,0 -3.38541,-1.40495 -1.39649,-1.41341 -1.39649,-3.42773 0,-2.1582 1.58268,-3.59701 1.38802,-1.2526 3.19076,-1.2526 z m 0.0339,2.17513 q -1.07487,0 -1.79427,0.75325 -0.71093,0.7448 -0.71093,1.91277 0,1.20182 0.70247,1.94661 0.71094,0.74479 1.79427,0.74479 1.08333,0 1.80273,-0.75325 0.71941,-0.75326 0.71941,-1.93815 0,-1.1849 -0.71094,-1.92123 -0.70248,-0.74479 -1.80274,-0.74479 z"
         style="font-style:normal;font-variant:normal;font-weight:bold;font-stretch:normal;font-size:17.33333397px;font-family:'Century Gothic';-inkscape-font-specification:'Century Gothic, Bold';font-variant-ligatures:normal;font-variant-caps:normal;font-variant-numeric:normal;font-feature-settings:normal;text-align:center;writing-mode:lr-tb;text-anchor:middle;fill:#4c4c4c;fill-opacity:1"
         id="path4891" />
      <path
         d="m 186.99154,290.98974 h 1.98047 v 1.1595 q 0.32161,-0.68554 0.85481,-1.04101 0.53321,-0.35547 1.16797,-0.35547 0.44857,0 0.93946,0.23698 l -0.71941,1.98893 q -0.40625,-0.20312 -0.66862,-0.20312 -0.5332,0 -0.90559,0.66015 -0.36394,0.66016 -0.36394,2.58985 l 0.008,0.44856 v 3.72396 h -2.29362 z"
         style="font-style:normal;font-variant:normal;font-weight:bold;font-stretch:normal;font-size:17.33333397px;font-family:'Century Gothic';-inkscape-font-specification:'Century Gothic, Bold';font-variant-ligatures:normal;font-variant-caps:normal;font-variant-numeric:normal;font-feature-settings:normal;text-align:center;writing-mode:lr-tb;text-anchor:middle;fill:#4c4c4c;fill-opacity:1"
         id="path4893" />
      <path
         d="m 44.914059,309.10171 v 4.57031 q 0.626302,-0.6263 1.354167,-0.93945 0.727865,-0.31315 1.557292,-0.31315 1.802734,0 3.063802,1.36263 1.261068,1.36263 1.261068,3.49544 0,2.05664 -1.303386,3.44466 -1.303385,1.37956 -3.089193,1.37956 -0.795573,0 -1.481119,-0.2793 -0.685547,-0.28776 -1.362631,-0.93099 v 0.97331 h -2.29362 v -12.76302 z m 2.429037,5.45052 q -1.091797,0 -1.811198,0.74479 -0.719401,0.74479 -0.719401,1.94661 0,1.22722 0.719401,1.98894 0.719401,0.75325 1.811198,0.75325 1.057943,0 1.777344,-0.77018 0.727864,-0.77018 0.727864,-1.96354 0,-1.1849 -0.710937,-1.93815 -0.710938,-0.76172 -1.794271,-0.76172 z"
         style="font-style:normal;font-variant:normal;font-weight:bold;font-stretch:normal;font-size:17.33333397px;font-family:'Century Gothic';-inkscape-font-specification:'Century Gothic, Bold';font-variant-ligatures:normal;font-variant-caps:normal;font-variant-numeric:normal;font-feature-settings:normal;text-align:center;writing-mode:lr-tb;text-anchor:middle;fill:#4c4c4c;fill-opacity:1"
         id="path4895" />
      <path
         d="m 60.867836,312.6564 h 2.302084 v 9.20833 h -2.302084 v -0.97331 q -0.677083,0.64323 -1.36263,0.93099 -0.677083,0.2793 -1.472656,0.2793 -1.785808,0 -3.089193,-1.37956 -1.303386,-1.38802 -1.303386,-3.44466 0,-2.13281 1.261068,-3.49544 1.261068,-1.36263 3.063802,-1.36263 0.829427,0 1.557292,0.31315 0.727865,0.31315 1.345703,0.93945 z m -2.429036,1.89583 q -1.07487,0 -1.785808,0.76172 -0.710937,0.75325 -0.710937,1.93815 0,1.19336 0.719401,1.96354 0.727864,0.77018 1.785807,0.77018 1.091797,0 1.811198,-0.75325 0.719401,-0.76172 0.719401,-1.98894 0,-1.20182 -0.719401,-1.94661 -0.719401,-0.74479 -1.819661,-0.74479 z"
         style="font-style:normal;font-variant:normal;font-weight:bold;font-stretch:normal;font-size:17.33333397px;font-family:'Century Gothic';-inkscape-font-specification:'Century Gothic, Bold';font-variant-ligatures:normal;font-variant-caps:normal;font-variant-numeric:normal;font-feature-settings:normal;text-align:center;writing-mode:lr-tb;text-anchor:middle;fill:#4c4c4c;fill-opacity:1"
         id="path4897" />
      <path
         d="m 65.505857,312.6564 h 2.302084 v 0.93945 q 0.787109,-0.66016 1.421875,-0.91406 0.643229,-0.26237 1.311849,-0.26237 1.371094,0 2.327474,0.95638 0.804036,0.8125 0.804036,2.40364 v 6.08529 h -2.285156 v -4.03711 q 0,-1.65039 -0.152344,-2.19206 -0.14388,-0.54166 -0.516276,-0.82096 -0.363932,-0.28776 -0.905599,-0.28776 -0.702474,0 -1.210286,0.47396 -0.499349,0.46549 -0.694011,1.29492 -0.101562,0.43164 -0.101562,1.87044 v 3.69857 h -2.302084 z"
         style="font-style:normal;font-variant:normal;font-weight:bold;font-stretch:normal;font-size:17.33333397px;font-family:'Century Gothic';-inkscape-font-specification:'Century Gothic, Bold';font-variant-ligatures:normal;font-variant-caps:normal;font-variant-numeric:normal;font-feature-settings:normal;text-align:center;writing-mode:lr-tb;text-anchor:middle;fill:#4c4c4c;fill-opacity:1"
         id="path4899" />
      <path
         d="m 75.916015,309.10171 h 2.310547 v 7.35482 l 3.402344,-3.80013 h 2.894531 l -3.960938,4.41796 4.44336,4.79037 h -2.869141 l -3.910156,-4.24024 v 4.24024 h -2.310547 z"
         style="font-style:normal;font-variant:normal;font-weight:bold;font-stretch:normal;font-size:17.33333397px;font-family:'Century Gothic';-inkscape-font-specification:'Century Gothic, Bold';font-variant-ligatures:normal;font-variant-caps:normal;font-variant-numeric:normal;font-feature-settings:normal;text-align:center;writing-mode:lr-tb;text-anchor:middle;fill:#4c4c4c;fill-opacity:1"
         id="path4901" />
      <path
         d="m 91.590494,313.94285 -1.430338,1.43034 q -0.871745,-0.86328 -1.582683,-0.86328 -0.389323,0 -0.609375,0.16927 -0.220052,0.16081 -0.220052,0.40625 0,0.1862 0.135417,0.34701 0.14388,0.15234 0.69401,0.42317 l 0.846355,0.42318 q 1.337239,0.66016 1.836588,1.3457 0.499349,0.68555 0.499349,1.60808 0,1.22721 -0.905599,2.04817 -0.897135,0.82097 -2.412109,0.82097 -2.014323,0 -3.216146,-1.57422 l 1.421875,-1.54883 q 0.40625,0.47396 0.947916,0.77018 0.550131,0.28776 0.973308,0.28776 0.457031,0 0.736328,-0.22005 0.279297,-0.22005 0.279297,-0.50781 0,-0.5332 -1.007162,-1.04102 l -0.778646,-0.38932 q -2.234375,-1.12565 -2.234375,-2.81836 0,-1.0918 0.837891,-1.86198 0.846354,-0.77864 2.158203,-0.77864 0.897136,0 1.684245,0.39778 0.795573,0.38933 1.345703,1.12565 z"
         style="font-style:normal;font-variant:normal;font-weight:bold;font-stretch:normal;font-size:17.33333397px;font-family:'Century Gothic';-inkscape-font-specification:'Century Gothic, Bold';font-variant-ligatures:normal;font-variant-caps:normal;font-variant-numeric:normal;font-feature-settings:normal;text-align:center;writing-mode:lr-tb;text-anchor:middle;fill:#4c4c4c;fill-opacity:1"
         id="path4903" />
      <path
         d="m 92.546874,312.6564 h 2.361328 l 2.395183,5.78059 2.640625,-5.78059 h 2.36979 l -5.772134,12.57682 h -2.386719 l 1.895834,-4.05404 z"
         style="font-style:normal;font-variant:normal;font-weight:bold;font-stretch:normal;font-size:17.33333397px;font-family:'Century Gothic';-inkscape-font-specification:'Century Gothic, Bold';font-variant-ligatures:normal;font-variant-caps:normal;font-variant-numeric:normal;font-feature-settings:normal;text-align:center;writing-mode:lr-tb;text-anchor:middle;fill:#4c4c4c;fill-opacity:1"
         id="path4905" />
      <path
         d="m 109.26237,313.94285 -1.43034,1.43034 q -0.87174,-0.86328 -1.58268,-0.86328 -0.38932,0 -0.60938,0.16927 -0.22005,0.16081 -0.22005,0.40625 0,0.1862 0.13542,0.34701 0.14388,0.15234 0.69401,0.42317 l 0.84635,0.42318 q 1.33724,0.66016 1.83659,1.3457 0.49935,0.68555 0.49935,1.60808 0,1.22721 -0.9056,2.04817 -0.89713,0.82097 -2.41211,0.82097 -2.01432,0 -3.21614,-1.57422 l 1.42187,-1.54883 q 0.40625,0.47396 0.94792,0.77018 0.55013,0.28776 0.9733,0.28776 0.45704,0 0.73633,-0.22005 0.2793,-0.22005 0.2793,-0.50781 0,-0.5332 -1.00716,-1.04102 l -0.77865,-0.38932 q -2.23437,-1.12565 -2.23437,-2.81836 0,-1.0918 0.83789,-1.86198 0.84635,-0.77864 2.1582,-0.77864 0.89714,0 1.68425,0.39778 0.79557,0.38933 1.3457,1.12565 z"
         style="font-style:normal;font-variant:normal;font-weight:bold;font-stretch:normal;font-size:17.33333397px;font-family:'Century Gothic';-inkscape-font-specification:'Century Gothic, Bold';font-variant-ligatures:normal;font-variant-caps:normal;font-variant-numeric:normal;font-feature-settings:normal;text-align:center;writing-mode:lr-tb;text-anchor:middle;fill:#4c4c4c;fill-opacity:1"
         id="path4907" />
      <path
         d="m 111.52213,309.26251 h 2.30209 v 3.39389 h 1.37109 v 1.98893 h -1.37109 v 7.2194 h -2.30209 v -7.2194 h -1.18489 v -1.98893 h 1.18489 z"
         style="font-style:normal;font-variant:normal;font-weight:bold;font-stretch:normal;font-size:17.33333397px;font-family:'Century Gothic';-inkscape-font-specification:'Century Gothic, Bold';font-variant-ligatures:normal;font-variant-caps:normal;font-variant-numeric:normal;font-feature-settings:normal;text-align:center;writing-mode:lr-tb;text-anchor:middle;fill:#4c4c4c;fill-opacity:1"
         id="path4909" />
      <path
         d="m 125.68164,317.92918 h -7.42253 q 0.16081,0.98177 0.85482,1.56576 0.70247,0.57552 1.78581,0.57552 1.29492,0 2.22591,-0.9056 l 1.94661,0.91406 q -0.72786,1.03255 -1.74349,1.5319 -1.01562,0.49089 -2.41211,0.49089 -2.16666,0 -3.52929,-1.36263 -1.36263,-1.3711 -1.36263,-3.42774 0,-2.10742 1.35416,-3.49544 1.36263,-1.39648 3.41081,-1.39648 2.17513,0 3.53776,1.39648 1.36263,1.38802 1.36263,3.67318 z m -2.31901,-1.81966 q -0.22852,-0.77018 -0.9056,-1.2526 -0.66862,-0.48243 -1.55729,-0.48243 -0.96485,0 -1.69271,0.54167 -0.45703,0.33854 -0.84636,1.19336 z"
         style="font-style:normal;font-variant:normal;font-weight:bold;font-stretch:normal;font-size:17.33333397px;font-family:'Century Gothic';-inkscape-font-specification:'Century Gothic, Bold';font-variant-ligatures:normal;font-variant-caps:normal;font-variant-numeric:normal;font-feature-settings:normal;text-align:center;writing-mode:lr-tb;text-anchor:middle;fill:#4c4c4c;fill-opacity:1"
         id="path4911" />
      <path
         d="m 127.54362,312.6564 h 2.31901 v 1.05794 q 0.59245,-0.65169 1.31185,-0.97331 0.72787,-0.32161 1.58268,-0.32161 0.86328,0 1.5573,0.42317 0.69401,0.42318 1.11718,1.23568 0.55013,-0.8125 1.34571,-1.23568 0.80403,-0.42317 1.75195,-0.42317 0.98177,0 1.72656,0.45703 0.74479,0.45703 1.06641,1.19336 0.33008,0.73632 0.33008,2.39518 v 5.39974 h -2.32748 v -4.67188 q 0,-1.56575 -0.38932,-2.11588 -0.38932,-0.5586 -1.16797,-0.5586 -0.59245,0 -1.06641,0.33855 -0.46549,0.33854 -0.69401,0.93945 -0.22851,0.59245 -0.22851,1.91276 v 4.1556 h -2.32748 v -4.46029 q 0,-1.23567 -0.18619,-1.78581 -0.17774,-0.55859 -0.54167,-0.82942 -0.36393,-0.27084 -0.88021,-0.27084 -0.57552,0 -1.04948,0.34701 -0.46549,0.33854 -0.70247,0.95638 -0.22852,0.61784 -0.22852,1.94661 v 4.09636 h -2.31901 z"
         style="font-style:normal;font-variant:normal;font-weight:bold;font-stretch:normal;font-size:17.33333397px;font-family:'Century Gothic';-inkscape-font-specification:'Century Gothic, Bold';font-variant-ligatures:normal;font-variant-caps:normal;font-variant-numeric:normal;font-feature-settings:normal;text-align:center;writing-mode:lr-tb;text-anchor:middle;fill:#4c4c4c;fill-opacity:1"
         id="path4913" />
      <path
         d="m 153.06966,317.92918 h -7.42253 q 0.16081,0.98177 0.85482,1.56576 0.70248,0.57552 1.78581,0.57552 1.29492,0 2.22591,-0.9056 l 1.94662,0.91406 q -0.72787,1.03255 -1.74349,1.5319 -1.01563,0.49089 -2.41211,0.49089 -2.16667,0 -3.5293,-1.36263 -1.36263,-1.3711 -1.36263,-3.42774 0,-2.10742 1.35417,-3.49544 1.36263,-1.39648 3.4108,-1.39648 2.17513,0 3.53776,1.39648 1.36263,1.38802 1.36263,3.67318 z m -2.31901,-1.81966 q -0.22852,-0.77018 -0.9056,-1.2526 -0.66862,-0.48243 -1.55729,-0.48243 -0.96484,0 -1.69271,0.54167 -0.45703,0.33854 -0.84635,1.19336 z"
         style="font-style:normal;font-variant:normal;font-weight:bold;font-stretch:normal;font-size:17.33333397px;font-family:'Century Gothic';-inkscape-font-specification:'Century Gothic, Bold';font-variant-ligatures:normal;font-variant-caps:normal;font-variant-numeric:normal;font-feature-settings:normal;text-align:center;writing-mode:lr-tb;text-anchor:middle;fill:#4c4c4c;fill-opacity:1"
         id="path4915" />
      <path
         d="m 155.22787,309.26251 h 2.30208 v 3.39389 h 1.3711 v 1.98893 h -1.3711 v 7.2194 h -2.30208 v -7.2194 h -1.1849 v -1.98893 h 1.1849 z"
         style="font-style:normal;font-variant:normal;font-weight:bold;font-stretch:normal;font-size:17.33333397px;font-family:'Century Gothic';-inkscape-font-specification:'Century Gothic, Bold';font-variant-ligatures:normal;font-variant-caps:normal;font-variant-numeric:normal;font-feature-settings:normal;text-align:center;writing-mode:lr-tb;text-anchor:middle;fill:#4c4c4c;fill-opacity:1"
         id="path4917" />
      <path
         d="m 169.32813,312.41942 q 1.30338,0 2.44596,0.65169 1.15104,0.65169 1.79427,1.76888 0.64323,1.11719 0.64323,2.41211 0,1.30338 -0.65169,2.4375 -0.64323,1.13411 -1.76042,1.77734 -1.11718,0.63477 -2.46289,0.63477 -1.98047,0 -3.38541,-1.40495 -1.39649,-1.41341 -1.39649,-3.42773 0,-2.15821 1.58268,-3.59701 1.38803,-1.2526 3.19076,-1.2526 z m 0.0339,2.17513 q -1.07487,0 -1.79427,0.75325 -0.71093,0.74479 -0.71093,1.91276 0,1.20182 0.70247,1.94662 0.71094,0.74479 1.79427,0.74479 1.08333,0 1.80273,-0.75326 0.71941,-0.75325 0.71941,-1.93815 0,-1.18489 -0.71094,-1.92122 -0.70248,-0.74479 -1.80274,-0.74479 z"
         style="font-style:normal;font-variant:normal;font-weight:bold;font-stretch:normal;font-size:17.33333397px;font-family:'Century Gothic';-inkscape-font-specification:'Century Gothic, Bold';font-variant-ligatures:normal;font-variant-caps:normal;font-variant-numeric:normal;font-feature-settings:normal;text-align:center;writing-mode:lr-tb;text-anchor:middle;fill:#4c4c4c;fill-opacity:1"
         id="path4919" />
      <path
         d="m 182.91211,312.6564 h 2.30208 v 7.88802 q 0,2.33593 -0.93945,3.43619 -1.26107,1.48959 -3.80013,1.48959 -1.35417,0 -2.27669,-0.33854 -0.92253,-0.33855 -1.55729,-0.9987 -0.63477,-0.65169 -0.93946,-1.59115 h 2.54753 q 0.33854,0.38933 0.87174,0.58399 0.53321,0.20312 1.26107,0.20312 0.93099,0 1.49805,-0.28776 0.56706,-0.28776 0.79557,-0.74479 0.23698,-0.45703 0.23698,-1.57422 -0.60937,0.60938 -1.27799,0.88021 -0.66862,0.26237 -1.51498,0.26237 -1.85351,0 -3.13151,-1.33724 -1.27799,-1.33724 -1.27799,-3.38542 0,-2.19205 1.35416,-3.52083 1.22722,-1.20182 2.92839,-1.20182 0.79557,0 1.49805,0.29622 0.71093,0.28776 1.42187,0.95638 z m -2.39518,1.92122 q -1.0918,0 -1.80274,0.73633 -0.71093,0.72786 -0.71093,1.83659 0,1.15104 0.72786,1.88737 0.72787,0.73632 1.82813,0.73632 1.07487,0 1.76888,-0.7194 0.70247,-0.7194 0.70247,-1.88737 0,-1.15104 -0.70247,-1.87044 -0.70248,-0.7194 -1.8112,-0.7194 z"
         style="font-style:normal;font-variant:normal;font-weight:bold;font-stretch:normal;font-size:17.33333397px;font-family:'Century Gothic';-inkscape-font-specification:'Century Gothic, Bold';font-variant-ligatures:normal;font-variant-caps:normal;font-variant-numeric:normal;font-feature-settings:normal;text-align:center;writing-mode:lr-tb;text-anchor:middle;fill:#4c4c4c;fill-opacity:1"
         id="path4921" />
      <path
         d="m 192.40821,309.10171 h 2.31055 v 7.35482 l 3.40234,-3.80013 h 2.89453 l -3.96094,4.41796 4.44336,4.79037 h -2.86914 l -3.91015,-4.24024 v 4.24024 h -2.31055 z"
         style="font-style:normal;font-variant:normal;font-weight:bold;font-stretch:normal;font-size:17.33333397px;font-family:'Century Gothic';-inkscape-font-specification:'Century Gothic, Bold';font-variant-ligatures:normal;font-variant-caps:normal;font-variant-numeric:normal;font-feature-settings:normal;text-align:center;writing-mode:lr-tb;text-anchor:middle;fill:#4c4c4c;fill-opacity:1"
         id="path4923" />
      <path
         d="m 209.25066,312.6564 h 2.30208 v 9.20833 h -2.30208 v -0.97331 q -0.67709,0.64323 -1.36263,0.93099 -0.67709,0.2793 -1.47266,0.2793 -1.78581,0 -3.08919,-1.37956 -1.30339,-1.38802 -1.30339,-3.44466 0,-2.13281 1.26107,-3.49544 1.26107,-1.36263 3.0638,-1.36263 0.82943,0 1.5573,0.31315 0.72786,0.31315 1.3457,0.93945 z m -2.42904,1.89583 q -1.07487,0 -1.78581,0.76172 -0.71093,0.75325 -0.71093,1.93815 0,1.19336 0.7194,1.96354 0.72786,0.77018 1.78581,0.77018 1.09179,0 1.81119,-0.75325 0.7194,-0.76172 0.7194,-1.98894 0,-1.20182 -0.7194,-1.94661 -0.7194,-0.74479 -1.81966,-0.74479 z"
         style="font-style:normal;font-variant:normal;font-weight:bold;font-stretch:normal;font-size:17.33333397px;font-family:'Century Gothic';-inkscape-font-specification:'Century Gothic, Bold';font-variant-ligatures:normal;font-variant-caps:normal;font-variant-numeric:normal;font-feature-settings:normal;text-align:center;writing-mode:lr-tb;text-anchor:middle;fill:#4c4c4c;fill-opacity:1"
         id="path4925" />
      <path
         d="m 213.88867,312.6564 h 2.30209 v 0.93945 q 0.78711,-0.66016 1.42187,-0.91406 0.64323,-0.26237 1.31185,-0.26237 1.37109,0 2.32748,0.95638 0.80403,0.8125 0.80403,2.40364 v 6.08529 h -2.28515 v -4.03711 q 0,-1.65039 -0.15235,-2.19206 -0.14388,-0.54166 -0.51627,-0.82096 -0.36394,-0.28776 -0.9056,-0.28776 -0.70248,0 -1.21029,0.47396 -0.49935,0.46549 -0.69401,1.29492 -0.10156,0.43164 -0.10156,1.87044 v 3.69857 h -2.30209 z"
         style="font-style:normal;font-variant:normal;font-weight:bold;font-stretch:normal;font-size:17.33333397px;font-family:'Century Gothic';-inkscape-font-specification:'Century Gothic, Bold';font-variant-ligatures:normal;font-variant-caps:normal;font-variant-numeric:normal;font-feature-settings:normal;text-align:center;writing-mode:lr-tb;text-anchor:middle;fill:#4c4c4c;fill-opacity:1"
         id="path4927" />
      <path
         d="m 46.141273,335.60951 -1.430339,1.43034 q -0.871745,-0.86328 -1.582682,-0.86328 -0.389323,0 -0.609375,0.16927 -0.220052,0.16081 -0.220052,0.40625 0,0.1862 0.135416,0.347 0.143881,0.15235 0.694011,0.42318 l 0.846354,0.42318 q 1.33724,0.66015 1.836589,1.3457 0.499349,0.68555 0.499349,1.60807 0,1.22722 -0.905599,2.04818 -0.897136,0.82096 -2.41211,0.82096 -2.014323,0 -3.216146,-1.57421 l 1.421875,-1.54883 q 0.40625,0.47396 0.947917,0.77018 0.55013,0.28776 0.973307,0.28776 0.457032,0 0.736329,-0.22005 0.279296,-0.22005 0.279296,-0.50781 0,-0.53321 -1.007161,-1.04102 l -0.778646,-0.38932 q -2.234375,-1.12565 -2.234375,-2.81836 0,-1.0918 0.837891,-1.86198 0.846354,-0.77865 2.158203,-0.77865 0.897135,0 1.684245,0.39779 0.795573,0.38932 1.345703,1.12565 z"
         style="font-style:normal;font-variant:normal;font-weight:bold;font-stretch:normal;font-size:17.33333397px;font-family:'Century Gothic';-inkscape-font-specification:'Century Gothic, Bold';font-variant-ligatures:normal;font-variant-caps:normal;font-variant-numeric:normal;font-feature-settings:normal;text-align:center;writing-mode:lr-tb;text-anchor:middle;fill:#4c4c4c;fill-opacity:1"
         id="path4929" />
      <path
         d="m 47.131507,334.32305 h 2.352865 l 2.327474,5.4336 2.319011,-5.4336 h 2.344401 l -3.91862,9.20834 h -1.498047 z"
         style="font-style:normal;font-variant:normal;font-weight:bold;font-stretch:normal;font-size:17.33333397px;font-family:'Century Gothic';-inkscape-font-specification:'Century Gothic, Bold';font-variant-ligatures:normal;font-variant-caps:normal;font-variant-numeric:normal;font-feature-settings:normal;text-align:center;writing-mode:lr-tb;text-anchor:middle;fill:#4c4c4c;fill-opacity:1"
         id="path4931" />
      <path
         d="m 67.063149,339.59584 h -7.422527 q 0.160808,0.98177 0.854818,1.56575 0.702474,0.57552 1.785807,0.57552 1.294922,0 2.225912,-0.90559 l 1.946615,0.91406 q -0.727865,1.03255 -1.74349,1.5319 -1.015625,0.49088 -2.412109,0.49088 -2.166667,0 -3.529297,-1.36263 -1.362631,-1.37109 -1.362631,-3.42773 0,-2.10742 1.354167,-3.49544 1.36263,-1.39649 3.410807,-1.39649 2.175131,0 3.537761,1.39649 1.36263,1.38802 1.36263,3.67317 z m -2.319011,-1.81966 q -0.228515,-0.77019 -0.905599,-1.25261 -0.66862,-0.48242 -1.557292,-0.48242 -0.964843,0 -1.692708,0.54167 -0.457031,0.33854 -0.846354,1.19336 z"
         style="font-style:normal;font-variant:normal;font-weight:bold;font-stretch:normal;font-size:17.33333397px;font-family:'Century Gothic';-inkscape-font-specification:'Century Gothic, Bold';font-variant-ligatures:normal;font-variant-caps:normal;font-variant-numeric:normal;font-feature-settings:normal;text-align:center;writing-mode:lr-tb;text-anchor:middle;fill:#4c4c4c;fill-opacity:1"
         id="path4933" />
      <path
         d="m 68.958983,330.76836 h 2.310547 v 7.35482 l 3.402344,-3.80013 h 2.894531 l -3.960938,4.41797 4.44336,4.79037 h -2.869141 l -3.910156,-4.24024 v 4.24024 h -2.310547 z"
         style="font-style:normal;font-variant:normal;font-weight:bold;font-stretch:normal;font-size:17.33333397px;font-family:'Century Gothic';-inkscape-font-specification:'Century Gothic, Bold';font-variant-ligatures:normal;font-variant-caps:normal;font-variant-numeric:normal;font-feature-settings:normal;text-align:center;writing-mode:lr-tb;text-anchor:middle;fill:#4c4c4c;fill-opacity:1"
         id="path4935" />
      <path
         d="m 79.013669,330.76836 h 2.310546 v 7.35482 l 3.402344,-3.80013 h 2.894532 l -3.960938,4.41797 4.44336,4.79037 h -2.869141 l -3.910157,-4.24024 v 4.24024 h -2.310546 z"
         style="font-style:normal;font-variant:normal;font-weight:bold;font-stretch:normal;font-size:17.33333397px;font-family:'Century Gothic';-inkscape-font-specification:'Century Gothic, Bold';font-variant-ligatures:normal;font-variant-caps:normal;font-variant-numeric:normal;font-feature-settings:normal;text-align:center;writing-mode:lr-tb;text-anchor:middle;fill:#4c4c4c;fill-opacity:1"
         id="path4937" />
      <path
         d="m 98.27669,339.59584 h -7.422527 q 0.160808,0.98177 0.854818,1.56575 0.702474,0.57552 1.785807,0.57552 1.294922,0 2.225912,-0.90559 l 1.946615,0.91406 q -0.727865,1.03255 -1.74349,1.5319 -1.015625,0.49088 -2.412109,0.49088 -2.166667,0 -3.529297,-1.36263 -1.362631,-1.37109 -1.362631,-3.42773 0,-2.10742 1.354167,-3.49544 1.36263,-1.39649 3.410807,-1.39649 2.175131,0 3.537761,1.39649 1.36263,1.38802 1.36263,3.67317 z m -2.319011,-1.81966 q -0.228515,-0.77019 -0.905599,-1.25261 -0.66862,-0.48242 -1.557292,-0.48242 -0.964843,0 -1.692708,0.54167 -0.457031,0.33854 -0.846354,1.19336 z"
         style="font-style:normal;font-variant:normal;font-weight:bold;font-stretch:normal;font-size:17.33333397px;font-family:'Century Gothic';-inkscape-font-specification:'Century Gothic, Bold';font-variant-ligatures:normal;font-variant-caps:normal;font-variant-numeric:normal;font-feature-settings:normal;text-align:center;writing-mode:lr-tb;text-anchor:middle;fill:#4c4c4c;fill-opacity:1"
         id="path4939" />
      <path
         d="m 110.63346,335.60951 -1.43034,1.43034 q -0.87174,-0.86328 -1.58268,-0.86328 -0.38932,0 -0.60938,0.16927 -0.22005,0.16081 -0.22005,0.40625 0,0.1862 0.13542,0.347 0.14388,0.15235 0.69401,0.42318 l 0.84635,0.42318 q 1.33724,0.66015 1.83659,1.3457 0.49935,0.68555 0.49935,1.60807 0,1.22722 -0.9056,2.04818 -0.89713,0.82096 -2.41211,0.82096 -2.01432,0 -3.21614,-1.57421 l 1.42187,-1.54883 q 0.40625,0.47396 0.94792,0.77018 0.55013,0.28776 0.97331,0.28776 0.45703,0 0.73632,-0.22005 0.2793,-0.22005 0.2793,-0.50781 0,-0.53321 -1.00716,-1.04102 l -0.77865,-0.38932 q -2.23437,-1.12565 -2.23437,-2.81836 0,-1.0918 0.83789,-1.86198 0.84635,-0.77865 2.1582,-0.77865 0.89714,0 1.68425,0.39779 0.79557,0.38932 1.3457,1.12565 z"
         style="font-style:normal;font-variant:normal;font-weight:bold;font-stretch:normal;font-size:17.33333397px;font-family:'Century Gothic';-inkscape-font-specification:'Century Gothic, Bold';font-variant-ligatures:normal;font-variant-caps:normal;font-variant-numeric:normal;font-feature-settings:normal;text-align:center;writing-mode:lr-tb;text-anchor:middle;fill:#4c4c4c;fill-opacity:1"
         id="path4941" />
      <path
         d="m 112.89323,330.92917 h 2.30208 v 3.39388 h 1.37109 v 1.98893 h -1.37109 v 7.21941 h -2.30208 v -7.21941 h -1.1849 v -1.98893 h 1.1849 z"
         style="font-style:normal;font-variant:normal;font-weight:bold;font-stretch:normal;font-size:17.33333397px;font-family:'Century Gothic';-inkscape-font-specification:'Century Gothic, Bold';font-variant-ligatures:normal;font-variant-caps:normal;font-variant-numeric:normal;font-feature-settings:normal;text-align:center;writing-mode:lr-tb;text-anchor:middle;fill:#4c4c4c;fill-opacity:1"
         id="path4943" />
      <path
         d="m 124.63216,334.32305 h 2.30209 v 9.20834 h -2.30209 v -0.97331 q -0.67708,0.64323 -1.36263,0.93099 -0.67708,0.27929 -1.47265,0.27929 -1.78581,0 -3.0892,-1.37955 -1.30338,-1.38802 -1.30338,-3.44466 0,-2.13282 1.26107,-3.49545 1.26106,-1.36263 3.0638,-1.36263 0.82943,0 1.55729,0.31315 0.72786,0.31315 1.3457,0.93946 z m -2.42903,1.89584 q -1.07487,0 -1.78581,0.76171 -0.71094,0.75326 -0.71094,1.93815 0,1.19336 0.7194,1.96355 0.72787,0.77018 1.78581,0.77018 1.0918,0 1.8112,-0.75326 0.7194,-0.76172 0.7194,-1.98893 0,-1.20182 -0.7194,-1.94661 -0.7194,-0.74479 -1.81966,-0.74479 z"
         style="font-style:normal;font-variant:normal;font-weight:bold;font-stretch:normal;font-size:17.33333397px;font-family:'Century Gothic';-inkscape-font-specification:'Century Gothic, Bold';font-variant-ligatures:normal;font-variant-caps:normal;font-variant-numeric:normal;font-feature-settings:normal;text-align:center;writing-mode:lr-tb;text-anchor:middle;fill:#4c4c4c;fill-opacity:1"
         id="path4945" />
      <path
         d="m 129.54948,330.92917 h 2.30208 v 3.39388 h 1.37109 v 1.98893 h -1.37109 v 7.21941 h -2.30208 v -7.21941 h -1.1849 v -1.98893 h 1.1849 z"
         style="font-style:normal;font-variant:normal;font-weight:bold;font-stretch:normal;font-size:17.33333397px;font-family:'Century Gothic';-inkscape-font-specification:'Century Gothic, Bold';font-variant-ligatures:normal;font-variant-caps:normal;font-variant-numeric:normal;font-feature-settings:normal;text-align:center;writing-mode:lr-tb;text-anchor:middle;fill:#4c4c4c;fill-opacity:1"
         id="path4947" />
      <path
         d="m 140.12044,335.60951 -1.43033,1.43034 q -0.87175,-0.86328 -1.58269,-0.86328 -0.38932,0 -0.60937,0.16927 -0.22005,0.16081 -0.22005,0.40625 0,0.1862 0.13541,0.347 0.14388,0.15235 0.69401,0.42318 l 0.84636,0.42318 q 1.33724,0.66015 1.83659,1.3457 0.49935,0.68555 0.49935,1.60807 0,1.22722 -0.9056,2.04818 -0.89714,0.82096 -2.41211,0.82096 -2.01433,0 -3.21615,-1.57421 l 1.42188,-1.54883 q 0.40625,0.47396 0.94791,0.77018 0.55013,0.28776 0.97331,0.28776 0.45703,0 0.73633,-0.22005 0.2793,-0.22005 0.2793,-0.50781 0,-0.53321 -1.00717,-1.04102 l -0.77864,-0.38932 q -2.23438,-1.12565 -2.23438,-2.81836 0,-1.0918 0.83789,-1.86198 0.84636,-0.77865 2.15821,-0.77865 0.89713,0 1.68424,0.39779 0.79557,0.38932 1.3457,1.12565 z"
         style="font-style:normal;font-variant:normal;font-weight:bold;font-stretch:normal;font-size:17.33333397px;font-family:'Century Gothic';-inkscape-font-specification:'Century Gothic, Bold';font-variant-ligatures:normal;font-variant-caps:normal;font-variant-numeric:normal;font-feature-settings:normal;text-align:center;writing-mode:lr-tb;text-anchor:middle;fill:#4c4c4c;fill-opacity:1"
         id="path4949" />
      <path
         d="m 148.9056,334.32305 h 2.30208 v 9.20834 h -2.30208 v -0.97331 q -0.67708,0.64323 -1.36263,0.93099 -0.67708,0.27929 -1.47266,0.27929 -1.7858,0 -3.08919,-1.37955 -1.30338,-1.38802 -1.30338,-3.44466 0,-2.13282 1.26106,-3.49545 1.26107,-1.36263 3.06381,-1.36263 0.82942,0 1.55729,0.31315 0.72786,0.31315 1.3457,0.93946 z m -2.42904,1.89584 q -1.07487,0 -1.7858,0.76171 -0.71094,0.75326 -0.71094,1.93815 0,1.19336 0.7194,1.96355 0.72787,0.77018 1.78581,0.77018 1.09179,0 1.8112,-0.75326 0.7194,-0.76172 0.7194,-1.98893 0,-1.20182 -0.7194,-1.94661 -0.71941,-0.74479 -1.81967,-0.74479 z"
         style="font-style:normal;font-variant:normal;font-weight:bold;font-stretch:normal;font-size:17.33333397px;font-family:'Century Gothic';-inkscape-font-specification:'Century Gothic, Bold';font-variant-ligatures:normal;font-variant-caps:normal;font-variant-numeric:normal;font-feature-settings:normal;text-align:center;writing-mode:lr-tb;text-anchor:middle;fill:#4c4c4c;fill-opacity:1"
         id="path4951" />
      <path
         d="m 155.83724,334.32305 v 1.01563 q 0.62631,-0.62631 1.35417,-0.93946 0.72787,-0.31315 1.55729,-0.31315 1.80274,0 3.0638,1.36263 1.26107,1.36263 1.26107,3.49545 0,2.05664 -1.30338,3.44466 -1.30339,1.37955 -3.0892,1.37955 -0.79557,0 -1.48112,-0.27929 -0.68554,-0.28776 -1.36263,-0.93099 v 4.3418 h -2.29362 v -12.57683 z m 2.42904,1.89584 q -1.0918,0 -1.8112,0.74479 -0.7194,0.74479 -0.7194,1.94661 0,1.22721 0.7194,1.98893 0.7194,0.75326 1.8112,0.75326 1.05794,0 1.77734,-0.77018 0.72787,-0.77019 0.72787,-1.96355 0,-1.18489 -0.71094,-1.93815 -0.71094,-0.76171 -1.79427,-0.76171 z"
         style="font-style:normal;font-variant:normal;font-weight:bold;font-stretch:normal;font-size:17.33333397px;font-family:'Century Gothic';-inkscape-font-specification:'Century Gothic, Bold';font-variant-ligatures:normal;font-variant-caps:normal;font-variant-numeric:normal;font-feature-settings:normal;text-align:center;writing-mode:lr-tb;text-anchor:middle;fill:#4c4c4c;fill-opacity:1"
         id="path4953" />
      <path
         d="m 167.27995,334.32305 v 1.01563 q 0.6263,-0.62631 1.35416,-0.93946 0.72787,-0.31315 1.5573,-0.31315 1.80273,0 3.0638,1.36263 1.26107,1.36263 1.26107,3.49545 0,2.05664 -1.30339,3.44466 -1.30339,1.37955 -3.08919,1.37955 -0.79558,0 -1.48112,-0.27929 -0.68555,-0.28776 -1.36263,-0.93099 v 4.3418 h -2.29362 v -12.57683 z m 2.42903,1.89584 q -1.09179,0 -1.81119,0.74479 -0.71941,0.74479 -0.71941,1.94661 0,1.22721 0.71941,1.98893 0.7194,0.75326 1.81119,0.75326 1.05795,0 1.77735,-0.77018 0.72786,-0.77019 0.72786,-1.96355 0,-1.18489 -0.71094,-1.93815 -0.71093,-0.76171 -1.79427,-0.76171 z"
         style="font-style:normal;font-variant:normal;font-weight:bold;font-stretch:normal;font-size:17.33333397px;font-family:'Century Gothic';-inkscape-font-specification:'Century Gothic, Bold';font-variant-ligatures:normal;font-variant-caps:normal;font-variant-numeric:normal;font-feature-settings:normal;text-align:center;writing-mode:lr-tb;text-anchor:middle;fill:#4c4c4c;fill-opacity:1"
         id="path4955" />
      <path
         d="m 183.23373,334.32305 h 2.30208 v 9.20834 h -2.30208 v -0.97331 q -0.67709,0.64323 -1.36263,0.93099 -0.67709,0.27929 -1.47266,0.27929 -1.78581,0 -3.08919,-1.37955 -1.30339,-1.38802 -1.30339,-3.44466 0,-2.13282 1.26107,-3.49545 1.26107,-1.36263 3.0638,-1.36263 0.82943,0 1.55729,0.31315 0.72787,0.31315 1.34571,0.93946 z m -2.42904,1.89584 q -1.07487,0 -1.78581,0.76171 -0.71094,0.75326 -0.71094,1.93815 0,1.19336 0.71941,1.96355 0.72786,0.77018 1.7858,0.77018 1.0918,0 1.8112,-0.75326 0.7194,-0.76172 0.7194,-1.98893 0,-1.20182 -0.7194,-1.94661 -0.7194,-0.74479 -1.81966,-0.74479 z"
         style="font-style:normal;font-variant:normal;font-weight:bold;font-stretch:normal;font-size:17.33333397px;font-family:'Century Gothic';-inkscape-font-specification:'Century Gothic, Bold';font-variant-ligatures:normal;font-variant-caps:normal;font-variant-numeric:normal;font-feature-settings:normal;text-align:center;writing-mode:lr-tb;text-anchor:middle;fill:#4c4c4c;fill-opacity:1"
         id="path4957" />
      <path
         d="m 187.33007,334.32305 h 1.98047 v 1.15951 q 0.32162,-0.68555 0.85482,-1.04102 0.5332,-0.35547 1.16797,-0.35547 0.44857,0 0.93945,0.23698 l -0.7194,1.98893 q -0.40625,-0.20312 -0.66862,-0.20312 -0.5332,0 -0.9056,0.66016 -0.36393,0.66015 -0.36393,2.58984 l 0.008,0.44857 v 3.72396 h -2.29362 z"
         style="font-style:normal;font-variant:normal;font-weight:bold;font-stretch:normal;font-size:17.33333397px;font-family:'Century Gothic';-inkscape-font-specification:'Century Gothic, Bold';font-variant-ligatures:normal;font-variant-caps:normal;font-variant-numeric:normal;font-feature-settings:normal;text-align:center;writing-mode:lr-tb;text-anchor:middle;fill:#4c4c4c;fill-opacity:1"
         id="path4959" />
      <path
         d="m 200.22852,334.32305 h 2.30209 v 9.20834 h -2.30209 v -0.97331 q -0.67708,0.64323 -1.36263,0.93099 -0.67708,0.27929 -1.47265,0.27929 -1.78581,0 -3.0892,-1.37955 -1.30338,-1.38802 -1.30338,-3.44466 0,-2.13282 1.26107,-3.49545 1.26106,-1.36263 3.0638,-1.36263 0.82942,0 1.55729,0.31315 0.72786,0.31315 1.3457,0.93946 z m -2.42903,1.89584 q -1.07487,0 -1.78581,0.76171 -0.71094,0.75326 -0.71094,1.93815 0,1.19336 0.7194,1.96355 0.72787,0.77018 1.78581,0.77018 1.0918,0 1.8112,-0.75326 0.7194,-0.76172 0.7194,-1.98893 0,-1.20182 -0.7194,-1.94661 -0.7194,-0.74479 -1.81966,-0.74479 z"
         style="font-style:normal;font-variant:normal;font-weight:bold;font-stretch:normal;font-size:17.33333397px;font-family:'Century Gothic';-inkscape-font-specification:'Century Gothic, Bold';font-variant-ligatures:normal;font-variant-caps:normal;font-variant-numeric:normal;font-feature-settings:normal;text-align:center;writing-mode:lr-tb;text-anchor:middle;fill:#4c4c4c;fill-opacity:1"
         id="path4961" />
      <path
         d="m 205.14584,330.92917 h 2.30208 v 3.39388 h 1.37109 v 1.98893 h -1.37109 v 7.21941 h -2.30208 v -7.21941 h -1.1849 v -1.98893 h 1.1849 z"
         style="font-style:normal;font-variant:normal;font-weight:bold;font-stretch:normal;font-size:17.33333397px;font-family:'Century Gothic';-inkscape-font-specification:'Century Gothic, Bold';font-variant-ligatures:normal;font-variant-caps:normal;font-variant-numeric:normal;font-feature-settings:normal;text-align:center;writing-mode:lr-tb;text-anchor:middle;fill:#4c4c4c;fill-opacity:1"
         id="path4963" />
      <path
         d="m 219.30535,339.59584 h -7.42253 q 0.16081,0.98177 0.85482,1.56575 0.70247,0.57552 1.7858,0.57552 1.29493,0 2.22592,-0.90559 l 1.94661,0.91406 q -0.72786,1.03255 -1.74349,1.5319 -1.01562,0.49088 -2.41211,0.49088 -2.16667,0 -3.5293,-1.36263 -1.36263,-1.37109 -1.36263,-3.42773 0,-2.10742 1.35417,-3.49544 1.36263,-1.39649 3.41081,-1.39649 2.17513,0 3.53776,1.39649 1.36263,1.38802 1.36263,3.67317 z m -2.31901,-1.81966 q -0.22852,-0.77019 -0.9056,-1.25261 -0.66862,-0.48242 -1.5573,-0.48242 -0.96484,0 -1.6927,0.54167 -0.45704,0.33854 -0.84636,1.19336 z"
         style="font-style:normal;font-variant:normal;font-weight:bold;font-stretch:normal;font-size:17.33333397px;font-family:'Century Gothic';-inkscape-font-specification:'Century Gothic, Bold';font-variant-ligatures:normal;font-variant-caps:normal;font-variant-numeric:normal;font-feature-settings:normal;text-align:center;writing-mode:lr-tb;text-anchor:middle;fill:#4c4c4c;fill-opacity:1"
         id="path4965" />
      <path
         d="m 221.46355,330.92917 h 2.30209 v 3.39388 h 1.37109 v 1.98893 h -1.37109 v 7.21941 h -2.30209 v -7.21941 h -1.18489 v -1.98893 h 1.18489 z"
         style="font-style:normal;font-variant:normal;font-weight:bold;font-stretch:normal;font-size:17.33333397px;font-family:'Century Gothic';-inkscape-font-specification:'Century Gothic, Bold';font-variant-ligatures:normal;font-variant-caps:normal;font-variant-numeric:normal;font-feature-settings:normal;text-align:center;writing-mode:lr-tb;text-anchor:middle;fill:#4c4c4c;fill-opacity:1"
         id="path4967" />
    </g>
  </g>
</svg>
