<?xml version="1.0" encoding="UTF-8" standalone="no"?>
<!-- Created with Inkscape (http://www.inkscape.org/) -->

<svg
   xmlns:dc="http://purl.org/dc/elements/1.1/"
   xmlns:cc="http://creativecommons.org/ns#"
   xmlns:rdf="http://www.w3.org/1999/02/22-rdf-syntax-ns#"
   xmlns:svg="http://www.w3.org/2000/svg"
   xmlns="http://www.w3.org/2000/svg"
   xmlns:xlink="http://www.w3.org/1999/xlink"
   xmlns:sodipodi="http://sodipodi.sourceforge.net/DTD/sodipodi-0.dtd"
   xmlns:inkscape="http://www.inkscape.org/namespaces/inkscape"
   width="70mm"
   height="100mm"
   viewBox="0 0 70 100"
   version="1.1"
   id="svg8"
   inkscape:version="0.92.2 5c3e80d, 2017-08-06"
   sodipodi:docname="sticker.fr.svg"
   inkscape:export-filename="/home/emes/doc/dontbuymonero-sticker/sticker.fr.png"
   inkscape:export-xdpi="300"
   inkscape:export-ydpi="300">
  <defs
     id="defs2" />
  <sodipodi:namedview
     id="base"
     pagecolor="#ffffff"
     bordercolor="#666666"
     borderopacity="1.0"
     inkscape:pageopacity="0.0"
     inkscape:pageshadow="2"
     inkscape:zoom="1.979899"
     inkscape:cx="-8.3563502"
     inkscape:cy="168.88542"
     inkscape:document-units="mm"
     inkscape:current-layer="layer1"
     showgrid="false"
     showguides="true"
     inkscape:guide-bbox="true"
     inkscape:snap-to-guides="true"
     inkscape:snap-grids="true"
     inkscape:snap-page="true"
     inkscape:snap-bbox="true"
     inkscape:bbox-nodes="true"
     inkscape:bbox-paths="true"
     inkscape:window-width="1920"
     inkscape:window-height="1136"
     inkscape:window-x="0"
     inkscape:window-y="747"
     inkscape:window-maximized="1"
     inkscape:pagecheckerboard="true"
     inkscape:measure-start="0,0"
     inkscape:measure-end="0,0">
    <sodipodi:guide
       position="5,91.472997"
       orientation="1,0"
       id="guide889"
       inkscape:locked="false"
       inkscape:label=""
       inkscape:color="rgb(0,0,255)" />
    <sodipodi:guide
       position="65,88.533032"
       orientation="1,0"
       id="guide891"
       inkscape:locked="false"
       inkscape:label=""
       inkscape:color="rgb(0,0,255)" />
    <sodipodi:guide
       position="28.86511,95"
       orientation="0,1"
       id="guide893"
       inkscape:locked="false"
       inkscape:label=""
       inkscape:color="rgb(0,0,255)" />
    <sodipodi:guide
       position="36.348657,5"
       orientation="0,1"
       id="guide895"
       inkscape:locked="false"
       inkscape:label=""
       inkscape:color="rgb(0,0,255)" />
    <sodipodi:guide
       position="9,45.435819"
       orientation="1,0"
       id="guide951"
       inkscape:locked="false"
       inkscape:label=""
       inkscape:color="rgb(0,0,255)" />
    <sodipodi:guide
       position="61,64.54559"
       orientation="1,0"
       id="guide953"
       inkscape:locked="false"
       inkscape:label=""
       inkscape:color="rgb(0,0,255)" />
    <sodipodi:guide
       position="25.52424,8"
       orientation="0,1"
       id="guide955"
       inkscape:locked="false"
       inkscape:label=""
       inkscape:color="rgb(0,0,255)" />
    <sodipodi:guide
       position="26.125597,31"
       orientation="0,1"
       id="guide957"
       inkscape:locked="false"
       inkscape:label=""
       inkscape:color="rgb(0,0,255)" />
  </sodipodi:namedview>
  <metadata
     id="metadata5">
    <rdf:RDF>
      <cc:Work
         rdf:about="">
        <dc:format>image/svg+xml</dc:format>
        <dc:type
           rdf:resource="http://purl.org/dc/dcmitype/StillImage" />
        <dc:title></dc:title>
      </cc:Work>
    </rdf:RDF>
  </metadata>
  <g
     inkscape:label="Layer 1"
     inkscape:groupmode="layer"
     id="layer1"
     transform="translate(0,-197)">
    <rect
       style="fill:#ffffff;fill-opacity:1;stroke:none;stroke-width:1;stroke-linecap:square;stroke-miterlimit:4;stroke-dasharray:none;stroke-opacity:1"
       id="rect858"
       width="70"
       height="100"
       x="0"
       y="197" />
    <g
       id="g875"
       transform="translate(-2.0000006,5.4790253)"
       inkscape:export-xdpi="352.57999"
       inkscape:export-ydpi="352.57999">
      <g
         transform="matrix(1.3011002,0,0,1.3011002,16.420217,-75.468301)"
         id="g915">
        <path
           inkscape:connector-curvature="0"
           d="m 15.817084,222.05063 c -5.391414,0 -9.7639184,4.37197 -9.7639184,9.76365 0,1.07791 0.174625,2.11455 0.4974166,3.08425 h 2.9199417 v -8.21505 l 6.3465601,6.34656 6.346561,-6.34656 v 8.21505 h 2.920206 c 0.322791,-0.9697 0.497416,-2.00634 0.497416,-3.08425 0,-5.39168 -4.372504,-9.76365 -9.764183,-9.76365"
           id="path22"
           style="fill:#ff6600;stroke-width:0.26458332" />
        <path
           inkscape:connector-curvature="0"
           d="m 11.58809,231.71921 v 5.16917 H 7.4738193 c 1.7139708,2.81199 4.8095957,4.69 8.3431057,4.69 3.533511,0 6.6294,-1.87801 8.343107,-4.69 h -4.114007 v -5.16917 l -4.2291,4.2291 z"
           id="path26"
           style="fill:#4c4c4c;stroke-width:0.26458332" />
      </g>
      <g
         transform="matrix(0.88274719,0,0,0.88274719,-10.947117,38.872224)"
         id="g911">
        <path
           inkscape:connector-curvature="0"
           d="m 78.102302,234.59405 c -0.516202,0.53154 -1.142206,0.79639 -1.878277,0.79639 -0.650346,0 -1.225285,-0.20426 -1.728523,-0.61489 -0.646906,-0.52361 -0.969962,-1.23666 -0.969962,-2.13889 0,-0.80778 0.257175,-1.47532 0.771525,-1.99919 0.512497,-0.52573 1.14591,-0.78687 1.900766,-0.78687 0.745331,0 1.379008,0.26881 1.898915,0.80565 0.522023,0.53711 0.782902,1.1938 0.782902,1.97088 0,0.7792 -0.258763,1.43352 -0.777346,1.96692 m 1.083998,-5.01042 c -0.828675,-0.8337 -1.81954,-1.25174 -2.973388,-1.25174 -0.760412,0 -1.471347,0.19129 -2.129366,0.57308 -0.6604,0.38206 -1.178719,0.90012 -1.554956,1.5547 -0.376503,0.65431 -0.565415,1.37133 -0.565415,2.15026 0,1.16338 0.404548,2.16747 1.214437,3.01334 0.809096,0.8472 1.825096,1.26895 3.046413,1.26895 1.167077,0 2.160323,-0.41037 2.979208,-1.23508 0.818886,-0.82285 1.227402,-1.83065 1.227402,-3.02048 0,-1.19936 -0.414337,-2.21668 -1.244335,-3.05303"
           id="path30"
           style="fill:#4c4c4c;stroke-width:0.26458332" />
        <path
           inkscape:connector-curvature="0"
           d="m 69,231.47434 c -0.196585,0.13706 -0.289454,0.20453 -0.809625,0.20453 h -2.046816 v -1.75102 h 1.983316 c 0.397669,0 0.468048,0.0299 0.631032,0.0913 0.162454,0.0595 0.29157,0.15902 0.388937,0.29581 0.09737,0.13705 0.144992,0.29977 0.144992,0.4863 0,0.3138 -0.09737,0.53817 -0.291836,0.6731 m 0.246063,1.61211 c 0.542131,-0.19473 0.94906,-0.48048 1.218935,-0.85752 0.27014,-0.37914 0.403225,-0.84798 0.403225,-1.41155 0,-0.53419 -0.120914,-0.9988 -0.365389,-1.38985 -0.244211,-0.39106 -0.567796,-0.67099 -0.96864,-0.83979 -0.401108,-0.16881 -1.074208,-0.254 -2.021152,-0.254 h -2.997464 v 8.55662 h 1.627981 v -3.6232 h 1.420812 l 1.926167,3.6232 h 1.780646 z"
           id="path34"
           style="fill:#4c4c4c;stroke-width:0.26458332" />
        <path
           inkscape:connector-curvature="0"
           d="m 57.217787,228.33189 h 5.547783 v 1.59411 h -3.929591 v 1.75128 h 3.929591 v 1.56633 h -3.929591 v 2.0447 h 3.929591 v 1.60047 h -5.547783 z"
           id="path38"
           style="fill:#4c4c4c;stroke-width:0.26458332" />
        <path
           inkscape:connector-curvature="0"
           d="m 48.621925,228.33189 h 1.55866 l 3.670829,5.63033 v -5.63033 h 1.627981 v 8.55662 h -1.564481 l -3.665008,-5.61234 v 5.61234 h -1.627981 z"
           id="path42"
           style="fill:#4c4c4c;stroke-width:0.26458332" />
        <use
           transform="translate(-33.088422,-1.0786894e-6)"
           id="use46"
           x="0"
           y="0"
           width="282"
           height="75"
           xlink:href="#path30" />
        <path
           inkscape:connector-curvature="0"
           d="m 29.678129,228.33165 h 1.594114 l 1.977231,5.9682 2.007394,-5.9682 h 1.570302 l 1.441715,8.55689 h -1.570567 l -0.919162,-5.40412 -1.820598,5.40412 h -1.435629 l -1.796521,-5.40412 -0.937154,5.40412 H 28.20096 Z"
           id="path50"
           style="fill:#4c4c4c;stroke-width:0.26458332" />
      </g>
    </g>
    <flowRoot
       xml:space="preserve"
       id="flowRoot840"
       style="font-style:normal;font-weight:normal;font-size:26.66666603px;line-height:1.25;font-family:sans-serif;letter-spacing:0px;word-spacing:0px;fill:#000000;fill-opacity:1;stroke:none"><flowRegion
         id="flowRegion842"><rect
           id="rect844"
           width="77.781746"
           height="47.477169"
           x="239.40616"
           y="264.52042" /></flowRegion><flowPara
         id="flowPara846" /></flowRoot>    <flowRoot
       xml:space="preserve"
       id="flowRoot866"
       style="font-style:normal;font-variant:normal;font-weight:bold;font-stretch:normal;font-size:16px;line-height:1.25;font-family:'Century Gothic';-inkscape-font-specification:'Century Gothic Bold';text-align:center;letter-spacing:0px;word-spacing:0px;text-anchor:middle;fill:#000000;fill-opacity:1;stroke:none"
       transform="matrix(0.26458333,0,0,0.26458333,0,192)"><flowRegion
         id="flowRegion868"
         style="font-size:16px"><rect
           id="rect870"
           width="241.88977"
           height="148.28261"
           x="18.897638"
           y="229.67015"
           style="font-size:16px" /></flowRegion><flowPara
         id="flowPara872" /></flowRoot>    <flowRoot
       xml:space="preserve"
       id="flowRoot874"
       style="font-style:normal;font-variant:normal;font-weight:bold;font-stretch:normal;font-size:26.66666603px;line-height:1.25;font-family:'Century Gothic';-inkscape-font-specification:'Century Gothic Bold';text-align:center;letter-spacing:0px;word-spacing:0px;text-anchor:middle;fill:#000000;fill-opacity:1;stroke:none"><flowRegion
         id="flowRegion876"><rect
           id="rect878"
           width="241.88977"
           height="148.28261"
           x="18.897638"
           y="229.67015" /></flowRegion><flowPara
         id="flowPara880" /></flowRoot>    <g
       id="g861">
      <path
         inkscape:connector-curvature="0"
         id="rect861"
         d="M 5,263.0024 V 263.44051 292 h 60 v -28.9976 z m 0.874399,0.8744 h 58.251202 v 27.24879 H 5.874399 Z"
         style="color:#000000;font-style:normal;font-variant:normal;font-weight:normal;font-stretch:normal;font-size:medium;line-height:normal;font-family:sans-serif;font-variant-ligatures:normal;font-variant-position:normal;font-variant-caps:normal;font-variant-numeric:normal;font-variant-alternates:normal;font-feature-settings:normal;text-indent:0;text-align:start;text-decoration:none;text-decoration-line:none;text-decoration-style:solid;text-decoration-color:#000000;letter-spacing:normal;word-spacing:normal;text-transform:none;writing-mode:lr-tb;direction:ltr;text-orientation:mixed;dominant-baseline:auto;baseline-shift:baseline;text-anchor:start;white-space:normal;shape-padding:0;clip-rule:nonzero;display:inline;overflow:visible;visibility:visible;opacity:1;isolation:auto;mix-blend-mode:normal;color-interpolation:sRGB;color-interpolation-filters:linearRGB;solid-color:#000000;solid-opacity:1;vector-effect:none;fill:#4c4c4c;fill-opacity:1;fill-rule:nonzero;stroke:none;stroke-width:0.87388474;stroke-linecap:square;stroke-linejoin:miter;stroke-miterlimit:4;stroke-dasharray:none;stroke-dashoffset:0;stroke-opacity:1;color-rendering:auto;image-rendering:auto;shape-rendering:auto;text-rendering:auto;enable-background:accumulate" />
    </g>
    <g
       aria-label="N'ACHÈTE PAS"
       transform="matrix(0.2439541,0,0,0.26458333,-0.3619079,197.56734)"
       style="font-style:normal;font-variant:normal;font-weight:bold;font-stretch:normal;font-size:37.33333206px;line-height:1.25;font-family:'Century Gothic';-inkscape-font-specification:'Century Gothic Bold';text-align:start;letter-spacing:0px;word-spacing:0px;text-anchor:start;fill:#4c4c4c;fill-opacity:1;stroke:none"
       id="flowRoot1113">
      <path
         d="m 21.979167,25.977319 h 4.885416 L 38.367187,43.623152 V 25.977319 h 5.104166 V 52.792422 H 38.567708 L 27.083333,35.201277 v 17.591145 h -5.104166 z"
         style="font-size:37.33333206px;text-align:start;text-anchor:start;fill:#4c4c4c;fill-opacity:1"
         id="path1129" />
      <path
         d="m 52.057291,34.490339 h -2.84375 L 48.210937,25.30284 h 4.848958 z"
         style="font-size:37.33333206px;text-align:start;text-anchor:start;fill:#4c4c4c;fill-opacity:1"
         id="path1131" />
      <path
         d="m 66.002604,25.977319 h 5.177083 l 10.317708,26.815103 h -5.304687 l -2.096354,-5.523437 h -10.9375 l -2.1875,5.523437 h -5.304687 z m 2.625,7.109375 -3.572917,9.205728 h 7.127604 z"
         style="font-size:37.33333206px;text-align:start;text-anchor:start;fill:#4c4c4c;fill-opacity:1"
         id="path1133" />
      <path
         d="m 110.11718,30.698673 -3.57291,3.408854 q -3.64584,-3.846354 -8.203127,-3.846354 -3.846354,0 -6.489583,2.625 -2.625,2.625 -2.625,6.471354 0,2.679687 1.166666,4.757812 1.166667,2.078125 3.299479,3.263021 2.132813,1.184896 4.739584,1.184896 2.223961,0 4.065101,-0.820313 1.84115,-0.838542 4.04688,-3.026041 l 3.46354,3.609374 q -2.97136,2.898438 -5.61458,4.028646 -2.64323,1.111979 -6.033858,1.111979 -6.252604,0 -10.244791,-3.955729 -3.973959,-3.973958 -3.973959,-10.171874 0,-4.010417 1.804688,-7.127604 1.822916,-3.117188 5.195312,-5.013021 3.390625,-1.895833 7.291667,-1.895833 3.317711,0 6.380211,1.403645 3.08073,1.403646 5.30468,3.992188 z"
         style="font-size:37.33333206px;text-align:start;text-anchor:start;fill:#4c4c4c;fill-opacity:1"
         id="path1135" />
      <path
         d="m 114.54687,25.977319 h 5.17709 v 10.117187 h 8.96875 V 25.977319 h 5.15885 v 26.815103 h -5.15885 V 41.03461 h -8.96875 v 11.757812 h -5.17709 z"
         style="font-size:37.33333206px;text-align:start;text-anchor:start;fill:#4c4c4c;fill-opacity:1"
         id="path1137" />
      <path
         d="m 139.95833,25.977319 h 14.63802 v 4.994791 h -9.57031 v 4.848958 h 9.57031 v 4.903646 h -9.57031 v 7.054687 h 9.57031 v 5.013021 h -14.63802 z m 6.39844,-9.223958 4.35677,7.145833 h -3.57292 l -6.67187,-7.145833 z"
         style="font-size:37.33333206px;text-align:start;text-anchor:start;fill:#4c4c4c;fill-opacity:1"
         id="path1139" />
      <path
         d="m 156.69271,25.977319 h 14.82031 v 5.03125 h -4.88542 v 21.783853 h -5.17708 V 31.008569 h -4.75781 z"
         style="font-size:37.33333206px;text-align:start;text-anchor:start;fill:#4c4c4c;fill-opacity:1"
         id="path1141" />
      <path
         d="m 175.03124,25.977319 h 14.63803 v 4.994791 h -9.57032 v 4.848958 h 9.57032 v 4.903646 h -9.57032 v 7.054687 h 9.57032 v 5.013021 h -14.63803 z"
         style="font-size:37.33333206px;text-align:start;text-anchor:start;fill:#4c4c4c;fill-opacity:1"
         id="path1143" />
      <path
         d="m 204.81771,25.977319 h 5.41406 q 4.39323,0 6.32552,0.820312 1.95052,0.802084 3.0625,2.625 1.13021,1.804688 1.13021,4.338542 0,2.807291 -1.47656,4.666666 -1.45834,1.859375 -3.97396,2.588542 -1.47656,0.419271 -5.37761,0.419271 v 11.35677 h -5.10416 z m 5.10416,10.48177 h 1.6224 q 1.91406,0 2.66146,-0.273437 0.74739,-0.273438 1.16667,-0.893229 0.4375,-0.638021 0.4375,-1.53125 0,-1.549479 -1.20313,-2.260417 -0.875,-0.528646 -3.24479,-0.528646 h -1.44011 z"
         style="font-size:37.33333206px;text-align:start;text-anchor:start;fill:#4c4c4c;fill-opacity:1"
         id="path1145" />
      <path
         d="m 233.92968,25.977319 h 5.17709 l 10.3177,26.815103 h -5.30468 l -2.09636,-5.523437 h -10.9375 l -2.1875,5.523437 h -5.30469 z m 2.625,7.109375 -3.57291,9.205728 h 7.1276 z"
         style="font-size:37.33333206px;text-align:start;text-anchor:start;fill:#4c4c4c;fill-opacity:1"
         id="path1147" />
      <path
         d="m 267.45311,29.623152 -3.77344,3.335937 q -1.98698,-2.770833 -4.04687,-2.770833 -1.00261,0 -1.64063,0.546875 -0.63802,0.528646 -0.63802,1.203125 0,0.674479 0.45573,1.276042 0.61979,0.802083 3.73698,3.445312 2.91667,2.442708 3.53646,3.080729 1.54948,1.567708 2.1875,3.007813 0.65625,1.421875 0.65625,3.117187 0,3.299479 -2.27865,5.450521 -2.27864,2.151041 -5.94271,2.151041 -2.86198,0 -4.99479,-1.403646 -2.11458,-1.403645 -3.6276,-4.411458 l 4.28385,-2.588541 q 1.93229,3.554687 4.44792,3.554687 1.3125,0 2.20573,-0.765625 0.89323,-0.765625 0.89323,-1.768229 0,-0.911458 -0.67448,-1.822917 -0.67448,-0.911458 -2.97136,-2.789062 -4.375,-3.572917 -5.65104,-5.505208 -1.27604,-1.950521 -1.27604,-3.882813 0,-2.789062 2.11458,-4.776041 2.13282,-2.005208 5.25,-2.005208 2.00521,0 3.8099,0.929687 1.82292,0.929688 3.9375,3.390625 z"
         style="font-size:37.33333206px;text-align:start;text-anchor:start;fill:#4c4c4c;fill-opacity:1"
         id="path1149" />
    </g>
    <g
       aria-label="Les cryptomonnaies nuisent au système bancaire et peuvent affaiblir l'appareil d'État"
       transform="matrix(0.26458333,0,0,0.26458333,0,197)"
       style="font-style:normal;font-variant:normal;font-weight:bold;font-stretch:normal;font-size:16px;line-height:1.25;font-family:'Century Gothic';-inkscape-font-specification:'Century Gothic Bold';text-align:center;letter-spacing:0px;word-spacing:0px;text-anchor:middle;fill:#4c4c4c;fill-opacity:1;stroke:none"
       id="flowRoot1121">
      <path
         d="m 55.986328,263.82092 h 2.1875 v 9.40625 h 3.1875 v 2.08593 h -5.375 z"
         style=""
         id="path1152" />
      <path
         d="m 71.298828,271.68029 h -6.851562 q 0.148437,0.90625 0.789062,1.44531 0.648438,0.53125 1.648438,0.53125 1.195312,0 2.054687,-0.83593 l 1.796875,0.84375 q -0.671875,0.95312 -1.609375,1.41406 -0.9375,0.45312 -2.226562,0.45312 -2,0 -3.257813,-1.25781 -1.257812,-1.26562 -1.257812,-3.16406 0,-1.94531 1.25,-3.22656 1.257812,-1.28907 3.148437,-1.28907 2.007813,0 3.265625,1.28907 1.257813,1.28125 1.257813,3.39062 z m -2.140625,-1.67969 q -0.210937,-0.71093 -0.835937,-1.15625 -0.617188,-0.44531 -1.4375,-0.44531 -0.890625,0 -1.5625,0.5 -0.421875,0.3125 -0.78125,1.10156 z"
         style=""
         id="path1154" />
      <path
         d="m 78.236328,268.0006 -1.320312,1.32032 q -0.804688,-0.79688 -1.460938,-0.79688 -0.359375,0 -0.5625,0.15625 -0.203125,0.14844 -0.203125,0.375 0,0.17188 0.125,0.32031 0.132813,0.14063 0.640625,0.39063 l 0.78125,0.39062 q 1.234375,0.60938 1.695313,1.24219 0.460937,0.63281 0.460937,1.48438 0,1.13281 -0.835937,1.89062 -0.828125,0.75781 -2.226563,0.75781 -1.859375,0 -2.96875,-1.45312 l 1.3125,-1.42969 q 0.375,0.4375 0.875,0.71094 0.507813,0.26562 0.898438,0.26562 0.421875,0 0.679687,-0.20312 0.257813,-0.20313 0.257813,-0.46875 0,-0.49219 -0.929688,-0.96094 l -0.71875,-0.35937 q -2.0625,-1.03907 -2.0625,-2.60157 0,-1.00781 0.773438,-1.71875 0.78125,-0.71875 1.992187,-0.71875 0.828125,0 1.554688,0.36719 0.734375,0.35938 1.242187,1.03906 z"
         style=""
         id="path1156" />
      <path
         d="m 92.853516,268.53185 -1.773438,0.97657 q -0.5,-0.52344 -0.992187,-0.72657 -0.484375,-0.20312 -1.140625,-0.20312 -1.195313,0 -1.9375,0.71875 -0.734375,0.71094 -0.734375,1.82812 0,1.08594 0.710937,1.77344 0.710938,0.6875 1.867188,0.6875 1.429687,0 2.226562,-0.97656 l 1.679688,1.14844 q -1.367188,1.77343 -3.859375,1.77343 -2.242188,0 -3.515625,-1.32812 -1.265625,-1.32813 -1.265625,-3.10938 0,-1.23437 0.617187,-2.27343 0.617188,-1.03907 1.71875,-1.63282 1.109375,-0.59375 2.476563,-0.59375 1.265625,0 2.273437,0.50782 1.007813,0.5 1.648438,1.42968 z"
         style=""
         id="path1158" />
      <path
         d="m 94.283203,266.8131 h 1.828125 v 1.07032 q 0.296875,-0.63282 0.789063,-0.96094 0.492187,-0.32813 1.078125,-0.32813 0.414062,0 0.867187,0.21875 l -0.664062,1.83594 q -0.375,-0.1875 -0.617188,-0.1875 -0.492187,0 -0.835937,0.60938 -0.335938,0.60937 -0.335938,2.39062 l 0.0078,0.41406 v 3.4375 h -2.117188 z"
         style=""
         id="path1160" />
      <path
         d="m 98.962891,266.8131 h 2.179689 l 2.21094,5.33594 2.4375,-5.33594 h 2.1875 l -5.32813,11.60938 h -2.20312 l 1.75,-3.74219 z"
         style=""
         id="path1162" />
      <path
         d="m 111.30664,266.8131 v 0.9375 q 0.57813,-0.57812 1.25,-0.86718 0.67188,-0.28907 1.4375,-0.28907 1.66406,0 2.82813,1.25782 1.16406,1.25781 1.16406,3.22656 0,1.89844 -1.20313,3.17969 -1.20312,1.27343 -2.85156,1.27343 -0.73437,0 -1.36719,-0.25781 -0.63281,-0.26562 -1.25781,-0.85937 v 4.00781 h -2.11719 V 266.8131 Z m 2.24219,1.75 q -1.00781,0 -1.67188,0.6875 -0.66406,0.6875 -0.66406,1.79688 0,1.13281 0.66406,1.83594 0.66407,0.69531 1.67188,0.69531 0.97656,0 1.64062,-0.71094 0.67188,-0.71094 0.67188,-1.8125 0,-1.09375 -0.65625,-1.78906 -0.65625,-0.70313 -1.65625,-0.70313 z"
         style=""
         id="path1164" />
      <path
         d="m 120.00977,263.68029 h 2.125 v 3.13281 h 1.26562 v 1.83594 h -1.26562 v 6.66406 h -2.125 v -6.66406 h -1.09375 v -1.83594 h 1.09375 z"
         style=""
         id="path1166" />
      <path
         d="m 128.55664,266.59435 q 1.20313,0 2.25781,0.60157 1.0625,0.60156 1.65625,1.63281 0.59375,1.03125 0.59375,2.22656 0,1.20313 -0.60156,2.25 -0.59375,1.04688 -1.625,1.64063 -1.03125,0.58593 -2.27344,0.58593 -1.82812,0 -3.125,-1.29687 -1.28906,-1.30469 -1.28906,-3.16406 0,-1.99219 1.46094,-3.32032 1.28125,-1.15625 2.94531,-1.15625 z m 0.0312,2.00782 q -0.99219,0 -1.65625,0.69531 -0.65625,0.6875 -0.65625,1.76562 0,1.10938 0.64844,1.79688 0.65625,0.6875 1.65625,0.6875 1,0 1.66406,-0.69531 0.66406,-0.69532 0.66406,-1.78907 0,-1.09375 -0.65625,-1.77343 -0.64843,-0.6875 -1.66406,-0.6875 z"
         style=""
         id="path1168" />
      <path
         d="m 134.79883,266.8131 h 2.14062 v 0.97657 q 0.54688,-0.60157 1.21094,-0.89844 0.67188,-0.29688 1.46094,-0.29688 0.79687,0 1.4375,0.39063 0.64062,0.39062 1.03125,1.14062 0.50781,-0.75 1.24219,-1.14062 0.74218,-0.39063 1.61718,-0.39063 0.90625,0 1.59375,0.42188 0.6875,0.42187 0.98438,1.10156 0.30469,0.67969 0.30469,2.21094 v 4.98437 h -2.14844 v -4.3125 q 0,-1.44531 -0.35938,-1.95312 -0.35937,-0.51563 -1.07812,-0.51563 -0.54688,0 -0.98438,0.3125 -0.42968,0.3125 -0.64062,0.86719 -0.21094,0.54688 -0.21094,1.76563 v 3.83593 h -2.14844 v -4.11718 q 0,-1.14063 -0.17187,-1.64844 -0.16406,-0.51563 -0.5,-0.76563 -0.33594,-0.25 -0.8125,-0.25 -0.53125,0 -0.96875,0.32032 -0.42969,0.3125 -0.64844,0.88281 -0.21094,0.57031 -0.21094,1.79687 v 3.78125 h -2.14062 z"
         style=""
         id="path1170" />
      <path
         d="m 153.83789,266.59435 q 1.20313,0 2.25781,0.60157 1.0625,0.60156 1.65625,1.63281 0.59375,1.03125 0.59375,2.22656 0,1.20313 -0.60156,2.25 -0.59375,1.04688 -1.625,1.64063 -1.03125,0.58593 -2.27344,0.58593 -1.82812,0 -3.125,-1.29687 -1.28906,-1.30469 -1.28906,-3.16406 0,-1.99219 1.46094,-3.32032 1.28125,-1.15625 2.94531,-1.15625 z m 0.0312,2.00782 q -0.99219,0 -1.65625,0.69531 -0.65625,0.6875 -0.65625,1.76562 0,1.10938 0.64844,1.79688 0.65625,0.6875 1.65625,0.6875 1,0 1.66406,-0.69531 0.66406,-0.69532 0.66406,-1.78907 0,-1.09375 -0.65625,-1.77343 -0.64843,-0.6875 -1.66406,-0.6875 z"
         style=""
         id="path1172" />
      <path
         d="m 160.0957,266.8131 h 2.125 v 0.86719 q 0.72657,-0.60937 1.3125,-0.84375 0.59375,-0.24219 1.21094,-0.24219 1.26563,0 2.14844,0.88282 0.74219,0.75 0.74219,2.21875 v 5.61718 h -2.10938 v -3.72656 q 0,-1.52344 -0.14062,-2.02344 -0.13282,-0.5 -0.47657,-0.75781 -0.33593,-0.26562 -0.83593,-0.26562 -0.64844,0 -1.11719,0.4375 -0.46094,0.42968 -0.64063,1.19531 -0.0937,0.39844 -0.0937,1.72656 v 3.41406 h -2.125 z"
         style=""
         id="path1174" />
      <path
         d="m 169.68945,266.8131 h 2.125 v 0.86719 q 0.72657,-0.60937 1.3125,-0.84375 0.59375,-0.24219 1.21094,-0.24219 1.26563,0 2.14844,0.88282 0.74219,0.75 0.74219,2.21875 v 5.61718 h -2.10938 v -3.72656 q 0,-1.52344 -0.14062,-2.02344 -0.13282,-0.5 -0.47657,-0.75781 -0.33593,-0.26562 -0.83593,-0.26562 -0.64844,0 -1.11719,0.4375 -0.46094,0.42968 -0.64063,1.19531 -0.0937,0.39844 -0.0937,1.72656 v 3.41406 h -2.125 z"
         style=""
         id="path1176" />
      <path
         d="m 185.56445,266.8131 h 2.125 v 8.5 h -2.125 v -0.89843 q -0.625,0.59375 -1.25781,0.85937 -0.625,0.25781 -1.35937,0.25781 -1.64844,0 -2.85157,-1.27343 -1.20312,-1.28125 -1.20312,-3.17969 0,-1.96875 1.16406,-3.22656 1.16406,-1.25782 2.82813,-1.25782 0.76562,0 1.4375,0.28907 0.67187,0.28906 1.24218,0.86718 z m -2.24218,1.75 q -0.99219,0 -1.64844,0.70313 -0.65625,0.69531 -0.65625,1.78906 0,1.10156 0.66406,1.8125 0.67188,0.71094 1.64844,0.71094 1.00781,0 1.67187,-0.69531 0.66407,-0.70313 0.66407,-1.83594 0,-1.10938 -0.66407,-1.79688 -0.66406,-0.6875 -1.67968,-0.6875 z"
         style=""
         id="path1178" />
      <path
         d="m 190.68164,263.3131 q 0.5625,0 0.96094,0.40625 0.40625,0.40625 0.40625,0.98438 0,0.57031 -0.39844,0.97656 -0.39844,0.39844 -0.95312,0.39844 -0.57032,0 -0.97657,-0.40625 -0.39843,-0.41406 -0.39843,-1 0,-0.5625 0.39843,-0.96094 0.39844,-0.39844 0.96094,-0.39844 z m -1.07031,3.5 h 2.14062 v 8.5 h -2.14062 z"
         style=""
         id="path1180" />
      <path
         d="m 202.20508,271.68029 h -6.85156 q 0.14843,0.90625 0.78906,1.44531 0.64844,0.53125 1.64844,0.53125 1.19531,0 2.05468,-0.83593 l 1.79688,0.84375 q -0.67188,0.95312 -1.60938,1.41406 -0.9375,0.45312 -2.22656,0.45312 -2,0 -3.25781,-1.25781 -1.25781,-1.26562 -1.25781,-3.16406 0,-1.94531 1.25,-3.22656 1.25781,-1.28907 3.14843,-1.28907 2.00782,0 3.26563,1.28907 1.25781,1.28125 1.25781,3.39062 z m -2.14063,-1.67969 q -0.21093,-0.71093 -0.83593,-1.15625 -0.61719,-0.44531 -1.4375,-0.44531 -0.89063,0 -1.5625,0.5 -0.42188,0.3125 -0.78125,1.10156 z"
         style=""
         id="path1182" />
      <path
         d="m 209.14258,268.0006 -1.32031,1.32032 q -0.80469,-0.79688 -1.46094,-0.79688 -0.35938,0 -0.5625,0.15625 -0.20313,0.14844 -0.20313,0.375 0,0.17188 0.125,0.32031 0.13282,0.14063 0.64063,0.39063 l 0.78125,0.39062 q 1.23437,0.60938 1.69531,1.24219 0.46094,0.63281 0.46094,1.48438 0,1.13281 -0.83594,1.89062 -0.82812,0.75781 -2.22656,0.75781 -1.85938,0 -2.96875,-1.45312 l 1.3125,-1.42969 q 0.375,0.4375 0.875,0.71094 0.50781,0.26562 0.89844,0.26562 0.42187,0 0.67968,-0.20312 0.25782,-0.20313 0.25782,-0.46875 0,-0.49219 -0.92969,-0.96094 l -0.71875,-0.35937 q -2.0625,-1.03907 -2.0625,-2.60157 0,-1.00781 0.77344,-1.71875 0.78125,-0.71875 1.99218,-0.71875 0.82813,0 1.55469,0.36719 0.73438,0.35938 1.24219,1.03906 z"
         style=""
         id="path1184" />
      <path
         d="m 59.611328,286.8131 h 2.125 v 0.86719 q 0.726563,-0.60937 1.3125,-0.84375 0.59375,-0.24219 1.210938,-0.24219 1.265625,0 2.148437,0.88282 0.742188,0.75 0.742188,2.21875 v 5.61718 h -2.109375 v -3.72656 q 0,-1.52344 -0.140625,-2.02344 -0.132813,-0.5 -0.476563,-0.75781 -0.335937,-0.26562 -0.835937,-0.26562 -0.648438,0 -1.117188,0.4375 -0.460937,0.42968 -0.640625,1.19531 -0.09375,0.39844 -0.09375,1.72656 v 3.41406 h -2.125 z"
         style=""
         id="path1186" />
      <path
         d="m 69.197266,286.8131 h 2.15625 v 4.09375 q 0,1.19532 0.164062,1.66407 0.164063,0.46093 0.523438,0.71875 0.367187,0.25781 0.898437,0.25781 0.53125,0 0.898438,-0.25 0.375,-0.25781 0.554687,-0.75 0.132813,-0.36719 0.132813,-1.57031 v -4.16407 h 2.140625 v 3.60157 q 0,2.22656 -0.351563,3.04687 -0.429687,1 -1.265625,1.53906 -0.835937,0.53125 -2.125,0.53125 -1.398437,0 -2.265625,-0.625 -0.859375,-0.625 -1.210937,-1.74218 -0.25,-0.77344 -0.25,-2.8125 z"
         style=""
         id="path1188" />
      <path
         d="m 79.634766,283.3131 q 0.5625,0 0.960937,0.40625 0.40625,0.40625 0.40625,0.98438 0,0.57031 -0.398437,0.97656 -0.398438,0.39844 -0.953125,0.39844 -0.570313,0 -0.976563,-0.40625 -0.398437,-0.41406 -0.398437,-1 0,-0.5625 0.398437,-0.96094 0.398438,-0.39844 0.960938,-0.39844 z m -1.070313,3.5 h 2.140625 v 8.5 h -2.140625 z"
         style=""
         id="path1190" />
      <path
         d="m 87.845703,288.0006 -1.320312,1.32032 q -0.804688,-0.79688 -1.460938,-0.79688 -0.359375,0 -0.5625,0.15625 -0.203125,0.14844 -0.203125,0.375 0,0.17188 0.125,0.32031 0.132813,0.14063 0.640625,0.39063 l 0.78125,0.39062 q 1.234375,0.60938 1.695313,1.24219 0.460937,0.63281 0.460937,1.48438 0,1.13281 -0.835937,1.89062 -0.828125,0.75781 -2.226563,0.75781 -1.859375,0 -2.96875,-1.45312 l 1.3125,-1.42969 q 0.375,0.4375 0.875,0.71094 0.507813,0.26562 0.898438,0.26562 0.421875,0 0.679687,-0.20312 0.257813,-0.20313 0.257813,-0.46875 0,-0.49219 -0.929688,-0.96094 l -0.71875,-0.35937 q -2.0625,-1.03907 -2.0625,-2.60157 0,-1.00781 0.773438,-1.71875 0.78125,-0.71875 1.992187,-0.71875 0.828125,0 1.554688,0.36719 0.734375,0.35938 1.242187,1.03906 z"
         style=""
         id="path1192" />
      <path
         d="m 98.189453,291.68029 h -6.851562 q 0.148437,0.90625 0.789062,1.44531 0.648438,0.53125 1.648438,0.53125 1.195312,0 2.054687,-0.83593 l 1.796875,0.84375 q -0.671875,0.95312 -1.609375,1.41406 -0.9375,0.45312 -2.226562,0.45312 -2,0 -3.257813,-1.25781 -1.257812,-1.26562 -1.257812,-3.16406 0,-1.94531 1.25,-3.22656 1.257812,-1.28907 3.148437,-1.28907 2.007813,0 3.265625,1.28907 1.257813,1.28125 1.257813,3.39062 z m -2.140625,-1.67969 q -0.210937,-0.71093 -0.835937,-1.15625 -0.617188,-0.44531 -1.4375,-0.44531 -0.890625,0 -1.5625,0.5 -0.421875,0.3125 -0.78125,1.10156 z"
         style=""
         id="path1194" />
      <path
         d="m 99.923828,286.8131 h 2.125002 v 0.86719 q 0.72656,-0.60937 1.3125,-0.84375 0.59375,-0.24219 1.21094,-0.24219 1.26562,0 2.14843,0.88282 0.74219,0.75 0.74219,2.21875 v 5.61718 h -2.10937 v -3.72656 q 0,-1.52344 -0.14063,-2.02344 -0.13281,-0.5 -0.47656,-0.75781 -0.33594,-0.26562 -0.83594,-0.26562 -0.64844,0 -1.11719,0.4375 -0.46093,0.42968 -0.64062,1.19531 -0.0937,0.39844 -0.0937,1.72656 v 3.41406 h -2.125002 z"
         style=""
         id="path1196" />
      <path
         d="m 109.77539,283.68029 h 2.125 v 3.13281 h 1.26563 v 1.83594 h -1.26563 v 6.66406 h -2.125 v -6.66406 h -1.09375 v -1.83594 h 1.09375 z"
         style=""
         id="path1198" />
      <path
         d="m 125.08008,286.8131 h 2.125 v 8.5 h -2.125 v -0.89843 q -0.625,0.59375 -1.25781,0.85937 -0.625,0.25781 -1.35938,0.25781 -1.64844,0 -2.85156,-1.27343 -1.20313,-1.28125 -1.20313,-3.17969 0,-1.96875 1.16407,-3.22656 1.16406,-1.25782 2.82812,-1.25782 0.76563,0 1.4375,0.28907 0.67188,0.28906 1.24219,0.86718 z m -2.24219,1.75 q -0.99219,0 -1.64844,0.70313 -0.65625,0.69531 -0.65625,1.78906 0,1.10156 0.66407,1.8125 0.67187,0.71094 1.64843,0.71094 1.00782,0 1.67188,-0.69531 0.66406,-0.70313 0.66406,-1.83594 0,-1.10938 -0.66406,-1.79688 -0.66406,-0.6875 -1.67969,-0.6875 z"
         style=""
         id="path1200" />
      <path
         d="m 129.35352,286.8131 h 2.15625 v 4.09375 q 0,1.19532 0.16406,1.66407 0.16406,0.46093 0.52344,0.71875 0.36718,0.25781 0.89843,0.25781 0.53125,0 0.89844,-0.25 0.375,-0.25781 0.55469,-0.75 0.13281,-0.36719 0.13281,-1.57031 v -4.16407 h 2.14063 v 3.60157 q 0,2.22656 -0.35157,3.04687 -0.42968,1 -1.26562,1.53906 -0.83594,0.53125 -2.125,0.53125 -1.39844,0 -2.26563,-0.625 -0.85937,-0.625 -1.21093,-1.74218 -0.25,-0.77344 -0.25,-2.8125 z"
         style=""
         id="path1202" />
      <path
         d="m 148.62695,288.0006 -1.32031,1.32032 q -0.80469,-0.79688 -1.46094,-0.79688 -0.35937,0 -0.5625,0.15625 -0.20312,0.14844 -0.20312,0.375 0,0.17188 0.125,0.32031 0.13281,0.14063 0.64062,0.39063 l 0.78125,0.39062 q 1.23438,0.60938 1.69532,1.24219 0.46093,0.63281 0.46093,1.48438 0,1.13281 -0.83593,1.89062 -0.82813,0.75781 -2.22657,0.75781 -1.85937,0 -2.96875,-1.45312 l 1.3125,-1.42969 q 0.375,0.4375 0.875,0.71094 0.50782,0.26562 0.89844,0.26562 0.42188,0 0.67969,-0.20312 0.25781,-0.20313 0.25781,-0.46875 0,-0.49219 -0.92969,-0.96094 l -0.71875,-0.35937 q -2.0625,-1.03907 -2.0625,-2.60157 0,-1.00781 0.77344,-1.71875 0.78125,-0.71875 1.99219,-0.71875 0.82812,0 1.55469,0.36719 0.73437,0.35938 1.24218,1.03906 z"
         style=""
         id="path1204" />
      <path
         d="m 149.50977,286.8131 h 2.17968 l 2.21094,5.33594 2.4375,-5.33594 h 2.1875 l -5.32812,11.60938 h -2.20313 l 1.75,-3.74219 z"
         style=""
         id="path1206" />
      <path
         d="m 164.93945,288.0006 -1.32031,1.32032 q -0.80469,-0.79688 -1.46094,-0.79688 -0.35937,0 -0.5625,0.15625 -0.20312,0.14844 -0.20312,0.375 0,0.17188 0.125,0.32031 0.13281,0.14063 0.64062,0.39063 l 0.78125,0.39062 q 1.23438,0.60938 1.69532,1.24219 0.46093,0.63281 0.46093,1.48438 0,1.13281 -0.83593,1.89062 -0.82813,0.75781 -2.22657,0.75781 -1.85937,0 -2.96875,-1.45312 l 1.3125,-1.42969 q 0.375,0.4375 0.875,0.71094 0.50782,0.26562 0.89844,0.26562 0.42188,0 0.67969,-0.20312 0.25781,-0.20313 0.25781,-0.46875 0,-0.49219 -0.92969,-0.96094 l -0.71875,-0.35937 q -2.0625,-1.03907 -2.0625,-2.60157 0,-1.00781 0.77344,-1.71875 0.78125,-0.71875 1.99219,-0.71875 0.82812,0 1.55469,0.36719 0.73437,0.35938 1.24218,1.03906 z"
         style=""
         id="path1208" />
      <path
         d="m 167.02539,283.68029 h 2.125 v 3.13281 h 1.26563 v 1.83594 h -1.26563 v 6.66406 h -2.125 v -6.66406 h -1.09375 v -1.83594 h 1.09375 z"
         style=""
         id="path1210" />
      <path
         d="m 180.0957,291.68029 h -6.85156 q 0.14844,0.90625 0.78906,1.44531 0.64844,0.53125 1.64844,0.53125 1.19531,0 2.05469,-0.83593 l 1.79687,0.84375 q -0.67187,0.95312 -1.60937,1.41406 -0.9375,0.45312 -2.22656,0.45312 -2,0 -3.25782,-1.25781 -1.25781,-1.26562 -1.25781,-3.16406 0,-1.94531 1.25,-3.22656 1.25781,-1.28907 3.14844,-1.28907 2.00781,0 3.26562,1.28907 1.25782,1.28125 1.25782,3.39062 z m -2.14062,-1.67969 q -0.21094,-0.71093 -0.83594,-1.15625 -0.61719,-0.44531 -1.4375,-0.44531 -0.89062,0 -1.5625,0.5 -0.42187,0.3125 -0.78125,1.10156 z m -2.71094,-7.80468 1.86719,3.0625 h -1.53125 l -2.85938,-3.0625 z"
         style=""
         id="path1212" />
      <path
         d="m 181.81445,286.8131 h 2.14063 v 0.97657 q 0.54687,-0.60157 1.21094,-0.89844 0.67187,-0.29688 1.46093,-0.29688 0.79688,0 1.4375,0.39063 0.64063,0.39062 1.03125,1.14062 0.50782,-0.75 1.24219,-1.14062 0.74219,-0.39063 1.61719,-0.39063 0.90625,0 1.59375,0.42188 0.6875,0.42187 0.98437,1.10156 0.30469,0.67969 0.30469,2.21094 v 4.98437 h -2.14844 v -4.3125 q 0,-1.44531 -0.35937,-1.95312 -0.35938,-0.51563 -1.07813,-0.51563 -0.54687,0 -0.98437,0.3125 -0.42969,0.3125 -0.64063,0.86719 -0.21093,0.54688 -0.21093,1.76563 v 3.83593 h -2.14844 v -4.11718 q 0,-1.14063 -0.17188,-1.64844 -0.16406,-0.51563 -0.5,-0.76563 -0.33593,-0.25 -0.8125,-0.25 -0.53125,0 -0.96875,0.32032 -0.42968,0.3125 -0.64843,0.88281 -0.21094,0.57031 -0.21094,1.79687 v 3.78125 h -2.14063 z"
         style=""
         id="path1214" />
      <path
         d="m 205.37695,291.68029 h -6.85156 q 0.14844,0.90625 0.78906,1.44531 0.64844,0.53125 1.64844,0.53125 1.19531,0 2.05469,-0.83593 l 1.79687,0.84375 q -0.67187,0.95312 -1.60937,1.41406 -0.9375,0.45312 -2.22656,0.45312 -2,0 -3.25782,-1.25781 -1.25781,-1.26562 -1.25781,-3.16406 0,-1.94531 1.25,-3.22656 1.25781,-1.28907 3.14844,-1.28907 2.00781,0 3.26562,1.28907 1.25782,1.28125 1.25782,3.39062 z m -2.14062,-1.67969 q -0.21094,-0.71093 -0.83594,-1.15625 -0.61719,-0.44531 -1.4375,-0.44531 -0.89062,0 -1.5625,0.5 -0.42187,0.3125 -0.78125,1.10156 z"
         style=""
         id="path1216" />
      <path
         d="m 56.087891,303.53185 v 4.21875 q 0.578125,-0.57812 1.25,-0.86718 0.671875,-0.28907 1.4375,-0.28907 1.664062,0 2.828125,1.25782 1.164062,1.25781 1.164062,3.22656 0,1.89844 -1.203125,3.17969 -1.203125,1.27343 -2.851562,1.27343 -0.734375,0 -1.367188,-0.25781 -0.632812,-0.26562 -1.257812,-0.85937 v 0.89843 h -2.117188 v -11.78125 z m 2.242187,5.03125 q -1.007812,0 -1.671875,0.6875 -0.664062,0.6875 -0.664062,1.79688 0,1.13281 0.664062,1.83594 0.664063,0.69531 1.671875,0.69531 0.976563,0 1.640625,-0.71094 0.671875,-0.71094 0.671875,-1.8125 0,-1.09375 -0.65625,-1.78906 -0.65625,-0.70313 -1.65625,-0.70313 z"
         style=""
         id="path1218" />
      <path
         d="m 70.814453,306.8131 h 2.125 v 8.5 h -2.125 v -0.89843 q -0.625,0.59375 -1.257812,0.85937 -0.625,0.25781 -1.359375,0.25781 -1.648438,0 -2.851563,-1.27343 -1.203125,-1.28125 -1.203125,-3.17969 0,-1.96875 1.164063,-3.22656 1.164062,-1.25782 2.828125,-1.25782 0.765625,0 1.4375,0.28907 0.671875,0.28906 1.242187,0.86718 z m -2.242187,1.75 q -0.992188,0 -1.648438,0.70313 -0.65625,0.69531 -0.65625,1.78906 0,1.10156 0.664063,1.8125 0.671875,0.71094 1.648437,0.71094 1.007813,0 1.671875,-0.69531 0.664063,-0.70313 0.664063,-1.83594 0,-1.10938 -0.664063,-1.79688 -0.664062,-0.6875 -1.679687,-0.6875 z"
         style=""
         id="path1220" />
      <path
         d="m 75.095703,306.8131 h 2.125 v 0.86719 q 0.726563,-0.60937 1.3125,-0.84375 0.59375,-0.24219 1.210938,-0.24219 1.265625,0 2.148437,0.88282 0.742188,0.75 0.742188,2.21875 v 5.61718 h -2.109375 v -3.72656 q 0,-1.52344 -0.140625,-2.02344 -0.132813,-0.5 -0.476563,-0.75781 -0.335937,-0.26562 -0.835937,-0.26562 -0.648438,0 -1.117188,0.4375 -0.460937,0.42968 -0.640625,1.19531 -0.09375,0.39844 -0.09375,1.72656 v 3.41406 h -2.125 z"
         style=""
         id="path1222" />
      <path
         d="m 93.009766,308.53185 -1.773438,0.97657 q -0.5,-0.52344 -0.992187,-0.72657 -0.484375,-0.20312 -1.140625,-0.20312 -1.195313,0 -1.9375,0.71875 -0.734375,0.71094 -0.734375,1.82812 0,1.08594 0.710937,1.77344 0.710938,0.6875 1.867188,0.6875 1.429687,0 2.226562,-0.97656 l 1.679688,1.14844 q -1.367188,1.77343 -3.859375,1.77343 -2.242188,0 -3.515625,-1.32812 -1.265625,-1.32813 -1.265625,-3.10938 0,-1.23437 0.617187,-2.27343 0.617188,-1.03907 1.71875,-1.63282 1.109375,-0.59375 2.476563,-0.59375 1.265625,0 2.273437,0.50782 1.007813,0.5 1.648438,1.42968 z"
         style=""
         id="path1224" />
      <path
         d="m 101.2207,306.8131 h 2.125 v 8.5 h -2.125 v -0.89843 q -0.625,0.59375 -1.257809,0.85937 -0.625,0.25781 -1.359375,0.25781 -1.648438,0 -2.851563,-1.27343 -1.203125,-1.28125 -1.203125,-3.17969 0,-1.96875 1.164063,-3.22656 1.164062,-1.25782 2.828125,-1.25782 0.765625,0 1.4375,0.28907 0.671874,0.28906 1.242184,0.86718 z m -2.242184,1.75 q -0.992188,0 -1.648438,0.70313 -0.65625,0.69531 -0.65625,1.78906 0,1.10156 0.664063,1.8125 0.671875,0.71094 1.648437,0.71094 1.007813,0 1.671872,-0.69531 0.66407,-0.70313 0.66407,-1.83594 0,-1.10938 -0.66407,-1.79688 -0.664059,-0.6875 -1.679684,-0.6875 z"
         style=""
         id="path1226" />
      <path
         d="m 106.33789,303.3131 q 0.5625,0 0.96094,0.40625 0.40625,0.40625 0.40625,0.98438 0,0.57031 -0.39844,0.97656 -0.39844,0.39844 -0.95312,0.39844 -0.57032,0 -0.97657,-0.40625 -0.39843,-0.41406 -0.39843,-1 0,-0.5625 0.39843,-0.96094 0.39844,-0.39844 0.96094,-0.39844 z m -1.07031,3.5 h 2.14062 v 8.5 h -2.14062 z"
         style=""
         id="path1228" />
      <path
         d="m 108.8457,306.8131 h 1.82813 v 1.07032 q 0.29687,-0.63282 0.78906,-0.96094 0.49219,-0.32813 1.07813,-0.32813 0.41406,0 0.86718,0.21875 l -0.66406,1.83594 q -0.375,-0.1875 -0.61719,-0.1875 -0.49218,0 -0.83593,0.60938 -0.33594,0.60937 -0.33594,2.39062 l 0.008,0.41406 v 3.4375 h -2.11719 z"
         style=""
         id="path1230" />
      <path
         d="m 122.98633,311.68029 h -6.85156 q 0.14843,0.90625 0.78906,1.44531 0.64844,0.53125 1.64844,0.53125 1.19531,0 2.05468,-0.83593 l 1.79688,0.84375 q -0.67188,0.95312 -1.60938,1.41406 -0.9375,0.45312 -2.22656,0.45312 -2,0 -3.25781,-1.25781 -1.25781,-1.26562 -1.25781,-3.16406 0,-1.94531 1.25,-3.22656 1.25781,-1.28907 3.14843,-1.28907 2.00782,0 3.26563,1.28907 1.25781,1.28125 1.25781,3.39062 z m -2.14063,-1.67969 q -0.21093,-0.71093 -0.83593,-1.15625 -0.61719,-0.44531 -1.4375,-0.44531 -0.89063,0 -1.5625,0.5 -0.42188,0.3125 -0.78125,1.10156 z"
         style=""
         id="path1232" />
      <path
         d="m 137.70508,311.68029 h -6.85156 q 0.14843,0.90625 0.78906,1.44531 0.64844,0.53125 1.64844,0.53125 1.19531,0 2.05468,-0.83593 l 1.79688,0.84375 q -0.67188,0.95312 -1.60938,1.41406 -0.9375,0.45312 -2.22656,0.45312 -2,0 -3.25781,-1.25781 -1.25781,-1.26562 -1.25781,-3.16406 0,-1.94531 1.25,-3.22656 1.25781,-1.28907 3.14843,-1.28907 2.00782,0 3.26563,1.28907 1.25781,1.28125 1.25781,3.39062 z m -2.14063,-1.67969 q -0.21093,-0.71093 -0.83593,-1.15625 -0.61719,-0.44531 -1.4375,-0.44531 -0.89063,0 -1.5625,0.5 -0.42188,0.3125 -0.78125,1.10156 z"
         style=""
         id="path1234" />
      <path
         d="m 139.69727,303.68029 h 2.125 v 3.13281 h 1.26562 v 1.83594 h -1.26562 v 6.66406 h -2.125 v -6.66406 h -1.09375 v -1.83594 h 1.09375 z"
         style=""
         id="path1236" />
      <path
         d="m 150.83789,306.8131 v 0.9375 q 0.57813,-0.57812 1.25,-0.86718 0.67188,-0.28907 1.4375,-0.28907 1.66406,0 2.82813,1.25782 1.16406,1.25781 1.16406,3.22656 0,1.89844 -1.20313,3.17969 -1.20312,1.27343 -2.85156,1.27343 -0.73437,0 -1.36719,-0.25781 -0.63281,-0.26562 -1.25781,-0.85937 v 4.00781 H 148.7207 V 306.8131 Z m 2.24219,1.75 q -1.00781,0 -1.67188,0.6875 -0.66406,0.6875 -0.66406,1.79688 0,1.13281 0.66406,1.83594 0.66407,0.69531 1.67188,0.69531 0.97656,0 1.64062,-0.71094 0.67188,-0.71094 0.67188,-1.8125 0,-1.09375 -0.65625,-1.78906 -0.65625,-0.70313 -1.65625,-0.70313 z"
         style=""
         id="path1238" />
      <path
         d="m 167.79883,311.68029 h -6.85156 q 0.14843,0.90625 0.78906,1.44531 0.64844,0.53125 1.64844,0.53125 1.19531,0 2.05468,-0.83593 l 1.79688,0.84375 q -0.67188,0.95312 -1.60938,1.41406 -0.9375,0.45312 -2.22656,0.45312 -2,0 -3.25781,-1.25781 -1.25781,-1.26562 -1.25781,-3.16406 0,-1.94531 1.25,-3.22656 1.25781,-1.28907 3.14843,-1.28907 2.00782,0 3.26563,1.28907 1.25781,1.28125 1.25781,3.39062 z m -2.14063,-1.67969 q -0.21093,-0.71093 -0.83593,-1.15625 -0.61719,-0.44531 -1.4375,-0.44531 -0.89063,0 -1.5625,0.5 -0.42188,0.3125 -0.78125,1.10156 z"
         style=""
         id="path1240" />
      <path
         d="m 169.52539,306.8131 h 2.15625 v 4.09375 q 0,1.19532 0.16406,1.66407 0.16407,0.46093 0.52344,0.71875 0.36719,0.25781 0.89844,0.25781 0.53125,0 0.89844,-0.25 0.375,-0.25781 0.55468,-0.75 0.13282,-0.36719 0.13282,-1.57031 v -4.16407 h 2.14062 v 3.60157 q 0,2.22656 -0.35156,3.04687 -0.42969,1 -1.26563,1.53906 -0.83593,0.53125 -2.125,0.53125 -1.39843,0 -2.26562,-0.625 -0.85938,-0.625 -1.21094,-1.74218 -0.25,-0.77344 -0.25,-2.8125 z"
         style=""
         id="path1242" />
      <path
         d="m 178.21289,306.8131 h 2.17188 l 2.14843,5.01563 2.14063,-5.01563 h 2.16406 l -3.61719,8.5 h -1.38281 z"
         style=""
         id="path1244" />
      <path
         d="m 196.61133,311.68029 h -6.85156 q 0.14843,0.90625 0.78906,1.44531 0.64844,0.53125 1.64844,0.53125 1.19531,0 2.05468,-0.83593 l 1.79688,0.84375 q -0.67188,0.95312 -1.60938,1.41406 -0.9375,0.45312 -2.22656,0.45312 -2,0 -3.25781,-1.25781 -1.25781,-1.26562 -1.25781,-3.16406 0,-1.94531 1.25,-3.22656 1.25781,-1.28907 3.14843,-1.28907 2.00782,0 3.26563,1.28907 1.25781,1.28125 1.25781,3.39062 z m -2.14063,-1.67969 q -0.21093,-0.71093 -0.83593,-1.15625 -0.61719,-0.44531 -1.4375,-0.44531 -0.89063,0 -1.5625,0.5 -0.42188,0.3125 -0.78125,1.10156 z"
         style=""
         id="path1246" />
      <path
         d="m 198.3457,306.8131 h 2.125 v 0.86719 q 0.72657,-0.60937 1.3125,-0.84375 0.59375,-0.24219 1.21094,-0.24219 1.26563,0 2.14844,0.88282 0.74219,0.75 0.74219,2.21875 v 5.61718 h -2.10938 v -3.72656 q 0,-1.52344 -0.14062,-2.02344 -0.13282,-0.5 -0.47657,-0.75781 -0.33593,-0.26562 -0.83593,-0.26562 -0.64844,0 -1.11719,0.4375 -0.46094,0.42968 -0.64063,1.19531 -0.0937,0.39844 -0.0937,1.72656 v 3.41406 h -2.125 z"
         style=""
         id="path1248" />
      <path
         d="m 208.19727,303.68029 h 2.125 v 3.13281 h 1.26562 v 1.83594 h -1.26562 v 6.66406 h -2.125 v -6.66406 h -1.09375 v -1.83594 h 1.09375 z"
         style=""
         id="path1250" />
      <path
         d="m 48.892578,326.8131 h 2.125 v 8.5 h -2.125 v -0.89843 q -0.625,0.59375 -1.257812,0.85937 -0.625,0.25781 -1.359375,0.25781 -1.648438,0 -2.851563,-1.27343 -1.203125,-1.28125 -1.203125,-3.17969 0,-1.96875 1.164063,-3.22656 1.164062,-1.25782 2.828125,-1.25782 0.765625,0 1.4375,0.28907 0.671875,0.28906 1.242187,0.86718 z m -2.242187,1.75 q -0.992188,0 -1.648438,0.70313 -0.65625,0.69531 -0.65625,1.78906 0,1.10156 0.664063,1.8125 0.671875,0.71094 1.648437,0.71094 1.007813,0 1.671875,-0.69531 0.664063,-0.70313 0.664063,-1.83594 0,-1.10938 -0.664063,-1.79688 -0.664062,-0.6875 -1.679687,-0.6875 z"
         style=""
         id="path1252" />
      <path
         d="m 52.158203,326.8131 h 0.757813 q 0.0078,-1.67187 0.05469,-1.97656 0.08594,-0.70312 0.585938,-1.10937 0.507812,-0.41407 1.429687,-0.41407 0.664063,0 1.5,0.30469 v 1.625 q -0.460937,-0.13281 -0.757812,-0.13281 -0.375,0 -0.546875,0.15625 -0.125,0.11719 -0.125,0.48437 l -0.0078,1.0625 h 1.351563 v 1.8125 h -1.351563 v 6.6875 h -2.132812 v -6.6875 h -0.757813 z"
         style=""
         id="path1254" />
      <path
         d="m 56.626953,326.8131 h 0.757813 q 0.0078,-1.67187 0.05469,-1.97656 0.08594,-0.70312 0.585938,-1.10937 0.507812,-0.41407 1.429687,-0.41407 0.664063,0 1.5,0.30469 v 1.625 q -0.460937,-0.13281 -0.757812,-0.13281 -0.375,0 -0.546875,0.15625 -0.125,0.11719 -0.125,0.48437 l -0.0078,1.0625 h 1.351563 v 1.8125 h -1.351563 v 6.6875 h -2.132812 v -6.6875 h -0.757813 z"
         style=""
         id="path1256" />
      <path
         d="m 68.392578,326.8131 h 2.125 v 8.5 h -2.125 v -0.89843 q -0.625,0.59375 -1.257812,0.85937 -0.625,0.25781 -1.359375,0.25781 -1.648438,0 -2.851563,-1.27343 -1.203125,-1.28125 -1.203125,-3.17969 0,-1.96875 1.164063,-3.22656 1.164062,-1.25782 2.828125,-1.25782 0.765625,0 1.4375,0.28907 0.671875,0.28906 1.242187,0.86718 z m -2.242187,1.75 q -0.992188,0 -1.648438,0.70313 -0.65625,0.69531 -0.65625,1.78906 0,1.10156 0.664063,1.8125 0.671875,0.71094 1.648437,0.71094 1.007813,0 1.671875,-0.69531 0.664063,-0.70313 0.664063,-1.83594 0,-1.10938 -0.664063,-1.79688 -0.664062,-0.6875 -1.679687,-0.6875 z"
         style=""
         id="path1258" />
      <path
         d="m 73.509766,323.3131 q 0.5625,0 0.960937,0.40625 0.40625,0.40625 0.40625,0.98438 0,0.57031 -0.398437,0.97656 -0.398438,0.39844 -0.953125,0.39844 -0.570313,0 -0.976563,-0.40625 -0.398437,-0.41406 -0.398437,-1 0,-0.5625 0.398437,-0.96094 0.398438,-0.39844 0.960938,-0.39844 z m -1.070313,3.5 h 2.140625 v 8.5 h -2.140625 z"
         style=""
         id="path1260" />
      <path
         d="m 78.634766,323.53185 v 4.21875 q 0.578125,-0.57812 1.25,-0.86718 0.671875,-0.28907 1.4375,-0.28907 1.664062,0 2.828125,1.25782 1.164062,1.25781 1.164062,3.22656 0,1.89844 -1.203125,3.17969 -1.203125,1.27343 -2.851562,1.27343 -0.734375,0 -1.367188,-0.25781 -0.632812,-0.26562 -1.257812,-0.85937 v 0.89843 h -2.117188 v -11.78125 z m 2.242187,5.03125 q -1.007812,0 -1.671875,0.6875 -0.664062,0.6875 -0.664062,1.79688 0,1.13281 0.664062,1.83594 0.664063,0.69531 1.671875,0.69531 0.976563,0 1.640625,-0.71094 0.671875,-0.71094 0.671875,-1.8125 0,-1.09375 -0.65625,-1.78906 -0.65625,-0.70313 -1.65625,-0.70313 z"
         style=""
         id="path1262" />
      <path
         d="m 86.853516,323.53185 h 2.132812 v 11.78125 h -2.132812 z"
         style=""
         id="path1264" />
      <path
         d="m 91.759766,323.3131 q 0.5625,0 0.960937,0.40625 0.40625,0.40625 0.40625,0.98438 0,0.57031 -0.398437,0.97656 -0.398438,0.39844 -0.953125,0.39844 -0.570313,0 -0.976563,-0.40625 -0.398437,-0.41406 -0.398437,-1 0,-0.5625 0.398437,-0.96094 0.398438,-0.39844 0.960938,-0.39844 z m -1.070313,3.5 h 2.140625 v 8.5 h -2.140625 z"
         style=""
         id="path1266" />
      <path
         d="m 94.267578,326.8131 h 1.828125 v 1.07032 q 0.296875,-0.63282 0.789063,-0.96094 0.492187,-0.32813 1.078125,-0.32813 0.414062,0 0.867187,0.21875 l -0.664062,1.83594 q -0.375,-0.1875 -0.617188,-0.1875 -0.492187,0 -0.835937,0.60938 -0.335938,0.60937 -0.335938,2.39062 l 0.0078,0.41406 v 3.4375 h -2.117188 z"
         style=""
         id="path1268" />
      <path
         d="m 104.13477,323.53185 h 2.13281 v 11.78125 h -2.13281 z"
         style=""
         id="path1270" />
      <path
         d="m 109.49414,327.46935 h -1.21875 l -0.42969,-3.9375 h 2.07813 z"
         style=""
         id="path1272" />
      <path
         d="m 118.01758,326.8131 h 2.125 v 8.5 h -2.125 v -0.89843 q -0.625,0.59375 -1.25781,0.85937 -0.625,0.25781 -1.35938,0.25781 -1.64844,0 -2.85156,-1.27343 -1.20313,-1.28125 -1.20313,-3.17969 0,-1.96875 1.16407,-3.22656 1.16406,-1.25782 2.82812,-1.25782 0.76563,0 1.4375,0.28907 0.67188,0.28906 1.24219,0.86718 z m -2.24219,1.75 q -0.99219,0 -1.64844,0.70313 -0.65625,0.69531 -0.65625,1.78906 0,1.10156 0.66407,1.8125 0.67187,0.71094 1.64843,0.71094 1.00782,0 1.67188,-0.69531 0.66406,-0.70313 0.66406,-1.83594 0,-1.10938 -0.66406,-1.79688 -0.66406,-0.6875 -1.67969,-0.6875 z"
         style=""
         id="path1274" />
      <path
         d="m 124.41602,326.8131 v 0.9375 q 0.57812,-0.57812 1.25,-0.86718 0.67187,-0.28907 1.4375,-0.28907 1.66406,0 2.82812,1.25782 1.16406,1.25781 1.16406,3.22656 0,1.89844 -1.20312,3.17969 -1.20313,1.27343 -2.85156,1.27343 -0.73438,0 -1.36719,-0.25781 -0.63281,-0.26562 -1.25781,-0.85937 v 4.00781 h -2.11719 V 326.8131 Z m 2.24218,1.75 q -1.00781,0 -1.67187,0.6875 -0.66406,0.6875 -0.66406,1.79688 0,1.13281 0.66406,1.83594 0.66406,0.69531 1.67187,0.69531 0.97657,0 1.64063,-0.71094 0.67187,-0.71094 0.67187,-1.8125 0,-1.09375 -0.65625,-1.78906 -0.65625,-0.70313 -1.65625,-0.70313 z"
         style=""
         id="path1276" />
      <path
         d="m 134.97852,326.8131 v 0.9375 q 0.57812,-0.57812 1.25,-0.86718 0.67187,-0.28907 1.4375,-0.28907 1.66406,0 2.82812,1.25782 1.16406,1.25781 1.16406,3.22656 0,1.89844 -1.20312,3.17969 -1.20313,1.27343 -2.85156,1.27343 -0.73438,0 -1.36719,-0.25781 -0.63281,-0.26562 -1.25781,-0.85937 v 4.00781 h -2.11719 V 326.8131 Z m 2.24218,1.75 q -1.00781,0 -1.67187,0.6875 -0.66406,0.6875 -0.66406,1.79688 0,1.13281 0.66406,1.83594 0.66406,0.69531 1.67187,0.69531 0.97657,0 1.64063,-0.71094 0.67187,-0.71094 0.67187,-1.8125 0,-1.09375 -0.65625,-1.78906 -0.65625,-0.70313 -1.65625,-0.70313 z"
         style=""
         id="path1278" />
      <path
         d="m 149.70508,326.8131 h 2.125 v 8.5 h -2.125 v -0.89843 q -0.625,0.59375 -1.25781,0.85937 -0.625,0.25781 -1.35938,0.25781 -1.64844,0 -2.85156,-1.27343 -1.20313,-1.28125 -1.20313,-3.17969 0,-1.96875 1.16407,-3.22656 1.16406,-1.25782 2.82812,-1.25782 0.76563,0 1.4375,0.28907 0.67188,0.28906 1.24219,0.86718 z m -2.24219,1.75 q -0.99219,0 -1.64844,0.70313 -0.65625,0.69531 -0.65625,1.78906 0,1.10156 0.66407,1.8125 0.67187,0.71094 1.64843,0.71094 1.00782,0 1.67188,-0.69531 0.66406,-0.70313 0.66406,-1.83594 0,-1.10938 -0.66406,-1.79688 -0.66406,-0.6875 -1.67969,-0.6875 z"
         style=""
         id="path1280" />
      <path
         d="m 153.48633,326.8131 h 1.82812 v 1.07032 q 0.29688,-0.63282 0.78907,-0.96094 0.49218,-0.32813 1.07812,-0.32813 0.41406,0 0.86719,0.21875 l -0.66406,1.83594 q -0.375,-0.1875 -0.61719,-0.1875 -0.49219,0 -0.83594,0.60938 -0.33594,0.60937 -0.33594,2.39062 l 0.008,0.41406 v 3.4375 h -2.11719 z"
         style=""
         id="path1282" />
      <path
         d="m 167.62695,331.68029 h -6.85156 q 0.14844,0.90625 0.78906,1.44531 0.64844,0.53125 1.64844,0.53125 1.19531,0 2.05469,-0.83593 l 1.79687,0.84375 q -0.67187,0.95312 -1.60937,1.41406 -0.9375,0.45312 -2.22656,0.45312 -2,0 -3.25782,-1.25781 -1.25781,-1.26562 -1.25781,-3.16406 0,-1.94531 1.25,-3.22656 1.25781,-1.28907 3.14844,-1.28907 2.00781,0 3.26562,1.28907 1.25782,1.28125 1.25782,3.39062 z m -2.14062,-1.67969 q -0.21094,-0.71093 -0.83594,-1.15625 -0.61719,-0.44531 -1.4375,-0.44531 -0.89062,0 -1.5625,0.5 -0.42187,0.3125 -0.78125,1.10156 z"
         style=""
         id="path1284" />
      <path
         d="m 170.19727,323.3131 q 0.5625,0 0.96093,0.40625 0.40625,0.40625 0.40625,0.98438 0,0.57031 -0.39843,0.97656 -0.39844,0.39844 -0.95313,0.39844 -0.57031,0 -0.97656,-0.40625 -0.39844,-0.41406 -0.39844,-1 0,-0.5625 0.39844,-0.96094 0.39844,-0.39844 0.96094,-0.39844 z m -1.07032,3.5 h 2.14063 v 8.5 h -2.14063 z"
         style=""
         id="path1286" />
      <path
         d="m 172.97852,323.53185 h 2.13281 v 11.78125 h -2.13281 z"
         style=""
         id="path1288" />
      <path
         d="m 187.79883,323.53185 h 2.125 v 11.78125 h -2.125 v -0.89843 q -0.625,0.59375 -1.25781,0.85937 -0.625,0.25781 -1.35938,0.25781 -1.64844,0 -2.85156,-1.27343 -1.20313,-1.28125 -1.20313,-3.17969 0,-1.96875 1.16407,-3.22656 1.16406,-1.25782 2.82812,-1.25782 0.76563,0 1.4375,0.28907 0.67188,0.28906 1.24219,0.86718 z m -2.24219,5.03125 q -0.99219,0 -1.64844,0.70313 -0.65625,0.69531 -0.65625,1.78906 0,1.10156 0.66407,1.8125 0.67187,0.71094 1.64843,0.71094 1.00782,0 1.67188,-0.69531 0.66406,-0.70313 0.66406,-1.83594 0,-1.10938 -0.66406,-1.79688 -0.66406,-0.6875 -1.67969,-0.6875 z"
         style=""
         id="path1290" />
      <path
         d="m 193.36914,327.46935 h -1.21875 l -0.42969,-3.9375 h 2.07813 z"
         style=""
         id="path1292" />
      <path
         d="m 195.85352,323.82092 h 6.27343 v 2.14062 h -4.10156 v 2.07813 h 4.10156 v 2.10156 h -4.10156 v 3.02344 h 4.10156 v 2.14843 h -6.27343 z m 3.5,-3.95313 h 2.52343 l -2.85937,3.0625 h -1.53125 z"
         style=""
         id="path1294" />
      <path
         d="m 204.18164,323.68029 h 2.125 v 3.13281 h 1.26563 v 1.83594 h -1.26563 v 6.66406 h -2.125 v -6.66406 h -1.09375 v -1.83594 h 1.09375 z"
         style=""
         id="path1296" />
      <path
         d="m 215.01758,326.8131 h 2.125 v 8.5 h -2.125 v -0.89843 q -0.625,0.59375 -1.25781,0.85937 -0.625,0.25781 -1.35938,0.25781 -1.64844,0 -2.85156,-1.27343 -1.20313,-1.28125 -1.20313,-3.17969 0,-1.96875 1.16407,-3.22656 1.16406,-1.25782 2.82812,-1.25782 0.76563,0 1.4375,0.28907 0.67188,0.28906 1.24219,0.86718 z m -2.24219,1.75 q -0.99219,0 -1.64844,0.70313 -0.65625,0.69531 -0.65625,1.78906 0,1.10156 0.66407,1.8125 0.67187,0.71094 1.64843,0.71094 1.00782,0 1.67188,-0.69531 0.66406,-0.70313 0.66406,-1.83594 0,-1.10938 -0.66406,-1.79688 -0.66406,-0.6875 -1.67969,-0.6875 z"
         style=""
         id="path1298" />
      <path
         d="m 219.55664,323.68029 h 2.125 v 3.13281 h 1.26563 v 1.83594 h -1.26563 v 6.66406 h -2.125 v -6.66406 h -1.09375 v -1.83594 h 1.09375 z"
         style=""
         id="path1300" />
    </g>
  </g>
</svg>
