<?xml version="1.0" standalone="no"?><!-- Generator: Gravit.io --><svg xmlns="http://www.w3.org/2000/svg" xmlns:xlink="http://www.w3.org/1999/xlink" style="isolation:isolate" viewBox="0 0 264.567 377.953" width="264.567" height="377.953"><defs><clipPath id="_clipPath_FpxkC0FnAmSrYwb0SzbjKQwnUA32y70I"><rect width="264.567" height="377.953"/></clipPath></defs><g clip-path="url(#_clipPath_FpxkC0FnAmSrYwb0SzbjKQwnUA32y70I)"><rect x="0" y="0" width="264.567" height="377.953" transform="matrix(1,0,0,1,0,0)" fill="rgb(255,255,255)"/><g id="g875"><g id="g915"><path d=" M 132.283 82.85 C 105.77 82.85 84.268 104.35 84.268 130.864 C 84.268 136.164 85.127 141.262 86.714 146.031 L 101.073 146.031 L 101.073 105.633 L 132.283 136.842 L 163.492 105.633 L 163.492 146.031 L 177.853 146.031 C 179.44 141.262 180.299 136.164 180.299 130.864 C 180.299 104.35 158.797 82.85 132.283 82.85 Z " fill="rgb(255,102,0)"/><path d=" M 111.487 130.396 L 111.487 155.816 L 91.254 155.816 C 99.683 169.644 114.906 178.879 132.282 178.879 C 149.658 178.879 164.882 169.644 173.31 155.816 L 153.079 155.816 L 153.079 130.396 L 132.282 151.193 L 111.487 130.396 Z " fill="rgb(76,76,76)"/></g></g><g id="g861"><path d=" M 18.898 249.458 L 18.898 251.114 L 18.898 359.055 L 245.669 359.055 L 245.669 249.458 L 18.898 249.458 Z  M 22.202 252.763 L 242.364 252.763 L 242.364 355.75 L 22.202 355.75 L 22.202 252.763 Z " fill="rgb(76,76,76)"/></g><path d=" M 83.542 32.489 L 83.542 59.616 L 78.532 59.616 L 78.532 36.924 L 71.834 36.924 L 71.834 59.616 L 66.787 59.616 L 66.787 32.489 L 83.542 32.489 Z  M 106.995 46.016 L 106.995 46.016 L 106.995 46.016 Q 106.995 52.751 104.472 56.369 L 104.472 56.369 L 104.472 56.369 Q 101.949 59.987 97.254 59.987 L 97.254 59.987 L 97.254 59.987 Q 92.541 59.987 90.018 56.378 L 90.018 56.378 L 90.018 56.378 Q 87.494 52.77 87.494 45.979 L 87.494 45.979 L 87.494 45.979 Q 87.494 39.243 90.018 35.653 L 90.018 35.653 L 90.018 35.653 Q 92.541 32.063 97.291 32.063 L 97.291 32.063 L 97.291 32.063 Q 101.986 32.063 104.49 35.671 L 104.49 35.671 L 104.49 35.671 Q 106.995 39.28 106.995 46.016 Z  M 92.653 46.016 L 92.653 46.016 L 92.653 46.016 Q 92.653 50.654 93.822 53.085 L 93.822 53.085 L 93.822 53.085 Q 94.99 55.516 97.254 55.516 L 97.254 55.516 L 97.254 55.516 Q 101.819 55.516 101.819 46.016 L 101.819 46.016 L 101.819 46.016 Q 101.819 36.516 97.291 36.516 L 97.291 36.516 L 97.291 36.516 Q 94.99 36.516 93.822 38.937 L 93.822 38.937 L 93.822 38.937 Q 92.653 41.358 92.653 46.016 Z  M 121.06 45.552 L 128.649 59.616 L 122.99 59.616 L 116.032 45.867 L 116.032 59.616 L 111.022 59.616 L 111.022 32.489 L 116.032 32.489 L 116.032 45.626 L 123.101 32.489 L 128.5 32.489 L 121.06 45.552 Z  M 132.638 59.987 L 132.638 59.987 L 132.638 59.987 Q 130.69 59.987 129.372 59.468 L 129.372 59.468 L 129.372 54.978 L 129.372 54.978 Q 130.727 55.516 132.174 55.516 L 132.174 55.516 L 132.174 55.516 Q 134.401 55.516 135.607 51.378 L 135.607 51.378 L 128.649 32.489 L 133.937 32.489 L 137.388 43.084 L 137.388 43.084 Q 137.815 44.55 137.926 45.589 L 137.926 45.589 L 138.074 45.589 L 138.334 44.327 L 138.613 43.084 L 141.563 32.489 L 146.665 32.489 L 140.616 51.675 L 140.616 51.675 Q 139.169 56.221 137.304 58.104 L 137.304 58.104 L 137.304 58.104 Q 135.44 59.987 132.638 59.987 Z  M 165.814 32.489 L 165.814 59.616 L 160.804 59.616 L 160.804 36.924 L 154.106 36.924 L 154.106 59.616 L 149.059 59.616 L 149.059 32.489 L 165.814 32.489 Z  M 188.506 59.616 L 183.441 59.616 L 181.882 52.77 L 174.813 52.77 L 173.254 59.616 L 168.207 59.616 L 174.924 32.378 L 181.771 32.378 L 188.506 59.616 Z  M 175.815 48.298 L 180.936 48.298 L 179.489 41.989 L 179.489 41.989 Q 179.359 41.414 178.904 39.104 L 178.904 39.104 L 178.904 39.104 Q 178.449 36.794 178.357 36.015 L 178.357 36.015 L 178.357 36.015 Q 178.115 37.61 177.744 39.531 L 177.744 39.531 L 177.744 39.531 Q 177.373 41.451 175.815 48.298 L 175.815 48.298 Z  M 190.9 59.616 L 190.9 32.489 L 195.575 32.489 L 195.575 47.389 L 195.575 47.389 Q 195.575 49.708 195.223 51.972 L 195.223 51.972 L 195.427 51.972 L 203.702 32.489 L 209.9 32.489 L 209.9 59.616 L 205.261 59.616 L 205.261 44.754 L 205.261 44.754 Q 205.261 42.008 205.688 39.93 L 205.688 39.93 L 205.447 39.93 L 197.134 59.616 L 190.9 59.616 Z  M 202.997 24.307 L 207.172 24.307 L 207.172 24.307 Q 206.801 27.424 205.14 28.871 L 205.14 28.871 L 205.14 28.871 Q 203.48 30.318 200.251 30.318 L 200.251 30.318 L 200.251 30.318 Q 197.097 30.318 195.52 28.899 L 195.52 28.899 L 195.52 28.899 Q 193.943 27.479 193.646 24.307 L 193.646 24.307 L 197.746 24.307 L 197.746 24.307 Q 197.95 26.162 198.535 26.812 L 198.535 26.812 L 198.535 26.812 Q 199.119 27.461 200.363 27.461 L 200.363 27.461 L 200.363 27.461 Q 201.587 27.461 202.19 26.719 L 202.19 26.719 L 202.19 26.719 Q 202.793 25.977 202.997 24.307 L 202.997 24.307 Z  M 223.018 36.924 L 223.018 59.616 L 217.99 59.616 L 217.99 36.924 L 212.794 36.924 L 212.794 32.489 L 228.213 32.489 L 228.213 36.924 L 223.018 36.924 Z  M 243.335 55.2 L 243.335 59.616 L 231.108 59.616 L 231.108 32.489 L 243.335 32.489 L 243.335 36.85 L 236.155 36.85 L 236.155 43.307 L 242.816 43.307 L 242.816 47.686 L 236.155 47.686 L 236.155 55.2 L 243.335 55.2 Z  M 36.432 32.489 L 36.432 59.616 L 31.385 59.616 L 31.385 47.723 L 24.724 47.723 L 24.724 59.616 L 19.677 59.616 L 19.677 32.489 L 24.724 32.489 L 24.724 43.27 L 31.385 43.27 L 31.385 32.489 L 36.432 32.489 Z  M 53.447 55.2 L 53.447 59.616 L 41.219 59.616 L 41.219 32.489 L 53.447 32.489 L 53.447 36.85 L 46.266 36.85 L 46.266 43.307 L 52.927 43.307 L 52.927 47.686 L 46.266 47.686 L 46.266 55.2 L 53.447 55.2 Z " fill-rule="evenodd" fill="rgb(76,76,76)"/><path d=" M 62.514 217.754 L 56.967 217.754 L 50.092 195.352 L 49.916 195.352 L 49.916 195.352 Q 50.287 202.188 50.287 204.473 L 50.287 204.473 L 50.287 217.754 L 44.877 217.754 L 44.877 189.199 L 53.119 189.199 L 59.877 211.035 L 59.994 211.035 L 67.162 189.199 L 75.405 189.199 L 75.405 217.754 L 69.76 217.754 L 69.76 204.238 L 69.76 204.238 Q 69.76 203.281 69.789 202.031 L 69.789 202.031 L 69.789 202.031 Q 69.819 200.781 70.053 195.391 L 70.053 195.391 L 69.877 195.391 L 62.514 217.754 Z  M 108.51 203.438 L 108.51 203.438 L 108.51 203.438 Q 108.51 210.527 104.994 214.336 L 104.994 214.336 L 104.994 214.336 Q 101.479 218.145 94.916 218.145 L 94.916 218.145 L 94.916 218.145 Q 88.354 218.145 84.838 214.336 L 84.838 214.336 L 84.838 214.336 Q 81.323 210.527 81.323 203.398 L 81.323 203.398 L 81.323 203.398 Q 81.323 196.27 84.848 192.51 L 84.848 192.51 L 84.848 192.51 Q 88.373 188.75 94.955 188.75 L 94.955 188.75 L 94.955 188.75 Q 101.537 188.75 105.024 192.539 L 105.024 192.539 L 105.024 192.539 Q 108.51 196.328 108.51 203.438 Z  M 87.67 203.438 L 87.67 203.438 L 87.67 203.438 Q 87.67 208.223 89.487 210.645 L 89.487 210.645 L 89.487 210.645 Q 91.303 213.066 94.916 213.066 L 94.916 213.066 L 94.916 213.066 Q 102.162 213.066 102.162 203.438 L 102.162 203.438 L 102.162 203.438 Q 102.162 193.789 94.955 193.789 L 94.955 193.789 L 94.955 193.789 Q 91.342 193.789 89.506 196.221 L 89.506 196.221 L 89.506 196.221 Q 87.67 198.652 87.67 203.438 Z  M 137.826 189.199 L 137.826 217.754 L 131.791 217.754 L 131.791 205.43 L 120.483 205.43 L 120.483 217.754 L 114.428 217.754 L 114.428 189.199 L 120.483 189.199 L 120.483 200.391 L 131.791 200.391 L 131.791 189.199 L 137.826 189.199 Z  M 161.479 212.754 L 161.479 217.754 L 145.033 217.754 L 145.033 189.199 L 161.479 189.199 L 161.479 194.16 L 151.088 194.16 L 151.088 200.43 L 160.756 200.43 L 160.756 205.391 L 151.088 205.391 L 151.088 212.754 L 161.479 212.754 Z  M 173.49 194.16 L 173.49 202.637 L 175.483 202.637 L 175.483 202.637 Q 178.276 202.637 179.662 201.533 L 179.662 201.533 L 179.662 201.533 Q 181.049 200.43 181.049 198.32 L 181.049 198.32 L 181.049 198.32 Q 181.049 196.191 179.887 195.176 L 179.887 195.176 L 179.887 195.176 Q 178.725 194.16 176.244 194.16 L 176.244 194.16 L 173.49 194.16 Z  M 187.162 198.105 L 187.162 198.105 L 187.162 198.105 Q 187.162 202.715 184.282 205.156 L 184.282 205.156 L 184.282 205.156 Q 181.401 207.598 176.088 207.598 L 176.088 207.598 L 173.49 207.598 L 173.49 217.754 L 167.436 217.754 L 167.436 189.199 L 176.557 189.199 L 176.557 189.199 Q 181.752 189.199 184.457 191.436 L 184.457 191.436 L 184.457 191.436 Q 187.162 193.672 187.162 198.105 Z  M 218.471 203.438 L 218.471 203.438 L 218.471 203.438 Q 218.471 210.527 214.955 214.336 L 214.955 214.336 L 214.955 214.336 Q 211.44 218.145 204.877 218.145 L 204.877 218.145 L 204.877 218.145 Q 198.315 218.145 194.799 214.336 L 194.799 214.336 L 194.799 214.336 Q 191.283 210.527 191.283 203.398 L 191.283 203.398 L 191.283 203.398 Q 191.283 196.27 194.809 192.51 L 194.809 192.51 L 194.809 192.51 Q 198.334 188.75 204.916 188.75 L 204.916 188.75 L 204.916 188.75 Q 211.498 188.75 214.985 192.539 L 214.985 192.539 L 214.985 192.539 Q 218.471 196.328 218.471 203.438 Z  M 197.631 203.438 L 197.631 203.438 L 197.631 203.438 Q 197.631 208.223 199.448 210.645 L 199.448 210.645 L 199.448 210.645 Q 201.264 213.066 204.877 213.066 L 204.877 213.066 L 204.877 213.066 Q 212.123 213.066 212.123 203.438 L 212.123 203.438 L 212.123 203.438 Q 212.123 193.789 204.916 193.789 L 204.916 193.789 L 204.916 193.789 Q 201.303 193.789 199.467 196.221 L 199.467 196.221 L 199.467 196.221 Q 197.631 198.652 197.631 203.438 Z " fill-rule="evenodd" fill="rgb(76,76,76)"/><path d=" M 177.65 331.446 L 177.65 341.237 L 175.558 341.237 L 175.558 333.282 L 175.558 333.282 Q 175.303 334.706 174.838 336.482 L 174.838 336.482 L 173.563 341.237 L 171.577 341.237 L 170.303 336.464 L 170.303 336.464 Q 169.889 334.926 169.582 333.282 L 169.582 333.282 L 169.582 341.237 L 167.534 341.237 L 167.534 331.446 L 170.9 331.446 L 172.087 336.016 L 172.087 336.016 Q 172.473 337.545 172.553 338.864 L 172.553 338.864 L 172.553 338.864 Q 172.588 338.415 172.741 337.607 L 172.741 337.607 L 172.741 337.607 Q 172.895 336.798 173.089 336.016 L 173.089 336.016 L 174.302 331.446 L 177.65 331.446 Z  M 186.123 341.237 L 184.409 341.237 L 183.943 339.901 L 183.89 339.901 L 183.89 339.901 Q 183.372 340.762 182.818 341.087 L 182.818 341.087 L 182.818 341.087 Q 182.264 341.412 181.421 341.412 L 181.421 341.412 L 181.421 341.412 Q 180.34 341.412 179.72 340.604 L 179.72 340.604 L 179.72 340.604 Q 179.1 339.795 179.1 338.354 L 179.1 338.354 L 179.1 338.354 Q 179.1 336.807 179.949 336.055 L 179.949 336.055 L 179.949 336.055 Q 180.797 335.304 182.484 335.225 L 182.484 335.225 L 183.785 335.172 L 183.785 334.469 L 183.785 334.469 Q 183.785 333.098 182.598 333.098 L 182.598 333.098 L 182.598 333.098 Q 181.719 333.098 180.577 333.783 L 180.577 333.783 L 179.768 332.166 L 179.768 332.166 Q 181.227 331.243 182.941 331.243 L 182.941 331.243 L 182.941 331.243 Q 184.497 331.243 185.31 332.136 L 185.31 332.136 L 185.31 332.136 Q 186.123 333.028 186.123 334.662 L 186.123 334.662 L 186.123 341.237 Z  M 182.379 339.584 L 182.379 339.584 L 182.379 339.584 Q 183.02 339.584 183.403 339.009 L 183.403 339.009 L 183.403 339.009 Q 183.785 338.433 183.785 337.475 L 183.785 337.475 L 183.785 336.649 L 183.064 336.684 L 183.064 336.684 Q 182.264 336.728 181.891 337.141 L 181.891 337.141 L 181.891 337.141 Q 181.517 337.554 181.517 338.371 L 181.517 338.371 L 181.517 338.371 Q 181.517 339.584 182.379 339.584 Z  M 199.491 331.446 L 199.491 341.237 L 188.012 341.237 L 188.012 331.446 L 190.35 331.446 L 190.35 339.347 L 192.565 339.347 L 192.565 331.446 L 194.921 331.446 L 194.921 339.347 L 197.136 339.347 L 197.136 331.446 L 199.491 331.446 Z  M 201.477 331.446 L 203.648 331.446 L 203.648 335.981 L 203.648 335.981 Q 203.648 336.824 203.437 338.784 L 203.437 338.784 L 206.619 331.446 L 209.484 331.446 L 209.484 341.237 L 207.304 341.237 L 207.304 336.631 L 207.304 336.631 Q 207.304 335.594 207.507 333.836 L 207.507 333.836 L 204.316 341.237 L 201.477 341.237 L 201.477 331.446 Z  M 211.47 331.446 L 213.808 331.446 L 213.808 335.26 L 216.454 335.26 L 216.454 331.446 L 218.809 331.446 L 218.809 341.237 L 216.454 341.237 L 216.454 337.132 L 213.808 337.132 L 213.808 341.237 L 211.47 341.237 L 211.47 331.446 Z  M 222.685 341.395 L 219.785 331.446 L 222.211 331.446 L 223.564 336.974 L 223.564 336.974 Q 223.766 337.712 223.889 339.039 L 223.889 339.039 L 223.942 339.039 L 223.942 339.039 Q 223.951 338.828 224.021 338.288 L 224.021 338.288 L 224.021 338.288 Q 224.092 337.747 224.136 337.44 L 224.136 337.44 L 224.136 337.44 Q 224.179 337.132 225.348 331.446 L 225.348 331.446 L 227.809 331.446 L 225.006 341.94 L 225.006 341.94 Q 224.496 343.873 223.652 344.717 L 223.652 344.717 L 223.652 344.717 Q 222.808 345.561 221.402 345.561 L 221.402 345.561 L 221.402 345.561 Q 220.708 345.561 220.163 345.411 L 220.163 345.411 L 220.163 343.451 L 220.163 343.451 Q 220.523 343.557 220.971 343.557 L 220.971 343.557 L 220.971 343.557 Q 222.149 343.557 222.518 342.01 L 222.518 342.01 L 222.685 341.395 Z  M 35.751 331.446 L 40.84 331.446 L 40.84 333.335 L 38.089 333.335 L 38.089 341.237 L 35.751 341.237 L 35.751 331.446 Z  M 49.409 336.324 L 49.409 336.324 L 49.409 336.324 Q 49.409 338.732 48.389 340.072 L 48.389 340.072 L 48.389 340.072 Q 47.37 341.412 45.594 341.412 L 45.594 341.412 L 45.594 341.412 Q 44.469 341.412 43.608 340.797 L 43.608 340.797 L 43.608 340.797 Q 42.747 340.182 42.281 339.026 L 42.281 339.026 L 42.281 339.026 Q 41.815 337.87 41.815 336.324 L 41.815 336.324 L 41.815 336.324 Q 41.815 333.942 42.826 332.601 L 42.826 332.601 L 42.826 332.601 Q 43.837 331.261 45.63 331.261 L 45.63 331.261 L 45.63 331.261 Q 47.361 331.261 48.385 332.628 L 48.385 332.628 L 48.385 332.628 Q 49.409 333.994 49.409 336.324 Z  M 44.206 336.324 L 44.206 336.324 L 44.206 336.324 Q 44.206 337.853 44.54 338.635 L 44.54 338.635 L 44.54 338.635 Q 44.874 339.417 45.612 339.417 L 45.612 339.417 L 45.612 339.417 Q 47.018 339.417 47.018 336.324 L 47.018 336.324 L 47.018 336.324 Q 47.018 334.785 46.68 334.025 L 46.68 334.025 L 46.68 334.025 Q 46.342 333.265 45.612 333.265 L 45.612 333.265 L 45.612 333.265 Q 44.874 333.265 44.54 334.025 L 44.54 334.025 L 44.54 334.025 Q 44.206 334.785 44.206 336.324 Z  M 54.287 341.412 L 54.287 341.412 L 54.287 341.412 Q 52.538 341.412 51.624 340.138 L 51.624 340.138 L 51.624 340.138 Q 50.71 338.864 50.71 336.394 L 50.71 336.394 L 50.71 336.394 Q 50.71 333.81 51.575 332.535 L 51.575 332.535 L 51.575 332.535 Q 52.441 331.261 54.252 331.261 L 54.252 331.261 L 54.252 331.261 Q 54.797 331.261 55.394 331.419 L 55.394 331.419 L 55.394 331.419 Q 55.992 331.577 56.467 331.876 L 56.467 331.876 L 55.799 333.696 L 55.799 333.696 Q 55.069 333.265 54.507 333.265 L 54.507 333.265 L 54.507 333.265 Q 53.76 333.265 53.43 334.043 L 53.43 334.043 L 53.43 334.043 Q 53.1 334.821 53.1 336.376 L 53.1 336.376 L 53.1 336.376 Q 53.1 337.897 53.426 338.648 L 53.426 338.648 L 53.426 338.648 Q 53.751 339.4 54.489 339.4 L 54.489 339.4 L 54.489 339.4 Q 55.368 339.4 56.326 338.784 L 56.326 338.784 L 56.326 340.841 L 56.326 340.841 Q 55.403 341.412 54.287 341.412 Z  M 59.639 341.395 L 56.739 331.446 L 59.165 331.446 L 60.518 336.974 L 60.518 336.974 Q 60.72 337.712 60.844 339.039 L 60.844 339.039 L 60.896 339.039 L 60.896 339.039 Q 60.905 338.828 60.975 338.288 L 60.975 338.288 L 60.975 338.288 Q 61.046 337.747 61.09 337.44 L 61.09 337.44 L 61.09 337.44 Q 61.134 337.132 62.303 331.446 L 62.303 331.446 L 64.763 331.446 L 61.96 341.94 L 61.96 341.94 Q 61.45 343.873 60.606 344.717 L 60.606 344.717 L 60.606 344.717 Q 59.762 345.561 58.356 345.561 L 58.356 345.561 L 58.356 345.561 Q 57.662 345.561 57.117 345.411 L 57.117 345.411 L 57.117 343.451 L 57.117 343.451 Q 57.477 343.557 57.926 343.557 L 57.926 343.557 L 57.926 343.557 Q 59.103 343.557 59.472 342.01 L 59.472 342.01 L 59.639 341.395 Z  M 68.059 339.4 L 70.485 339.4 L 70.485 333.3 L 69.334 333.3 L 69.334 333.3 Q 69 337.097 68.059 339.4 L 68.059 339.4 Z  M 74.124 339.4 L 74.124 344.726 L 71.803 344.726 L 71.803 341.237 L 67.339 341.237 L 67.339 344.726 L 65.018 344.726 L 65.018 339.4 L 65.607 339.4 L 65.607 339.4 Q 66.31 337.985 66.723 335.937 L 66.723 335.937 L 66.723 335.937 Q 67.136 333.889 67.251 331.446 L 67.251 331.446 L 72.849 331.446 L 72.849 339.4 L 74.124 339.4 Z  M 81.885 341.237 L 80.171 341.237 L 79.705 339.901 L 79.652 339.901 L 79.652 339.901 Q 79.134 340.762 78.58 341.087 L 78.58 341.087 L 78.58 341.087 Q 78.026 341.412 77.182 341.412 L 77.182 341.412 L 77.182 341.412 Q 76.101 341.412 75.482 340.604 L 75.482 340.604 L 75.482 340.604 Q 74.862 339.795 74.862 338.354 L 74.862 338.354 L 74.862 338.354 Q 74.862 336.807 75.71 336.055 L 75.71 336.055 L 75.71 336.055 Q 76.558 335.304 78.246 335.225 L 78.246 335.225 L 79.547 335.172 L 79.547 334.469 L 79.547 334.469 Q 79.547 333.098 78.36 333.098 L 78.36 333.098 L 78.36 333.098 Q 77.481 333.098 76.339 333.783 L 76.339 333.783 L 75.53 332.166 L 75.53 332.166 Q 76.989 331.243 78.703 331.243 L 78.703 331.243 L 78.703 331.243 Q 80.259 331.243 81.072 332.136 L 81.072 332.136 L 81.072 332.136 Q 81.885 333.028 81.885 334.662 L 81.885 334.662 L 81.885 341.237 Z  M 78.14 339.584 L 78.14 339.584 L 78.14 339.584 Q 78.782 339.584 79.164 339.009 L 79.164 339.009 L 79.164 339.009 Q 79.547 338.433 79.547 337.475 L 79.547 337.475 L 79.547 336.649 L 78.826 336.684 L 78.826 336.684 Q 78.026 336.728 77.653 337.141 L 77.653 337.141 L 77.653 337.141 Q 77.279 337.554 77.279 338.371 L 77.279 338.371 L 77.279 338.371 Q 77.279 339.584 78.14 339.584 Z  M 88.142 341.412 L 88.142 341.412 L 88.142 341.412 Q 87.51 341.412 87.022 341.127 L 87.022 341.127 L 87.022 341.127 Q 86.534 340.841 86.112 340.12 L 86.112 340.12 L 85.989 340.12 L 85.989 340.12 Q 86.13 341.316 86.13 341.562 L 86.13 341.562 L 86.13 345.561 L 83.774 345.561 L 83.774 331.446 L 85.585 331.446 L 85.989 332.72 L 86.094 332.72 L 86.094 332.72 Q 86.824 331.261 88.213 331.261 L 88.213 331.261 L 88.213 331.261 Q 89.549 331.261 90.304 332.584 L 90.304 332.584 L 90.304 332.584 Q 91.06 333.907 91.06 336.324 L 91.06 336.324 L 91.06 336.324 Q 91.06 338.705 90.278 340.059 L 90.278 340.059 L 90.278 340.059 Q 89.496 341.412 88.142 341.412 Z  M 87.422 333.247 L 87.422 333.247 L 87.422 333.247 Q 86.736 333.247 86.433 333.885 L 86.433 333.885 L 86.433 333.885 Q 86.13 334.522 86.112 335.998 L 86.112 335.998 L 86.112 336.306 L 86.112 336.306 Q 86.112 337.923 86.42 338.661 L 86.42 338.661 L 86.42 338.661 Q 86.727 339.4 87.439 339.4 L 87.439 339.4 L 87.439 339.4 Q 88.67 339.4 88.67 336.288 L 88.67 336.288 L 88.67 336.288 Q 88.67 334.759 88.366 334.003 L 88.366 334.003 L 88.366 334.003 Q 88.063 333.247 87.422 333.247 Z  M 95.938 341.412 L 95.938 341.412 L 95.938 341.412 Q 94.189 341.412 93.275 340.138 L 93.275 340.138 L 93.275 340.138 Q 92.361 338.864 92.361 336.394 L 92.361 336.394 L 92.361 336.394 Q 92.361 333.81 93.227 332.535 L 93.227 332.535 L 93.227 332.535 Q 94.093 331.261 95.903 331.261 L 95.903 331.261 L 95.903 331.261 Q 96.448 331.261 97.046 331.419 L 97.046 331.419 L 97.046 331.419 Q 97.643 331.577 98.118 331.876 L 98.118 331.876 L 97.45 333.696 L 97.45 333.696 Q 96.72 333.265 96.158 333.265 L 96.158 333.265 L 96.158 333.265 Q 95.411 333.265 95.081 334.043 L 95.081 334.043 L 95.081 334.043 Q 94.752 334.821 94.752 336.376 L 94.752 336.376 L 94.752 336.376 Q 94.752 337.897 95.077 338.648 L 95.077 338.648 L 95.077 338.648 Q 95.402 339.4 96.14 339.4 L 96.14 339.4 L 96.14 339.4 Q 97.019 339.4 97.977 338.784 L 97.977 338.784 L 97.977 340.841 L 97.977 340.841 Q 97.054 341.412 95.938 341.412 Z  M 98.716 331.446 L 105.413 331.446 L 105.413 333.335 L 103.233 333.335 L 103.233 341.237 L 100.895 341.237 L 100.895 333.335 L 98.716 333.335 L 98.716 331.446 Z  M 113.71 333.986 L 113.71 333.986 L 113.71 333.986 Q 113.71 334.812 113.222 335.361 L 113.222 335.361 L 113.222 335.361 Q 112.734 335.91 111.803 336.069 L 111.803 336.069 L 111.803 336.139 L 111.803 336.139 Q 112.831 336.271 113.415 336.846 L 113.415 336.846 L 113.415 336.846 Q 114 337.422 114 338.336 L 114 338.336 L 114 338.336 Q 114 339.742 113.007 340.49 L 113.007 340.49 L 113.007 340.49 Q 112.013 341.237 110.168 341.237 L 110.168 341.237 L 106.731 341.237 L 106.731 331.446 L 110.15 331.446 L 110.15 331.446 Q 113.71 331.446 113.71 333.986 Z  M 111.574 338.196 L 111.574 338.196 L 111.574 338.196 Q 111.574 337.572 111.17 337.299 L 111.17 337.299 L 111.17 337.299 Q 110.765 337.027 109.948 337.027 L 109.948 337.027 L 109.069 337.027 L 109.069 339.488 L 109.983 339.488 L 109.983 339.488 Q 111.574 339.488 111.574 338.196 Z  M 111.319 334.197 L 111.319 334.197 L 111.319 334.197 Q 111.319 333.23 110.036 333.23 L 110.036 333.23 L 109.069 333.23 L 109.069 335.295 L 109.772 335.295 L 109.772 335.295 Q 110.546 335.295 110.932 335.045 L 110.932 335.045 L 110.932 335.045 Q 111.319 334.794 111.319 334.197 Z  M 119.053 341.412 L 119.053 341.412 L 119.053 341.412 Q 117.217 341.412 116.157 340.107 L 116.157 340.107 L 116.157 340.107 Q 115.098 338.802 115.098 336.411 L 115.098 336.411 L 115.098 336.411 Q 115.098 333.986 116.056 332.623 L 116.056 332.623 L 116.056 332.623 Q 117.014 331.261 118.728 331.261 L 118.728 331.261 L 118.728 331.261 Q 120.328 331.261 121.251 332.426 L 121.251 332.426 L 121.251 332.426 Q 122.174 333.59 122.174 335.691 L 122.174 335.691 L 122.174 336.939 L 117.471 336.939 L 117.471 336.939 Q 117.498 338.248 118.008 338.886 L 118.008 338.886 L 118.008 338.886 Q 118.517 339.523 119.414 339.523 L 119.414 339.523 L 119.414 339.523 Q 120.556 339.523 121.752 338.811 L 121.752 338.811 L 121.752 340.736 L 121.752 340.736 Q 120.627 341.412 119.053 341.412 Z  M 118.711 333.063 L 118.711 333.063 L 118.711 333.063 Q 118.21 333.063 117.885 333.595 L 117.885 333.595 L 117.885 333.595 Q 117.559 334.126 117.507 335.242 L 117.507 335.242 L 119.88 335.242 L 119.88 335.242 Q 119.862 334.17 119.554 333.616 L 119.554 333.616 L 119.554 333.616 Q 119.247 333.063 118.711 333.063 Z  M 123.72 331.446 L 126.058 331.446 L 126.058 335.26 L 128.704 335.26 L 128.704 331.446 L 131.059 331.446 L 131.059 341.237 L 128.704 341.237 L 128.704 337.132 L 126.058 337.132 L 126.058 341.237 L 123.72 341.237 L 123.72 331.446 Z  M 133.028 331.446 L 135.366 331.446 L 135.366 335.26 L 138.011 335.26 L 138.011 331.446 L 140.367 331.446 L 140.367 341.237 L 138.011 341.237 L 138.011 337.132 L 135.366 337.132 L 135.366 341.237 L 133.028 341.237 L 133.028 331.446 Z  M 144.243 341.395 L 141.343 331.446 L 143.768 331.446 L 145.122 336.974 L 145.122 336.974 Q 145.324 337.712 145.447 339.039 L 145.447 339.039 L 145.5 339.039 L 145.5 339.039 Q 145.509 338.828 145.579 338.288 L 145.579 338.288 L 145.579 338.288 Q 145.649 337.747 145.693 337.44 L 145.693 337.44 L 145.693 337.44 Q 145.737 337.132 146.906 331.446 L 146.906 331.446 L 149.367 331.446 L 146.563 341.94 L 146.563 341.94 Q 146.053 343.873 145.21 344.717 L 145.21 344.717 L 145.21 344.717 Q 144.366 345.561 142.96 345.561 L 142.96 345.561 L 142.96 345.561 Q 142.265 345.561 141.72 345.411 L 141.72 345.411 L 141.72 343.451 L 141.72 343.451 Q 142.081 343.557 142.529 343.557 L 142.529 343.557 L 142.529 343.557 Q 143.707 343.557 144.076 342.01 L 144.076 342.01 L 144.243 341.395 Z  M 161.443 336.324 L 161.443 336.324 L 161.443 336.324 Q 161.443 338.741 160.481 340.076 L 160.481 340.076 L 160.481 340.076 Q 159.518 341.412 157.752 341.412 L 157.752 341.412 L 157.752 341.412 Q 156.187 341.412 155.238 340.283 L 155.238 340.283 L 155.238 340.283 Q 154.289 339.154 154.139 337.132 L 154.139 337.132 L 152.698 337.132 L 152.698 341.237 L 150.36 341.237 L 150.36 331.446 L 152.698 331.446 L 152.698 335.26 L 154.157 335.26 L 154.157 335.26 Q 154.342 333.362 155.286 332.311 L 155.286 332.311 L 155.286 332.311 Q 156.231 331.261 157.787 331.261 L 157.787 331.261 L 157.787 331.261 Q 159.518 331.261 160.481 332.584 L 160.481 332.584 L 160.481 332.584 Q 161.443 333.907 161.443 336.324 Z  M 156.495 336.324 L 156.495 336.324 L 156.495 336.324 Q 156.495 339.417 157.769 339.417 L 157.769 339.417 L 157.769 339.417 Q 158.437 339.417 158.745 338.635 L 158.745 338.635 L 158.745 338.635 Q 159.053 337.853 159.053 336.324 L 159.053 336.324 L 159.053 336.324 Q 159.053 334.785 158.745 334.025 L 158.745 334.025 L 158.745 334.025 Q 158.437 333.265 157.769 333.265 L 157.769 333.265 L 157.769 333.265 Q 157.11 333.265 156.803 334.025 L 156.803 334.025 L 156.803 334.025 Q 156.495 334.785 156.495 336.324 Z  M 136.456 315.488 L 136.456 315.488 L 136.456 315.488 Q 136.456 317.896 135.436 319.236 L 135.436 319.236 L 135.436 319.236 Q 134.417 320.577 132.641 320.577 L 132.641 320.577 L 132.641 320.577 Q 131.516 320.577 130.655 319.961 L 130.655 319.961 L 130.655 319.961 Q 129.794 319.346 129.328 318.19 L 129.328 318.19 L 129.328 318.19 Q 128.862 317.035 128.862 315.488 L 128.862 315.488 L 128.862 315.488 Q 128.862 313.106 129.873 311.766 L 129.873 311.766 L 129.873 311.766 Q 130.884 310.425 132.677 310.425 L 132.677 310.425 L 132.677 310.425 Q 134.408 310.425 135.432 311.792 L 135.432 311.792 L 135.432 311.792 Q 136.456 313.159 136.456 315.488 Z  M 131.253 315.488 L 131.253 315.488 L 131.253 315.488 Q 131.253 317.017 131.587 317.799 L 131.587 317.799 L 131.587 317.799 Q 131.921 318.581 132.659 318.581 L 132.659 318.581 L 132.659 318.581 Q 134.065 318.581 134.065 315.488 L 134.065 315.488 L 134.065 315.488 Q 134.065 313.95 133.727 313.189 L 133.727 313.189 L 133.727 313.189 Q 133.388 312.429 132.659 312.429 L 132.659 312.429 L 132.659 312.429 Q 131.921 312.429 131.587 313.189 L 131.587 313.189 L 131.587 313.189 Q 131.253 313.95 131.253 315.488 Z  M 141.334 320.577 L 141.334 320.577 L 141.334 320.577 Q 139.585 320.577 138.671 319.302 L 138.671 319.302 L 138.671 319.302 Q 137.757 318.028 137.757 315.558 L 137.757 315.558 L 137.757 315.558 Q 137.757 312.974 138.622 311.7 L 138.622 311.7 L 138.622 311.7 Q 139.488 310.425 141.299 310.425 L 141.299 310.425 L 141.299 310.425 Q 141.844 310.425 142.441 310.583 L 142.441 310.583 L 142.441 310.583 Q 143.039 310.742 143.513 311.04 L 143.513 311.04 L 142.845 312.86 L 142.845 312.86 Q 142.116 312.429 141.553 312.429 L 141.553 312.429 L 141.553 312.429 Q 140.806 312.429 140.477 313.207 L 140.477 313.207 L 140.477 313.207 Q 140.147 313.985 140.147 315.54 L 140.147 315.54 L 140.147 315.54 Q 140.147 317.061 140.472 317.812 L 140.472 317.812 L 140.472 317.812 Q 140.798 318.564 141.536 318.564 L 141.536 318.564 L 141.536 318.564 Q 142.415 318.564 143.373 317.949 L 143.373 317.949 L 143.373 320.005 L 143.373 320.005 Q 142.45 320.577 141.334 320.577 Z  M 151.872 310.61 L 151.872 320.401 L 149.525 320.401 L 149.525 312.499 L 148.216 312.499 L 148.216 312.499 Q 148.04 315.479 147.649 317.228 L 147.649 317.228 L 147.649 317.228 Q 147.258 318.977 146.603 319.768 L 146.603 319.768 L 146.603 319.768 Q 145.948 320.559 144.867 320.559 L 144.867 320.559 L 144.867 320.559 Q 144.208 320.559 143.786 320.366 L 143.786 320.366 L 143.786 318.441 L 143.786 318.441 Q 144.05 318.529 144.322 318.529 L 144.322 318.529 L 144.322 318.529 Q 145.06 318.529 145.473 316.643 L 145.473 316.643 L 145.473 316.643 Q 145.886 314.758 146.106 310.61 L 146.106 310.61 L 151.872 310.61 Z  M 160.362 320.401 L 158.648 320.401 L 158.182 319.065 L 158.13 319.065 L 158.13 319.065 Q 157.611 319.926 157.057 320.251 L 157.057 320.251 L 157.057 320.251 Q 156.504 320.577 155.66 320.577 L 155.66 320.577 L 155.66 320.577 Q 154.579 320.577 153.959 319.768 L 153.959 319.768 L 153.959 319.768 Q 153.34 318.959 153.34 317.518 L 153.34 317.518 L 153.34 317.518 Q 153.34 315.971 154.188 315.22 L 154.188 315.22 L 154.188 315.22 Q 155.036 314.468 156.723 314.389 L 156.723 314.389 L 158.024 314.336 L 158.024 313.633 L 158.024 313.633 Q 158.024 312.262 156.838 312.262 L 156.838 312.262 L 156.838 312.262 Q 155.959 312.262 154.816 312.948 L 154.816 312.948 L 154.008 311.33 L 154.008 311.33 Q 155.467 310.408 157.18 310.408 L 157.18 310.408 L 157.18 310.408 Q 158.736 310.408 159.549 311.3 L 159.549 311.3 L 159.549 311.3 Q 160.362 312.192 160.362 313.827 L 160.362 313.827 L 160.362 320.401 Z  M 156.618 318.748 L 156.618 318.748 L 156.618 318.748 Q 157.26 318.748 157.642 318.173 L 157.642 318.173 L 157.642 318.173 Q 158.024 317.597 158.024 316.639 L 158.024 316.639 L 158.024 315.813 L 157.303 315.848 L 157.303 315.848 Q 156.504 315.892 156.13 316.305 L 156.13 316.305 L 156.13 316.305 Q 155.757 316.718 155.757 317.536 L 155.757 317.536 L 155.757 317.536 Q 155.757 318.748 156.618 318.748 Z  M 161.909 314.732 L 161.909 314.732 L 161.909 314.732 Q 161.909 311.392 162.863 309.634 L 162.863 309.634 L 162.863 309.634 Q 163.816 307.876 165.978 307.244 L 165.978 307.244 L 165.978 307.244 Q 167.103 306.927 169.23 306.628 L 169.23 306.628 L 169.503 308.685 L 167.947 308.931 L 167.947 308.931 Q 166.462 309.177 165.728 309.568 L 165.728 309.568 L 165.728 309.568 Q 164.994 309.959 164.629 310.728 L 164.629 310.728 L 164.629 310.728 Q 164.264 311.497 164.194 312.772 L 164.194 312.772 L 164.264 312.772 L 164.264 312.772 Q 164.678 312.034 165.266 311.656 L 165.266 311.656 L 165.266 311.656 Q 165.855 311.278 166.55 311.278 L 166.55 311.278 L 166.55 311.278 Q 167.956 311.278 168.729 312.412 L 168.729 312.412 L 168.729 312.412 Q 169.503 313.545 169.503 315.576 L 169.503 315.576 L 169.503 315.576 Q 169.503 317.931 168.501 319.254 L 168.501 319.254 L 168.501 319.254 Q 167.499 320.577 165.706 320.577 L 165.706 320.577 L 165.706 320.577 Q 163.878 320.577 162.893 319.056 L 162.893 319.056 L 162.893 319.056 Q 161.909 317.536 161.909 314.732 Z  M 165.794 318.581 L 165.794 318.581 L 165.794 318.581 Q 167.112 318.581 167.112 315.813 L 167.112 315.813 L 167.112 315.813 Q 167.112 313.132 165.917 313.132 L 165.917 313.132 L 165.917 313.132 Q 165.398 313.132 164.95 313.55 L 164.95 313.55 L 164.95 313.55 Q 164.502 313.967 164.3 314.609 L 164.3 314.609 L 164.3 314.609 Q 164.3 318.581 165.794 318.581 Z  M 171.146 310.61 L 173.317 310.61 L 173.317 315.145 L 173.317 315.145 Q 173.317 315.989 173.106 317.949 L 173.106 317.949 L 176.288 310.61 L 179.153 310.61 L 179.153 320.401 L 176.973 320.401 L 176.973 315.795 L 176.973 315.795 Q 176.973 314.758 177.176 313 L 177.176 313 L 173.985 320.401 L 171.146 320.401 L 171.146 310.61 Z  M 180.471 310.61 L 187.169 310.61 L 187.169 312.499 L 184.989 312.499 L 184.989 320.401 L 182.651 320.401 L 182.651 312.499 L 180.471 312.499 L 180.471 310.61 Z  M 190.825 310.61 L 190.825 314.442 L 191.651 314.442 L 191.651 314.442 Q 193.611 314.442 194.538 315.154 L 194.538 315.154 L 194.538 315.154 Q 195.466 315.866 195.466 317.307 L 195.466 317.307 L 195.466 317.307 Q 195.466 320.401 191.581 320.401 L 191.581 320.401 L 188.487 320.401 L 188.487 310.61 L 190.825 310.61 Z  M 193.057 317.36 L 193.057 317.36 L 193.057 317.36 Q 193.057 316.736 192.684 316.463 L 192.684 316.463 L 192.684 316.463 Q 192.31 316.191 191.493 316.191 L 191.493 316.191 L 190.825 316.191 L 190.825 318.652 L 191.528 318.652 L 191.528 318.652 Q 192.258 318.652 192.657 318.357 L 192.657 318.357 L 192.657 318.357 Q 193.057 318.063 193.057 317.36 Z  M 92.124 310.61 L 92.124 320.401 L 90.032 320.401 L 90.032 312.447 L 90.032 312.447 Q 89.777 313.871 89.311 315.646 L 89.311 315.646 L 88.037 320.401 L 86.051 320.401 L 84.776 315.628 L 84.776 315.628 Q 84.363 314.09 84.055 312.447 L 84.055 312.447 L 84.055 320.401 L 82.008 320.401 L 82.008 310.61 L 85.374 310.61 L 86.56 315.18 L 86.56 315.18 Q 86.947 316.709 87.026 318.028 L 87.026 318.028 L 87.026 318.028 Q 87.061 317.58 87.215 316.771 L 87.215 316.771 L 87.215 316.771 Q 87.369 315.962 87.562 315.18 L 87.562 315.18 L 88.775 310.61 L 92.124 310.61 Z  M 101.335 315.488 L 101.335 315.488 L 101.335 315.488 Q 101.335 317.896 100.315 319.236 L 100.315 319.236 L 100.315 319.236 Q 99.296 320.577 97.52 320.577 L 97.52 320.577 L 97.52 320.577 Q 96.395 320.577 95.534 319.961 L 95.534 319.961 L 95.534 319.961 Q 94.673 319.346 94.207 318.19 L 94.207 318.19 L 94.207 318.19 Q 93.741 317.035 93.741 315.488 L 93.741 315.488 L 93.741 315.488 Q 93.741 313.106 94.752 311.766 L 94.752 311.766 L 94.752 311.766 Q 95.762 310.425 97.555 310.425 L 97.555 310.425 L 97.555 310.425 Q 99.287 310.425 100.311 311.792 L 100.311 311.792 L 100.311 311.792 Q 101.335 313.159 101.335 315.488 Z  M 96.132 315.488 L 96.132 315.488 L 96.132 315.488 Q 96.132 317.017 96.466 317.799 L 96.466 317.799 L 96.466 317.799 Q 96.8 318.581 97.538 318.581 L 97.538 318.581 L 97.538 318.581 Q 98.944 318.581 98.944 315.488 L 98.944 315.488 L 98.944 315.488 Q 98.944 313.95 98.606 313.189 L 98.606 313.189 L 98.606 313.189 Q 98.267 312.429 97.538 312.429 L 97.538 312.429 L 97.538 312.429 Q 96.8 312.429 96.466 313.189 L 96.466 313.189 L 96.466 313.189 Q 96.132 313.95 96.132 315.488 Z  M 102.978 310.61 L 108.067 310.61 L 108.067 312.499 L 105.316 312.499 L 105.316 320.401 L 102.978 320.401 L 102.978 310.61 Z  M 111.293 320.559 L 108.392 310.61 L 110.818 310.61 L 112.172 316.138 L 112.172 316.138 Q 112.374 316.876 112.497 318.204 L 112.497 318.204 L 112.55 318.204 L 112.55 318.204 Q 112.558 317.993 112.629 317.452 L 112.629 317.452 L 112.629 317.452 Q 112.699 316.912 112.743 316.604 L 112.743 316.604 L 112.743 316.604 Q 112.787 316.296 113.956 310.61 L 113.956 310.61 L 116.417 310.61 L 113.613 321.104 L 113.613 321.104 Q 113.103 323.038 112.26 323.881 L 112.26 323.881 L 112.26 323.881 Q 111.416 324.725 110.01 324.725 L 110.01 324.725 L 110.01 324.725 Q 109.315 324.725 108.77 324.576 L 108.77 324.576 L 108.77 322.616 L 108.77 322.616 Q 109.131 322.721 109.579 322.721 L 109.579 322.721 L 109.579 322.721 Q 110.757 322.721 111.126 321.174 L 111.126 321.174 L 111.293 320.559 Z  M 116.742 310.61 L 123.439 310.61 L 123.439 312.499 L 121.26 312.499 L 121.26 320.401 L 118.922 320.401 L 118.922 312.499 L 116.742 312.499 L 116.742 310.61 Z  M 67.567 310.61 L 69.738 310.61 L 69.738 315.145 L 69.738 315.145 Q 69.738 315.989 69.527 317.949 L 69.527 317.949 L 72.709 310.61 L 75.574 310.61 L 75.574 320.401 L 73.394 320.401 L 73.394 315.795 L 73.394 315.795 Q 73.394 314.758 73.596 313 L 73.596 313 L 70.406 320.401 L 67.567 320.401 L 67.567 310.61 Z  M 163.104 299.741 L 163.104 299.741 L 163.104 299.741 Q 161.355 299.741 160.441 298.466 L 160.441 298.466 L 160.441 298.466 Q 159.527 297.192 159.527 294.722 L 159.527 294.722 L 159.527 294.722 Q 159.527 292.138 160.393 290.864 L 160.393 290.864 L 160.393 290.864 Q 161.259 289.589 163.069 289.589 L 163.069 289.589 L 163.069 289.589 Q 163.614 289.589 164.212 289.748 L 164.212 289.748 L 164.212 289.748 Q 164.809 289.906 165.284 290.205 L 165.284 290.205 L 164.616 292.024 L 164.616 292.024 Q 163.886 291.593 163.324 291.593 L 163.324 291.593 L 163.324 291.593 Q 162.577 291.593 162.247 292.371 L 162.247 292.371 L 162.247 292.371 Q 161.918 293.149 161.918 294.705 L 161.918 294.705 L 161.918 294.705 Q 161.918 296.225 162.243 296.977 L 162.243 296.977 L 162.243 296.977 Q 162.568 297.728 163.306 297.728 L 163.306 297.728 L 163.306 297.728 Q 164.185 297.728 165.143 297.113 L 165.143 297.113 L 165.143 299.17 L 165.143 299.17 Q 164.22 299.741 163.104 299.741 Z  M 166.55 289.774 L 168.72 289.774 L 168.72 294.309 L 168.72 294.309 Q 168.72 295.153 168.51 297.113 L 168.51 297.113 L 171.691 289.774 L 174.556 289.774 L 174.556 299.565 L 172.377 299.565 L 172.377 294.96 L 172.377 294.96 Q 172.377 293.922 172.579 292.165 L 172.579 292.165 L 169.388 299.565 L 166.55 299.565 L 166.55 289.774 Z  M 179.777 299.741 L 179.777 299.741 L 179.777 299.741 Q 178.028 299.741 177.114 298.466 L 177.114 298.466 L 177.114 298.466 Q 176.2 297.192 176.2 294.722 L 176.2 294.722 L 176.2 294.722 Q 176.2 292.138 177.066 290.864 L 177.066 290.864 L 177.066 290.864 Q 177.931 289.589 179.742 289.589 L 179.742 289.589 L 179.742 289.589 Q 180.287 289.589 180.885 289.748 L 180.885 289.748 L 180.885 289.748 Q 181.482 289.906 181.957 290.205 L 181.957 290.205 L 181.289 292.024 L 181.289 292.024 Q 180.559 291.593 179.997 291.593 L 179.997 291.593 L 179.997 291.593 Q 179.25 291.593 178.92 292.371 L 178.92 292.371 L 178.92 292.371 Q 178.591 293.149 178.591 294.705 L 178.591 294.705 L 178.591 294.705 Q 178.591 296.225 178.916 296.977 L 178.916 296.977 L 178.916 296.977 Q 179.241 297.728 179.979 297.728 L 179.979 297.728 L 179.979 297.728 Q 180.858 297.728 181.816 297.113 L 181.816 297.113 L 181.816 299.17 L 181.816 299.17 Q 180.893 299.741 179.777 299.741 Z  M 182.554 289.774 L 189.252 289.774 L 189.252 291.664 L 187.072 291.664 L 187.072 299.565 L 184.734 299.565 L 184.734 291.664 L 182.554 291.664 L 182.554 289.774 Z  M 194.182 299.741 L 194.182 299.741 L 194.182 299.741 Q 192.345 299.741 191.286 298.436 L 191.286 298.436 L 191.286 298.436 Q 190.227 297.13 190.227 294.74 L 190.227 294.74 L 190.227 294.74 Q 190.227 292.314 191.185 290.952 L 191.185 290.952 L 191.185 290.952 Q 192.143 289.589 193.857 289.589 L 193.857 289.589 L 193.857 289.589 Q 195.457 289.589 196.38 290.754 L 196.38 290.754 L 196.38 290.754 Q 197.303 291.919 197.303 294.019 L 197.303 294.019 L 197.303 295.267 L 192.6 295.267 L 192.6 295.267 Q 192.627 296.577 193.136 297.214 L 193.136 297.214 L 193.136 297.214 Q 193.646 297.851 194.543 297.851 L 194.543 297.851 L 194.543 297.851 Q 195.685 297.851 196.881 297.139 L 196.881 297.139 L 196.881 299.064 L 196.881 299.064 Q 195.756 299.741 194.182 299.741 Z  M 193.84 291.391 L 193.84 291.391 L 193.84 291.391 Q 193.339 291.391 193.013 291.923 L 193.013 291.923 L 193.013 291.923 Q 192.688 292.455 192.636 293.571 L 192.636 293.571 L 195.009 293.571 L 195.009 293.571 Q 194.991 292.499 194.683 291.945 L 194.683 291.945 L 194.683 291.945 Q 194.376 291.391 193.84 291.391 Z  M 208.966 289.774 L 208.966 299.565 L 206.874 299.565 L 206.874 291.611 L 206.874 291.611 Q 206.619 293.035 206.153 294.81 L 206.153 294.81 L 204.879 299.565 L 202.892 299.565 L 201.618 294.793 L 201.618 294.793 Q 201.205 293.254 200.897 291.611 L 200.897 291.611 L 200.897 299.565 L 198.849 299.565 L 198.849 289.774 L 202.216 289.774 L 203.402 294.344 L 203.402 294.344 Q 203.789 295.874 203.868 297.192 L 203.868 297.192 L 203.868 297.192 Q 203.903 296.744 204.057 295.935 L 204.057 295.935 L 204.057 295.935 Q 204.211 295.127 204.404 294.344 L 204.404 294.344 L 205.617 289.774 L 208.966 289.774 Z  M 213.263 289.774 L 213.263 293.606 L 213.967 293.606 L 213.967 293.606 Q 215.909 293.606 216.836 294.318 L 216.836 294.318 L 216.836 294.318 Q 217.763 295.03 217.763 296.471 L 217.763 296.471 L 217.763 296.471 Q 217.763 299.565 213.896 299.565 L 213.896 299.565 L 210.926 299.565 L 210.926 289.774 L 213.263 289.774 Z  M 215.364 296.524 L 215.364 296.524 L 215.364 296.524 Q 215.364 295.9 214.982 295.628 L 214.982 295.628 L 214.982 295.628 Q 214.599 295.355 213.782 295.355 L 213.782 295.355 L 213.263 295.355 L 213.263 297.816 L 213.817 297.816 L 213.817 297.816 Q 214.564 297.816 214.964 297.522 L 214.964 297.522 L 214.964 297.522 Q 215.364 297.227 215.364 296.524 Z  M 221.49 289.774 L 221.49 299.565 L 219.135 299.565 L 219.135 289.774 L 221.49 289.774 Z  M 68.341 293.896 L 68.341 293.896 L 68.341 293.896 Q 68.341 290.556 69.294 288.798 L 69.294 288.798 L 69.294 288.798 Q 70.248 287.041 72.41 286.408 L 72.41 286.408 L 72.41 286.408 Q 73.535 286.091 75.662 285.793 L 75.662 285.793 L 75.934 287.849 L 74.379 288.095 L 74.379 288.095 Q 72.893 288.341 72.159 288.732 L 72.159 288.732 L 72.159 288.732 Q 71.426 289.124 71.061 289.893 L 71.061 289.893 L 71.061 289.893 Q 70.696 290.662 70.626 291.936 L 70.626 291.936 L 70.696 291.936 L 70.696 291.936 Q 71.109 291.198 71.698 290.82 L 71.698 290.82 L 71.698 290.82 Q 72.287 290.442 72.981 290.442 L 72.981 290.442 L 72.981 290.442 Q 74.387 290.442 75.161 291.576 L 75.161 291.576 L 75.161 291.576 Q 75.934 292.71 75.934 294.74 L 75.934 294.74 L 75.934 294.74 Q 75.934 297.095 74.932 298.418 L 74.932 298.418 L 74.932 298.418 Q 73.93 299.741 72.137 299.741 L 72.137 299.741 L 72.137 299.741 Q 70.309 299.741 69.325 298.22 L 69.325 298.22 L 69.325 298.22 Q 68.341 296.7 68.341 293.896 Z  M 72.225 297.746 L 72.225 297.746 L 72.225 297.746 Q 73.544 297.746 73.544 294.977 L 73.544 294.977 L 73.544 294.977 Q 73.544 292.296 72.348 292.296 L 72.348 292.296 L 72.348 292.296 Q 71.83 292.296 71.382 292.714 L 71.382 292.714 L 71.382 292.714 Q 70.933 293.131 70.731 293.773 L 70.731 293.773 L 70.731 293.773 Q 70.731 297.746 72.225 297.746 Z  M 84.091 299.565 L 82.377 299.565 L 81.911 298.229 L 81.858 298.229 L 81.858 298.229 Q 81.34 299.09 80.786 299.416 L 80.786 299.416 L 80.786 299.416 Q 80.232 299.741 79.388 299.741 L 79.388 299.741 L 79.388 299.741 Q 78.307 299.741 77.688 298.932 L 77.688 298.932 L 77.688 298.932 Q 77.068 298.124 77.068 296.682 L 77.068 296.682 L 77.068 296.682 Q 77.068 295.135 77.916 294.384 L 77.916 294.384 L 77.916 294.384 Q 78.764 293.632 80.452 293.553 L 80.452 293.553 L 81.753 293.501 L 81.753 292.797 L 81.753 292.797 Q 81.753 291.426 80.566 291.426 L 80.566 291.426 L 80.566 291.426 Q 79.687 291.426 78.545 292.112 L 78.545 292.112 L 77.736 290.495 L 77.736 290.495 Q 79.195 289.572 80.909 289.572 L 80.909 289.572 L 80.909 289.572 Q 82.465 289.572 83.278 290.464 L 83.278 290.464 L 83.278 290.464 Q 84.091 291.356 84.091 292.991 L 84.091 292.991 L 84.091 299.565 Z  M 80.346 297.913 L 80.346 297.913 L 80.346 297.913 Q 80.988 297.913 81.37 297.337 L 81.37 297.337 L 81.37 297.337 Q 81.753 296.761 81.753 295.803 L 81.753 295.803 L 81.753 294.977 L 81.032 295.012 L 81.032 295.012 Q 80.232 295.056 79.859 295.469 L 79.859 295.469 L 79.859 295.469 Q 79.485 295.882 79.485 296.7 L 79.485 296.7 L 79.485 296.7 Q 79.485 297.913 80.346 297.913 Z  M 85.98 289.774 L 88.318 289.774 L 88.318 293.588 L 90.964 293.588 L 90.964 289.774 L 93.319 289.774 L 93.319 299.565 L 90.964 299.565 L 90.964 295.461 L 88.318 295.461 L 88.318 299.565 L 85.98 299.565 L 85.98 289.774 Z  M 97.626 294.45 L 100.131 289.774 L 102.592 289.774 L 99.911 294.415 L 102.759 299.565 L 100.183 299.565 L 97.626 294.529 L 97.626 299.565 L 95.288 299.565 L 95.288 289.774 L 97.626 289.774 L 97.626 294.45 Z  M 111.02 294.652 L 111.02 294.652 L 111.02 294.652 Q 111.02 297.06 110.001 298.4 L 110.001 298.4 L 110.001 298.4 Q 108.981 299.741 107.206 299.741 L 107.206 299.741 L 107.206 299.741 Q 106.081 299.741 105.219 299.126 L 105.219 299.126 L 105.219 299.126 Q 104.358 298.51 103.892 297.355 L 103.892 297.355 L 103.892 297.355 Q 103.427 296.199 103.427 294.652 L 103.427 294.652 L 103.427 294.652 Q 103.427 292.27 104.437 290.93 L 104.437 290.93 L 104.437 290.93 Q 105.448 289.589 107.241 289.589 L 107.241 289.589 L 107.241 289.589 Q 108.972 289.589 109.996 290.956 L 109.996 290.956 L 109.996 290.956 Q 111.02 292.323 111.02 294.652 Z  M 105.817 294.652 L 105.817 294.652 L 105.817 294.652 Q 105.817 296.181 106.151 296.963 L 106.151 296.963 L 106.151 296.963 Q 106.485 297.746 107.223 297.746 L 107.223 297.746 L 107.223 297.746 Q 108.63 297.746 108.63 294.652 L 108.63 294.652 L 108.63 294.652 Q 108.63 293.114 108.291 292.354 L 108.291 292.354 L 108.291 292.354 Q 107.953 291.593 107.223 291.593 L 107.223 291.593 L 107.223 291.593 Q 106.485 291.593 106.151 292.354 L 106.151 292.354 L 106.151 292.354 Q 105.817 293.114 105.817 294.652 Z  M 119.642 292.314 L 119.642 292.314 L 119.642 292.314 Q 119.642 293.14 119.155 293.69 L 119.155 293.69 L 119.155 293.69 Q 118.667 294.239 117.735 294.397 L 117.735 294.397 L 117.735 294.467 L 117.735 294.467 Q 118.763 294.599 119.348 295.175 L 119.348 295.175 L 119.348 295.175 Q 119.932 295.751 119.932 296.665 L 119.932 296.665 L 119.932 296.665 Q 119.932 298.071 118.939 298.818 L 118.939 298.818 L 118.939 298.818 Q 117.946 299.565 116.1 299.565 L 116.1 299.565 L 112.664 299.565 L 112.664 289.774 L 116.083 289.774 L 116.083 289.774 Q 119.642 289.774 119.642 292.314 Z  M 117.507 296.524 L 117.507 296.524 L 117.507 296.524 Q 117.507 295.9 117.102 295.628 L 117.102 295.628 L 117.102 295.628 Q 116.698 295.355 115.881 295.355 L 115.881 295.355 L 115.002 295.355 L 115.002 297.816 L 115.916 297.816 L 115.916 297.816 Q 117.507 297.816 117.507 296.524 Z  M 117.252 292.525 L 117.252 292.525 L 117.252 292.525 Q 117.252 291.558 115.969 291.558 L 115.969 291.558 L 115.002 291.558 L 115.002 293.624 L 115.705 293.624 L 115.705 293.624 Q 116.478 293.624 116.865 293.373 L 116.865 293.373 L 116.865 293.373 Q 117.252 293.123 117.252 292.525 Z  M 124.608 299.741 L 124.608 299.741 L 124.608 299.741 Q 122.859 299.741 121.945 298.466 L 121.945 298.466 L 121.945 298.466 Q 121.031 297.192 121.031 294.722 L 121.031 294.722 L 121.031 294.722 Q 121.031 292.138 121.897 290.864 L 121.897 290.864 L 121.897 290.864 Q 122.762 289.589 124.573 289.589 L 124.573 289.589 L 124.573 289.589 Q 125.118 289.589 125.716 289.748 L 125.716 289.748 L 125.716 289.748 Q 126.313 289.906 126.788 290.205 L 126.788 290.205 L 126.12 292.024 L 126.12 292.024 Q 125.39 291.593 124.828 291.593 L 124.828 291.593 L 124.828 291.593 Q 124.081 291.593 123.751 292.371 L 123.751 292.371 L 123.751 292.371 Q 123.422 293.149 123.422 294.705 L 123.422 294.705 L 123.422 294.705 Q 123.422 296.225 123.747 296.977 L 123.747 296.977 L 123.747 296.977 Q 124.072 297.728 124.81 297.728 L 124.81 297.728 L 124.81 297.728 Q 125.689 297.728 126.647 297.113 L 126.647 297.113 L 126.647 299.17 L 126.647 299.17 Q 125.724 299.741 124.608 299.741 Z  M 130.391 294.45 L 132.896 289.774 L 135.357 289.774 L 132.677 294.415 L 135.524 299.565 L 132.949 299.565 L 130.391 294.529 L 130.391 299.565 L 128.053 299.565 L 128.053 289.774 L 130.391 289.774 L 130.391 294.45 Z  M 143.786 294.652 L 143.786 294.652 L 143.786 294.652 Q 143.786 297.06 142.766 298.4 L 142.766 298.4 L 142.766 298.4 Q 141.747 299.741 139.971 299.741 L 139.971 299.741 L 139.971 299.741 Q 138.846 299.741 137.985 299.126 L 137.985 299.126 L 137.985 299.126 Q 137.124 298.51 136.658 297.355 L 136.658 297.355 L 136.658 297.355 Q 136.192 296.199 136.192 294.652 L 136.192 294.652 L 136.192 294.652 Q 136.192 292.27 137.203 290.93 L 137.203 290.93 L 137.203 290.93 Q 138.214 289.589 140.007 289.589 L 140.007 289.589 L 140.007 289.589 Q 141.738 289.589 142.762 290.956 L 142.762 290.956 L 142.762 290.956 Q 143.786 292.323 143.786 294.652 Z  M 138.583 294.652 L 138.583 294.652 L 138.583 294.652 Q 138.583 296.181 138.917 296.963 L 138.917 296.963 L 138.917 296.963 Q 139.251 297.746 139.989 297.746 L 139.989 297.746 L 139.989 297.746 Q 141.395 297.746 141.395 294.652 L 141.395 294.652 L 141.395 294.652 Q 141.395 293.114 141.057 292.354 L 141.057 292.354 L 141.057 292.354 Q 140.719 291.593 139.989 291.593 L 139.989 291.593 L 139.989 291.593 Q 139.251 291.593 138.917 292.354 L 138.917 292.354 L 138.917 292.354 Q 138.583 293.114 138.583 294.652 Z  M 145.429 289.774 L 147.6 289.774 L 147.6 294.309 L 147.6 294.309 Q 147.6 295.153 147.389 297.113 L 147.389 297.113 L 150.571 289.774 L 153.436 289.774 L 153.436 299.565 L 151.257 299.565 L 151.257 294.96 L 151.257 294.96 Q 151.257 293.922 151.459 292.165 L 151.459 292.165 L 148.268 299.565 L 145.429 299.565 L 145.429 289.774 Z  M 150.659 285.81 L 152.636 285.81 L 152.636 285.81 Q 152.461 287.287 151.674 287.972 L 151.674 287.972 L 151.674 287.972 Q 150.887 288.658 149.358 288.658 L 149.358 288.658 L 149.358 288.658 Q 147.864 288.658 147.117 287.985 L 147.117 287.985 L 147.117 287.985 Q 146.37 287.313 146.229 285.81 L 146.229 285.81 L 148.172 285.81 L 148.172 285.81 Q 148.268 286.689 148.545 286.997 L 148.545 286.997 L 148.545 286.997 Q 148.822 287.304 149.411 287.304 L 149.411 287.304 L 149.411 287.304 Q 149.991 287.304 150.277 286.953 L 150.277 286.953 L 150.277 286.953 Q 150.562 286.601 150.659 285.81 L 150.659 285.81 Z  M 38.959 297.728 L 41.385 297.728 L 41.385 291.628 L 40.233 291.628 L 40.233 291.628 Q 39.899 295.425 38.959 297.728 L 38.959 297.728 Z  M 45.023 297.728 L 45.023 303.054 L 42.703 303.054 L 42.703 299.565 L 38.238 299.565 L 38.238 303.054 L 35.918 303.054 L 35.918 297.728 L 36.507 297.728 L 36.507 297.728 Q 37.21 296.313 37.623 294.265 L 37.623 294.265 L 37.623 294.265 Q 38.036 292.217 38.15 289.774 L 38.15 289.774 L 43.749 289.774 L 43.749 297.728 L 45.023 297.728 Z  M 53.364 289.774 L 53.364 299.565 L 51.017 299.565 L 51.017 291.664 L 49.708 291.664 L 49.708 291.664 Q 49.532 294.643 49.141 296.392 L 49.141 296.392 L 49.141 296.392 Q 48.75 298.141 48.095 298.932 L 48.095 298.932 L 48.095 298.932 Q 47.44 299.723 46.359 299.723 L 46.359 299.723 L 46.359 299.723 Q 45.7 299.723 45.278 299.53 L 45.278 299.53 L 45.278 297.605 L 45.278 297.605 Q 45.542 297.693 45.814 297.693 L 45.814 297.693 L 45.814 297.693 Q 46.553 297.693 46.966 295.808 L 46.966 295.808 L 46.966 295.808 Q 47.379 293.922 47.598 289.774 L 47.598 289.774 L 53.364 289.774 Z  M 59.068 295.874 L 57.047 299.565 L 54.401 299.565 L 56.836 295.548 L 56.836 295.548 Q 55.069 294.845 55.069 292.815 L 55.069 292.815 L 55.069 292.815 Q 55.069 291.382 56.023 290.578 L 56.023 290.578 L 56.023 290.578 Q 56.976 289.774 58.646 289.774 L 58.646 289.774 L 62.25 289.774 L 62.25 299.565 L 59.912 299.565 L 59.912 295.874 L 59.068 295.874 Z  M 57.442 292.833 L 57.442 292.833 L 57.442 292.833 Q 57.442 294.151 58.901 294.151 L 58.901 294.151 L 59.912 294.151 L 59.912 291.523 L 58.708 291.523 L 58.708 291.523 Q 57.442 291.523 57.442 292.833 Z  M 169.191 271.478 L 169.191 271.478 L 169.191 271.478 Q 169.191 272.304 168.703 272.854 L 168.703 272.854 L 168.703 272.854 Q 168.215 273.403 167.283 273.561 L 167.283 273.561 L 167.283 273.632 L 167.283 273.632 Q 168.312 273.763 168.896 274.339 L 168.896 274.339 L 168.896 274.339 Q 169.481 274.915 169.481 275.829 L 169.481 275.829 L 169.481 275.829 Q 169.481 277.235 168.488 277.982 L 168.488 277.982 L 168.488 277.982 Q 167.494 278.729 165.649 278.729 L 165.649 278.729 L 162.212 278.729 L 162.212 268.938 L 165.631 268.938 L 165.631 268.938 Q 169.191 268.938 169.191 271.478 Z  M 167.055 275.688 L 167.055 275.688 L 167.055 275.688 Q 167.055 275.064 166.651 274.792 L 166.651 274.792 L 166.651 274.792 Q 166.246 274.519 165.429 274.519 L 165.429 274.519 L 164.55 274.519 L 164.55 276.98 L 165.464 276.98 L 165.464 276.98 Q 167.055 276.98 167.055 275.688 Z  M 166.8 271.689 L 166.8 271.689 L 166.8 271.689 Q 166.8 270.722 165.517 270.722 L 165.517 270.722 L 164.55 270.722 L 164.55 272.788 L 165.253 272.788 L 165.253 272.788 Q 166.027 272.788 166.413 272.537 L 166.413 272.537 L 166.413 272.537 Q 166.8 272.287 166.8 271.689 Z  M 175.29 278.905 L 175.29 278.905 L 175.29 278.905 Q 174.657 278.905 174.17 278.619 L 174.17 278.619 L 174.17 278.619 Q 173.682 278.334 173.26 277.613 L 173.26 277.613 L 173.137 277.613 L 173.137 277.613 Q 173.278 278.808 173.278 279.054 L 173.278 279.054 L 173.278 283.053 L 170.922 283.053 L 170.922 268.938 L 172.733 268.938 L 173.137 270.213 L 173.242 270.213 L 173.242 270.213 Q 173.972 268.754 175.361 268.754 L 175.361 268.754 L 175.361 268.754 Q 176.697 268.754 177.452 270.076 L 177.452 270.076 L 177.452 270.076 Q 178.208 271.399 178.208 273.816 L 178.208 273.816 L 178.208 273.816 Q 178.208 276.198 177.426 277.551 L 177.426 277.551 L 177.426 277.551 Q 176.644 278.905 175.29 278.905 Z  M 174.57 270.74 L 174.57 270.74 L 174.57 270.74 Q 173.884 270.74 173.581 271.377 L 173.581 271.377 L 173.581 271.377 Q 173.278 272.014 173.26 273.491 L 173.26 273.491 L 173.26 273.799 L 173.26 273.799 Q 173.26 275.416 173.568 276.154 L 173.568 276.154 L 173.568 276.154 Q 173.875 276.892 174.587 276.892 L 174.587 276.892 L 174.587 276.892 Q 175.818 276.892 175.818 273.781 L 175.818 273.781 L 175.818 273.781 Q 175.818 272.252 175.514 271.496 L 175.514 271.496 L 175.514 271.496 Q 175.211 270.74 174.57 270.74 Z  M 183.464 278.905 L 183.464 278.905 L 183.464 278.905 Q 181.627 278.905 180.568 277.6 L 180.568 277.6 L 180.568 277.6 Q 179.509 276.295 179.509 273.904 L 179.509 273.904 L 179.509 273.904 Q 179.509 271.478 180.467 270.116 L 180.467 270.116 L 180.467 270.116 Q 181.425 268.754 183.139 268.754 L 183.139 268.754 L 183.139 268.754 Q 184.739 268.754 185.661 269.918 L 185.661 269.918 L 185.661 269.918 Q 186.584 271.083 186.584 273.183 L 186.584 273.183 L 186.584 274.431 L 181.882 274.431 L 181.882 274.431 Q 181.908 275.741 182.418 276.378 L 182.418 276.378 L 182.418 276.378 Q 182.928 277.015 183.824 277.015 L 183.824 277.015 L 183.824 277.015 Q 184.967 277.015 186.162 276.303 L 186.162 276.303 L 186.162 278.228 L 186.162 278.228 Q 185.037 278.905 183.464 278.905 Z  M 183.121 270.555 L 183.121 270.555 L 183.121 270.555 Q 182.62 270.555 182.295 271.087 L 182.295 271.087 L 182.295 271.087 Q 181.97 271.619 181.917 272.735 L 181.917 272.735 L 184.29 272.735 L 184.29 272.735 Q 184.273 271.663 183.965 271.109 L 183.965 271.109 L 183.965 271.109 Q 183.657 270.555 183.121 270.555 Z  M 190.434 276.892 L 192.86 276.892 L 192.86 270.793 L 191.708 270.793 L 191.708 270.793 Q 191.374 274.59 190.434 276.892 L 190.434 276.892 Z  M 196.498 276.892 L 196.498 282.218 L 194.178 282.218 L 194.178 278.729 L 189.713 278.729 L 189.713 282.218 L 187.393 282.218 L 187.393 276.892 L 187.982 276.892 L 187.982 276.892 Q 188.685 275.477 189.098 273.429 L 189.098 273.429 L 189.098 273.429 Q 189.511 271.382 189.625 268.938 L 189.625 268.938 L 195.224 268.938 L 195.224 276.892 L 196.498 276.892 Z  M 197.746 268.938 L 200.084 268.938 L 200.084 272.753 L 202.73 272.753 L 202.73 268.938 L 205.085 268.938 L 205.085 278.729 L 202.73 278.729 L 202.73 274.625 L 200.084 274.625 L 200.084 278.729 L 197.746 278.729 L 197.746 268.938 Z  M 209.392 268.938 L 209.392 272.77 L 210.095 272.77 L 210.095 272.77 Q 212.037 272.77 212.965 273.482 L 212.965 273.482 L 212.965 273.482 Q 213.892 274.194 213.892 275.635 L 213.892 275.635 L 213.892 275.635 Q 213.892 278.729 210.025 278.729 L 210.025 278.729 L 207.054 278.729 L 207.054 268.938 L 209.392 268.938 Z  M 211.492 275.688 L 211.492 275.688 L 211.492 275.688 Q 211.492 275.064 211.11 274.792 L 211.11 274.792 L 211.11 274.792 Q 210.728 274.519 209.91 274.519 L 209.91 274.519 L 209.392 274.519 L 209.392 276.98 L 209.946 276.98 L 209.946 276.98 Q 210.693 276.98 211.093 276.686 L 211.093 276.686 L 211.093 276.686 Q 211.492 276.391 211.492 275.688 Z  M 217.618 268.938 L 217.618 278.729 L 215.263 278.729 L 215.263 268.938 L 217.618 268.938 Z  M 49.906 272.067 L 53.5 278.729 L 50.82 278.729 L 47.524 272.217 L 47.524 278.729 L 45.151 278.729 L 45.151 265.88 L 47.524 265.88 L 47.524 272.102 L 50.872 265.88 L 53.43 265.88 L 49.906 272.067 Z  M 58.862 278.905 L 58.862 278.905 L 58.862 278.905 Q 58.229 278.905 57.741 278.619 L 57.741 278.619 L 57.741 278.619 Q 57.253 278.334 56.831 277.613 L 56.831 277.613 L 56.708 277.613 L 56.708 277.613 Q 56.849 278.808 56.849 279.054 L 56.849 279.054 L 56.849 283.053 L 54.493 283.053 L 54.493 268.938 L 56.304 268.938 L 56.708 270.213 L 56.814 270.213 L 56.814 270.213 Q 57.543 268.754 58.932 268.754 L 58.932 268.754 L 58.932 268.754 Q 60.268 268.754 61.024 270.076 L 61.024 270.076 L 61.024 270.076 Q 61.78 271.399 61.78 273.816 L 61.78 273.816 L 61.78 273.816 Q 61.78 276.198 60.997 277.551 L 60.997 277.551 L 60.997 277.551 Q 60.215 278.905 58.862 278.905 Z  M 58.141 270.74 L 58.141 270.74 L 58.141 270.74 Q 57.455 270.74 57.152 271.377 L 57.152 271.377 L 57.152 271.377 Q 56.849 272.014 56.831 273.491 L 56.831 273.491 L 56.831 273.799 L 56.831 273.799 Q 56.831 275.416 57.139 276.154 L 57.139 276.154 L 57.139 276.154 Q 57.447 276.892 58.158 276.892 L 58.158 276.892 L 58.158 276.892 Q 59.389 276.892 59.389 273.781 L 59.389 273.781 L 59.389 273.781 Q 59.389 272.252 59.086 271.496 L 59.086 271.496 L 59.086 271.496 Q 58.782 270.74 58.141 270.74 Z  M 63.423 268.938 L 65.594 268.938 L 65.594 273.473 L 65.594 273.473 Q 65.594 274.317 65.383 276.277 L 65.383 276.277 L 68.565 268.938 L 71.43 268.938 L 71.43 278.729 L 69.25 278.729 L 69.25 274.124 L 69.25 274.124 Q 69.25 273.087 69.452 271.329 L 69.452 271.329 L 66.262 278.729 L 63.423 278.729 L 63.423 268.938 Z  M 73.416 268.938 L 80.755 268.938 L 80.755 278.729 L 78.4 278.729 L 78.4 270.828 L 75.754 270.828 L 75.754 278.729 L 73.416 278.729 L 73.416 268.938 Z  M 82.074 268.938 L 88.771 268.938 L 88.771 270.828 L 86.591 270.828 L 86.591 278.729 L 84.253 278.729 L 84.253 270.828 L 82.074 270.828 L 82.074 268.938 Z  M 97.34 273.816 L 97.34 273.816 L 97.34 273.816 Q 97.34 276.224 96.321 277.565 L 96.321 277.565 L 96.321 277.565 Q 95.301 278.905 93.526 278.905 L 93.526 278.905 L 93.526 278.905 Q 92.401 278.905 91.539 278.29 L 91.539 278.29 L 91.539 278.29 Q 90.678 277.675 90.212 276.519 L 90.212 276.519 L 90.212 276.519 Q 89.746 275.363 89.746 273.816 L 89.746 273.816 L 89.746 273.816 Q 89.746 271.434 90.757 270.094 L 90.757 270.094 L 90.757 270.094 Q 91.768 268.754 93.561 268.754 L 93.561 268.754 L 93.561 268.754 Q 95.292 268.754 96.316 270.12 L 96.316 270.12 L 96.316 270.12 Q 97.34 271.487 97.34 273.816 Z  M 92.137 273.816 L 92.137 273.816 L 92.137 273.816 Q 92.137 275.345 92.471 276.128 L 92.471 276.128 L 92.471 276.128 Q 92.805 276.91 93.543 276.91 L 93.543 276.91 L 93.543 276.91 Q 94.949 276.91 94.949 273.816 L 94.949 273.816 L 94.949 273.816 Q 94.949 272.278 94.611 271.518 L 94.611 271.518 L 94.611 271.518 Q 94.273 270.758 93.543 270.758 L 93.543 270.758 L 93.543 270.758 Q 92.805 270.758 92.471 271.518 L 92.471 271.518 L 92.471 271.518 Q 92.137 272.278 92.137 273.816 Z  M 105.962 271.478 L 105.962 271.478 L 105.962 271.478 Q 105.962 272.304 105.474 272.854 L 105.474 272.854 L 105.474 272.854 Q 104.987 273.403 104.055 273.561 L 104.055 273.561 L 104.055 273.632 L 104.055 273.632 Q 105.083 273.763 105.668 274.339 L 105.668 274.339 L 105.668 274.339 Q 106.252 274.915 106.252 275.829 L 106.252 275.829 L 106.252 275.829 Q 106.252 277.235 105.259 277.982 L 105.259 277.982 L 105.259 277.982 Q 104.266 278.729 102.42 278.729 L 102.42 278.729 L 98.984 278.729 L 98.984 268.938 L 102.403 268.938 L 102.403 268.938 Q 105.962 268.938 105.962 271.478 Z  M 103.826 275.688 L 103.826 275.688 L 103.826 275.688 Q 103.826 275.064 103.422 274.792 L 103.422 274.792 L 103.422 274.792 Q 103.018 274.519 102.2 274.519 L 102.2 274.519 L 101.322 274.519 L 101.322 276.98 L 102.236 276.98 L 102.236 276.98 Q 103.826 276.98 103.826 275.688 Z  M 103.572 271.689 L 103.572 271.689 L 103.572 271.689 Q 103.572 270.722 102.288 270.722 L 102.288 270.722 L 101.322 270.722 L 101.322 272.788 L 102.025 272.788 L 102.025 272.788 Q 102.798 272.788 103.185 272.537 L 103.185 272.537 L 103.185 272.537 Q 103.572 272.287 103.572 271.689 Z  M 114.206 278.729 L 112.492 278.729 L 112.027 277.393 L 111.974 277.393 L 111.974 277.393 Q 111.455 278.255 110.902 278.58 L 110.902 278.58 L 110.902 278.58 Q 110.348 278.905 109.504 278.905 L 109.504 278.905 L 109.504 278.905 Q 108.423 278.905 107.803 278.096 L 107.803 278.096 L 107.803 278.096 Q 107.184 277.288 107.184 275.846 L 107.184 275.846 L 107.184 275.846 Q 107.184 274.3 108.032 273.548 L 108.032 273.548 L 108.032 273.548 Q 108.88 272.797 110.568 272.718 L 110.568 272.718 L 111.868 272.665 L 111.868 271.962 L 111.868 271.962 Q 111.868 270.591 110.682 270.591 L 110.682 270.591 L 110.682 270.591 Q 109.803 270.591 108.66 271.276 L 108.66 271.276 L 107.852 269.659 L 107.852 269.659 Q 109.311 268.736 111.025 268.736 L 111.025 268.736 L 111.025 268.736 Q 112.58 268.736 113.393 269.628 L 113.393 269.628 L 113.393 269.628 Q 114.206 270.52 114.206 272.155 L 114.206 272.155 L 114.206 278.729 Z  M 110.462 277.077 L 110.462 277.077 L 110.462 277.077 Q 111.104 277.077 111.486 276.501 L 111.486 276.501 L 111.486 276.501 Q 111.868 275.926 111.868 274.968 L 111.868 274.968 L 111.868 274.141 L 111.148 274.176 L 111.148 274.176 Q 110.348 274.22 109.974 274.634 L 109.974 274.634 L 109.974 274.634 Q 109.601 275.047 109.601 275.864 L 109.601 275.864 L 109.601 275.864 Q 109.601 277.077 110.462 277.077 Z  M 123.189 268.938 L 123.189 278.729 L 120.842 278.729 L 120.842 270.828 L 119.532 270.828 L 119.532 270.828 Q 119.357 273.807 118.966 275.556 L 118.966 275.556 L 118.966 275.556 Q 118.574 277.305 117.92 278.096 L 117.92 278.096 L 117.92 278.096 Q 117.265 278.887 116.184 278.887 L 116.184 278.887 L 116.184 278.887 Q 115.525 278.887 115.103 278.694 L 115.103 278.694 L 115.103 276.769 L 115.103 276.769 Q 115.366 276.857 115.639 276.857 L 115.639 276.857 L 115.639 276.857 Q 116.377 276.857 116.79 274.972 L 116.79 274.972 L 116.79 274.972 Q 117.203 273.087 117.423 268.938 L 117.423 268.938 L 123.189 268.938 Z  M 136.249 273.816 L 136.249 273.816 L 136.249 273.816 Q 136.249 276.233 135.287 277.569 L 135.287 277.569 L 135.287 277.569 Q 134.324 278.905 132.558 278.905 L 132.558 278.905 L 132.558 278.905 Q 130.993 278.905 130.044 277.776 L 130.044 277.776 L 130.044 277.776 Q 129.095 276.646 128.946 274.625 L 128.946 274.625 L 127.504 274.625 L 127.504 278.729 L 125.166 278.729 L 125.166 268.938 L 127.504 268.938 L 127.504 272.753 L 128.963 272.753 L 128.963 272.753 Q 129.148 270.854 130.093 269.804 L 130.093 269.804 L 130.093 269.804 Q 131.037 268.754 132.593 268.754 L 132.593 268.754 L 132.593 268.754 Q 134.324 268.754 135.287 270.076 L 135.287 270.076 L 135.287 270.076 Q 136.249 271.399 136.249 273.816 Z  M 131.301 273.816 L 131.301 273.816 L 131.301 273.816 Q 131.301 276.91 132.575 276.91 L 132.575 276.91 L 132.575 276.91 Q 133.243 276.91 133.551 276.128 L 133.551 276.128 L 133.551 276.128 Q 133.859 275.345 133.859 273.816 L 133.859 273.816 L 133.859 273.816 Q 133.859 272.278 133.551 271.518 L 133.551 271.518 L 133.551 271.518 Q 133.243 270.758 132.575 270.758 L 132.575 270.758 L 132.575 270.758 Q 131.916 270.758 131.609 271.518 L 131.609 271.518 L 131.609 271.518 Q 131.301 272.278 131.301 273.816 Z  M 137.225 268.938 L 143.922 268.938 L 143.922 270.828 L 141.742 270.828 L 141.742 278.729 L 139.405 278.729 L 139.405 270.828 L 137.225 270.828 L 137.225 268.938 Z  M 147.578 268.938 L 147.578 272.77 L 148.282 272.77 L 148.282 272.77 Q 150.224 272.77 151.151 273.482 L 151.151 273.482 L 151.151 273.482 Q 152.078 274.194 152.078 275.635 L 152.078 275.635 L 152.078 275.635 Q 152.078 278.729 148.211 278.729 L 148.211 278.729 L 145.24 278.729 L 145.24 268.938 L 147.578 268.938 Z  M 149.679 275.688 L 149.679 275.688 L 149.679 275.688 Q 149.679 275.064 149.297 274.792 L 149.297 274.792 L 149.297 274.792 Q 148.914 274.519 148.097 274.519 L 148.097 274.519 L 147.578 274.519 L 147.578 276.98 L 148.132 276.98 L 148.132 276.98 Q 148.879 276.98 149.279 276.686 L 149.279 276.686 L 149.279 276.686 Q 149.679 276.391 149.679 275.688 Z  M 155.805 268.938 L 155.805 278.729 L 153.449 278.729 L 153.449 268.938 L 155.805 268.938 Z " fill-rule="evenodd" fill="rgb(76,76,76)"/></g></svg>