<?xml version="1.0" encoding="UTF-8" standalone="no"?>
<!-- Created with Inkscape (http://www.inkscape.org/) -->

<svg
   xmlns:dc="http://purl.org/dc/elements/1.1/"
   xmlns:cc="http://creativecommons.org/ns#"
   xmlns:rdf="http://www.w3.org/1999/02/22-rdf-syntax-ns#"
   xmlns:svg="http://www.w3.org/2000/svg"
   xmlns="http://www.w3.org/2000/svg"
   xmlns:xlink="http://www.w3.org/1999/xlink"
   xmlns:sodipodi="http://sodipodi.sourceforge.net/DTD/sodipodi-0.dtd"
   xmlns:inkscape="http://www.inkscape.org/namespaces/inkscape"
   width="70mm"
   height="100mm"
   viewBox="0 0 70 100"
   version="1.1"
   id="svg8"
   inkscape:version="0.92.2 5c3e80d, 2017-08-06"
   sodipodi:docname="sticker.eo.svg"
   inkscape:export-filename="/home/emes/doc/dontbuymonero-sticker/sticker.en.png"
   inkscape:export-xdpi="300"
   inkscape:export-ydpi="300">
  <defs
     id="defs2" />
  <sodipodi:namedview
     id="base"
     pagecolor="#ffffff"
     bordercolor="#666666"
     borderopacity="1.0"
     inkscape:pageopacity="0.0"
     inkscape:pageshadow="2"
     inkscape:zoom="1.4"
     inkscape:cx="-40.806092"
     inkscape:cy="57.94305"
     inkscape:document-units="mm"
     inkscape:current-layer="layer1"
     showgrid="false"
     showguides="true"
     inkscape:guide-bbox="true"
     inkscape:snap-to-guides="true"
     inkscape:snap-grids="true"
     inkscape:snap-page="true"
     inkscape:snap-bbox="true"
     inkscape:bbox-nodes="true"
     inkscape:bbox-paths="true"
     inkscape:window-width="1920"
     inkscape:window-height="1136"
     inkscape:window-x="0"
     inkscape:window-y="747"
     inkscape:window-maximized="1"
     inkscape:pagecheckerboard="true"
     inkscape:measure-start="0,0"
     inkscape:measure-end="0,0">
    <sodipodi:guide
       position="5,91.472997"
       orientation="1,0"
       id="guide889"
       inkscape:locked="false"
       inkscape:label=""
       inkscape:color="rgb(0,0,255)" />
    <sodipodi:guide
       position="65,88.533032"
       orientation="1,0"
       id="guide891"
       inkscape:locked="false"
       inkscape:label=""
       inkscape:color="rgb(0,0,255)" />
    <sodipodi:guide
       position="28.86511,95"
       orientation="0,1"
       id="guide893"
       inkscape:locked="false"
       inkscape:label=""
       inkscape:color="rgb(0,0,255)" />
    <sodipodi:guide
       position="36.348657,5"
       orientation="0,1"
       id="guide895"
       inkscape:locked="false"
       inkscape:label=""
       inkscape:color="rgb(0,0,255)" />
    <sodipodi:guide
       position="8,45.435819"
       orientation="1,0"
       id="guide951"
       inkscape:locked="false"
       inkscape:label=""
       inkscape:color="rgb(0,0,255)" />
    <sodipodi:guide
       position="62,64.54559"
       orientation="1,0"
       id="guide953"
       inkscape:locked="false"
       inkscape:label=""
       inkscape:color="rgb(0,0,255)" />
    <sodipodi:guide
       position="25.52424,8"
       orientation="0,1"
       id="guide955"
       inkscape:locked="false"
       inkscape:label=""
       inkscape:color="rgb(0,0,255)" />
    <sodipodi:guide
       position="26.125597,31"
       orientation="0,1"
       id="guide957"
       inkscape:locked="false"
       inkscape:label=""
       inkscape:color="rgb(0,0,255)" />
  </sodipodi:namedview>
  <metadata
     id="metadata5">
    <rdf:RDF>
      <cc:Work
         rdf:about="">
        <dc:format>image/svg+xml</dc:format>
        <dc:type
           rdf:resource="http://purl.org/dc/dcmitype/StillImage" />
        <dc:title></dc:title>
      </cc:Work>
    </rdf:RDF>
  </metadata>
  <g
     inkscape:label="Layer 1"
     inkscape:groupmode="layer"
     id="layer1"
     transform="translate(0,-197)">
    <rect
       style="fill:#ffffff;fill-opacity:1;stroke:none;stroke-width:1;stroke-linecap:square;stroke-miterlimit:4;stroke-dasharray:none;stroke-opacity:1"
       id="rect858"
       width="70"
       height="100"
       x="0"
       y="197" />
    <g
       id="g875"
       transform="translate(-2.0000006,5.4790253)"
       inkscape:export-xdpi="352.57999"
       inkscape:export-ydpi="352.57999">
      <g
         transform="matrix(1.3011002,0,0,1.3011002,16.420217,-75.468301)"
         id="g915">
        <path
           inkscape:connector-curvature="0"
           d="m 15.817084,222.05063 c -5.391414,0 -9.7639184,4.37197 -9.7639184,9.76365 0,1.07791 0.174625,2.11455 0.4974166,3.08425 h 2.9199417 v -8.21505 l 6.3465601,6.34656 6.346561,-6.34656 v 8.21505 h 2.920206 c 0.322791,-0.9697 0.497416,-2.00634 0.497416,-3.08425 0,-5.39168 -4.372504,-9.76365 -9.764183,-9.76365"
           id="path22"
           style="fill:#ff6600;stroke-width:0.26458332" />
        <path
           inkscape:connector-curvature="0"
           d="m 11.58809,231.71921 v 5.16917 H 7.4738193 c 1.7139708,2.81199 4.8095957,4.69 8.3431057,4.69 3.533511,0 6.6294,-1.87801 8.343107,-4.69 h -4.114007 v -5.16917 l -4.2291,4.2291 z"
           id="path26"
           style="fill:#4c4c4c;stroke-width:0.26458332" />
      </g>
      <g
         transform="matrix(0.88274719,0,0,0.88274719,-10.947117,38.872224)"
         id="g911">
        <path
           inkscape:connector-curvature="0"
           d="m 78.102302,234.59405 c -0.516202,0.53154 -1.142206,0.79639 -1.878277,0.79639 -0.650346,0 -1.225285,-0.20426 -1.728523,-0.61489 -0.646906,-0.52361 -0.969962,-1.23666 -0.969962,-2.13889 0,-0.80778 0.257175,-1.47532 0.771525,-1.99919 0.512497,-0.52573 1.14591,-0.78687 1.900766,-0.78687 0.745331,0 1.379008,0.26881 1.898915,0.80565 0.522023,0.53711 0.782902,1.1938 0.782902,1.97088 0,0.7792 -0.258763,1.43352 -0.777346,1.96692 m 1.083998,-5.01042 c -0.828675,-0.8337 -1.81954,-1.25174 -2.973388,-1.25174 -0.760412,0 -1.471347,0.19129 -2.129366,0.57308 -0.6604,0.38206 -1.178719,0.90012 -1.554956,1.5547 -0.376503,0.65431 -0.565415,1.37133 -0.565415,2.15026 0,1.16338 0.404548,2.16747 1.214437,3.01334 0.809096,0.8472 1.825096,1.26895 3.046413,1.26895 1.167077,0 2.160323,-0.41037 2.979208,-1.23508 0.818886,-0.82285 1.227402,-1.83065 1.227402,-3.02048 0,-1.19936 -0.414337,-2.21668 -1.244335,-3.05303"
           id="path30"
           style="fill:#4c4c4c;stroke-width:0.26458332" />
        <path
           inkscape:connector-curvature="0"
           d="m 69,231.47434 c -0.196585,0.13706 -0.289454,0.20453 -0.809625,0.20453 h -2.046816 v -1.75102 h 1.983316 c 0.397669,0 0.468048,0.0299 0.631032,0.0913 0.162454,0.0595 0.29157,0.15902 0.388937,0.29581 0.09737,0.13705 0.144992,0.29977 0.144992,0.4863 0,0.3138 -0.09737,0.53817 -0.291836,0.6731 m 0.246063,1.61211 c 0.542131,-0.19473 0.94906,-0.48048 1.218935,-0.85752 0.27014,-0.37914 0.403225,-0.84798 0.403225,-1.41155 0,-0.53419 -0.120914,-0.9988 -0.365389,-1.38985 -0.244211,-0.39106 -0.567796,-0.67099 -0.96864,-0.83979 -0.401108,-0.16881 -1.074208,-0.254 -2.021152,-0.254 h -2.997464 v 8.55662 h 1.627981 v -3.6232 h 1.420812 l 1.926167,3.6232 h 1.780646 z"
           id="path34"
           style="fill:#4c4c4c;stroke-width:0.26458332" />
        <path
           inkscape:connector-curvature="0"
           d="m 57.217787,228.33189 h 5.547783 v 1.59411 h -3.929591 v 1.75128 h 3.929591 v 1.56633 h -3.929591 v 2.0447 h 3.929591 v 1.60047 h -5.547783 z"
           id="path38"
           style="fill:#4c4c4c;stroke-width:0.26458332" />
        <path
           inkscape:connector-curvature="0"
           d="m 48.621925,228.33189 h 1.55866 l 3.670829,5.63033 v -5.63033 h 1.627981 v 8.55662 h -1.564481 l -3.665008,-5.61234 v 5.61234 h -1.627981 z"
           id="path42"
           style="fill:#4c4c4c;stroke-width:0.26458332" />
        <use
           transform="translate(-33.088422,-1.0786894e-6)"
           id="use46"
           x="0"
           y="0"
           width="282"
           height="75"
           xlink:href="#path30" />
        <path
           inkscape:connector-curvature="0"
           d="m 29.678129,228.33165 h 1.594114 l 1.977231,5.9682 2.007394,-5.9682 h 1.570302 l 1.441715,8.55689 h -1.570567 l -0.919162,-5.40412 -1.820598,5.40412 h -1.435629 l -1.796521,-5.40412 -0.937154,5.40412 H 28.20096 Z"
           id="path50"
           style="fill:#4c4c4c;stroke-width:0.26458332" />
      </g>
    </g>
    <flowRoot
       xml:space="preserve"
       id="flowRoot840"
       style="font-style:normal;font-weight:normal;font-size:26.66666603px;line-height:1.25;font-family:sans-serif;letter-spacing:0px;word-spacing:0px;fill:#000000;fill-opacity:1;stroke:none"><flowRegion
         id="flowRegion842"><rect
           id="rect844"
           width="77.781746"
           height="47.477169"
           x="239.40616"
           y="264.52042" /></flowRegion><flowPara
         id="flowPara846" /></flowRoot>    <flowRoot
       xml:space="preserve"
       id="flowRoot866"
       style="font-style:normal;font-variant:normal;font-weight:bold;font-stretch:normal;font-size:16px;line-height:1.25;font-family:'Century Gothic';-inkscape-font-specification:'Century Gothic Bold';text-align:center;letter-spacing:0px;word-spacing:0px;text-anchor:middle;fill:#000000;fill-opacity:1;stroke:none"
       transform="matrix(0.26458333,0,0,0.26458333,0,192)"><flowRegion
         id="flowRegion868"
         style="font-size:16px"><rect
           id="rect870"
           width="241.88977"
           height="148.28261"
           x="18.897638"
           y="229.67015"
           style="font-size:16px" /></flowRegion><flowPara
         id="flowPara872" /></flowRoot>    <flowRoot
       xml:space="preserve"
       id="flowRoot874"
       style="font-style:normal;font-variant:normal;font-weight:bold;font-stretch:normal;font-size:26.66666603px;line-height:1.25;font-family:'Century Gothic';-inkscape-font-specification:'Century Gothic Bold';text-align:center;letter-spacing:0px;word-spacing:0px;text-anchor:middle;fill:#000000;fill-opacity:1;stroke:none"><flowRegion
         id="flowRegion876"><rect
           id="rect878"
           width="241.88977"
           height="148.28261"
           x="18.897638"
           y="229.67015" /></flowRegion><flowPara
         id="flowPara880" /></flowRoot>    <g
       id="g861">
      <path
         inkscape:connector-curvature="0"
         id="rect861"
         d="M 5,263.0024 V 263.44051 292 h 60 v -28.9976 z m 0.874399,0.8744 h 58.251202 v 27.24879 H 5.874399 Z"
         style="color:#000000;font-style:normal;font-variant:normal;font-weight:normal;font-stretch:normal;font-size:medium;line-height:normal;font-family:sans-serif;font-variant-ligatures:normal;font-variant-position:normal;font-variant-caps:normal;font-variant-numeric:normal;font-variant-alternates:normal;font-feature-settings:normal;text-indent:0;text-align:start;text-decoration:none;text-decoration-line:none;text-decoration-style:solid;text-decoration-color:#000000;letter-spacing:normal;word-spacing:normal;text-transform:none;writing-mode:lr-tb;direction:ltr;text-orientation:mixed;dominant-baseline:auto;baseline-shift:baseline;text-anchor:start;white-space:normal;shape-padding:0;clip-rule:nonzero;display:inline;overflow:visible;visibility:visible;opacity:1;isolation:auto;mix-blend-mode:normal;color-interpolation:sRGB;color-interpolation-filters:linearRGB;solid-color:#000000;solid-opacity:1;vector-effect:none;fill:#4c4c4c;fill-opacity:1;fill-rule:nonzero;stroke:none;stroke-width:0.87388474;stroke-linecap:square;stroke-linejoin:miter;stroke-miterlimit:4;stroke-dasharray:none;stroke-dashoffset:0;stroke-opacity:1;color-rendering:auto;image-rendering:auto;shape-rendering:auto;text-rendering:auto;enable-background:accumulate" />
    </g>
    <g
       aria-label="NE AĈETU"
       transform="matrix(0.26458333,0,0,0.26458333,0,197)"
       style="font-style:normal;font-variant:normal;font-weight:bold;font-stretch:normal;font-size:42.66666794px;line-height:1.25;font-family:'Century Gothic';-inkscape-font-specification:'Century Gothic Bold';text-align:center;letter-spacing:0px;word-spacing:0px;text-anchor:middle;fill:#000000;fill-opacity:1;stroke:none"
       id="flowRoot1254">
      <path
         d="m 24.916992,27.999857 h 6.28125 l 14.789063,22.6875 v -22.6875 h 6.5625 V 62.476419 H 46.245117 L 31.479492,39.859232 v 22.617187 h -6.5625 z"
         style="font-size:48px;fill:#4c4c4c;fill-opacity:1"
         id="path1272" />
      <path
         d="m 60.448242,27.999857 h 18.820313 v 6.421875 H 66.963867 v 6.234375 h 12.304688 v 6.304687 H 66.963867 v 9.070313 h 12.304688 v 6.445312 H 60.448242 Z"
         style="font-size:48px;fill:#4c4c4c;fill-opacity:1"
         id="path1274" />
      <path
         d="m 109.26855,27.999857 h 6.65625 l 13.26563,34.476562 h -6.82031 l -2.69532,-7.101562 h -14.0625 l -2.8125,7.101562 h -6.820308 z m 3.375,9.140625 -4.59375,11.835937 h 9.16407 z"
         style="font-size:48px;fill:#4c4c4c;fill-opacity:1"
         id="path1276" />
      <path
         d="m 165.9873,34.070169 -4.59375,4.382813 q -4.6875,-4.945313 -10.54687,-4.945313 -4.94531,0 -8.34375,3.375 -3.375,3.375 -3.375,8.320313 0,3.445312 1.5,6.117187 1.5,2.671875 4.24219,4.195313 2.74218,1.523437 6.09375,1.523437 2.85937,0 5.22656,-1.054687 2.36719,-1.078125 5.20312,-3.890625 l 4.45313,4.640625 q -3.82031,3.726562 -7.21875,5.179687 -3.39844,1.429688 -7.75781,1.429688 -8.03907,0 -13.17188,-5.085938 -5.10937,-5.109375 -5.10937,-13.078125 0,-5.15625 2.32031,-9.164062 2.34375,-4.007813 6.67969,-6.445313 4.35937,-2.4375 9.375,-2.4375 4.26562,0 8.20312,1.804688 3.96094,1.804687 6.82031,5.132812 z m -25.40625,-8.742187 7.03125,-6.632813 h 5.13282 l 6.98437,6.632813 h -6.98437 l -2.53125,-3.070313 -2.60157,3.070313 z"
         style="font-size:48px;fill:#4c4c4c;fill-opacity:1"
         id="path1278" />
      <path
         d="m 171.72949,27.999857 h 18.82031 v 6.421875 h -12.30468 v 6.234375 h 12.30468 v 6.304687 h -12.30468 v 9.070313 h 12.30468 v 6.445312 h -18.82031 z"
         style="font-size:48px;fill:#4c4c4c;fill-opacity:1"
         id="path1280" />
      <path
         d="m 193.24512,27.999857 h 19.05468 v 6.46875 h -6.28125 V 62.476419 H 199.3623 V 34.468607 h -6.11718 z"
         style="font-size:48px;fill:#4c4c4c;fill-opacity:1"
         id="path1282" />
      <path
         d="m 216.56543,27.999857 h 6.58594 v 22.3125 q 0,2.882812 0.49218,4.078125 0.51563,1.195312 1.66407,1.921875 1.17187,0.703125 2.8125,0.703125 1.73437,0 2.97656,-0.796875 1.26562,-0.796875 1.73437,-2.015625 0.49219,-1.242188 0.49219,-4.710938 V 27.999857 h 6.58594 v 20.554687 q 0,5.203125 -0.58594,7.21875 -0.58594,2.015625 -2.25,3.890625 -1.64062,1.875 -3.79687,2.789063 -2.15625,0.890625 -5.01563,0.890625 -3.75,0 -6.53906,-1.710938 -2.76563,-1.734375 -3.96094,-4.3125 -1.19531,-2.601562 -1.19531,-8.765625 z"
         style="font-size:48px;fill:#4c4c4c;fill-opacity:1"
         id="path1284" />
    </g>
    <g
       aria-label="Ĉifravalutoj estas damaĝemaj al la banksistemo kaj povas malfortigi la aparaton de ŝtato"
       transform="matrix(0.26458333,0,0,0.26458333,-3.8530227,199.53105)"
       style="font-style:normal;font-variant:normal;font-weight:bold;font-stretch:normal;font-size:16px;line-height:1.25;font-family:'Century Gothic';-inkscape-font-specification:'Century Gothic Bold';text-align:center;letter-spacing:0px;word-spacing:0px;text-anchor:middle;fill:#4c4c4c;fill-opacity:1;stroke:none"
       id="flowRoot1262">
      <path
         d="m 57.250388,268.4131 -1.301562,1.2418 q -1.328125,-1.40117 -2.988282,-1.40117 -1.401172,0 -2.364062,0.95625 -0.95625,0.95625 -0.95625,2.35742 0,0.97617 0.425,1.7332 0.425,0.75703 1.201953,1.18868 0.776953,0.43164 1.726562,0.43164 0.810157,0 1.48086,-0.29883 0.670703,-0.30547 1.474219,-1.10235 l 1.261718,1.31485 q -1.082422,1.05586 -2.045312,1.46758 -0.962891,0.40507 -2.198047,0.40507 -2.277735,0 -3.732031,-1.44101 -1.447657,-1.44766 -1.447657,-3.70547 0,-1.46094 0.657422,-2.59649 0.664063,-1.13554 1.892578,-1.82617 1.235157,-0.69062 2.65625,-0.69062 1.208594,0 2.324219,0.51133 1.122266,0.51132 1.932422,1.45429 z m -7.198438,-2.47695 1.992188,-1.8793 h 1.454297 l 1.978906,1.8793 h -1.978906 l -0.717188,-0.86992 -0.737109,0.86992 z"
         style="font-size:13.60000038px;fill:#4c4c4c;fill-opacity:1"
         id="path1287" />
      <path
         d="m 59.382029,266.26154 q 0.478125,0 0.816797,0.34531 0.345313,0.34532 0.345313,0.83672 0,0.48477 -0.338672,0.83008 -0.338672,0.33867 -0.810156,0.33867 -0.484766,0 -0.830079,-0.34531 -0.338672,-0.35195 -0.338672,-0.85 0,-0.47813 0.338672,-0.8168 0.338672,-0.33867 0.816797,-0.33867 z m -0.909765,2.975 h 1.819531 v 7.225 h -1.819531 z"
         style="font-size:13.60000038px;fill:#4c4c4c;fill-opacity:1"
         id="path1289" />
      <path
         d="m 61.075388,269.23654 h 0.644141 q 0.0066,-1.42109 0.04648,-1.68008 0.07305,-0.59765 0.498047,-0.94297 0.431641,-0.35195 1.215235,-0.35195 0.564453,0 1.275,0.25898 v 1.38125 q -0.391797,-0.11289 -0.644141,-0.11289 -0.31875,0 -0.464844,0.13282 -0.10625,0.0996 -0.10625,0.41172 l -0.0066,0.90312 h 1.148828 v 1.54063 H 63.53242 v 5.68437 h -1.812891 v -5.68437 h -0.644141 z"
         style="font-size:13.60000038px;fill:#4c4c4c;fill-opacity:1"
         id="path1291" />
      <path
         d="m 65.312107,269.23654 h 1.553906 v 0.90977 q 0.252344,-0.53789 0.670703,-0.8168 0.418359,-0.27891 0.916406,-0.27891 0.351953,0 0.73711,0.18594 l -0.564453,1.56055 q -0.31875,-0.15938 -0.52461,-0.15938 -0.418359,0 -0.710547,0.51797 -0.285547,0.51797 -0.285547,2.03203 l 0.0066,0.35196 v 2.92187 h -1.799609 z"
         style="font-size:13.60000038px;fill:#4c4c4c;fill-opacity:1"
         id="path1293" />
      <path
         d="m 75.43242,269.23654 h 1.80625 v 7.225 h -1.80625 v -0.76367 q -0.53125,0.50469 -1.069141,0.73047 -0.53125,0.21914 -1.155468,0.21914 -1.401172,0 -2.423829,-1.08242 -1.022656,-1.08907 -1.022656,-2.70274 0,-1.67344 0.989453,-2.74258 0.989453,-1.06914 2.403907,-1.06914 0.650781,0 1.221875,0.24571 0.571093,0.2457 1.055859,0.73711 z m -1.905859,1.4875 q -0.84336,0 -1.401172,0.59766 -0.557813,0.59101 -0.557813,1.5207 0,0.93633 0.564453,1.54063 0.571094,0.60429 1.401172,0.60429 0.856641,0 1.421094,-0.59101 0.564453,-0.59766 0.564453,-1.56055 0,-0.94297 -0.564453,-1.52734 -0.564453,-0.58438 -1.427734,-0.58438 z"
         style="font-size:13.60000038px;fill:#4c4c4c;fill-opacity:1"
         id="path1295" />
      <path
         d="m 78.294531,269.23654 h 1.846094 l 1.826171,4.26328 1.819532,-4.26328 h 1.839453 l -3.07461,7.225 h -1.17539 z"
         style="font-size:13.60000038px;fill:#4c4c4c;fill-opacity:1"
         id="path1297" />
      <path
         d="m 92.033983,269.23654 h 1.80625 v 7.225 h -1.80625 v -0.76367 q -0.53125,0.50469 -1.069141,0.73047 -0.53125,0.21914 -1.155469,0.21914 -1.401172,0 -2.423828,-1.08242 -1.022656,-1.08907 -1.022656,-2.70274 0,-1.67344 0.989453,-2.74258 0.989453,-1.06914 2.403906,-1.06914 0.650781,0 1.221875,0.24571 0.571094,0.2457 1.05586,0.73711 z m -1.90586,1.4875 q -0.843359,0 -1.401172,0.59766 -0.557812,0.59101 -0.557812,1.5207 0,0.93633 0.564453,1.54063 0.571094,0.60429 1.401172,0.60429 0.85664,0 1.421094,-0.59101 0.564453,-0.59766 0.564453,-1.56055 0,-0.94297 -0.564453,-1.52734 -0.564454,-0.58438 -1.427735,-0.58438 z"
         style="font-size:13.60000038px;fill:#4c4c4c;fill-opacity:1"
         id="path1299" />
      <path
         d="m 95.480468,266.44748 h 1.812891 v 10.01406 h -1.812891 z"
         style="font-size:13.60000038px;fill:#4c4c4c;fill-opacity:1"
         id="path1301" />
      <path
         d="m 98.933595,269.23654 h 1.832815 v 3.47969 q 0,1.01601 0.13945,1.41445 0.13945,0.3918 0.44492,0.61094 0.31211,0.21914 0.76367,0.21914 0.45157,0 0.76368,-0.2125 0.31875,-0.21914 0.47148,-0.6375 0.11289,-0.31211 0.11289,-1.33477 v -3.53945 h 1.81953 v 3.06133 q 0,1.89258 -0.29883,2.58984 -0.36523,0.85 -1.07578,1.30821 -0.71054,0.45156 -1.80625,0.45156 -1.18867,0 -1.92578,-0.53125 -0.730467,-0.53125 -1.029295,-1.48086 -0.2125,-0.65742 -0.2125,-2.39063 z"
         style="font-size:13.60000038px;fill:#4c4c4c;fill-opacity:1"
         id="path1303" />
      <path
         d="m 107.31406,266.57365 h 1.80625 v 2.66289 h 1.07578 v 1.56055 h -1.07578 v 5.66445 h -1.80625 v -5.66445 h -0.92969 v -1.56055 h 0.92969 z"
         style="font-size:13.60000038px;fill:#4c4c4c;fill-opacity:1"
         id="path1305" />
      <path
         d="m 114.57891,269.0506 q 1.02265,0 1.91914,0.51133 0.90312,0.51133 1.40781,1.38789 0.50469,0.87656 0.50469,1.89258 0,1.02266 -0.51133,1.9125 -0.50469,0.88984 -1.38125,1.39453 -0.87656,0.49805 -1.93242,0.49805 -1.55391,0 -2.65625,-1.10235 -1.09571,-1.10898 -1.09571,-2.68945 0,-1.69336 1.2418,-2.82226 1.08906,-0.98282 2.50352,-0.98282 z m 0.0266,1.70664 q -0.84336,0 -1.40781,0.59102 -0.55782,0.58437 -0.55782,1.50078 0,0.94297 0.55118,1.52734 0.55781,0.58438 1.40781,0.58438 0.85,0 1.41445,-0.59102 0.56445,-0.59101 0.56445,-1.5207 0,-0.92969 -0.55781,-1.50742 -0.55117,-0.58438 -1.41445,-0.58438 z"
         style="font-size:13.60000038px;fill:#4c4c4c;fill-opacity:1"
         id="path1307" />
      <path
         d="m 120.74805,266.26154 q 0.48476,0 0.82344,0.34531 0.34531,0.34532 0.34531,0.83672 0,0.48477 -0.33867,0.83008 -0.33868,0.34531 -0.81016,0.34531 -0.48477,0 -0.83008,-0.35195 -0.33867,-0.35195 -0.33867,-0.85 0,-0.47813 0.33203,-0.8168 0.33867,-0.33867 0.8168,-0.33867 z m -0.90313,2.975 h 1.81289 v 7.46406 q 0,1.0293 -0.20586,1.53399 -0.19921,0.51133 -0.6375,0.78359 -0.43828,0.27227 -1.05585,0.27227 -0.54454,0 -1.35469,-0.27227 v -1.42773 q 0.425,0.20586 0.75039,0.20586 0.34531,0 0.51797,-0.20586 0.17265,-0.20586 0.17265,-0.75703 z"
         style="font-size:13.60000038px;fill:#4c4c4c;fill-opacity:1"
         id="path1309" />
      <path
         d="m 134.46758,273.37365 h -5.82383 q 0.12618,0.77031 0.67071,1.22852 0.55117,0.45156 1.40117,0.45156 1.01602,0 1.74648,-0.71055 l 1.52735,0.71719 q -0.5711,0.81016 -1.36797,1.20195 -0.79688,0.38516 -1.89258,0.38516 -1.7,0 -2.76914,-1.06914 -1.06914,-1.07578 -1.06914,-2.68946 0,-1.65351 1.0625,-2.74257 1.06914,-1.09571 2.67617,-1.09571 1.70664,0 2.77578,1.09571 1.06914,1.08906 1.06914,2.88203 z m -1.81953,-1.42773 q -0.17929,-0.6043 -0.71055,-0.98282 -0.5246,-0.37851 -1.22187,-0.37851 -0.75703,0 -1.32813,0.425 -0.35859,0.26562 -0.66406,0.93633 z"
         style="font-size:13.60000038px;fill:#4c4c4c;fill-opacity:1"
         id="path1311" />
      <path
         d="m 140.36445,270.24592 -1.12226,1.12226 q -0.68399,-0.67734 -1.2418,-0.67734 -0.30547,0 -0.47813,0.13281 -0.17265,0.12617 -0.17265,0.31875 0,0.14609 0.10625,0.27227 0.11289,0.11953 0.54453,0.33203 l 0.66406,0.33203 q 1.04922,0.51797 1.44102,1.05586 0.39179,0.53789 0.39179,1.26172 0,0.96289 -0.71054,1.60703 -0.70391,0.64414 -1.89258,0.64414 -1.58047,0 -2.52344,-1.23516 l 1.11563,-1.21523 q 0.31875,0.37187 0.74375,0.60429 0.43164,0.22579 0.76367,0.22579 0.35859,0 0.57773,-0.17266 0.21914,-0.17266 0.21914,-0.39844 0,-0.41836 -0.79023,-0.81679 l -0.61094,-0.30547 q -1.75312,-0.88321 -1.75312,-2.21133 0,-0.85664 0.65742,-1.46094 0.66406,-0.61094 1.69336,-0.61094 0.7039,0 1.32148,0.31211 0.62422,0.30547 1.05586,0.88321 z"
         style="font-size:13.60000038px;fill:#4c4c4c;fill-opacity:1"
         id="path1313" />
      <path
         d="m 142.1375,266.57365 h 1.80625 v 2.66289 h 1.07578 v 1.56055 h -1.07578 v 5.66445 h -1.80625 v -5.66445 h -0.92969 v -1.56055 h 0.92969 z"
         style="font-size:13.60000038px;fill:#4c4c4c;fill-opacity:1"
         id="path1315" />
      <path
         d="m 151.34805,269.23654 h 1.80625 v 7.225 h -1.80625 v -0.76367 q -0.53125,0.50469 -1.06914,0.73047 -0.53125,0.21914 -1.15547,0.21914 -1.40117,0 -2.42383,-1.08242 -1.02265,-1.08907 -1.02265,-2.70274 0,-1.67344 0.98945,-2.74258 0.98945,-1.06914 2.40391,-1.06914 0.65078,0 1.22187,0.24571 0.57109,0.2457 1.05586,0.73711 z m -1.90586,1.4875 q -0.84336,0 -1.40117,0.59766 -0.55781,0.59101 -0.55781,1.5207 0,0.93633 0.56445,1.54063 0.57109,0.60429 1.40117,0.60429 0.85664,0 1.4211,-0.59101 0.56445,-0.59766 0.56445,-1.56055 0,-0.94297 -0.56445,-1.52734 -0.56446,-0.58438 -1.42774,-0.58438 z"
         style="font-size:13.60000038px;fill:#4c4c4c;fill-opacity:1"
         id="path1317" />
      <path
         d="m 159.40977,270.24592 -1.12227,1.12226 q -0.68398,-0.67734 -1.24179,-0.67734 -0.30547,0 -0.47813,0.13281 -0.17265,0.12617 -0.17265,0.31875 0,0.14609 0.10625,0.27227 0.11289,0.11953 0.54453,0.33203 l 0.66406,0.33203 q 1.04922,0.51797 1.44102,1.05586 0.39179,0.53789 0.39179,1.26172 0,0.96289 -0.71054,1.60703 -0.70391,0.64414 -1.89258,0.64414 -1.58047,0 -2.52344,-1.23516 l 1.11563,-1.21523 q 0.31875,0.37187 0.74375,0.60429 0.43164,0.22579 0.76367,0.22579 0.35859,0 0.57773,-0.17266 0.21914,-0.17266 0.21914,-0.39844 0,-0.41836 -0.79023,-0.81679 l -0.61094,-0.30547 q -1.75312,-0.88321 -1.75312,-2.21133 0,-0.85664 0.65742,-1.46094 0.66406,-0.61094 1.69336,-0.61094 0.7039,0 1.32148,0.31211 0.62422,0.30547 1.05586,0.88321 z"
         style="font-size:13.60000038px;fill:#4c4c4c;fill-opacity:1"
         id="path1319" />
      <path
         d="m 170.10118,266.44748 h 1.80625 v 10.01406 h -1.80625 v -0.76367 q -0.53125,0.50469 -1.06914,0.73047 -0.53125,0.21914 -1.15547,0.21914 -1.40117,0 -2.42383,-1.08242 -1.02266,-1.08907 -1.02266,-2.70274 0,-1.67344 0.98946,-2.74258 0.98945,-1.06914 2.4039,-1.06914 0.65079,0 1.22188,0.24571 0.57109,0.2457 1.05586,0.73711 z m -1.90586,4.27656 q -0.84336,0 -1.40117,0.59766 -0.55782,0.59101 -0.55782,1.5207 0,0.93633 0.56446,1.54063 0.57109,0.60429 1.40117,0.60429 0.85664,0 1.42109,-0.59101 0.56446,-0.59766 0.56446,-1.56055 0,-0.94297 -0.56446,-1.52734 -0.56445,-0.58438 -1.42773,-0.58438 z"
         style="font-size:13.60000038px;fill:#4c4c4c;fill-opacity:1"
         id="path1321" />
      <path
         d="m 179.0793,269.23654 h 1.80625 v 7.225 h -1.80625 v -0.76367 q -0.53125,0.50469 -1.06914,0.73047 -0.53125,0.21914 -1.15547,0.21914 -1.40117,0 -2.42383,-1.08242 -1.02266,-1.08907 -1.02266,-2.70274 0,-1.67344 0.98946,-2.74258 0.98945,-1.06914 2.4039,-1.06914 0.65078,0 1.22188,0.24571 0.57109,0.2457 1.05586,0.73711 z m -1.90586,1.4875 q -0.84336,0 -1.40117,0.59766 -0.55782,0.59101 -0.55782,1.5207 0,0.93633 0.56446,1.54063 0.57109,0.60429 1.40117,0.60429 0.85664,0 1.42109,-0.59101 0.56446,-0.59766 0.56446,-1.56055 0,-0.94297 -0.56446,-1.52734 -0.56445,-0.58438 -1.42773,-0.58438 z"
         style="font-size:13.60000038px;fill:#4c4c4c;fill-opacity:1"
         id="path1323" />
      <path
         d="m 182.70509,269.23654 h 1.81953 v 0.83008 q 0.46484,-0.51133 1.0293,-0.76367 0.57109,-0.25235 1.24179,-0.25235 0.67735,0 1.22188,0.33203 0.54453,0.33204 0.87656,0.96954 0.43164,-0.6375 1.05586,-0.96954 0.63086,-0.33203 1.37461,-0.33203 0.77031,0 1.35469,0.3586 0.58437,0.35859 0.83672,0.93632 0.25898,0.57774 0.25898,1.8793 v 4.23672 h -1.82617 v -3.66562 q 0,-1.22852 -0.30547,-1.66016 -0.30547,-0.43828 -0.91641,-0.43828 -0.46484,0 -0.83672,0.26562 -0.36523,0.26563 -0.54453,0.73711 -0.17929,0.46485 -0.17929,1.50078 v 3.26055 h -1.82618 v -3.49961 q 0,-0.96953 -0.14609,-1.40117 -0.13945,-0.43828 -0.425,-0.65078 -0.28555,-0.2125 -0.69062,-0.2125 -0.45157,0 -0.82344,0.27226 -0.36524,0.26563 -0.55117,0.75039 -0.1793,0.48477 -0.1793,1.52735 v 3.21406 h -1.81953 z"
         style="font-size:13.60000038px;fill:#4c4c4c;fill-opacity:1"
         id="path1325" />
      <path
         d="m 200.83398,269.23654 h 1.80625 v 7.225 h -1.80625 v -0.76367 q -0.53125,0.50469 -1.06914,0.73047 -0.53125,0.21914 -1.15547,0.21914 -1.40117,0 -2.42383,-1.08242 -1.02265,-1.08907 -1.02265,-2.70274 0,-1.67344 0.98945,-2.74258 0.98945,-1.06914 2.40391,-1.06914 0.65078,0 1.22187,0.24571 0.5711,0.2457 1.05586,0.73711 z m -1.90586,1.4875 q -0.84336,0 -1.40117,0.59766 -0.55781,0.59101 -0.55781,1.5207 0,0.93633 0.56445,1.54063 0.57109,0.60429 1.40117,0.60429 0.85664,0 1.4211,-0.59101 0.56445,-0.59766 0.56445,-1.56055 0,-0.94297 -0.56445,-1.52734 -0.56446,-0.58438 -1.42774,-0.58438 z"
         style="font-size:13.60000038px;fill:#4c4c4c;fill-opacity:1"
         id="path1327" />
      <path
         d="m 209.81212,269.23654 h 1.80625 v 6.18906 q 0,1.83282 -0.73711,2.6961 -0.98946,1.16875 -2.98164,1.16875 -1.0625,0 -1.78633,-0.26563 -0.72383,-0.26562 -1.22188,-0.78359 -0.49804,-0.51133 -0.73711,-1.24844 h 1.99883 q 0.26563,0.30547 0.68399,0.4582 0.41836,0.15938 0.98945,0.15938 0.73047,0 1.17539,-0.22578 0.44492,-0.22578 0.62422,-0.58438 0.18594,-0.35859 0.18594,-1.23515 -0.47813,0.47812 -1.00274,0.69062 -0.52461,0.20586 -1.18867,0.20586 -1.4543,0 -2.45703,-1.04922 -1.00274,-1.04922 -1.00274,-2.65625 0,-1.71992 1.0625,-2.7625 0.96289,-0.94297 2.29766,-0.94297 0.62422,0 1.17539,0.23242 0.55781,0.22579 1.11563,0.7504 z m -1.8793,1.50742 q -0.85664,0 -1.41445,0.57774 -0.55782,0.57109 -0.55782,1.44101 0,0.90313 0.5711,1.48086 0.57109,0.57774 1.43437,0.57774 0.84336,0 1.38789,-0.56446 0.55117,-0.56445 0.55117,-1.48086 0,-0.90312 -0.55117,-1.46757 -0.55117,-0.56446 -1.42109,-0.56446 z m -2.7625,-2.8289 1.99219,-1.8793 h 1.45429 l 1.97891,1.8793 h -1.97891 l -0.71718,-0.86993 -0.73711,0.86993 z"
         style="font-size:13.60000038px;fill:#4c4c4c;fill-opacity:1"
         id="path1329" />
      <path
         d="m 220.68945,273.37365 h -5.82382 q 0.12617,0.77031 0.6707,1.22852 0.55117,0.45156 1.40117,0.45156 1.01602,0 1.74648,-0.71055 l 1.52735,0.71719 q -0.5711,0.81016 -1.36797,1.20195 -0.79688,0.38516 -1.89258,0.38516 -1.7,0 -2.76914,-1.06914 -1.06914,-1.07578 -1.06914,-2.68946 0,-1.65351 1.0625,-2.74257 1.06914,-1.09571 2.67617,-1.09571 1.70664,0 2.77578,1.09571 1.06914,1.08906 1.06914,2.88203 z m -1.81953,-1.42773 q -0.17929,-0.6043 -0.71054,-0.98282 -0.52461,-0.37851 -1.22188,-0.37851 -0.75703,0 -1.32812,0.425 -0.3586,0.26562 -0.66407,0.93633 z"
         style="font-size:13.60000038px;fill:#4c4c4c;fill-opacity:1"
         id="path1331" />
      <path
         d="m 222.1504,269.23654 h 1.81953 v 0.83008 q 0.46485,-0.51133 1.0293,-0.76367 0.57109,-0.25235 1.2418,-0.25235 0.67734,0 1.22187,0.33203 0.54453,0.33204 0.87656,0.96954 0.43164,-0.6375 1.05586,-0.96954 0.63086,-0.33203 1.37461,-0.33203 0.77031,0 1.35469,0.3586 0.58437,0.35859 0.83672,0.93632 0.25898,0.57774 0.25898,1.8793 v 4.23672 h -1.82617 v -3.66562 q 0,-1.22852 -0.30547,-1.66016 -0.30547,-0.43828 -0.9164,-0.43828 -0.46485,0 -0.83672,0.26562 -0.36524,0.26563 -0.54453,0.73711 -0.1793,0.46485 -0.1793,1.50078 v 3.26055 h -1.82617 v -3.49961 q 0,-0.96953 -0.1461,-1.40117 -0.13945,-0.43828 -0.425,-0.65078 -0.28554,-0.2125 -0.69062,-0.2125 -0.45156,0 -0.82344,0.27226 -0.36523,0.26563 -0.55117,0.75039 -0.1793,0.48477 -0.1793,1.52735 v 3.21406 h -1.81953 z"
         style="font-size:13.60000038px;fill:#4c4c4c;fill-opacity:1"
         id="path1333" />
      <path
         d="m 240.27931,269.23654 h 1.80625 v 7.225 h -1.80625 v -0.76367 q -0.53125,0.50469 -1.06914,0.73047 -0.53125,0.21914 -1.15547,0.21914 -1.40117,0 -2.42383,-1.08242 -1.02265,-1.08907 -1.02265,-2.70274 0,-1.67344 0.98945,-2.74258 0.98945,-1.06914 2.40391,-1.06914 0.65078,0 1.22187,0.24571 0.57109,0.2457 1.05586,0.73711 z m -1.90586,1.4875 q -0.84336,0 -1.40117,0.59766 -0.55781,0.59101 -0.55781,1.5207 0,0.93633 0.56445,1.54063 0.57109,0.60429 1.40117,0.60429 0.85664,0 1.42109,-0.59101 0.56446,-0.59766 0.56446,-1.56055 0,-0.94297 -0.56446,-1.52734 -0.56445,-0.58438 -1.42773,-0.58438 z"
         style="font-size:13.60000038px;fill:#4c4c4c;fill-opacity:1"
         id="path1335" />
      <path
         d="m 244.76837,266.26154 q 0.48476,0 0.82343,0.34531 0.34532,0.34532 0.34532,0.83672 0,0.48477 -0.33868,0.83008 -0.33867,0.34531 -0.81015,0.34531 -0.48477,0 -0.83008,-0.35195 -0.33867,-0.35195 -0.33867,-0.85 0,-0.47813 0.33203,-0.8168 0.33867,-0.33867 0.8168,-0.33867 z m -0.90313,2.975 h 1.81289 v 7.46406 q 0,1.0293 -0.20586,1.53399 -0.19922,0.51133 -0.6375,0.78359 -0.43828,0.27227 -1.05586,0.27227 -0.54453,0 -1.35468,-0.27227 v -1.42773 q 0.425,0.20586 0.75039,0.20586 0.34531,0 0.51796,-0.20586 0.17266,-0.20586 0.17266,-0.75703 z"
         style="font-size:13.60000038px;fill:#4c4c4c;fill-opacity:1"
         id="path1337" />
      <path
         d="m 61.168357,289.23654 h 1.80625 v 7.225 h -1.80625 v -0.76367 q -0.53125,0.50469 -1.069141,0.73047 -0.53125,0.21914 -1.155468,0.21914 -1.401172,0 -2.423829,-1.08242 -1.022656,-1.08907 -1.022656,-2.70274 0,-1.67344 0.989453,-2.74258 0.989453,-1.06914 2.403907,-1.06914 0.650781,0 1.221875,0.24571 0.571093,0.2457 1.055859,0.73711 z m -1.905859,1.4875 q -0.84336,0 -1.401172,0.59766 -0.557813,0.59101 -0.557813,1.5207 0,0.93633 0.564453,1.54063 0.571094,0.60429 1.401172,0.60429 0.856641,0 1.421094,-0.59101 0.564453,-0.59766 0.564453,-1.56055 0,-0.94297 -0.564453,-1.52734 -0.564453,-0.58438 -1.427734,-0.58438 z"
         style="font-size:13.60000038px;fill:#4c4c4c;fill-opacity:1"
         id="path1339" />
      <path
         d="m 64.614842,286.44748 h 1.81289 v 10.01406 h -1.81289 z"
         style="font-size:13.60000038px;fill:#4c4c4c;fill-opacity:1"
         id="path1341" />
      <path
         d="m 71.680467,286.44748 h 1.812891 v 10.01406 h -1.812891 z"
         style="font-size:13.60000038px;fill:#4c4c4c;fill-opacity:1"
         id="path1343" />
      <path
         d="m 80.479295,289.23654 h 1.80625 v 7.225 h -1.80625 v -0.76367 q -0.53125,0.50469 -1.069141,0.73047 -0.53125,0.21914 -1.155469,0.21914 -1.401171,0 -2.423828,-1.08242 -1.022656,-1.08907 -1.022656,-2.70274 0,-1.67344 0.989453,-2.74258 0.989453,-1.06914 2.403906,-1.06914 0.650782,0 1.221875,0.24571 0.571094,0.2457 1.05586,0.73711 z m -1.90586,1.4875 q -0.843359,0 -1.401171,0.59766 -0.557813,0.59101 -0.557813,1.5207 0,0.93633 0.564453,1.54063 0.571094,0.60429 1.401172,0.60429 0.856641,0 1.421094,-0.59101 0.564453,-0.59766 0.564453,-1.56055 0,-0.94297 -0.564453,-1.52734 -0.564453,-0.58438 -1.427735,-0.58438 z"
         style="font-size:13.60000038px;fill:#4c4c4c;fill-opacity:1"
         id="path1345" />
      <path
         d="m 89.716405,286.44748 v 3.58594 q 0.491407,-0.49141 1.0625,-0.73711 0.571094,-0.24571 1.221875,-0.24571 1.414454,0 2.403907,1.06914 0.989453,1.06914 0.989453,2.74258 0,1.61367 -1.022656,2.70274 -1.022657,1.08242 -2.423829,1.08242 -0.624218,0 -1.162109,-0.21914 -0.537891,-0.22578 -1.069141,-0.73047 v 0.76367 h -1.799609 v -10.01406 z m 1.90586,4.27656 q -0.856641,0 -1.421094,0.58438 -0.564453,0.58437 -0.564453,1.52734 0,0.96289 0.564453,1.56055 0.564453,0.59101 1.421094,0.59101 0.830078,0 1.394531,-0.60429 0.571094,-0.6043 0.571094,-1.54063 0,-0.92969 -0.557813,-1.5207 -0.557812,-0.59766 -1.407812,-0.59766 z"
         style="font-size:13.60000038px;fill:#4c4c4c;fill-opacity:1"
         id="path1347" />
      <path
         d="m 102.23399,289.23654 h 1.80625 v 7.225 h -1.80625 v -0.76367 q -0.53125,0.50469 -1.06915,0.73047 -0.53125,0.21914 -1.15546,0.21914 -1.401176,0 -2.423833,-1.08242 -1.022656,-1.08907 -1.022656,-2.70274 0,-1.67344 0.989453,-2.74258 0.989453,-1.06914 2.403907,-1.06914 0.650779,0 1.221879,0.24571 0.57109,0.2457 1.05586,0.73711 z m -1.90586,1.4875 q -0.843364,0 -1.401176,0.59766 -0.557813,0.59101 -0.557813,1.5207 0,0.93633 0.564453,1.54063 0.571094,0.60429 1.401176,0.60429 0.85664,0 1.42109,-0.59101 0.56445,-0.59766 0.56445,-1.56055 0,-0.94297 -0.56445,-1.52734 -0.56445,-0.58438 -1.42773,-0.58438 z"
         style="font-size:13.60000038px;fill:#4c4c4c;fill-opacity:1"
         id="path1349" />
      <path
         d="m 105.87305,289.23654 h 1.80625 v 0.73711 q 0.61758,-0.51797 1.11562,-0.71719 0.50469,-0.20586 1.0293,-0.20586 1.07578,0 1.82617,0.75039 0.63086,0.6375 0.63086,1.88594 v 4.77461 h -1.79297 v -3.16758 q 0,-1.29492 -0.11953,-1.71992 -0.11289,-0.425 -0.40508,-0.64414 -0.28554,-0.22578 -0.71054,-0.22578 -0.55117,0 -0.94961,0.37187 -0.3918,0.36524 -0.54453,1.01602 -0.0797,0.33867 -0.0797,1.46758 v 2.90195 h -1.80625 z"
         style="font-size:13.60000038px;fill:#4c4c4c;fill-opacity:1"
         id="path1351" />
      <path
         d="m 114.04102,286.44748 h 1.81289 v 5.7707 l 2.66953,-2.98164 h 2.27109 l -3.10781,3.46641 3.48633,3.75859 h -2.25117 l -3.06797,-3.32695 v 3.32695 h -1.81289 z"
         style="font-size:13.60000038px;fill:#4c4c4c;fill-opacity:1"
         id="path1353" />
      <path
         d="m 126.33945,290.24592 -1.12226,1.12226 q -0.68399,-0.67734 -1.2418,-0.67734 -0.30547,0 -0.47813,0.13281 -0.17265,0.12617 -0.17265,0.31875 0,0.14609 0.10625,0.27227 0.11289,0.11953 0.54453,0.33203 l 0.66406,0.33203 q 1.04922,0.51797 1.44102,1.05586 0.39179,0.53789 0.39179,1.26172 0,0.96289 -0.71054,1.60703 -0.70391,0.64414 -1.89258,0.64414 -1.58047,0 -2.52344,-1.23516 l 1.11563,-1.21523 q 0.31875,0.37187 0.74375,0.60429 0.43164,0.22579 0.76367,0.22579 0.35859,0 0.57773,-0.17266 0.21914,-0.17266 0.21914,-0.39844 0,-0.41836 -0.79023,-0.81679 l -0.61094,-0.30547 q -1.75312,-0.88321 -1.75312,-2.21133 0,-0.85664 0.65742,-1.46094 0.66406,-0.61094 1.69336,-0.61094 0.7039,0 1.32148,0.31211 0.62422,0.30547 1.05586,0.88321 z"
         style="font-size:13.60000038px;fill:#4c4c4c;fill-opacity:1"
         id="path1355" />
      <path
         d="m 128.60391,286.26154 q 0.47812,0 0.81679,0.34531 0.34531,0.34532 0.34531,0.83672 0,0.48477 -0.33867,0.83008 -0.33867,0.33867 -0.81015,0.33867 -0.48477,0 -0.83008,-0.34531 -0.33867,-0.35195 -0.33867,-0.85 0,-0.47813 0.33867,-0.8168 0.33867,-0.33867 0.8168,-0.33867 z m -0.90977,2.975 h 1.81953 v 7.225 h -1.81953 z"
         style="font-size:13.60000038px;fill:#4c4c4c;fill-opacity:1"
         id="path1357" />
      <path
         d="m 135.5832,290.24592 -1.12226,1.12226 q -0.68399,-0.67734 -1.2418,-0.67734 -0.30547,0 -0.47812,0.13281 -0.17266,0.12617 -0.17266,0.31875 0,0.14609 0.10625,0.27227 0.11289,0.11953 0.54453,0.33203 l 0.66406,0.33203 q 1.04922,0.51797 1.44102,1.05586 0.3918,0.53789 0.3918,1.26172 0,0.96289 -0.71055,1.60703 -0.70391,0.64414 -1.89258,0.64414 -1.58047,0 -2.52344,-1.23516 l 1.11563,-1.21523 q 0.31875,0.37187 0.74375,0.60429 0.43164,0.22579 0.76367,0.22579 0.35859,0 0.57773,-0.17266 0.21915,-0.17266 0.21915,-0.39844 0,-0.41836 -0.79024,-0.81679 l -0.61094,-0.30547 q -1.75312,-0.88321 -1.75312,-2.21133 0,-0.85664 0.65742,-1.46094 0.66406,-0.61094 1.69336,-0.61094 0.70391,0 1.32148,0.31211 0.62422,0.30547 1.05586,0.88321 z"
         style="font-size:13.60000038px;fill:#4c4c4c;fill-opacity:1"
         id="path1359" />
      <path
         d="m 137.35625,286.57365 h 1.80625 v 2.66289 h 1.07578 v 1.56055 h -1.07578 v 5.66445 h -1.80625 v -5.66445 h -0.92969 v -1.56055 h 0.92969 z"
         style="font-size:13.60000038px;fill:#4c4c4c;fill-opacity:1"
         id="path1361" />
      <path
         d="m 148.46601,293.37365 h -5.82383 q 0.12618,0.77031 0.67071,1.22852 0.55117,0.45156 1.40117,0.45156 1.01602,0 1.74648,-0.71055 l 1.52735,0.71719 q -0.5711,0.81016 -1.36797,1.20195 -0.79688,0.38516 -1.89258,0.38516 -1.7,0 -2.76914,-1.06914 -1.06914,-1.07578 -1.06914,-2.68946 0,-1.65351 1.0625,-2.74257 1.06914,-1.09571 2.67617,-1.09571 1.70664,0 2.77578,1.09571 1.06914,1.08906 1.06914,2.88203 z m -1.81953,-1.42773 q -0.17929,-0.6043 -0.71054,-0.98282 -0.52461,-0.37851 -1.22188,-0.37851 -0.75703,0 -1.32812,0.425 -0.3586,0.26562 -0.66407,0.93633 z"
         style="font-size:13.60000038px;fill:#4c4c4c;fill-opacity:1"
         id="path1363" />
      <path
         d="m 149.92695,289.23654 h 1.81953 v 0.83008 q 0.46485,-0.51133 1.0293,-0.76367 0.57109,-0.25235 1.2418,-0.25235 0.67734,0 1.22187,0.33203 0.54453,0.33204 0.87656,0.96954 0.43165,-0.6375 1.05586,-0.96954 0.63086,-0.33203 1.37461,-0.33203 0.77032,0 1.35469,0.3586 0.58438,0.35859 0.83672,0.93632 0.25898,0.57774 0.25898,1.8793 v 4.23672 h -1.82617 v -3.66562 q 0,-1.22852 -0.30547,-1.66016 -0.30547,-0.43828 -0.9164,-0.43828 -0.46485,0 -0.83672,0.26562 -0.36524,0.26563 -0.54453,0.73711 -0.1793,0.46485 -0.1793,1.50078 v 3.26055 h -1.82617 v -3.49961 q 0,-0.96953 -0.1461,-1.40117 -0.13945,-0.43828 -0.425,-0.65078 -0.28554,-0.2125 -0.69062,-0.2125 -0.45156,0 -0.82344,0.27226 -0.36523,0.26563 -0.55117,0.75039 -0.1793,0.48477 -0.1793,1.52735 v 3.21406 h -1.81953 z"
         style="font-size:13.60000038px;fill:#4c4c4c;fill-opacity:1"
         id="path1365" />
      <path
         d="m 166.11016,289.0506 q 1.02265,0 1.91914,0.51133 0.90312,0.51133 1.40781,1.38789 0.50469,0.87656 0.50469,1.89258 0,1.02266 -0.51133,1.9125 -0.50469,0.88984 -1.38125,1.39453 -0.87656,0.49805 -1.93242,0.49805 -1.55391,0 -2.65625,-1.10235 -1.0957,-1.10898 -1.0957,-2.68945 0,-1.69336 1.24179,-2.82226 1.08907,-0.98282 2.50352,-0.98282 z m 0.0266,1.70664 q -0.84336,0 -1.40781,0.59102 -0.55781,0.58437 -0.55781,1.50078 0,0.94297 0.55117,1.52734 0.55781,0.58438 1.40781,0.58438 0.85,0 1.41445,-0.59102 0.56446,-0.59101 0.56446,-1.5207 0,-0.92969 -0.55782,-1.50742 -0.55117,-0.58438 -1.41445,-0.58438 z"
         style="font-size:13.60000038px;fill:#4c4c4c;fill-opacity:1"
         id="path1367" />
      <path
         d="m 175.24102,286.44748 h 1.81289 v 5.7707 l 2.66953,-2.98164 h 2.2711 l -3.10782,3.46641 3.48633,3.75859 h -2.25117 l -3.06797,-3.32695 v 3.32695 h -1.81289 z"
         style="font-size:13.60000038px;fill:#4c4c4c;fill-opacity:1"
         id="path1369" />
      <path
         d="m 188.45586,289.23654 h 1.80625 v 7.225 h -1.80625 v -0.76367 q -0.53125,0.50469 -1.06914,0.73047 -0.53125,0.21914 -1.15547,0.21914 -1.40117,0 -2.42382,-1.08242 -1.02266,-1.08907 -1.02266,-2.70274 0,-1.67344 0.98945,-2.74258 0.98946,-1.06914 2.40391,-1.06914 0.65078,0 1.22187,0.24571 0.5711,0.2457 1.05586,0.73711 z m -1.90586,1.4875 q -0.84336,0 -1.40117,0.59766 -0.55781,0.59101 -0.55781,1.5207 0,0.93633 0.56445,1.54063 0.5711,0.60429 1.40117,0.60429 0.85664,0 1.4211,-0.59101 0.56445,-0.59766 0.56445,-1.56055 0,-0.94297 -0.56445,-1.52734 -0.56446,-0.58438 -1.42774,-0.58438 z"
         style="font-size:13.60000038px;fill:#4c4c4c;fill-opacity:1"
         id="path1371" />
      <path
         d="m 192.94492,286.26154 q 0.48476,0 0.82344,0.34531 0.34531,0.34532 0.34531,0.83672 0,0.48477 -0.33867,0.83008 -0.33867,0.34531 -0.81016,0.34531 -0.48476,0 -0.83008,-0.35195 -0.33867,-0.35195 -0.33867,-0.85 0,-0.47813 0.33203,-0.8168 0.33867,-0.33867 0.8168,-0.33867 z m -0.90313,2.975 h 1.81289 v 7.46406 q 0,1.0293 -0.20585,1.53399 -0.19922,0.51133 -0.6375,0.78359 -0.43829,0.27227 -1.05586,0.27227 -0.54454,0 -1.35469,-0.27227 v -1.42773 q 0.425,0.20586 0.75039,0.20586 0.34531,0 0.51797,-0.20586 0.17265,-0.20586 0.17265,-0.75703 z"
         style="font-size:13.60000038px;fill:#4c4c4c;fill-opacity:1"
         id="path1373" />
      <path
         d="m 201.22578,289.23654 v 0.79688 q 0.49141,-0.49141 1.0625,-0.73711 0.5711,-0.24571 1.22188,-0.24571 1.41445,0 2.4039,1.06914 0.98946,1.06914 0.98946,2.74258 0,1.61367 -1.02266,2.70274 -1.02266,1.08242 -2.42383,1.08242 -0.62422,0 -1.16211,-0.21914 -0.53789,-0.22578 -1.06914,-0.73047 v 3.40664 h -1.79961 v -9.86797 z m 1.90586,1.4875 q -0.85664,0 -1.42109,0.58438 -0.56446,0.58437 -0.56446,1.52734 0,0.96289 0.56446,1.56055 0.56445,0.59101 1.42109,0.59101 0.83008,0 1.39453,-0.60429 0.5711,-0.6043 0.5711,-1.54063 0,-0.92969 -0.55782,-1.5207 -0.55781,-0.59766 -1.40781,-0.59766 z"
         style="font-size:13.60000038px;fill:#4c4c4c;fill-opacity:1"
         id="path1375" />
      <path
         d="m 211.79767,289.0506 q 1.02265,0 1.91914,0.51133 0.90312,0.51133 1.40781,1.38789 0.50469,0.87656 0.50469,1.89258 0,1.02266 -0.51133,1.9125 -0.50469,0.88984 -1.38125,1.39453 -0.87656,0.49805 -1.93242,0.49805 -1.55391,0 -2.65625,-1.10235 -1.09571,-1.10898 -1.09571,-2.68945 0,-1.69336 1.2418,-2.82226 1.08906,-0.98282 2.50352,-0.98282 z m 0.0266,1.70664 q -0.84336,0 -1.40781,0.59102 -0.55782,0.58437 -0.55782,1.50078 0,0.94297 0.55118,1.52734 0.55781,0.58438 1.40781,0.58438 0.85,0 1.41445,-0.59102 0.56445,-0.59101 0.56445,-1.5207 0,-0.92969 -0.55781,-1.50742 -0.55117,-0.58438 -1.41445,-0.58438 z"
         style="font-size:13.60000038px;fill:#4c4c4c;fill-opacity:1"
         id="path1377" />
      <path
         d="m 216.33985,289.23654 h 1.84609 l 1.82617,4.26328 1.81953,-4.26328 h 1.83946 l -3.07461,7.225 h -1.17539 z"
         style="font-size:13.60000038px;fill:#4c4c4c;fill-opacity:1"
         id="path1379" />
      <path
         d="m 230.07931,289.23654 h 1.80625 v 7.225 h -1.80625 v -0.76367 q -0.53125,0.50469 -1.06914,0.73047 -0.53125,0.21914 -1.15547,0.21914 -1.40117,0 -2.42383,-1.08242 -1.02266,-1.08907 -1.02266,-2.70274 0,-1.67344 0.98946,-2.74258 0.98945,-1.06914 2.4039,-1.06914 0.65078,0 1.22188,0.24571 0.57109,0.2457 1.05586,0.73711 z m -1.90586,1.4875 q -0.84336,0 -1.40117,0.59766 -0.55782,0.59101 -0.55782,1.5207 0,0.93633 0.56446,1.54063 0.57109,0.60429 1.40117,0.60429 0.85664,0 1.42109,-0.59101 0.56445,-0.59766 0.56445,-1.56055 0,-0.94297 -0.56445,-1.52734 -0.56445,-0.58438 -1.42773,-0.58438 z"
         style="font-size:13.60000038px;fill:#4c4c4c;fill-opacity:1"
         id="path1381" />
      <path
         d="m 238.14102,290.24592 -1.12227,1.12226 q -0.68398,-0.67734 -1.24179,-0.67734 -0.30547,0 -0.47813,0.13281 -0.17265,0.12617 -0.17265,0.31875 0,0.14609 0.10625,0.27227 0.11289,0.11953 0.54453,0.33203 l 0.66406,0.33203 q 1.04922,0.51797 1.44101,1.05586 0.3918,0.53789 0.3918,1.26172 0,0.96289 -0.71055,1.60703 -0.7039,0.64414 -1.89257,0.64414 -1.58047,0 -2.52344,-1.23516 l 1.11562,-1.21523 q 0.31875,0.37187 0.74375,0.60429 0.43164,0.22579 0.76368,0.22579 0.35859,0 0.57773,-0.17266 0.21914,-0.17266 0.21914,-0.39844 0,-0.41836 -0.79023,-0.81679 l -0.61094,-0.30547 q -1.75313,-0.88321 -1.75313,-2.21133 0,-0.85664 0.65743,-1.46094 0.66406,-0.61094 1.69336,-0.61094 0.7039,0 1.32148,0.31211 0.62422,0.30547 1.05586,0.88321 z"
         style="font-size:13.60000038px;fill:#4c4c4c;fill-opacity:1"
         id="path1383" />
      <path
         d="m 47.900388,309.23654 h 1.819531 v 0.83008 q 0.464844,-0.51133 1.029297,-0.76367 0.571094,-0.25235 1.241797,-0.25235 0.677344,0 1.221875,0.33203 0.544531,0.33204 0.876563,0.96954 0.43164,-0.6375 1.055859,-0.96954 0.630859,-0.33203 1.374609,-0.33203 0.770313,0 1.354688,0.3586 0.584375,0.35859 0.836719,0.93632 0.258984,0.57774 0.258984,1.8793 v 4.23672 h -1.826172 v -3.66562 q 0,-1.22852 -0.305469,-1.66016 -0.305468,-0.43828 -0.916406,-0.43828 -0.464844,0 -0.836719,0.26562 -0.365234,0.26563 -0.544531,0.73711 -0.179297,0.46485 -0.179297,1.50078 v 3.26055 h -1.826172 v -3.49961 q 0,-0.96953 -0.146094,-1.40117 -0.139453,-0.43828 -0.425,-0.65078 -0.285546,-0.2125 -0.690625,-0.2125 -0.451562,0 -0.823437,0.27226 -0.365234,0.26563 -0.551172,0.75039 -0.179297,0.48477 -0.179297,1.52735 v 3.21406 h -1.819531 z"
         style="font-size:13.60000038px;fill:#4c4c4c;fill-opacity:1"
         id="path1385" />
      <path
         d="m 66.029294,309.23654 h 1.80625 v 7.225 h -1.80625 v -0.76367 q -0.53125,0.50469 -1.06914,0.73047 -0.53125,0.21914 -1.155469,0.21914 -1.401172,0 -2.423828,-1.08242 -1.022656,-1.08907 -1.022656,-2.70274 0,-1.67344 0.989453,-2.74258 0.989453,-1.06914 2.403906,-1.06914 0.650781,0 1.221875,0.24571 0.571094,0.2457 1.055859,0.73711 z m -1.905859,1.4875 q -0.843359,0 -1.401172,0.59766 -0.557812,0.59101 -0.557812,1.5207 0,0.93633 0.564453,1.54063 0.571093,0.60429 1.401172,0.60429 0.85664,0 1.421093,-0.59101 0.564454,-0.59766 0.564454,-1.56055 0,-0.94297 -0.564454,-1.52734 -0.564453,-0.58438 -1.427734,-0.58438 z"
         style="font-size:13.60000038px;fill:#4c4c4c;fill-opacity:1"
         id="path1387" />
      <path
         d="m 69.475779,306.44748 h 1.812891 v 10.01406 h -1.812891 z"
         style="font-size:13.60000038px;fill:#4c4c4c;fill-opacity:1"
         id="path1389" />
      <path
         d="m 72.072263,309.23654 h 0.644141 q 0.0066,-1.42109 0.04648,-1.68008 0.07305,-0.59765 0.498047,-0.94297 0.431641,-0.35195 1.215235,-0.35195 0.564453,0 1.275,0.25898 v 1.38125 q -0.391797,-0.11289 -0.644141,-0.11289 -0.31875,0 -0.464844,0.13282 -0.10625,0.0996 -0.10625,0.41172 l -0.0066,0.90312 h 1.148828 v 1.54063 h -1.148828 v 5.68437 h -1.812891 v -5.68437 h -0.644141 z"
         style="font-size:13.60000038px;fill:#4c4c4c;fill-opacity:1"
         id="path1391" />
      <path
         d="m 80.127341,309.0506 q 1.022656,0 1.919141,0.51133 0.903125,0.51133 1.407812,1.38789 0.504688,0.87656 0.504688,1.89258 0,1.02266 -0.511328,1.9125 -0.504688,0.88984 -1.38125,1.39453 -0.876563,0.49805 -1.932422,0.49805 -1.553907,0 -2.65625,-1.10235 -1.095704,-1.10898 -1.095704,-2.68945 0,-1.69336 1.241797,-2.82226 1.089063,-0.98282 2.503516,-0.98282 z m 0.02656,1.70664 q -0.84336,0 -1.407813,0.59102 -0.557812,0.58437 -0.557812,1.50078 0,0.94297 0.551171,1.52734 0.557813,0.58438 1.407813,0.58438 0.85,0 1.414453,-0.59102 0.564453,-0.59101 0.564453,-1.5207 0,-0.92969 -0.557812,-1.50742 -0.551172,-0.58438 -1.414453,-0.58438 z"
         style="font-size:13.60000038px;fill:#4c4c4c;fill-opacity:1"
         id="path1393" />
      <path
         d="m 85.021483,309.23654 h 1.553906 v 0.90977 q 0.252344,-0.53789 0.670704,-0.8168 0.418359,-0.27891 0.916406,-0.27891 0.351953,0 0.737109,0.18594 l -0.564453,1.56055 q -0.31875,-0.15938 -0.524609,-0.15938 -0.41836,0 -0.710547,0.51797 -0.285547,0.51797 -0.285547,2.03203 l 0.0066,0.35196 v 2.92187 h -1.79961 z"
         style="font-size:13.60000038px;fill:#4c4c4c;fill-opacity:1"
         id="path1395" />
      <path
         d="m 90.021875,306.57365 h 1.80625 v 2.66289 h 1.075781 v 1.56055 h -1.075781 v 5.66445 h -1.80625 v -5.66445 h -0.929688 v -1.56055 h 0.929688 z"
         style="font-size:13.60000038px;fill:#4c4c4c;fill-opacity:1"
         id="path1397" />
      <path
         d="m 94.603907,306.26154 q 0.478125,0 0.816796,0.34531 0.345313,0.34532 0.345313,0.83672 0,0.48477 -0.338672,0.83008 -0.338672,0.33867 -0.810156,0.33867 -0.484766,0 -0.830078,-0.34531 -0.338672,-0.35195 -0.338672,-0.85 0,-0.47813 0.338672,-0.8168 0.338672,-0.33867 0.816797,-0.33867 z m -0.909766,2.975 h 1.819531 v 7.225 h -1.819531 z"
         style="font-size:13.60000038px;fill:#4c4c4c;fill-opacity:1"
         id="path1399" />
      <path
         d="m 102.49961,309.23654 h 1.80625 v 6.18906 q 0,1.83282 -0.73711,2.6961 -0.98945,1.16875 -2.98164,1.16875 -1.062503,0 -1.786331,-0.26563 -0.723828,-0.26562 -1.221875,-0.78359 -0.498047,-0.51133 -0.737109,-1.24844 h 1.998828 q 0.265625,0.30547 0.683984,0.4582 0.41836,0.15938 0.989453,0.15938 0.73047,0 1.17539,-0.22578 0.44492,-0.22578 0.62422,-0.58438 0.18594,-0.35859 0.18594,-1.23515 -0.47813,0.47812 -1.00274,0.69062 -0.52461,0.20586 -1.18867,0.20586 -1.454296,0 -2.45703,-1.04922 -1.002735,-1.04922 -1.002735,-2.65625 0,-1.71992 1.062501,-2.7625 0.96289,-0.94297 2.297654,-0.94297 0.62422,0 1.17539,0.23242 0.55781,0.22579 1.11563,0.7504 z m -1.8793,1.50742 q -0.85664,0 -1.414453,0.57774 -0.557812,0.57109 -0.557812,1.44101 0,0.90313 0.571094,1.48086 0.571093,0.57774 1.434371,0.57774 0.84336,0 1.38789,-0.56446 0.55118,-0.56445 0.55118,-1.48086 0,-0.90312 -0.55118,-1.46757 -0.55117,-0.56446 -1.42109,-0.56446 z"
         style="font-size:13.60000038px;fill:#4c4c4c;fill-opacity:1"
         id="path1401" />
      <path
         d="m 106.84922,306.26154 q 0.47812,0 0.8168,0.34531 0.34531,0.34532 0.34531,0.83672 0,0.48477 -0.33867,0.83008 -0.33868,0.33867 -0.81016,0.33867 -0.48477,0 -0.83008,-0.34531 -0.33867,-0.35195 -0.33867,-0.85 0,-0.47813 0.33867,-0.8168 0.33867,-0.33867 0.8168,-0.33867 z m -0.90977,2.975 h 1.81953 v 7.225 h -1.81953 z"
         style="font-size:13.60000038px;fill:#4c4c4c;fill-opacity:1"
         id="path1403" />
      <path
         d="m 113.01172,306.44748 h 1.81289 v 10.01406 h -1.81289 z"
         style="font-size:13.60000038px;fill:#4c4c4c;fill-opacity:1"
         id="path1405" />
      <path
         d="m 121.81055,309.23654 h 1.80625 v 7.225 h -1.80625 v -0.76367 q -0.53125,0.50469 -1.06914,0.73047 -0.53125,0.21914 -1.15547,0.21914 -1.40117,0 -2.42383,-1.08242 -1.02266,-1.08907 -1.02266,-2.70274 0,-1.67344 0.98946,-2.74258 0.98945,-1.06914 2.4039,-1.06914 0.65078,0 1.22188,0.24571 0.57109,0.2457 1.05586,0.73711 z m -1.90586,1.4875 q -0.84336,0 -1.40117,0.59766 -0.55782,0.59101 -0.55782,1.5207 0,0.93633 0.56446,1.54063 0.57109,0.60429 1.40117,0.60429 0.85664,0 1.42109,-0.59101 0.56446,-0.59766 0.56446,-1.56055 0,-0.94297 -0.56446,-1.52734 -0.56445,-0.58438 -1.42773,-0.58438 z"
         style="font-size:13.60000038px;fill:#4c4c4c;fill-opacity:1"
         id="path1407" />
      <path
         d="m 134.58711,309.23654 h 1.80625 v 7.225 h -1.80625 v -0.76367 q -0.53125,0.50469 -1.06914,0.73047 -0.53125,0.21914 -1.15547,0.21914 -1.40117,0 -2.42382,-1.08242 -1.02266,-1.08907 -1.02266,-2.70274 0,-1.67344 0.98945,-2.74258 0.98946,-1.06914 2.40391,-1.06914 0.65078,0 1.22187,0.24571 0.5711,0.2457 1.05586,0.73711 z m -1.90586,1.4875 q -0.84336,0 -1.40117,0.59766 -0.55781,0.59101 -0.55781,1.5207 0,0.93633 0.56445,1.54063 0.5711,0.60429 1.40117,0.60429 0.85664,0 1.4211,-0.59101 0.56445,-0.59766 0.56445,-1.56055 0,-0.94297 -0.56445,-1.52734 -0.56446,-0.58438 -1.42774,-0.58438 z"
         style="font-size:13.60000038px;fill:#4c4c4c;fill-opacity:1"
         id="path1409" />
      <path
         d="m 140.02579,309.23654 v 0.79688 q 0.4914,-0.49141 1.0625,-0.73711 0.57109,-0.24571 1.22187,-0.24571 1.41445,0 2.40391,1.06914 0.98945,1.06914 0.98945,2.74258 0,1.61367 -1.02266,2.70274 -1.02265,1.08242 -2.42382,1.08242 -0.62422,0 -1.16211,-0.21914 -0.53789,-0.22578 -1.06914,-0.73047 v 3.40664 h -1.79961 v -9.86797 z m 1.90586,1.4875 q -0.85665,0 -1.4211,0.58438 -0.56445,0.58437 -0.56445,1.52734 0,0.96289 0.56445,1.56055 0.56445,0.59101 1.4211,0.59101 0.83007,0 1.39453,-0.60429 0.57109,-0.6043 0.57109,-1.54063 0,-0.92969 -0.55781,-1.5207 -0.55781,-0.59766 -1.40781,-0.59766 z"
         style="font-size:13.60000038px;fill:#4c4c4c;fill-opacity:1"
         id="path1411" />
      <path
         d="m 152.54336,309.23654 h 1.80625 v 7.225 h -1.80625 v -0.76367 q -0.53125,0.50469 -1.06914,0.73047 -0.53125,0.21914 -1.15547,0.21914 -1.40117,0 -2.42383,-1.08242 -1.02266,-1.08907 -1.02266,-2.70274 0,-1.67344 0.98946,-2.74258 0.98945,-1.06914 2.4039,-1.06914 0.65079,0 1.22188,0.24571 0.57109,0.2457 1.05586,0.73711 z m -1.90586,1.4875 q -0.84336,0 -1.40117,0.59766 -0.55782,0.59101 -0.55782,1.5207 0,0.93633 0.56446,1.54063 0.57109,0.60429 1.40117,0.60429 0.85664,0 1.42109,-0.59101 0.56446,-0.59766 0.56446,-1.56055 0,-0.94297 -0.56446,-1.52734 -0.56445,-0.58438 -1.42773,-0.58438 z"
         style="font-size:13.60000038px;fill:#4c4c4c;fill-opacity:1"
         id="path1413" />
      <path
         d="m 155.75742,309.23654 h 1.55391 v 0.90977 q 0.25234,-0.53789 0.6707,-0.8168 0.41836,-0.27891 0.91641,-0.27891 0.35195,0 0.73711,0.18594 l -0.56446,1.56055 q -0.31875,-0.15938 -0.52461,-0.15938 -0.41835,0 -0.71054,0.51797 -0.28555,0.51797 -0.28555,2.03203 l 0.007,0.35196 v 2.92187 h -1.79961 z"
         style="font-size:13.60000038px;fill:#4c4c4c;fill-opacity:1"
         id="path1415" />
      <path
         d="m 165.87774,309.23654 h 1.80625 v 7.225 h -1.80625 v -0.76367 q -0.53125,0.50469 -1.06914,0.73047 -0.53125,0.21914 -1.15547,0.21914 -1.40117,0 -2.42383,-1.08242 -1.02265,-1.08907 -1.02265,-2.70274 0,-1.67344 0.98945,-2.74258 0.98945,-1.06914 2.4039,-1.06914 0.65079,0 1.22188,0.24571 0.57109,0.2457 1.05586,0.73711 z m -1.90586,1.4875 q -0.84336,0 -1.40117,0.59766 -0.55781,0.59101 -0.55781,1.5207 0,0.93633 0.56445,1.54063 0.57109,0.60429 1.40117,0.60429 0.85664,0 1.42109,-0.59101 0.56446,-0.59766 0.56446,-1.56055 0,-0.94297 -0.56446,-1.52734 -0.56445,-0.58438 -1.42773,-0.58438 z"
         style="font-size:13.60000038px;fill:#4c4c4c;fill-opacity:1"
         id="path1417" />
      <path
         d="m 169.73594,306.57365 h 1.80625 v 2.66289 h 1.07579 v 1.56055 h -1.07579 v 5.66445 h -1.80625 v -5.66445 h -0.92968 v -1.56055 h 0.92968 z"
         style="font-size:13.60000038px;fill:#4c4c4c;fill-opacity:1"
         id="path1419" />
      <path
         d="m 177.00078,309.0506 q 1.02266,0 1.91915,0.51133 0.90312,0.51133 1.40781,1.38789 0.50469,0.87656 0.50469,1.89258 0,1.02266 -0.51133,1.9125 -0.50469,0.88984 -1.38125,1.39453 -0.87657,0.49805 -1.93242,0.49805 -1.55391,0 -2.65625,-1.10235 -1.09571,-1.10898 -1.09571,-2.68945 0,-1.69336 1.2418,-2.82226 1.08906,-0.98282 2.50351,-0.98282 z m 0.0266,1.70664 q -0.84336,0 -1.40782,0.59102 -0.55781,0.58437 -0.55781,1.50078 0,0.94297 0.55117,1.52734 0.55782,0.58438 1.40782,0.58438 0.85,0 1.41445,-0.59102 0.56445,-0.59101 0.56445,-1.5207 0,-0.92969 -0.55781,-1.50742 -0.55117,-0.58438 -1.41445,-0.58438 z"
         style="font-size:13.60000038px;fill:#4c4c4c;fill-opacity:1"
         id="path1421" />
      <path
         d="m 182.31992,309.23654 h 1.80625 v 0.73711 q 0.61758,-0.51797 1.11562,-0.71719 0.50469,-0.20586 1.0293,-0.20586 1.07578,0 1.82617,0.75039 0.63086,0.6375 0.63086,1.88594 v 4.77461 h -1.79297 v -3.16758 q 0,-1.29492 -0.11953,-1.71992 -0.11289,-0.425 -0.40508,-0.64414 -0.28554,-0.22578 -0.71054,-0.22578 -0.55117,0 -0.94961,0.37187 -0.3918,0.36524 -0.54453,1.01602 -0.0797,0.33867 -0.0797,1.46758 v 2.90195 h -1.80625 z"
         style="font-size:13.60000038px;fill:#4c4c4c;fill-opacity:1"
         id="path1423" />
      <path
         d="m 199.61211,306.44748 h 1.80625 v 10.01406 h -1.80625 v -0.76367 q -0.53125,0.50469 -1.06914,0.73047 -0.53125,0.21914 -1.15547,0.21914 -1.40117,0 -2.42383,-1.08242 -1.02266,-1.08907 -1.02266,-2.70274 0,-1.67344 0.98946,-2.74258 0.98945,-1.06914 2.4039,-1.06914 0.65078,0 1.22188,0.24571 0.57109,0.2457 1.05586,0.73711 z m -1.90586,4.27656 q -0.84336,0 -1.40117,0.59766 -0.55782,0.59101 -0.55782,1.5207 0,0.93633 0.56446,1.54063 0.57109,0.60429 1.40117,0.60429 0.85664,0 1.42109,-0.59101 0.56445,-0.59766 0.56445,-1.56055 0,-0.94297 -0.56445,-1.52734 -0.56445,-0.58438 -1.42773,-0.58438 z"
         style="font-size:13.60000038px;fill:#4c4c4c;fill-opacity:1"
         id="path1425" />
      <path
         d="m 210.48946,313.37365 h -5.82383 q 0.12617,0.77031 0.6707,1.22852 0.55118,0.45156 1.40118,0.45156 1.01601,0 1.74648,-0.71055 l 1.52734,0.71719 q -0.57109,0.81016 -1.36796,1.20195 -0.79688,0.38516 -1.89258,0.38516 -1.7,0 -2.76914,-1.06914 -1.06914,-1.07578 -1.06914,-2.68946 0,-1.65351 1.0625,-2.74257 1.06914,-1.09571 2.67617,-1.09571 1.70664,0 2.77578,1.09571 1.06914,1.08906 1.06914,2.88203 z m -1.81953,-1.42773 q -0.1793,-0.6043 -0.71055,-0.98282 -0.52461,-0.37851 -1.22187,-0.37851 -0.75703,0 -1.32813,0.425 -0.35859,0.26562 -0.66406,0.93633 z"
         style="font-size:13.60000038px;fill:#4c4c4c;fill-opacity:1"
         id="path1427" />
      <path
         d="m 220.19142,310.24592 -1.12227,1.12226 q -0.68398,-0.67734 -1.2418,-0.67734 -0.30547,0 -0.47812,0.13281 -0.17266,0.12617 -0.17266,0.31875 0,0.14609 0.10625,0.27227 0.11289,0.11953 0.54453,0.33203 l 0.66407,0.33203 q 1.04921,0.51797 1.44101,1.05586 0.3918,0.53789 0.3918,1.26172 0,0.96289 -0.71055,1.60703 -0.7039,0.64414 -1.89258,0.64414 -1.58047,0 -2.52343,-1.23516 l 1.11562,-1.21523 q 0.31875,0.37187 0.74375,0.60429 0.43164,0.22579 0.76367,0.22579 0.3586,0 0.57774,-0.17266 0.21914,-0.17266 0.21914,-0.39844 0,-0.41836 -0.79024,-0.81679 l -0.61093,-0.30547 q -1.75313,-0.88321 -1.75313,-2.21133 0,-0.85664 0.65742,-1.46094 0.66407,-0.61094 1.69336,-0.61094 0.70391,0 1.32149,0.31211 0.62422,0.30547 1.05586,0.88321 z m -5.14649,-2.33086 1.99219,-1.8793 h 1.4543 l 1.9789,1.8793 h -1.9789 l -0.71719,-0.86993 -0.73711,0.86993 z"
         style="font-size:13.60000038px;fill:#4c4c4c;fill-opacity:1"
         id="path1429" />
      <path
         d="m 221.95782,306.57365 h 1.80625 v 2.66289 h 1.07578 v 1.56055 h -1.07578 v 5.66445 h -1.80625 v -5.66445 h -0.92969 v -1.56055 h 0.92969 z"
         style="font-size:13.60000038px;fill:#4c4c4c;fill-opacity:1"
         id="path1431" />
      <path
         d="m 231.16837,309.23654 h 1.80625 v 7.225 h -1.80625 v -0.76367 q -0.53125,0.50469 -1.06914,0.73047 -0.53125,0.21914 -1.15547,0.21914 -1.40118,0 -2.42383,-1.08242 -1.02266,-1.08907 -1.02266,-2.70274 0,-1.67344 0.98946,-2.74258 0.98945,-1.06914 2.4039,-1.06914 0.65078,0 1.22188,0.24571 0.57109,0.2457 1.05586,0.73711 z m -1.90586,1.4875 q -0.84336,0 -1.40118,0.59766 -0.55781,0.59101 -0.55781,1.5207 0,0.93633 0.56446,1.54063 0.57109,0.60429 1.40117,0.60429 0.85664,0 1.42109,-0.59101 0.56445,-0.59766 0.56445,-1.56055 0,-0.94297 -0.56445,-1.52734 -0.56445,-0.58438 -1.42773,-0.58438 z"
         style="font-size:13.60000038px;fill:#4c4c4c;fill-opacity:1"
         id="path1433" />
      <path
         d="m 235.02656,306.57365 h 1.80625 v 2.66289 h 1.07578 v 1.56055 h -1.07578 v 5.66445 h -1.80625 v -5.66445 h -0.92968 v -1.56055 h 0.92968 z"
         style="font-size:13.60000038px;fill:#4c4c4c;fill-opacity:1"
         id="path1435" />
      <path
         d="m 242.29142,309.0506 q 1.02266,0 1.91914,0.51133 0.90312,0.51133 1.40781,1.38789 0.50469,0.87656 0.50469,1.89258 0,1.02266 -0.51133,1.9125 -0.50469,0.88984 -1.38125,1.39453 -0.87656,0.49805 -1.93242,0.49805 -1.55391,0 -2.65625,-1.10235 -1.0957,-1.10898 -1.0957,-2.68945 0,-1.69336 1.24179,-2.82226 1.08907,-0.98282 2.50352,-0.98282 z m 0.0266,1.70664 q -0.84336,0 -1.40781,0.59102 -0.55781,0.58437 -0.55781,1.50078 0,0.94297 0.55117,1.52734 0.55781,0.58438 1.40781,0.58438 0.85,0 1.41445,-0.59102 0.56446,-0.59101 0.56446,-1.5207 0,-0.92969 -0.55782,-1.50742 -0.55117,-0.58438 -1.41445,-0.58438 z"
         style="font-size:13.60000038px;fill:#4c4c4c;fill-opacity:1"
         id="path1437" />
    </g>
  </g>
</svg>
