<?xml version="1.0" encoding="UTF-8" standalone="no"?>
<!-- Created with Inkscape (http://www.inkscape.org/) -->

<svg
   xmlns:dc="http://purl.org/dc/elements/1.1/"
   xmlns:cc="http://creativecommons.org/ns#"
   xmlns:rdf="http://www.w3.org/1999/02/22-rdf-syntax-ns#"
   xmlns:svg="http://www.w3.org/2000/svg"
   xmlns="http://www.w3.org/2000/svg"
   xmlns:xlink="http://www.w3.org/1999/xlink"
   xmlns:sodipodi="http://sodipodi.sourceforge.net/DTD/sodipodi-0.dtd"
   xmlns:inkscape="http://www.inkscape.org/namespaces/inkscape"
   width="70mm"
   height="100mm"
   viewBox="0 0 70 100"
   version="1.1"
   id="svg8"
   inkscape:version="0.92.2 2405546, 2018-03-11"
   sodipodi:docname="sticker.de.svg"
   inkscape:export-filename="/tmp/sticker.de.png"
   inkscape:export-xdpi="300"
   inkscape:export-ydpi="300">
  <defs
     id="defs2" />
  <sodipodi:namedview
     id="base"
     pagecolor="#ffffff"
     bordercolor="#666666"
     borderopacity="1.0"
     inkscape:pageopacity="0.0"
     inkscape:pageshadow="2"
     inkscape:zoom="1.4"
     inkscape:cx="91.833246"
     inkscape:cy="144.03217"
     inkscape:document-units="mm"
     inkscape:current-layer="layer1"
     showgrid="false"
     showguides="true"
     inkscape:guide-bbox="true"
     inkscape:snap-to-guides="true"
     inkscape:snap-grids="true"
     inkscape:snap-page="true"
     inkscape:snap-bbox="true"
     inkscape:bbox-nodes="true"
     inkscape:bbox-paths="true"
     inkscape:window-width="1366"
     inkscape:window-height="731"
     inkscape:window-x="0"
     inkscape:window-y="1218"
     inkscape:window-maximized="0"
     inkscape:pagecheckerboard="true"
     inkscape:measure-start="0,0"
     inkscape:measure-end="0,0">
    <sodipodi:guide
       position="5,91.472997"
       orientation="1,0"
       id="guide889"
       inkscape:locked="false"
       inkscape:label=""
       inkscape:color="rgb(0,0,255)" />
    <sodipodi:guide
       position="65,88.533032"
       orientation="1,0"
       id="guide891"
       inkscape:locked="false"
       inkscape:label=""
       inkscape:color="rgb(0,0,255)" />
    <sodipodi:guide
       position="28.86511,95"
       orientation="0,1"
       id="guide893"
       inkscape:locked="false"
       inkscape:label=""
       inkscape:color="rgb(0,0,255)" />
    <sodipodi:guide
       position="36.348657,5"
       orientation="0,1"
       id="guide895"
       inkscape:locked="false"
       inkscape:label=""
       inkscape:color="rgb(0,0,255)" />
    <sodipodi:guide
       position="9,45.435819"
       orientation="1,0"
       id="guide951"
       inkscape:locked="false"
       inkscape:label=""
       inkscape:color="rgb(0,0,255)" />
    <sodipodi:guide
       position="61,64.54559"
       orientation="1,0"
       id="guide953"
       inkscape:locked="false"
       inkscape:label=""
       inkscape:color="rgb(0,0,255)" />
    <sodipodi:guide
       position="25.52424,8"
       orientation="0,1"
       id="guide955"
       inkscape:locked="false"
       inkscape:label=""
       inkscape:color="rgb(0,0,255)" />
    <sodipodi:guide
       position="26.125597,31"
       orientation="0,1"
       id="guide957"
       inkscape:locked="false"
       inkscape:label=""
       inkscape:color="rgb(0,0,255)" />
  </sodipodi:namedview>
  <metadata
     id="metadata5">
    <rdf:RDF>
      <cc:Work
         rdf:about="">
        <dc:format>image/svg+xml</dc:format>
        <dc:type
           rdf:resource="http://purl.org/dc/dcmitype/StillImage" />
        <dc:title />
      </cc:Work>
    </rdf:RDF>
  </metadata>
  <g
     inkscape:label="Layer 1"
     inkscape:groupmode="layer"
     id="layer1"
     transform="translate(0,-197)">
    <rect
       style="fill:#ffffff;fill-opacity:1;stroke:none;stroke-width:1;stroke-linecap:square;stroke-miterlimit:4;stroke-dasharray:none;stroke-opacity:1"
       id="rect858"
       width="70"
       height="100"
       x="0"
       y="197" />
    <g
       id="g875"
       transform="translate(-2.0000006,5.4790253)"
       inkscape:export-xdpi="352.57999"
       inkscape:export-ydpi="352.57999">
      <g
         transform="matrix(1.3011002,0,0,1.3011002,16.420217,-75.468301)"
         id="g915">
        <path
           inkscape:connector-curvature="0"
           d="m 15.817084,222.05063 c -5.391414,0 -9.7639184,4.37197 -9.7639184,9.76365 0,1.07791 0.174625,2.11455 0.4974166,3.08425 h 2.9199417 v -8.21505 l 6.3465601,6.34656 6.346561,-6.34656 v 8.21505 h 2.920206 c 0.322791,-0.9697 0.497416,-2.00634 0.497416,-3.08425 0,-5.39168 -4.372504,-9.76365 -9.764183,-9.76365"
           id="path22"
           style="fill:#ff6600;stroke-width:0.26458332" />
        <path
           inkscape:connector-curvature="0"
           d="m 11.58809,231.71921 v 5.16917 H 7.4738193 c 1.7139708,2.81199 4.8095957,4.69 8.3431057,4.69 3.533511,0 6.6294,-1.87801 8.343107,-4.69 h -4.114007 v -5.16917 l -4.2291,4.2291 z"
           id="path26"
           style="fill:#4c4c4c;stroke-width:0.26458332" />
      </g>
      <g
         transform="matrix(0.88274719,0,0,0.88274719,-10.947117,38.872224)"
         id="g911">
        <path
           inkscape:connector-curvature="0"
           d="m 78.102302,234.59405 c -0.516202,0.53154 -1.142206,0.79639 -1.878277,0.79639 -0.650346,0 -1.225285,-0.20426 -1.728523,-0.61489 -0.646906,-0.52361 -0.969962,-1.23666 -0.969962,-2.13889 0,-0.80778 0.257175,-1.47532 0.771525,-1.99919 0.512497,-0.52573 1.14591,-0.78687 1.900766,-0.78687 0.745331,0 1.379008,0.26881 1.898915,0.80565 0.522023,0.53711 0.782902,1.1938 0.782902,1.97088 0,0.7792 -0.258763,1.43352 -0.777346,1.96692 m 1.083998,-5.01042 c -0.828675,-0.8337 -1.81954,-1.25174 -2.973388,-1.25174 -0.760412,0 -1.471347,0.19129 -2.129366,0.57308 -0.6604,0.38206 -1.178719,0.90012 -1.554956,1.5547 -0.376503,0.65431 -0.565415,1.37133 -0.565415,2.15026 0,1.16338 0.404548,2.16747 1.214437,3.01334 0.809096,0.8472 1.825096,1.26895 3.046413,1.26895 1.167077,0 2.160323,-0.41037 2.979208,-1.23508 0.818886,-0.82285 1.227402,-1.83065 1.227402,-3.02048 0,-1.19936 -0.414337,-2.21668 -1.244335,-3.05303"
           id="path30"
           style="fill:#4c4c4c;stroke-width:0.26458332" />
        <path
           inkscape:connector-curvature="0"
           d="m 69,231.47434 c -0.196585,0.13706 -0.289454,0.20453 -0.809625,0.20453 h -2.046816 v -1.75102 h 1.983316 c 0.397669,0 0.468048,0.0299 0.631032,0.0913 0.162454,0.0595 0.29157,0.15902 0.388937,0.29581 0.09737,0.13705 0.144992,0.29977 0.144992,0.4863 0,0.3138 -0.09737,0.53817 -0.291836,0.6731 m 0.246063,1.61211 c 0.542131,-0.19473 0.94906,-0.48048 1.218935,-0.85752 0.27014,-0.37914 0.403225,-0.84798 0.403225,-1.41155 0,-0.53419 -0.120914,-0.9988 -0.365389,-1.38985 -0.244211,-0.39106 -0.567796,-0.67099 -0.96864,-0.83979 -0.401108,-0.16881 -1.074208,-0.254 -2.021152,-0.254 h -2.997464 v 8.55662 h 1.627981 v -3.6232 h 1.420812 l 1.926167,3.6232 h 1.780646 z"
           id="path34"
           style="fill:#4c4c4c;stroke-width:0.26458332" />
        <path
           inkscape:connector-curvature="0"
           d="m 57.217787,228.33189 h 5.547783 v 1.59411 h -3.929591 v 1.75128 h 3.929591 v 1.56633 h -3.929591 v 2.0447 h 3.929591 v 1.60047 h -5.547783 z"
           id="path38"
           style="fill:#4c4c4c;stroke-width:0.26458332" />
        <path
           inkscape:connector-curvature="0"
           d="m 48.621925,228.33189 h 1.55866 l 3.670829,5.63033 v -5.63033 h 1.627981 v 8.55662 h -1.564481 l -3.665008,-5.61234 v 5.61234 h -1.627981 z"
           id="path42"
           style="fill:#4c4c4c;stroke-width:0.26458332" />
        <use
           transform="translate(-33.088422,-1.0786894e-6)"
           id="use46"
           x="0"
           y="0"
           width="282"
           height="75"
           xlink:href="#path30" />
        <path
           inkscape:connector-curvature="0"
           d="m 29.678129,228.33165 h 1.594114 l 1.977231,5.9682 2.007394,-5.9682 h 1.570302 l 1.441715,8.55689 h -1.570567 l -0.919162,-5.40412 -1.820598,5.40412 h -1.435629 l -1.796521,-5.40412 -0.937154,5.40412 H 28.20096 Z"
           id="path50"
           style="fill:#4c4c4c;stroke-width:0.26458332" />
      </g>
    </g>
    <flowRoot
       xml:space="preserve"
       id="flowRoot840"
       style="font-style:normal;font-weight:normal;font-size:26.66666603px;line-height:1.25;font-family:sans-serif;letter-spacing:0px;word-spacing:0px;fill:#000000;fill-opacity:1;stroke:none"><flowRegion
         id="flowRegion842"><rect
           id="rect844"
           width="77.781746"
           height="47.477169"
           x="239.40616"
           y="264.52042" /></flowRegion><flowPara
         id="flowPara846" /></flowRoot>    <flowRoot
       xml:space="preserve"
       id="flowRoot866"
       style="font-style:normal;font-variant:normal;font-weight:bold;font-stretch:normal;font-size:16px;line-height:1.25;font-family:'Century Gothic';-inkscape-font-specification:'Century Gothic Bold';text-align:center;letter-spacing:0px;word-spacing:0px;text-anchor:middle;fill:#000000;fill-opacity:1;stroke:none"
       transform="matrix(0.26458333,0,0,0.26458333,0,192)"><flowRegion
         id="flowRegion868"
         style="font-size:16px"><rect
           id="rect870"
           width="241.88977"
           height="148.28261"
           x="18.897638"
           y="229.67015"
           style="font-size:16px" /></flowRegion><flowPara
         id="flowPara872" /></flowRoot>    <flowRoot
       xml:space="preserve"
       id="flowRoot874"
       style="font-style:normal;font-variant:normal;font-weight:bold;font-stretch:normal;font-size:26.66666603px;line-height:1.25;font-family:'Century Gothic';-inkscape-font-specification:'Century Gothic Bold';text-align:center;letter-spacing:0px;word-spacing:0px;text-anchor:middle;fill:#000000;fill-opacity:1;stroke:none"><flowRegion
         id="flowRegion876"><rect
           id="rect878"
           width="241.88977"
           height="148.28261"
           x="18.897638"
           y="229.67015" /></flowRegion><flowPara
         id="flowPara880" /></flowRoot>    <g
       id="g861">
      <path
         inkscape:connector-curvature="0"
         id="rect861"
         d="M 5,263.0024 V 263.44051 292 h 60 v -28.9976 z m 0.874399,0.8744 h 58.251202 v 27.24879 H 5.874399 Z"
         style="color:#000000;font-style:normal;font-variant:normal;font-weight:normal;font-stretch:normal;font-size:medium;line-height:normal;font-family:sans-serif;font-variant-ligatures:normal;font-variant-position:normal;font-variant-caps:normal;font-variant-numeric:normal;font-variant-alternates:normal;font-feature-settings:normal;text-indent:0;text-align:start;text-decoration:none;text-decoration-line:none;text-decoration-style:solid;text-decoration-color:#000000;letter-spacing:normal;word-spacing:normal;text-transform:none;writing-mode:lr-tb;direction:ltr;text-orientation:mixed;dominant-baseline:auto;baseline-shift:baseline;text-anchor:start;white-space:normal;shape-padding:0;clip-rule:nonzero;display:inline;overflow:visible;visibility:visible;opacity:1;isolation:auto;mix-blend-mode:normal;color-interpolation:sRGB;color-interpolation-filters:linearRGB;solid-color:#000000;solid-opacity:1;vector-effect:none;fill:#4c4c4c;fill-opacity:1;fill-rule:nonzero;stroke:none;stroke-width:0.87388474;stroke-linecap:square;stroke-linejoin:miter;stroke-miterlimit:4;stroke-dasharray:none;stroke-dashoffset:0;stroke-opacity:1;color-rendering:auto;image-rendering:auto;shape-rendering:auto;text-rendering:auto;enable-background:accumulate" />
    </g>
    <text
       xml:space="preserve"
       style="font-style:normal;font-variant:normal;font-weight:bold;font-stretch:normal;font-size:10.28628826px;line-height:1.25;font-family:'Century Gothic';-inkscape-font-specification:'Century Gothic Bold';text-align:center;letter-spacing:0px;word-spacing:0px;text-anchor:middle;fill:#4c4c4c;fill-opacity:1;stroke:none;stroke-width:0.25715721;"
       x="34.804119"
       y="209.38824"
       id="text415"><tspan
         sodipodi:role="line"
         x="34.804119"
         y="209.38824"
         style="stroke-width:0.25715721;fill:#4c4c4c;fill-opacity:1;"
         id="tspan417">KAUFE KEINE</tspan></text>
    <text
       xml:space="preserve"
       style="font-style:normal;font-variant:normal;font-weight:bold;font-stretch:normal;font-size:3.72168469px;line-height:1.25;font-family:'Century Gothic';-inkscape-font-specification:'Century Gothic Bold';text-align:center;letter-spacing:0px;word-spacing:0px;text-anchor:middle;fill:#4c4c4c;fill-opacity:1;stroke:none;stroke-width:0.27912635"
       x="35.066326"
       y="271.7337"
       id="text4935"><tspan
         sodipodi:role="line"
         x="35.066326"
         y="271.7337"
         style="font-size:3.72168469px;text-align:center;text-anchor:middle;fill:#4c4c4c;fill-opacity:1;stroke-width:0.27912635"
         id="tspan4949">Kryptowährungen sind</tspan><tspan
         sodipodi:role="line"
         x="35.066326"
         y="276.3858"
         style="font-size:3.72168469px;text-align:center;text-anchor:middle;fill:#4c4c4c;fill-opacity:1;stroke-width:0.27912635"
         id="tspan4953">schädlich für das Bankwesen</tspan><tspan
         sodipodi:role="line"
         x="35.066326"
         y="281.0379"
         style="font-size:3.72168469px;text-align:center;text-anchor:middle;fill:#4c4c4c;fill-opacity:1;stroke-width:0.27912635"
         id="tspan4939">und können den</tspan><tspan
         sodipodi:role="line"
         x="35.066326"
         y="285.69003"
         style="font-size:3.72168469px;text-align:center;text-anchor:middle;fill:#4c4c4c;fill-opacity:1;stroke-width:0.27912635"
         id="tspan4941">Staatsapparat schwächen</tspan></text>
  </g>
</svg>
