<?xml version="1.0" encoding="UTF-8" standalone="no"?>
<!-- Created with Inkscape (http://www.inkscape.org/) -->

<svg
   xmlns:dc="http://purl.org/dc/elements/1.1/"
   xmlns:cc="http://creativecommons.org/ns#"
   xmlns:rdf="http://www.w3.org/1999/02/22-rdf-syntax-ns#"
   xmlns:svg="http://www.w3.org/2000/svg"
   xmlns="http://www.w3.org/2000/svg"
   xmlns:xlink="http://www.w3.org/1999/xlink"
   xmlns:sodipodi="http://sodipodi.sourceforge.net/DTD/sodipodi-0.dtd"
   xmlns:inkscape="http://www.inkscape.org/namespaces/inkscape"
   width="70mm"
   height="100mm"
   viewBox="0 0 70 100"
   version="1.1"
   id="svg8"
   inkscape:version="0.92.2 5c3e80d, 2017-08-06"
   sodipodi:docname="sticker.sk.svg"
   inkscape:export-filename="/home/emes/doc/dontbuymonero-sticker/sticker.sk.png"
   inkscape:export-xdpi="300"
   inkscape:export-ydpi="300">
  <defs
     id="defs2" />
  <sodipodi:namedview
     id="base"
     pagecolor="#ffffff"
     bordercolor="#666666"
     borderopacity="1.0"
     inkscape:pageopacity="0.0"
     inkscape:pageshadow="2"
     inkscape:zoom="2.8"
     inkscape:cx="104.11522"
     inkscape:cy="148.21943"
     inkscape:document-units="mm"
     inkscape:current-layer="layer1"
     showgrid="false"
     showguides="true"
     inkscape:guide-bbox="true"
     inkscape:snap-to-guides="true"
     inkscape:snap-grids="true"
     inkscape:snap-page="true"
     inkscape:snap-bbox="true"
     inkscape:bbox-nodes="true"
     inkscape:bbox-paths="true"
     inkscape:window-width="1920"
     inkscape:window-height="1136"
     inkscape:window-x="0"
     inkscape:window-y="747"
     inkscape:window-maximized="1"
     inkscape:pagecheckerboard="true"
     inkscape:measure-start="0,0"
     inkscape:measure-end="0,0">
    <sodipodi:guide
       position="5,91.472997"
       orientation="1,0"
       id="guide889"
       inkscape:locked="false"
       inkscape:label=""
       inkscape:color="rgb(0,0,255)" />
    <sodipodi:guide
       position="65,88.533032"
       orientation="1,0"
       id="guide891"
       inkscape:locked="false"
       inkscape:label=""
       inkscape:color="rgb(0,0,255)" />
    <sodipodi:guide
       position="28.86511,95"
       orientation="0,1"
       id="guide893"
       inkscape:locked="false"
       inkscape:label=""
       inkscape:color="rgb(0,0,255)" />
    <sodipodi:guide
       position="36.348657,5"
       orientation="0,1"
       id="guide895"
       inkscape:locked="false"
       inkscape:label=""
       inkscape:color="rgb(0,0,255)" />
    <sodipodi:guide
       position="9,45.435819"
       orientation="1,0"
       id="guide951"
       inkscape:locked="false"
       inkscape:label=""
       inkscape:color="rgb(0,0,255)" />
    <sodipodi:guide
       position="61,64.54559"
       orientation="1,0"
       id="guide953"
       inkscape:locked="false"
       inkscape:label=""
       inkscape:color="rgb(0,0,255)" />
    <sodipodi:guide
       position="25.52424,8"
       orientation="0,1"
       id="guide955"
       inkscape:locked="false"
       inkscape:label=""
       inkscape:color="rgb(0,0,255)" />
    <sodipodi:guide
       position="26.125597,31"
       orientation="0,1"
       id="guide957"
       inkscape:locked="false"
       inkscape:label=""
       inkscape:color="rgb(0,0,255)" />
  </sodipodi:namedview>
  <metadata
     id="metadata5">
    <rdf:RDF>
      <cc:Work
         rdf:about="">
        <dc:format>image/svg+xml</dc:format>
        <dc:type
           rdf:resource="http://purl.org/dc/dcmitype/StillImage" />
        <dc:title></dc:title>
      </cc:Work>
    </rdf:RDF>
  </metadata>
  <g
     inkscape:label="Layer 1"
     inkscape:groupmode="layer"
     id="layer1"
     transform="translate(0,-197)">
    <rect
       style="fill:#ffffff;fill-opacity:1;stroke:none;stroke-width:1;stroke-linecap:square;stroke-miterlimit:4;stroke-dasharray:none;stroke-opacity:1"
       id="rect858"
       width="70"
       height="100"
       x="0"
       y="197" />
    <g
       id="g875"
       transform="translate(-2.0000006,5.4790253)"
       inkscape:export-xdpi="352.57999"
       inkscape:export-ydpi="352.57999">
      <g
         transform="matrix(1.3011002,0,0,1.3011002,16.420217,-75.468301)"
         id="g915">
        <path
           inkscape:connector-curvature="0"
           d="m 15.817084,222.05063 c -5.391414,0 -9.7639184,4.37197 -9.7639184,9.76365 0,1.07791 0.174625,2.11455 0.4974166,3.08425 h 2.9199417 v -8.21505 l 6.3465601,6.34656 6.346561,-6.34656 v 8.21505 h 2.920206 c 0.322791,-0.9697 0.497416,-2.00634 0.497416,-3.08425 0,-5.39168 -4.372504,-9.76365 -9.764183,-9.76365"
           id="path22"
           style="fill:#ff6600;stroke-width:0.26458332" />
        <path
           inkscape:connector-curvature="0"
           d="m 11.58809,231.71921 v 5.16917 H 7.4738193 c 1.7139708,2.81199 4.8095957,4.69 8.3431057,4.69 3.533511,0 6.6294,-1.87801 8.343107,-4.69 h -4.114007 v -5.16917 l -4.2291,4.2291 z"
           id="path26"
           style="fill:#4c4c4c;stroke-width:0.26458332" />
      </g>
      <g
         transform="matrix(0.88274719,0,0,0.88274719,-10.947117,38.872224)"
         id="g911">
        <path
           inkscape:connector-curvature="0"
           d="m 78.102302,234.59405 c -0.516202,0.53154 -1.142206,0.79639 -1.878277,0.79639 -0.650346,0 -1.225285,-0.20426 -1.728523,-0.61489 -0.646906,-0.52361 -0.969962,-1.23666 -0.969962,-2.13889 0,-0.80778 0.257175,-1.47532 0.771525,-1.99919 0.512497,-0.52573 1.14591,-0.78687 1.900766,-0.78687 0.745331,0 1.379008,0.26881 1.898915,0.80565 0.522023,0.53711 0.782902,1.1938 0.782902,1.97088 0,0.7792 -0.258763,1.43352 -0.777346,1.96692 m 1.083998,-5.01042 c -0.828675,-0.8337 -1.81954,-1.25174 -2.973388,-1.25174 -0.760412,0 -1.471347,0.19129 -2.129366,0.57308 -0.6604,0.38206 -1.178719,0.90012 -1.554956,1.5547 -0.376503,0.65431 -0.565415,1.37133 -0.565415,2.15026 0,1.16338 0.404548,2.16747 1.214437,3.01334 0.809096,0.8472 1.825096,1.26895 3.046413,1.26895 1.167077,0 2.160323,-0.41037 2.979208,-1.23508 0.818886,-0.82285 1.227402,-1.83065 1.227402,-3.02048 0,-1.19936 -0.414337,-2.21668 -1.244335,-3.05303"
           id="path30"
           style="fill:#4c4c4c;stroke-width:0.26458332" />
        <path
           inkscape:connector-curvature="0"
           d="m 69,231.47434 c -0.196585,0.13706 -0.289454,0.20453 -0.809625,0.20453 h -2.046816 v -1.75102 h 1.983316 c 0.397669,0 0.468048,0.0299 0.631032,0.0913 0.162454,0.0595 0.29157,0.15902 0.388937,0.29581 0.09737,0.13705 0.144992,0.29977 0.144992,0.4863 0,0.3138 -0.09737,0.53817 -0.291836,0.6731 m 0.246063,1.61211 c 0.542131,-0.19473 0.94906,-0.48048 1.218935,-0.85752 0.27014,-0.37914 0.403225,-0.84798 0.403225,-1.41155 0,-0.53419 -0.120914,-0.9988 -0.365389,-1.38985 -0.244211,-0.39106 -0.567796,-0.67099 -0.96864,-0.83979 -0.401108,-0.16881 -1.074208,-0.254 -2.021152,-0.254 h -2.997464 v 8.55662 h 1.627981 v -3.6232 h 1.420812 l 1.926167,3.6232 h 1.780646 z"
           id="path34"
           style="fill:#4c4c4c;stroke-width:0.26458332" />
        <path
           inkscape:connector-curvature="0"
           d="m 57.217787,228.33189 h 5.547783 v 1.59411 h -3.929591 v 1.75128 h 3.929591 v 1.56633 h -3.929591 v 2.0447 h 3.929591 v 1.60047 h -5.547783 z"
           id="path38"
           style="fill:#4c4c4c;stroke-width:0.26458332" />
        <path
           inkscape:connector-curvature="0"
           d="m 48.621925,228.33189 h 1.55866 l 3.670829,5.63033 v -5.63033 h 1.627981 v 8.55662 h -1.564481 l -3.665008,-5.61234 v 5.61234 h -1.627981 z"
           id="path42"
           style="fill:#4c4c4c;stroke-width:0.26458332" />
        <use
           transform="translate(-33.088422,-1.0786894e-6)"
           id="use46"
           x="0"
           y="0"
           width="282"
           height="75"
           xlink:href="#path30" />
        <path
           inkscape:connector-curvature="0"
           d="m 29.678129,228.33165 h 1.594114 l 1.977231,5.9682 2.007394,-5.9682 h 1.570302 l 1.441715,8.55689 h -1.570567 l -0.919162,-5.40412 -1.820598,5.40412 h -1.435629 l -1.796521,-5.40412 -0.937154,5.40412 H 28.20096 Z"
           id="path50"
           style="fill:#4c4c4c;stroke-width:0.26458332" />
      </g>
    </g>
    <flowRoot
       xml:space="preserve"
       id="flowRoot840"
       style="font-style:normal;font-weight:normal;font-size:26.66666603px;line-height:1.25;font-family:sans-serif;letter-spacing:0px;word-spacing:0px;fill:#000000;fill-opacity:1;stroke:none"><flowRegion
         id="flowRegion842"><rect
           id="rect844"
           width="77.781746"
           height="47.477169"
           x="239.40616"
           y="264.52042" /></flowRegion><flowPara
         id="flowPara846" /></flowRoot>    <flowRoot
       xml:space="preserve"
       id="flowRoot866"
       style="font-style:normal;font-variant:normal;font-weight:bold;font-stretch:normal;font-size:16px;line-height:1.25;font-family:'Century Gothic';-inkscape-font-specification:'Century Gothic Bold';text-align:center;letter-spacing:0px;word-spacing:0px;text-anchor:middle;fill:#000000;fill-opacity:1;stroke:none"
       transform="matrix(0.26458333,0,0,0.26458333,0,192)"><flowRegion
         id="flowRegion868"
         style="font-size:16px"><rect
           id="rect870"
           width="241.88977"
           height="148.28261"
           x="18.897638"
           y="229.67015"
           style="font-size:16px" /></flowRegion><flowPara
         id="flowPara872" /></flowRoot>    <flowRoot
       xml:space="preserve"
       id="flowRoot874"
       style="font-style:normal;font-variant:normal;font-weight:bold;font-stretch:normal;font-size:26.66666603px;line-height:1.25;font-family:'Century Gothic';-inkscape-font-specification:'Century Gothic Bold';text-align:center;letter-spacing:0px;word-spacing:0px;text-anchor:middle;fill:#000000;fill-opacity:1;stroke:none"><flowRegion
         id="flowRegion876"><rect
           id="rect878"
           width="241.88977"
           height="148.28261"
           x="18.897638"
           y="229.67015" /></flowRegion><flowPara
         id="flowPara880" /></flowRoot>    <g
       id="g861">
      <path
         inkscape:connector-curvature="0"
         id="rect861"
         d="M 5,263.0024 V 263.44051 292 h 60 v -28.9976 z m 0.874399,0.8744 h 58.251202 v 27.24879 H 5.874399 Z"
         style="color:#000000;font-style:normal;font-variant:normal;font-weight:normal;font-stretch:normal;font-size:medium;line-height:normal;font-family:sans-serif;font-variant-ligatures:normal;font-variant-position:normal;font-variant-caps:normal;font-variant-numeric:normal;font-variant-alternates:normal;font-feature-settings:normal;text-indent:0;text-align:start;text-decoration:none;text-decoration-line:none;text-decoration-style:solid;text-decoration-color:#000000;letter-spacing:normal;word-spacing:normal;text-transform:none;writing-mode:lr-tb;direction:ltr;text-orientation:mixed;dominant-baseline:auto;baseline-shift:baseline;text-anchor:start;white-space:normal;shape-padding:0;clip-rule:nonzero;display:inline;overflow:visible;visibility:visible;opacity:1;isolation:auto;mix-blend-mode:normal;color-interpolation:sRGB;color-interpolation-filters:linearRGB;solid-color:#000000;solid-opacity:1;vector-effect:none;fill:#4c4c4c;fill-opacity:1;fill-rule:nonzero;stroke:none;stroke-width:0.87388474;stroke-linecap:square;stroke-linejoin:miter;stroke-miterlimit:4;stroke-dasharray:none;stroke-dashoffset:0;stroke-opacity:1;color-rendering:auto;image-rendering:auto;shape-rendering:auto;text-rendering:auto;enable-background:accumulate" />
    </g>
    <g
       aria-label="NEKUPUJ"
       transform="matrix(0.26458333,0,0,0.26458333,0.86862596,194.39103)"
       style="font-style:normal;font-variant:normal;font-weight:bold;font-stretch:normal;font-size:52px;line-height:1.25;font-family:'Century Gothic';-inkscape-font-specification:'Century Gothic Bold';text-align:center;letter-spacing:0px;word-spacing:0px;text-anchor:middle;fill:#4c4c4c;fill-opacity:1;stroke:none"
       id="flowRoot1113">
      <path
         d="m 23.125977,28.758308 h 6.804687 L 45.952148,53.336433 V 28.758308 h 7.109375 v 37.34961 H 46.231445 L 30.235352,41.605964 v 24.501954 h -7.109375 z"
         style="font-size:52px;fill:#4c4c4c;fill-opacity:1"
         id="path1137" />
      <path
         d="m 61.618164,28.758308 h 20.388672 v 6.957031 H 68.676758 v 6.753907 h 13.330078 v 6.830078 H 68.676758 v 9.826172 h 13.330078 v 6.982422 H 61.618164 Z"
         style="font-size:52px;fill:#4c4c4c;fill-opacity:1"
         id="path1139" />
      <path
         d="m 88.65918,28.758308 h 7.185547 V 41.605964 L 105.97559,28.758308 h 8.55664 l -13.05078,16.65625 14.32031,20.69336 h -8.42969 L 95.844727,49.527839 V 66.107918 H 88.65918 Z"
         style="font-size:52px;fill:#4c4c4c;fill-opacity:1"
         id="path1141" />
      <path
         d="m 120.65137,28.758308 h 7.13476 v 24.171875 q 0,3.123047 0.53321,4.417969 0.55859,1.294922 1.80273,2.082031 1.26953,0.761719 3.04688,0.761719 1.8789,0 3.2246,-0.863281 1.3711,-0.863282 1.87891,-2.183594 0.5332,-1.345703 0.5332,-5.103516 V 28.758308 h 7.13477 v 22.267578 q 0,5.636719 -0.63477,7.820313 -0.63476,2.183594 -2.4375,4.214844 -1.77734,2.03125 -4.11328,3.021484 -2.33593,0.964844 -5.43359,0.964844 -4.0625,0 -7.08399,-1.853516 -2.99609,-1.878906 -4.29101,-4.671875 -1.29492,-2.818359 -1.29492,-9.496094 z"
         style="font-size:52px;fill:#4c4c4c;fill-opacity:1"
         id="path1143" />
      <path
         d="m 154.19238,28.758308 h 7.54102 q 6.11914,0 8.81055,1.142578 2.71679,1.117188 4.26562,3.65625 1.57422,2.513672 1.57422,6.042969 0,3.910156 -2.05664,6.5 -2.03125,2.589844 -5.53516,3.605469 -2.05664,0.583984 -7.49023,0.583984 v 15.81836 h -7.10938 z m 7.10938,14.59961 h 2.25976 q 2.66602,0 3.70703,-0.38086 1.04102,-0.380859 1.625,-1.24414 0.60938,-0.888672 0.60938,-2.132813 0,-2.158203 -1.67578,-3.148437 -1.21875,-0.736329 -4.51953,-0.736329 h -2.00586 z"
         style="font-size:52px;fill:#4c4c4c;fill-opacity:1"
         id="path1145" />
      <path
         d="m 183.1123,28.758308 h 7.13477 v 24.171875 q 0,3.123047 0.5332,4.417969 0.5586,1.294922 1.80274,2.082031 1.26953,0.761719 3.04687,0.761719 1.87891,0 3.22461,-0.863281 1.3711,-0.863282 1.87891,-2.183594 0.5332,-1.345703 0.5332,-5.103516 V 28.758308 h 7.13477 v 22.267578 q 0,5.636719 -0.63477,7.820313 -0.63476,2.183594 -2.4375,4.214844 -1.77734,2.03125 -4.11328,3.021484 -2.33594,0.964844 -5.43359,0.964844 -4.0625,0 -7.08399,-1.853516 -2.99609,-1.878906 -4.29101,-4.671875 -1.29493,-2.818359 -1.29493,-9.496094 z"
         style="font-size:52px;fill:#4c4c4c;fill-opacity:1"
         id="path1147" />
      <path
         d="m 225.97168,28.758308 h 7.13477 v 24.78125 q 0,5.916016 -0.93946,8.302735 -0.93945,2.386718 -3.09765,3.808593 -2.15821,1.396485 -5.17969,1.396485 -6.16992,0 -10.51172,-5.408203 l 5.12891,-4.798829 q 1.70117,1.929688 2.89453,2.589844 1.19336,0.660156 2.31054,0.660156 1.14258,0 1.70118,-0.964843 0.55859,-0.964844 0.55859,-4.240235 z"
         style="font-size:52px;fill:#4c4c4c;fill-opacity:1"
         id="path1149" />
    </g>
    <flowRoot
       xml:space="preserve"
       id="flowRoot1121"
       style="font-style:normal;font-variant:normal;font-weight:bold;font-stretch:normal;font-size:16px;line-height:1.25;font-family:'Century Gothic';-inkscape-font-specification:'Century Gothic Bold';text-align:center;letter-spacing:0px;word-spacing:0px;text-anchor:middle;fill:#4c4c4c;fill-opacity:1;stroke:none"
       transform="matrix(0.26458333,0,0,0.26458333,0,197.09505)"><flowRegion
         id="flowRegion1123"
         style="fill:#4c4c4c;fill-opacity:1"><rect
           id="rect1125"
           width="196.53543"
           height="86.929131"
           x="34.015747"
           y="260.78741"
           style="fill:#4c4c4c;fill-opacity:1" /></flowRegion><flowPara
         id="flowPara1131"
         style="font-size:17.33333397px" /></flowRoot>    <text
       xml:space="preserve"
       style="font-style:normal;font-variant:normal;font-weight:bold;font-stretch:normal;font-size:4.23333311px;line-height:1.25;font-family:'Century Gothic';-inkscape-font-specification:'Century Gothic Bold';text-align:center;letter-spacing:0px;word-spacing:0px;text-anchor:middle;fill:#000000;fill-opacity:1;stroke:none;stroke-width:0.26458332"
       x="15.100728"
       y="271.07486"
       id="text1187"><tspan
         sodipodi:role="line"
         id="tspan1185"
         x="15.100728"
         y="274.91818"
         style="stroke-width:0.26458332" /></text>
    <g
       aria-label="Kryptomeny škodí bankovnému systému
a môžu oslabiť
štátný aparát
"
       transform="matrix(0.26458333,0,0,0.26458333,0,197)"
       style="font-style:normal;font-variant:normal;font-weight:bold;font-stretch:normal;font-size:16px;line-height:1.25;font-family:'Century Gothic';-inkscape-font-specification:'Century Gothic Bold';text-align:center;letter-spacing:0px;word-spacing:0px;text-anchor:middle;fill:#4c4c4c;fill-opacity:1;stroke:none"
       id="flowRoot1189">
      <path
         d="m 58.125648,264.07373 h 2.395183 v 4.28256 l 3.376953,-4.28256 h 2.852214 l -4.350261,5.55209 4.773438,6.89778 h -2.809896 l -3.842448,-5.52669 v 5.52669 h -2.395183 z"
         style="font-size:17.33333397px"
         id="path1203" />
      <path
         d="m 68.078773,267.31527 h 1.980469 v 1.1595 q 0.321615,-0.68554 0.854818,-1.04101 0.533203,-0.35547 1.167969,-0.35547 0.448567,0 0.939453,0.23698 l -0.719401,1.98893 q -0.40625,-0.20312 -0.66862,-0.20312 -0.533203,0 -0.905599,0.66015 -0.363932,0.66016 -0.363932,2.58985 l 0.0085,0.44856 v 3.72396 h -2.29362 z"
         style="font-size:17.33333397px"
         id="path1205" />
      <path
         d="m 73.148435,267.31527 h 2.361329 l 2.395182,5.7806 2.640625,-5.7806 h 2.369792 l -5.772136,12.57682 h -2.386719 l 1.895834,-4.05403 z"
         style="font-size:17.33333397px"
         id="path1207" />
      <path
         d="m 86.520831,267.31527 v 1.01562 q 0.626302,-0.6263 1.354167,-0.93945 0.727865,-0.31315 1.557292,-0.31315 1.802734,0 3.063802,1.36263 1.261068,1.36263 1.261068,3.49544 0,2.05664 -1.303386,3.44467 -1.303385,1.37955 -3.089193,1.37955 -0.795573,0 -1.481119,-0.27929 -0.685547,-0.28776 -1.362631,-0.93099 v 4.34179 h -2.29362 v -12.57682 z m 2.429037,1.89583 q -1.091797,0 -1.811198,0.74479 -0.719401,0.7448 -0.719401,1.94662 0,1.22721 0.719401,1.98893 0.719401,0.75326 1.811198,0.75326 1.057943,0 1.777344,-0.77019 0.727864,-0.77018 0.727864,-1.96354 0,-1.18489 -0.710937,-1.93815 -0.710938,-0.76172 -1.794271,-0.76172 z"
         style="font-size:17.33333397px"
         id="path1209" />
      <path
         d="m 95.949217,263.92139 h 2.302084 v 3.39388 h 1.371094 v 1.98893 h -1.371094 v 7.2194 h -2.302084 v -7.2194 h -1.184896 v -1.98893 h 1.184896 z"
         style="font-size:17.33333397px"
         id="path1211" />
      <path
         d="m 105.20833,267.07829 q 1.30339,0 2.44597,0.65169 1.15104,0.6517 1.79427,1.76888 0.64323,1.11719 0.64323,2.41211 0,1.30339 -0.6517,2.4375 -0.64322,1.13412 -1.76041,1.77735 -1.11719,0.63476 -2.46289,0.63476 -1.98047,0 -3.38542,-1.40495 -1.39648,-1.41341 -1.39648,-3.42773 0,-2.1582 1.58268,-3.59701 1.38802,-1.2526 3.19075,-1.2526 z m 0.0339,2.17513 q -1.07487,0 -1.79427,0.75326 -0.71094,0.74479 -0.71094,1.91276 0,1.20182 0.70247,1.94661 0.71094,0.74479 1.79427,0.74479 1.08334,0 1.80274,-0.75325 0.7194,-0.75326 0.7194,-1.93815 0,-1.1849 -0.71094,-1.92123 -0.70247,-0.74479 -1.80273,-0.74479 z"
         style="font-size:17.33333397px"
         id="path1213" />
      <path
         d="m 111.9707,267.31527 h 2.31901 v 1.05794 q 0.59245,-0.65169 1.31185,-0.9733 0.72786,-0.32162 1.58268,-0.32162 0.86328,0 1.55729,0.42318 0.69401,0.42317 1.11719,1.23567 0.55013,-0.8125 1.3457,-1.23567 0.80404,-0.42318 1.75196,-0.42318 0.98177,0 1.72656,0.45703 0.74479,0.45703 1.06641,1.19336 0.33007,0.73633 0.33007,2.39518 v 5.39974 h -2.32747 v -4.67187 q 0,-1.56576 -0.38932,-2.11589 -0.38933,-0.55859 -1.16797,-0.55859 -0.59245,0 -1.06641,0.33854 -0.46549,0.33854 -0.69401,0.93945 -0.22851,0.59245 -0.22851,1.91276 v 4.1556 h -2.32748 v -4.46028 q 0,-1.23568 -0.1862,-1.78581 -0.17773,-0.55859 -0.54166,-0.82943 -0.36393,-0.27083 -0.88021,-0.27083 -0.57552,0 -1.04948,0.347 -0.46549,0.33855 -0.70247,0.95638 -0.22852,0.61784 -0.22852,1.94662 v 4.09635 h -2.31901 z"
         style="font-size:17.33333397px"
         id="path1215" />
      <path
         d="m 137.49675,272.58806 h -7.42253 q 0.16081,0.98177 0.85482,1.56575 0.70247,0.57552 1.78581,0.57552 1.29492,0 2.22591,-0.9056 l 1.94661,0.91407 q -0.72786,1.03255 -1.74349,1.5319 -1.01562,0.49088 -2.41211,0.49088 -2.16666,0 -3.52929,-1.36263 -1.36263,-1.37109 -1.36263,-3.42773 0,-2.10742 1.35416,-3.49545 1.36263,-1.39648 3.41081,-1.39648 2.17513,0 3.53776,1.39648 1.36263,1.38803 1.36263,3.67318 z m -2.31901,-1.81967 q -0.22852,-0.77018 -0.9056,-1.2526 -0.66862,-0.48242 -1.55729,-0.48242 -0.96485,0 -1.69271,0.54167 -0.45703,0.33854 -0.84636,1.19335 z"
         style="font-size:17.33333397px"
         id="path1217" />
      <path
         d="m 139.37565,267.31527 h 2.30208 v 0.93945 q 0.78711,-0.66015 1.42188,-0.91406 0.64323,-0.26237 1.31185,-0.26237 1.37109,0 2.32747,0.95638 0.80404,0.8125 0.80404,2.40365 v 6.08528 h -2.28516 v -4.03711 q 0,-1.65039 -0.15234,-2.19205 -0.14388,-0.54167 -0.51628,-0.82097 -0.36393,-0.28776 -0.9056,-0.28776 -0.70247,0 -1.21028,0.47396 -0.49935,0.4655 -0.69401,1.29492 -0.10157,0.43164 -0.10157,1.87045 v 3.69856 h -2.30208 z"
         style="font-size:17.33333397px"
         id="path1219" />
      <path
         d="m 148.74479,267.31527 h 2.36133 l 2.39518,5.7806 2.64062,-5.7806 h 2.3698 l -5.77214,12.57682 h -2.38672 l 1.89584,-4.05403 z"
         style="font-size:17.33333397px"
         id="path1221" />
      <path
         d="m 170.30143,268.60173 -1.43034,1.43034 q -0.87174,-0.86328 -1.58268,-0.86328 -0.38932,0 -0.60937,0.16927 -0.22006,0.1608 -0.22006,0.40625 0,0.18619 0.13542,0.347 0.14388,0.15235 0.69401,0.42318 l 0.84636,0.42318 q 1.33724,0.66015 1.83658,1.3457 0.49935,0.68555 0.49935,1.60807 0,1.22722 -0.9056,2.04818 -0.89713,0.82096 -2.41211,0.82096 -2.01432,0 -3.21614,-1.57422 l 1.42187,-1.54882 q 0.40625,0.47395 0.94792,0.77018 0.55013,0.28776 0.97331,0.28776 0.45703,0 0.73633,-0.22005 0.27929,-0.22006 0.27929,-0.50782 0,-0.5332 -1.00716,-1.04101 l -0.77864,-0.38932 q -2.23438,-1.12566 -2.23438,-2.81836 0,-1.0918 0.83789,-1.86198 0.84636,-0.77865 2.1582,-0.77865 0.89714,0 1.68425,0.39779 0.79557,0.38932 1.3457,1.12565 z m -6.44922,-5.36589 h 2.53907 l 0.93945,1.11719 0.91406,-1.11719 h 2.52214 l -2.52214,2.39518 h -1.85351 z"
         style="font-size:17.33333397px"
         id="path1223" />
      <path
         d="m 172.29883,263.76058 h 2.31054 v 7.35482 l 3.40235,-3.80013 h 2.89453 l -3.96094,4.41797 4.44336,4.79036 h -2.86914 l -3.91016,-4.24023 v 4.24023 h -2.31054 z"
         style="font-size:17.33333397px"
         id="path1225" />
      <path
         d="m 186.66146,267.07829 q 1.30338,0 2.44596,0.65169 1.15104,0.6517 1.79427,1.76888 0.64323,1.11719 0.64323,2.41211 0,1.30339 -0.65169,2.4375 -0.64323,1.13412 -1.76042,1.77735 -1.11718,0.63476 -2.46289,0.63476 -1.98047,0 -3.38541,-1.40495 -1.39649,-1.41341 -1.39649,-3.42773 0,-2.1582 1.58268,-3.59701 1.38802,-1.2526 3.19076,-1.2526 z m 0.0339,2.17513 q -1.07487,0 -1.79427,0.75326 -0.71094,0.74479 -0.71094,1.91276 0,1.20182 0.70248,1.94661 0.71094,0.74479 1.79427,0.74479 1.08333,0 1.80273,-0.75325 0.7194,-0.75326 0.7194,-1.93815 0,-1.1849 -0.71093,-1.92123 -0.70248,-0.74479 -1.80274,-0.74479 z"
         style="font-size:17.33333397px"
         id="path1227" />
      <path
         d="m 200.24544,263.76058 h 2.30208 v 12.76302 h -2.30208 v -0.9733 q -0.67708,0.64323 -1.36263,0.93099 -0.67708,0.27929 -1.47266,0.27929 -1.7858,0 -3.08919,-1.37955 -1.30338,-1.38803 -1.30338,-3.44467 0,-2.13281 1.26106,-3.49544 1.26107,-1.36263 3.06381,-1.36263 0.82942,0 1.55729,0.31315 0.72786,0.31315 1.3457,0.93945 z m -2.42904,5.45052 q -1.07487,0 -1.7858,0.76172 -0.71094,0.75326 -0.71094,1.93815 0,1.19336 0.7194,1.96354 0.72786,0.77019 1.78581,0.77019 1.09179,0 1.8112,-0.75326 0.7194,-0.76172 0.7194,-1.98893 0,-1.20182 -0.7194,-1.94662 -0.71941,-0.74479 -1.81967,-0.74479 z"
         style="font-size:17.33333397px"
         id="path1229" />
      <path
         d="m 204.62956,267.31527 h 2.31902 v 9.20833 h -2.31902 z m 1.57422,-5.00195 h 2.73373 l -3.09766,3.3177 H 204.181 Z"
         style="font-size:17.33333397px"
         id="path1231" />
      <path
         d="m 43.018226,285.42724 v 4.57031 q 0.626302,-0.6263 1.354167,-0.93945 0.727864,-0.31315 1.557291,-0.31315 1.802735,0 3.063803,1.36263 1.261067,1.36263 1.261067,3.49544 0,2.05664 -1.303385,3.44466 -1.303386,1.37956 -3.089193,1.37956 -0.795573,0 -1.48112,-0.2793 -0.685547,-0.28776 -1.36263,-0.93099 v 0.97331 h -2.29362 v -12.76302 z m 2.429036,5.45052 q -1.091796,0 -1.811198,0.74479 -0.719401,0.74479 -0.719401,1.94662 0,1.22721 0.719401,1.98893 0.719402,0.75325 1.811198,0.75325 1.057943,0 1.777344,-0.77018 0.727865,-0.77018 0.727865,-1.96354 0,-1.1849 -0.710938,-1.93815 -0.710937,-0.76172 -1.794271,-0.76172 z"
         style="font-size:17.33333397px"
         id="path1233" />
      <path
         d="m 58.972003,288.98193 h 2.302083 v 9.20833 h -2.302083 v -0.97331 q -0.677084,0.64323 -1.362631,0.93099 -0.677083,0.2793 -1.472656,0.2793 -1.785807,0 -3.089193,-1.37956 -1.303385,-1.38802 -1.303385,-3.44466 0,-2.13281 1.261068,-3.49544 1.261067,-1.36263 3.063802,-1.36263 0.829427,0 1.557292,0.31315 0.727864,0.31315 1.345703,0.93945 z m -2.429037,1.89583 q -1.07487,0 -1.785807,0.76172 -0.710938,0.75325 -0.710938,1.93815 0,1.19336 0.719401,1.96354 0.727865,0.77018 1.785808,0.77018 1.091797,0 1.811198,-0.75325 0.719401,-0.76172 0.719401,-1.98893 0,-1.20183 -0.719401,-1.94662 -0.719401,-0.74479 -1.819662,-0.74479 z"
         style="font-size:17.33333397px"
         id="path1235" />
      <path
         d="m 63.610024,288.98193 h 2.302083 v 0.93945 q 0.78711,-0.66016 1.421875,-0.91406 0.64323,-0.26237 1.311849,-0.26237 1.371094,0 2.327474,0.95638 0.804037,0.8125 0.804037,2.40364 v 6.08529 h -2.285156 v -4.03711 q 0,-1.65039 -0.152344,-2.19206 -0.14388,-0.54166 -0.516276,-0.82096 -0.363932,-0.28776 -0.905599,-0.28776 -0.702474,0 -1.210287,0.47396 -0.499349,0.46549 -0.69401,1.29492 -0.101563,0.43164 -0.101563,1.87044 v 3.69857 h -2.302083 z"
         style="font-size:17.33333397px"
         id="path1237" />
      <path
         d="m 74.020181,285.42724 h 2.310547 v 7.35482 l 3.402344,-3.80013 h 2.894532 l -3.960938,4.41797 4.44336,4.79036 h -2.869141 l -3.910157,-4.24023 v 4.24023 h -2.310547 z"
         style="font-size:17.33333397px"
         id="path1239" />
      <path
         d="m 88.382812,288.74495 q 1.303385,0 2.445963,0.65169 1.151042,0.65169 1.794271,1.76888 0.64323,1.11719 0.64323,2.41211 0,1.30338 -0.651693,2.4375 -0.643229,1.13411 -1.760417,1.77734 -1.117187,0.63477 -2.462891,0.63477 -1.980468,0 -3.385416,-1.40495 -1.396485,-1.41341 -1.396485,-3.42773 0,-2.15821 1.582683,-3.59701 1.38802,-1.2526 3.190755,-1.2526 z m 0.03385,2.17513 q -1.07487,0 -1.794271,0.75325 -0.710937,0.74479 -0.710937,1.91276 0,1.20183 0.702474,1.94662 0.710937,0.74479 1.79427,0.74479 1.083334,0 1.802735,-0.75326 0.719401,-0.75325 0.719401,-1.93815 0,-1.18489 -0.710938,-1.92122 -0.702474,-0.74479 -1.802734,-0.74479 z"
         style="font-size:17.33333397px"
         id="path1241" />
      <path
         d="m 94.171872,288.98193 h 2.352864 l 2.327474,5.43359 2.31901,-5.43359 h 2.3444 l -3.918618,9.20833 h -1.498047 z"
         style="font-size:17.33333397px"
         id="path1243" />
      <path
         d="m 104.87825,288.98193 h 2.30209 v 0.93945 q 0.78711,-0.66016 1.42187,-0.91406 0.64323,-0.26237 1.31185,-0.26237 1.3711,0 2.32748,0.95638 0.80403,0.8125 0.80403,2.40364 v 6.08529 h -2.28515 v -4.03711 q 0,-1.65039 -0.15235,-2.19206 -0.14388,-0.54166 -0.51627,-0.82096 -0.36394,-0.28776 -0.9056,-0.28776 -0.70248,0 -1.21029,0.47396 -0.49935,0.46549 -0.69401,1.29492 -0.10156,0.43164 -0.10156,1.87044 v 3.69857 h -2.30209 z"
         style="font-size:17.33333397px"
         id="path1245" />
      <path
         d="m 124.49674,294.25471 h -7.42252 q 0.1608,0.98177 0.85481,1.56576 0.70248,0.57552 1.78581,0.57552 1.29492,0 2.22591,-0.9056 l 1.94662,0.91406 q -0.72787,1.03255 -1.74349,1.5319 -1.01563,0.49089 -2.41211,0.49089 -2.16667,0 -3.5293,-1.36263 -1.36263,-1.3711 -1.36263,-3.42774 0,-2.10742 1.35417,-3.49544 1.36263,-1.39648 3.4108,-1.39648 2.17513,0 3.53777,1.39648 1.36263,1.38802 1.36263,3.67318 z m -2.31901,-1.81966 q -0.22851,-0.77018 -0.9056,-1.2526 -0.66862,-0.48242 -1.55729,-0.48242 -0.96484,0 -1.69271,0.54166 -0.45703,0.33854 -0.84635,1.19336 z m -2.12435,-8.45508 h 2.73373 l -3.09766,3.31771 h -1.65885 z"
         style="font-size:17.33333397px"
         id="path1247" />
      <path
         d="m 126.35873,288.98193 h 2.31901 v 1.05794 q 0.59244,-0.65169 1.31185,-0.97331 0.72786,-0.32161 1.58268,-0.32161 0.86328,0 1.55729,0.42317 0.69401,0.42318 1.11719,1.23568 0.55013,-0.8125 1.3457,-1.23568 0.80404,-0.42317 1.75195,-0.42317 0.98177,0 1.72657,0.45703 0.74479,0.45703 1.0664,1.19336 0.33008,0.73633 0.33008,2.39518 v 5.39974 h -2.32747 v -4.67188 q 0,-1.56575 -0.38933,-2.11588 -0.38932,-0.55859 -1.16797,-0.55859 -0.59244,0 -1.0664,0.33854 -0.4655,0.33854 -0.69401,0.93945 -0.22852,0.59245 -0.22852,1.91276 v 4.1556 h -2.32747 v -4.46029 q 0,-1.23567 -0.1862,-1.7858 -0.17773,-0.5586 -0.54167,-0.82943 -0.36393,-0.27083 -0.8802,-0.27083 -0.57553,0 -1.04948,0.347 -0.4655,0.33854 -0.70248,0.95638 -0.22851,0.61784 -0.22851,1.94662 v 4.09635 h -2.31901 z"
         style="font-size:17.33333397px"
         id="path1249" />
      <path
         d="m 142.65104,288.98193 h 2.33594 v 4.43489 q 0,1.29492 0.17773,1.80274 0.17774,0.49935 0.56706,0.77864 0.39779,0.2793 0.97331,0.2793 0.57552,0 0.9733,-0.27083 0.40625,-0.2793 0.60092,-0.8125 0.14388,-0.39779 0.14388,-1.70118 v -4.51106 h 2.31901 v 3.90169 q 0,2.41211 -0.38086,3.30078 -0.4655,1.08333 -1.3711,1.66732 -0.9056,0.57552 -2.30208,0.57552 -1.51497,0 -2.45443,-0.67708 -0.93099,-0.67709 -1.31185,-1.88737 -0.27083,-0.83789 -0.27083,-3.04688 z"
         style="font-size:17.33333397px"
         id="path1251" />
      <path
         d="m 163.5306,290.26838 -1.43034,1.43034 q -0.87175,-0.86328 -1.58268,-0.86328 -0.38933,0 -0.60938,0.16927 -0.22005,0.16081 -0.22005,0.40625 0,0.1862 0.13542,0.34701 0.14388,0.15234 0.69401,0.42318 l 0.84635,0.42317 q 1.33724,0.66016 1.83659,1.34571 0.49935,0.68554 0.49935,1.60807 0,1.22721 -0.9056,2.04818 -0.89714,0.82096 -2.41211,0.82096 -2.01432,0 -3.21615,-1.57422 l 1.42188,-1.54883 q 0.40625,0.47396 0.94792,0.77018 0.55013,0.28776 0.9733,0.28776 0.45704,0 0.73633,-0.22005 0.2793,-0.22005 0.2793,-0.50781 0,-0.5332 -1.00716,-1.04102 l -0.77865,-0.38932 q -2.23437,-1.12565 -2.23437,-2.81836 0,-1.09179 0.83789,-1.86198 0.84635,-0.77864 2.1582,-0.77864 0.89714,0 1.68425,0.39778 0.79557,0.38933 1.3457,1.12565 z"
         style="font-size:17.33333397px"
         id="path1253" />
      <path
         d="m 164.48698,288.98193 h 2.36133 l 2.39518,5.7806 2.64062,-5.7806 h 2.3698 l -5.77214,12.57682 h -2.38672 l 1.89583,-4.05404 z"
         style="font-size:17.33333397px"
         id="path1255" />
      <path
         d="m 181.20248,290.26838 -1.43034,1.43034 q -0.87174,-0.86328 -1.58268,-0.86328 -0.38932,0 -0.60937,0.16927 -0.22006,0.16081 -0.22006,0.40625 0,0.1862 0.13542,0.34701 0.14388,0.15234 0.69401,0.42318 l 0.84635,0.42317 q 1.33724,0.66016 1.83659,1.34571 0.49935,0.68554 0.49935,1.60807 0,1.22721 -0.9056,2.04818 -0.89713,0.82096 -2.41211,0.82096 -2.01432,0 -3.21614,-1.57422 l 1.42187,-1.54883 q 0.40625,0.47396 0.94792,0.77018 0.55013,0.28776 0.97331,0.28776 0.45703,0 0.73632,-0.22005 0.2793,-0.22005 0.2793,-0.50781 0,-0.5332 -1.00716,-1.04102 l -0.77865,-0.38932 q -2.23437,-1.12565 -2.23437,-2.81836 0,-1.09179 0.83789,-1.86198 0.84635,-0.77864 2.1582,-0.77864 0.89714,0 1.68425,0.39778 0.79557,0.38933 1.3457,1.12565 z"
         style="font-size:17.33333397px"
         id="path1257" />
      <path
         d="m 183.46225,285.58805 h 2.30208 v 3.39388 h 1.37109 v 1.98893 h -1.37109 v 7.2194 h -2.30208 v -7.2194 h -1.1849 v -1.98893 h 1.1849 z"
         style="font-size:17.33333397px"
         id="path1259" />
      <path
         d="m 197.62174,294.25471 h -7.42252 q 0.1608,0.98177 0.85481,1.56576 0.70248,0.57552 1.78581,0.57552 1.29492,0 2.22591,-0.9056 l 1.94662,0.91406 q -0.72787,1.03255 -1.74349,1.5319 -1.01563,0.49089 -2.41211,0.49089 -2.16667,0 -3.5293,-1.36263 -1.36263,-1.3711 -1.36263,-3.42774 0,-2.10742 1.35417,-3.49544 1.36263,-1.39648 3.4108,-1.39648 2.17513,0 3.53777,1.39648 1.36263,1.38802 1.36263,3.67318 z m -2.31901,-1.81966 q -0.22851,-0.77018 -0.9056,-1.2526 -0.66862,-0.48242 -1.55729,-0.48242 -0.96484,0 -1.69271,0.54166 -0.45703,0.33854 -0.84635,1.19336 z m -2.12435,-8.45508 h 2.73373 l -3.09766,3.31771 h -1.65885 z"
         style="font-size:17.33333397px"
         id="path1261" />
      <path
         d="m 199.48373,288.98193 h 2.31901 v 1.05794 q 0.59244,-0.65169 1.31185,-0.97331 0.72786,-0.32161 1.58268,-0.32161 0.86328,0 1.55729,0.42317 0.69401,0.42318 1.11719,1.23568 0.55013,-0.8125 1.3457,-1.23568 0.80404,-0.42317 1.75195,-0.42317 0.98177,0 1.72657,0.45703 0.74479,0.45703 1.0664,1.19336 0.33008,0.73633 0.33008,2.39518 v 5.39974 h -2.32747 v -4.67188 q 0,-1.56575 -0.38933,-2.11588 -0.38932,-0.55859 -1.16797,-0.55859 -0.59244,0 -1.0664,0.33854 -0.4655,0.33854 -0.69401,0.93945 -0.22852,0.59245 -0.22852,1.91276 v 4.1556 h -2.32747 v -4.46029 q 0,-1.23567 -0.1862,-1.7858 -0.17773,-0.5586 -0.54167,-0.82943 -0.36393,-0.27083 -0.8802,-0.27083 -0.57553,0 -1.04948,0.347 -0.4655,0.33854 -0.70248,0.95638 -0.22851,0.61784 -0.22851,1.94662 v 4.09635 h -2.31901 z"
         style="font-size:17.33333397px"
         id="path1263" />
      <path
         d="m 215.77605,288.98193 h 2.33594 v 4.43489 q 0,1.29492 0.17773,1.80274 0.17773,0.49935 0.56706,0.77864 0.39778,0.2793 0.97331,0.2793 0.57552,0 0.9733,-0.27083 0.40625,-0.2793 0.60091,-0.8125 0.14388,-0.39779 0.14388,-1.70118 v -4.51106 h 2.31901 v 3.90169 q 0,2.41211 -0.38085,3.30078 -0.4655,1.08333 -1.3711,1.66732 -0.9056,0.57552 -2.30208,0.57552 -1.51498,0 -2.45443,-0.67708 -0.93099,-0.67709 -1.31185,-1.88737 -0.27083,-0.83789 -0.27083,-3.04688 z"
         style="font-size:17.33333397px"
         id="path1265" />
      <path
         d="m 78.725909,310.64858 h 2.302084 v 9.20834 h -2.302084 v -0.97331 q -0.677083,0.64323 -1.36263,0.93099 -0.677083,0.2793 -1.472656,0.2793 -1.785807,0 -3.089193,-1.37956 -1.303385,-1.38802 -1.303385,-3.44466 0,-2.13282 1.261067,-3.49545 1.261068,-1.36263 3.063803,-1.36263 0.829427,0 1.557291,0.31315 0.727865,0.31316 1.345703,0.93946 z m -2.429036,1.89584 q -1.07487,0 -1.785807,0.76171 -0.710938,0.75326 -0.710938,1.93816 0,1.19336 0.719401,1.96354 0.727865,0.77018 1.785807,0.77018 1.091797,0 1.811198,-0.75326 0.719402,-0.76171 0.719402,-1.98893 0,-1.20182 -0.719402,-1.94661 -0.719401,-0.74479 -1.819661,-0.74479 z"
         style="font-size:17.33333397px"
         id="path1267" />
      <path
         d="m 88.18815,310.64858 h 2.319011 v 1.05795 q 0.592448,-0.6517 1.311849,-0.97331 0.727864,-0.32162 1.582682,-0.32162 0.863281,0 1.557292,0.42318 0.69401,0.42318 1.117187,1.23568 0.55013,-0.8125 1.345703,-1.23568 0.804037,-0.42318 1.751954,-0.42318 0.981772,0 1.726562,0.45703 0.74479,0.45704 1.06641,1.19336 0.33007,0.73633 0.33007,2.39519 v 5.39974 h -2.327469 v -4.67188 q 0,-1.56575 -0.389323,-2.11588 -0.389323,-0.5586 -1.167969,-0.5586 -0.592448,0 -1.066406,0.33854 -0.465495,0.33855 -0.694011,0.93946 -0.228516,0.59244 -0.228516,1.91276 v 4.1556 h -2.327474 v -4.46029 q 0,-1.23568 -0.186198,-1.78581 -0.177734,-0.55859 -0.541666,-0.82942 -0.363933,-0.27084 -0.880209,-0.27084 -0.57552,0 -1.049479,0.34701 -0.465495,0.33854 -0.702474,0.95638 -0.228515,0.61784 -0.228515,1.94661 v 4.09636 H 88.18815 Z"
         style="font-size:17.33333397px"
         id="path1269" />
      <path
         d="m 108.8138,310.4116 q 1.30339,0 2.44597,0.6517 1.15104,0.65169 1.79427,1.76888 0.64323,1.11718 0.64323,2.41211 0,1.30338 -0.6517,2.4375 -0.64323,1.13411 -1.76041,1.77734 -1.11719,0.63477 -2.46289,0.63477 -1.98047,0 -3.38542,-1.40495 -1.39649,-1.41341 -1.39649,-3.42774 0,-2.1582 1.58269,-3.597 1.38802,-1.25261 3.19075,-1.25261 z m 0.0339,2.17513 q -1.07487,0 -1.79427,0.75326 -0.71094,0.74479 -0.71094,1.91276 0,1.20182 0.70247,1.94661 0.71094,0.7448 1.79427,0.7448 1.08334,0 1.80274,-0.75326 0.7194,-0.75325 0.7194,-1.93815 0,-1.1849 -0.71094,-1.92122 -0.70247,-0.7448 -1.80273,-0.7448 z m -3.4362,-3.62239 2.53906,-2.39518 h 1.85352 l 2.52213,2.39518 h -2.52213 l -0.91407,-1.10873 -0.93945,1.10873 z"
         style="font-size:17.33333397px"
         id="path1271" />
      <path
         d="m 115.19531,310.64858 h 7.06706 l -4.14713,7.25326 h 3.91015 v 1.95508 h -7.46484 l 4.16406,-7.25326 h -3.5293 z m -0.24544,-4.07942 h 2.53906 l 0.93946,1.11718 0.91406,-1.11718 h 2.52214 l -2.52214,2.39518 h -1.85352 z"
         style="font-size:17.33333397px"
         id="path1273" />
      <path
         d="m 123.57422,310.64858 h 2.33594 v 4.4349 q 0,1.29492 0.17773,1.80273 0.17774,0.49935 0.56706,0.77865 0.39778,0.2793 0.97331,0.2793 0.57552,0 0.9733,-0.27084 0.40625,-0.27929 0.60091,-0.8125 0.14388,-0.39778 0.14388,-1.70117 v -4.51107 h 2.31902 v 3.9017 q 0,2.4121 -0.38086,3.30078 -0.4655,1.08333 -1.3711,1.66731 -0.9056,0.57553 -2.30208,0.57553 -1.51498,0 -2.45443,-0.67709 -0.93099,-0.67708 -1.31185,-1.88737 -0.27083,-0.83789 -0.27083,-3.04687 z"
         style="font-size:17.33333397px"
         id="path1275" />
      <path
         d="m 143.14193,310.4116 q 1.30338,0 2.44596,0.6517 1.15104,0.65169 1.79427,1.76888 0.64323,1.11718 0.64323,2.41211 0,1.30338 -0.65169,2.4375 -0.64323,1.13411 -1.76042,1.77734 -1.11719,0.63477 -2.46289,0.63477 -1.98047,0 -3.38542,-1.40495 -1.39648,-1.41341 -1.39648,-3.42774 0,-2.1582 1.58268,-3.597 1.38802,-1.25261 3.19076,-1.25261 z m 0.0339,2.17513 q -1.07487,0 -1.79427,0.75326 -0.71094,0.74479 -0.71094,1.91276 0,1.20182 0.70248,1.94661 0.71093,0.7448 1.79427,0.7448 1.08333,0 1.80273,-0.75326 0.7194,-0.75325 0.7194,-1.93815 0,-1.1849 -0.71093,-1.92122 -0.70248,-0.7448 -1.80274,-0.7448 z"
         style="font-size:17.33333397px"
         id="path1277" />
      <path
         d="m 155.55794,311.93504 -1.43034,1.43034 q -0.87174,-0.86328 -1.58268,-0.86328 -0.38932,0 -0.60938,0.16927 -0.22005,0.16081 -0.22005,0.40625 0,0.1862 0.13542,0.347 0.14388,0.15235 0.69401,0.42318 l 0.84635,0.42318 q 1.33724,0.66015 1.83659,1.3457 0.49935,0.68555 0.49935,1.60807 0,1.22722 -0.9056,2.04818 -0.89713,0.82097 -2.41211,0.82097 -2.01432,0 -3.21614,-1.57422 l 1.42187,-1.54883 q 0.40625,0.47396 0.94792,0.77018 0.55013,0.28776 0.97331,0.28776 0.45703,0 0.73632,-0.22005 0.2793,-0.22005 0.2793,-0.50781 0,-0.53321 -1.00716,-1.04102 l -0.77865,-0.38932 q -2.23437,-1.12565 -2.23437,-2.81836 0,-1.0918 0.83789,-1.86198 0.84635,-0.77865 2.1582,-0.77865 0.89714,0 1.68425,0.39779 0.79557,0.38932 1.3457,1.12565 z"
         style="font-size:17.33333397px"
         id="path1279" />
      <path
         d="m 157.29297,307.0939 h 2.31054 v 12.76302 h -2.31054 z"
         style="font-size:17.33333397px"
         id="path1281" />
      <path
         d="m 168.50716,310.64858 h 2.30208 v 9.20834 h -2.30208 v -0.97331 q -0.67708,0.64323 -1.36263,0.93099 -0.67708,0.2793 -1.47266,0.2793 -1.7858,0 -3.08919,-1.37956 -1.30339,-1.38802 -1.30339,-3.44466 0,-2.13282 1.26107,-3.49545 1.26107,-1.36263 3.0638,-1.36263 0.82943,0 1.5573,0.31315 0.72786,0.31316 1.3457,0.93946 z m -2.42904,1.89584 q -1.07487,0 -1.7858,0.76171 -0.71094,0.75326 -0.71094,1.93816 0,1.19336 0.7194,1.96354 0.72786,0.77018 1.78581,0.77018 1.09179,0 1.81119,-0.75326 0.71941,-0.76171 0.71941,-1.98893 0,-1.20182 -0.71941,-1.94661 -0.7194,-0.74479 -1.81966,-0.74479 z"
         style="font-size:17.33333397px"
         id="path1283" />
      <path
         d="m 175.4388,307.0939 v 4.57031 q 0.6263,-0.6263 1.35417,-0.93946 0.72786,-0.31315 1.55729,-0.31315 1.80274,0 3.0638,1.36263 1.26107,1.36263 1.26107,3.49545 0,2.05664 -1.30338,3.44466 -1.30339,1.37956 -3.0892,1.37956 -0.79557,0 -1.48112,-0.2793 -0.68554,-0.28776 -1.36263,-0.93099 v 0.97331 h -2.29362 V 307.0939 Z m 2.42904,5.45052 q -1.0918,0 -1.8112,0.74479 -0.7194,0.74479 -0.7194,1.94661 0,1.22722 0.7194,1.98893 0.7194,0.75326 1.8112,0.75326 1.05794,0 1.77734,-0.77018 0.72787,-0.77018 0.72787,-1.96354 0,-1.1849 -0.71094,-1.93816 -0.71094,-0.76171 -1.79427,-0.76171 z"
         style="font-size:17.33333397px"
         id="path1285" />
      <path
         d="m 185.49349,306.85692 q 0.60938,0 1.04102,0.4401 0.4401,0.4401 0.4401,1.06641 0,0.61783 -0.43164,1.05794 -0.43164,0.43164 -1.03255,0.43164 -0.61784,0 -1.05794,-0.4401 -0.43164,-0.44857 -0.43164,-1.08334 0,-0.60937 0.43164,-1.04101 0.43164,-0.43164 1.04101,-0.43164 z m -1.1595,3.79166 h 2.31901 v 9.20834 h -2.31901 z"
         style="font-size:17.33333397px"
         id="path1287" />
      <path
         d="m 192.61979,307.0939 h 1.72657 v 0.42317 q 0,1.67578 -0.97331,2.86068 l -0.66862,-0.51628 q 0.55013,-0.68554 0.60938,-1.33724 h -0.69402 z m -3.58854,0.1608 h 2.30209 v 3.39388 h 1.37109 v 1.98894 h -1.37109 v 7.2194 h -2.30209 v -7.2194 h -1.18489 v -1.98894 h 1.18489 z"
         style="font-size:17.33333397px"
         id="path1289" />
      <path
         d="m 83.431639,333.6017 -1.430339,1.43034 q -0.871745,-0.86329 -1.582682,-0.86329 -0.389323,0 -0.609375,0.16928 -0.220052,0.1608 -0.220052,0.40625 0,0.18619 0.135416,0.347 0.143881,0.15234 0.694011,0.42318 l 0.846354,0.42318 q 1.33724,0.66015 1.836589,1.3457 0.499349,0.68555 0.499349,1.60807 0,1.22721 -0.905599,2.04818 -0.897136,0.82096 -2.41211,0.82096 -2.014323,0 -3.216146,-1.57422 l 1.421875,-1.54883 q 0.40625,0.47396 0.947917,0.77019 0.55013,0.28776 0.973307,0.28776 0.457032,0 0.736328,-0.22005 0.279297,-0.22006 0.279297,-0.50782 0,-0.5332 -1.007161,-1.04101 l -0.778646,-0.38933 q -2.234375,-1.12565 -2.234375,-2.81835 0,-1.0918 0.837891,-1.86198 0.846354,-0.77865 2.158203,-0.77865 0.897135,0 1.684245,0.39779 0.795573,0.38932 1.345703,1.12565 z m -6.449219,-5.36589 h 2.539062 l 0.939454,1.11719 0.914062,-1.11719 h 2.522136 l -2.522136,2.39518 h -1.853516 z"
         style="font-size:17.33333397px"
         id="path1291" />
      <path
         d="m 85.691405,328.92136 h 2.302083 v 3.39388 h 1.371094 v 1.98893 h -1.371094 v 7.2194 h -2.302083 v -7.2194 h -1.184896 v -1.98893 h 1.184896 z"
         style="font-size:17.33333397px"
         id="path1293" />
      <path
         d="m 97.430338,332.31524 h 2.302083 v 9.20833 h -2.302083 v -0.9733 q -0.677083,0.64322 -1.36263,0.93099 -0.677084,0.27929 -1.472656,0.27929 -1.785808,0 -3.089193,-1.37956 -1.303386,-1.38802 -1.303386,-3.44466 0,-2.13281 1.261068,-3.49544 1.261068,-1.36263 3.063802,-1.36263 0.829427,0 1.557292,0.31315 0.727864,0.31315 1.345703,0.93945 z m -2.429036,1.89583 q -1.07487,0 -1.785808,0.76172 -0.710937,0.75326 -0.710937,1.93815 0,1.19336 0.719401,1.96354 0.727864,0.77019 1.785807,0.77019 1.091797,0 1.811198,-0.75326 0.719401,-0.76172 0.719401,-1.98893 0,-1.20182 -0.719401,-1.94662 -0.719401,-0.74479 -1.819661,-0.74479 z m 0.583984,-6.89778 h 2.733724 l -3.097656,3.3177 h -1.658855 z"
         style="font-size:17.33333397px"
         id="path1295" />
      <path
         d="m 102.34766,328.92136 h 2.30208 v 3.39388 h 1.37109 v 1.98893 h -1.37109 v 7.2194 h -2.30208 v -7.2194 h -1.1849 v -1.98893 h 1.1849 z"
         style="font-size:17.33333397px"
         id="path1297" />
      <path
         d="m 107.2819,332.31524 h 2.30208 v 0.93945 q 0.78711,-0.66015 1.42188,-0.91406 0.64323,-0.26237 1.31185,-0.26237 1.37109,0 2.32747,0.95638 0.80404,0.8125 0.80404,2.40365 v 6.08528 h -2.28516 v -4.03711 q 0,-1.65039 -0.15234,-2.19205 -0.14388,-0.54167 -0.51628,-0.82097 -0.36393,-0.28776 -0.9056,-0.28776 -0.70247,0 -1.21028,0.47396 -0.49935,0.4655 -0.69401,1.29492 -0.10157,0.43164 -0.10157,1.87044 v 3.69857 h -2.30208 z"
         style="font-size:17.33333397px"
         id="path1299" />
      <path
         d="m 116.65104,332.31524 h 2.36133 l 2.39518,5.7806 2.64063,-5.7806 h 2.36979 l -5.77214,12.57682 h -2.38671 l 1.89583,-4.05403 z m 5.28125,-5.00195 h 2.73373 l -3.09766,3.3177 h -1.65885 z"
         style="font-size:17.33333397px"
         id="path1301" />
      <path
         d="m 139.37565,332.31524 h 2.30208 v 9.20833 h -2.30208 v -0.9733 q -0.67708,0.64322 -1.36263,0.93099 -0.67708,0.27929 -1.47266,0.27929 -1.7858,0 -3.08919,-1.37956 -1.30338,-1.38802 -1.30338,-3.44466 0,-2.13281 1.26106,-3.49544 1.26107,-1.36263 3.06381,-1.36263 0.82942,0 1.55729,0.31315 0.72786,0.31315 1.3457,0.93945 z m -2.42904,1.89583 q -1.07487,0 -1.7858,0.76172 -0.71094,0.75326 -0.71094,1.93815 0,1.19336 0.7194,1.96354 0.72786,0.77019 1.78581,0.77019 1.09179,0 1.8112,-0.75326 0.7194,-0.76172 0.7194,-1.98893 0,-1.20182 -0.7194,-1.94662 -0.71941,-0.74479 -1.81967,-0.74479 z"
         style="font-size:17.33333397px"
         id="path1303" />
      <path
         d="m 146.30729,332.31524 v 1.01562 q 0.6263,-0.6263 1.35417,-0.93945 0.72786,-0.31315 1.55729,-0.31315 1.80273,0 3.0638,1.36263 1.26107,1.36263 1.26107,3.49544 0,2.05664 -1.30339,3.44466 -1.30338,1.37956 -3.08919,1.37956 -0.79557,0 -1.48112,-0.27929 -0.68555,-0.28777 -1.36263,-0.93099 v 4.34179 h -2.29362 v -12.57682 z m 2.42904,1.89583 q -1.0918,0 -1.8112,0.74479 -0.7194,0.7448 -0.7194,1.94662 0,1.22721 0.7194,1.98893 0.7194,0.75326 1.8112,0.75326 1.05794,0 1.77734,-0.77019 0.72786,-0.77018 0.72786,-1.96354 0,-1.18489 -0.71093,-1.93815 -0.71094,-0.76172 -1.79427,-0.76172 z"
         style="font-size:17.33333397px"
         id="path1305" />
      <path
         d="m 162.26107,332.31524 h 2.30208 v 9.20833 h -2.30208 v -0.9733 q -0.67708,0.64322 -1.36263,0.93099 -0.67709,0.27929 -1.47266,0.27929 -1.78581,0 -3.08919,-1.37956 -1.30339,-1.38802 -1.30339,-3.44466 0,-2.13281 1.26107,-3.49544 1.26107,-1.36263 3.0638,-1.36263 0.82943,0 1.5573,0.31315 0.72786,0.31315 1.3457,0.93945 z m -2.42904,1.89583 q -1.07487,0 -1.78581,0.76172 -0.71093,0.75326 -0.71093,1.93815 0,1.19336 0.7194,1.96354 0.72786,0.77019 1.78581,0.77019 1.09179,0 1.81119,-0.75326 0.7194,-0.76172 0.7194,-1.98893 0,-1.20182 -0.7194,-1.94662 -0.7194,-0.74479 -1.81966,-0.74479 z"
         style="font-size:17.33333397px"
         id="path1307" />
      <path
         d="m 166.35742,332.31524 h 1.98047 v 1.1595 q 0.32162,-0.68554 0.85482,-1.04101 0.5332,-0.35547 1.16797,-0.35547 0.44857,0 0.93945,0.23698 l -0.7194,1.98893 q -0.40625,-0.20312 -0.66862,-0.20312 -0.5332,0 -0.9056,0.66015 -0.36393,0.66016 -0.36393,2.58985 l 0.008,0.44856 v 3.72396 h -2.29362 z"
         style="font-size:17.33333397px"
         id="path1309" />
      <path
         d="m 179.25587,332.31524 h 2.30208 v 9.20833 h -2.30208 v -0.9733 q -0.67709,0.64322 -1.36264,0.93099 -0.67708,0.27929 -1.47265,0.27929 -1.78581,0 -3.08919,-1.37956 -1.30339,-1.38802 -1.30339,-3.44466 0,-2.13281 1.26107,-3.49544 1.26107,-1.36263 3.0638,-1.36263 0.82943,0 1.55729,0.31315 0.72787,0.31315 1.34571,0.93945 z m -2.42904,1.89583 q -1.07487,0 -1.78581,0.76172 -0.71094,0.75326 -0.71094,1.93815 0,1.19336 0.7194,1.96354 0.72787,0.77019 1.78581,0.77019 1.0918,0 1.8112,-0.75326 0.7194,-0.76172 0.7194,-1.98893 0,-1.20182 -0.7194,-1.94662 -0.7194,-0.74479 -1.81966,-0.74479 z m 0.58398,-6.89778 h 2.73373 l -3.09766,3.3177 h -1.65885 z"
         style="font-size:17.33333397px"
         id="path1311" />
      <path
         d="m 184.17318,328.92136 h 2.30208 v 3.39388 h 1.37109 v 1.98893 h -1.37109 v 7.2194 h -2.30208 v -7.2194 h -1.1849 v -1.98893 h 1.1849 z"
         style="font-size:17.33333397px"
         id="path1313" />
    </g>
  </g>
</svg>
