<?xml version="1.0" encoding="UTF-8" standalone="no"?>
<!-- Created with Inkscape (http://www.inkscape.org/) -->

<svg
   xmlns:dc="http://purl.org/dc/elements/1.1/"
   xmlns:cc="http://creativecommons.org/ns#"
   xmlns:rdf="http://www.w3.org/1999/02/22-rdf-syntax-ns#"
   xmlns:svg="http://www.w3.org/2000/svg"
   xmlns="http://www.w3.org/2000/svg"
   xmlns:xlink="http://www.w3.org/1999/xlink"
   xmlns:sodipodi="http://sodipodi.sourceforge.net/DTD/sodipodi-0.dtd"
   xmlns:inkscape="http://www.inkscape.org/namespaces/inkscape"
   width="70mm"
   height="100mm"
   viewBox="0 0 70 100"
   version="1.1"
   id="svg8"
   inkscape:version="0.92.2 5c3e80d, 2017-08-06"
   sodipodi:docname="sticker.pt.svg"
   inkscape:export-filename="/home/emes/doc/dontbuymonero-sticker/sticker.pt.png"
   inkscape:export-xdpi="300"
   inkscape:export-ydpi="300">
  <defs
     id="defs2" />
  <sodipodi:namedview
     id="base"
     pagecolor="#ffffff"
     bordercolor="#666666"
     borderopacity="1.0"
     inkscape:pageopacity="0.0"
     inkscape:pageshadow="2"
     inkscape:zoom="2.8"
     inkscape:cx="85.752203"
     inkscape:cy="144.94585"
     inkscape:document-units="mm"
     inkscape:current-layer="layer1"
     showgrid="false"
     showguides="true"
     inkscape:guide-bbox="true"
     inkscape:snap-to-guides="true"
     inkscape:snap-grids="true"
     inkscape:snap-page="true"
     inkscape:snap-bbox="true"
     inkscape:bbox-nodes="true"
     inkscape:bbox-paths="true"
     inkscape:window-width="1920"
     inkscape:window-height="1136"
     inkscape:window-x="0"
     inkscape:window-y="747"
     inkscape:window-maximized="1"
     inkscape:pagecheckerboard="true">
    <sodipodi:guide
       position="5,91.472997"
       orientation="1,0"
       id="guide889"
       inkscape:locked="false"
       inkscape:label=""
       inkscape:color="rgb(0,0,255)" />
    <sodipodi:guide
       position="65,88.533032"
       orientation="1,0"
       id="guide891"
       inkscape:locked="false"
       inkscape:label=""
       inkscape:color="rgb(0,0,255)" />
    <sodipodi:guide
       position="28.86511,95"
       orientation="0,1"
       id="guide893"
       inkscape:locked="false"
       inkscape:label=""
       inkscape:color="rgb(0,0,255)" />
    <sodipodi:guide
       position="36.348657,5"
       orientation="0,1"
       id="guide895"
       inkscape:locked="false"
       inkscape:label=""
       inkscape:color="rgb(0,0,255)" />
    <sodipodi:guide
       position="8,36.74956"
       orientation="1,0"
       id="guide1093"
       inkscape:locked="false"
       inkscape:label=""
       inkscape:color="rgb(0,0,255)" />
    <sodipodi:guide
       position="62,37.685003"
       orientation="1,0"
       id="guide1095"
       inkscape:locked="false"
       inkscape:label=""
       inkscape:color="rgb(0,0,255)" />
  </sodipodi:namedview>
  <metadata
     id="metadata5">
    <rdf:RDF>
      <cc:Work
         rdf:about="">
        <dc:format>image/svg+xml</dc:format>
        <dc:type
           rdf:resource="http://purl.org/dc/dcmitype/StillImage" />
        <dc:title />
      </cc:Work>
    </rdf:RDF>
  </metadata>
  <g
     inkscape:label="Layer 1"
     inkscape:groupmode="layer"
     id="layer1"
     transform="translate(0,-197)">
    <rect
       style="fill:#ffffff;fill-opacity:1;stroke:none;stroke-width:1;stroke-linecap:square;stroke-miterlimit:4;stroke-dasharray:none;stroke-opacity:1"
       id="rect858"
       width="70"
       height="100"
       x="0"
       y="197" />
    <g
       id="g875"
       transform="translate(-2.0000006,5.4790253)"
       inkscape:export-xdpi="352.57999"
       inkscape:export-ydpi="352.57999">
      <g
         transform="matrix(1.3011002,0,0,1.3011002,16.420217,-75.468301)"
         id="g915">
        <path
           inkscape:connector-curvature="0"
           d="m 15.817084,222.05063 c -5.391414,0 -9.7639184,4.37197 -9.7639184,9.76365 0,1.07791 0.174625,2.11455 0.4974166,3.08425 h 2.9199417 v -8.21505 l 6.3465601,6.34656 6.346561,-6.34656 v 8.21505 h 2.920206 c 0.322791,-0.9697 0.497416,-2.00634 0.497416,-3.08425 0,-5.39168 -4.372504,-9.76365 -9.764183,-9.76365"
           id="path22"
           style="fill:#ff6600;stroke-width:0.26458332" />
        <path
           inkscape:connector-curvature="0"
           d="m 11.58809,231.71921 v 5.16917 H 7.4738193 c 1.7139708,2.81199 4.8095957,4.69 8.3431057,4.69 3.533511,0 6.6294,-1.87801 8.343107,-4.69 h -4.114007 v -5.16917 l -4.2291,4.2291 z"
           id="path26"
           style="fill:#4c4c4c;stroke-width:0.26458332" />
      </g>
      <g
         transform="matrix(0.88274719,0,0,0.88274719,-10.947117,38.872224)"
         id="g911">
        <path
           inkscape:connector-curvature="0"
           d="m 78.102302,234.59405 c -0.516202,0.53154 -1.142206,0.79639 -1.878277,0.79639 -0.650346,0 -1.225285,-0.20426 -1.728523,-0.61489 -0.646906,-0.52361 -0.969962,-1.23666 -0.969962,-2.13889 0,-0.80778 0.257175,-1.47532 0.771525,-1.99919 0.512497,-0.52573 1.14591,-0.78687 1.900766,-0.78687 0.745331,0 1.379008,0.26881 1.898915,0.80565 0.522023,0.53711 0.782902,1.1938 0.782902,1.97088 0,0.7792 -0.258763,1.43352 -0.777346,1.96692 m 1.083998,-5.01042 c -0.828675,-0.8337 -1.81954,-1.25174 -2.973388,-1.25174 -0.760412,0 -1.471347,0.19129 -2.129366,0.57308 -0.6604,0.38206 -1.178719,0.90012 -1.554956,1.5547 -0.376503,0.65431 -0.565415,1.37133 -0.565415,2.15026 0,1.16338 0.404548,2.16747 1.214437,3.01334 0.809096,0.8472 1.825096,1.26895 3.046413,1.26895 1.167077,0 2.160323,-0.41037 2.979208,-1.23508 0.818886,-0.82285 1.227402,-1.83065 1.227402,-3.02048 0,-1.19936 -0.414337,-2.21668 -1.244335,-3.05303"
           id="path30"
           style="fill:#4c4c4c;stroke-width:0.26458332" />
        <path
           inkscape:connector-curvature="0"
           d="m 69,231.47434 c -0.196585,0.13706 -0.289454,0.20453 -0.809625,0.20453 h -2.046816 v -1.75102 h 1.983316 c 0.397669,0 0.468048,0.0299 0.631032,0.0913 0.162454,0.0595 0.29157,0.15902 0.388937,0.29581 0.09737,0.13705 0.144992,0.29977 0.144992,0.4863 0,0.3138 -0.09737,0.53817 -0.291836,0.6731 m 0.246063,1.61211 c 0.542131,-0.19473 0.94906,-0.48048 1.218935,-0.85752 0.27014,-0.37914 0.403225,-0.84798 0.403225,-1.41155 0,-0.53419 -0.120914,-0.9988 -0.365389,-1.38985 -0.244211,-0.39106 -0.567796,-0.67099 -0.96864,-0.83979 -0.401108,-0.16881 -1.074208,-0.254 -2.021152,-0.254 h -2.997464 v 8.55662 h 1.627981 v -3.6232 h 1.420812 l 1.926167,3.6232 h 1.780646 z"
           id="path34"
           style="fill:#4c4c4c;stroke-width:0.26458332" />
        <path
           inkscape:connector-curvature="0"
           d="m 57.217787,228.33189 h 5.547783 v 1.59411 h -3.929591 v 1.75128 h 3.929591 v 1.56633 h -3.929591 v 2.0447 h 3.929591 v 1.60047 h -5.547783 z"
           id="path38"
           style="fill:#4c4c4c;stroke-width:0.26458332" />
        <path
           inkscape:connector-curvature="0"
           d="m 48.621925,228.33189 h 1.55866 l 3.670829,5.63033 v -5.63033 h 1.627981 v 8.55662 h -1.564481 l -3.665008,-5.61234 v 5.61234 h -1.627981 z"
           id="path42"
           style="fill:#4c4c4c;stroke-width:0.26458332" />
        <use
           transform="translate(-33.088422,-1.0786894e-6)"
           id="use46"
           x="0"
           y="0"
           width="282"
           height="75"
           xlink:href="#path30" />
        <path
           inkscape:connector-curvature="0"
           d="m 29.678129,228.33165 h 1.594114 l 1.977231,5.9682 2.007394,-5.9682 h 1.570302 l 1.441715,8.55689 h -1.570567 l -0.919162,-5.40412 -1.820598,5.40412 h -1.435629 l -1.796521,-5.40412 -0.937154,5.40412 H 28.20096 Z"
           id="path50"
           style="fill:#4c4c4c;stroke-width:0.26458332" />
      </g>
    </g>
    <flowRoot
       xml:space="preserve"
       id="flowRoot840"
       style="font-style:normal;font-weight:normal;font-size:26.66666603px;line-height:1.25;font-family:sans-serif;letter-spacing:0px;word-spacing:0px;fill:#000000;fill-opacity:1;stroke:none"><flowRegion
         id="flowRegion842"><rect
           id="rect844"
           width="77.781746"
           height="47.477169"
           x="239.40616"
           y="264.52042" /></flowRegion><flowPara
         id="flowPara846" /></flowRoot>    <flowRoot
       xml:space="preserve"
       id="flowRoot866"
       style="font-style:normal;font-variant:normal;font-weight:bold;font-stretch:normal;font-size:16px;line-height:1.25;font-family:'Century Gothic';-inkscape-font-specification:'Century Gothic Bold';text-align:center;letter-spacing:0px;word-spacing:0px;text-anchor:middle;fill:#000000;fill-opacity:1;stroke:none"
       transform="matrix(0.26458333,0,0,0.26458333,0,192)"><flowRegion
         id="flowRegion868"
         style="font-size:16px"><rect
           id="rect870"
           width="241.88977"
           height="148.28261"
           x="18.897638"
           y="229.67015"
           style="font-size:16px" /></flowRegion><flowPara
         id="flowPara872" /></flowRoot>    <flowRoot
       xml:space="preserve"
       id="flowRoot874"
       style="font-style:normal;font-variant:normal;font-weight:bold;font-stretch:normal;font-size:26.66666603px;line-height:1.25;font-family:'Century Gothic';-inkscape-font-specification:'Century Gothic Bold';text-align:center;letter-spacing:0px;word-spacing:0px;text-anchor:middle;fill:#000000;fill-opacity:1;stroke:none"><flowRegion
         id="flowRegion876"><rect
           id="rect878"
           width="241.88977"
           height="148.28261"
           x="18.897638"
           y="229.67015" /></flowRegion><flowPara
         id="flowPara880" /></flowRoot>    <g
       id="g861">
      <path
         inkscape:connector-curvature="0"
         id="rect861"
         d="M 5,263.0024 V 263.44051 292 h 60 v -28.9976 z m 0.874399,0.8744 h 58.251202 v 27.24879 H 5.874399 Z"
         style="color:#000000;font-style:normal;font-variant:normal;font-weight:normal;font-stretch:normal;font-size:medium;line-height:normal;font-family:sans-serif;font-variant-ligatures:normal;font-variant-position:normal;font-variant-caps:normal;font-variant-numeric:normal;font-variant-alternates:normal;font-feature-settings:normal;text-indent:0;text-align:start;text-decoration:none;text-decoration-line:none;text-decoration-style:solid;text-decoration-color:#000000;letter-spacing:normal;word-spacing:normal;text-transform:none;writing-mode:lr-tb;direction:ltr;text-orientation:mixed;dominant-baseline:auto;baseline-shift:baseline;text-anchor:start;white-space:normal;shape-padding:0;clip-rule:nonzero;display:inline;overflow:visible;visibility:visible;opacity:1;isolation:auto;mix-blend-mode:normal;color-interpolation:sRGB;color-interpolation-filters:linearRGB;solid-color:#000000;solid-opacity:1;vector-effect:none;fill:#4c4c4c;fill-opacity:1;fill-rule:nonzero;stroke:none;stroke-width:0.87388474;stroke-linecap:square;stroke-linejoin:miter;stroke-miterlimit:4;stroke-dasharray:none;stroke-dashoffset:0;stroke-opacity:1;color-rendering:auto;image-rendering:auto;shape-rendering:auto;text-rendering:auto;enable-background:accumulate" />
    </g>
    <g
       aria-label="NÃO COMPRE"
       transform="matrix(0.26458333,0,0,0.26458333,0,197)"
       style="font-style:normal;font-variant:normal;font-weight:bold;font-stretch:normal;font-size:33.33333206px;line-height:1.25;font-family:'Century Gothic';-inkscape-font-specification:'Century Gothic Bold';text-align:center;letter-spacing:0px;word-spacing:0px;text-anchor:middle;opacity:0.98000004;fill:#4c4c4c;fill-opacity:1;stroke:none"
       id="flowRoot1106">
      <path
         d="m 22.046554,25.218867 h 4.361979 L 36.678715,40.974075 V 25.218867 h 4.557291 V 49.160924 H 36.857751 L 26.603845,33.454544 v 15.70638 h -4.557291 z"
         style="font-size:33.33333206px;fill:#4c4c4c;fill-opacity:1"
         id="path1267" />
      <path
         d="m 53.996423,25.218867 h 4.622395 l 9.212239,23.942057 H 63.09473 L 61.222985,44.229283 H 51.45736 l -1.953125,4.931641 h -4.736328 z m 2.343749,6.347656 -3.190104,8.219401 H 59.514 Z m -5.029296,-8.268229 -1.790365,-2.685546 q 2.083334,-1.611328 4.215495,-1.611328 0.797526,0 2.734375,0.553385 1.318359,0.358073 2.099609,0.358073 1.367188,0 2.832031,-0.846354 l 1.692709,2.539062 q -2.050782,1.757813 -3.971355,1.757813 -1.02539,0 -2.457682,-0.439454 -1.171875,-0.341796 -1.481119,-0.406901 -0.423178,-0.0651 -1.009115,-0.0651 -1.432292,0 -2.864583,0.846354 z"
         style="font-size:33.33333206px;fill:#4c4c4c;fill-opacity:1"
         id="path1269" />
      <path
         d="m 82.691083,24.616654 q 5.078125,0 8.723958,3.678385 3.662109,3.678385 3.662109,8.968099 0,5.240885 -3.613281,8.870442 -3.597005,3.629557 -8.740234,3.629557 -5.387369,0 -8.951822,-3.727213 -3.564453,-3.727214 -3.564453,-8.854167 0,-3.434244 1.660156,-6.315104 1.660156,-2.880859 4.557291,-4.557291 2.913412,-1.692708 6.266276,-1.692708 z m -0.04883,4.459635 q -3.320312,0 -5.582682,2.311198 -2.26237,2.311198 -2.26237,5.875651 0,3.971354 2.848308,6.282551 2.213541,1.806641 5.078124,1.806641 3.238932,0 5.517578,-2.34375 2.278646,-2.34375 2.278646,-5.777994 0,-3.417969 -2.294922,-5.777995 -2.294922,-2.376302 -5.582682,-2.376302 z"
         style="font-size:33.33333206px;fill:#4c4c4c;fill-opacity:1"
         id="path1271" />
      <path
         d="m 130.68913,29.434362 -3.19011,3.04362 q -3.25521,-3.434245 -7.32422,-3.434245 -3.43424,0 -5.79427,2.34375 -2.34375,2.34375 -2.34375,5.777994 0,2.392578 1.04167,4.248047 1.04167,1.855469 2.94596,2.913411 1.9043,1.057943 4.23177,1.057943 1.98568,0 3.62956,-0.732422 1.64388,-0.748698 3.61328,-2.701823 l 3.09245,3.222657 q -2.653,2.58789 -5.01302,3.597005 -2.36003,0.992838 -5.38737,0.992838 -5.58268,0 -9.14714,-3.531901 -3.54817,-3.548177 -3.54817,-9.082031 0,-3.580729 1.61133,-6.363932 1.6276,-2.783203 4.63867,-4.475911 3.02734,-1.692708 6.51041,-1.692708 2.96224,0 5.69662,1.253255 2.75065,1.253255 4.73633,3.564453 z"
         style="font-size:33.33333206px;fill:#4c4c4c;fill-opacity:1"
         id="path1273" />
      <path
         d="m 145.97233,24.616654 q 5.07812,0 8.72396,3.678385 3.66211,3.678385 3.66211,8.968099 0,5.240885 -3.61328,8.870442 -3.59701,3.629557 -8.74024,3.629557 -5.38737,0 -8.95182,-3.727213 -3.56445,-3.727214 -3.56445,-8.854167 0,-3.434244 1.66015,-6.315104 1.66016,-2.880859 4.55729,-4.557291 2.91341,-1.692708 6.26628,-1.692708 z m -0.0488,4.459635 q -3.32031,0 -5.58268,2.311198 -2.26237,2.311198 -2.26237,5.875651 0,3.971354 2.84831,6.282551 2.21354,1.806641 5.07812,1.806641 3.23893,0 5.51758,-2.34375 2.27865,-2.34375 2.27865,-5.777994 0,-3.417969 -2.29493,-5.777995 -2.29492,-2.376302 -5.58268,-2.376302 z"
         style="font-size:33.33333206px;fill:#4c4c4c;fill-opacity:1"
         id="path1275" />
      <path
         d="m 164.96648,25.218867 h 4.45963 l 5.53385,16.699218 5.61524,-16.699218 h 4.39453 l 4.03646,23.942057 h -4.39453 l -2.57162,-15.120443 -5.0944,15.120443 h -4.02018 l -5.0293,-15.120443 -2.62044,15.120443 h -4.44336 z"
         style="font-size:33.33333206px;fill:#4c4c4c;fill-opacity:1"
         id="path1277" />
      <path
         d="m 192.65202,25.218867 h 4.83398 q 3.92253,0 5.64779,0.732422 1.74153,0.716146 2.73437,2.34375 1.00912,1.611328 1.00912,3.873698 0,2.50651 -1.31836,4.166666 -1.30209,1.660156 -3.54818,2.311198 -1.31836,0.374349 -4.80143,0.374349 v 10.139974 h -4.55729 z m 4.55729,9.358724 h 1.44857 q 1.70898,0 2.3763,-0.244141 0.66732,-0.24414 1.04167,-0.797526 0.39062,-0.569661 0.39062,-1.367187 0,-1.383464 -1.07422,-2.018229 -0.78125,-0.472006 -2.89713,-0.472006 h -1.28581 z"
         style="font-size:33.33333206px;fill:#4c4c4c;fill-opacity:1"
         id="path1279" />
      <path
         d="m 211.66243,25.218867 h 4.83398 q 3.97136,0 5.64779,0.716146 1.69271,0.69987 2.7181,2.34375 1.02539,1.64388 1.02539,3.889974 0,2.360026 -1.13932,3.955078 -1.12305,1.578776 -3.4017,2.392578 l 5.66407,10.644531 h -4.98047 L 216.6429,39.02095 h -0.42318 v 10.139974 h -4.55729 z m 4.55729,9.358724 h 1.43229 q 2.18099,0 2.99479,-0.569662 0.83008,-0.569661 0.83008,-1.88802 0,-0.78125 -0.4069,-1.350912 -0.4069,-0.585937 -1.09049,-0.830078 -0.6836,-0.260417 -2.50651,-0.260417 h -1.25326 z"
         style="font-size:33.33333206px;fill:#4c4c4c;fill-opacity:1"
         id="path1281" />
      <path
         d="m 230.7054,25.218867 h 13.06966 v 4.459635 h -8.54492 v 4.329427 h 8.54492 v 4.378255 h -8.54492 v 6.298828 h 8.54492 v 4.475912 H 230.7054 Z"
         style="font-size:33.33333206px;fill:#4c4c4c;fill-opacity:1"
         id="path1283" />
    </g>
    <g
       aria-label="Criptomoedas são nocivas ao sistema bancário
e podem debilitar
o aparelho estatal"
       transform="matrix(0.26458333,0,0,0.26458333,0,198.5119)"
       style="font-style:normal;font-variant:normal;font-weight:bold;font-stretch:normal;font-size:14.66666698px;line-height:1.25;font-family:'Century Gothic';-inkscape-font-specification:'Century Gothic, Bold';font-variant-ligatures:normal;font-variant-caps:normal;font-variant-numeric:normal;font-feature-settings:normal;text-align:center;letter-spacing:0px;word-spacing:0px;writing-mode:lr-tb;text-anchor:middle;fill:#4c4c4c;fill-opacity:1;stroke:none"
       id="flowRoot1096">
      <path
         d="m 47.820962,264.37409 -1.403646,1.33919 q -1.432292,-1.51107 -3.222656,-1.51107 -1.511068,0 -2.54948,1.03125 -1.03125,1.03125 -1.03125,2.54232 0,1.05274 0.458334,1.86914 0.458333,0.81641 1.296224,1.2819 0.83789,0.4655 1.861979,0.4655 0.873698,0 1.597005,-0.32227 0.723307,-0.32943 1.589844,-1.1888 l 1.360677,1.41797 q -1.167318,1.13867 -2.205729,1.58268 -1.038412,0.43685 -2.370443,0.43685 -2.45638,0 -4.02474,-1.55404 -1.561198,-1.56119 -1.561198,-3.99609 0,-1.57552 0.708985,-2.80013 0.716146,-1.22461 2.041015,-1.9694 1.332032,-0.74479 2.864584,-0.74479 1.303385,0 2.50651,0.55143 1.210287,0.55143 2.083985,1.56836 z"
         style="font-style:normal;font-variant:normal;font-weight:bold;font-stretch:normal;font-size:14.66666698px;font-family:'Century Gothic';-inkscape-font-specification:'Century Gothic, Bold';font-variant-ligatures:normal;font-variant-caps:normal;font-variant-numeric:normal;font-feature-settings:normal;text-align:center;writing-mode:lr-tb;text-anchor:middle;fill:#4c4c4c;fill-opacity:1"
         id="path1110" />
      <path
         d="m 48.89518,265.26211 h 1.675782 v 0.98112 q 0.272135,-0.58008 0.723307,-0.88086 0.451172,-0.30078 0.988281,-0.30078 0.379557,0 0.794922,0.20052 l -0.608724,1.68294 q -0.34375,-0.17187 -0.565755,-0.17187 -0.451172,0 -0.766276,0.55859 -0.307943,0.55859 -0.307943,2.19141 l 0.0072,0.37955 v 3.15105 H 48.89518 Z"
         style="font-style:normal;font-variant:normal;font-weight:bold;font-stretch:normal;font-size:14.66666698px;font-family:'Century Gothic';-inkscape-font-specification:'Century Gothic, Bold';font-variant-ligatures:normal;font-variant-caps:normal;font-variant-numeric:normal;font-feature-settings:normal;text-align:center;writing-mode:lr-tb;text-anchor:middle;fill:#4c4c4c;fill-opacity:1"
         id="path1112" />
      <path
         d="m 54.817708,262.05378 q 0.515625,0 0.880859,0.37239 0.372396,0.3724 0.372396,0.90235 0,0.52278 -0.365235,0.89518 -0.365234,0.36523 -0.873698,0.36523 -0.522786,0 -0.895182,-0.37239 -0.365234,-0.37956 -0.365234,-0.91667 0,-0.51563 0.365234,-0.88086 0.365235,-0.36523 0.88086,-0.36523 z m -0.98112,3.20833 h 1.962239 v 7.79167 h -1.962239 z"
         style="font-style:normal;font-variant:normal;font-weight:bold;font-stretch:normal;font-size:14.66666698px;font-family:'Century Gothic';-inkscape-font-specification:'Century Gothic, Bold';font-variant-ligatures:normal;font-variant-caps:normal;font-variant-numeric:normal;font-feature-settings:normal;text-align:center;writing-mode:lr-tb;text-anchor:middle;fill:#4c4c4c;fill-opacity:1"
         id="path1114" />
      <path
         d="m 59.515624,265.26211 v 0.85937 q 0.529948,-0.52994 1.145834,-0.79492 0.615885,-0.26497 1.317708,-0.26497 1.525391,0 2.592448,1.15299 1.067057,1.153 1.067057,2.95769 0,1.74023 -1.102864,2.91471 -1.102865,1.16732 -2.613933,1.16732 -0.673177,0 -1.253255,-0.23633 -0.580078,-0.24349 -1.152995,-0.78776 v 3.67383 h -1.940755 v -10.64193 z m 2.055339,1.60417 q -0.923828,0 -1.532552,0.6302 -0.608724,0.63021 -0.608724,1.64714 0,1.03841 0.608724,1.68294 0.608724,0.63737 1.532552,0.63737 0.895182,0 1.503906,-0.65169 0.615886,-0.65169 0.615886,-1.66146 0,-1.0026 -0.601563,-1.63997 -0.601562,-0.64453 -1.518229,-0.64453 z"
         style="font-style:normal;font-variant:normal;font-weight:bold;font-stretch:normal;font-size:14.66666698px;font-family:'Century Gothic';-inkscape-font-specification:'Century Gothic, Bold';font-variant-ligatures:normal;font-variant-caps:normal;font-variant-numeric:normal;font-feature-settings:normal;text-align:center;writing-mode:lr-tb;text-anchor:middle;fill:#4c4c4c;fill-opacity:1"
         id="path1116" />
      <path
         d="m 67.493488,262.39036 h 1.947917 v 2.87175 h 1.160156 v 1.68294 h -1.160156 v 6.10873 h -1.947917 v -6.10873 h -1.002604 v -1.68294 h 1.002604 z"
         style="font-style:normal;font-variant:normal;font-weight:bold;font-stretch:normal;font-size:14.66666698px;font-family:'Century Gothic';-inkscape-font-specification:'Century Gothic, Bold';font-variant-ligatures:normal;font-variant-caps:normal;font-variant-numeric:normal;font-feature-settings:normal;text-align:center;writing-mode:lr-tb;text-anchor:middle;fill:#4c4c4c;fill-opacity:1"
         id="path1118" />
      <path
         d="m 75.328124,265.06159 q 1.102865,0 2.069662,0.55143 0.973958,0.55143 1.518229,1.49675 0.544271,0.94531 0.544271,2.04101 0,1.10287 -0.551432,2.0625 -0.544271,0.95964 -1.489584,1.50391 -0.945312,0.53711 -2.083984,0.53711 -1.675782,0 -2.864584,-1.18881 -1.18164,-1.19596 -1.18164,-2.90039 0,-1.82617 1.339192,-3.04362 1.17448,-1.05989 2.69987,-1.05989 z m 0.02865,1.84049 q -0.909505,0 -1.518229,0.63737 -0.601563,0.63021 -0.601563,1.61849 0,1.01693 0.594401,1.64714 0.601563,0.63021 1.51823,0.63021 0.916666,0 1.52539,-0.63737 0.608724,-0.63737 0.608724,-1.63998 0,-1.0026 -0.601562,-1.62565 -0.594401,-0.63021 -1.525391,-0.63021 z"
         style="font-style:normal;font-variant:normal;font-weight:bold;font-stretch:normal;font-size:14.66666698px;font-family:'Century Gothic';-inkscape-font-specification:'Century Gothic, Bold';font-variant-ligatures:normal;font-variant-caps:normal;font-variant-numeric:normal;font-feature-settings:normal;text-align:center;writing-mode:lr-tb;text-anchor:middle;fill:#4c4c4c;fill-opacity:1"
         id="path1120" />
      <path
         d="m 81.050128,265.26211 h 1.96224 v 0.89518 q 0.501302,-0.55143 1.110026,-0.82357 0.615885,-0.27213 1.339193,-0.27213 0.730468,0 1.317708,0.35807 0.58724,0.35807 0.945312,1.04557 0.465495,-0.6875 1.138672,-1.04557 0.680339,-0.35807 1.482422,-0.35807 0.830729,0 1.460938,0.38672 0.630208,0.38672 0.902344,1.00976 0.279296,0.62305 0.279296,2.0267 v 4.56901 h -1.969401 v -3.95313 q 0,-1.32487 -0.329427,-1.79036 -0.329427,-0.47266 -0.988281,-0.47266 -0.501302,0 -0.902344,0.28646 -0.39388,0.28646 -0.587239,0.79492 -0.19336,0.5013 -0.19336,1.61849 v 3.51628 h -1.969401 v -3.77409 q 0,-1.04558 -0.157552,-1.51107 -0.150391,-0.47266 -0.458333,-0.70182 -0.307943,-0.22917 -0.744792,-0.22917 -0.486979,0 -0.888021,0.29362 -0.39388,0.28646 -0.594401,0.80924 -0.193359,0.52279 -0.193359,1.64714 v 3.46615 h -1.96224 z"
         style="font-style:normal;font-variant:normal;font-weight:bold;font-stretch:normal;font-size:14.66666698px;font-family:'Century Gothic';-inkscape-font-specification:'Century Gothic, Bold';font-variant-ligatures:normal;font-variant-caps:normal;font-variant-numeric:normal;font-feature-settings:normal;text-align:center;writing-mode:lr-tb;text-anchor:middle;fill:#4c4c4c;fill-opacity:1"
         id="path1122" />
      <path
         d="m 98.502605,265.06159 q 1.102864,0 2.069665,0.55143 0.97395,0.55143 1.51823,1.49675 0.54427,0.94531 0.54427,2.04101 0,1.10287 -0.55144,2.0625 -0.54427,0.95964 -1.48958,1.50391 -0.945312,0.53711 -2.083984,0.53711 -1.675781,0 -2.864583,-1.18881 -1.181641,-1.19596 -1.181641,-2.90039 0,-1.82617 1.339193,-3.04362 1.174479,-1.05989 2.69987,-1.05989 z m 0.02865,1.84049 q -0.909506,0 -1.51823,0.63737 -0.601562,0.63021 -0.601562,1.61849 0,1.01693 0.594401,1.64714 0.601562,0.63021 1.518229,0.63021 0.916667,0 1.525391,-0.63737 0.60872,-0.63737 0.60872,-1.63998 0,-1.0026 -0.60156,-1.62565 -0.5944,-0.63021 -1.525389,-0.63021 z"
         style="font-style:normal;font-variant:normal;font-weight:bold;font-stretch:normal;font-size:14.66666698px;font-family:'Century Gothic';-inkscape-font-specification:'Century Gothic, Bold';font-variant-ligatures:normal;font-variant-caps:normal;font-variant-numeric:normal;font-feature-settings:normal;text-align:center;writing-mode:lr-tb;text-anchor:middle;fill:#4c4c4c;fill-opacity:1"
         id="path1124" />
      <path
         d="m 112.04493,269.7237 h -6.2806 q 0.13606,0.83073 0.7233,1.32487 0.5944,0.48698 1.51107,0.48698 1.0957,0 1.88346,-0.76628 l 1.64714,0.77344 q -0.61589,0.8737 -1.47526,1.29622 -0.85938,0.41537 -2.04102,0.41537 -1.83333,0 -2.98632,-1.153 -1.153,-1.16015 -1.153,-2.90039 0,-1.7832 1.14583,-2.95768 1.153,-1.18164 2.88607,-1.18164 1.8405,0 2.99349,1.18164 1.153,1.17448 1.153,3.10807 z m -1.96224,-1.53972 q -0.19336,-0.65169 -0.76628,-1.05989 -0.56576,-0.4082 -1.31771,-0.4082 -0.81641,0 -1.43229,0.45833 -0.38672,0.28646 -0.71615,1.00976 z"
         style="font-style:normal;font-variant:normal;font-weight:bold;font-stretch:normal;font-size:14.66666698px;font-family:'Century Gothic';-inkscape-font-specification:'Century Gothic, Bold';font-variant-ligatures:normal;font-variant-caps:normal;font-variant-numeric:normal;font-feature-settings:normal;text-align:center;writing-mode:lr-tb;text-anchor:middle;fill:#4c4c4c;fill-opacity:1"
         id="path1126" />
      <path
         d="m 119.39258,262.2543 h 1.94791 v 10.79948 h -1.94791 v -0.82357 q -0.57292,0.54427 -1.153,0.78776 -0.57292,0.23633 -1.24609,0.23633 -1.51107,0 -2.61393,-1.16732 -1.10287,-1.17448 -1.10287,-2.91471 0,-1.80469 1.06706,-2.95769 1.06706,-1.15299 2.59245,-1.15299 0.70182,0 1.3177,0.26497 0.61589,0.26498 1.13868,0.79492 z m -2.05534,4.61198 q -0.90951,0 -1.51107,0.64453 -0.60156,0.63737 -0.60156,1.63997 0,1.00977 0.60872,1.66146 0.61589,0.65169 1.51107,0.65169 0.92383,0 1.53255,-0.63737 0.60873,-0.64453 0.60873,-1.68294 0,-1.01693 -0.60873,-1.64714 -0.60872,-0.6302 -1.53971,-0.6302 z"
         style="font-style:normal;font-variant:normal;font-weight:bold;font-stretch:normal;font-size:14.66666698px;font-family:'Century Gothic';-inkscape-font-specification:'Century Gothic, Bold';font-variant-ligatures:normal;font-variant-caps:normal;font-variant-numeric:normal;font-feature-settings:normal;text-align:center;writing-mode:lr-tb;text-anchor:middle;fill:#4c4c4c;fill-opacity:1"
         id="path1128" />
      <path
         d="m 129.07487,265.26211 h 1.94792 v 7.79167 h -1.94792 v -0.82357 q -0.57291,0.54427 -1.15299,0.78776 -0.57292,0.23633 -1.2461,0.23633 -1.51106,0 -2.61393,-1.16732 -1.10286,-1.17448 -1.10286,-2.91471 0,-1.80469 1.06705,-2.95769 1.06706,-1.15299 2.59245,-1.15299 0.70183,0 1.31771,0.26497 0.61589,0.26498 1.13867,0.79492 z m -2.05534,1.60417 q -0.9095,0 -1.51106,0.64453 -0.60157,0.63737 -0.60157,1.63997 0,1.00977 0.60873,1.66146 0.61588,0.65169 1.51107,0.65169 0.92382,0 1.53255,-0.63737 0.60872,-0.64453 0.60872,-1.68294 0,-1.01693 -0.60872,-1.64714 -0.60873,-0.6302 -1.53972,-0.6302 z"
         style="font-style:normal;font-variant:normal;font-weight:bold;font-stretch:normal;font-size:14.66666698px;font-family:'Century Gothic';-inkscape-font-specification:'Century Gothic, Bold';font-variant-ligatures:normal;font-variant-caps:normal;font-variant-numeric:normal;font-feature-settings:normal;text-align:center;writing-mode:lr-tb;text-anchor:middle;fill:#4c4c4c;fill-opacity:1"
         id="path1130" />
      <path
         d="m 137.76888,266.35065 -1.21029,1.21029 q -0.73763,-0.73047 -1.33919,-0.73047 -0.32943,0 -0.51562,0.14323 -0.1862,0.13607 -0.1862,0.34375 0,0.15755 0.11458,0.29362 0.12175,0.1289 0.58724,0.35807 l 0.71615,0.35807 q 1.13151,0.5586 1.55403,1.13868 0.42253,0.58007 0.42253,1.36067 0,1.03841 -0.76628,1.73308 -0.75911,0.69466 -2.04101,0.69466 -1.70443,0 -2.72136,-1.33203 l 1.20313,-1.31055 q 0.34375,0.40104 0.80208,0.65169 0.4655,0.24349 0.82357,0.24349 0.38672,0 0.62305,-0.1862 0.23633,-0.18619 0.23633,-0.42968 0,-0.45118 -0.85222,-0.88086 l -0.65885,-0.32943 q -1.89063,-0.95247 -1.89063,-2.38477 0,-0.92382 0.70899,-1.57552 0.71614,-0.65885 1.82617,-0.65885 0.75911,0 1.42513,0.33659 0.67318,0.32942 1.13867,0.95247 z"
         style="font-style:normal;font-variant:normal;font-weight:bold;font-stretch:normal;font-size:14.66666698px;font-family:'Century Gothic';-inkscape-font-specification:'Century Gothic, Bold';font-variant-ligatures:normal;font-variant-caps:normal;font-variant-numeric:normal;font-feature-settings:normal;text-align:center;writing-mode:lr-tb;text-anchor:middle;fill:#4c4c4c;fill-opacity:1"
         id="path1132" />
      <path
         d="m 148.31055,266.35065 -1.21028,1.21029 q -0.73763,-0.73047 -1.3392,-0.73047 -0.32942,0 -0.51562,0.14323 -0.1862,0.13607 -0.1862,0.34375 0,0.15755 0.11458,0.29362 0.12175,0.1289 0.58724,0.35807 l 0.71615,0.35807 q 1.13151,0.5586 1.55404,1.13868 0.42252,0.58007 0.42252,1.36067 0,1.03841 -0.76627,1.73308 -0.75912,0.69466 -2.04102,0.69466 -1.70443,0 -2.72135,-1.33203 l 1.20312,-1.31055 q 0.34375,0.40104 0.80208,0.65169 0.4655,0.24349 0.82357,0.24349 0.38672,0 0.62305,-0.1862 0.23633,-0.18619 0.23633,-0.42968 0,-0.45118 -0.85222,-0.88086 l -0.65885,-0.32943 q -1.89063,-0.95247 -1.89063,-2.38477 0,-0.92382 0.70899,-1.57552 0.71614,-0.65885 1.82617,-0.65885 0.75912,0 1.42513,0.33659 0.67318,0.32942 1.13867,0.95247 z"
         style="font-style:normal;font-variant:normal;font-weight:bold;font-stretch:normal;font-size:14.66666698px;font-family:'Century Gothic';-inkscape-font-specification:'Century Gothic, Bold';font-variant-ligatures:normal;font-variant-caps:normal;font-variant-numeric:normal;font-feature-settings:normal;text-align:center;writing-mode:lr-tb;text-anchor:middle;fill:#4c4c4c;fill-opacity:1"
         id="path1134" />
      <path
         d="m 155.74415,265.26211 h 1.94791 v 7.79167 h -1.94791 v -0.82357 q -0.57292,0.54427 -1.153,0.78776 -0.57292,0.23633 -1.24609,0.23633 -1.51107,0 -2.61393,-1.16732 -1.10287,-1.17448 -1.10287,-2.91471 0,-1.80469 1.06706,-2.95769 1.06706,-1.15299 2.59245,-1.15299 0.70182,0 1.3177,0.26497 0.61589,0.26498 1.13868,0.79492 z m -2.05534,1.60417 q -0.90951,0 -1.51107,0.64453 -0.60156,0.63737 -0.60156,1.63997 0,1.00977 0.60872,1.66146 0.61589,0.65169 1.51107,0.65169 0.92383,0 1.53255,-0.63737 0.60873,-0.64453 0.60873,-1.68294 0,-1.01693 -0.60873,-1.64714 -0.60872,-0.6302 -1.53971,-0.6302 z m -2.04818,-3.05795 -0.78776,-1.18164 q 0.91667,-0.70898 1.85482,-0.70898 0.35091,0 1.20312,0.24349 0.58008,0.15755 0.92383,0.15755 0.60156,0 1.24609,-0.3724 l 0.7448,1.11719 q -0.90235,0.77344 -1.7474,0.77344 -0.45117,0 -1.08138,-0.19336 -0.51562,-0.15039 -0.65169,-0.17904 -0.1862,-0.0286 -0.44401,-0.0286 -0.63021,0 -1.26042,0.37239 z"
         style="font-style:normal;font-variant:normal;font-weight:bold;font-stretch:normal;font-size:14.66666698px;font-family:'Century Gothic';-inkscape-font-specification:'Century Gothic, Bold';font-variant-ligatures:normal;font-variant-caps:normal;font-variant-numeric:normal;font-feature-settings:normal;text-align:center;writing-mode:lr-tb;text-anchor:middle;fill:#4c4c4c;fill-opacity:1"
         id="path1136" />
      <path
         d="m 163.32813,265.06159 q 1.10286,0 2.06966,0.55143 0.97396,0.55143 1.51823,1.49675 0.54427,0.94531 0.54427,2.04101 0,1.10287 -0.55143,2.0625 -0.54427,0.95964 -1.48959,1.50391 -0.94531,0.53711 -2.08398,0.53711 -1.67578,0 -2.86458,-1.18881 -1.18164,-1.19596 -1.18164,-2.90039 0,-1.82617 1.33919,-3.04362 1.17448,-1.05989 2.69987,-1.05989 z m 0.0286,1.84049 q -0.9095,0 -1.51823,0.63737 -0.60156,0.63021 -0.60156,1.61849 0,1.01693 0.5944,1.64714 0.60157,0.63021 1.51823,0.63021 0.91667,0 1.52539,-0.63737 0.60873,-0.63737 0.60873,-1.63998 0,-1.0026 -0.60157,-1.62565 -0.5944,-0.63021 -1.52539,-0.63021 z"
         style="font-style:normal;font-variant:normal;font-weight:bold;font-stretch:normal;font-size:14.66666698px;font-family:'Century Gothic';-inkscape-font-specification:'Century Gothic, Bold';font-variant-ligatures:normal;font-variant-caps:normal;font-variant-numeric:normal;font-feature-settings:normal;text-align:center;writing-mode:lr-tb;text-anchor:middle;fill:#4c4c4c;fill-opacity:1"
         id="path1138" />
      <path
         d="m 173.16081,265.26211 h 1.94792 v 0.79492 q 0.66601,-0.55859 1.20312,-0.77344 0.54427,-0.222 1.11003,-0.222 1.16015,0 1.9694,0.80924 0.68034,0.6875 0.68034,2.03386 v 5.14909 h -1.9336 v -3.41602 q 0,-1.39648 -0.1289,-1.85482 -0.12175,-0.45833 -0.43685,-0.69466 -0.30794,-0.24349 -0.76628,-0.24349 -0.5944,0 -1.02409,0.40104 -0.42252,0.39388 -0.58724,1.09571 -0.0859,0.36523 -0.0859,1.58268 v 3.12956 h -1.94792 z"
         style="font-style:normal;font-variant:normal;font-weight:bold;font-stretch:normal;font-size:14.66666698px;font-family:'Century Gothic';-inkscape-font-specification:'Century Gothic, Bold';font-variant-ligatures:normal;font-variant-caps:normal;font-variant-numeric:normal;font-feature-settings:normal;text-align:center;writing-mode:lr-tb;text-anchor:middle;fill:#4c4c4c;fill-opacity:1"
         id="path1140" />
      <path
         d="m 185.61458,265.06159 q 1.10287,0 2.06966,0.55143 0.97396,0.55143 1.51823,1.49675 0.54427,0.94531 0.54427,2.04101 0,1.10287 -0.55143,2.0625 -0.54427,0.95964 -1.48958,1.50391 -0.94532,0.53711 -2.08399,0.53711 -1.67578,0 -2.86458,-1.18881 -1.18164,-1.19596 -1.18164,-2.90039 0,-1.82617 1.33919,-3.04362 1.17448,-1.05989 2.69987,-1.05989 z m 0.0286,1.84049 q -0.90951,0 -1.51823,0.63737 -0.60156,0.63021 -0.60156,1.61849 0,1.01693 0.5944,1.64714 0.60156,0.63021 1.51823,0.63021 0.91666,0 1.52539,-0.63737 0.60872,-0.63737 0.60872,-1.63998 0,-1.0026 -0.60156,-1.62565 -0.5944,-0.63021 -1.52539,-0.63021 z"
         style="font-style:normal;font-variant:normal;font-weight:bold;font-stretch:normal;font-size:14.66666698px;font-family:'Century Gothic';-inkscape-font-specification:'Century Gothic, Bold';font-variant-ligatures:normal;font-variant-caps:normal;font-variant-numeric:normal;font-feature-settings:normal;text-align:center;writing-mode:lr-tb;text-anchor:middle;fill:#4c4c4c;fill-opacity:1"
         id="path1142" />
      <path
         d="m 198.97787,266.83763 -1.62565,0.89518 q -0.45833,-0.47982 -0.9095,-0.66601 -0.44401,-0.1862 -1.04558,-0.1862 -1.0957,0 -1.77604,0.65885 -0.67318,0.6517 -0.67318,1.67578 0,0.99545 0.6517,1.62566 0.65169,0.6302 1.71159,0.6302 1.31054,0 2.04101,-0.89518 l 1.53972,1.05274 q -1.25326,1.62565 -3.53777,1.62565 -2.05533,0 -3.22265,-1.21745 -1.16016,-1.21745 -1.16016,-2.85026 0,-1.13151 0.56576,-2.08399 0.56575,-0.95247 1.57552,-1.49674 1.01693,-0.54427 2.27018,-0.54427 1.16016,0 2.08399,0.46549 0.92382,0.45834 1.51106,1.31055 z"
         style="font-style:normal;font-variant:normal;font-weight:bold;font-stretch:normal;font-size:14.66666698px;font-family:'Century Gothic';-inkscape-font-specification:'Century Gothic, Bold';font-variant-ligatures:normal;font-variant-caps:normal;font-variant-numeric:normal;font-feature-settings:normal;text-align:center;writing-mode:lr-tb;text-anchor:middle;fill:#4c4c4c;fill-opacity:1"
         id="path1144" />
      <path
         d="m 201.51302,262.05378 q 0.51563,0 0.88086,0.37239 0.3724,0.3724 0.3724,0.90235 0,0.52278 -0.36524,0.89518 -0.36523,0.36523 -0.87369,0.36523 -0.52279,0 -0.89519,-0.37239 -0.36523,-0.37956 -0.36523,-0.91667 0,-0.51563 0.36523,-0.88086 0.36524,-0.36523 0.88086,-0.36523 z m -0.98112,3.20833 h 1.96224 v 7.79167 h -1.96224 z"
         style="font-style:normal;font-variant:normal;font-weight:bold;font-stretch:normal;font-size:14.66666698px;font-family:'Century Gothic';-inkscape-font-specification:'Century Gothic, Bold';font-variant-ligatures:normal;font-variant-caps:normal;font-variant-numeric:normal;font-feature-settings:normal;text-align:center;writing-mode:lr-tb;text-anchor:middle;fill:#4c4c4c;fill-opacity:1"
         id="path1146" />
      <path
         d="m 203.43229,265.26211 h 1.99089 l 1.9694,4.59766 1.96224,-4.59766 h 1.98372 l -3.31575,7.79167 h -1.26758 z"
         style="font-style:normal;font-variant:normal;font-weight:bold;font-stretch:normal;font-size:14.66666698px;font-family:'Century Gothic';-inkscape-font-specification:'Century Gothic, Bold';font-variant-ligatures:normal;font-variant-caps:normal;font-variant-numeric:normal;font-feature-settings:normal;text-align:center;writing-mode:lr-tb;text-anchor:middle;fill:#4c4c4c;fill-opacity:1"
         id="path1148" />
      <path
         d="m 218.24936,265.26211 h 1.94791 v 7.79167 h -1.94791 v -0.82357 q -0.57292,0.54427 -1.153,0.78776 -0.57291,0.23633 -1.24609,0.23633 -1.51107,0 -2.61393,-1.16732 -1.10287,-1.17448 -1.10287,-2.91471 0,-1.80469 1.06706,-2.95769 1.06706,-1.15299 2.59245,-1.15299 0.70182,0 1.31771,0.26497 0.61588,0.26498 1.13867,0.79492 z m -2.05534,1.60417 q -0.90951,0 -1.51107,0.64453 -0.60156,0.63737 -0.60156,1.63997 0,1.00977 0.60872,1.66146 0.61589,0.65169 1.51107,0.65169 0.92383,0 1.53255,-0.63737 0.60873,-0.64453 0.60873,-1.68294 0,-1.01693 -0.60873,-1.64714 -0.60872,-0.6302 -1.53971,-0.6302 z"
         style="font-style:normal;font-variant:normal;font-weight:bold;font-stretch:normal;font-size:14.66666698px;font-family:'Century Gothic';-inkscape-font-specification:'Century Gothic, Bold';font-variant-ligatures:normal;font-variant-caps:normal;font-variant-numeric:normal;font-feature-settings:normal;text-align:center;writing-mode:lr-tb;text-anchor:middle;fill:#4c4c4c;fill-opacity:1"
         id="path1150" />
      <path
         d="m 226.94337,266.35065 -1.21028,1.21029 q -0.73763,-0.73047 -1.3392,-0.73047 -0.32942,0 -0.51562,0.14323 -0.1862,0.13607 -0.1862,0.34375 0,0.15755 0.11458,0.29362 0.12175,0.1289 0.58724,0.35807 l 0.71615,0.35807 q 1.13151,0.5586 1.55404,1.13868 0.42252,0.58007 0.42252,1.36067 0,1.03841 -0.76627,1.73308 -0.75912,0.69466 -2.04102,0.69466 -1.70443,0 -2.72135,-1.33203 l 1.20312,-1.31055 q 0.34375,0.40104 0.80208,0.65169 0.4655,0.24349 0.82357,0.24349 0.38672,0 0.62305,-0.1862 0.23633,-0.18619 0.23633,-0.42968 0,-0.45118 -0.85222,-0.88086 l -0.65885,-0.32943 q -1.89063,-0.95247 -1.89063,-2.38477 0,-0.92382 0.70899,-1.57552 0.71614,-0.65885 1.82617,-0.65885 0.75912,0 1.42513,0.33659 0.67318,0.32942 1.13867,0.95247 z"
         style="font-style:normal;font-variant:normal;font-weight:bold;font-stretch:normal;font-size:14.66666698px;font-family:'Century Gothic';-inkscape-font-specification:'Century Gothic, Bold';font-variant-ligatures:normal;font-variant-caps:normal;font-variant-numeric:normal;font-feature-settings:normal;text-align:center;writing-mode:lr-tb;text-anchor:middle;fill:#4c4c4c;fill-opacity:1"
         id="path1152" />
      <path
         d="m 66.12565,283.59545 h 1.947916 v 7.79167 H 66.12565 v -0.82357 q -0.572917,0.54427 -1.152995,0.78776 -0.572917,0.23633 -1.246094,0.23633 -1.511068,0 -2.613932,-1.16732 -1.102865,-1.17448 -1.102865,-2.91471 0,-1.80469 1.067057,-2.95768 1.067058,-1.153 2.592448,-1.153 0.701823,0 1.317709,0.26498 0.615885,0.26497 1.138672,0.79492 z m -2.055339,1.60417 q -0.909505,0 -1.511068,0.64453 -0.601562,0.63737 -0.601562,1.63997 0,1.00977 0.608724,1.66146 0.615885,0.6517 1.511067,0.6517 0.923829,0 1.532553,-0.63737 0.608724,-0.64454 0.608724,-1.68295 0,-1.01692 -0.608724,-1.64713 -0.608724,-0.63021 -1.539714,-0.63021 z"
         style="font-style:normal;font-variant:normal;font-weight:bold;font-stretch:normal;font-size:14.66666698px;font-family:'Century Gothic';-inkscape-font-specification:'Century Gothic, Bold';font-variant-ligatures:normal;font-variant-caps:normal;font-variant-numeric:normal;font-feature-settings:normal;text-align:center;writing-mode:lr-tb;text-anchor:middle;fill:#4c4c4c;fill-opacity:1"
         id="path1154" />
      <path
         d="m 73.709634,283.39493 q 1.102865,0 2.069662,0.55143 0.973958,0.55144 1.518229,1.49675 0.544271,0.94531 0.544271,2.04101 0,1.10287 -0.551433,2.0625 -0.54427,0.95964 -1.489583,1.50391 -0.945312,0.53711 -2.083984,0.53711 -1.675782,0 -2.864584,-1.1888 -1.18164,-1.19597 -1.18164,-2.90039 0,-1.82617 1.339192,-3.04362 1.17448,-1.0599 2.69987,-1.0599 z m 0.02865,1.8405 q -0.909505,0 -1.518229,0.63737 -0.601563,0.6302 -0.601563,1.61849 0,1.01692 0.594401,1.64713 0.601563,0.63021 1.51823,0.63021 0.916666,0 1.52539,-0.63737 0.608724,-0.63737 0.608724,-1.63997 0,-1.00261 -0.601562,-1.62566 -0.594401,-0.6302 -1.525391,-0.6302 z"
         style="font-style:normal;font-variant:normal;font-weight:bold;font-stretch:normal;font-size:14.66666698px;font-family:'Century Gothic';-inkscape-font-specification:'Century Gothic, Bold';font-variant-ligatures:normal;font-variant-caps:normal;font-variant-numeric:normal;font-feature-settings:normal;text-align:center;writing-mode:lr-tb;text-anchor:middle;fill:#4c4c4c;fill-opacity:1"
         id="path1156" />
      <path
         d="m 88.311849,284.68399 -1.210287,1.21029 q -0.73763,-0.73047 -1.339192,-0.73047 -0.329428,0 -0.515625,0.14323 -0.186198,0.13607 -0.186198,0.34375 0,0.15755 0.114583,0.29362 0.121745,0.12891 0.58724,0.35807 l 0.716145,0.35808 q 1.131511,0.55859 1.554037,1.13867 0.422526,0.58008 0.422526,1.36068 0,1.03841 -0.766276,1.73307 -0.759115,0.69466 -2.041016,0.69466 -1.704427,0 -2.721354,-1.33203 l 1.203125,-1.31055 q 0.34375,0.40104 0.802083,0.65169 0.465495,0.24349 0.823568,0.24349 0.386719,0 0.623047,-0.18619 0.236328,-0.1862 0.236328,-0.42969 0,-0.45117 -0.852213,-0.88086 l -0.658855,-0.32943 q -1.890625,-0.95247 -1.890625,-2.38476 0,-0.92383 0.708985,-1.57552 0.716146,-0.65886 1.826172,-0.65886 0.759114,0 1.42513,0.33659 0.673177,0.32943 1.138672,0.95247 z"
         style="font-style:normal;font-variant:normal;font-weight:bold;font-stretch:normal;font-size:14.66666698px;font-family:'Century Gothic';-inkscape-font-specification:'Century Gothic, Bold';font-variant-ligatures:normal;font-variant-caps:normal;font-variant-numeric:normal;font-feature-settings:normal;text-align:center;writing-mode:lr-tb;text-anchor:middle;fill:#4c4c4c;fill-opacity:1"
         id="path1158" />
      <path
         d="m 90.753906,280.38712 q 0.515625,0 0.880859,0.3724 0.372396,0.37239 0.372396,0.90234 0,0.52279 -0.365234,0.89518 -0.365235,0.36524 -0.873698,0.36524 -0.522787,0 -0.895182,-0.3724 -0.365235,-0.37956 -0.365235,-0.91667 0,-0.51562 0.365235,-0.88086 0.365234,-0.36523 0.880859,-0.36523 z m -0.98112,3.20833 h 1.96224 v 7.79167 h -1.96224 z"
         style="font-style:normal;font-variant:normal;font-weight:bold;font-stretch:normal;font-size:14.66666698px;font-family:'Century Gothic';-inkscape-font-specification:'Century Gothic, Bold';font-variant-ligatures:normal;font-variant-caps:normal;font-variant-numeric:normal;font-feature-settings:normal;text-align:center;writing-mode:lr-tb;text-anchor:middle;fill:#4c4c4c;fill-opacity:1"
         id="path1160" />
      <path
         d="m 98.280599,284.68399 -1.210287,1.21029 q -0.73763,-0.73047 -1.339192,-0.73047 -0.329428,0 -0.515625,0.14323 -0.186198,0.13607 -0.186198,0.34375 0,0.15755 0.114583,0.29362 0.121745,0.12891 0.58724,0.35807 l 0.716145,0.35808 q 1.131511,0.55859 1.554037,1.13867 0.422526,0.58008 0.422526,1.36068 0,1.03841 -0.766276,1.73307 -0.759115,0.69466 -2.041016,0.69466 -1.704427,0 -2.721354,-1.33203 l 1.203125,-1.31055 q 0.34375,0.40104 0.802083,0.65169 0.465495,0.24349 0.823568,0.24349 0.386719,0 0.623047,-0.18619 0.236328,-0.1862 0.236328,-0.42969 0,-0.45117 -0.852213,-0.88086 l -0.658855,-0.32943 q -1.890625,-0.95247 -1.890625,-2.38476 0,-0.92383 0.708985,-1.57552 0.716146,-0.65886 1.826172,-0.65886 0.759114,0 1.42513,0.33659 0.673177,0.32943 1.138672,0.95247 z"
         style="font-style:normal;font-variant:normal;font-weight:bold;font-stretch:normal;font-size:14.66666698px;font-family:'Century Gothic';-inkscape-font-specification:'Century Gothic, Bold';font-variant-ligatures:normal;font-variant-caps:normal;font-variant-numeric:normal;font-feature-settings:normal;text-align:center;writing-mode:lr-tb;text-anchor:middle;fill:#4c4c4c;fill-opacity:1"
         id="path1162" />
      <path
         d="m 100.19271,280.72371 h 1.94791 v 2.87174 h 1.16016 v 1.68295 h -1.16016 v 6.10872 h -1.94791 v -6.10872 h -1.002606 v -1.68295 h 1.002606 z"
         style="font-style:normal;font-variant:normal;font-weight:bold;font-stretch:normal;font-size:14.66666698px;font-family:'Century Gothic';-inkscape-font-specification:'Century Gothic, Bold';font-variant-ligatures:normal;font-variant-caps:normal;font-variant-numeric:normal;font-feature-settings:normal;text-align:center;writing-mode:lr-tb;text-anchor:middle;fill:#4c4c4c;fill-opacity:1"
         id="path1164" />
      <path
         d="m 112.17383,288.05704 h -6.2806 q 0.13607,0.83073 0.7233,1.32487 0.59441,0.48698 1.51107,0.48698 1.09571,0 1.88347,-0.76628 l 1.64713,0.77344 q -0.61588,0.8737 -1.47526,1.29623 -0.85937,0.41536 -2.04101,0.41536 -1.83334,0 -2.98633,-1.15299 -1.153,-1.16016 -1.153,-2.9004 0,-1.7832 1.14584,-2.95768 1.15299,-1.18164 2.88606,-1.18164 1.8405,0 2.99349,1.18164 1.153,1.17448 1.153,3.10808 z m -1.96224,-1.53971 q -0.19336,-0.6517 -0.76628,-1.0599 -0.56575,-0.4082 -1.31771,-0.4082 -0.8164,0 -1.43229,0.45833 -0.38672,0.28646 -0.71614,1.00977 z"
         style="font-style:normal;font-variant:normal;font-weight:bold;font-stretch:normal;font-size:14.66666698px;font-family:'Century Gothic';-inkscape-font-specification:'Century Gothic, Bold';font-variant-ligatures:normal;font-variant-caps:normal;font-variant-numeric:normal;font-feature-settings:normal;text-align:center;writing-mode:lr-tb;text-anchor:middle;fill:#4c4c4c;fill-opacity:1"
         id="path1166" />
      <path
         d="m 113.74935,283.59545 h 1.96224 v 0.89518 q 0.5013,-0.55143 1.11003,-0.82356 0.61588,-0.27214 1.33919,-0.27214 0.73047,0 1.31771,0.35807 0.58724,0.35808 0.94531,1.04558 0.46549,-0.6875 1.13867,-1.04558 0.68034,-0.35807 1.48242,-0.35807 0.83073,0 1.46094,0.38672 0.63021,0.38672 0.90234,1.00977 0.2793,0.62304 0.2793,2.02669 v 4.56901 h -1.9694 v -3.95313 q 0,-1.32487 -0.32943,-1.79036 -0.32942,-0.47266 -0.98828,-0.47266 -0.5013,0 -0.90234,0.28646 -0.39388,0.28646 -0.58724,0.79492 -0.19336,0.50131 -0.19336,1.61849 v 3.51628 h -1.9694 v -3.77409 q 0,-1.04557 -0.15755,-1.51107 -0.15039,-0.47265 -0.45834,-0.70182 -0.30794,-0.22917 -0.74479,-0.22917 -0.48698,0 -0.88802,0.29362 -0.39388,0.28646 -0.5944,0.80925 -0.19336,0.52278 -0.19336,1.64713 v 3.46615 h -1.96224 z"
         style="font-style:normal;font-variant:normal;font-weight:bold;font-stretch:normal;font-size:14.66666698px;font-family:'Century Gothic';-inkscape-font-specification:'Century Gothic, Bold';font-variant-ligatures:normal;font-variant-caps:normal;font-variant-numeric:normal;font-feature-settings:normal;text-align:center;writing-mode:lr-tb;text-anchor:middle;fill:#4c4c4c;fill-opacity:1"
         id="path1168" />
      <path
         d="m 133.30013,283.59545 h 1.94792 v 7.79167 h -1.94792 v -0.82357 q -0.57291,0.54427 -1.15299,0.78776 -0.57292,0.23633 -1.24609,0.23633 -1.51107,0 -2.61394,-1.16732 -1.10286,-1.17448 -1.10286,-2.91471 0,-1.80469 1.06706,-2.95768 1.06705,-1.153 2.59244,-1.153 0.70183,0 1.31771,0.26498 0.61589,0.26497 1.13867,0.79492 z m -2.05533,1.60417 q -0.90951,0 -1.51107,0.64453 -0.60156,0.63737 -0.60156,1.63997 0,1.00977 0.60872,1.66146 0.61588,0.6517 1.51107,0.6517 0.92382,0 1.53255,-0.63737 0.60872,-0.64454 0.60872,-1.68295 0,-1.01692 -0.60872,-1.64713 -0.60873,-0.63021 -1.53971,-0.63021 z"
         style="font-style:normal;font-variant:normal;font-weight:bold;font-stretch:normal;font-size:14.66666698px;font-family:'Century Gothic';-inkscape-font-specification:'Century Gothic, Bold';font-variant-ligatures:normal;font-variant-caps:normal;font-variant-numeric:normal;font-feature-settings:normal;text-align:center;writing-mode:lr-tb;text-anchor:middle;fill:#4c4c4c;fill-opacity:1"
         id="path1170" />
      <path
         d="m 143.26172,280.58764 v 3.86719 q 0.52995,-0.52995 1.14583,-0.79492 0.61589,-0.26498 1.31771,-0.26498 1.52539,0 2.59245,1.153 1.06705,1.15299 1.06705,2.95768 0,1.74023 -1.10286,2.91471 -1.10286,1.16732 -2.61393,1.16732 -0.67318,0 -1.25326,-0.23633 -0.58008,-0.24349 -1.15299,-0.78776 v 0.82357 h -1.94076 v -10.79948 z m 2.05534,4.61198 q -0.92383,0 -1.53256,0.63021 -0.60872,0.63021 -0.60872,1.64713 0,1.03841 0.60872,1.68295 0.60873,0.63737 1.53256,0.63737 0.89518,0 1.5039,-0.6517 0.61589,-0.65169 0.61589,-1.66146 0,-1.0026 -0.60156,-1.63997 -0.60157,-0.64453 -1.51823,-0.64453 z"
         style="font-style:normal;font-variant:normal;font-weight:bold;font-stretch:normal;font-size:14.66666698px;font-family:'Century Gothic';-inkscape-font-specification:'Century Gothic, Bold';font-variant-ligatures:normal;font-variant-caps:normal;font-variant-numeric:normal;font-feature-settings:normal;text-align:center;writing-mode:lr-tb;text-anchor:middle;fill:#4c4c4c;fill-opacity:1"
         id="path1172" />
      <path
         d="m 156.76107,283.59545 h 1.94792 v 7.79167 h -1.94792 v -0.82357 q -0.57292,0.54427 -1.15299,0.78776 -0.57292,0.23633 -1.2461,0.23633 -1.51106,0 -2.61393,-1.16732 -1.10286,-1.17448 -1.10286,-2.91471 0,-1.80469 1.06705,-2.95768 1.06706,-1.153 2.59245,-1.153 0.70182,0 1.31771,0.26498 0.61588,0.26497 1.13867,0.79492 z m -2.05534,1.60417 q -0.9095,0 -1.51106,0.64453 -0.60157,0.63737 -0.60157,1.63997 0,1.00977 0.60873,1.66146 0.61588,0.6517 1.51106,0.6517 0.92383,0 1.53256,-0.63737 0.60872,-0.64454 0.60872,-1.68295 0,-1.01692 -0.60872,-1.64713 -0.60873,-0.63021 -1.53972,-0.63021 z"
         style="font-style:normal;font-variant:normal;font-weight:bold;font-stretch:normal;font-size:14.66666698px;font-family:'Century Gothic';-inkscape-font-specification:'Century Gothic, Bold';font-variant-ligatures:normal;font-variant-caps:normal;font-variant-numeric:normal;font-feature-settings:normal;text-align:center;writing-mode:lr-tb;text-anchor:middle;fill:#4c4c4c;fill-opacity:1"
         id="path1174" />
      <path
         d="m 160.68555,283.59545 h 1.94791 v 0.79492 q 0.66602,-0.55859 1.20313,-0.77343 0.54427,-0.22201 1.11003,-0.22201 1.16015,0 1.9694,0.80925 0.68034,0.6875 0.68034,2.03385 v 5.14909 h -1.9336 v -3.41602 q 0,-1.39648 -0.1289,-1.85481 -0.12175,-0.45834 -0.43685,-0.69467 -0.30795,-0.24349 -0.76628,-0.24349 -0.5944,0 -1.02409,0.40105 -0.42252,0.39388 -0.58724,1.0957 -0.0859,0.36523 -0.0859,1.58268 v 3.12956 h -1.94791 z"
         style="font-style:normal;font-variant:normal;font-weight:bold;font-stretch:normal;font-size:14.66666698px;font-family:'Century Gothic';-inkscape-font-specification:'Century Gothic, Bold';font-variant-ligatures:normal;font-variant-caps:normal;font-variant-numeric:normal;font-feature-settings:normal;text-align:center;writing-mode:lr-tb;text-anchor:middle;fill:#4c4c4c;fill-opacity:1"
         id="path1176" />
      <path
         d="m 177.10677,285.17097 -1.62565,0.89519 q -0.45833,-0.47982 -0.9095,-0.66602 -0.44401,-0.1862 -1.04557,-0.1862 -1.09571,0 -1.77605,0.65886 -0.67317,0.65169 -0.67317,1.67578 0,0.99544 0.65169,1.62565 0.65169,0.63021 1.71159,0.63021 1.31054,0 2.04101,-0.89519 l 1.53972,1.05274 q -1.25326,1.62565 -3.53776,1.62565 -2.05534,0 -3.22266,-1.21745 -1.16016,-1.21745 -1.16016,-2.85026 0,-1.13151 0.56576,-2.08398 0.56575,-0.95248 1.57552,-1.49675 1.01693,-0.54427 2.27018,-0.54427 1.16016,0 2.08399,0.4655 0.92382,0.45833 1.51106,1.31054 z"
         style="font-style:normal;font-variant:normal;font-weight:bold;font-stretch:normal;font-size:14.66666698px;font-family:'Century Gothic';-inkscape-font-specification:'Century Gothic, Bold';font-variant-ligatures:normal;font-variant-caps:normal;font-variant-numeric:normal;font-feature-settings:normal;text-align:center;writing-mode:lr-tb;text-anchor:middle;fill:#4c4c4c;fill-opacity:1"
         id="path1178" />
      <path
         d="m 184.63347,283.59545 h 1.94792 v 7.79167 h -1.94792 v -0.82357 q -0.57292,0.54427 -1.153,0.78776 -0.57291,0.23633 -1.24609,0.23633 -1.51107,0 -2.61393,-1.16732 -1.10287,-1.17448 -1.10287,-2.91471 0,-1.80469 1.06706,-2.95768 1.06706,-1.153 2.59245,-1.153 0.70182,0 1.31771,0.26498 0.61588,0.26497 1.13867,0.79492 z m -2.05534,1.60417 q -0.9095,0 -1.51107,0.64453 -0.60156,0.63737 -0.60156,1.63997 0,1.00977 0.60872,1.66146 0.61589,0.6517 1.51107,0.6517 0.92383,0 1.53255,-0.63737 0.60873,-0.64454 0.60873,-1.68295 0,-1.01692 -0.60873,-1.64713 -0.60872,-0.63021 -1.53971,-0.63021 z m 0.49414,-5.83659 h 2.31315 l -2.62109,2.80729 h -1.40365 z"
         style="font-style:normal;font-variant:normal;font-weight:bold;font-stretch:normal;font-size:14.66666698px;font-family:'Century Gothic';-inkscape-font-specification:'Century Gothic, Bold';font-variant-ligatures:normal;font-variant-caps:normal;font-variant-numeric:normal;font-feature-settings:normal;text-align:center;writing-mode:lr-tb;text-anchor:middle;fill:#4c4c4c;fill-opacity:1"
         id="path1180" />
      <path
         d="m 188.09961,283.59545 h 1.67578 v 0.98112 q 0.27214,-0.58008 0.72331,-0.88086 0.45117,-0.30078 0.98828,-0.30078 0.37956,0 0.79492,0.20052 l -0.60872,1.68295 q -0.34375,-0.17188 -0.56575,-0.17188 -0.45118,0 -0.76628,0.55859 -0.30794,0.5586 -0.30794,2.19141 l 0.007,0.37956 v 3.15104 h -1.94076 z"
         style="font-style:normal;font-variant:normal;font-weight:bold;font-stretch:normal;font-size:14.66666698px;font-family:'Century Gothic';-inkscape-font-specification:'Century Gothic, Bold';font-variant-ligatures:normal;font-variant-caps:normal;font-variant-numeric:normal;font-feature-settings:normal;text-align:center;writing-mode:lr-tb;text-anchor:middle;fill:#4c4c4c;fill-opacity:1"
         id="path1182" />
      <path
         d="m 194.02214,280.38712 q 0.51563,0 0.88086,0.3724 0.3724,0.37239 0.3724,0.90234 0,0.52279 -0.36524,0.89518 -0.36523,0.36524 -0.87369,0.36524 -0.52279,0 -0.89519,-0.3724 -0.36523,-0.37956 -0.36523,-0.91667 0,-0.51562 0.36523,-0.88086 0.36524,-0.36523 0.88086,-0.36523 z m -0.98112,3.20833 h 1.96224 v 7.79167 h -1.96224 z"
         style="font-style:normal;font-variant:normal;font-weight:bold;font-stretch:normal;font-size:14.66666698px;font-family:'Century Gothic';-inkscape-font-specification:'Century Gothic, Bold';font-variant-ligatures:normal;font-variant-caps:normal;font-variant-numeric:normal;font-feature-settings:normal;text-align:center;writing-mode:lr-tb;text-anchor:middle;fill:#4c4c4c;fill-opacity:1"
         id="path1184" />
      <path
         d="m 200.43881,283.39493 q 1.10287,0 2.06966,0.55143 0.97396,0.55144 1.51823,1.49675 0.54427,0.94531 0.54427,2.04101 0,1.10287 -0.55143,2.0625 -0.54427,0.95964 -1.48958,1.50391 -0.94532,0.53711 -2.08399,0.53711 -1.67578,0 -2.86458,-1.1888 -1.18164,-1.19597 -1.18164,-2.90039 0,-1.82617 1.33919,-3.04362 1.17448,-1.0599 2.69987,-1.0599 z m 0.0286,1.8405 q -0.90951,0 -1.51823,0.63737 -0.60157,0.6302 -0.60157,1.61849 0,1.01692 0.59441,1.64713 0.60156,0.63021 1.51823,0.63021 0.91666,0 1.52539,-0.63737 0.60872,-0.63737 0.60872,-1.63997 0,-1.00261 -0.60156,-1.62566 -0.5944,-0.6302 -1.52539,-0.6302 z"
         style="font-style:normal;font-variant:normal;font-weight:bold;font-stretch:normal;font-size:14.66666698px;font-family:'Century Gothic';-inkscape-font-specification:'Century Gothic, Bold';font-variant-ligatures:normal;font-variant-caps:normal;font-variant-numeric:normal;font-feature-settings:normal;text-align:center;writing-mode:lr-tb;text-anchor:middle;fill:#4c4c4c;fill-opacity:1"
         id="path1186" />
      <path
         d="m 77.254556,306.39038 h -6.280599 q 0.136068,0.83073 0.723307,1.32487 0.594401,0.48698 1.511068,0.48698 1.095703,0 1.883464,-0.76627 l 1.647135,0.77344 q -0.615885,0.87369 -1.47526,1.29622 -0.859375,0.41536 -2.041016,0.41536 -1.833333,0 -2.986328,-1.15299 -1.152995,-1.16016 -1.152995,-2.90039 0,-1.7832 1.145833,-2.95768 1.152995,-1.18164 2.886068,-1.18164 1.840495,0 2.99349,1.18164 1.152995,1.17448 1.152995,3.10807 z m -1.96224,-1.53971 q -0.193359,-0.65169 -0.766276,-1.05989 -0.565755,-0.40821 -1.317708,-0.40821 -0.816406,0 -1.432292,0.45834 -0.386718,0.28645 -0.716145,1.00976 z"
         style="font-style:normal;font-variant:normal;font-weight:bold;font-stretch:normal;font-size:14.66666698px;font-family:'Century Gothic';-inkscape-font-specification:'Century Gothic, Bold';font-variant-ligatures:normal;font-variant-caps:normal;font-variant-numeric:normal;font-feature-settings:normal;text-align:center;writing-mode:lr-tb;text-anchor:middle;fill:#4c4c4c;fill-opacity:1"
         id="path1188" />
      <path
         d="m 84.88151,301.9288 v 0.85937 q 0.529948,-0.52995 1.145833,-0.79492 0.615886,-0.26497 1.317709,-0.26497 1.52539,0 2.592448,1.15299 1.067057,1.15299 1.067057,2.95768 0,1.74024 -1.102865,2.91472 -1.102864,1.16731 -2.613932,1.16731 -0.673177,0 -1.253255,-0.23632 -0.580078,-0.24349 -1.152995,-0.78776 v 3.67382 H 82.940755 V 301.9288 Z m 2.055339,1.60416 q -0.923829,0 -1.532552,0.63021 -0.608724,0.63021 -0.608724,1.64714 0,1.03841 0.608724,1.68294 0.608723,0.63737 1.532552,0.63737 0.895182,0 1.503906,-0.65169 0.615885,-0.6517 0.615885,-1.66146 0,-1.00261 -0.601562,-1.63998 -0.601563,-0.64453 -1.518229,-0.64453 z"
         style="font-style:normal;font-variant:normal;font-weight:bold;font-stretch:normal;font-size:14.66666698px;font-family:'Century Gothic';-inkscape-font-specification:'Century Gothic, Bold';font-variant-ligatures:normal;font-variant-caps:normal;font-variant-numeric:normal;font-feature-settings:normal;text-align:center;writing-mode:lr-tb;text-anchor:middle;fill:#4c4c4c;fill-opacity:1"
         id="path1190" />
      <path
         d="m 96.282552,301.72828 q 1.102865,0 2.069662,0.55143 0.973958,0.55143 1.518229,1.49674 0.544267,0.94531 0.544267,2.04102 0,1.10286 -0.551429,2.0625 -0.544271,0.95963 -1.489583,1.5039 -0.945313,0.53711 -2.083984,0.53711 -1.675782,0 -2.864584,-1.1888 -1.181641,-1.19596 -1.181641,-2.90039 0,-1.82617 1.339193,-3.04362 1.174479,-1.05989 2.69987,-1.05989 z m 0.02865,1.84049 q -0.909505,0 -1.518229,0.63737 -0.601563,0.63021 -0.601563,1.61849 0,1.01693 0.594401,1.64713 0.601563,0.63021 1.518229,0.63021 0.916667,0 1.525391,-0.63737 0.608724,-0.63737 0.608724,-1.63997 0,-1.0026 -0.601562,-1.62565 -0.594401,-0.63021 -1.525391,-0.63021 z"
         style="font-style:normal;font-variant:normal;font-weight:bold;font-stretch:normal;font-size:14.66666698px;font-family:'Century Gothic';-inkscape-font-specification:'Century Gothic, Bold';font-variant-ligatures:normal;font-variant-caps:normal;font-variant-numeric:normal;font-feature-settings:normal;text-align:center;writing-mode:lr-tb;text-anchor:middle;fill:#4c4c4c;fill-opacity:1"
         id="path1192" />
      <path
         d="m 107.77669,298.92098 h 1.94792 v 10.79948 h -1.94792 v -0.82356 q -0.57292,0.54427 -1.15299,0.78776 -0.57292,0.23632 -1.2461,0.23632 -1.51106,0 -2.61393,-1.16731 -1.10286,-1.17448 -1.10286,-2.91472 0,-1.80469 1.06705,-2.95768 1.06706,-1.15299 2.59245,-1.15299 0.70182,0 1.31771,0.26497 0.61589,0.26497 1.13867,0.79492 z m -2.05534,4.61198 q -0.9095,0 -1.51106,0.64453 -0.60157,0.63737 -0.60157,1.63998 0,1.00976 0.60873,1.66146 0.61588,0.65169 1.51106,0.65169 0.92383,0 1.53256,-0.63737 0.60872,-0.64453 0.60872,-1.68294 0,-1.01693 -0.60872,-1.64714 -0.60873,-0.63021 -1.53972,-0.63021 z"
         style="font-style:normal;font-variant:normal;font-weight:bold;font-stretch:normal;font-size:14.66666698px;font-family:'Century Gothic';-inkscape-font-specification:'Century Gothic, Bold';font-variant-ligatures:normal;font-variant-caps:normal;font-variant-numeric:normal;font-feature-settings:normal;text-align:center;writing-mode:lr-tb;text-anchor:middle;fill:#4c4c4c;fill-opacity:1"
         id="path1194" />
      <path
         d="m 119.50716,306.39038 h -6.2806 q 0.13607,0.83073 0.72331,1.32487 0.5944,0.48698 1.51107,0.48698 1.0957,0 1.88346,-0.76627 l 1.64714,0.77344 q -0.61589,0.87369 -1.47526,1.29622 -0.85938,0.41536 -2.04102,0.41536 -1.83333,0 -2.98633,-1.15299 -1.15299,-1.16016 -1.15299,-2.90039 0,-1.7832 1.14583,-2.95768 1.153,-1.18164 2.88607,-1.18164 1.84049,0 2.99349,1.18164 1.15299,1.17448 1.15299,3.10807 z m -1.96224,-1.53971 q -0.19336,-0.65169 -0.76627,-1.05989 -0.56576,-0.40821 -1.31771,-0.40821 -0.81641,0 -1.43229,0.45834 -0.38672,0.28645 -0.71615,1.00976 z"
         style="font-style:normal;font-variant:normal;font-weight:bold;font-stretch:normal;font-size:14.66666698px;font-family:'Century Gothic';-inkscape-font-specification:'Century Gothic, Bold';font-variant-ligatures:normal;font-variant-caps:normal;font-variant-numeric:normal;font-feature-settings:normal;text-align:center;writing-mode:lr-tb;text-anchor:middle;fill:#4c4c4c;fill-opacity:1"
         id="path1196" />
      <path
         d="m 121.08268,301.9288 h 1.96224 v 0.89518 q 0.50131,-0.55143 1.11003,-0.82357 0.61589,-0.27213 1.33919,-0.27213 0.73047,0 1.31771,0.35807 0.58724,0.35807 0.94531,1.04557 0.4655,-0.6875 1.13868,-1.04557 0.68033,-0.35807 1.48242,-0.35807 0.83073,0 1.46094,0.38671 0.6302,0.38672 0.90234,1.00977 0.2793,0.62305 0.2793,2.02669 v 4.56901 h -1.96941 v -3.95312 q 0,-1.32487 -0.32942,-1.79037 -0.32943,-0.47265 -0.98828,-0.47265 -0.50131,0 -0.90235,0.28646 -0.39388,0.28645 -0.58724,0.79492 -0.19336,0.5013 -0.19336,1.61849 v 3.51627 h -1.9694 v -3.77409 q 0,-1.04557 -0.15755,-1.51106 -0.15039,-0.47266 -0.45833,-0.70183 -0.30795,-0.22916 -0.74479,-0.22916 -0.48698,0 -0.88803,0.29362 -0.39388,0.28646 -0.5944,0.80924 -0.19336,0.52279 -0.19336,1.64714 v 3.46614 h -1.96224 z"
         style="font-style:normal;font-variant:normal;font-weight:bold;font-stretch:normal;font-size:14.66666698px;font-family:'Century Gothic';-inkscape-font-specification:'Century Gothic, Bold';font-variant-ligatures:normal;font-variant-caps:normal;font-variant-numeric:normal;font-feature-settings:normal;text-align:center;writing-mode:lr-tb;text-anchor:middle;fill:#4c4c4c;fill-opacity:1"
         id="path1198" />
      <path
         d="m 144.72982,298.92098 h 1.94791 v 10.79948 h -1.94791 v -0.82356 q -0.57292,0.54427 -1.153,0.78776 -0.57292,0.23632 -1.24609,0.23632 -1.51107,0 -2.61393,-1.16731 -1.10287,-1.17448 -1.10287,-2.91472 0,-1.80469 1.06706,-2.95768 1.06706,-1.15299 2.59245,-1.15299 0.70182,0 1.3177,0.26497 0.61589,0.26497 1.13868,0.79492 z m -2.05534,4.61198 q -0.90951,0 -1.51107,0.64453 -0.60156,0.63737 -0.60156,1.63998 0,1.00976 0.60872,1.66146 0.61589,0.65169 1.51107,0.65169 0.92383,0 1.53255,-0.63737 0.60873,-0.64453 0.60873,-1.68294 0,-1.01693 -0.60873,-1.64714 -0.60872,-0.63021 -1.53971,-0.63021 z"
         style="font-style:normal;font-variant:normal;font-weight:bold;font-stretch:normal;font-size:14.66666698px;font-family:'Century Gothic';-inkscape-font-specification:'Century Gothic, Bold';font-variant-ligatures:normal;font-variant-caps:normal;font-variant-numeric:normal;font-feature-settings:normal;text-align:center;writing-mode:lr-tb;text-anchor:middle;fill:#4c4c4c;fill-opacity:1"
         id="path1200" />
      <path
         d="m 156.46029,306.39038 h -6.2806 q 0.13607,0.83073 0.72331,1.32487 0.5944,0.48698 1.51107,0.48698 1.0957,0 1.88346,-0.76627 l 1.64714,0.77344 q -0.61589,0.87369 -1.47527,1.29622 -0.85937,0.41536 -2.04101,0.41536 -1.83333,0 -2.98633,-1.15299 -1.15299,-1.16016 -1.15299,-2.90039 0,-1.7832 1.14583,-2.95768 1.15299,-1.18164 2.88607,-1.18164 1.84049,0 2.99349,1.18164 1.15299,1.17448 1.15299,3.10807 z m -1.96224,-1.53971 q -0.19336,-0.65169 -0.76628,-1.05989 -0.56575,-0.40821 -1.3177,-0.40821 -0.81641,0 -1.4323,0.45834 -0.38671,0.28645 -0.71614,1.00976 z"
         style="font-style:normal;font-variant:normal;font-weight:bold;font-stretch:normal;font-size:14.66666698px;font-family:'Century Gothic';-inkscape-font-specification:'Century Gothic, Bold';font-variant-ligatures:normal;font-variant-caps:normal;font-variant-numeric:normal;font-feature-settings:normal;text-align:center;writing-mode:lr-tb;text-anchor:middle;fill:#4c4c4c;fill-opacity:1"
         id="path1202" />
      <path
         d="m 159.99089,298.92098 v 3.86719 q 0.52995,-0.52995 1.14584,-0.79492 0.61588,-0.26497 1.3177,-0.26497 1.52539,0 2.59245,1.15299 1.06706,1.15299 1.06706,2.95768 0,1.74024 -1.10287,2.91472 -1.10286,1.16731 -2.61393,1.16731 -0.67318,0 -1.25325,-0.23632 -0.58008,-0.24349 -1.153,-0.78776 v 0.82356 h -1.94075 v -10.79948 z m 2.05534,4.61198 q -0.92383,0 -1.53255,0.63021 -0.60873,0.63021 -0.60873,1.64714 0,1.03841 0.60873,1.68294 0.60872,0.63737 1.53255,0.63737 0.89518,0 1.50391,-0.65169 0.61588,-0.6517 0.61588,-1.66146 0,-1.00261 -0.60156,-1.63998 -0.60156,-0.64453 -1.51823,-0.64453 z"
         style="font-style:normal;font-variant:normal;font-weight:bold;font-stretch:normal;font-size:14.66666698px;font-family:'Century Gothic';-inkscape-font-specification:'Century Gothic, Bold';font-variant-ligatures:normal;font-variant-caps:normal;font-variant-numeric:normal;font-feature-settings:normal;text-align:center;writing-mode:lr-tb;text-anchor:middle;fill:#4c4c4c;fill-opacity:1"
         id="path1204" />
      <path
         d="m 168.4987,298.72046 q 0.51563,0 0.88086,0.3724 0.3724,0.37239 0.3724,0.90234 0,0.52279 -0.36524,0.89518 -0.36523,0.36524 -0.8737,0.36524 -0.52278,0 -0.89518,-0.3724 -0.36523,-0.37955 -0.36523,-0.91666 0,-0.51563 0.36523,-0.88086 0.36524,-0.36524 0.88086,-0.36524 z m -0.98112,3.20834 h 1.96224 v 7.79166 h -1.96224 z"
         style="font-style:normal;font-variant:normal;font-weight:bold;font-stretch:normal;font-size:14.66666698px;font-family:'Century Gothic';-inkscape-font-specification:'Century Gothic, Bold';font-variant-ligatures:normal;font-variant-caps:normal;font-variant-numeric:normal;font-feature-settings:normal;text-align:center;writing-mode:lr-tb;text-anchor:middle;fill:#4c4c4c;fill-opacity:1"
         id="path1206" />
      <path
         d="m 171.04818,298.92098 h 1.95508 v 10.79948 h -1.95508 z"
         style="font-style:normal;font-variant:normal;font-weight:bold;font-stretch:normal;font-size:14.66666698px;font-family:'Century Gothic';-inkscape-font-specification:'Century Gothic, Bold';font-variant-ligatures:normal;font-variant-caps:normal;font-variant-numeric:normal;font-feature-settings:normal;text-align:center;writing-mode:lr-tb;text-anchor:middle;fill:#4c4c4c;fill-opacity:1"
         id="path1208" />
      <path
         d="m 175.54558,298.72046 q 0.51562,0 0.88086,0.3724 0.37239,0.37239 0.37239,0.90234 0,0.52279 -0.36523,0.89518 -0.36524,0.36524 -0.8737,0.36524 -0.52279,0 -0.89518,-0.3724 -0.36524,-0.37955 -0.36524,-0.91666 0,-0.51563 0.36524,-0.88086 0.36523,-0.36524 0.88086,-0.36524 z m -0.98112,3.20834 h 1.96224 v 7.79166 h -1.96224 z"
         style="font-style:normal;font-variant:normal;font-weight:bold;font-stretch:normal;font-size:14.66666698px;font-family:'Century Gothic';-inkscape-font-specification:'Century Gothic, Bold';font-variant-ligatures:normal;font-variant-caps:normal;font-variant-numeric:normal;font-feature-settings:normal;text-align:center;writing-mode:lr-tb;text-anchor:middle;fill:#4c4c4c;fill-opacity:1"
         id="path1210" />
      <path
         d="m 178.53907,299.05705 h 1.94791 v 2.87175 h 1.16016 v 1.68294 h -1.16016 v 6.10872 h -1.94791 v -6.10872 h -1.00261 v -1.68294 h 1.00261 z"
         style="font-style:normal;font-variant:normal;font-weight:bold;font-stretch:normal;font-size:14.66666698px;font-family:'Century Gothic';-inkscape-font-specification:'Century Gothic, Bold';font-variant-ligatures:normal;font-variant-caps:normal;font-variant-numeric:normal;font-feature-settings:normal;text-align:center;writing-mode:lr-tb;text-anchor:middle;fill:#4c4c4c;fill-opacity:1"
         id="path1212" />
      <path
         d="m 188.47201,301.9288 h 1.94792 v 7.79166 h -1.94792 v -0.82356 q -0.57292,0.54427 -1.15299,0.78776 -0.57292,0.23632 -1.2461,0.23632 -1.51106,0 -2.61393,-1.16731 -1.10286,-1.17448 -1.10286,-2.91472 0,-1.80469 1.06705,-2.95768 1.06706,-1.15299 2.59245,-1.15299 0.70182,0 1.31771,0.26497 0.61589,0.26497 1.13867,0.79492 z m -2.05534,1.60416 q -0.9095,0 -1.51106,0.64453 -0.60157,0.63737 -0.60157,1.63998 0,1.00976 0.60873,1.66146 0.61588,0.65169 1.51106,0.65169 0.92383,0 1.53256,-0.63737 0.60872,-0.64453 0.60872,-1.68294 0,-1.01693 -0.60872,-1.64714 -0.60873,-0.63021 -1.53972,-0.63021 z"
         style="font-style:normal;font-variant:normal;font-weight:bold;font-stretch:normal;font-size:14.66666698px;font-family:'Century Gothic';-inkscape-font-specification:'Century Gothic, Bold';font-variant-ligatures:normal;font-variant-caps:normal;font-variant-numeric:normal;font-feature-settings:normal;text-align:center;writing-mode:lr-tb;text-anchor:middle;fill:#4c4c4c;fill-opacity:1"
         id="path1214" />
      <path
         d="m 191.93815,301.9288 h 1.67579 v 0.98112 q 0.27213,-0.58008 0.7233,-0.88086 0.45118,-0.30078 0.98828,-0.30078 0.37956,0 0.79493,0.20052 l -0.60873,1.68294 q -0.34375,-0.17188 -0.56575,-0.17188 -0.45117,0 -0.76628,0.5586 -0.30794,0.55859 -0.30794,2.1914 l 0.007,0.37956 v 3.15104 h -1.94076 z"
         style="font-style:normal;font-variant:normal;font-weight:bold;font-stretch:normal;font-size:14.66666698px;font-family:'Century Gothic';-inkscape-font-specification:'Century Gothic, Bold';font-variant-ligatures:normal;font-variant-caps:normal;font-variant-numeric:normal;font-feature-settings:normal;text-align:center;writing-mode:lr-tb;text-anchor:middle;fill:#4c4c4c;fill-opacity:1"
         id="path1216" />
      <path
         d="m 71.933592,320.06162 q 1.102865,0 2.069662,0.55143 0.973958,0.55143 1.518229,1.49675 0.544271,0.94531 0.544271,2.04101 0,1.10287 -0.551432,2.0625 -0.544271,0.95964 -1.489584,1.50391 -0.945312,0.53711 -2.083984,0.53711 -1.675781,0 -2.864583,-1.1888 -1.181641,-1.19597 -1.181641,-2.9004 0,-1.82617 1.339193,-3.04362 1.174479,-1.05989 2.699869,-1.05989 z m 0.02865,1.84049 q -0.909505,0 -1.518229,0.63737 -0.601562,0.63021 -0.601562,1.61849 0,1.01693 0.594401,1.64714 0.601562,0.63021 1.518229,0.63021 0.916667,0 1.52539,-0.63737 0.608724,-0.63737 0.608724,-1.63998 0,-1.0026 -0.601562,-1.62565 -0.594401,-0.63021 -1.525391,-0.63021 z"
         style="font-style:normal;font-variant:normal;font-weight:bold;font-stretch:normal;font-size:14.66666698px;font-family:'Century Gothic';-inkscape-font-specification:'Century Gothic, Bold';font-variant-ligatures:normal;font-variant-caps:normal;font-variant-numeric:normal;font-feature-settings:normal;text-align:center;writing-mode:lr-tb;text-anchor:middle;fill:#4c4c4c;fill-opacity:1"
         id="path1218" />
      <path
         d="m 87.524088,320.26214 h 1.947917 v 7.79167 h -1.947917 v -0.82357 q -0.572916,0.54427 -1.152995,0.78776 -0.572916,0.23633 -1.246093,0.23633 -1.511068,0 -2.613933,-1.16732 -1.102864,-1.17448 -1.102864,-2.91471 0,-1.80469 1.067057,-2.95769 1.067057,-1.15299 2.592448,-1.15299 0.701823,0 1.317708,0.26497 0.615886,0.26498 1.138672,0.79492 z m -2.055338,1.60417 q -0.909506,0 -1.511068,0.64453 -0.601563,0.63737 -0.601563,1.63997 0,1.00977 0.608724,1.66146 0.615886,0.65169 1.511068,0.65169 0.923828,0 1.532552,-0.63737 0.608724,-0.64453 0.608724,-1.68294 0,-1.01693 -0.608724,-1.64714 -0.608724,-0.6302 -1.539713,-0.6302 z"
         style="font-style:normal;font-variant:normal;font-weight:bold;font-stretch:normal;font-size:14.66666698px;font-family:'Century Gothic';-inkscape-font-specification:'Century Gothic, Bold';font-variant-ligatures:normal;font-variant-caps:normal;font-variant-numeric:normal;font-feature-settings:normal;text-align:center;writing-mode:lr-tb;text-anchor:middle;fill:#4c4c4c;fill-opacity:1"
         id="path1220" />
      <path
         d="m 93.389323,320.26214 v 0.85937 q 0.529948,-0.52994 1.145833,-0.79492 0.615886,-0.26497 1.317709,-0.26497 1.52539,0 2.592448,1.15299 1.067057,1.153 1.067057,2.95769 0,1.74023 -1.102865,2.91471 -1.102864,1.16732 -2.613932,1.16732 -0.673177,0 -1.253255,-0.23633 -0.580078,-0.24349 -1.152995,-0.78776 v 3.67383 h -1.940755 v -10.64193 z m 2.055338,1.60417 q -0.923828,0 -1.532552,0.6302 -0.608724,0.63021 -0.608724,1.64714 0,1.03841 0.608724,1.68294 0.608724,0.63737 1.532552,0.63737 0.895183,0 1.503907,-0.65169 0.615885,-0.65169 0.615885,-1.66146 0,-1.0026 -0.601562,-1.63997 -0.601563,-0.64453 -1.51823,-0.64453 z"
         style="font-style:normal;font-variant:normal;font-weight:bold;font-stretch:normal;font-size:14.66666698px;font-family:'Century Gothic';-inkscape-font-specification:'Century Gothic, Bold';font-variant-ligatures:normal;font-variant-caps:normal;font-variant-numeric:normal;font-feature-settings:normal;text-align:center;writing-mode:lr-tb;text-anchor:middle;fill:#4c4c4c;fill-opacity:1"
         id="path1222" />
      <path
         d="m 106.88867,320.26214 h 1.94792 v 7.79167 h -1.94792 v -0.82357 q -0.57291,0.54427 -1.15299,0.78776 -0.57292,0.23633 -1.2461,0.23633 -1.51106,0 -2.61393,-1.16732 -1.10286,-1.17448 -1.10286,-2.91471 0,-1.80469 1.06705,-2.95769 1.06706,-1.15299 2.59245,-1.15299 0.70183,0 1.31771,0.26497 0.61589,0.26498 1.13867,0.79492 z m -2.05534,1.60417 q -0.9095,0 -1.51106,0.64453 -0.60157,0.63737 -0.60157,1.63997 0,1.00977 0.60873,1.66146 0.61588,0.65169 1.51107,0.65169 0.92382,0 1.53255,-0.63737 0.60872,-0.64453 0.60872,-1.68294 0,-1.01693 -0.60872,-1.64714 -0.60873,-0.6302 -1.53972,-0.6302 z"
         style="font-style:normal;font-variant:normal;font-weight:bold;font-stretch:normal;font-size:14.66666698px;font-family:'Century Gothic';-inkscape-font-specification:'Century Gothic, Bold';font-variant-ligatures:normal;font-variant-caps:normal;font-variant-numeric:normal;font-feature-settings:normal;text-align:center;writing-mode:lr-tb;text-anchor:middle;fill:#4c4c4c;fill-opacity:1"
         id="path1224" />
      <path
         d="m 110.35482,320.26214 h 1.67578 v 0.98112 q 0.27213,-0.58008 0.7233,-0.88086 0.45118,-0.30078 0.98829,-0.30078 0.37955,0 0.79492,0.20052 l -0.60873,1.68294 q -0.34375,-0.17187 -0.56575,-0.17187 -0.45117,0 -0.76628,0.55859 -0.30794,0.55859 -0.30794,2.19141 l 0.007,0.37955 v 3.15105 h -1.94075 z"
         style="font-style:normal;font-variant:normal;font-weight:bold;font-stretch:normal;font-size:14.66666698px;font-family:'Century Gothic';-inkscape-font-specification:'Century Gothic, Bold';font-variant-ligatures:normal;font-variant-caps:normal;font-variant-numeric:normal;font-feature-settings:normal;text-align:center;writing-mode:lr-tb;text-anchor:middle;fill:#4c4c4c;fill-opacity:1"
         id="path1226" />
      <path
         d="m 123.31706,324.72373 h -6.2806 q 0.13607,0.83073 0.72331,1.32487 0.5944,0.48698 1.51106,0.48698 1.09571,0 1.88347,-0.76628 l 1.64713,0.77344 q -0.61588,0.8737 -1.47526,1.29622 -0.85937,0.41537 -2.04101,0.41537 -1.83334,0 -2.98633,-1.153 -1.153,-1.16015 -1.153,-2.90039 0,-1.7832 1.14584,-2.95768 1.15299,-1.18164 2.88606,-1.18164 1.8405,0 2.99349,1.18164 1.153,1.17448 1.153,3.10807 z m -1.96224,-1.53972 q -0.19336,-0.65169 -0.76628,-1.05989 -0.56575,-0.4082 -1.31771,-0.4082 -0.8164,0 -1.43229,0.45833 -0.38672,0.28646 -0.71614,1.00976 z"
         style="font-style:normal;font-variant:normal;font-weight:bold;font-stretch:normal;font-size:14.66666698px;font-family:'Century Gothic';-inkscape-font-specification:'Century Gothic, Bold';font-variant-ligatures:normal;font-variant-caps:normal;font-variant-numeric:normal;font-feature-settings:normal;text-align:center;writing-mode:lr-tb;text-anchor:middle;fill:#4c4c4c;fill-opacity:1"
         id="path1228" />
      <path
         d="m 124.69922,317.25433 h 1.95508 v 10.79948 h -1.95508 z"
         style="font-style:normal;font-variant:normal;font-weight:bold;font-stretch:normal;font-size:14.66666698px;font-family:'Century Gothic';-inkscape-font-specification:'Century Gothic, Bold';font-variant-ligatures:normal;font-variant-caps:normal;font-variant-numeric:normal;font-feature-settings:normal;text-align:center;writing-mode:lr-tb;text-anchor:middle;fill:#4c4c4c;fill-opacity:1"
         id="path1230" />
      <path
         d="m 128.4375,317.25433 h 1.94076 v 3.79557 q 0.57291,-0.49414 1.15299,-0.73763 0.58008,-0.25065 1.17448,-0.25065 1.16016,0 1.95508,0.80208 0.68034,0.69466 0.68034,2.04102 v 5.14909 h -1.92643 v -3.41602 q 0,-1.35351 -0.12891,-1.83333 -0.12891,-0.47982 -0.44401,-0.71615 -0.30794,-0.23633 -0.76628,-0.23633 -0.5944,0 -1.02409,0.39388 -0.42252,0.39388 -0.58723,1.07422 -0.0859,0.35091 -0.0859,1.60417 v 3.12956 h -1.94076 z"
         style="font-style:normal;font-variant:normal;font-weight:bold;font-stretch:normal;font-size:14.66666698px;font-family:'Century Gothic';-inkscape-font-specification:'Century Gothic, Bold';font-variant-ligatures:normal;font-variant-caps:normal;font-variant-numeric:normal;font-feature-settings:normal;text-align:center;writing-mode:lr-tb;text-anchor:middle;fill:#4c4c4c;fill-opacity:1"
         id="path1232" />
      <path
         d="m 140.88412,320.06162 q 1.10286,0 2.06966,0.55143 0.97396,0.55143 1.51823,1.49675 0.54427,0.94531 0.54427,2.04101 0,1.10287 -0.55143,2.0625 -0.54428,0.95964 -1.48959,1.50391 -0.94531,0.53711 -2.08398,0.53711 -1.67578,0 -2.86459,-1.1888 -1.18164,-1.19597 -1.18164,-2.9004 0,-1.82617 1.3392,-3.04362 1.17448,-1.05989 2.69987,-1.05989 z m 0.0286,1.84049 q -0.9095,0 -1.51823,0.63737 -0.60156,0.63021 -0.60156,1.61849 0,1.01693 0.5944,1.64714 0.60156,0.63021 1.51823,0.63021 0.91667,0 1.52539,-0.63737 0.60872,-0.63737 0.60872,-1.63998 0,-1.0026 -0.60156,-1.62565 -0.5944,-0.63021 -1.52539,-0.63021 z"
         style="font-style:normal;font-variant:normal;font-weight:bold;font-stretch:normal;font-size:14.66666698px;font-family:'Century Gothic';-inkscape-font-specification:'Century Gothic, Bold';font-variant-ligatures:normal;font-variant-caps:normal;font-variant-numeric:normal;font-feature-settings:normal;text-align:center;writing-mode:lr-tb;text-anchor:middle;fill:#4c4c4c;fill-opacity:1"
         id="path1234" />
      <path
         d="m 158.52279,324.72373 h -6.2806 q 0.13607,0.83073 0.72331,1.32487 0.5944,0.48698 1.51106,0.48698 1.09571,0 1.88347,-0.76628 l 1.64713,0.77344 q -0.61588,0.8737 -1.47526,1.29622 -0.85937,0.41537 -2.04101,0.41537 -1.83334,0 -2.98633,-1.153 -1.153,-1.16015 -1.153,-2.90039 0,-1.7832 1.14584,-2.95768 1.15299,-1.18164 2.88606,-1.18164 1.8405,0 2.99349,1.18164 1.153,1.17448 1.153,3.10807 z m -1.96224,-1.53972 q -0.19336,-0.65169 -0.76628,-1.05989 -0.56575,-0.4082 -1.31771,-0.4082 -0.8164,0 -1.43229,0.45833 -0.38672,0.28646 -0.71614,1.00976 z"
         style="font-style:normal;font-variant:normal;font-weight:bold;font-stretch:normal;font-size:14.66666698px;font-family:'Century Gothic';-inkscape-font-specification:'Century Gothic, Bold';font-variant-ligatures:normal;font-variant-caps:normal;font-variant-numeric:normal;font-feature-settings:normal;text-align:center;writing-mode:lr-tb;text-anchor:middle;fill:#4c4c4c;fill-opacity:1"
         id="path1236" />
      <path
         d="m 164.88217,321.35068 -1.21029,1.21029 q -0.73763,-0.73047 -1.33919,-0.73047 -0.32943,0 -0.51563,0.14323 -0.1862,0.13607 -0.1862,0.34375 0,0.15755 0.11459,0.29362 0.12174,0.1289 0.58724,0.35807 l 0.71614,0.35807 q 1.13151,0.5586 1.55404,1.13868 0.42252,0.58007 0.42252,1.36067 0,1.03841 -0.76627,1.73308 -0.75912,0.69466 -2.04102,0.69466 -1.70442,0 -2.72135,-1.33203 l 1.20312,-1.31055 q 0.34375,0.40104 0.80209,0.65169 0.46549,0.24349 0.82356,0.24349 0.38672,0 0.62305,-0.1862 0.23633,-0.18619 0.23633,-0.42968 0,-0.45118 -0.85221,-0.88086 l -0.65886,-0.32943 q -1.89062,-0.95247 -1.89062,-2.38477 0,-0.92382 0.70898,-1.57552 0.71615,-0.65885 1.82617,-0.65885 0.75912,0 1.42513,0.33659 0.67318,0.32942 1.13868,0.95247 z"
         style="font-style:normal;font-variant:normal;font-weight:bold;font-stretch:normal;font-size:14.66666698px;font-family:'Century Gothic';-inkscape-font-specification:'Century Gothic, Bold';font-variant-ligatures:normal;font-variant-caps:normal;font-variant-numeric:normal;font-feature-settings:normal;text-align:center;writing-mode:lr-tb;text-anchor:middle;fill:#4c4c4c;fill-opacity:1"
         id="path1238" />
      <path
         d="m 166.79427,317.39039 h 1.94792 v 2.87175 h 1.16016 v 1.68294 h -1.16016 v 6.10873 h -1.94792 v -6.10873 h -1.0026 v -1.68294 h 1.0026 z"
         style="font-style:normal;font-variant:normal;font-weight:bold;font-stretch:normal;font-size:14.66666698px;font-family:'Century Gothic';-inkscape-font-specification:'Century Gothic, Bold';font-variant-ligatures:normal;font-variant-caps:normal;font-variant-numeric:normal;font-feature-settings:normal;text-align:center;writing-mode:lr-tb;text-anchor:middle;fill:#4c4c4c;fill-opacity:1"
         id="path1240" />
      <path
         d="m 176.72722,320.26214 h 1.94792 v 7.79167 h -1.94792 v -0.82357 q -0.57292,0.54427 -1.15299,0.78776 -0.57292,0.23633 -1.2461,0.23633 -1.51107,0 -2.61393,-1.16732 -1.10287,-1.17448 -1.10287,-2.91471 0,-1.80469 1.06706,-2.95769 1.06706,-1.15299 2.59245,-1.15299 0.70182,0 1.31771,0.26497 0.61588,0.26498 1.13867,0.79492 z m -2.05534,1.60417 q -0.9095,0 -1.51107,0.64453 -0.60156,0.63737 -0.60156,1.63997 0,1.00977 0.60873,1.66146 0.61588,0.65169 1.51106,0.65169 0.92383,0 1.53255,-0.63737 0.60873,-0.64453 0.60873,-1.68294 0,-1.01693 -0.60873,-1.64714 -0.60872,-0.6302 -1.53971,-0.6302 z"
         style="font-style:normal;font-variant:normal;font-weight:bold;font-stretch:normal;font-size:14.66666698px;font-family:'Century Gothic';-inkscape-font-specification:'Century Gothic, Bold';font-variant-ligatures:normal;font-variant-caps:normal;font-variant-numeric:normal;font-feature-settings:normal;text-align:center;writing-mode:lr-tb;text-anchor:middle;fill:#4c4c4c;fill-opacity:1"
         id="path1242" />
      <path
         d="m 180.88802,317.39039 h 1.94792 v 2.87175 h 1.16016 v 1.68294 h -1.16016 v 6.10873 h -1.94792 v -6.10873 h -1.0026 v -1.68294 h 1.0026 z"
         style="font-style:normal;font-variant:normal;font-weight:bold;font-stretch:normal;font-size:14.66666698px;font-family:'Century Gothic';-inkscape-font-specification:'Century Gothic, Bold';font-variant-ligatures:normal;font-variant-caps:normal;font-variant-numeric:normal;font-feature-settings:normal;text-align:center;writing-mode:lr-tb;text-anchor:middle;fill:#4c4c4c;fill-opacity:1"
         id="path1244" />
      <path
         d="m 190.82097,320.26214 h 1.94792 v 7.79167 h -1.94792 v -0.82357 q -0.57292,0.54427 -1.15299,0.78776 -0.57292,0.23633 -1.2461,0.23633 -1.51107,0 -2.61393,-1.16732 -1.10287,-1.17448 -1.10287,-2.91471 0,-1.80469 1.06706,-2.95769 1.06706,-1.15299 2.59245,-1.15299 0.70182,0 1.31771,0.26497 0.61588,0.26498 1.13867,0.79492 z m -2.05534,1.60417 q -0.9095,0 -1.51107,0.64453 -0.60156,0.63737 -0.60156,1.63997 0,1.00977 0.60873,1.66146 0.61588,0.65169 1.51106,0.65169 0.92383,0 1.53255,-0.63737 0.60873,-0.64453 0.60873,-1.68294 0,-1.01693 -0.60873,-1.64714 -0.60872,-0.6302 -1.53971,-0.6302 z"
         style="font-style:normal;font-variant:normal;font-weight:bold;font-stretch:normal;font-size:14.66666698px;font-family:'Century Gothic';-inkscape-font-specification:'Century Gothic, Bold';font-variant-ligatures:normal;font-variant-caps:normal;font-variant-numeric:normal;font-feature-settings:normal;text-align:center;writing-mode:lr-tb;text-anchor:middle;fill:#4c4c4c;fill-opacity:1"
         id="path1246" />
      <path
         d="m 194.53776,317.25433 h 1.95508 v 10.79948 h -1.95508 z"
         style="font-style:normal;font-variant:normal;font-weight:bold;font-stretch:normal;font-size:14.66666698px;font-family:'Century Gothic';-inkscape-font-specification:'Century Gothic, Bold';font-variant-ligatures:normal;font-variant-caps:normal;font-variant-numeric:normal;font-feature-settings:normal;text-align:center;writing-mode:lr-tb;text-anchor:middle;fill:#4c4c4c;fill-opacity:1"
         id="path1248" />
    </g>
  </g>
</svg>
