<?xml version="1.0" encoding="UTF-8" standalone="no"?>
<!-- Created with Inkscape (http://www.inkscape.org/) -->

<svg
   xmlns:dc="http://purl.org/dc/elements/1.1/"
   xmlns:cc="http://creativecommons.org/ns#"
   xmlns:rdf="http://www.w3.org/1999/02/22-rdf-syntax-ns#"
   xmlns:svg="http://www.w3.org/2000/svg"
   xmlns="http://www.w3.org/2000/svg"
   xmlns:sodipodi="http://sodipodi.sourceforge.net/DTD/sodipodi-0.dtd"
   xmlns:inkscape="http://www.inkscape.org/namespaces/inkscape"
   width="70mm"
   height="100mm"
   viewBox="0 0 70 100"
   version="1.1"
   id="svg8"
   inkscape:version="0.92.2 5c3e80d, 2017-08-06"
   sodipodi:docname="sticker.ja.svg"
   inkscape:export-filename="/home/emes/doc/dontbuymonero-sticker/sticker.en.png"
   inkscape:export-xdpi="300"
   inkscape:export-ydpi="300">
  <defs
     id="defs2" />
  <sodipodi:namedview
     id="base"
     pagecolor="#ffffff"
     bordercolor="#666666"
     borderopacity="1.0"
     inkscape:pageopacity="0.0"
     inkscape:pageshadow="2"
     inkscape:zoom="1.979899"
     inkscape:cx="-29.824733"
     inkscape:cy="185.87983"
     inkscape:document-units="mm"
     inkscape:current-layer="layer1"
     showgrid="false"
     showguides="true"
     inkscape:guide-bbox="true"
     inkscape:snap-to-guides="true"
     inkscape:snap-grids="true"
     inkscape:snap-page="true"
     inkscape:snap-bbox="true"
     inkscape:bbox-nodes="true"
     inkscape:bbox-paths="true"
     inkscape:window-width="1920"
     inkscape:window-height="1136"
     inkscape:window-x="0"
     inkscape:window-y="747"
     inkscape:window-maximized="1"
     inkscape:pagecheckerboard="true"
     inkscape:measure-start="0,0"
     inkscape:measure-end="0,0">
    <sodipodi:guide
       position="5,91.472997"
       orientation="1,0"
       id="guide889"
       inkscape:locked="false"
       inkscape:label=""
       inkscape:color="rgb(0,0,255)" />
    <sodipodi:guide
       position="65,88.533032"
       orientation="1,0"
       id="guide891"
       inkscape:locked="false"
       inkscape:label=""
       inkscape:color="rgb(0,0,255)" />
    <sodipodi:guide
       position="28.86511,95"
       orientation="0,1"
       id="guide893"
       inkscape:locked="false"
       inkscape:label=""
       inkscape:color="rgb(0,0,255)" />
    <sodipodi:guide
       position="36.348657,5"
       orientation="0,1"
       id="guide895"
       inkscape:locked="false"
       inkscape:label=""
       inkscape:color="rgb(0,0,255)" />
    <sodipodi:guide
       position="9,45.435819"
       orientation="1,0"
       id="guide951"
       inkscape:locked="false"
       inkscape:label=""
       inkscape:color="rgb(0,0,255)" />
    <sodipodi:guide
       position="61,64.54559"
       orientation="1,0"
       id="guide953"
       inkscape:locked="false"
       inkscape:label=""
       inkscape:color="rgb(0,0,255)" />
    <sodipodi:guide
       position="25.52424,8"
       orientation="0,1"
       id="guide955"
       inkscape:locked="false"
       inkscape:label=""
       inkscape:color="rgb(0,0,255)" />
    <sodipodi:guide
       position="26.125597,31"
       orientation="0,1"
       id="guide957"
       inkscape:locked="false"
       inkscape:label=""
       inkscape:color="rgb(0,0,255)" />
  </sodipodi:namedview>
  <metadata
     id="metadata5">
    <rdf:RDF>
      <cc:Work
         rdf:about="">
        <dc:format>image/svg+xml</dc:format>
        <dc:type
           rdf:resource="http://purl.org/dc/dcmitype/StillImage" />
        <dc:title></dc:title>
      </cc:Work>
    </rdf:RDF>
  </metadata>
  <g
     inkscape:label="Layer 1"
     inkscape:groupmode="layer"
     id="layer1"
     transform="translate(0,-197)">
    <rect
       style="fill:#ffffff;fill-opacity:1;stroke:none;stroke-width:1;stroke-linecap:square;stroke-miterlimit:4;stroke-dasharray:none;stroke-opacity:1"
       id="rect858"
       width="70"
       height="100"
       x="0"
       y="197" />
    <g
       id="g915"
       transform="matrix(1.3011002,0,0,1.3011002,14.420216,-69.989276)">
      <path
         style="fill:#ff6600;stroke-width:0.26458332"
         id="path22"
         d="m 15.817084,222.05063 c -5.391414,0 -9.7639184,4.37197 -9.7639184,9.76365 0,1.07791 0.174625,2.11455 0.4974166,3.08425 h 2.9199417 v -8.21505 l 6.3465601,6.34656 6.346561,-6.34656 v 8.21505 h 2.920206 c 0.322791,-0.9697 0.497416,-2.00634 0.497416,-3.08425 0,-5.39168 -4.372504,-9.76365 -9.764183,-9.76365"
         inkscape:connector-curvature="0" />
      <path
         style="fill:#4c4c4c;stroke-width:0.26458332"
         id="path26"
         d="m 11.58809,231.71921 v 5.16917 H 7.4738193 c 1.7139708,2.81199 4.8095957,4.69 8.3431057,4.69 3.533511,0 6.6294,-1.87801 8.343107,-4.69 h -4.114007 v -5.16917 l -4.2291,4.2291 z"
         inkscape:connector-curvature="0" />
    </g>
    <flowRoot
       xml:space="preserve"
       id="flowRoot840"
       style="font-style:normal;font-weight:normal;font-size:26.66666603px;line-height:1.25;font-family:sans-serif;letter-spacing:0px;word-spacing:0px;fill:#000000;fill-opacity:1;stroke:none"><flowRegion
         id="flowRegion842"><rect
           id="rect844"
           width="77.781746"
           height="47.477169"
           x="239.40616"
           y="264.52042" /></flowRegion><flowPara
         id="flowPara846" /></flowRoot>    <flowRoot
       xml:space="preserve"
       id="flowRoot866"
       style="font-style:normal;font-variant:normal;font-weight:bold;font-stretch:normal;font-size:16px;line-height:1.25;font-family:'Century Gothic';-inkscape-font-specification:'Century Gothic Bold';text-align:center;letter-spacing:0px;word-spacing:0px;text-anchor:middle;fill:#000000;fill-opacity:1;stroke:none"
       transform="matrix(0.26458333,0,0,0.26458333,0,192)"><flowRegion
         id="flowRegion868"
         style="font-size:16px"><rect
           id="rect870"
           width="241.88977"
           height="148.28261"
           x="18.897638"
           y="229.67015"
           style="font-size:16px" /></flowRegion><flowPara
         id="flowPara872" /></flowRoot>    <flowRoot
       xml:space="preserve"
       id="flowRoot874"
       style="font-style:normal;font-variant:normal;font-weight:bold;font-stretch:normal;font-size:26.66666603px;line-height:1.25;font-family:'Century Gothic';-inkscape-font-specification:'Century Gothic Bold';text-align:center;letter-spacing:0px;word-spacing:0px;text-anchor:middle;fill:#000000;fill-opacity:1;stroke:none"><flowRegion
         id="flowRegion876"><rect
           id="rect878"
           width="241.88977"
           height="148.28261"
           x="18.897638"
           y="229.67015" /></flowRegion><flowPara
         id="flowPara880" /></flowRoot>    <g
       id="g861">
      <path
         inkscape:connector-curvature="0"
         id="rect861"
         d="M 5,263.0024 V 263.44051 292 h 60 v -28.9976 z m 0.874399,0.8744 h 58.251202 v 27.24879 H 5.874399 Z"
         style="color:#000000;font-style:normal;font-variant:normal;font-weight:normal;font-stretch:normal;font-size:medium;line-height:normal;font-family:sans-serif;font-variant-ligatures:normal;font-variant-position:normal;font-variant-caps:normal;font-variant-numeric:normal;font-variant-alternates:normal;font-feature-settings:normal;text-indent:0;text-align:start;text-decoration:none;text-decoration-line:none;text-decoration-style:solid;text-decoration-color:#000000;letter-spacing:normal;word-spacing:normal;text-transform:none;writing-mode:lr-tb;direction:ltr;text-orientation:mixed;dominant-baseline:auto;baseline-shift:baseline;text-anchor:start;white-space:normal;shape-padding:0;clip-rule:nonzero;display:inline;overflow:visible;visibility:visible;opacity:1;isolation:auto;mix-blend-mode:normal;color-interpolation:sRGB;color-interpolation-filters:linearRGB;solid-color:#000000;solid-opacity:1;vector-effect:none;fill:#4c4c4c;fill-opacity:1;fill-rule:nonzero;stroke:none;stroke-width:0.87388474;stroke-linecap:square;stroke-linejoin:miter;stroke-miterlimit:4;stroke-dasharray:none;stroke-dashoffset:0;stroke-opacity:1;color-rendering:auto;image-rendering:auto;shape-rendering:auto;text-rendering:auto;enable-background:accumulate" />
    </g>
    <g
       aria-label="モネロを"
       transform="matrix(0.26458333,0,0,0.26458333,0,194.87748)"
       style="font-style:normal;font-variant:normal;font-weight:bold;font-stretch:normal;font-size:45.33333206px;line-height:1.25;font-family:'Century Gothic';-inkscape-font-specification:'Century Gothic Bold';text-align:center;letter-spacing:0px;word-spacing:0px;text-anchor:middle;fill:#4c4c4c;fill-opacity:1;stroke:none"
       id="flowRoot1125">
      <path
         d="m 61.003203,51.682438 h 14.64 c 1.056,0 3.216,0 4.56,0.144 l -0.048,-6.144 c -1.248,0.096 -3.648,0.192 -4.656,0.192 h -14.496 v -8.16 h 11.28 c 1.728,0 3.072,0.096 4.32,0.144 v -6 c -1.104,0.144 -2.688,0.24 -4.32,0.24 h -23.088 c -1.728,0 -3.264,-0.144 -4.656,-0.24 v 6 c 1.392,-0.096 2.928,-0.144 4.656,-0.144 h 5.232 v 8.16 h -7.824 c -1.488,0 -3.888,-0.144 -5.232,-0.24 v 6.288 c 1.44,-0.096 3.888,-0.24 5.232,-0.24 h 7.824 v 9.264 c 0,4.848 2.16,7.872 10.944,7.872 4.512,0 9.936,-0.192 13.056,-0.384 l 0.432,-6.48 c -3.84,0.384 -8.064,0.672 -12.384,0.672 -3.84,0 -5.472,-0.96 -5.472,-3.6 z"
         style="font-size:48px;fill:#4c4c4c;fill-opacity:1"
         id="path1170" />
      <path
         d="m 121.4352,34.354438 c -1.152,0.336 -2.496,0.48 -3.984,0.48 h -5.76 v -2.496 c 0,-1.488 0.144,-3.264 0.288,-4.416 h -6.864 c 0.192,1.2 0.288,2.928 0.288,4.416 v 2.496 h -8.303997 c -1.68,0 -4.32,-0.048 -6.144,-0.336 v 6.288 c 1.488,-0.144 4.512,-0.24 6.24,-0.24 H 114.5712 c -1.392,2.016 -4.368,4.8 -8.064,7.2 -4.128,2.64 -10.319997,5.952 -19.583997,8.016 l 3.696,5.664 c 5.184,-1.584 10.319997,-3.552 14.735997,-5.904 v 8.208 c 0,1.92 -0.192,4.8 -0.384,6.144 h 6.912 c -0.144,-1.488 -0.336,-4.224 -0.336,-6.144 0,-3.024 0.048,-8.256 0.048,-12.096 3.984,-3.024 7.632,-6.624 10.08,-9.408 1.008,-1.152 2.496,-2.784 3.696,-3.984 z m -6.816,19.92 c 4.176,2.304 7.296,4.32 11.472,7.632 l 4.032,-5.28 c -4.608,-3.168 -7.104,-4.56 -11.52,-6.96 z"
         style="font-size:48px;fill:#4c4c4c;fill-opacity:1"
         id="path1172" />
      <path
         d="m 168.0432,39.298438 v 19.92 h -23.184 v -19.92 z m 6.432,-1.536 c 0,-1.44 0,-3.216 0.096,-4.656 -1.728,0.096 -3.552,0.096 -4.752,0.096 h -26.4 c -1.296,0 -3.12,-0.048 -5.088,-0.096 0.096,1.344 0.096,3.312 0.096,4.656 v 23.472 c 0,2.304 -0.096,6.48 -0.144,6.72 h 6.624 l -0.048,-2.64 h 23.136 l -0.048,2.64 h 6.624 c 0,-0.192 -0.096,-4.8 -0.096,-6.672 z"
         style="font-size:48px;fill:#4c4c4c;fill-opacity:1"
         id="path1174" />
      <path
         d="m 210.1872,60.226438 c -0.048,-2.16 -0.144,-5.664 -0.192,-8.304 2.928,-1.344 5.616,-2.4 7.728,-3.216 1.632,-0.672 4.128,-1.632 5.664,-2.016 l -2.4,-5.52 c -1.728,0.816 -3.408,1.632 -5.232,2.448 -1.968,0.864 -3.984,1.68 -6.432,2.832 -1.056,-2.448 -3.456,-3.696 -6.336,-3.696 -1.584,0 -4.128,0.336 -5.376,0.96 1.008,-1.392 1.968,-3.12 2.736,-4.8 5.088,-0.192 10.944,-0.576 15.504,-1.248 l 0.048,-5.568 c -4.176,0.768 -8.976,1.152 -13.44,1.392 0.576,-1.92 0.912,-3.552 1.152,-4.704 l -6.24,-0.528 c -0.048,1.344 -0.384,3.264 -0.96,5.424 h -2.304 c -2.4,0 -5.952,-0.144 -8.352,-0.528 v 5.568 c 2.592,0.24 6.096,0.336 8.016,0.336 h 0.576 c -2.112,4.224 -5.472,8.448 -10.464,13.056 l 5.088,3.792 c 1.632,-2.064 2.976,-3.792 4.416,-5.232 1.824,-1.728 4.752,-3.264 7.44,-3.264 1.296,0 2.544,0.432 3.312,1.632 -5.424,2.784 -11.184,6.624 -11.184,12.672 0,6.144 5.616,7.92 13.056,7.92 4.464,0 10.272,-0.384 13.44,-0.768 l 0.192,-6.192 c -4.176,0.864 -9.456,1.392 -13.488,1.392 -4.656,0 -6.912,-0.72 -6.912,-3.36 0,-2.352 1.92,-4.224 5.424,-6.144 -0.048,2.064 -0.096,4.272 -0.192,5.664 z"
         style="font-size:48px;fill:#4c4c4c;fill-opacity:1"
         id="path1176" />
    </g>
    <g
       aria-label="買わない"
       transform="matrix(0.26458333,0,0,0.26458333,0,195.53002)"
       style="font-style:normal;font-variant:normal;font-weight:bold;font-stretch:normal;font-size:16px;line-height:1.25;font-family:'Century Gothic';-inkscape-font-specification:'Century Gothic Bold';text-align:center;letter-spacing:0px;word-spacing:0px;text-anchor:middle;fill:#4c4c4c;fill-opacity:1;stroke:none"
       id="flowRoot1133">
      <path
         d="m 74.570328,204.1692 h -6.048 v -3.312 h 6.048 z m -10.8,0 h -5.808 v -3.312 h 5.808 z m -10.56,0 h -5.76 v -3.312 h 5.76 z m 26.88,-7.584 h -37.92 v 11.808 h 37.92 z m -29.568,28.848 h 21.024 v 2.4 h -21.024 z m 0,-5.76 h 21.024 v 2.4 h -21.024 z m 0,-5.712 h 21.024 v 2.352 h -21.024 z m 27.024,17.472 v -21.072 h -32.784 v 21.072 h 7.392 c -3.408,1.632 -8.64,3.168 -13.344,4.032 1.2,0.96 3.264,3.024 4.224,4.176 4.992,-1.392 11.28,-3.696 15.312,-6.336 l -4.176,-1.872 h 13.392 l -3.888,2.496 c 5.232,1.776 10.512,3.984 13.488,5.568 l 6.192,-2.832 c -3.36,-1.488 -8.88,-3.6 -13.968,-5.232 z"
         style="font-size:48px;fill:#4c4c4c;fill-opacity:1"
         id="path1179" />
      <path
         d="m 103.85033,203.4972 c 0.384,-2.976 0.768,-5.424 1.056,-6.768 l -6.960002,-0.192 c 0.24,1.44 0.192,2.88 0.192,4.224 0,0.528 -0.096,1.872 -0.192,3.648 -2.016,0.288 -4.08,0.528 -5.472,0.624 -1.68,0.096 -2.784,0.096 -4.128,0.048 l 0.576,6.096 c 2.688,-0.336 6.336,-0.816 8.64,-1.104 l -0.192,3.312 c -2.688,3.984 -7.488,10.32 -10.176,13.584 l 3.744,5.28 c 1.632,-2.304 3.984,-5.76 6,-8.784 -0.096,4.032 -0.096,6.768 -0.192,10.464 0,0.768 -0.048,2.496 -0.144,3.504 h 6.528002 c -0.096,-1.056 -0.288,-2.784 -0.336,-3.648 -0.288,-4.464 -0.288,-8.448 -0.288,-12.336 0,-1.248 0.048,-2.592 0.096,-3.936 3.984,-3.696 8.448,-6.096 13.488,-6.096 4.752,0 7.728,3.36 7.728,7.056 0,7.44 -5.952,10.8 -14.304,12.096 l 2.832,5.76 c 11.808,-2.352 17.808,-8.112 17.808,-17.712 0,-7.632 -5.76,-12.816 -13.104,-12.816 -4.272,0 -9.168,1.344 -13.968,4.944 0.048,-0.48 0.048,-0.912 0.096,-1.392 0.816,-1.248 1.824,-2.784 2.448,-3.6 z"
         style="font-size:48px;fill:#4c4c4c;fill-opacity:1"
         id="path1181" />
      <path
         d="m 178.29833,209.0652 c -2.4,-1.728 -8.304,-4.944 -11.712,-6.432 l -3.072,4.704 c 3.264,1.44 8.688,4.56 11.424,6.768 z m -17.904,-7.296 c -1.872,0.576 -4.08,1.104 -6.384,1.488 0.672,-2.544 1.248,-4.944 1.632,-6.48 l -6.576,-0.672 c -0.096,2.448 -0.624,5.328 -1.296,7.968 -1.44,0.096 -2.88,0.144 -4.272,0.144 -1.728,0 -4.272,-0.096 -6.336,-0.336 l 0.432,5.568 c 2.064,0.096 3.984,0.144 5.952,0.144 0.816,0 1.632,0 2.448,-0.048 -2.112,5.136 -5.856,12.144 -9.696,16.8 l 5.808,2.928 c 3.84,-5.424 7.92,-13.68 10.176,-20.352 3.168,-0.432 6.096,-1.056 8.256,-1.632 z m 1.152,26.448 c 0,2.544 -1.056,4.416 -4.272,4.416 -2.592,0 -4.08,-1.2 -4.08,-2.976 0,-1.68 1.776,-2.832 4.512,-2.832 1.344,0 2.592,0.192 3.84,0.48 z m -0.768,-16.656 c 0.144,2.88 0.384,7.056 0.528,10.608 -1.008,-0.096 -2.112,-0.192 -3.216,-0.192 -6.624,0 -10.512,3.6 -10.512,8.256 0,5.232 4.656,7.872 10.56,7.872 6.768,0 9.168,-3.456 9.168,-7.872 v -0.432 c 2.592,1.584 4.752,3.504 6.432,5.04 l 3.168,-5.088 c -2.4,-2.16 -5.76,-4.56 -9.84,-6.096 -0.144,-2.352 -0.24,-4.656 -0.288,-6 -0.048,-2.112 -0.144,-4.08 0,-6.096 z"
         style="font-size:48px;fill:#4c4c4c;fill-opacity:1"
         id="path1183" />
      <path
         d="m 193.56233,201.0972 -7.296,-0.096 c 0.288,1.44 0.336,3.456 0.336,4.8 0,2.928 0.096,8.448 0.528,12.816 1.344,12.768 5.904,17.472 11.088,17.472 3.84,0 6.816,-2.928 9.984,-11.184 l -4.8,-5.76 c -0.912,3.744 -2.784,9.312 -5.04,9.312 -2.976,0 -4.416,-4.656 -5.088,-11.52 -0.288,-3.408 -0.336,-7.008 -0.288,-10.08 0,-1.296 0.24,-4.08 0.576,-5.76 z m 23.76,1.008 -6.048,2.016 c 5.184,5.856 7.728,17.04 8.448,24.672 l 6.288,-2.4 c -0.528,-7.296 -4.176,-18.768 -8.688,-24.288 z"
         style="font-size:48px;fill:#4c4c4c;fill-opacity:1"
         id="path1185" />
    </g>
    <g
       aria-label="暗号通貨は銀行システムにとって有害であり
国家組織を弱体化させるおそれがあります"
       transform="matrix(0.26458333,0,0,0.26458333,0,197)"
       style="font-style:normal;font-variant:normal;font-weight:bold;font-stretch:normal;font-size:16px;line-height:1.25;font-family:'Century Gothic';-inkscape-font-specification:'Century Gothic Bold';text-align:center;letter-spacing:0px;word-spacing:0px;text-anchor:middle;fill:#4c4c4c;fill-opacity:1;stroke:none"
       id="flowRoot1141">
      <path
         d="m 40.613578,266.22711 v 2.816 h -1.344 v -2.816 z m -1.344,7.472 v -2.96 h 1.344 v 2.96 z m 2.992,-9.216 h -4.64 v 12.176 h 1.648 v -1.232 h 2.992 z m 6.96,7.984 v 1.056 h -3.968 v -1.056 z m -3.968,3.584 v -1.12 h 3.968 v 1.12 z m -1.744,2.192 h 1.744 v -0.624 h 3.968 v 0.608 h 1.824 v -7.296 h -7.536 z m 5.232,-11.648 c -0.128,0.576 -0.336,1.328 -0.544,1.92 h -1.968 l 0.112,-0.032 c -0.112,-0.496 -0.352,-1.296 -0.608,-1.888 z m 1.216,1.92 c 0.224,-0.496 0.496,-1.088 0.752,-1.648 l -1.504,-0.272 h 2.272 v -1.648 h -3.104 c -0.16,-0.528 -0.448,-1.168 -0.704,-1.696 l -1.744,0.48 c 0.16,0.368 0.336,0.8 0.464,1.216 h -3.328 v 1.648 h 2.256 l -1.232,0.32 c 0.192,0.48 0.368,1.104 0.48,1.6 h -1.936 v 1.648 h 9.312 v -1.648 z"
         style="font-size:16px"
         id="path1188" />
      <path
         d="m 63.717578,267.02711 h -6.512 v -1.504 h 6.512 z m 2.016,-3.168 h -10.432 v 4.816 h 10.432 z m 1.84,7.536 v -1.712 h -14.176 v 1.712 h 2.992 c -0.304,1.04 -0.704,2.128 -1.024,2.912 h 1.168 v 0.016 h 6.992 c -0.208,1.152 -0.448,1.76 -0.736,2 -0.208,0.128 -0.416,0.144 -0.768,0.144 -0.496,0 -1.68,-0.016 -2.736,-0.112 0.352,0.512 0.608,1.264 0.656,1.808 1.104,0.064 2.144,0.048 2.768,0.016 0.736,-0.048 1.264,-0.16 1.744,-0.608 0.56,-0.528 0.944,-1.728 1.264,-4.176 0.048,-0.256 0.096,-0.8 0.096,-0.8 h -7.664 c 0.144,-0.4 0.272,-0.8 0.4,-1.2 z"
         style="font-size:16px"
         id="path1190" />
      <path
         d="m 77.925578,268.69111 v 0.864 h -1.84 v -0.864 z m 3.584,0.864 h -1.888 v -0.864 h 1.888 z m -1.888,2.224 v -0.896 h 1.888 v 0.896 z m -3.536,0 v -0.896 h 1.84 v 0.896 z m 0,1.376 h 1.84 v 2.336 h 1.696 v -2.336 h 1.888 v 0.736 c 0,0.16 -0.048,0.224 -0.24,0.24 -0.16,0 -0.704,0 -1.216,-0.016 0.208,0.416 0.4,1.024 0.48,1.488 0.944,0 1.648,0 2.144,-0.272 0.512,-0.256 0.656,-0.64 0.656,-1.424 v -6.592 h -2.144 l 0.032,-0.032 c -0.24,-0.128 -0.528,-0.288 -0.832,-0.432 1.056,-0.64 2.096,-1.456 2.896,-2.224 l -1.12,-0.912 -0.384,0.096 h -7.344 v 1.44 h 5.712 c -0.416,0.32 -0.88,0.624 -1.344,0.896 -0.72,-0.304 -1.472,-0.608 -2.08,-0.832 l -1.232,1.008 c 0.704,0.288 1.504,0.64 2.288,0.992 h -3.488 v 8.24 h 1.792 z m -2.64,-6.704 c -0.624,-0.704 -1.936,-1.824 -2.88,-2.56 l -1.28,1.136 c 0.944,0.832 2.208,1.984 2.784,2.736 z m -0.528,2.96 h -3.84 v 1.76 h 2.016 v 3.808 c -0.688,0.32 -1.44,0.896 -2.144,1.616 l 1.168,1.6 c 0.672,-0.976 1.456,-1.92 1.936,-1.92 0.352,0 0.88,0.48 1.52,0.864 1.104,0.624 2.4,0.8 4.4,0.8 1.696,0 4.352,-0.096 5.584,-0.16 0.032,-0.496 0.304,-1.344 0.512,-1.824 -1.664,0.224 -4.32,0.368 -6.048,0.368 -1.728,0 -3.152,-0.096 -4.208,-0.72 -0.368,-0.208 -0.656,-0.416 -0.896,-0.576 z"
         style="font-size:16px"
         id="path1192" />
      <path
         d="m 97.557578,268.53111 c 1.472,0 2,-0.432 2.208,-2.08 -0.496,-0.08 -1.232,-0.32 -1.6,-0.576 -0.08,0.944 -0.208,1.12 -0.784,1.12 h -2.304 c -0.736,0 -0.88,-0.08 -0.896,-0.496 1.584,-0.528 3.072,-1.184 4.256,-1.936 l -1.424,-1.136 c -0.72,0.544 -1.728,1.056 -2.832,1.488 v -1.552 h -1.84 v 2.24 c -0.816,0.272 -1.664,0.512 -2.496,0.704 0.208,0.336 0.464,0.912 0.56,1.28 0.656,-0.16 1.296,-0.336 1.968,-0.528 0.144,1.12 0.752,1.472 2.496,1.472 z m -9.616,0.144 h 1.824 v -3.28 c 0.56,-0.496 1.072,-1.024 1.504,-1.568 l -1.712,-0.656 c -1.024,1.296 -2.816,2.496 -4.528,3.216 0.4,0.32 1.04,1.024 1.344,1.376 0.512,-0.256 1.04,-0.576 1.568,-0.944 z m 1.184,5.056 h 6.928 v 0.72 h -6.928 z m 0,-1.76 h 6.928 v 0.688 h -6.928 z m 0,-1.76 h 6.928 v 0.688 h -6.928 z m 8.864,5.36 v -6.496 h -10.704 v 6.496 h 2.352 c -1.12,0.56 -2.832,1.04 -4.368,1.328 0.416,0.32 1.088,1.024 1.408,1.392 1.616,-0.448 3.68,-1.248 5.008,-2.08 l -1.408,-0.64 h 4.464 l -0.944,0.768 c 1.568,0.576 3.232,1.36 4.16,1.872 l 1.632,-1.024 c -0.928,-0.464 -2.432,-1.088 -3.856,-1.616 z"
         style="font-size:16px"
         id="path1194" />
      <path
         d="m 102.88558,264.37111 c 0,0.496 -0.08,1.104 -0.144,1.552 -0.192,1.216 -0.656,4.208 -0.656,6.608 0,2.144 0.304,3.952 0.624,5.056 l 1.792,-0.128 c -0.016,-0.224 -0.016,-0.496 -0.016,-0.656 -0.016,-0.176 0.032,-0.512 0.08,-0.736 0.176,-0.864 0.688,-2.48 1.136,-3.776 l -0.976,-0.784 c -0.24,0.528 -0.496,1.056 -0.704,1.616 -0.048,-0.32 -0.064,-0.704 -0.064,-1.024 0,-1.584 0.512,-5.072 0.752,-6.128 0.064,-0.288 0.256,-1.088 0.384,-1.408 z m 8,9.84 c 0,0.928 -0.336,1.44 -1.312,1.44 -0.832,0 -1.472,-0.288 -1.472,-0.928 0,-0.592 0.608,-0.96 1.504,-0.96 0.432,0 0.864,0.064 1.28,0.176 z m 5.008,0.64 c -0.736,-0.688 -1.728,-1.504 -3.056,-2.048 -0.064,-1.072 -0.144,-2.336 -0.176,-3.872 0.864,-0.064 1.696,-0.16 2.464,-0.272 v -1.968 c -0.752,0.16 -1.584,0.272 -2.448,0.368 0,-0.704 0.032,-1.296 0.048,-1.648 0.016,-0.336 0.048,-0.72 0.096,-1.024 h -2.272 c 0.048,0.32 0.096,0.8 0.096,1.04 0.016,0.336 0.016,0.976 0.032,1.76 -0.368,0.016 -0.752,0.016 -1.12,0.016 -0.944,0 -1.856,-0.048 -2.768,-0.144 v 1.888 c 0.944,0.064 1.84,0.096 2.768,0.096 0.368,0 0.752,0 1.136,-0.016 0.016,1.12 0.064,2.272 0.112,3.248 -0.32,-0.048 -0.672,-0.064 -1.04,-0.064 -2.16,0 -3.52,1.104 -3.52,2.72 0,1.664 1.376,2.592 3.552,2.592 2.144,0 3.008,-1.088 3.104,-2.592 0.624,0.432 1.264,0.96 1.92,1.584 z"
         style="font-size:16px"
         id="path1196" />
      <path
         d="m 119.33358,267.33111 c 0.496,-0.512 0.96,-1.056 1.392,-1.632 0.624,0.528 1.248,1.12 1.744,1.632 z m 4.096,7.472 -0.912,0.192 c 0.256,-0.672 0.576,-1.696 0.864,-2.592 l -1.392,-0.352 c -0.112,0.784 -0.384,1.952 -0.592,2.688 l 0.992,0.288 -1.072,0.224 v -3.52 h 2.112 v -1.648 h -2.112 v -1.136 h 1.408 v -1.344 l 0.208,0.24 1.136,-1.344 c -0.544,-0.608 -1.488,-1.456 -2.416,-2.176 0.096,-0.16 0.192,-0.32 0.256,-0.48 l -1.536,-0.576 c -0.784,1.424 -2.144,2.768 -3.424,3.632 0.256,0.448 0.64,1.456 0.752,1.856 0.208,-0.16 0.416,-0.32 0.624,-0.496 v 0.688 h 1.344 v 1.136 h -2.208 v 1.648 h 2.208 v 3.872 c -0.944,0.176 -1.824,0.336 -2.496,0.464 l 0.432,1.84 c 1.696,-0.432 3.904,-0.96 5.968,-1.504 z m -5.76,-2.192 c 0.272,0.896 0.544,2.064 0.608,2.816 l 1.296,-0.368 c -0.096,-0.752 -0.368,-1.904 -0.656,-2.784 z m 8.336,-4.24 h 3.616 v 1.28 h -3.616 z m 3.616,-2.784 v 1.248 h -3.616 v -1.248 z m 1.072,5.872 c -0.4,0.448 -1.04,0.992 -1.648,1.456 -0.224,-0.528 -0.416,-1.056 -0.576,-1.632 h 3.008 v -7.344 h -7.312 v 11.728 c 0,0.624 -0.336,0.88 -0.656,1.024 0.256,0.368 0.544,1.152 0.624,1.616 0.368,-0.272 0.944,-0.528 4.112,-1.488 -0.08,-0.4 -0.16,-1.168 -0.16,-1.664 l -2.08,0.544 v -4.416 h 0.832 c 0.704,3.024 1.888,5.488 4.032,6.8 0.288,-0.512 0.88,-1.264 1.312,-1.632 -0.976,-0.496 -1.744,-1.216 -2.368,-2.144 0.688,-0.432 1.456,-0.976 2.128,-1.504 z"
         style="font-size:16px"
         id="path1198" />
      <path
         d="m 147.44558,264.22711 h -7.776 v 1.808 h 7.776 z m -10.848,-0.912 c -0.768,1.12 -2.288,2.56 -3.616,3.408 0.336,0.368 0.816,1.136 1.056,1.552 1.52,-1.056 3.248,-2.704 4.4,-4.208 z m 0.608,3.456 c -1.024,1.808 -2.768,3.664 -4.4,4.784 0.384,0.4 1.024,1.264 1.296,1.648 0.432,-0.352 0.864,-0.752 1.312,-1.184 v 6.256 h 1.904 v -8.352 c 0.64,-0.8 1.232,-1.632 1.712,-2.448 z m 10.64,1.856 h -8.848 v 1.808 h 4.72 v 5.568 c 0,0.24 -0.112,0.304 -0.4,0.304 -0.288,0.016 -1.344,0.016 -2.256,-0.032 0.256,0.544 0.496,1.376 0.576,1.936 1.424,0 2.448,-0.032 3.12,-0.32 0.704,-0.288 0.896,-0.816 0.896,-1.84 v -5.616 h 2.192 z"
         style="font-size:16px"
         id="path1200" />
      <path
         d="m 153.46158,264.19511 -1.168,1.76 c 1.056,0.592 2.72,1.68 3.616,2.304 l 1.2,-1.776 c -0.832,-0.576 -2.592,-1.696 -3.648,-2.288 z m -2.976,11.36 1.2,2.112 c 1.424,-0.256 3.712,-1.056 5.344,-1.984 2.624,-1.504 4.88,-3.536 6.368,-5.744 l -1.232,-2.176 c -1.28,2.288 -3.504,4.48 -6.224,6 -1.744,0.944 -3.664,1.488 -5.456,1.792 z m 0.512,-7.712 -1.168,1.776 c 1.088,0.56 2.736,1.648 3.648,2.272 l 1.168,-1.792 c -0.816,-0.576 -2.576,-1.68 -3.648,-2.256 z"
         style="font-size:16px"
         id="path1202" />
      <path
         d="m 176.54958,265.04311 c -0.32,0.112 -0.96,0.208 -1.664,0.208 h -5.632 c -0.48,0 -1.456,-0.048 -1.888,-0.112 v 2.272 c 0.336,-0.016 1.216,-0.112 1.888,-0.112 h 5.424 c -0.352,1.136 -1.328,2.72 -2.384,3.92 -1.504,1.68 -3.984,3.616 -6.56,4.592 l 1.648,1.728 c 2.192,-1.04 4.32,-2.704 6.016,-4.496 1.504,1.456 2.992,3.088 4.032,4.528 l 1.824,-1.584 c -0.944,-1.152 -2.88,-3.2 -4.464,-4.576 1.072,-1.44 1.968,-3.152 2.512,-4.4 0.144,-0.32 0.432,-0.816 0.56,-0.992 z"
         style="font-size:16px"
         id="path1204" />
      <path
         d="m 191.87758,266.59511 c 0.56,0 1.168,0.032 1.728,0.064 v -2.064 c -0.544,0.08 -1.184,0.112 -1.728,0.112 h -6.432 c -0.528,0 -1.184,-0.032 -1.696,-0.112 v 2.064 c 0.48,-0.032 1.152,-0.064 1.712,-0.064 z m -8.464,2.192 c -0.496,0 -1.056,-0.048 -1.536,-0.096 v 2.096 c 0.448,-0.032 1.072,-0.064 1.536,-0.064 h 4.4 c -0.064,1.344 -0.336,2.544 -0.992,3.536 -0.64,0.928 -1.76,1.856 -2.896,2.288 l 1.872,1.36 c 1.424,-0.72 2.656,-1.968 3.216,-3.072 0.576,-1.12 0.928,-2.464 1.024,-4.112 h 3.856 c 0.448,0 1.056,0.016 1.456,0.048 v -2.08 c -0.432,0.064 -1.12,0.096 -1.456,0.096 z"
         style="font-size:16px"
         id="path1206" />
      <path
         d="m 211.29683,276.62711 c -0.736,-1.792 -2.368,-4.928 -3.504,-6.656 l -2,0.816 c 0.528,0.704 1.12,1.776 1.68,2.928 -1.616,0.192 -3.888,0.448 -5.84,0.64 0.8,-2.144 2.096,-6.208 2.608,-7.776 0.24,-0.704 0.464,-1.296 0.688,-1.776 l -2.544,-0.512 c -0.064,0.528 -0.16,1.024 -0.384,1.84 -0.464,1.664 -1.84,6.048 -2.768,8.416 l -0.432,0.016 c -0.528,0.016 -1.216,0.016 -1.76,0.016 l 0.368,2.336 c 0.512,-0.064 1.104,-0.144 1.504,-0.192 2.016,-0.208 6.864,-0.72 9.472,-1.024 0.288,0.688 0.544,1.344 0.752,1.888 z"
         style="font-size:16px"
         id="path1208" />
      <path
         d="m 219.21683,265.69911 0.016,2.048 c 1.984,0.176 4.848,0.176 6.8,0 v -2.048 c -1.712,0.208 -4.864,0.272 -6.816,0 z m -0.544,6.608 c -0.16,0.736 -0.272,1.408 -0.272,2.064 0,1.616 1.296,2.608 4.032,2.608 1.792,0 3.072,-0.128 4.096,-0.32 l -0.048,-2.144 c -1.376,0.288 -2.544,0.416 -3.968,0.416 -1.6,0 -2.208,-0.416 -2.208,-1.12 0,-0.432 0.064,-0.816 0.192,-1.328 z m -4.112,-7.84 c 0,0.496 -0.096,1.104 -0.16,1.552 -0.176,1.216 -0.656,3.888 -0.656,6.272 0,2.144 0.304,4.08 0.624,5.184 l 1.824,-0.128 c -0.016,-0.224 -0.016,-0.48 -0.032,-0.656 0,-0.16 0.048,-0.512 0.096,-0.736 0.16,-0.848 0.688,-2.56 1.136,-3.888 l -0.992,-0.768 c -0.224,0.512 -0.48,1.04 -0.704,1.6 -0.048,-0.336 -0.064,-0.72 -0.064,-1.024 0,-1.584 0.544,-4.752 0.768,-5.808 0.064,-0.288 0.256,-1.088 0.384,-1.408 z"
         style="font-size:16px"
         id="path1210" />
      <path
         d="m 80.857953,287.26913 c -0.4,0.336 -0.864,0.608 -1.456,0.96 -0.752,0.416 -2.128,1.12 -3.424,1.872 -0.64,-1.216 -1.376,-2.736 -1.984,-4.384 l -2,0.816 c 0.72,1.68 1.488,3.36 2.224,4.72 -1.52,1.12 -2.624,2.416 -2.624,4.176 0,2.72 2.384,3.6 5.536,3.6 2.064,0 3.744,-0.16 5.088,-0.384 l 0.032,-2.288 c -1.408,0.32 -3.552,0.576 -5.184,0.576 -2.192,0 -3.296,-0.608 -3.296,-1.744 0,-1.104 0.88,-2.016 2.208,-2.88 1.44,-0.928 3.424,-1.856 4.416,-2.352 0.576,-0.288 1.088,-0.56 1.568,-0.848 z"
         style="font-size:16px"
         id="path1212" />
      <path
         d="m 86.885203,291.62113 0.816,2.08 c 1.36,-0.576 4.512,-1.888 6.352,-1.888 1.376,0 2.272,0.832 2.272,2.016 0,2.16 -2.688,3.104 -6.288,3.2 l 0.832,1.968 c 5.04,-0.304 7.552,-2.272 7.552,-5.136 0,-2.4 -1.68,-3.888 -4.176,-3.888 -1.92,0 -4.608,0.912 -5.68,1.232 -0.48,0.16 -1.216,0.336 -1.68,0.416 z"
         style="font-size:16px"
         id="path1214" />
      <path
         d="m 100.9367,287.44513 0.192,2.176 c 1.84,-0.4 5.184,-0.752 6.544,-0.896 -1.056,0.8 -2.336,2.592 -2.336,4.88 0,3.424 3.136,5.216 6.464,5.44 l 0.736,-2.192 c -2.672,-0.144 -5.12,-1.072 -5.12,-3.68 0,-1.872 1.44,-3.92 3.344,-4.432 0.848,-0.192 2.208,-0.208 3.056,-0.208 l -0.016,-2.048 c -1.104,0.048 -2.848,0.144 -4.48,0.272 -2.896,0.256 -5.52,0.48 -6.832,0.608 -0.32,0.032 -0.928,0.064 -1.552,0.08 z"
         style="font-size:16px"
         id="path1216" />
      <path
         d="m 127.1927,292.53313 h -5.776 v -1.024 h 5.776 z m -5.776,2.624 v -1.04 h 5.776 v 1.04 z m 9.424,-6.576 v -1.792 h -7.808 c 0.192,-0.496 0.352,-0.992 0.512,-1.488 l -1.968,-0.448 c -0.16,0.64 -0.368,1.28 -0.624,1.936 h -4.304 v 1.792 h 3.504 c -0.96,1.856 -2.288,3.536 -3.984,4.672 0.368,0.352 0.976,1.04 1.248,1.456 0.784,-0.528 1.472,-1.168 2.112,-1.872 v 6.96 h 1.888 v -3.056 h 5.776 v 0.96 c 0,0.224 -0.096,0.304 -0.368,0.32 -0.272,0 -1.2,0 -2.016,-0.048 0.24,0.512 0.496,1.312 0.576,1.84 1.296,0 2.208,-0.016 2.832,-0.32 0.656,-0.288 0.832,-0.8 0.832,-1.744 v -7.904 h -7.408 c 0.24,-0.416 0.448,-0.832 0.64,-1.264 z"
         style="font-size:16px"
         id="path1218" />
      <path
         d="m 143.2407,297.87713 h -6.896 v -1.232 h 6.896 z m 3.6,-3.344 v -1.536 h -6.08 v -0.688 h 4.704 v -1.392 h -4.704 v -0.672 h 3.936 v -0.88 h 1.824 v -3.28 h -5.616 c -0.176,-0.448 -0.416,-0.928 -0.624,-1.328 l -1.904,0.4 c 0.128,0.272 0.272,0.608 0.384,0.928 h -5.888 v 3.28 h 1.856 v -1.616 h 9.856 v 1.04 h -3.824 v -0.704 h -1.984 v 0.704 h -3.936 v 1.456 h 3.936 v 0.672 h -4.624 v 1.392 h 4.624 v 0.688 h -6.096 v 1.536 h 6.096 v 0.624 h -4.304 v 4.672 h 1.872 v -0.464 h 6.896 v 0.432 h 1.952 v -4.64 h -4.432 v -0.624 z"
         style="font-size:16px"
         id="path1220" />
      <path
         d="m 159.5607,290.10113 -1.184,0.496 c 0.512,0.72 0.848,1.344 1.248,2.224 l 1.216,-0.544 c -0.304,-0.64 -0.896,-1.6 -1.28,-2.176 z m 1.792,-0.736 -1.168,0.544 c 0.512,0.704 0.88,1.296 1.312,2.16 l 1.2,-0.576 c -0.336,-0.624 -0.944,-1.568 -1.344,-2.128 z m -12.464,-1.888 0.208,2.176 c 1.84,-0.4 5.168,-0.752 6.544,-0.896 -1.072,0.8 -2.336,2.592 -2.336,4.88 0,3.44 3.136,5.232 6.464,5.44 l 0.736,-2.192 c -2.688,-0.128 -5.12,-1.072 -5.12,-3.68 0,-1.872 1.424,-3.92 3.344,-4.432 0.848,-0.192 2.208,-0.208 3.056,-0.208 l -0.016,-2.048 c -1.12,0.048 -2.848,0.144 -4.48,0.272 -2.896,0.256 -5.52,0.496 -6.848,0.608 -0.304,0.032 -0.912,0.064 -1.552,0.08 z"
         style="font-size:16px"
         id="path1222" />
      <path
         d="m 170.71645,292.11713 c 0.608,-0.192 1.344,-0.336 2.176,-0.352 -0.528,1.28 -1.232,2.24 -2,3.008 -0.112,-0.784 -0.176,-1.648 -0.176,-2.624 z m -3.024,4.512 c -0.512,0 -0.736,-0.272 -0.736,-0.768 0,-0.896 0.8,-2.112 1.984,-2.912 0.032,1.088 0.16,2.176 0.336,3.168 -0.592,0.336 -1.136,0.512 -1.584,0.512 z m 5.872,-7.424 c -0.016,0.224 -0.08,0.624 -0.144,0.944 h -0.272 c -0.784,0 -1.616,0.112 -2.368,0.288 0.016,-0.48 0.064,-0.96 0.112,-1.424 1.952,-0.096 4.08,-0.288 5.632,-0.576 l -0.016,-1.824 c -1.744,0.416 -3.456,0.608 -5.376,0.672 0.048,-0.304 0.096,-0.592 0.16,-0.848 0.048,-0.24 0.112,-0.528 0.224,-0.848 l -2.08,-0.048 c 0.016,0.272 -0.016,0.656 -0.048,0.944 l -0.096,0.848 h -0.608 c -0.976,0 -2.368,-0.128 -2.928,-0.208 l 0.064,1.84 c 0.736,0.032 1.968,0.096 2.8,0.096 h 0.512 c -0.064,0.64 -0.112,1.312 -0.16,1.984 -2.208,1.04 -3.888,3.184 -3.888,5.2 0,1.616 0.976,2.32 2.144,2.32 0.832,0 1.68,-0.256 2.448,-0.64 0.064,0.224 0.144,0.448 0.208,0.64 l 1.824,-0.544 c -0.128,-0.384 -0.256,-0.768 -0.368,-1.184 1.2,-0.992 2.464,-2.64 3.344,-4.8 1.072,0.416 1.632,1.264 1.632,2.224 0,1.552 -1.248,3.088 -4.304,3.424 l 1.056,1.664 c 3.888,-0.576 5.216,-2.768 5.216,-4.992 0,-1.856 -1.216,-3.28 -3.056,-3.888 0.096,-0.304 0.208,-0.64 0.288,-0.816 z"
         style="font-size:16px"
         id="path1224" />
      <path
         d="m 183.19645,285.52513 c -0.016,0.448 -0.048,1.088 -0.128,1.664 -0.24,1.632 -0.448,3.6 -0.448,5.072 0,1.056 0.112,2.032 0.192,2.64 l 1.968,-0.128 c -0.096,-0.736 -0.096,-1.248 -0.08,-1.68 0.08,-2.08 1.712,-4.896 3.584,-4.896 1.312,0 2.128,1.36 2.128,3.808 0,3.84 -2.464,4.992 -5.984,5.536 l 1.2,1.84 c 4.192,-0.768 6.944,-2.912 6.944,-7.392 0,-3.488 -1.712,-5.648 -3.92,-5.648 -1.792,0 -3.168,1.344 -3.92,2.56 0.096,-0.88 0.416,-2.496 0.64,-3.28 z"
         style="font-size:16px"
         id="path1226" />
      <path
         d="m 45.083203,314.43914 h 1.488 l -0.976,0.496 c 0.368,0.416 0.816,0.96 1.088,1.392 h -1.6 z m 2.192,1.888 0.832,-0.464 c -0.256,-0.384 -0.768,-0.976 -1.2,-1.424 h 0.88 v -1.6 h -2.704 v -1.504 h 3.056 v -1.664 h -7.856 v 1.664 h 3.04 v 1.504 h -2.64 v 1.6 h 2.64 v 1.888 h -3.216 v 1.552 h 8.288 v -1.552 z m -7.792,2.48 v -10.016 h 9.472 v 10.016 z m -1.936,-11.76 v 14.32 h 1.936 v -0.8 h 9.472 v 0.8 h 2.032 v -14.32 z"
         style="font-size:16px"
         id="path1228" />
      <path
         d="m 55.291203,309.41514 h 9.984 v 1.888 h 1.952 v -3.616 h -5.696 c -0.16,-0.464 -0.432,-0.992 -0.688,-1.424 l -2.016,0.576 c 0.128,0.24 0.272,0.544 0.384,0.848 h -5.792 v 3.616 h 1.872 z m 9.36,2.752 c -0.768,0.768 -1.92,1.68 -3.024,2.416 -0.32,-0.688 -0.784,-1.36 -1.408,-1.936 0.352,-0.224 0.672,-0.48 0.96,-0.736 h 3.552 v -1.616 h -8.944 v 1.616 h 2.752 c -1.44,0.784 -3.344,1.392 -5.152,1.76 0.32,0.368 0.8,1.12 0.976,1.488 1.504,-0.4 3.056,-0.944 4.448,-1.68 0.16,0.176 0.304,0.352 0.448,0.528 -1.392,0.928 -4.016,1.936 -5.984,2.352 0.336,0.4 0.736,1.04 0.944,1.472 1.824,-0.56 4.16,-1.6 5.76,-2.608 0.096,0.208 0.176,0.416 0.24,0.608 -1.584,1.344 -4.656,2.72 -7.184,3.264 0.368,0.432 0.784,1.12 0.992,1.584 2.128,-0.64 4.64,-1.824 6.464,-3.072 0,0.768 -0.192,1.36 -0.464,1.616 -0.224,0.336 -0.48,0.384 -0.864,0.384 -0.368,0 -0.88,-0.016 -1.44,-0.08 0.32,0.528 0.48,1.28 0.512,1.808 0.464,0.016 0.944,0.032 1.296,0.016 0.832,-0.016 1.344,-0.176 1.904,-0.752 0.816,-0.672 1.2,-2.512 0.752,-4.432 0.16,-0.096 0.336,-0.192 0.496,-0.304 0.784,2.176 2.048,3.888 3.968,4.8 0.272,-0.464 0.832,-1.2 1.264,-1.552 -1.84,-0.736 -3.12,-2.32 -3.744,-4.208 0.704,-0.48 1.424,-0.992 2.064,-1.488 z"
         style="font-size:16px"
         id="path1230" />
      <path
         d="m 75.435203,315.87914 c -0.16,-0.864 -0.592,-2.272 -1.008,-3.344 l -1.392,0.448 c 0.128,0.368 0.272,0.768 0.384,1.184 l -1.824,0.224 c 1.248,-1.376 2.48,-3.04 3.44,-4.672 l -1.584,-1.008 c -0.336,0.704 -0.752,1.408 -1.168,2.08 l -1.184,0.08 c 0.848,-1.136 1.664,-2.528 2.288,-3.84 l -1.68,-0.704 c -0.624,1.712 -1.696,3.488 -2.048,3.936 -0.352,0.48 -0.624,0.784 -0.96,0.864 0.208,0.464 0.48,1.264 0.576,1.616 0.24,-0.112 0.624,-0.208 1.904,-0.352 -0.464,0.624 -0.864,1.072 -1.072,1.296 -0.512,0.592 -0.88,0.928 -1.312,1.024 0.224,0.48 0.512,1.376 0.608,1.712 0.384,-0.192 0.96,-0.304 4.4,-0.816 0.064,0.288 0.128,0.544 0.144,0.784 z m -6,1.056 c -0.096,1.28 -0.288,2.72 -0.64,3.648 0.4,0.096 1.152,0.352 1.488,0.528 0.336,-0.96 0.608,-2.496 0.704,-3.92 z m 1.984,0.208 c 0.176,1.104 0.352,2.56 0.368,3.488 l 1.536,-0.32 c -0.048,-0.944 -0.24,-2.336 -0.448,-3.456 z m 1.856,-0.32 c 0.272,0.816 0.592,1.888 0.672,2.592 l 1.472,-0.512 c -0.16,-0.704 -0.448,-1.728 -0.768,-2.528 z m 4.304,0.144 h 3.328 v 2.416 l -3.328,0.016 z m 3.328,-8.016 v 2.304 h -3.328 v -2.304 z m 0,6.336 h -3.328 v -2.32 h 3.328 z m 1.808,4.096 v -12.144 h -6.864 v 12.16 h -1.232 v 1.696 h 9.104 v -1.712 z"
         style="font-size:16px"
         id="path1232" />
      <path
         d="m 99.723203,310.40714 c -0.272,-0.8 -0.832,-2.032 -1.408,-2.976 l -1.344,0.576 c 0.512,0.928 1.104,2.224 1.328,3.04 z m -9.52,5.52 c -0.128,-0.8 -0.464,-2.112 -0.8,-3.136 l -1.136,0.288 c 0.112,0.352 0.224,0.752 0.32,1.136 l -1.312,0.24 c 1.072,-1.392 2.112,-3.104 2.928,-4.752 l -1.392,-0.752 c -0.256,0.672 -0.576,1.344 -0.912,1.984 l -1.024,0.064 c 0.704,-1.152 1.376,-2.544 1.856,-3.888 l -1.536,-0.608 c -0.448,1.664 -1.296,3.44 -1.584,3.888 -0.288,0.48 -0.528,0.784 -0.8,0.864 0.176,0.416 0.432,1.168 0.512,1.488 0.224,-0.112 0.576,-0.192 1.76,-0.336 -0.448,0.736 -0.816,1.296 -1.024,1.536 -0.432,0.608 -0.752,0.976 -1.12,1.056 0.176,0.4 0.432,1.152 0.512,1.424 0.304,-0.16 0.8,-0.32 3.44,-0.864 0.048,0.272 0.096,0.528 0.128,0.752 z m -4.832,1.008 c -0.096,1.28 -0.256,2.688 -0.608,3.648 0.304,0.08 0.896,0.256 1.168,0.4 0.336,-0.976 0.56,-2.464 0.656,-3.856 z m 1.504,0.192 c 0.176,1.056 0.336,2.432 0.352,3.36 l 1.216,-0.288 c -0.048,-0.912 -0.224,-2.256 -0.416,-3.344 z m 1.488,-0.256 c 0.336,0.96 0.72,2.24 0.864,3.056 l 1.152,-0.4 c -0.176,-0.816 -0.56,-2.048 -0.928,-3.024 z m 3.568,0.976 v -1.024 h 1.536 v 1.024 z m 1.536,-3.28 v 0.992 h -1.536 v -0.992 z m 0.016,-5.184 c -0.08,0.544 -0.256,1.232 -0.416,1.808 h -0.848 c -0.048,-0.544 -0.208,-1.232 -0.416,-1.808 z m 4.672,3.808 c -0.208,0.704 -0.464,1.392 -0.784,2.032 -0.08,-0.752 -0.16,-1.616 -0.224,-2.544 h 2.368 v -1.488 h -2.448 c -0.064,-1.472 -0.112,-3.056 -0.112,-4.672 h -1.584 c 0.032,1.648 0.08,3.216 0.144,4.672 h -1.04 c 0.16,-0.464 0.352,-0.992 0.544,-1.52 l -1.296,-0.288 h 1.456 v -1.424 h -1.664 c -0.176,-0.48 -0.448,-1.04 -0.72,-1.488 l -1.536,0.464 c 0.16,0.288 0.32,0.672 0.464,1.024 h -1.744 v 1.424 h 1.456 l -0.896,0.208 c 0.16,0.496 0.288,1.088 0.352,1.6 h -1.168 v 1.488 h 5.872 c 0.112,1.76 0.272,3.312 0.512,4.576 -0.352,0.448 -0.72,0.864 -1.136,1.248 v -5.2 h -4.432 v 6.96 h 1.392 v -1.168 h 1.536 v 0.384 h 0.32 c -0.24,0.176 -0.48,0.336 -0.736,0.464 0.352,0.272 0.896,0.88 1.12,1.248 0.896,-0.592 1.68,-1.296 2.384,-2.08 0.416,1.2 0.96,1.888 1.696,1.888 0.544,0.016 1.232,-0.528 1.6,-2.912 -0.256,-0.16 -0.896,-0.656 -1.136,-1.024 -0.08,1.168 -0.208,1.84 -0.4,1.84 -0.224,0 -0.416,-0.496 -0.608,-1.328 0.784,-1.184 1.36,-2.544 1.824,-4.016 z"
         style="font-size:16px"
         id="path1234" />
      <path
         d="m 110.2512,317.67114 c -0.016,-0.72 -0.048,-1.888 -0.064,-2.768 0.976,-0.448 1.872,-0.8 2.576,-1.072 0.544,-0.224 1.376,-0.544 1.888,-0.672 l -0.8,-1.84 c -0.576,0.272 -1.136,0.544 -1.744,0.816 -0.656,0.288 -1.328,0.56 -2.144,0.944 -0.352,-0.816 -1.152,-1.232 -2.112,-1.232 -0.528,0 -1.376,0.112 -1.792,0.32 0.336,-0.464 0.656,-1.04 0.912,-1.6 1.696,-0.064 3.648,-0.192 5.168,-0.416 l 0.016,-1.856 c -1.392,0.256 -2.992,0.384 -4.48,0.464 0.192,-0.64 0.304,-1.184 0.384,-1.568 l -2.08,-0.176 c -0.016,0.448 -0.128,1.088 -0.32,1.808 h -0.768 c -0.8,0 -1.984,-0.048 -2.784,-0.176 v 1.856 c 0.864,0.08 2.032,0.112 2.672,0.112 h 0.192 c -0.704,1.408 -1.824,2.816 -3.488,4.352 l 1.696,1.264 c 0.544,-0.688 0.992,-1.264 1.472,-1.744 0.608,-0.576 1.584,-1.088 2.48,-1.088 0.432,0 0.848,0.144 1.104,0.544 -1.808,0.928 -3.728,2.208 -3.728,4.224 0,2.048 1.872,2.64 4.352,2.64 1.488,0 3.424,-0.128 4.48,-0.256 l 0.064,-2.064 c -1.392,0.288 -3.152,0.464 -4.496,0.464 -1.552,0 -2.304,-0.24 -2.304,-1.12 0,-0.784 0.64,-1.408 1.808,-2.048 -0.016,0.688 -0.032,1.424 -0.064,1.888 z"
         style="font-size:16px"
         id="path1236" />
      <path
         d="m 119.6112,312.99914 c 0.016,-0.432 0.048,-0.88 0.064,-1.344 h 3.936 v -4.704 h -6.096 v 1.68 h 4.16 v 1.328 h -3.76 c -0.032,1.52 -0.144,3.424 -0.288,4.656 h 4.24 c -0.032,0.8 -0.08,1.488 -0.128,2.064 l -0.88,0.272 0.464,-0.992 c -0.704,-0.384 -2.128,-0.88 -3.104,-1.152 l -0.688,1.296 c 0.848,0.272 1.92,0.688 2.688,1.056 -1.248,0.384 -2.4,0.72 -3.248,0.944 l 0.624,1.632 c 1.168,-0.4 2.592,-0.896 3.952,-1.424 -0.096,0.592 -0.192,0.896 -0.304,1.04 -0.144,0.176 -0.272,0.224 -0.512,0.224 -0.272,0 -0.768,-0.016 -1.344,-0.08 0.272,0.48 0.464,1.184 0.48,1.68 0.752,0.032 1.424,0.032 1.84,-0.048 0.48,-0.08 0.832,-0.208 1.152,-0.672 0.48,-0.576 0.72,-2.288 0.928,-6.688 0.016,-0.24 0.032,-0.768 0.032,-0.768 z m 7.088,0 c 0.032,-0.432 0.064,-0.88 0.08,-1.344 h 4.16 v -4.704 h -6.24 v 1.696 h 4.32 v 1.312 h -4.048 c -0.032,1.52 -0.144,3.424 -0.288,4.656 h 4.56 c -0.032,0.752 -0.064,1.408 -0.096,1.968 l -1.152,0.368 0.464,-0.976 c -0.704,-0.368 -2.128,-0.864 -3.12,-1.152 l -0.688,1.296 c 0.848,0.272 1.904,0.688 2.656,1.056 -1.152,0.368 -2.208,0.672 -2.992,0.896 l 0.624,1.632 c 1.184,-0.448 2.656,-0.976 4.08,-1.536 -0.096,0.784 -0.208,1.184 -0.352,1.36 -0.176,0.16 -0.336,0.208 -0.608,0.208 -0.336,0 -1.072,0 -1.872,-0.064 0.288,0.448 0.512,1.152 0.544,1.648 0.88,0.032 1.712,0.048 2.224,-0.032 0.576,-0.064 0.992,-0.224 1.36,-0.704 0.48,-0.592 0.672,-2.304 0.832,-6.816 0.016,-0.224 0.016,-0.768 0.016,-0.768 z"
         style="font-size:16px"
         id="path1238" />
      <path
         d="m 135.8512,306.48714 c -0.72,2.256 -1.968,4.528 -3.312,5.984 0.352,0.48 0.88,1.52 1.056,1.984 0.32,-0.384 0.656,-0.816 0.976,-1.248 v 8.128 h 1.808 v -11.216 c 0.496,-1.024 0.928,-2.064 1.28,-3.088 z m 7.344,10.496 v -4.176 c 0.544,1.504 1.216,2.944 1.968,4.176 z m -3.808,0 c 0.752,-1.184 1.424,-2.592 1.952,-4.064 v 4.064 z m 8.224,-5.904 v -1.808 h -4.416 v -2.768 h -1.856 v 2.768 h -4.048 v 1.808 h 3.152 c -0.88,2.528 -2.368,5.056 -3.984,6.496 0.432,0.32 1.04,0.992 1.36,1.44 0.512,-0.512 0.976,-1.136 1.424,-1.808 v 1.472 h 2.096 v 2.576 h 1.856 v -2.576 h 2.144 v -1.408 c 0.416,0.624 0.832,1.2 1.28,1.696 0.336,-0.496 0.992,-1.136 1.424,-1.472 -1.552,-1.456 -3.024,-3.952 -3.904,-6.416 z"
         style="font-size:16px"
         id="path1240" />
      <path
         d="m 159.0992,319.19114 c -0.64,0 -0.736,-0.144 -0.736,-1.072 v -3.072 c 1.888,-1.44 3.744,-3.232 5.232,-5.296 l -1.824,-1.248 c -0.944,1.456 -2.128,2.784 -3.408,3.936 v -5.776 h -2.064 v 7.424 c -1.024,0.752 -2.08,1.344 -3.072,1.824 v -5.84 c 0.592,-1.008 1.12,-2.048 1.552,-3.072 l -1.936,-0.64 c -0.88,2.304 -2.448,4.56 -4.048,5.984 0.352,0.448 0.976,1.472 1.216,1.936 0.4,-0.4 0.8,-0.832 1.2,-1.312 v 8.4 h 2.016 v -5.248 c 0.464,0.384 0.992,0.944 1.248,1.312 0.608,-0.288 1.2,-0.608 1.824,-0.992 v 1.648 c 0,2.304 0.56,3.008 2.528,3.008 h 2.336 c 1.904,0 2.4,-1.168 2.608,-4.272 -0.544,-0.128 -1.392,-0.528 -1.872,-0.912 -0.128,2.64 -0.24,3.28 -0.928,3.28 z"
         style="font-size:16px"
         id="path1242" />
      <path
         d="m 167.3232,314.77514 c -0.256,0.912 -0.448,1.904 -0.448,2.608 0,2.208 1.712,3.408 4.896,3.408 2.064,0 3.392,-0.224 4.272,-0.384 l 0.048,-2.096 c -1.168,0.24 -2.112,0.464 -4.32,0.464 -2.24,0 -2.832,-0.784 -2.832,-1.936 0,-0.464 0.24,-1.376 0.432,-1.888 z m 10.336,-6.224 c -1.008,0.336 -2,0.592 -3.104,0.8 -0.352,-0.832 -0.656,-1.584 -0.928,-2.416 l -2.24,0.432 c 0.336,0.56 0.496,0.88 0.784,1.52 0.096,0.24 0.208,0.496 0.336,0.752 -1.68,0.16 -3.648,0.128 -5.92,-0.16 l 0.064,2.032 c 2.512,0.208 4.736,0.208 6.672,0 0.464,0.992 1.008,2.096 1.392,2.896 -0.48,-0.032 -1.344,-0.128 -1.872,-0.176 l -0.176,1.632 c 1.168,0.144 2.736,0.4 3.6,0.576 l 1.12,-1.2 c -0.688,-1.264 -1.44,-2.768 -2.048,-4.048 0.96,-0.192 1.888,-0.416 2.688,-0.64 z"
         style="font-size:16px"
         id="path1244" />
      <path
         d="m 190.3472,307.47914 c 0.048,0.288 0.112,1.04 0.112,1.44 v 1.792 c -1.44,0.128 -2.976,0.272 -4.32,0.4 0.016,-0.624 0.016,-1.152 0.016,-1.52 0,-0.672 0.032,-1.12 0.096,-1.648 h -2.24 c 0.08,0.56 0.128,1.104 0.128,1.76 v 1.6 l -1.2,0.112 c -0.8,0.064 -1.536,0.096 -1.984,0.096 l 0.208,2.032 c 0.416,-0.064 1.408,-0.224 1.904,-0.288 l 1.072,-0.112 c 0,1.488 0,3.024 0.016,3.696 0.064,2.736 0.56,3.6 4.672,3.6 1.504,0 3.44,-0.128 4.512,-0.256 l 0.08,-2.176 c -1.184,0.224 -3.184,0.416 -4.736,0.416 -2.384,0 -2.512,-0.352 -2.56,-1.904 -0.032,-0.672 -0.016,-2.128 0,-3.584 1.36,-0.144 2.912,-0.288 4.304,-0.4 -0.016,0.752 -0.048,1.472 -0.112,1.904 -0.048,0.304 -0.176,0.368 -0.496,0.368 -0.32,0 -0.96,-0.096 -1.456,-0.192 l -0.048,1.744 c 0.56,0.096 1.824,0.24 2.384,0.24 0.816,0 1.216,-0.208 1.376,-1.04 0.128,-0.672 0.192,-1.968 0.24,-3.168 0.464,-0.032 0.88,-0.048 1.216,-0.064 0.432,-0.016 1.264,-0.032 1.536,-0.016 v -1.952 c -0.464,0.032 -1.088,0.08 -1.52,0.112 -0.368,0.016 -0.768,0.048 -1.2,0.08 0.016,-0.528 0.032,-1.088 0.048,-1.712 0.016,-0.432 0.048,-1.12 0.096,-1.36 z"
         style="font-size:16px"
         id="path1246" />
      <path
         d="m 204.1392,319.01514 c -0.928,0 -1.6,-0.4 -1.6,-0.992 0,-0.4 0.384,-0.752 0.976,-0.752 0.864,0 1.456,0.672 1.552,1.696 -0.288,0.032 -0.592,0.048 -0.928,0.048 z m 3.488,-11.424 c -0.192,0.048 -0.56,0.112 -1.216,0.16 -0.896,0.08 -4.288,0.16 -5.12,0.16 -0.448,0 -0.992,-0.032 -1.44,-0.08 l 0.064,2.064 c 0.368,-0.064 0.864,-0.112 1.296,-0.128 0.832,-0.064 3.008,-0.16 3.824,-0.176 -0.784,0.688 -2.432,2.016 -3.312,2.752 -0.944,0.768 -2.848,2.384 -3.968,3.296 l 1.44,1.488 c 1.696,-1.92 3.28,-3.216 5.712,-3.216 1.84,0 3.28,0.96 3.28,2.384 0,0.96 -0.432,1.696 -1.296,2.16 -0.24,-1.504 -1.424,-2.704 -3.376,-2.704 -1.68,0 -2.848,1.184 -2.848,2.464 0,1.584 1.664,2.592 3.872,2.592 3.824,0 5.728,-1.984 5.728,-4.48 0,-2.304 -2.048,-3.984 -4.736,-3.984 -0.512,0 -0.96,0.032 -1.488,0.176 0.992,-0.8 2.656,-2.208 3.504,-2.8 0.352,-0.24 0.72,-0.48 1.104,-0.72 z"
         style="font-size:16px"
         id="path1248" />
      <path
         d="m 216.7472,318.55114 c -0.416,0 -1.152,-0.448 -1.152,-0.928 0,-0.56 0.64,-1.216 1.616,-1.712 0.032,0.832 0.048,1.552 0.048,1.952 0,0.544 -0.224,0.688 -0.512,0.688 z m 2.256,-5.696 c 0,-0.464 0,-0.944 0.016,-1.424 1.04,-0.128 2.128,-0.288 3.024,-0.496 l -0.048,-1.984 c -0.832,0.24 -1.872,0.448 -2.912,0.592 0.016,-0.4 0.032,-0.784 0.048,-1.136 0.032,-0.4 0.096,-1.088 0.128,-1.376 h -2.176 c 0.048,0.288 0.112,1.056 0.112,1.392 0,0.272 0,0.736 -0.016,1.296 -0.32,0.016 -0.624,0.032 -0.912,0.032 -0.576,0 -1.264,-0.016 -2.192,-0.128 l 0.032,1.92 c 0.688,0.064 1.488,0.08 2.208,0.08 0.256,0 0.544,-0.016 0.848,-0.032 v 1.328 c 0,0.368 0,0.736 0.016,1.104 -1.936,0.848 -3.552,2.272 -3.552,3.664 0,1.68 2.192,3.008 3.744,3.008 1.024,0 1.744,-0.512 1.744,-2.48 0,-0.544 -0.048,-1.76 -0.08,-3.024 0.976,-0.272 2,-0.432 2.976,-0.432 1.376,0 2.336,0.624 2.336,1.696 0,1.152 -1.024,1.808 -2.304,2.032 -0.56,0.096 -1.232,0.112 -1.952,0.112 l 0.736,2.032 c 0.624,-0.032 1.344,-0.096 2.08,-0.256 2.512,-0.624 3.488,-2.032 3.488,-3.904 0,-2.176 -1.92,-3.472 -4.352,-3.472 -0.88,0 -1.968,0.144 -3.04,0.416 z m 3.904,-2.56 c 0.992,0.48 3.056,1.648 3.808,2.304 l 0.96,-1.632 c -0.832,-0.592 -2.672,-1.632 -3.888,-2.224 z"
         style="font-size:16px"
         id="path1250" />
      <path
         d="m 80.251203,329.32116 0.096,2.032 c 0.496,-0.048 1.024,-0.112 1.424,-0.144 0.64,-0.064 2.592,-0.16 3.232,-0.208 -0.976,0.88 -3.04,2.672 -4.464,3.6 -0.816,0.096 -1.92,0.24 -2.768,0.32 l 0.192,1.92 c 1.584,-0.272 3.36,-0.512 4.8,-0.624 -0.576,0.544 -1.152,1.52 -1.152,2.496 0,2.64 2.368,3.856 6.432,3.68 l 0.416,-2.08 c -0.592,0.048 -1.536,0.064 -2.416,-0.032 -1.424,-0.176 -2.4,-0.656 -2.4,-1.904 0,-1.296 1.216,-2.32 2.672,-2.528 0.96,-0.128 2.544,-0.128 4.064,-0.032 v -1.872 c -1.936,0 -4.544,0.16 -6.672,0.384 1.072,-0.848 2.64,-2.16 3.776,-3.056 0.32,-0.272 0.912,-0.656 1.232,-0.88 l -1.248,-1.456 c -0.224,0.064 -0.592,0.144 -1.104,0.192 -0.96,0.112 -3.936,0.256 -4.608,0.256 -0.544,0 -1.008,-0.016 -1.504,-0.064 z"
         style="font-size:16px"
         id="path1252" />
      <path
         d="m 107.5312,338.39316 c -0.704,0.72 -1.456,1.12 -2.032,1.12 -0.4,0 -0.608,-0.272 -0.608,-0.688 0,-1.648 0.528,-3.968 0.528,-5.616 0,-1.328 -0.8,-2.336 -2.496,-2.336 -1.536,0 -3.359997,1.264 -4.607997,2.352 0.016,-0.112 0.032,-0.224 0.032,-0.336 0.272,-0.416 0.608,-0.928 0.816,-1.2 l -0.592,-0.752 c 0.128,-0.992 0.256,-1.808 0.352,-2.256 l -2.32,-0.064 c 0.08,0.48 0.064,0.96 0.064,1.408 0,0.176 -0.032,0.624 -0.064,1.216 -0.672,0.096 -1.36,0.176 -1.824,0.208 -0.56,0.032 -0.928,0.032 -1.376,0.016 l 0.192,2.032 c 0.896,-0.112 2.112,-0.272 2.88,-0.368 l -0.064,1.104 c -0.896,1.328 -2.496,3.44 -3.392,4.528 l 1.248,1.76 c 0.544,-0.752 1.312,-1.92 2,-2.928 -0.032,1.344 -0.032,2.256 -0.064,3.488 0,0.256 -0.016,0.832 -0.048,1.168 h 2.176 c -0.032,-0.352 -0.096,-0.928 -0.112,-1.216 -0.096,-1.488 -0.096,-2.816 -0.096,-4.112 0,-0.4 0.016,-0.832 0.032,-1.28 1.28,-1.424 3.007997,-2.88 4.191997,-2.88 0.656,0 1.056,0.384 1.056,1.168 0,1.44 -0.56,3.76 -0.56,5.488 0,1.52 0.8,2.4 1.984,2.4 1.28,0 2.256,-0.512 2.976,-1.2 z"
         style="font-size:16px"
         id="path1254" />
      <path
         d="m 123.9632,329.84916 c -0.272,-0.56 -0.864,-1.568 -1.296,-2.176 l -1.264,0.528 c 0.448,0.592 0.96,1.536 1.296,2.208 z m -10.752,-1.04 c 0.016,0.992 -0.112,2.144 -0.336,3.36 -0.8,0.064 -1.552,0.112 -2.048,0.128 -0.576,0.016 -1.104,0.048 -1.68,0 l 0.176,2.144 c 0.496,-0.08 1.312,-0.192 1.76,-0.24 0.304,-0.048 0.8,-0.112 1.36,-0.176 -0.56,2.16 -1.648,5.328 -3.184,7.408 l 2.064,0.832 c 1.456,-2.336 2.608,-6.064 3.232,-8.464 0.448,-0.032 0.832,-0.064 1.088,-0.064 0.992,0 1.536,0.176 1.536,1.44 0,1.568 -0.208,3.456 -0.64,4.336 -0.256,0.528 -0.656,0.688 -1.184,0.688 -0.416,0 -1.344,-0.16 -1.952,-0.336 l 0.352,2.096 c 0.528,0.128 1.296,0.224 1.888,0.224 1.216,0 2.08,-0.352 2.608,-1.456 0.672,-1.376 0.896,-3.904 0.896,-5.776 0,-2.272 -1.184,-3.024 -2.864,-3.024 -0.32,0 -0.8,0.032 -1.328,0.064 0.112,-0.576 0.24,-1.152 0.336,-1.632 0.08,-0.4 0.176,-0.896 0.272,-1.312 z m 8.848,1.776 c -0.32,-0.592 -0.88,-1.6 -1.28,-2.192 l -1.264,0.528 c 0.368,0.512 0.768,1.28 1.088,1.888 l -1.472,0.624 c 1.136,1.408 2.256,4.208 2.672,5.968 l 2.016,-0.944 c -0.464,-1.392 -1.648,-4.064 -2.576,-5.52 z"
         style="font-size:16px"
         id="path1256" />
      <path
         d="m 131.4352,335.22516 c 0.608,-0.192 1.344,-0.336 2.176,-0.352 -0.528,1.28 -1.232,2.24 -2,3.008 -0.112,-0.784 -0.176,-1.648 -0.176,-2.624 z m -3.024,4.512 c -0.512,0 -0.736,-0.272 -0.736,-0.768 0,-0.896 0.8,-2.112 1.984,-2.912 0.032,1.088 0.16,2.176 0.336,3.168 -0.592,0.336 -1.136,0.512 -1.584,0.512 z m 5.872,-7.424 c -0.016,0.224 -0.08,0.624 -0.144,0.944 h -0.272 c -0.784,0 -1.616,0.112 -2.368,0.288 0.016,-0.48 0.064,-0.96 0.112,-1.424 1.952,-0.096 4.08,-0.288 5.632,-0.576 l -0.016,-1.824 c -1.744,0.416 -3.456,0.608 -5.376,0.672 0.048,-0.304 0.096,-0.592 0.16,-0.848 0.048,-0.24 0.112,-0.528 0.224,-0.848 l -2.08,-0.048 c 0.016,0.272 -0.016,0.656 -0.048,0.944 l -0.096,0.848 h -0.608 c -0.976,0 -2.368,-0.128 -2.928,-0.208 l 0.064,1.84 c 0.736,0.032 1.968,0.096 2.8,0.096 h 0.512 c -0.064,0.64 -0.112,1.312 -0.16,1.984 -2.208,1.04 -3.888,3.184 -3.888,5.2 0,1.616 0.976,2.32 2.144,2.32 0.832,0 1.68,-0.256 2.448,-0.64 0.064,0.224 0.144,0.448 0.208,0.64 l 1.824,-0.544 c -0.128,-0.384 -0.256,-0.768 -0.368,-1.184 1.2,-0.992 2.464,-2.64 3.344,-4.8 1.072,0.416 1.632,1.264 1.632,2.224 0,1.552 -1.248,3.088 -4.304,3.424 l 1.056,1.664 c 3.888,-0.576 5.216,-2.768 5.216,-4.992 0,-1.856 -1.216,-3.28 -3.056,-3.888 0.096,-0.304 0.208,-0.64 0.288,-0.816 z"
         style="font-size:16px"
         id="path1258" />
      <path
         d="m 143.9152,328.63316 c -0.016,0.448 -0.048,1.088 -0.128,1.664 -0.24,1.632 -0.448,3.6 -0.448,5.072 0,1.056 0.112,2.032 0.192,2.64 l 1.968,-0.128 c -0.096,-0.736 -0.096,-1.248 -0.08,-1.68 0.08,-2.08 1.712,-4.896 3.584,-4.896 1.312,0 2.128,1.36 2.128,3.808 0,3.84 -2.464,4.992 -5.984,5.536 l 1.2,1.84 c 4.192,-0.768 6.944,-2.912 6.944,-7.392 0,-3.488 -1.712,-5.648 -3.92,-5.648 -1.792,0 -3.168,1.344 -3.92,2.56 0.096,-0.88 0.416,-2.496 0.64,-3.28 z"
         style="font-size:16px"
         id="path1260" />
      <path
         d="m 163.9152,339.43316 c 0,0.912 -0.544,1.168 -1.392,1.168 -1.088,0 -1.648,-0.384 -1.648,-0.976 0,-0.544 0.608,-0.976 1.728,-0.976 0.448,0 0.88,0.048 1.296,0.112 0.016,0.272 0.016,0.496 0.016,0.672 z m 6.336,0.4 c -0.912,-0.768 -2.432,-1.824 -4.432,-2.4 -0.048,-0.608 -0.08,-1.248 -0.112,-1.84 1.536,-0.048 2.768,-0.16 4.192,-0.32 v -1.872 c -1.296,0.16 -2.624,0.304 -4.224,0.368 l 0.016,-1.648 c 1.52,-0.08 2.8,-0.208 3.84,-0.304 l -0.048,-1.824 c -1.376,0.208 -2.544,0.336 -3.776,0.384 l 0.016,-0.624 c 0.016,-0.4 0.064,-0.8 0.112,-1.12 h -2.16 c 0.064,0.304 0.08,0.8 0.08,1.088 v 0.72 h -0.784 c -0.976,0 -2.448,-0.112 -3.44,-0.304 l 0.016,1.808 c 0.912,0.144 2.432,0.24 3.44,0.24 h 0.752 v 1.648 h -0.752 c -0.848,0 -2.912,-0.112 -3.824,-0.288 l -0.016,1.872 c 1.056,0.128 2.88,0.208 3.808,0.208 h 0.816 c 0.016,0.464 0.032,0.96 0.064,1.44 -0.32,-0.032 -0.64,-0.048 -0.976,-0.048 -2.448,0 -3.92,1.12 -3.92,2.72 0,1.68 1.344,2.64 3.872,2.64 2.096,0 3.12,-1.04 3.12,-2.4 0,-0.16 0,-0.352 -0.016,-0.56 1.264,0.576 2.352,1.392 3.2,2.192 z"
         style="font-size:16px"
         id="path1262" />
      <path
         d="m 178.7312,336.26516 c 0,-0.832 0.608,-1.248 1.216,-1.248 0.448,0 0.816,0.176 1.04,0.56 0.208,1.376 -0.384,1.872 -1.04,1.872 -0.624,0 -1.216,-0.448 -1.216,-1.184 z m 8.448,-5.744 c -0.832,-0.016 -2.992,0 -4.592,0 0,-0.192 0.016,-0.352 0.016,-0.48 0.016,-0.256 0.064,-1.104 0.112,-1.36 h -2.304 c 0.064,0.256 0.112,0.864 0.144,1.376 0.016,0.112 0.016,0.288 0.016,0.48 -2.128,0.032 -5.008,0.112 -6.816,0.112 l 0.048,1.92 c 1.952,-0.112 4.4,-0.208 6.8,-0.24 l 0.016,1.056 c -0.192,-0.032 -0.4,-0.048 -0.624,-0.048 -1.728,0 -3.168,1.168 -3.168,2.96 0,1.936 1.504,2.912 2.736,2.912 0.256,0 0.496,-0.032 0.72,-0.08 -0.88,0.944 -2.272,1.472 -3.872,1.808 l 1.68,1.696 c 3.872,-1.088 5.088,-3.712 5.088,-5.776 0,-0.832 -0.192,-1.6 -0.592,-2.192 0,-0.688 0,-1.552 -0.016,-2.352 2.144,0 3.632,0.032 4.592,0.08 z"
         style="font-size:16px"
         id="path1264" />
    </g>
  </g>
</svg>
