<?xml version="1.0" encoding="UTF-8" standalone="no"?>
<!-- Created with Inkscape (http://www.inkscape.org/) -->

<svg
   xmlns:dc="http://purl.org/dc/elements/1.1/"
   xmlns:cc="http://creativecommons.org/ns#"
   xmlns:rdf="http://www.w3.org/1999/02/22-rdf-syntax-ns#"
   xmlns:svg="http://www.w3.org/2000/svg"
   xmlns="http://www.w3.org/2000/svg"
   xmlns:xlink="http://www.w3.org/1999/xlink"
   xmlns:sodipodi="http://sodipodi.sourceforge.net/DTD/sodipodi-0.dtd"
   xmlns:inkscape="http://www.inkscape.org/namespaces/inkscape"
   width="70mm"
   height="100mm"
   viewBox="0 0 70 100"
   version="1.1"
   id="svg8"
   inkscape:version="0.92.2 2405546, 2018-03-11"
   sodipodi:docname="sticker.de.svg"
   inkscape:export-filename="/tmp/sticker.de.png"
   inkscape:export-xdpi="300"
   inkscape:export-ydpi="300">
  <defs
     id="defs2" />
  <sodipodi:namedview
     id="base"
     pagecolor="#ffffff"
     bordercolor="#666666"
     borderopacity="1.0"
     inkscape:pageopacity="0.0"
     inkscape:pageshadow="2"
     inkscape:zoom="1.4"
     inkscape:cx="-47.452468"
     inkscape:cy="144.03217"
     inkscape:document-units="mm"
     inkscape:current-layer="layer1"
     showgrid="false"
     showguides="true"
     inkscape:guide-bbox="true"
     inkscape:snap-to-guides="true"
     inkscape:snap-grids="true"
     inkscape:snap-page="true"
     inkscape:snap-bbox="true"
     inkscape:bbox-nodes="true"
     inkscape:bbox-paths="true"
     inkscape:window-width="2560"
     inkscape:window-height="1311"
     inkscape:window-x="0"
     inkscape:window-y="55"
     inkscape:window-maximized="1"
     inkscape:pagecheckerboard="true"
     inkscape:measure-start="0,0"
     inkscape:measure-end="0,0">
    <sodipodi:guide
       position="5,91.472997"
       orientation="1,0"
       id="guide889"
       inkscape:locked="false"
       inkscape:label=""
       inkscape:color="rgb(0,0,255)" />
    <sodipodi:guide
       position="65,88.533032"
       orientation="1,0"
       id="guide891"
       inkscape:locked="false"
       inkscape:label=""
       inkscape:color="rgb(0,0,255)" />
    <sodipodi:guide
       position="28.86511,95"
       orientation="0,1"
       id="guide893"
       inkscape:locked="false"
       inkscape:label=""
       inkscape:color="rgb(0,0,255)" />
    <sodipodi:guide
       position="36.348657,5"
       orientation="0,1"
       id="guide895"
       inkscape:locked="false"
       inkscape:label=""
       inkscape:color="rgb(0,0,255)" />
    <sodipodi:guide
       position="9,45.435819"
       orientation="1,0"
       id="guide951"
       inkscape:locked="false"
       inkscape:label=""
       inkscape:color="rgb(0,0,255)" />
    <sodipodi:guide
       position="61,64.54559"
       orientation="1,0"
       id="guide953"
       inkscape:locked="false"
       inkscape:label=""
       inkscape:color="rgb(0,0,255)" />
    <sodipodi:guide
       position="25.52424,8"
       orientation="0,1"
       id="guide955"
       inkscape:locked="false"
       inkscape:label=""
       inkscape:color="rgb(0,0,255)" />
    <sodipodi:guide
       position="26.125597,31"
       orientation="0,1"
       id="guide957"
       inkscape:locked="false"
       inkscape:label=""
       inkscape:color="rgb(0,0,255)" />
  </sodipodi:namedview>
  <metadata
     id="metadata5">
    <rdf:RDF>
      <cc:Work
         rdf:about="">
        <dc:format>image/svg+xml</dc:format>
        <dc:type
           rdf:resource="http://purl.org/dc/dcmitype/StillImage" />
        <dc:title />
      </cc:Work>
    </rdf:RDF>
  </metadata>
  <g
     inkscape:label="Layer 1"
     inkscape:groupmode="layer"
     id="layer1"
     transform="translate(0,-197)">
    <rect
       style="fill:#ffffff;fill-opacity:1;stroke:none;stroke-width:1;stroke-linecap:square;stroke-miterlimit:4;stroke-dasharray:none;stroke-opacity:1"
       id="rect858"
       width="70"
       height="100"
       x="0"
       y="197" />
    <g
       id="g875"
       transform="translate(-2.0000006,5.4790253)"
       inkscape:export-xdpi="352.57999"
       inkscape:export-ydpi="352.57999">
      <g
         transform="matrix(1.3011002,0,0,1.3011002,16.420217,-75.468301)"
         id="g915">
        <path
           inkscape:connector-curvature="0"
           d="m 15.817084,222.05063 c -5.391414,0 -9.7639184,4.37197 -9.7639184,9.76365 0,1.07791 0.174625,2.11455 0.4974166,3.08425 h 2.9199417 v -8.21505 l 6.3465601,6.34656 6.346561,-6.34656 v 8.21505 h 2.920206 c 0.322791,-0.9697 0.497416,-2.00634 0.497416,-3.08425 0,-5.39168 -4.372504,-9.76365 -9.764183,-9.76365"
           id="path22"
           style="fill:#ff6600;stroke-width:0.26458332" />
        <path
           inkscape:connector-curvature="0"
           d="m 11.58809,231.71921 v 5.16917 H 7.4738193 c 1.7139708,2.81199 4.8095957,4.69 8.3431057,4.69 3.533511,0 6.6294,-1.87801 8.343107,-4.69 h -4.114007 v -5.16917 l -4.2291,4.2291 z"
           id="path26"
           style="fill:#4c4c4c;stroke-width:0.26458332" />
      </g>
      <g
         transform="matrix(0.88274719,0,0,0.88274719,-10.947117,38.872224)"
         id="g911">
        <path
           inkscape:connector-curvature="0"
           d="m 78.102302,234.59405 c -0.516202,0.53154 -1.142206,0.79639 -1.878277,0.79639 -0.650346,0 -1.225285,-0.20426 -1.728523,-0.61489 -0.646906,-0.52361 -0.969962,-1.23666 -0.969962,-2.13889 0,-0.80778 0.257175,-1.47532 0.771525,-1.99919 0.512497,-0.52573 1.14591,-0.78687 1.900766,-0.78687 0.745331,0 1.379008,0.26881 1.898915,0.80565 0.522023,0.53711 0.782902,1.1938 0.782902,1.97088 0,0.7792 -0.258763,1.43352 -0.777346,1.96692 m 1.083998,-5.01042 c -0.828675,-0.8337 -1.81954,-1.25174 -2.973388,-1.25174 -0.760412,0 -1.471347,0.19129 -2.129366,0.57308 -0.6604,0.38206 -1.178719,0.90012 -1.554956,1.5547 -0.376503,0.65431 -0.565415,1.37133 -0.565415,2.15026 0,1.16338 0.404548,2.16747 1.214437,3.01334 0.809096,0.8472 1.825096,1.26895 3.046413,1.26895 1.167077,0 2.160323,-0.41037 2.979208,-1.23508 0.818886,-0.82285 1.227402,-1.83065 1.227402,-3.02048 0,-1.19936 -0.414337,-2.21668 -1.244335,-3.05303"
           id="path30"
           style="fill:#4c4c4c;stroke-width:0.26458332" />
        <path
           inkscape:connector-curvature="0"
           d="m 69,231.47434 c -0.196585,0.13706 -0.289454,0.20453 -0.809625,0.20453 h -2.046816 v -1.75102 h 1.983316 c 0.397669,0 0.468048,0.0299 0.631032,0.0913 0.162454,0.0595 0.29157,0.15902 0.388937,0.29581 0.09737,0.13705 0.144992,0.29977 0.144992,0.4863 0,0.3138 -0.09737,0.53817 -0.291836,0.6731 m 0.246063,1.61211 c 0.542131,-0.19473 0.94906,-0.48048 1.218935,-0.85752 0.27014,-0.37914 0.403225,-0.84798 0.403225,-1.41155 0,-0.53419 -0.120914,-0.9988 -0.365389,-1.38985 -0.244211,-0.39106 -0.567796,-0.67099 -0.96864,-0.83979 -0.401108,-0.16881 -1.074208,-0.254 -2.021152,-0.254 h -2.997464 v 8.55662 h 1.627981 v -3.6232 h 1.420812 l 1.926167,3.6232 h 1.780646 z"
           id="path34"
           style="fill:#4c4c4c;stroke-width:0.26458332" />
        <path
           inkscape:connector-curvature="0"
           d="m 57.217787,228.33189 h 5.547783 v 1.59411 h -3.929591 v 1.75128 h 3.929591 v 1.56633 h -3.929591 v 2.0447 h 3.929591 v 1.60047 h -5.547783 z"
           id="path38"
           style="fill:#4c4c4c;stroke-width:0.26458332" />
        <path
           inkscape:connector-curvature="0"
           d="m 48.621925,228.33189 h 1.55866 l 3.670829,5.63033 v -5.63033 h 1.627981 v 8.55662 h -1.564481 l -3.665008,-5.61234 v 5.61234 h -1.627981 z"
           id="path42"
           style="fill:#4c4c4c;stroke-width:0.26458332" />
        <use
           transform="translate(-33.088422,-1.0786894e-6)"
           id="use46"
           x="0"
           y="0"
           width="282"
           height="75"
           xlink:href="#path30" />
        <path
           inkscape:connector-curvature="0"
           d="m 29.678129,228.33165 h 1.594114 l 1.977231,5.9682 2.007394,-5.9682 h 1.570302 l 1.441715,8.55689 h -1.570567 l -0.919162,-5.40412 -1.820598,5.40412 h -1.435629 l -1.796521,-5.40412 -0.937154,5.40412 H 28.20096 Z"
           id="path50"
           style="fill:#4c4c4c;stroke-width:0.26458332" />
      </g>
    </g>
    <flowRoot
       xml:space="preserve"
       id="flowRoot840"
       style="font-style:normal;font-weight:normal;font-size:26.66666603px;line-height:1.25;font-family:sans-serif;letter-spacing:0px;word-spacing:0px;fill:#000000;fill-opacity:1;stroke:none"><flowRegion
         id="flowRegion842"><rect
           id="rect844"
           width="77.781746"
           height="47.477169"
           x="239.40616"
           y="264.52042" /></flowRegion><flowPara
         id="flowPara846" /></flowRoot>    <flowRoot
       xml:space="preserve"
       id="flowRoot866"
       style="font-style:normal;font-variant:normal;font-weight:bold;font-stretch:normal;font-size:16px;line-height:1.25;font-family:'Century Gothic';-inkscape-font-specification:'Century Gothic Bold';text-align:center;letter-spacing:0px;word-spacing:0px;text-anchor:middle;fill:#000000;fill-opacity:1;stroke:none"
       transform="matrix(0.26458333,0,0,0.26458333,0,192)"><flowRegion
         id="flowRegion868"
         style="font-size:16px"><rect
           id="rect870"
           width="241.88977"
           height="148.28261"
           x="18.897638"
           y="229.67015"
           style="font-size:16px" /></flowRegion><flowPara
         id="flowPara872" /></flowRoot>    <flowRoot
       xml:space="preserve"
       id="flowRoot874"
       style="font-style:normal;font-variant:normal;font-weight:bold;font-stretch:normal;font-size:26.66666603px;line-height:1.25;font-family:'Century Gothic';-inkscape-font-specification:'Century Gothic Bold';text-align:center;letter-spacing:0px;word-spacing:0px;text-anchor:middle;fill:#000000;fill-opacity:1;stroke:none"><flowRegion
         id="flowRegion876"><rect
           id="rect878"
           width="241.88977"
           height="148.28261"
           x="18.897638"
           y="229.67015" /></flowRegion><flowPara
         id="flowPara880" /></flowRoot>    <g
       id="g861">
      <path
         inkscape:connector-curvature="0"
         id="rect861"
         d="M 5,263.0024 V 263.44051 292 h 60 v -28.9976 z m 0.874399,0.8744 h 58.251202 v 27.24879 H 5.874399 Z"
         style="color:#000000;font-style:normal;font-variant:normal;font-weight:normal;font-stretch:normal;font-size:medium;line-height:normal;font-family:sans-serif;font-variant-ligatures:normal;font-variant-position:normal;font-variant-caps:normal;font-variant-numeric:normal;font-variant-alternates:normal;font-feature-settings:normal;text-indent:0;text-align:start;text-decoration:none;text-decoration-line:none;text-decoration-style:solid;text-decoration-color:#000000;letter-spacing:normal;word-spacing:normal;text-transform:none;writing-mode:lr-tb;direction:ltr;text-orientation:mixed;dominant-baseline:auto;baseline-shift:baseline;text-anchor:start;white-space:normal;shape-padding:0;clip-rule:nonzero;display:inline;overflow:visible;visibility:visible;opacity:1;isolation:auto;mix-blend-mode:normal;color-interpolation:sRGB;color-interpolation-filters:linearRGB;solid-color:#000000;solid-opacity:1;vector-effect:none;fill:#4c4c4c;fill-opacity:1;fill-rule:nonzero;stroke:none;stroke-width:0.87388474;stroke-linecap:square;stroke-linejoin:miter;stroke-miterlimit:4;stroke-dasharray:none;stroke-dashoffset:0;stroke-opacity:1;color-rendering:auto;image-rendering:auto;shape-rendering:auto;text-rendering:auto;enable-background:accumulate" />
    </g>
    <g
       aria-label="KAUFE KEINE"
       style="font-style:normal;font-variant:normal;font-weight:bold;font-stretch:normal;font-size:10.28628826px;line-height:1.25;font-family:'Century Gothic';-inkscape-font-specification:'Century Gothic Bold';text-align:center;letter-spacing:0px;word-spacing:0px;text-anchor:middle;fill:#4c4c4c;fill-opacity:1;stroke:none;stroke-width:0.25715721"
       id="text415">
      <path
         d="M 5.0000007,202 H 6.421397 v 2.54143 L 8.425415,202 h 1.692617 l -2.5816175,3.29482 2.8327475,4.09342 H 8.7016581 L 6.421397,206.10849 v 3.27975 H 5.0000007 Z"
         style="fill:#4c4c4c;fill-opacity:1;stroke-width:0.25715721"
         id="path48" />
      <path
         d="m 13.62883,202 h 1.426419 l 2.842793,7.38824 h -1.461577 l -0.5776,-1.52184 h -3.013561 l -0.602712,1.52184 h -1.461577 z m 0.723255,1.95881 -0.98443,2.53642 h 1.963837 z"
         style="fill:#4c4c4c;fill-opacity:1;stroke-width:0.25715721"
         id="path51" />
      <path
         d="m 18.942743,202 h 1.411351 v 4.78151 q 0,0.61778 0.105475,0.87394 0.110497,0.25615 0.356605,0.41185 0.25113,0.15068 0.602712,0.15068 0.371672,0 0.63787,-0.17077 0.271221,-0.17077 0.371673,-0.43194 0.105474,-0.2662 0.105474,-1.00955 V 202 h 1.411351 v 4.40482 q 0,1.11502 -0.125565,1.54696 -0.125565,0.43194 -0.482169,0.83375 -0.351583,0.40181 -0.813662,0.59769 -0.462079,0.19086 -1.074837,0.19086 -0.803616,0 -1.401306,-0.36665 -0.592667,-0.37167 -0.848819,-0.92416 -0.256153,-0.55751 -0.256153,-1.87845 z"
         style="fill:#4c4c4c;fill-opacity:1;stroke-width:0.25715721"
         id="path53" />
      <path
         d="m 25.602713,202 h 3.666499 v 1.37117 h -2.275239 v 1.34103 h 2.275239 v 1.35108 h -2.275239 v 3.32496 h -1.39126 z"
         style="fill:#4c4c4c;fill-opacity:1;stroke-width:0.25715721"
         id="path55" />
      <path
         d="m 30.529884,202 h 4.03315 v 1.37619 h -2.636866 v 1.33601 h 2.636866 v 1.35108 h -2.636866 v 1.94375 h 2.636866 v 1.38121 h -4.03315 z"
         style="fill:#4c4c4c;fill-opacity:1;stroke-width:0.25715721"
         id="path57" />
      <path
         d="m 38.751885,202 h 1.421396 v 2.54143 L 42.177299,202 h 1.692617 l -2.581617,3.29482 2.832747,4.09342 h -1.667503 l -2.280262,-3.27975 v 3.27975 h -1.421396 z"
         style="fill:#4c4c4c;fill-opacity:1;stroke-width:0.25715721"
         id="path59" />
      <path
         d="m 45.135611,202 h 4.033149 v 1.37619 h -2.636866 v 1.33601 h 2.636866 v 1.35108 h -2.636866 v 1.94375 h 2.636866 v 1.38121 h -4.033149 z"
         style="fill:#4c4c4c;fill-opacity:1;stroke-width:0.25715721"
         id="path61" />
      <path
         d="m 50.374184,202 h 1.396283 v 7.38824 h -1.396283 z"
         style="fill:#4c4c4c;fill-opacity:1;stroke-width:0.25715721"
         id="path63" />
      <path
         d="m 53.352587,202 h 1.346057 l 3.169262,4.86188 V 202 h 1.406328 v 7.38824 h -1.35108 l -3.164239,-4.84681 v 4.84681 h -1.406328 z"
         style="fill:#4c4c4c;fill-opacity:1;stroke-width:0.25715721"
         id="path65" />
      <path
         d="m 60.966849,202 h 4.033149 v 1.37619 h -2.636866 v 1.33601 h 2.636866 v 1.35108 h -2.636866 v 1.94375 h 2.636866 v 1.38121 h -4.033149 z"
         style="fill:#4c4c4c;fill-opacity:1;stroke-width:0.25715721"
         id="path67" />
    </g>
    <g
       aria-label="Kryptowährungen sind
schädlich für das Bankwesen
und können den
Staatsapparat schwächen"
       style="font-style:normal;font-variant:normal;font-weight:bold;font-stretch:normal;font-size:3.72168469px;line-height:1.25;font-family:'Century Gothic';-inkscape-font-specification:'Century Gothic Bold';text-align:center;letter-spacing:0px;word-spacing:0px;text-anchor:middle;fill:#4c4c4c;fill-opacity:1;stroke:none;stroke-width:0.27912635"
       id="text4935">
      <path
         d="m 15.236725,269.06056 h 0.514276 v 0.91952 l 0.725074,-0.91952 h 0.612406 l -0.934056,1.1921 1.024918,1.48104 h -0.60332 l -0.825022,-1.18665 v 1.18665 h -0.514276 z"
         style="font-size:3.72168469px;text-align:center;text-anchor:middle;fill:#4c4c4c;fill-opacity:1;stroke-width:0.27912635"
         id="path70" />
      <path
         d="m 17.373786,269.75656 h 0.425232 v 0.24896 q 0.06905,-0.1472 0.18354,-0.22352 0.114485,-0.0763 0.250777,-0.0763 0.09631,0 0.201713,0.0509 l -0.154465,0.42705 q -0.08723,-0.0436 -0.143561,-0.0436 -0.114485,0 -0.194443,0.14175 -0.07814,0.14174 -0.07814,0.55607 l 0.0018,0.0963 v 0.79958 h -0.492469 z"
         style="font-size:3.72168469px;text-align:center;text-anchor:middle;fill:#4c4c4c;fill-opacity:1;stroke-width:0.27912635"
         id="path72" />
      <path
         d="m 18.462306,269.75656 h 0.507007 l 0.514276,1.24117 0.566975,-1.24117 h 0.508824 l -1.23935,2.7004 H 18.80758 l 0.407059,-0.87045 z"
         style="font-size:3.72168469px;text-align:center;text-anchor:middle;fill:#4c4c4c;fill-opacity:1;stroke-width:0.27912635"
         id="path74" />
      <path
         d="m 21.333528,269.75656 v 0.21807 q 0.134475,-0.13448 0.290756,-0.20172 0.156282,-0.0672 0.33437,-0.0672 0.38707,0 0.657837,0.29257 0.270767,0.29257 0.270767,0.75052 0,0.44158 -0.279853,0.73961 -0.279853,0.29621 -0.663288,0.29621 -0.17082,0 -0.318015,-0.06 -0.147196,-0.0618 -0.292574,-0.1999 v 0.93224 h -0.492469 v -2.7004 z m 0.521544,0.40706 q -0.234422,0 -0.388887,0.15991 -0.154464,0.15992 -0.154464,0.41797 0,0.26349 0.154464,0.42705 0.154465,0.16173 0.388887,0.16173 0.227154,0 0.381618,-0.16537 0.156282,-0.16537 0.156282,-0.4216 0,-0.25441 -0.152647,-0.41614 -0.152647,-0.16355 -0.385253,-0.16355 z"
         style="font-size:3.72168469px;text-align:center;text-anchor:middle;fill:#4c4c4c;fill-opacity:1;stroke-width:0.27912635"
         id="path76" />
      <path
         d="m 23.35792,269.02785 h 0.494286 v 0.72871 h 0.294392 v 0.42705 h -0.294392 v 1.55009 H 23.35792 v -1.55009 h -0.254412 v -0.42705 h 0.254412 z"
         style="font-size:3.72168469px;text-align:center;text-anchor:middle;fill:#4c4c4c;fill-opacity:1;stroke-width:0.27912635"
         id="path78" />
      <path
         d="m 25.345969,269.70568 q 0.279853,0 0.525179,0.13992 0.247143,0.13993 0.385253,0.3798 0.138109,0.23988 0.138109,0.51791 0,0.27986 -0.139927,0.52337 -0.138109,0.2435 -0.377983,0.38161 -0.239874,0.1363 -0.528814,0.1363 -0.425231,0 -0.726891,-0.30166 -0.299843,-0.30348 -0.299843,-0.73598 0,-0.4634 0.339822,-0.77232 0.298025,-0.26895 0.685095,-0.26895 z m 0.0073,0.46702 q -0.230788,0 -0.385253,0.16174 -0.152647,0.15991 -0.152647,0.41069 0,0.25805 0.15083,0.41796 0.152647,0.15992 0.385253,0.15992 0.232605,0 0.387069,-0.16173 0.154465,-0.16174 0.154465,-0.41615 0,-0.25441 -0.152647,-0.41251 -0.15083,-0.15992 -0.38707,-0.15992 z"
         style="font-size:3.72168469px;text-align:center;text-anchor:middle;fill:#4c4c4c;fill-opacity:1;stroke-width:0.27912635"
         id="path80" />
      <path
         d="m 26.581684,269.75656 h 0.4852 l 0.397973,1.12486 0.428866,-1.12486 h 0.296209 l 0.41978,1.11214 0.397973,-1.11214 h 0.488834 l -0.72144,1.97714 h -0.31438 l -0.421597,-1.12668 -0.434318,1.12668 h -0.310746 z"
         style="font-size:3.72168469px;text-align:center;text-anchor:middle;fill:#4c4c4c;fill-opacity:1;stroke-width:0.27912635"
         id="path82" />
      <path
         d="m 31.242876,269.75656 h 0.494286 v 1.97714 h -0.494286 v -0.20898 q -0.145378,0.13811 -0.292574,0.1999 -0.145378,0.06 -0.316198,0.06 -0.383435,0 -0.663288,-0.29621 -0.279853,-0.29803 -0.279853,-0.73961 0,-0.45795 0.270767,-0.75052 0.270767,-0.29257 0.657837,-0.29257 0.178088,0 0.33437,0.0672 0.156281,0.0672 0.288939,0.20172 z m -0.521545,0.40706 q -0.230788,0 -0.383435,0.16355 -0.152647,0.16173 -0.152647,0.41614 0,0.25623 0.154464,0.4216 0.156282,0.16537 0.383436,0.16537 0.234422,0 0.388887,-0.16173 0.154464,-0.16356 0.154464,-0.42705 0,-0.25805 -0.154464,-0.41797 -0.154465,-0.15991 -0.390705,-0.15991 z m -0.365263,-1.28842 q 0.109034,0 0.185358,0.0763 0.07632,0.0763 0.07632,0.18354 0,0.10903 -0.07632,0.18535 -0.07632,0.0763 -0.185358,0.0763 -0.107216,0 -0.18354,-0.0763 -0.07632,-0.0763 -0.07632,-0.18535 0,-0.10722 0.07632,-0.18354 0.07632,-0.0763 0.18354,-0.0763 z m 0.805033,0 q 0.109033,0 0.185357,0.0763 0.07632,0.0763 0.07632,0.18354 0,0.10903 -0.07632,0.18535 -0.07632,0.0763 -0.185357,0.0763 -0.107217,0 -0.18354,-0.0763 -0.07632,-0.0763 -0.07632,-0.18535 0,-0.10722 0.07632,-0.18354 0.07632,-0.0763 0.18354,-0.0763 z"
         style="font-size:3.72168469px;text-align:center;text-anchor:middle;fill:#4c4c4c;fill-opacity:1;stroke-width:0.27912635"
         id="path84" />
      <path
         d="m 32.240535,268.99332 h 0.492469 v 0.96313 q 0.145379,-0.12538 0.292574,-0.18717 0.147196,-0.0636 0.298026,-0.0636 0.294391,0 0.496103,0.20353 0.172637,0.17627 0.172637,0.51791 v 1.30658 h -0.488835 v -0.86681 q 0,-0.34346 -0.03271,-0.46522 -0.03271,-0.12175 -0.112668,-0.18172 -0.07814,-0.06 -0.194444,-0.06 -0.15083,0 -0.259863,0.0999 -0.107217,0.0999 -0.149013,0.27259 -0.02181,0.089 -0.02181,0.40705 v 0.79413 h -0.492469 z"
         style="font-size:3.72168469px;text-align:center;text-anchor:middle;fill:#4c4c4c;fill-opacity:1;stroke-width:0.27912635"
         id="path86" />
      <path
         d="m 34.353973,269.75656 h 0.425232 v 0.24896 q 0.06905,-0.1472 0.18354,-0.22352 0.114485,-0.0763 0.250777,-0.0763 0.09631,0 0.201713,0.0509 l -0.154465,0.42705 q -0.08723,-0.0436 -0.143561,-0.0436 -0.114485,0 -0.194443,0.14175 -0.07814,0.14174 -0.07814,0.55607 l 0.0018,0.0963 v 0.79958 h -0.492469 z"
         style="font-size:3.72168469px;text-align:center;text-anchor:middle;fill:#4c4c4c;fill-opacity:1;stroke-width:0.27912635"
         id="path88" />
      <path
         d="m 35.660559,269.75656 h 0.501555 v 0.95223 q 0,0.27803 0.03816,0.38707 0.03816,0.10721 0.121754,0.16718 0.08541,0.06 0.208982,0.06 0.123571,0 0.208981,-0.0582 0.08723,-0.06 0.129023,-0.17446 0.03089,-0.0854 0.03089,-0.36526 v -0.96858 h 0.497921 v 0.83774 q 0,0.51791 -0.08178,0.70872 -0.09995,0.23261 -0.294391,0.35799 -0.194444,0.12358 -0.494287,0.12358 -0.325284,0 -0.526996,-0.14538 -0.199895,-0.14538 -0.281671,-0.40524 -0.05815,-0.17991 -0.05815,-0.65421 z"
         style="font-size:3.72168469px;text-align:center;text-anchor:middle;fill:#4c4c4c;fill-opacity:1;stroke-width:0.27912635"
         id="path90" />
      <path
         d="m 37.893934,269.75656 h 0.494286 v 0.20171 q 0.169003,-0.14174 0.305295,-0.19626 0.138109,-0.0563 0.28167,-0.0563 0.294391,0 0.499738,0.20534 0.172637,0.17446 0.172637,0.5161 v 1.30658 h -0.490652 v -0.86681 q 0,-0.35436 -0.03271,-0.47067 -0.03089,-0.1163 -0.110851,-0.17627 -0.07814,-0.0618 -0.194443,-0.0618 -0.15083,0 -0.259864,0.10176 -0.107217,0.0999 -0.149013,0.27804 -0.02181,0.0927 -0.02181,0.4016 v 0.79413 h -0.494286 z"
         style="font-size:3.72168469px;text-align:center;text-anchor:middle;fill:#4c4c4c;fill-opacity:1;stroke-width:0.27912635"
         id="path92" />
      <path
         d="m 41.586544,269.75656 h 0.494286 v 1.69366 q 0,0.50155 -0.201712,0.73779 -0.270767,0.31983 -0.815936,0.31983 -0.290756,0 -0.488834,-0.0727 -0.198078,-0.0727 -0.334371,-0.21443 -0.136292,-0.13993 -0.201712,-0.34164 h 0.546986 q 0.07269,0.0836 0.187175,0.12539 0.114485,0.0436 0.270767,0.0436 0.199895,0 0.321649,-0.0618 0.121754,-0.0618 0.17082,-0.15992 0.05088,-0.0981 0.05088,-0.338 -0.13084,0.13084 -0.274402,0.18899 -0.143561,0.0563 -0.325283,0.0563 -0.397974,0 -0.672375,-0.28712 -0.274402,-0.28712 -0.274402,-0.72689 0,-0.47066 0.290757,-0.75597 0.263498,-0.25804 0.628761,-0.25804 0.17082,0 0.32165,0.0636 0.152647,0.0618 0.305294,0.20535 z m -0.514276,0.41251 q -0.234422,0 -0.387069,0.1581 -0.152648,0.15628 -0.152648,0.39434 0,0.24714 0.156282,0.40524 0.156282,0.1581 0.392521,0.1581 0.230788,0 0.379801,-0.15447 0.15083,-0.15446 0.15083,-0.40524 0,-0.24714 -0.15083,-0.40161 -0.15083,-0.15446 -0.388887,-0.15446 z"
         style="font-size:3.72168469px;text-align:center;text-anchor:middle;fill:#4c4c4c;fill-opacity:1;stroke-width:0.27912635"
         id="path94" />
      <path
         d="m 44.563164,270.88869 h -1.59371 q 0.03453,0.2108 0.18354,0.33619 0.15083,0.12357 0.383435,0.12357 0.278036,0 0.477931,-0.19444 l 0.417963,0.19626 q -0.156282,0.2217 -0.374349,0.32892 -0.218068,0.1054 -0.51791,0.1054 -0.465211,0 -0.757785,-0.29258 -0.292574,-0.29439 -0.292574,-0.73598 0,-0.45249 0.290757,-0.75051 0.292574,-0.29984 0.732343,-0.29984 0.467028,0 0.759602,0.29984 0.292574,0.29802 0.292574,0.78868 z m -0.497921,-0.3907 q -0.04907,-0.16537 -0.194444,-0.26895 -0.143561,-0.10358 -0.33437,-0.10358 -0.207164,0 -0.363446,0.1163 -0.09813,0.0727 -0.181722,0.25623 z"
         style="font-size:3.72168469px;text-align:center;text-anchor:middle;fill:#4c4c4c;fill-opacity:1;stroke-width:0.27912635"
         id="path96" />
      <path
         d="m 44.966589,269.75656 h 0.494286 v 0.20171 q 0.169002,-0.14174 0.305295,-0.19626 0.138109,-0.0563 0.28167,-0.0563 0.294391,0 0.499738,0.20534 0.172637,0.17446 0.172637,0.5161 v 1.30658 h -0.490652 v -0.86681 q 0,-0.35436 -0.03271,-0.47067 -0.03089,-0.1163 -0.110851,-0.17627 -0.07814,-0.0618 -0.194444,-0.0618 -0.15083,0 -0.259863,0.10176 -0.107217,0.0999 -0.149013,0.27804 -0.02181,0.0927 -0.02181,0.4016 v 0.79413 h -0.494286 z"
         style="font-size:3.72168469px;text-align:center;text-anchor:middle;fill:#4c4c4c;fill-opacity:1;stroke-width:0.27912635"
         id="path98" />
      <path
         d="m 49.447877,270.03278 -0.307112,0.30711 q -0.187175,-0.18536 -0.339822,-0.18536 -0.08359,0 -0.13084,0.0363 -0.04725,0.0345 -0.04725,0.0872 0,0.04 0.02907,0.0745 0.03089,0.0327 0.149013,0.0909 l 0.181723,0.0909 q 0.287122,0.14175 0.394339,0.28894 0.107216,0.1472 0.107216,0.34528 0,0.26349 -0.194443,0.43976 -0.192627,0.17628 -0.517911,0.17628 -0.4325,0 -0.690546,-0.33801 l 0.305294,-0.33255 q 0.08723,0.10176 0.20353,0.16537 0.118119,0.0618 0.208981,0.0618 0.09813,0 0.158099,-0.0473 0.05997,-0.0472 0.05997,-0.10903 0,-0.11448 -0.21625,-0.22352 l -0.167185,-0.0836 q -0.479748,-0.24169 -0.479748,-0.60514 0,-0.23442 0.179905,-0.39979 0.181723,-0.16718 0.463394,-0.16718 0.192626,0 0.361628,0.0854 0.17082,0.0836 0.28894,0.24169 z"
         style="font-size:3.72168469px;text-align:center;text-anchor:middle;fill:#4c4c4c;fill-opacity:1;stroke-width:0.27912635"
         id="path100" />
      <path
         d="m 50.067551,268.94244 q 0.130841,0 0.223519,0.0945 0.0945,0.0945 0.0945,0.22897 0,0.13265 -0.09268,0.22715 -0.09268,0.0927 -0.221702,0.0927 -0.132658,0 -0.227154,-0.0945 -0.09268,-0.0963 -0.09268,-0.2326 0,-0.13084 0.09268,-0.22352 0.09268,-0.0927 0.223519,-0.0927 z m -0.24896,0.81412 h 0.497921 v 1.97714 h -0.497921 z"
         style="font-size:3.72168469px;text-align:center;text-anchor:middle;fill:#4c4c4c;fill-opacity:1;stroke-width:0.27912635"
         id="path102" />
      <path
         d="m 50.767185,269.75656 h 0.494286 v 0.20171 q 0.169003,-0.14174 0.305295,-0.19626 0.138109,-0.0563 0.28167,-0.0563 0.294391,0 0.499738,0.20534 0.172637,0.17446 0.172637,0.5161 v 1.30658 h -0.490652 v -0.86681 q 0,-0.35436 -0.03271,-0.47067 -0.03089,-0.1163 -0.110851,-0.17627 -0.07814,-0.0618 -0.194443,-0.0618 -0.15083,0 -0.259864,0.10176 -0.107217,0.0999 -0.149013,0.27804 -0.02181,0.0927 -0.02181,0.4016 v 0.79413 h -0.494286 z"
         style="font-size:3.72168469px;text-align:center;text-anchor:middle;fill:#4c4c4c;fill-opacity:1;stroke-width:0.27912635"
         id="path104" />
      <path
         d="m 54.459793,268.99332 h 0.494286 v 2.74038 h -0.494286 v -0.20898 q -0.145378,0.13811 -0.292574,0.1999 -0.145378,0.06 -0.316198,0.06 -0.383435,0 -0.663288,-0.29621 -0.279853,-0.29803 -0.279853,-0.73961 0,-0.45795 0.270767,-0.75052 0.270767,-0.29257 0.657837,-0.29257 0.178088,0 0.33437,0.0672 0.156281,0.0672 0.288939,0.20172 z m -0.521545,1.1703 q -0.230788,0 -0.383435,0.16355 -0.152647,0.16173 -0.152647,0.41614 0,0.25623 0.154464,0.4216 0.156282,0.16537 0.383436,0.16537 0.234422,0 0.388887,-0.16173 0.154464,-0.16356 0.154464,-0.42705 0,-0.25805 -0.154464,-0.41797 -0.154465,-0.15991 -0.390705,-0.15991 z"
         style="font-size:3.72168469px;text-align:center;text-anchor:middle;fill:#4c4c4c;fill-opacity:1;stroke-width:0.27912635"
         id="path106" />
      <path
         d="m 10.366552,274.68488 -0.307112,0.30711 q -0.1871747,-0.18535 -0.3398219,-0.18535 -0.083593,0 -0.1308405,0.0363 -0.047248,0.0345 -0.047248,0.0872 0,0.04 0.029076,0.0745 0.030893,0.0327 0.1490128,0.0909 l 0.1817229,0.0909 q 0.287122,0.14174 0.394339,0.28894 0.107216,0.14719 0.107216,0.34527 0,0.2635 -0.194443,0.43977 -0.192627,0.17627 -0.5179106,0.17627 -0.4325005,0 -0.6905469,-0.338 l 0.3052944,-0.33256 q 0.087227,0.10177 0.2035296,0.16537 0.1181199,0.0618 0.2089813,0.0618 0.09813,0 0.158099,-0.0473 0.059969,-0.0472 0.059969,-0.10903 0,-0.11449 -0.2162502,-0.22352 l -0.1671851,-0.0836 q -0.4797484,-0.24169 -0.4797484,-0.60513 0,-0.23443 0.1799057,-0.39979 0.1817228,-0.16719 0.4633933,-0.16719 0.1926263,0 0.3616284,0.0854 0.17082,0.0836 0.28894,0.24169 z"
         style="font-size:3.72168469px;text-align:center;text-anchor:middle;fill:#4c4c4c;fill-opacity:1;stroke-width:0.27912635"
         id="path108" />
      <path
         d="m 12.727132,274.80845 -0.412511,0.22716 q -0.116303,-0.12176 -0.230788,-0.169 -0.112668,-0.0472 -0.265316,-0.0472 -0.278036,0 -0.450672,0.16718 -0.17082,0.16537 -0.17082,0.42523 0,0.2526 0.165368,0.41252 0.165368,0.15991 0.434318,0.15991 0.332552,0 0.51791,-0.22715 l 0.390704,0.26713 q -0.318015,0.41251 -0.897711,0.41251 -0.521545,0 -0.817753,-0.30893 -0.294391,-0.30893 -0.294391,-0.72325 0,-0.28713 0.143561,-0.52882 0.143561,-0.24169 0.39979,-0.3798 0.258047,-0.13811 0.576062,-0.13811 0.294391,0 0.528813,0.11812 0.234423,0.1163 0.383436,0.33255 z"
         style="font-size:3.72168469px;text-align:center;text-anchor:middle;fill:#4c4c4c;fill-opacity:1;stroke-width:0.27912635"
         id="path110" />
      <path
         d="m 13.177804,273.64543 h 0.492469 v 0.96313 q 0.145379,-0.12539 0.292574,-0.18717 0.147196,-0.0636 0.298026,-0.0636 0.294391,0 0.496103,0.20353 0.172637,0.17627 0.172637,0.51791 v 1.30659 h -0.488835 v -0.86682 q 0,-0.34345 -0.03271,-0.46521 -0.03271,-0.12175 -0.112668,-0.18172 -0.07814,-0.06 -0.194443,-0.06 -0.15083,0 -0.259864,0.0999 -0.107217,0.0999 -0.149013,0.27258 -0.02181,0.089 -0.02181,0.40706 v 0.79413 h -0.492469 z"
         style="font-size:3.72168469px;text-align:center;text-anchor:middle;fill:#4c4c4c;fill-opacity:1;stroke-width:0.27912635"
         id="path112" />
      <path
         d="m 16.868597,274.40866 h 0.494286 v 1.97715 h -0.494286 v -0.20898 q -0.145379,0.13811 -0.292574,0.19989 -0.145379,0.06 -0.316198,0.06 -0.383435,0 -0.663289,-0.29621 -0.279853,-0.29802 -0.279853,-0.73961 0,-0.45794 0.270767,-0.75051 0.270767,-0.29258 0.657837,-0.29258 0.178088,0 0.33437,0.0672 0.156282,0.0672 0.28894,0.20171 z m -0.521545,0.40706 q -0.230788,0 -0.383435,0.16355 -0.152648,0.16174 -0.152648,0.41615 0,0.25623 0.154465,0.4216 0.156282,0.16536 0.383435,0.16536 0.234423,0 0.388887,-0.16173 0.154465,-0.16355 0.154465,-0.42705 0,-0.25804 -0.154465,-0.41796 -0.154464,-0.15992 -0.390704,-0.15992 z m -0.365263,-1.28841 q 0.109034,0 0.185357,0.0763 0.07632,0.0763 0.07632,0.18354 0,0.10904 -0.07632,0.18536 -0.07632,0.0763 -0.185357,0.0763 -0.107217,0 -0.18354,-0.0763 -0.07632,-0.0763 -0.07632,-0.18536 0,-0.10721 0.07632,-0.18354 0.07632,-0.0763 0.18354,-0.0763 z m 0.805032,0 q 0.109034,0 0.185358,0.0763 0.07632,0.0763 0.07632,0.18354 0,0.10904 -0.07632,0.18536 -0.07632,0.0763 -0.185358,0.0763 -0.107216,0 -0.18354,-0.0763 -0.07632,-0.0763 -0.07632,-0.18536 0,-0.10721 0.07632,-0.18354 0.07632,-0.0763 0.18354,-0.0763 z"
         style="font-size:3.72168469px;text-align:center;text-anchor:middle;fill:#4c4c4c;fill-opacity:1;stroke-width:0.27912635"
         id="path114" />
      <path
         d="m 19.32549,273.64543 h 0.494286 v 2.74038 H 19.32549 v -0.20898 q -0.145379,0.13811 -0.292574,0.19989 -0.145379,0.06 -0.316198,0.06 -0.383435,0 -0.663289,-0.29621 -0.279853,-0.29802 -0.279853,-0.73961 0,-0.45794 0.270767,-0.75051 0.270767,-0.29258 0.657837,-0.29258 0.178088,0 0.33437,0.0672 0.156282,0.0672 0.28894,0.20171 z m -0.521545,1.17029 q -0.230788,0 -0.383435,0.16355 -0.152648,0.16174 -0.152648,0.41615 0,0.25623 0.154465,0.4216 0.156281,0.16536 0.383435,0.16536 0.234423,0 0.388887,-0.16173 0.154465,-0.16355 0.154465,-0.42705 0,-0.25804 -0.154465,-0.41796 -0.154464,-0.15992 -0.390704,-0.15992 z"
         style="font-size:3.72168469px;text-align:center;text-anchor:middle;fill:#4c4c4c;fill-opacity:1;stroke-width:0.27912635"
         id="path116" />
      <path
         d="m 20.268632,273.64543 h 0.496103 v 2.74038 h -0.496103 z"
         style="font-size:3.72168469px;text-align:center;text-anchor:middle;fill:#4c4c4c;fill-opacity:1;stroke-width:0.27912635"
         id="path118" />
      <path
         d="m 21.409851,273.59455 q 0.130841,0 0.223519,0.0945 0.0945,0.0945 0.0945,0.22897 0,0.13266 -0.09268,0.22716 -0.09268,0.0927 -0.221702,0.0927 -0.132658,0 -0.227154,-0.0945 -0.09268,-0.0963 -0.09268,-0.23261 0,-0.13084 0.09268,-0.22352 0.09268,-0.0927 0.223519,-0.0927 z m -0.24896,0.81411 h 0.497921 v 1.97715 h -0.497921 z"
         style="font-size:3.72168469px;text-align:center;text-anchor:middle;fill:#4c4c4c;fill-opacity:1;stroke-width:0.27912635"
         id="path120" />
      <path
         d="m 24.044833,274.80845 -0.412511,0.22716 q -0.116303,-0.12176 -0.230788,-0.169 -0.112668,-0.0472 -0.265316,-0.0472 -0.278036,0 -0.450672,0.16718 -0.17082,0.16537 -0.17082,0.42523 0,0.2526 0.165368,0.41252 0.165368,0.15991 0.434318,0.15991 0.332553,0 0.51791,-0.22715 l 0.390704,0.26713 q -0.318015,0.41251 -0.897711,0.41251 -0.521545,0 -0.817753,-0.30893 -0.294391,-0.30893 -0.294391,-0.72325 0,-0.28713 0.143561,-0.52882 0.143561,-0.24169 0.39979,-0.3798 0.258047,-0.13811 0.576062,-0.13811 0.294391,0 0.528814,0.11812 0.234422,0.1163 0.383435,0.33255 z"
         style="font-size:3.72168469px;text-align:center;text-anchor:middle;fill:#4c4c4c;fill-opacity:1;stroke-width:0.27912635"
         id="path122" />
      <path
         d="m 24.495506,273.64543 h 0.492469 v 0.96313 q 0.145379,-0.12539 0.292574,-0.18717 0.147196,-0.0636 0.298026,-0.0636 0.294391,0 0.496103,0.20353 0.172637,0.17627 0.172637,0.51791 v 1.30659 H 25.75848 v -0.86682 q 0,-0.34345 -0.03271,-0.46521 -0.03271,-0.12175 -0.112668,-0.18172 -0.07814,-0.06 -0.194444,-0.06 -0.150829,0 -0.259863,0.0999 -0.107217,0.0999 -0.149013,0.27258 -0.02181,0.089 -0.02181,0.40706 v 0.79413 h -0.492469 z"
         style="font-size:3.72168469px;text-align:center;text-anchor:middle;fill:#4c4c4c;fill-opacity:1;stroke-width:0.27912635"
         id="path124" />
      <path
         d="m 27.528461,274.40866 h 0.176271 q 0.0018,-0.38888 0.01272,-0.45975 0.01999,-0.16356 0.136293,-0.25805 0.118119,-0.0963 0.332552,-0.0963 0.154465,0 0.348908,0.0709 v 0.37798 q -0.107216,-0.0309 -0.176271,-0.0309 -0.08723,0 -0.127206,0.0363 -0.02907,0.0273 -0.02907,0.11267 l -0.0018,0.24714 h 0.314381 v 0.4216 h -0.314381 v 1.55555 h -0.496103 v -1.55555 h -0.176271 z"
         style="font-size:3.72168469px;text-align:center;text-anchor:middle;fill:#4c4c4c;fill-opacity:1;stroke-width:0.27912635"
         id="path126" />
      <path
         d="m 28.802339,274.40866 h 0.501555 v 0.95223 q 0,0.27804 0.03816,0.38707 0.03816,0.10722 0.121754,0.16719 0.08541,0.06 0.208981,0.06 0.123572,0 0.208981,-0.0582 0.08723,-0.06 0.129024,-0.17445 0.03089,-0.0854 0.03089,-0.36526 v -0.96859 h 0.49792 v 0.83775 q 0,0.51791 -0.08178,0.70872 -0.09995,0.2326 -0.294391,0.35799 -0.194444,0.12357 -0.494286,0.12357 -0.325284,0 -0.526997,-0.14538 -0.199895,-0.14537 -0.28167,-0.40524 -0.05815,-0.1799 -0.05815,-0.6542 z m 0.46521,-0.88135 q 0.109034,0 0.185357,0.0763 0.07632,0.0763 0.07632,0.18354 0,0.10904 -0.07632,0.18536 -0.07632,0.0763 -0.185357,0.0763 -0.107216,0 -0.18354,-0.0763 -0.07632,-0.0763 -0.07632,-0.18536 0,-0.10721 0.07632,-0.18354 0.07632,-0.0763 0.18354,-0.0763 z m 0.805033,0 q 0.109033,0 0.185357,0.0763 0.07632,0.0763 0.07632,0.18354 0,0.10904 -0.07632,0.18536 -0.07632,0.0763 -0.185357,0.0763 -0.107217,0 -0.183541,-0.0763 -0.07632,-0.0763 -0.07632,-0.18536 0,-0.10721 0.07632,-0.18354 0.07632,-0.0763 0.183541,-0.0763 z"
         style="font-size:3.72168469px;text-align:center;text-anchor:middle;fill:#4c4c4c;fill-opacity:1;stroke-width:0.27912635"
         id="path128" />
      <path
         d="m 30.919411,274.40866 h 0.425232 v 0.24896 q 0.06905,-0.14719 0.18354,-0.22351 0.114485,-0.0763 0.250777,-0.0763 0.09631,0 0.201713,0.0509 l -0.154465,0.42705 q -0.08723,-0.0436 -0.143561,-0.0436 -0.114485,0 -0.194443,0.14174 -0.07814,0.14175 -0.07814,0.55608 l 0.0018,0.0963 v 0.79958 h -0.492469 z"
         style="font-size:3.72168469px;text-align:center;text-anchor:middle;fill:#4c4c4c;fill-opacity:1;stroke-width:0.27912635"
         id="path130" />
      <path
         d="m 34.728322,273.64543 h 0.494286 v 2.74038 h -0.494286 v -0.20898 q -0.145379,0.13811 -0.292574,0.19989 -0.145379,0.06 -0.316198,0.06 -0.383435,0 -0.663289,-0.29621 -0.279853,-0.29802 -0.279853,-0.73961 0,-0.45794 0.270767,-0.75051 0.270767,-0.29258 0.657837,-0.29258 0.178088,0 0.33437,0.0672 0.156282,0.0672 0.28894,0.20171 z m -0.521545,1.17029 q -0.230788,0 -0.383435,0.16355 -0.152648,0.16174 -0.152648,0.41615 0,0.25623 0.154465,0.4216 0.156282,0.16536 0.383435,0.16536 0.234423,0 0.388887,-0.16173 0.154465,-0.16355 0.154465,-0.42705 0,-0.25804 -0.154465,-0.41796 -0.154464,-0.15992 -0.390704,-0.15992 z"
         style="font-size:3.72168469px;text-align:center;text-anchor:middle;fill:#4c4c4c;fill-opacity:1;stroke-width:0.27912635"
         id="path132" />
      <path
         d="m 37.185215,274.40866 h 0.494287 v 1.97715 h -0.494287 v -0.20898 q -0.145378,0.13811 -0.292573,0.19989 -0.145379,0.06 -0.316198,0.06 -0.383435,0 -0.663289,-0.29621 -0.279853,-0.29802 -0.279853,-0.73961 0,-0.45794 0.270767,-0.75051 0.270767,-0.29258 0.657837,-0.29258 0.178088,0 0.33437,0.0672 0.156282,0.0672 0.288939,0.20171 z m -0.521544,0.40706 q -0.230788,0 -0.383435,0.16355 -0.152648,0.16174 -0.152648,0.41615 0,0.25623 0.154465,0.4216 0.156281,0.16536 0.383435,0.16536 0.234423,0 0.388887,-0.16173 0.154464,-0.16355 0.154464,-0.42705 0,-0.25804 -0.154464,-0.41796 -0.154464,-0.15992 -0.390704,-0.15992 z"
         style="font-size:3.72168469px;text-align:center;text-anchor:middle;fill:#4c4c4c;fill-opacity:1;stroke-width:0.27912635"
         id="path134" />
      <path
         d="m 39.391332,274.68488 -0.307112,0.30711 q -0.187174,-0.18535 -0.339822,-0.18535 -0.08359,0 -0.13084,0.0363 -0.04725,0.0345 -0.04725,0.0872 0,0.04 0.02908,0.0745 0.03089,0.0327 0.149012,0.0909 l 0.181723,0.0909 q 0.287122,0.14174 0.394339,0.28894 0.107216,0.14719 0.107216,0.34527 0,0.2635 -0.194443,0.43977 -0.192626,0.17627 -0.51791,0.17627 -0.432501,0 -0.690547,-0.338 l 0.305294,-0.33256 q 0.08723,0.10177 0.20353,0.16537 0.11812,0.0618 0.208981,0.0618 0.09813,0 0.158099,-0.0473 0.05997,-0.0472 0.05997,-0.10903 0,-0.11449 -0.216251,-0.22352 l -0.167185,-0.0836 q -0.479748,-0.24169 -0.479748,-0.60513 0,-0.23443 0.179906,-0.39979 0.181722,-0.16719 0.463393,-0.16719 0.192626,0 0.361628,0.0854 0.17082,0.0836 0.28894,0.24169 z"
         style="font-size:3.72168469px;text-align:center;text-anchor:middle;fill:#4c4c4c;fill-opacity:1;stroke-width:0.27912635"
         id="path136" />
      <path
         d="m 40.910533,276.38581 v -2.67314 h 0.41978 q 0.365263,0 0.534266,0.0472 0.239874,0.0636 0.381618,0.23624 0.141744,0.17264 0.141744,0.40706 0,0.15265 -0.06542,0.27804 -0.0636,0.12357 -0.208981,0.2326 0.243509,0.11449 0.356177,0.28713 0.112668,0.17082 0.112668,0.40524 0,0.22533 -0.116303,0.41069 -0.116302,0.18536 -0.299842,0.27804 -0.183541,0.0909 -0.507007,0.0909 z m 0.508825,-2.18794 v 0.56334 h 0.11085 q 0.185358,0 0.274402,-0.0781 0.09086,-0.0781 0.09086,-0.21262 0,-0.12539 -0.08541,-0.19808 -0.08541,-0.0745 -0.259864,-0.0745 z m 0,1.01764 v 0.6851 h 0.127206 q 0.316197,0 0.425231,-0.08 0.110851,-0.08 0.110851,-0.2326 0,-0.17264 -0.129023,-0.27259 -0.129023,-0.0999 -0.428866,-0.0999 z"
         style="font-size:3.72168469px;text-align:center;text-anchor:middle;fill:#4c4c4c;fill-opacity:1;stroke-width:0.27912635"
         id="path138" />
      <path
         d="m 44.475937,274.40866 h 0.494287 v 1.97715 h -0.494287 v -0.20898 q -0.145378,0.13811 -0.292573,0.19989 -0.145379,0.06 -0.316198,0.06 -0.383436,0 -0.663289,-0.29621 -0.279853,-0.29802 -0.279853,-0.73961 0,-0.45794 0.270767,-0.75051 0.270767,-0.29258 0.657837,-0.29258 0.178088,0 0.33437,0.0672 0.156282,0.0672 0.288939,0.20171 z m -0.521544,0.40706 q -0.230788,0 -0.383436,0.16355 -0.152647,0.16174 -0.152647,0.41615 0,0.25623 0.154465,0.4216 0.156281,0.16536 0.383435,0.16536 0.234422,0 0.388887,-0.16173 0.154464,-0.16355 0.154464,-0.42705 0,-0.25804 -0.154464,-0.41796 -0.154465,-0.15992 -0.390704,-0.15992 z"
         style="font-size:3.72168469px;text-align:center;text-anchor:middle;fill:#4c4c4c;fill-opacity:1;stroke-width:0.27912635"
         id="path140" />
      <path
         d="m 45.471779,274.40866 h 0.494287 v 0.20172 q 0.169002,-0.14175 0.305294,-0.19626 0.138109,-0.0563 0.28167,-0.0563 0.294392,0 0.499738,0.20535 0.172637,0.17445 0.172637,0.51609 v 1.30659 h -0.490652 v -0.86682 q 0,-0.35436 -0.03271,-0.47066 -0.03089,-0.1163 -0.110851,-0.17627 -0.07814,-0.0618 -0.194443,-0.0618 -0.15083,0 -0.259864,0.10177 -0.107216,0.0999 -0.149013,0.27803 -0.02181,0.0927 -0.02181,0.40161 v 0.79413 h -0.494287 z"
         style="font-size:3.72168469px;text-align:center;text-anchor:middle;fill:#4c4c4c;fill-opacity:1;stroke-width:0.27912635"
         id="path142" />
      <path
         d="m 47.70697,273.64543 h 0.496103 v 1.57917 l 0.730526,-0.81594 h 0.621492 l -0.850463,0.9486 0.954045,1.02855 h -0.61604 l -0.83956,-0.91043 v 0.91043 H 47.70697 Z"
         style="font-size:3.72168469px;text-align:center;text-anchor:middle;fill:#4c4c4c;fill-opacity:1;stroke-width:0.27912635"
         id="path144" />
      <path
         d="m 49.642317,274.40866 h 0.485201 l 0.397973,1.12487 0.428866,-1.12487 h 0.296208 l 0.41978,1.11215 0.397973,-1.11215 h 0.488835 l -0.72144,1.97715 h -0.314381 l -0.421597,-1.12668 -0.434318,1.12668 h -0.310746 z"
         style="font-size:3.72168469px;text-align:center;text-anchor:middle;fill:#4c4c4c;fill-opacity:1;stroke-width:0.27912635"
         id="path146" />
      <path
         d="m 54.823237,275.5408 h -1.59371 q 0.03453,0.2108 0.18354,0.33619 0.15083,0.12357 0.383435,0.12357 0.278036,0 0.477932,-0.19445 l 0.417962,0.19626 q -0.156281,0.22171 -0.374349,0.32892 -0.218067,0.1054 -0.51791,0.1054 -0.465211,0 -0.757785,-0.29257 -0.292573,-0.29439 -0.292573,-0.73598 0,-0.45249 0.290756,-0.75052 0.292574,-0.29984 0.732343,-0.29984 0.467028,0 0.759602,0.29984 0.292574,0.29803 0.292574,0.78868 z m -0.497921,-0.39071 q -0.04906,-0.16536 -0.194443,-0.26895 -0.143562,-0.10358 -0.334371,-0.10358 -0.207164,0 -0.363445,0.1163 -0.09813,0.0727 -0.181723,0.25623 z"
         style="font-size:3.72168469px;text-align:center;text-anchor:middle;fill:#4c4c4c;fill-opacity:1;stroke-width:0.27912635"
         id="path148" />
      <path
         d="m 56.436937,274.68488 -0.307112,0.30711 q -0.187175,-0.18535 -0.339822,-0.18535 -0.08359,0 -0.13084,0.0363 -0.04725,0.0345 -0.04725,0.0872 0,0.04 0.02907,0.0745 0.03089,0.0327 0.149013,0.0909 l 0.181723,0.0909 q 0.287122,0.14174 0.394339,0.28894 0.107216,0.14719 0.107216,0.34527 0,0.2635 -0.194443,0.43977 -0.192627,0.17627 -0.517911,0.17627 -0.4325,0 -0.690547,-0.338 l 0.305295,-0.33256 q 0.08723,0.10177 0.20353,0.16537 0.118119,0.0618 0.208981,0.0618 0.09813,0 0.158099,-0.0473 0.05997,-0.0472 0.05997,-0.10903 0,-0.11449 -0.21625,-0.22352 l -0.167185,-0.0836 q -0.479748,-0.24169 -0.479748,-0.60513 0,-0.23443 0.179905,-0.39979 0.181723,-0.16719 0.463394,-0.16719 0.192626,0 0.361628,0.0854 0.17082,0.0836 0.28894,0.24169 z"
         style="font-size:3.72168469px;text-align:center;text-anchor:middle;fill:#4c4c4c;fill-opacity:1;stroke-width:0.27912635"
         id="path150" />
      <path
         d="m 58.842947,275.5408 h -1.593709 q 0.03453,0.2108 0.18354,0.33619 0.15083,0.12357 0.383435,0.12357 0.278036,0 0.477931,-0.19445 l 0.417963,0.19626 q -0.156282,0.22171 -0.374349,0.32892 -0.218068,0.1054 -0.517911,0.1054 -0.46521,0 -0.757784,-0.29257 -0.292574,-0.29439 -0.292574,-0.73598 0,-0.45249 0.290757,-0.75052 0.292574,-0.29984 0.732343,-0.29984 0.467028,0 0.759602,0.29984 0.292573,0.29803 0.292573,0.78868 z m -0.49792,-0.39071 q -0.04907,-0.16536 -0.194444,-0.26895 -0.143561,-0.10358 -0.33437,-0.10358 -0.207164,0 -0.363446,0.1163 -0.09813,0.0727 -0.181723,0.25623 z"
         style="font-size:3.72168469px;text-align:center;text-anchor:middle;fill:#4c4c4c;fill-opacity:1;stroke-width:0.27912635"
         id="path152" />
      <path
         d="m 59.246373,274.40866 h 0.494286 v 0.20172 q 0.169002,-0.14175 0.305294,-0.19626 0.13811,-0.0563 0.281671,-0.0563 0.294391,0 0.499738,0.20535 0.172636,0.17445 0.172636,0.51609 v 1.30659 h -0.490651 v -0.86682 q 0,-0.35436 -0.03271,-0.47066 -0.03089,-0.1163 -0.110851,-0.17627 -0.07814,-0.0618 -0.194444,-0.0618 -0.15083,0 -0.259864,0.10177 -0.107216,0.0999 -0.149012,0.27803 -0.02181,0.0927 -0.02181,0.40161 v 0.79413 h -0.494286 z"
         style="font-size:3.72168469px;text-align:center;text-anchor:middle;fill:#4c4c4c;fill-opacity:1;stroke-width:0.27912635"
         id="path154" />
      <path
         d="m 20.468527,279.06077 h 0.501555 v 0.95223 q 0,0.27803 0.03816,0.38707 0.03816,0.10721 0.121754,0.16718 0.08541,0.06 0.208981,0.06 0.123572,0 0.208982,-0.0582 0.08723,-0.06 0.129023,-0.17445 0.03089,-0.0854 0.03089,-0.36527 v -0.96858 h 0.497921 v 0.83774 q 0,0.51791 -0.08178,0.70872 -0.09995,0.23261 -0.294391,0.358 -0.194443,0.12357 -0.494286,0.12357 -0.325284,0 -0.526996,-0.14538 -0.199896,-0.14538 -0.281671,-0.40524 -0.05815,-0.17991 -0.05815,-0.6542 z"
         style="font-size:3.72168469px;text-align:center;text-anchor:middle;fill:#4c4c4c;fill-opacity:1;stroke-width:0.27912635"
         id="path156" />
      <path
         d="m 22.701901,279.06077 h 0.494286 v 0.20171 q 0.169003,-0.14174 0.305295,-0.19626 0.138109,-0.0563 0.28167,-0.0563 0.294391,0 0.499738,0.20534 0.172637,0.17446 0.172637,0.5161 v 1.30659 h -0.490652 v -0.86682 q 0,-0.35436 -0.03271,-0.47067 -0.03089,-0.1163 -0.110851,-0.17627 -0.07814,-0.0618 -0.194443,-0.0618 -0.15083,0 -0.259864,0.10176 -0.107217,0.0999 -0.149013,0.27804 -0.02181,0.0927 -0.02181,0.40161 v 0.79413 h -0.494286 z"
         style="font-size:3.72168469px;text-align:center;text-anchor:middle;fill:#4c4c4c;fill-opacity:1;stroke-width:0.27912635"
         id="path158" />
      <path
         d="m 26.39451,278.29753 h 0.494286 v 2.74039 H 26.39451 v -0.20899 q -0.145378,0.13811 -0.292574,0.1999 -0.145378,0.06 -0.316197,0.06 -0.383436,0 -0.663289,-0.29621 -0.279853,-0.29803 -0.279853,-0.73961 0,-0.45794 0.270767,-0.75052 0.270767,-0.29257 0.657837,-0.29257 0.178088,0 0.33437,0.0672 0.156282,0.0672 0.288939,0.20171 z m -0.521544,1.1703 q -0.230789,0 -0.383436,0.16355 -0.152647,0.16173 -0.152647,0.41615 0,0.25622 0.154465,0.42159 0.156281,0.16537 0.383435,0.16537 0.234422,0 0.388887,-0.16173 0.154464,-0.16355 0.154464,-0.42705 0,-0.25805 -0.154464,-0.41796 -0.154465,-0.15992 -0.390704,-0.15992 z"
         style="font-size:3.72168469px;text-align:center;text-anchor:middle;fill:#4c4c4c;fill-opacity:1;stroke-width:0.27912635"
         id="path160" />
      <path
         d="m 28.433441,278.29753 h 0.496104 v 1.57918 l 0.730526,-0.81594 h 0.621492 l -0.850463,0.94859 0.954045,1.02856 h -0.616041 l -0.839559,-0.91044 v 0.91044 h -0.496104 z"
         style="font-size:3.72168469px;text-align:center;text-anchor:middle;fill:#4c4c4c;fill-opacity:1;stroke-width:0.27912635"
         id="path162" />
      <path
         d="m 31.517278,279.00989 q 0.279853,0 0.525179,0.13992 0.247143,0.13993 0.385253,0.37981 0.138109,0.23987 0.138109,0.51791 0,0.27985 -0.139927,0.52336 -0.138109,0.24351 -0.377983,0.38162 -0.239874,0.13629 -0.528814,0.13629 -0.425231,0 -0.726891,-0.30166 -0.299843,-0.30348 -0.299843,-0.73598 0,-0.46339 0.339822,-0.77232 0.298025,-0.26895 0.685095,-0.26895 z m 0.0073,0.46703 q -0.230788,0 -0.385253,0.16173 -0.152647,0.15992 -0.152647,0.41069 0,0.25805 0.15083,0.41797 0.152647,0.15991 0.385253,0.15991 0.232605,0 0.387069,-0.16173 0.154465,-0.16174 0.154465,-0.41615 0,-0.25441 -0.152647,-0.41251 -0.15083,-0.15991 -0.38707,-0.15991 z m -0.399791,-1.29751 q 0.109034,0 0.185358,0.0763 0.07632,0.0763 0.07632,0.18354 0,0.10903 -0.07632,0.18536 -0.07632,0.0763 -0.185358,0.0763 -0.107216,0 -0.18354,-0.0763 -0.07632,-0.0763 -0.07632,-0.18536 0,-0.10722 0.07632,-0.18354 0.07632,-0.0763 0.18354,-0.0763 z m 0.805033,0 q 0.109034,0 0.185357,0.0763 0.07632,0.0763 0.07632,0.18354 0,0.10903 -0.07632,0.18536 -0.07632,0.0763 -0.185357,0.0763 -0.107217,0 -0.18354,-0.0763 -0.07632,-0.0763 -0.07632,-0.18536 0,-0.10722 0.07632,-0.18354 0.07632,-0.0763 0.18354,-0.0763 z"
         style="font-size:3.72168469px;text-align:center;text-anchor:middle;fill:#4c4c4c;fill-opacity:1;stroke-width:0.27912635"
         id="path164" />
      <path
         d="m 32.972879,279.06077 h 0.494286 v 0.20171 q 0.169002,-0.14174 0.305295,-0.19626 0.138109,-0.0563 0.28167,-0.0563 0.294391,0 0.499738,0.20534 0.172637,0.17446 0.172637,0.5161 v 1.30659 h -0.490652 v -0.86682 q 0,-0.35436 -0.03271,-0.47067 -0.03089,-0.1163 -0.110851,-0.17627 -0.07814,-0.0618 -0.194444,-0.0618 -0.15083,0 -0.259863,0.10176 -0.107217,0.0999 -0.149013,0.27804 -0.02181,0.0927 -0.02181,0.40161 v 0.79413 h -0.494286 z"
         style="font-size:3.72168469px;text-align:center;text-anchor:middle;fill:#4c4c4c;fill-opacity:1;stroke-width:0.27912635"
         id="path166" />
      <path
         d="m 35.204436,279.06077 h 0.494286 v 0.20171 q 0.169002,-0.14174 0.305294,-0.19626 0.13811,-0.0563 0.281671,-0.0563 0.294391,0 0.499738,0.20534 0.172637,0.17446 0.172637,0.5161 v 1.30659 H 36.46741 v -0.86682 q 0,-0.35436 -0.03271,-0.47067 -0.03089,-0.1163 -0.110851,-0.17627 -0.07814,-0.0618 -0.194444,-0.0618 -0.15083,0 -0.259863,0.10176 -0.107217,0.0999 -0.149013,0.27804 -0.02181,0.0927 -0.02181,0.40161 v 0.79413 h -0.494286 z"
         style="font-size:3.72168469px;text-align:center;text-anchor:middle;fill:#4c4c4c;fill-opacity:1;stroke-width:0.27912635"
         id="path168" />
      <path
         d="m 39.416772,280.1929 h -1.59371 q 0.03453,0.2108 0.18354,0.33619 0.15083,0.12357 0.383436,0.12357 0.278036,0 0.477931,-0.19444 l 0.417963,0.19626 q -0.156282,0.2217 -0.37435,0.32892 -0.218067,0.1054 -0.51791,0.1054 -0.46521,0 -0.757784,-0.29258 -0.292574,-0.29439 -0.292574,-0.73597 0,-0.45249 0.290757,-0.75052 0.292573,-0.29984 0.732343,-0.29984 0.467028,0 0.759601,0.29984 0.292574,0.29803 0.292574,0.78868 z m -0.497921,-0.3907 q -0.04906,-0.16537 -0.194443,-0.26895 -0.143561,-0.10358 -0.33437,-0.10358 -0.207164,0 -0.363446,0.1163 -0.09813,0.0727 -0.181723,0.25623 z"
         style="font-size:3.72168469px;text-align:center;text-anchor:middle;fill:#4c4c4c;fill-opacity:1;stroke-width:0.27912635"
         id="path170" />
      <path
         d="m 39.820197,279.06077 h 0.494287 v 0.20171 q 0.169002,-0.14174 0.305294,-0.19626 0.13811,-0.0563 0.281671,-0.0563 0.294391,0 0.499738,0.20534 0.172636,0.17446 0.172636,0.5161 v 1.30659 h -0.490651 v -0.86682 q 0,-0.35436 -0.03271,-0.47067 -0.03089,-0.1163 -0.110851,-0.17627 -0.07814,-0.0618 -0.194443,-0.0618 -0.15083,0 -0.259864,0.10176 -0.107216,0.0999 -0.149013,0.27804 -0.02181,0.0927 -0.02181,0.40161 v 0.79413 h -0.494287 z"
         style="font-size:3.72168469px;text-align:center;text-anchor:middle;fill:#4c4c4c;fill-opacity:1;stroke-width:0.27912635"
         id="path172" />
      <path
         d="m 44.552261,278.29753 h 0.494286 v 2.74039 h -0.494286 v -0.20899 q -0.145378,0.13811 -0.292574,0.1999 -0.145378,0.06 -0.316198,0.06 -0.383435,0 -0.663288,-0.29621 -0.279854,-0.29803 -0.279854,-0.73961 0,-0.45794 0.270768,-0.75052 0.270767,-0.29257 0.657836,-0.29257 0.178089,0 0.33437,0.0672 0.156282,0.0672 0.28894,0.20171 z m -0.521545,1.1703 q -0.230788,0 -0.383435,0.16355 -0.152647,0.16173 -0.152647,0.41615 0,0.25622 0.154464,0.42159 0.156282,0.16537 0.383435,0.16537 0.234423,0 0.388887,-0.16173 0.154465,-0.16355 0.154465,-0.42705 0,-0.25805 -0.154465,-0.41796 -0.154464,-0.15992 -0.390704,-0.15992 z"
         style="font-size:3.72168469px;text-align:center;text-anchor:middle;fill:#4c4c4c;fill-opacity:1;stroke-width:0.27912635"
         id="path174" />
      <path
         d="m 47.528882,280.1929 h -1.593709 q 0.03453,0.2108 0.18354,0.33619 0.15083,0.12357 0.383435,0.12357 0.278036,0 0.477931,-0.19444 l 0.417963,0.19626 q -0.156282,0.2217 -0.374349,0.32892 -0.218068,0.1054 -0.517911,0.1054 -0.46521,0 -0.757784,-0.29258 -0.292574,-0.29439 -0.292574,-0.73597 0,-0.45249 0.290757,-0.75052 0.292574,-0.29984 0.732343,-0.29984 0.467028,0 0.759602,0.29984 0.292573,0.29803 0.292573,0.78868 z m -0.49792,-0.3907 q -0.04907,-0.16537 -0.194444,-0.26895 -0.143561,-0.10358 -0.33437,-0.10358 -0.207164,0 -0.363446,0.1163 -0.09813,0.0727 -0.181723,0.25623 z"
         style="font-size:3.72168469px;text-align:center;text-anchor:middle;fill:#4c4c4c;fill-opacity:1;stroke-width:0.27912635"
         id="path176" />
      <path
         d="m 47.932308,279.06077 h 0.494286 v 0.20171 q 0.169002,-0.14174 0.305294,-0.19626 0.13811,-0.0563 0.281671,-0.0563 0.294391,0 0.499738,0.20534 0.172636,0.17446 0.172636,0.5161 v 1.30659 h -0.490651 v -0.86682 q 0,-0.35436 -0.03271,-0.47067 -0.03089,-0.1163 -0.110851,-0.17627 -0.07814,-0.0618 -0.194444,-0.0618 -0.15083,0 -0.259864,0.10176 -0.107216,0.0999 -0.149012,0.27804 -0.02181,0.0927 -0.02181,0.40161 v 0.79413 h -0.494286 z"
         style="font-size:3.72168469px;text-align:center;text-anchor:middle;fill:#4c4c4c;fill-opacity:1;stroke-width:0.27912635"
         id="path178" />
      <path
         d="m 13.134191,283.38032 -0.376166,0.33256 q -0.198078,-0.27622 -0.403425,-0.27622 -0.09995,0 -0.163551,0.0545 -0.0636,0.0527 -0.0636,0.11994 0,0.0672 0.04543,0.12721 0.06179,0.08 0.372532,0.34345 0.290757,0.24351 0.352542,0.30712 0.154465,0.15628 0.218068,0.29984 0.06542,0.14174 0.06542,0.31074 0,0.32892 -0.227154,0.54336 -0.227153,0.21443 -0.592416,0.21443 -0.285305,0 -0.497921,-0.13993 -0.210798,-0.13992 -0.361628,-0.43977 l 0.427048,-0.25804 q 0.192627,0.35436 0.443404,0.35436 0.130841,0 0.219885,-0.0763 0.08904,-0.0763 0.08904,-0.17627 0,-0.0909 -0.06724,-0.18172 -0.06724,-0.0909 -0.296209,-0.27804 -0.436135,-0.35617 -0.563341,-0.5488 -0.127206,-0.19444 -0.127206,-0.38707 0,-0.27804 0.210799,-0.47611 0.212616,-0.1999 0.523362,-0.1999 0.199895,0 0.379801,0.0927 0.181723,0.0927 0.392521,0.338 z"
         style="font-size:3.72168469px;text-align:center;text-anchor:middle;fill:#4c4c4c;fill-opacity:1;stroke-width:0.27912635"
         id="path180" />
      <path
         d="m 13.672091,282.98417 h 0.494286 v 0.72871 h 0.294391 v 0.42705 h -0.294391 v 1.55009 h -0.494286 v -1.55009 h -0.254412 v -0.42705 h 0.254412 z"
         style="font-size:3.72168469px;text-align:center;text-anchor:middle;fill:#4c4c4c;fill-opacity:1;stroke-width:0.27912635"
         id="path182" />
      <path
         d="m 16.192587,283.71288 h 0.494287 v 1.97714 h -0.494287 v -0.20898 q -0.145378,0.13811 -0.292573,0.1999 -0.145379,0.06 -0.316198,0.06 -0.383436,0 -0.663289,-0.2962 -0.279853,-0.29803 -0.279853,-0.73962 0,-0.45794 0.270767,-0.75051 0.270767,-0.29258 0.657837,-0.29258 0.178088,0 0.33437,0.0672 0.156282,0.0672 0.288939,0.20171 z m -0.521544,0.40706 q -0.230788,0 -0.383436,0.16355 -0.152647,0.16173 -0.152647,0.41614 0,0.25623 0.154465,0.4216 0.156281,0.16537 0.383435,0.16537 0.234423,0 0.388887,-0.16174 0.154464,-0.16355 0.154464,-0.42705 0,-0.25804 -0.154464,-0.41796 -0.154464,-0.15991 -0.390704,-0.15991 z"
         style="font-size:3.72168469px;text-align:center;text-anchor:middle;fill:#4c4c4c;fill-opacity:1;stroke-width:0.27912635"
         id="path184" />
      <path
         d="m 18.649481,283.71288 h 0.494286 v 1.97714 h -0.494286 v -0.20898 q -0.145378,0.13811 -0.292574,0.1999 -0.145378,0.06 -0.316198,0.06 -0.383435,0 -0.663288,-0.2962 -0.279854,-0.29803 -0.279854,-0.73962 0,-0.45794 0.270768,-0.75051 0.270767,-0.29258 0.657836,-0.29258 0.178089,0 0.33437,0.0672 0.156282,0.0672 0.28894,0.20171 z m -0.521545,0.40706 q -0.230788,0 -0.383435,0.16355 -0.152647,0.16173 -0.152647,0.41614 0,0.25623 0.154464,0.4216 0.156282,0.16537 0.383435,0.16537 0.234423,0 0.388887,-0.16174 0.154465,-0.16355 0.154465,-0.42705 0,-0.25804 -0.154465,-0.41796 -0.154464,-0.15991 -0.390704,-0.15991 z"
         style="font-size:3.72168469px;text-align:center;text-anchor:middle;fill:#4c4c4c;fill-opacity:1;stroke-width:0.27912635"
         id="path186" />
      <path
         d="m 19.705291,282.98417 h 0.494286 v 0.72871 h 0.294391 v 0.42705 h -0.294391 v 1.55009 h -0.494286 v -1.55009 h -0.254412 v -0.42705 h 0.254412 z"
         style="font-size:3.72168469px;text-align:center;text-anchor:middle;fill:#4c4c4c;fill-opacity:1;stroke-width:0.27912635"
         id="path188" />
      <path
         d="m 21.97501,283.9891 -0.307112,0.30711 q -0.187175,-0.18536 -0.339822,-0.18536 -0.08359,0 -0.13084,0.0363 -0.04725,0.0345 -0.04725,0.0872 0,0.04 0.02907,0.0745 0.03089,0.0327 0.149013,0.0909 l 0.181723,0.0909 q 0.287122,0.14174 0.394339,0.28894 0.107216,0.1472 0.107216,0.34527 0,0.2635 -0.194443,0.43977 -0.192627,0.17627 -0.51791,0.17627 -0.432501,0 -0.690547,-0.338 l 0.305294,-0.33255 q 0.08723,0.10176 0.20353,0.16536 0.11812,0.0618 0.208981,0.0618 0.09813,0 0.158099,-0.0473 0.05997,-0.0473 0.05997,-0.10903 0,-0.11449 -0.21625,-0.22352 l -0.167185,-0.0836 q -0.479748,-0.2417 -0.479748,-0.60514 0,-0.23442 0.179905,-0.39979 0.181723,-0.16719 0.463394,-0.16719 0.192626,0 0.361628,0.0854 0.17082,0.0836 0.28894,0.2417 z"
         style="font-size:3.72168469px;text-align:center;text-anchor:middle;fill:#4c4c4c;fill-opacity:1;stroke-width:0.27912635"
         id="path190" />
      <path
         d="m 23.861293,283.71288 h 0.494286 v 1.97714 h -0.494286 v -0.20898 q -0.145378,0.13811 -0.292574,0.1999 -0.145378,0.06 -0.316198,0.06 -0.383435,0 -0.663288,-0.2962 -0.279854,-0.29803 -0.279854,-0.73962 0,-0.45794 0.270768,-0.75051 0.270767,-0.29258 0.657836,-0.29258 0.178089,0 0.334371,0.0672 0.156281,0.0672 0.288939,0.20171 z m -0.521545,0.40706 q -0.230788,0 -0.383435,0.16355 -0.152647,0.16173 -0.152647,0.41614 0,0.25623 0.154464,0.4216 0.156282,0.16537 0.383435,0.16537 0.234423,0 0.388887,-0.16174 0.154465,-0.16355 0.154465,-0.42705 0,-0.25804 -0.154465,-0.41796 -0.154464,-0.15991 -0.390704,-0.15991 z"
         style="font-size:3.72168469px;text-align:center;text-anchor:middle;fill:#4c4c4c;fill-opacity:1;stroke-width:0.27912635"
         id="path192" />
      <path
         d="m 25.349604,283.71288 v 0.21806 q 0.134475,-0.13447 0.290756,-0.20171 0.156282,-0.0672 0.334371,-0.0672 0.387069,0 0.657836,0.29258 0.270768,0.29257 0.270768,0.75051 0,0.44159 -0.279854,0.73962 -0.279853,0.2962 -0.663288,0.2962 -0.17082,0 -0.318015,-0.06 -0.147196,-0.0618 -0.292574,-0.1999 v 0.93224 h -0.492469 v -2.7004 z m 0.521545,0.40706 q -0.234423,0 -0.388887,0.15991 -0.154465,0.15992 -0.154465,0.41796 0,0.2635 0.154465,0.42705 0.154464,0.16174 0.388887,0.16174 0.227153,0 0.381618,-0.16537 0.156281,-0.16537 0.156281,-0.4216 0,-0.25441 -0.152647,-0.41614 -0.152647,-0.16355 -0.385252,-0.16355 z"
         style="font-size:3.72168469px;text-align:center;text-anchor:middle;fill:#4c4c4c;fill-opacity:1;stroke-width:0.27912635"
         id="path194" />
      <path
         d="m 27.806497,283.71288 v 0.21806 q 0.134475,-0.13447 0.290756,-0.20171 0.156282,-0.0672 0.334371,-0.0672 0.387069,0 0.657836,0.29258 0.270767,0.29257 0.270767,0.75051 0,0.44159 -0.279853,0.73962 -0.279853,0.2962 -0.663288,0.2962 -0.17082,0 -0.318015,-0.06 -0.147196,-0.0618 -0.292574,-0.1999 v 0.93224 h -0.492469 v -2.7004 z m 0.521544,0.40706 q -0.234422,0 -0.388886,0.15991 -0.154465,0.15992 -0.154465,0.41796 0,0.2635 0.154465,0.42705 0.154464,0.16174 0.388886,0.16174 0.227154,0 0.381619,-0.16537 0.156281,-0.16537 0.156281,-0.4216 0,-0.25441 -0.152647,-0.41614 -0.152647,-0.16355 -0.385253,-0.16355 z"
         style="font-size:3.72168469px;text-align:center;text-anchor:middle;fill:#4c4c4c;fill-opacity:1;stroke-width:0.27912635"
         id="path196" />
      <path
         d="m 31.231974,283.71288 h 0.494286 v 1.97714 h -0.494286 v -0.20898 q -0.145379,0.13811 -0.292574,0.1999 -0.145378,0.06 -0.316198,0.06 -0.383435,0 -0.663288,-0.2962 -0.279854,-0.29803 -0.279854,-0.73962 0,-0.45794 0.270767,-0.75051 0.270767,-0.29258 0.657837,-0.29258 0.178089,0 0.33437,0.0672 0.156282,0.0672 0.28894,0.20171 z m -0.521545,0.40706 q -0.230788,0 -0.383435,0.16355 -0.152647,0.16173 -0.152647,0.41614 0,0.25623 0.154464,0.4216 0.156282,0.16537 0.383435,0.16537 0.234423,0 0.388887,-0.16174 0.154465,-0.16355 0.154465,-0.42705 0,-0.25804 -0.154465,-0.41796 -0.154464,-0.15991 -0.390704,-0.15991 z"
         style="font-size:3.72168469px;text-align:center;text-anchor:middle;fill:#4c4c4c;fill-opacity:1;stroke-width:0.27912635"
         id="path198" />
      <path
         d="m 32.111513,283.71288 h 0.425232 v 0.24896 q 0.06905,-0.1472 0.18354,-0.22352 0.114485,-0.0763 0.250777,-0.0763 0.09631,0 0.201713,0.0509 l -0.154465,0.42705 q -0.08723,-0.0436 -0.143561,-0.0436 -0.114485,0 -0.194443,0.14175 -0.07814,0.14174 -0.07814,0.55607 l 0.0018,0.0963 v 0.79958 h -0.492469 z"
         style="font-size:3.72168469px;text-align:center;text-anchor:middle;fill:#4c4c4c;fill-opacity:1;stroke-width:0.27912635"
         id="path200" />
      <path
         d="m 34.880968,283.71288 h 0.494286 v 1.97714 h -0.494286 v -0.20898 q -0.145378,0.13811 -0.292574,0.1999 -0.145378,0.06 -0.316198,0.06 -0.383435,0 -0.663288,-0.2962 -0.279853,-0.29803 -0.279853,-0.73962 0,-0.45794 0.270767,-0.75051 0.270767,-0.29258 0.657837,-0.29258 0.178088,0 0.33437,0.0672 0.156281,0.0672 0.288939,0.20171 z m -0.521545,0.40706 q -0.230788,0 -0.383435,0.16355 -0.152647,0.16173 -0.152647,0.41614 0,0.25623 0.154464,0.4216 0.156282,0.16537 0.383436,0.16537 0.234422,0 0.388887,-0.16174 0.154464,-0.16355 0.154464,-0.42705 0,-0.25804 -0.154464,-0.41796 -0.154465,-0.15991 -0.390705,-0.15991 z"
         style="font-size:3.72168469px;text-align:center;text-anchor:middle;fill:#4c4c4c;fill-opacity:1;stroke-width:0.27912635"
         id="path202" />
      <path
         d="m 35.936779,282.98417 h 0.494286 v 0.72871 h 0.294391 v 0.42705 h -0.294391 v 1.55009 h -0.494286 v -1.55009 h -0.254412 v -0.42705 h 0.254412 z"
         style="font-size:3.72168469px;text-align:center;text-anchor:middle;fill:#4c4c4c;fill-opacity:1;stroke-width:0.27912635"
         id="path204" />
      <path
         d="m 39.245953,283.9891 -0.307111,0.30711 q -0.187175,-0.18536 -0.339822,-0.18536 -0.08359,0 -0.130841,0.0363 -0.04725,0.0345 -0.04725,0.0872 0,0.04 0.02908,0.0745 0.03089,0.0327 0.149013,0.0909 l 0.181723,0.0909 q 0.287122,0.14174 0.394338,0.28894 0.107217,0.1472 0.107217,0.34527 0,0.2635 -0.194444,0.43977 -0.192626,0.17627 -0.51791,0.17627 -0.4325,0 -0.690547,-0.338 l 0.305295,-0.33255 q 0.08723,0.10176 0.203529,0.16536 0.11812,0.0618 0.208982,0.0618 0.09813,0 0.158098,-0.0473 0.05997,-0.0473 0.05997,-0.10903 0,-0.11449 -0.21625,-0.22352 l -0.167185,-0.0836 q -0.479749,-0.2417 -0.479749,-0.60514 0,-0.23442 0.179906,-0.39979 0.181723,-0.16719 0.463393,-0.16719 0.192627,0 0.361629,0.0854 0.170819,0.0836 0.288939,0.2417 z"
         style="font-size:3.72168469px;text-align:center;text-anchor:middle;fill:#4c4c4c;fill-opacity:1;stroke-width:0.27912635"
         id="path206" />
      <path
         d="m 41.606533,284.11267 -0.412511,0.22715 q -0.116302,-0.12175 -0.230788,-0.169 -0.112668,-0.0473 -0.265315,-0.0473 -0.278036,0 -0.450673,0.16718 -0.170819,0.16537 -0.170819,0.42524 0,0.25259 0.165367,0.41251 0.165368,0.15991 0.434318,0.15991 0.332553,0 0.51791,-0.22715 l 0.390705,0.26713 q -0.318016,0.41251 -0.897712,0.41251 -0.521544,0 -0.817753,-0.30893 -0.294391,-0.30892 -0.294391,-0.72325 0,-0.28712 0.143561,-0.52882 0.143562,-0.24169 0.399791,-0.3798 0.258046,-0.13811 0.576061,-0.13811 0.294391,0 0.528814,0.11812 0.234423,0.11631 0.383435,0.33256 z"
         style="font-size:3.72168469px;text-align:center;text-anchor:middle;fill:#4c4c4c;fill-opacity:1;stroke-width:0.27912635"
         id="path208" />
      <path
         d="m 42.057205,282.94964 h 0.492469 v 0.96313 q 0.145378,-0.12539 0.292574,-0.18717 0.147195,-0.0636 0.298025,-0.0636 0.294391,0 0.496104,0.20353 0.172636,0.17627 0.172636,0.51791 v 1.30659 h -0.488834 v -0.86682 q 0,-0.34345 -0.03271,-0.46521 -0.03271,-0.12175 -0.112669,-0.18172 -0.07814,-0.06 -0.194443,-0.06 -0.15083,0 -0.259864,0.0999 -0.107216,0.0999 -0.149013,0.27258 -0.02181,0.089 -0.02181,0.40706 v 0.79413 h -0.492469 z"
         style="font-size:3.72168469px;text-align:center;text-anchor:middle;fill:#4c4c4c;fill-opacity:1;stroke-width:0.27912635"
         id="path210" />
      <path
         d="m 44.067063,283.71288 h 0.4852 l 0.397973,1.12486 0.428866,-1.12486 h 0.296208 l 0.41978,1.11214 0.397973,-1.11214 h 0.488835 l -0.72144,1.97714 h -0.314381 l -0.421597,-1.12668 -0.434318,1.12668 h -0.310746 z"
         style="font-size:3.72168469px;text-align:center;text-anchor:middle;fill:#4c4c4c;fill-opacity:1;stroke-width:0.27912635"
         id="path212" />
      <path
         d="m 48.728254,283.71288 h 0.494287 v 1.97714 h -0.494287 v -0.20898 q -0.145378,0.13811 -0.292573,0.1999 -0.145379,0.06 -0.316198,0.06 -0.383436,0 -0.663289,-0.2962 -0.279853,-0.29803 -0.279853,-0.73962 0,-0.45794 0.270767,-0.75051 0.270767,-0.29258 0.657837,-0.29258 0.178088,0 0.33437,0.0672 0.156282,0.0672 0.288939,0.20171 z m -0.521544,0.40706 q -0.230788,0 -0.383436,0.16355 -0.152647,0.16173 -0.152647,0.41614 0,0.25623 0.154465,0.4216 0.156281,0.16537 0.383435,0.16537 0.234422,0 0.388887,-0.16174 0.154464,-0.16355 0.154464,-0.42705 0,-0.25804 -0.154464,-0.41796 -0.154465,-0.15991 -0.390704,-0.15991 z m -0.365263,-1.28842 q 0.109033,0 0.185357,0.0763 0.07632,0.0763 0.07632,0.18354 0,0.10904 -0.07632,0.18536 -0.07632,0.0763 -0.185357,0.0763 -0.107217,0 -0.18354,-0.0763 -0.07632,-0.0763 -0.07632,-0.18536 0,-0.10721 0.07632,-0.18354 0.07632,-0.0763 0.18354,-0.0763 z m 0.805032,0 q 0.109034,0 0.185357,0.0763 0.07632,0.0763 0.07632,0.18354 0,0.10904 -0.07632,0.18536 -0.07632,0.0763 -0.185357,0.0763 -0.107216,0 -0.18354,-0.0763 -0.07632,-0.0763 -0.07632,-0.18536 0,-0.10721 0.07632,-0.18354 0.07632,-0.0763 0.18354,-0.0763 z"
         style="font-size:3.72168469px;text-align:center;text-anchor:middle;fill:#4c4c4c;fill-opacity:1;stroke-width:0.27912635"
         id="path214" />
      <path
         d="m 51.659441,284.11267 -0.412511,0.22715 q -0.116302,-0.12175 -0.230788,-0.169 -0.112668,-0.0473 -0.265315,-0.0473 -0.278036,0 -0.450673,0.16718 -0.170819,0.16537 -0.170819,0.42524 0,0.25259 0.165367,0.41251 0.165368,0.15991 0.434318,0.15991 0.332553,0 0.51791,-0.22715 l 0.390704,0.26713 q -0.318015,0.41251 -0.897711,0.41251 -0.521544,0 -0.817753,-0.30893 -0.294391,-0.30892 -0.294391,-0.72325 0,-0.28712 0.143561,-0.52882 0.143562,-0.24169 0.399791,-0.3798 0.258046,-0.13811 0.576061,-0.13811 0.294391,0 0.528814,0.11812 0.234422,0.11631 0.383435,0.33256 z"
         style="font-size:3.72168469px;text-align:center;text-anchor:middle;fill:#4c4c4c;fill-opacity:1;stroke-width:0.27912635"
         id="path216" />
      <path
         d="m 52.110115,282.94964 h 0.492469 v 0.96313 q 0.145378,-0.12539 0.292573,-0.18717 0.147196,-0.0636 0.298026,-0.0636 0.294391,0 0.496103,0.20353 0.172637,0.17627 0.172637,0.51791 v 1.30659 h -0.488834 v -0.86682 q 0,-0.34345 -0.03271,-0.46521 -0.03271,-0.12175 -0.112669,-0.18172 -0.07814,-0.06 -0.194443,-0.06 -0.15083,0 -0.259864,0.0999 -0.107216,0.0999 -0.149013,0.27258 -0.02181,0.089 -0.02181,0.40706 v 0.79413 h -0.492469 z"
         style="font-size:3.72168469px;text-align:center;text-anchor:middle;fill:#4c4c4c;fill-opacity:1;stroke-width:0.27912635"
         id="path218" />
      <path
         d="m 56.320637,284.84501 h -1.59371 q 0.03453,0.2108 0.18354,0.33619 0.15083,0.12357 0.383435,0.12357 0.278036,0 0.477931,-0.19444 l 0.417963,0.19626 q -0.156282,0.2217 -0.374349,0.32891 -0.218068,0.1054 -0.51791,0.1054 -0.465211,0 -0.757785,-0.29257 -0.292574,-0.29439 -0.292574,-0.73598 0,-0.45249 0.290757,-0.75051 0.292574,-0.29985 0.732343,-0.29985 0.467028,0 0.759602,0.29985 0.292574,0.29802 0.292574,0.78867 z m -0.497921,-0.3907 q -0.04906,-0.16537 -0.194444,-0.26895 -0.143561,-0.10359 -0.33437,-0.10359 -0.207164,0 -0.363446,0.11631 -0.09813,0.0727 -0.181722,0.25623 z"
         style="font-size:3.72168469px;text-align:center;text-anchor:middle;fill:#4c4c4c;fill-opacity:1;stroke-width:0.27912635"
         id="path220" />
      <path
         d="m 56.724058,283.71288 h 0.494286 v 0.20171 q 0.169003,-0.14175 0.305295,-0.19626 0.138109,-0.0563 0.28167,-0.0563 0.294391,0 0.499738,0.20535 0.172637,0.17445 0.172637,0.51609 v 1.30659 h -0.490652 v -0.86682 q 0,-0.35436 -0.03271,-0.47066 -0.03089,-0.1163 -0.110851,-0.17627 -0.07814,-0.0618 -0.194443,-0.0618 -0.15083,0 -0.259864,0.10177 -0.107217,0.0999 -0.149013,0.27803 -0.02181,0.0927 -0.02181,0.40161 v 0.79413 h -0.494286 z"
         style="font-size:3.72168469px;text-align:center;text-anchor:middle;fill:#4c4c4c;fill-opacity:1;stroke-width:0.27912635"
         id="path222" />
    </g>
  </g>
</svg>
