<?xml version="1.0" encoding="UTF-8" standalone="no"?>
<!-- Created with Inkscape (http://www.inkscape.org/) -->

<svg
   xmlns:dc="http://purl.org/dc/elements/1.1/"
   xmlns:cc="http://creativecommons.org/ns#"
   xmlns:rdf="http://www.w3.org/1999/02/22-rdf-syntax-ns#"
   xmlns:svg="http://www.w3.org/2000/svg"
   xmlns="http://www.w3.org/2000/svg"
   version="1.2"
   width="827"
   height="1181"
   viewBox="0 0 233.39778 333.30443"
   id="svg8">
  <defs
     id="defs2" />
  <metadata
     id="metadata5">
    <rdf:RDF>
      <cc:Work
         rdf:about="">
        <dc:format>image/svg+xml</dc:format>
        <dc:type
           rdf:resource="http://purl.org/dc/dcmitype/StillImage" />
        <dc:title></dc:title>
      </cc:Work>
    </rdf:RDF>
  </metadata>
  <g
     transform="translate(0,36.30445)"
     id="layer1">
    <rect
       width="233.39778"
       height="333.42542"
       x="0"
       y="-36.4254"
       id="rect858"
       style="fill:#ffffff;fill-opacity:1;stroke:none" />
    <g
       transform="matrix(3.334254,0,0,3.334254,-6.66851,-675.00498)"
       id="g875">
      <g
         transform="matrix(1.3011002,0,0,1.3011002,16.420217,-75.468301)"
         id="g915">
        <path
           d="m 15.817084,222.05063 c -5.391414,0 -9.7639184,4.37197 -9.7639184,9.76365 0,1.07791 0.174625,2.11455 0.4974166,3.08425 h 2.9199417 v -8.21505 l 6.3465601,6.34656 6.346561,-6.34656 v 8.21505 h 2.920206 c 0.322791,-0.9697 0.497416,-2.00634 0.497416,-3.08425 0,-5.39168 -4.372504,-9.76365 -9.764183,-9.76365"
           id="path22"
           style="fill:#ff6600;stroke-width:0.26458332" />
        <path
           d="m 11.58809,231.71921 v 5.16917 H 7.4738193 c 1.7139708,2.81199 4.8095957,4.69 8.3431057,4.69 3.533511,0 6.6294,-1.87801 8.343107,-4.69 h -4.114007 v -5.16917 l -4.2291,4.2291 z"
           id="path26"
           style="fill:#4c4c4c;stroke-width:0.26458332" />
      </g>
      <g
         transform="matrix(0.28222222,0,0,0.28222222,149.44496,205.3361)"
         id="flowRoot3291"
         style="font-size:30px;font-style:normal;font-variant:normal;font-weight:600;font-stretch:normal;line-height:125%;letter-spacing:0px;word-spacing:0px;fill:#4c4c4c;fill-opacity:1;stroke:none;font-family:URW Gothic L;-inkscape-font-specification:URW Gothic L Semi-Bold">
        <path
           d="m -510.11625,-1.2573529 4.11,0 0,-9.3000001 7.92,0 0,9.3000001 4.11,0 0,-22.1700001 -4.11,0 0,8.94 -7.92,0 0,-8.94 -4.11,0 0,22.1700001"
           id="path3739" />
        <path
           d="m -489.90141,-1.2573529 14.01,0 0,-3.93 -9.9,0 0,-5.1600001 9.57,0 0,-3.93 -9.57,0 0,-5.22 9.9,0 0,-3.93 -14.01,0 0,22.1700001"
           id="path3741" />
        <path
           d="m -463.82719,-1.2573529 4.11,0 0,-18.2400001 7.92,0 0,18.2400001 4.11,0 0,-22.1700001 -16.14,0 0,22.1700001"
           id="path3743" />
        <path
           d="m -432.75234,-23.817353 c -6.6,0 -11.7,5.010007 -11.7,11.49 0,6.3899937 5.16,11.46000006 11.67,11.46000006 6.44999,0 11.43,-5.01000646 11.43,-11.49000006 0,-6.329994 -5.07001,-11.46 -11.4,-11.46 m -0.06,3.96 c 4.10999,0 7.32,3.300004 7.32,7.56 0,4.2599958 -3.12001,7.4700001 -7.32,7.4700001 -4.2,0 -7.5,-3.3000042 -7.5,-7.5000001 0,-4.289996 3.24,-7.53 7.5,-7.53"
           id="path3745" />
        <path
           d="m -418.12406,-1.2573529 4.11,0 0,-9.7500001 6.87,9.7500001 4.71,0 -8.1,-11.2800001 8.1,-10.89 -4.71,0 -6.87,9.57 0,-9.57 -4.11,0 0,22.1700001"
           id="path3747" />
        <path
           d="m -398.34,-1.2573529 4.62,0 10.62,-22.1700001 -4.44,0 -4.89,10.2 -4.92,-10.2 -4.29,0 7.14,13.9800001 -3.84,8.19"
           id="path3749" />
        <path
           d="m -380.85844,-1.2573529 4.11,0 0,-18.2400001 7.92,0 0,18.2400001 4.11,0 0,-22.1700001 -16.14,0 0,22.1700001"
           id="path3751" />
        <path
           d="m -362.47359,-1.2573529 4.53,0 2.46,-5.73 7.89,0 2.37,5.73 4.53,0 -9.3,-22.1700001 -3.24,0 -9.24,22.1700001 m 8.49,-9.6600001 2.37,-6.72 2.37,6.72 -4.74,0"
           id="path3753" />
        <path
           d="m -334.83656,-28.077353 c 0.18,2.639997 2.01,4.17 4.98,4.17 2.84999,0 4.83,-1.680002 4.92,-4.17 l -3.06,0 c -0.15,0.839999 -0.81,1.29 -1.86,1.29 -0.99,0 -1.68,-0.420001 -2.04,-1.29 l -2.94,0 m 14.37,26.8200001 0,-22.1700001 -4.68,0 -9.18,16.1400001 0,-16.1400001 -4.11,0 0,22.1700001 4.59,0 9.27,-16.1100001 0,16.1100001 4.11,0"
           id="path3755" />
        <path
           d="m -312.62531,-1.2573529 4.11,0 0,-18.2400001 5.61,0 0,-3.93 -15.33,0 0,3.93 5.61,0 0,18.2400001"
           id="path3757" />
        <path
           d="m -300.81937,-1.2573529 14.01,0 0,-3.93 -9.90001,0 0,-5.1600001 9.57001,0 0,-3.93 -9.57001,0 0,-5.22 9.90001,0 0,-3.93 -14.01,0 0,22.1700001"
           id="path3759" />
      </g>
      <g
         id="text3299"
         style="font-size:11.28888893px;font-style:normal;font-variant:normal;font-weight:600;font-stretch:normal;line-height:125%;letter-spacing:0px;word-spacing:0px;fill:#4c4c4c;fill-opacity:1;stroke:none;font-family:URW Gothic L;-inkscape-font-specification:URW Gothic L Semi-Bold">
        <path
           d="m 12.737675,249.39594 1.546578,0 0,-6.25405 2.178756,6.25405 1.264355,0 2.178756,-6.25405 0,6.25405 1.546577,0 0,-8.34249 -2.122311,0 -2.223911,6.32177 -2.246489,-6.32177 -2.122311,0 0,8.34249"
           id="path3762" />
        <path
           d="m 27.076858,240.90669 c -2.483554,0 -4.402667,1.88525 -4.402667,4.32365 0,2.40453 1.941691,4.31235 4.391378,4.31235 2.427108,0 4.301066,-1.88525 4.301066,-4.32364 0,-2.38196 -1.907824,-4.31236 -4.289777,-4.31236 m -0.02258,1.49013 c 1.546576,0 2.754489,1.24178 2.754489,2.8448 0,1.60302 -1.174046,2.81094 -2.754489,2.81094 -1.580443,0 -2.822223,-1.24178 -2.822223,-2.82222 0,-1.61431 1.219202,-2.83352 2.822223,-2.83352"
           id="path3764" />
        <path
           d="m 32.581425,249.39594 1.546578,0 0,-3.49956 2.980267,0 0,3.49956 1.546577,0 0,-8.34249 -1.546577,0 0,3.36409 -2.980267,0 0,-3.36409 -1.546578,0 0,8.34249"
           id="path3766" />
        <path
           d="m 40.188197,249.39594 5.271911,0 0,-1.47885 -3.725334,0 0,-1.94169 3.601156,0 0,-1.47884 -3.601156,0 0,-1.96427 3.725334,0 0,-1.47884 -5.271911,0 0,8.34249"
           id="path3768" />
        <path
           d="m 46.846875,249.39594 1.546578,0 0,-3.17218 0.496711,0 c 1.185332,0 1.7272,-0.0903 2.190044,-0.37254 0.677333,-0.41768 1.095022,-1.26435 1.095022,-2.22391 0,-0.95955 -0.4064,-1.74978 -1.128889,-2.19004 -0.474132,-0.28222 -1.02729,-0.38382 -2.1336,-0.38382 l -2.065866,0 0,8.34249 m 1.546578,-4.65103 0,-2.21262 0.519288,0 c 0.508,0 0.733778,0.0226 0.982134,0.079 0.451555,0.12418 0.722489,0.51929 0.722489,1.03858 0,0.4064 -0.180623,0.72249 -0.508,0.90311 -0.237067,0.12418 -0.666045,0.19191 -1.264356,0.19191 l -0.451555,0"
           id="path3770" />
        <path
           d="m 57.393696,240.90669 c -2.483553,0 -4.402667,1.88525 -4.402667,4.32365 0,2.40453 1.941691,4.31235 4.391378,4.31235 2.427109,0 4.301067,-1.88525 4.301067,-4.32364 0,-2.38196 -1.907825,-4.31236 -4.289778,-4.31236 m -0.02258,1.49013 c 1.546576,0 2.754489,1.24178 2.754489,2.8448 0,1.60302 -1.174046,2.81094 -2.754489,2.81094 -1.580443,0 -2.822222,-1.24178 -2.822222,-2.82222 0,-1.61431 1.219201,-2.83352 2.822222,-2.83352"
           id="path3772" />
      </g>
      <g
         id="text3309"
         style="font-size:3.95111108px;font-style:normal;font-variant:normal;font-weight:600;font-stretch:normal;text-align:center;line-height:125%;letter-spacing:0px;word-spacing:0px;text-anchor:middle;fill:#4c4c4c;fill-opacity:1;stroke:none;font-family:URW Gothic L;-inkscape-font-specification:URW Gothic L Semi-Bold">
        <path
           d="m 14.793207,265.51627 0.541303,0 0,-1.28412 0.904804,1.28412 0.620324,0 -1.0668,-1.48562 1.0668,-1.43426 -0.620324,0 -0.904804,1.26041 0,-1.26041 -0.541303,0 0,2.91988"
           id="path3775" />
        <path
           d="m 17.130166,266.24722 0.525498,0 0,-0.93641 c 0.197555,0.1778 0.403014,0.25682 0.671689,0.25682 0.632177,0 1.094458,-0.48994 1.094458,-1.15372 0,-0.65984 -0.45833,-1.13792 -1.090507,-1.13792 -0.296333,0 -0.549205,0.11063 -0.719102,0.30818 l 0,-0.25682 -0.482036,0 0,2.91987 m 1.133969,-2.4892 c 0.3556,0 0.628227,0.28843 0.628227,0.66774 0,0.3714 -0.272627,0.65983 -0.620325,0.65983 -0.371404,0 -0.647982,-0.28448 -0.647982,-0.66773 0,-0.37536 0.276578,-0.65984 0.64008,-0.65984"
           id="path3777" />
        <path
           d="m 21.678698,263.32735 -0.584765,0 -0.837635,1.43425 0,-1.43425 -0.525498,0 0,2.18892 0.584764,0 0.837636,-1.43426 0,1.43426 0.525498,0 0,-2.18892"
           id="path3779" />
        <path
           d="m 23.976515,263.32735 -1.868875,0 0,2.18892 0.525498,0 0,-1.67132 0.81788,0 0,1.67132 0.525497,0 0,-2.18892"
           id="path3781" />
        <path
           d="m 24.830264,265.51627 0.525498,0 0,-1.71084 0.632178,0 0,-0.47808 -1.774049,0 0,0.47808 0.616373,0 0,1.71084"
           id="path3783" />
        <path
           d="m 27.291375,263.27599 c -0.636129,0 -1.157676,0.51759 -1.157676,1.14582 0,0.63218 0.521547,1.14582 1.161627,1.14582 0.636128,0 1.165578,-0.51364 1.165578,-1.13002 0,-0.65193 -0.509694,-1.16162 -1.169529,-1.16162 m 0.004,0.48203 c 0.351648,0 0.636129,0.30029 0.636129,0.66379 0,0.36745 -0.284481,0.66378 -0.632178,0.66378 -0.3556,0 -0.636129,-0.29633 -0.636129,-0.67168 0,-0.35955 0.288431,-0.65589 0.632178,-0.65589"
           id="path3785" />
        <path
           d="m 29.28897,263.76987 0.32004,0 c 0.122484,0 0.217311,0.0593 0.217311,0.17385 0,0.11459 -0.09483,0.17385 -0.217311,0.17385 l -0.32004,0 0,-0.3477 m 0.004,0.78628 0.505742,0 c 0.185702,0 0.323991,0.0988 0.323991,0.27262 0,0.1778 -0.14224,0.27263 -0.335844,0.27263 l -0.493889,0 0,-0.54525 m 0.877147,-0.31214 c 0.09483,-0.10668 0.134337,-0.23707 0.134337,-0.35165 0,-0.23707 -0.173849,-0.53735 -0.647982,-0.53735 l -0.889,0 0,2.16126 1.007534,0 c 0.474132,0 0.825782,-0.22917 0.825782,-0.66379 0,-0.30028 -0.169898,-0.50574 -0.430671,-0.60847"
           id="path3787" />
        <path
           d="m 33.137044,263.32735 -0.482035,0 0,0.29238 c -0.181751,-0.24101 -0.399063,-0.34374 -0.715152,-0.34374 -0.647981,0 -1.114213,0.48598 -1.114213,1.15372 0,0.65984 0.462281,1.13792 1.10236,1.13792 0.308187,0 0.517596,-0.0988 0.727005,-0.33584 l 0,0.28448 0.482035,0 0,-2.18892 m -1.141871,0.43067 c 0.375355,0 0.644031,0.28053 0.644031,0.67959 0,0.15805 -0.06322,0.3398 -0.158044,0.45043 -0.10668,0.12643 -0.276578,0.19755 -0.478085,0.19755 -0.383257,0 -0.647982,-0.26077 -0.647982,-0.64403 0,-0.39906 0.264725,-0.68354 0.64008,-0.68354"
           id="path3789" />
        <path
           d="m 34.246996,263.32735 -0.881097,2.18892 0.545253,0 0.545253,-1.45006 0.561058,1.45006 0.529449,0 -0.881098,-2.18892 -0.418818,0"
           id="path3791" />
        <path
           d="m 36.2883,264.67468 0.244969,0 c 0.118534,0.50969 0.580814,0.89295 1.130018,0.89295 0.636128,0 1.165578,-0.51364 1.165578,-1.13002 0,-0.65193 -0.509694,-1.16162 -1.169529,-1.16162 -0.545253,0 -1.003582,0.3793 -1.126067,0.88109 l -0.244969,0 0,-0.82973 -0.525497,0 0,2.18892 0.525497,0 0,-0.84159 m 1.374987,-0.91666 c 0.351649,0 0.636129,0.30029 0.636129,0.66379 0,0.36745 -0.28448,0.66378 -0.632178,0.66378 -0.355599,0 -0.636129,-0.29633 -0.636129,-0.67168 0,-0.35955 0.288432,-0.65589 0.632178,-0.65589"
           id="path3793" />
        <path
           d="m 39.56976,265.51627 0.525498,0 0,-1.71084 0.632178,0 0,-0.47808 -1.774049,0 0,0.47808 0.616373,0 0,1.71084"
           id="path3795" />
        <path
           d="m 42.70651,264.77741 c 0,-0.50969 -0.359552,-0.75071 -0.916658,-0.75071 l -0.296333,0 0,-0.69935 -0.525498,0 0,2.18892 0.821831,0 c 0.557106,0 0.916658,-0.27658 0.916658,-0.73886 m -1.212991,0.26472 0,-0.56896 0.42672,0 c 0.244968,0 0.300284,0.19361 0.300284,0.28053 0,0.0869 -0.04741,0.28843 -0.288431,0.28843 l -0.438573,0 m 1.4224,0.47414 0.525498,0 0,-2.18892 -0.525498,0 0,2.18892"
           id="path3797" />
        <path
           d="m 45.494698,263.76987 0.32004,0 c 0.122485,0 0.217312,0.0593 0.217312,0.17385 0,0.11459 -0.09483,0.17385 -0.217312,0.17385 l -0.32004,0 0,-0.3477 m 0.004,0.78628 0.505742,0 c 0.185702,0 0.323991,0.0988 0.323991,0.27262 0,0.1778 -0.14224,0.27263 -0.335845,0.27263 l -0.493888,0 0,-0.54525 m 0.877146,-0.31214 c 0.09483,-0.10668 0.134338,-0.23707 0.134338,-0.35165 0,-0.23707 -0.173849,-0.53735 -0.647982,-0.53735 l -0.889,0 0,2.16126 1.007533,0 c 0.474133,0 0.825782,-0.22917 0.825782,-0.66379 0,-0.30028 -0.169898,-0.50574 -0.430671,-0.60847"
           id="path3799" />
        <path
           d="m 47.126197,266.24722 0.525498,0 0,-0.93641 c 0.197556,0.1778 0.403014,0.25682 0.671689,0.25682 0.632177,0 1.094458,-0.48994 1.094458,-1.15372 0,-0.65984 -0.45833,-1.13792 -1.090507,-1.13792 -0.296333,0 -0.549204,0.11063 -0.719102,0.30818 l 0,-0.25682 -0.482036,0 0,2.91987 m 1.133969,-2.4892 c 0.3556,0 0.628227,0.28843 0.628227,0.66774 0,0.3714 -0.272627,0.65983 -0.620324,0.65983 -0.371405,0 -0.647983,-0.28448 -0.647983,-0.66773 0,-0.37536 0.276578,-0.65984 0.64008,-0.65984"
           id="path3801" />
        <path
           d="m 51.895993,264.65492 c 0.0158,-0.0751 0.01976,-0.12248 0.01976,-0.2015 0,-0.67959 -0.478086,-1.17743 -1.130018,-1.17743 -0.644031,0 -1.153725,0.50969 -1.153725,1.15372 0,0.64008 0.517597,1.13792 1.185334,1.13792 0.35955,0 0.64008,-0.13039 0.869244,-0.39511 0.08297,-0.10273 0.138289,-0.19361 0.173849,-0.30424 l -0.572911,0 c -0.134338,0.15805 -0.264725,0.21731 -0.482036,0.21731 -0.312137,0 -0.541302,-0.16594 -0.60452,-0.43067 l 1.695027,0 m -1.710831,-0.46228 c 0.08297,-0.28052 0.296334,-0.43462 0.608471,-0.43462 0.323991,0 0.537351,0.1541 0.60452,0.43462 l -1.212991,0"
           id="path3803" />
        <path
           d="m 53.542866,264.99867 -0.651934,0 0.327943,-0.93246 0.323991,0.93246 m 0.331893,0.5176 0,0.47413 0.525498,0 0,-0.99173 -0.300285,0 -0.671688,-1.67132 -0.418818,0 -0.671689,1.67132 -0.300285,0 0,0.99173 0.529449,0 0,-0.47413 1.307818,0"
           id="path3805" />
        <path
           d="m 56.464217,263.32735 -0.525497,0 0,0.82973 -0.778369,0 0,-0.82973 -0.525498,0 0,2.18892 0.525498,0 0,-0.84159 0.778369,0 0,0.84159 0.525497,0 0,-2.18892"
           id="path3807" />
        <path
           d="m 58.62671,264.77741 c 0,-0.50969 -0.359551,-0.75071 -0.916658,-0.75071 l -0.296333,0 0,-0.69935 -0.525498,0 0,2.18892 0.821831,0 c 0.557107,0 0.916658,-0.27658 0.916658,-0.73886 m -1.212991,0.26472 0,-0.56896 0.42672,0 c 0.244969,0 0.300285,0.19361 0.300285,0.28053 0,0.0869 -0.04741,0.28843 -0.288432,0.28843 l -0.438573,0 m 1.4224,0.47414 0.525498,0 0,-2.18892 -0.525498,0 0,2.18892"
           id="path3809" />
        <path
           d="m 13.414393,269.93756 -0.651933,0 0.327942,-0.93246 0.323991,0.93246 m 0.331893,0.51759 0,0.47414 0.525498,0 0,-0.99173 -0.300284,0 -0.671689,-1.67132 -0.418818,0 -0.671689,1.67132 -0.300284,0 0,0.99173 0.529449,0 0,-0.47414 1.307817,0"
           id="path3811" />
        <path
           d="m 15.185973,268.26624 -0.881098,2.18891 0.545253,0 0.545253,-1.45005 0.561058,1.45005 0.529449,0 -0.881098,-2.18891 -0.418817,0"
           id="path3813" />
        <path
           d="m 17.918722,268.74037 0,0.56896 -0.42672,0 c -0.244969,0 -0.300285,-0.1936 -0.300285,-0.28053 0,-0.0869 0.04741,-0.28843 0.288431,-0.28843 l 0.438574,0 m -0.659836,0.97593 -0.612422,0.73885 0.545253,0 0.572911,-0.69934 0.154094,0 0,0.69934 0.525498,0 0,-2.18891 -0.821832,0 c -0.557106,0 -0.916657,0.27658 -0.916657,0.73886 0,0.38721 0.209409,0.62032 0.553155,0.7112"
           id="path3815" />
        <path
           d="m 20.928233,268.69691 c 0.351649,0 0.636129,0.30029 0.636129,0.66379 0,0.36745 -0.28448,0.66378 -0.632177,0.66378 -0.3556,0 -0.636129,-0.29633 -0.636129,-0.67169 0,-0.35955 0.288431,-0.65588 0.632177,-0.65588 m 0.004,-0.45438 c -0.300285,0 -0.489938,0.10273 -0.596618,0.15014 0.04741,-0.0474 0.09483,-0.26077 0.545253,-0.43067 0.466231,0 0.971973,-0.1778 0.971973,-0.1778 l 0,-0.42672 c 0,0 -0.505742,0.16595 -0.971973,0.16595 -1.043092,0.15804 -1.082604,1.13002 -1.082604,1.83727 0,0.65983 0.485987,1.14582 1.157675,1.14582 0.632177,0 1.098409,-0.47809 1.098409,-1.12607 0,-0.65983 -0.474134,-1.13792 -1.122115,-1.13792"
           id="path3817" />
        <path
           d="m 24.578874,268.26624 -0.482035,0 0,0.29238 c -0.181751,-0.24102 -0.399063,-0.34375 -0.715151,-0.34375 -0.647982,0 -1.114214,0.48599 -1.114214,1.15373 0,0.65983 0.462281,1.13792 1.10236,1.13792 0.308187,0 0.517596,-0.0988 0.727005,-0.33585 l 0,0.28448 0.482035,0 0,-2.18891 m -1.141871,0.43067 c 0.375355,0 0.644031,0.28053 0.644031,0.67959 0,0.15805 -0.06322,0.3398 -0.158044,0.45043 -0.10668,0.12643 -0.276578,0.19755 -0.478084,0.19755 -0.383258,0 -0.647983,-0.26077 -0.647983,-0.64403 0,-0.39906 0.264725,-0.68354 0.64008,-0.68354"
           id="path3819" />
        <path
           d="m 26.838602,268.26624 -0.525498,0 0,0.82973 -0.778369,0 0,-0.82973 -0.525498,0 0,2.18891 0.525498,0 0,-0.84158 0.778369,0 0,0.84158 0.525498,0 0,-2.18891"
           id="path3821" />
        <path
           d="m 27.262606,270.45515 0.525498,0 0,-1.02333 0.74676,1.02333 0.651933,0 -0.85344,-1.11816 0.762564,-1.07075 -0.608471,0 -0.699346,1.03124 0,-1.03124 -0.525498,0 0,2.18891"
           id="path3823" />
        <path
           d="m 30.524803,268.21487 c -0.636128,0 -1.157675,0.5176 -1.157675,1.14583 0,0.63217 0.521547,1.14582 1.161626,1.14582 0.636129,0 1.165578,-0.51365 1.165578,-1.13002 0,-0.65193 -0.509694,-1.16163 -1.169529,-1.16163 m 0.004,0.48204 c 0.351649,0 0.636129,0.30029 0.636129,0.66379 0,0.36745 -0.28448,0.66378 -0.632178,0.66378 -0.355599,0 -0.636128,-0.29633 -0.636128,-0.67169 0,-0.35955 0.288431,-0.65588 0.632177,-0.65588"
           id="path3825" />
        <path
           d="m 32.522399,268.70876 0.32004,0 c 0.122485,0 0.217312,0.0593 0.217312,0.17385 0,0.11458 -0.09483,0.17385 -0.217312,0.17385 l -0.32004,0 0,-0.3477 m 0.004,0.78627 0.505742,0 c 0.185702,0 0.323991,0.0988 0.323991,0.27263 0,0.1778 -0.14224,0.27263 -0.335845,0.27263 l -0.493888,0 0,-0.54526 m 0.877146,-0.31213 c 0.09483,-0.10668 0.134338,-0.23707 0.134338,-0.35165 0,-0.23707 -0.173849,-0.53735 -0.647982,-0.53735 l -0.889,0 0,2.16125 1.007533,0 c 0.474133,0 0.825782,-0.22916 0.825782,-0.66378 0,-0.30029 -0.169898,-0.50574 -0.430671,-0.60847"
           id="path3827" />
        <path
           d="m 35.72249,269.73605 c -0.130387,0.20151 -0.28053,0.28843 -0.49784,0.28843 -0.363502,0 -0.636129,-0.28448 -0.636129,-0.66773 0,-0.38326 0.260773,-0.65984 0.624275,-0.65984 0.237067,0 0.403014,0.0988 0.509694,0.30028 l 0.592666,0 c -0.07507,-0.22126 -0.146191,-0.33584 -0.296333,-0.47413 -0.21336,-0.19755 -0.501792,-0.30819 -0.806027,-0.30819 -0.647981,0 -1.153724,0.5018 -1.153724,1.14583 0,0.63613 0.521547,1.14582 1.169529,1.14582 0.509692,0 0.904804,-0.28053 1.086555,-0.77047 l -0.592666,0"
           id="path3829" />
        <path
           d="m 36.615626,270.45515 0.525497,0 0,-1.02333 0.74676,1.02333 0.651934,0 -0.85344,-1.11816 0.762564,-1.07075 -0.608471,0 -0.699347,1.03124 0,-1.03124 -0.525497,0 0,2.18891"
           id="path3831" />
        <path
           d="m 39.877823,268.21487 c -0.636128,0 -1.157676,0.5176 -1.157676,1.14583 0,0.63217 0.521548,1.14582 1.161627,1.14582 0.636128,0 1.165578,-0.51365 1.165578,-1.13002 0,-0.65193 -0.509694,-1.16163 -1.169529,-1.16163 m 0.004,0.48204 c 0.351649,0 0.636129,0.30029 0.636129,0.66379 0,0.36745 -0.28448,0.66378 -0.632178,0.66378 -0.3556,0 -0.636129,-0.29633 -0.636129,-0.67169 0,-0.35955 0.288432,-0.65588 0.632178,-0.65588"
           id="path3833" />
        <path
           d="m 41.658108,267.5827 c 0.02371,0.34769 0.264725,0.5492 0.655884,0.5492 0.375356,0 0.636129,-0.22126 0.647983,-0.5492 l -0.403014,0 c -0.01975,0.11063 -0.10668,0.16989 -0.244969,0.16989 -0.130386,0 -0.221262,-0.0553 -0.268675,-0.16989 l -0.387209,0 m 1.643662,0.68354 -0.584764,0 -0.837636,1.43425 0,-1.43425 -0.525498,0 0,2.18891 0.584765,0 0.837635,-1.43425 0,1.43425 0.525498,0 0,-2.18891"
           id="path3835" />
        <path
           d="m 46.402837,269.73605 c -0.130387,0.20151 -0.280529,0.28843 -0.49784,0.28843 -0.363502,0 -0.636129,-0.28448 -0.636129,-0.66773 0,-0.38326 0.260774,-0.65984 0.624276,-0.65984 0.237066,0 0.403013,0.0988 0.509693,0.30028 l 0.592667,0 c -0.07507,-0.22126 -0.146192,-0.33584 -0.296334,-0.47413 -0.213359,-0.19755 -0.501791,-0.30819 -0.806026,-0.30819 -0.647982,0 -1.153725,0.5018 -1.153725,1.14583 0,0.63613 0.521548,1.14582 1.169529,1.14582 0.509693,0 0.904805,-0.28053 1.086556,-0.77047 l -0.592667,0"
           id="path3837" />
        <path
           d="m 49.243871,268.26624 -0.584765,0 -0.837635,1.43425 0,-1.43425 -0.525498,0 0,2.18891 0.584764,0 0.837636,-1.43425 0,1.43425 0.525498,0 0,-2.18891"
           id="path3839" />
        <path
           d="m 51.241407,269.73605 c -0.130387,0.20151 -0.280529,0.28843 -0.49784,0.28843 -0.363502,0 -0.636129,-0.28448 -0.636129,-0.66773 0,-0.38326 0.260773,-0.65984 0.624275,-0.65984 0.237067,0 0.403014,0.0988 0.509694,0.30028 l 0.592666,0 c -0.07507,-0.22126 -0.146191,-0.33584 -0.296333,-0.47413 -0.21336,-0.19755 -0.501791,-0.30819 -0.806027,-0.30819 -0.647981,0 -1.153724,0.5018 -1.153724,1.14583 0,0.63613 0.521547,1.14582 1.169529,1.14582 0.509693,0 0.904804,-0.28053 1.086555,-0.77047 l -0.592666,0"
           id="path3841" />
        <path
           d="m 52.565214,270.45515 0.525498,0 0,-1.71083 0.632177,0 0,-0.47808 -1.774049,0 0,0.47808 0.616374,0 0,1.71083"
           id="path3843" />
        <path
           d="m 56.132633,269.59381 c 0.0158,-0.0751 0.01976,-0.12248 0.01976,-0.2015 0,-0.67959 -0.478085,-1.17744 -1.130018,-1.17744 -0.64403,0 -1.153724,0.5097 -1.153724,1.15373 0,0.64008 0.517596,1.13792 1.185333,1.13792 0.359551,0 0.64008,-0.13039 0.869245,-0.39511 0.08297,-0.10273 0.138289,-0.19361 0.173849,-0.30424 l -0.572912,0 c -0.134337,0.15805 -0.264724,0.21731 -0.482035,0.21731 -0.312138,0 -0.541302,-0.16594 -0.60452,-0.43067 l 1.695027,0 m -1.710832,-0.46228 c 0.08297,-0.28053 0.296334,-0.43462 0.608472,-0.43462 0.32399,0 0.537351,0.15409 0.60452,0.43462 l -1.212992,0"
           id="path3845" />
        <path
           d="m 58.573679,270.45515 0.525497,0 0,-2.18891 -0.774417,0 -0.541303,1.45006 -0.545253,-1.45006 -0.774418,0 0,2.18891 0.525498,0 0,-1.45005 0.584765,1.45005 0.418817,0 0.580814,-1.45005 0,1.45005"
           id="path3847" />
        <path
           d="m 61.26593,269.7163 c 0,-0.5097 -0.359552,-0.75071 -0.916658,-0.75071 l -0.296333,0 0,-0.69935 -0.525498,0 0,2.18891 0.821831,0 c 0.557106,0 0.916658,-0.27657 0.916658,-0.73885 m -1.212991,0.26472 0,-0.56896 0.42672,0 c 0.244969,0 0.300284,0.19361 0.300284,0.28053 0,0.0869 -0.04741,0.28843 -0.288431,0.28843 l -0.438573,0 m 1.4224,0.47413 0.525498,0 0,-2.18891 -0.525498,0 0,2.18891"
           id="path3849" />
        <path
           d="m 21.960369,273.20513 -0.584765,0 -0.837635,1.43425 0,-1.43425 -0.525498,0 0,2.18891 0.584764,0 0.837636,-1.43425 0,1.43425 0.525498,0 0,-2.18891"
           id="path3851" />
        <path
           d="m 25.602737,275.39404 0.525498,0 0,-2.18891 -0.774418,0 -0.541302,1.45006 -0.545253,-1.45006 -0.774418,0 0,2.18891 0.525498,0 0,-1.45005 0.584764,1.45005 0.418818,0 0.580813,-1.45005 0,1.45005"
           id="path3853" />
        <path
           d="m 27.619347,273.15376 c -0.636128,0 -1.157675,0.5176 -1.157675,1.14583 0,0.63217 0.521547,1.14582 1.161627,1.14582 0.636128,0 1.165577,-0.51365 1.165577,-1.13002 0,-0.65193 -0.509694,-1.16163 -1.169529,-1.16163 m 0.004,0.48204 c 0.351648,0 0.636128,0.30028 0.636128,0.66379 0,0.36745 -0.28448,0.66378 -0.632177,0.66378 -0.3556,0 -0.636129,-0.29633 -0.636129,-0.67169 0,-0.35955 0.288431,-0.65588 0.632178,-0.65588"
           id="path3855" />
        <path
           d="m 29.095397,275.39404 0.525497,0 0,-1.71083 0.896903,0 0,-0.47808 -1.4224,0 0,2.18891"
           id="path3857" />
        <path
           d="m 30.924822,276.125 0.565009,0 1.264356,-2.91987 -0.537351,0 -0.596618,1.41845 -0.509694,-1.41845 -0.537351,0 0.762565,1.98346 -0.410916,0.93641"
           id="path3859" />
        <path
           d="m 33.407725,275.39404 0.525498,0 0,-1.71083 0.632178,0 0,-0.47808 -1.774049,0 0,0.47808 0.616373,0 0,1.71083"
           id="path3861" />
        <path
           d="m 36.972369,273.15376 c -0.636129,0 -1.157676,0.5176 -1.157676,1.14583 0,0.63217 0.521547,1.14582 1.161627,1.14582 0.636128,0 1.165577,-0.51365 1.165577,-1.13002 0,-0.65193 -0.509694,-1.16163 -1.169528,-1.16163 m 0.004,0.48204 c 0.351648,0 0.636129,0.30028 0.636129,0.66379 0,0.36745 -0.284481,0.66378 -0.632178,0.66378 -0.3556,0 -0.636129,-0.29633 -0.636129,-0.67169 0,-0.35955 0.288431,-0.65588 0.632178,-0.65588"
           id="path3863" />
        <path
           d="m 40.017007,274.67494 c -0.130386,0.20151 -0.280529,0.28843 -0.49784,0.28843 -0.363502,0 -0.636129,-0.28448 -0.636129,-0.66774 0,-0.38325 0.260774,-0.65983 0.624276,-0.65983 0.237066,0 0.403013,0.0988 0.509693,0.30028 l 0.592667,0 c -0.07507,-0.22126 -0.146191,-0.33584 -0.296333,-0.47413 -0.21336,-0.19756 -0.501792,-0.30819 -0.806027,-0.30819 -0.647982,0 -1.153724,0.5018 -1.153724,1.14583 0,0.63612 0.521547,1.14582 1.169528,1.14582 0.509693,0 0.904805,-0.28053 1.086556,-0.77047 l -0.592667,0"
           id="path3865" />
        <path
           d="m 41.589736,273.20513 -0.881097,2.18891 0.545253,0 0.545253,-1.45005 0.561058,1.45005 0.529449,0 -0.881098,-2.18891 -0.418818,0"
           id="path3867" />
        <path
           d="m 45.326067,273.20513 -0.482035,0 0,0.29238 c -0.181751,-0.24102 -0.399063,-0.34375 -0.715152,-0.34375 -0.647981,0 -1.114213,0.48599 -1.114213,1.15373 0,0.65983 0.462281,1.13792 1.10236,1.13792 0.308186,0 0.517596,-0.0988 0.727005,-0.33585 l 0,0.28448 0.482035,0 0,-2.18891 m -1.141871,0.43067 c 0.375355,0 0.644031,0.28053 0.644031,0.67959 0,0.15804 -0.06322,0.3398 -0.158044,0.45043 -0.10668,0.12643 -0.276578,0.19755 -0.478085,0.19755 -0.383257,0 -0.647982,-0.26077 -0.647982,-0.64403 0,-0.39906 0.264725,-0.68354 0.64008,-0.68354"
           id="path3869" />
        <path
           d="m 46.799522,273.6358 c 0.351648,0 0.636128,0.30028 0.636128,0.66379 0,0.36745 -0.28448,0.66378 -0.632177,0.66378 -0.3556,0 -0.636129,-0.29633 -0.636129,-0.67169 0,-0.35955 0.288431,-0.65588 0.632178,-0.65588 m 0.004,-0.45438 c -0.300284,0 -0.489938,0.10273 -0.596618,0.15014 0.04741,-0.0474 0.09483,-0.26077 0.545253,-0.43067 0.466231,0 0.971974,-0.1778 0.971974,-0.1778 l 0,-0.42672 c 0,0 -0.505743,0.16595 -0.971974,0.16595 -1.043092,0.15804 -1.082604,1.13002 -1.082604,1.83727 0,0.65983 0.485987,1.14582 1.157675,1.14582 0.632178,0 1.098409,-0.47809 1.098409,-1.12607 0,-0.65983 -0.474134,-1.13792 -1.122115,-1.13792"
           id="path3871" />
        <path
           d="m 50.181487,273.20513 -0.584764,0 -0.837636,1.43425 0,-1.43425 -0.525497,0 0,2.18891 0.584764,0 0.837636,-1.43425 0,1.43425 0.525497,0 0,-2.18891"
           id="path3873" />
        <path
           d="m 51.041101,275.39404 0.525498,0 0,-1.71083 0.632178,0 0,-0.47808 -1.774049,0 0,0.47808 0.616373,0 0,1.71083"
           id="path3875" />
        <path
           d="m 54.177851,274.65519 c 0,-0.5097 -0.359552,-0.75072 -0.916658,-0.75072 l -0.296333,0 0,-0.69934 -0.525498,0 0,2.18891 0.821831,0 c 0.557106,0 0.916658,-0.27657 0.916658,-0.73885 m -1.212991,0.26472 0,-0.56896 0.42672,0 c 0.244968,0 0.300284,0.1936 0.300284,0.28053 0,0.0869 -0.04741,0.28843 -0.288431,0.28843 l -0.438573,0"
           id="path3877" />
        <path
           d="m 11.14948,280.33293 0.525498,0 0,-1.71083 0.896902,0 0,-0.47808 -1.4224,0 0,2.18891"
           id="path3879" />
        <path
           d="m 13.856053,278.09265 c -0.636128,0 -1.157675,0.5176 -1.157675,1.14582 0,0.63218 0.521547,1.14583 1.161626,1.14583 0.636129,0 1.165578,-0.51365 1.165578,-1.13002 0,-0.65193 -0.509694,-1.16163 -1.169529,-1.16163 m 0.004,0.48204 c 0.351649,0 0.636129,0.30028 0.636129,0.66378 0,0.36746 -0.28448,0.66379 -0.632178,0.66379 -0.355599,0 -0.636128,-0.29633 -0.636128,-0.67169 0,-0.35955 0.288431,-0.65588 0.632177,-0.65588"
           id="path3881" />
        <path
           d="m 16.900693,279.61383 c -0.130387,0.20151 -0.280529,0.28843 -0.49784,0.28843 -0.363502,0 -0.636129,-0.28448 -0.636129,-0.66774 0,-0.38325 0.260774,-0.65983 0.624276,-0.65983 0.237066,0 0.403013,0.0988 0.509693,0.30028 l 0.592667,0 c -0.07507,-0.22126 -0.146192,-0.33584 -0.296334,-0.47413 -0.21336,-0.19756 -0.501791,-0.30819 -0.806026,-0.30819 -0.647982,0 -1.153725,0.50179 -1.153725,1.14582 0,0.63613 0.521547,1.14583 1.169529,1.14583 0.509693,0 0.904805,-0.28053 1.086556,-0.77047 l -0.592667,0"
           id="path3883" />
        <path
           d="m 17.979532,281.06389 0.565009,0 1.264355,-2.91987 -0.537351,0 -0.596618,1.41845 -0.509693,-1.41845 -0.537351,0 0.762564,1.98345 -0.410915,0.93642"
           id="path3885" />
        <path
           d="m 21.347484,279.81534 -0.651934,0 0.327942,-0.93247 0.323992,0.93247 m 0.331893,0.51759 0,0.47414 0.525498,0 0,-0.99173 -0.300285,0 -0.671689,-1.67132 -0.418817,0 -0.671689,1.67132 -0.300285,0 0,0.99173 0.529449,0 0,-0.47414 1.307818,0"
           id="path3887" />
        <path
           d="m 24.656045,278.14402 -0.482035,0 0,0.29238 c -0.181751,-0.24102 -0.399063,-0.34375 -0.715152,-0.34375 -0.647981,0 -1.114213,0.48599 -1.114213,1.15373 0,0.65983 0.462281,1.13792 1.10236,1.13792 0.308186,0 0.517596,-0.0988 0.727005,-0.33585 l 0,0.28448 0.482035,0 0,-2.18891 m -1.141871,0.43067 c 0.375355,0 0.644031,0.28053 0.644031,0.67959 0,0.15804 -0.06322,0.33979 -0.158044,0.45043 -0.10668,0.12643 -0.276578,0.19755 -0.478085,0.19755 -0.383257,0 -0.647982,-0.26077 -0.647982,-0.64403 0,-0.39906 0.264725,-0.68354 0.64008,-0.68354"
           id="path3889" />
        <path
           d="m 25.086407,281.06389 0.525498,0 0,-0.93642 c 0.197555,0.1778 0.403014,0.25683 0.671689,0.25683 0.632177,0 1.094458,-0.48994 1.094458,-1.15373 0,-0.65983 -0.45833,-1.13792 -1.090507,-1.13792 -0.296333,0 -0.549205,0.11063 -0.719102,0.30819 l 0,-0.25682 -0.482036,0 0,2.91987 m 1.133969,-2.4892 c 0.3556,0 0.628227,0.28843 0.628227,0.66774 0,0.3714 -0.272627,0.65983 -0.620325,0.65983 -0.371404,0 -0.647982,-0.28448 -0.647982,-0.66774 0,-0.37535 0.276578,-0.65983 0.64008,-0.65983"
           id="path3891" />
        <path
           d="m 29.255633,279.61383 c -0.130387,0.20151 -0.280529,0.28843 -0.49784,0.28843 -0.363502,0 -0.636129,-0.28448 -0.636129,-0.66774 0,-0.38325 0.260774,-0.65983 0.624276,-0.65983 0.237066,0 0.403013,0.0988 0.509693,0.30028 l 0.592667,0 c -0.07507,-0.22126 -0.146192,-0.33584 -0.296334,-0.47413 -0.21336,-0.19756 -0.501791,-0.30819 -0.806026,-0.30819 -0.647982,0 -1.153725,0.50179 -1.153725,1.14582 0,0.63613 0.521547,1.14583 1.169529,1.14583 0.509693,0 0.904805,-0.28053 1.086556,-0.77047 l -0.592667,0"
           id="path3893" />
        <path
           d="m 30.57944,280.33293 0.525498,0 0,-1.71083 0.632178,0 0,-0.47808 -1.774049,0 0,0.47808 0.616373,0 0,1.71083"
           id="path3895" />
        <path
           d="m 32.499247,278.58654 0.32004,0 c 0.122485,0 0.217311,0.0593 0.217311,0.17385 0,0.11458 -0.09483,0.17385 -0.217311,0.17385 l -0.32004,0 0,-0.3477 m 0.004,0.78627 0.505742,0 c 0.185702,0 0.323991,0.0988 0.323991,0.27263 0,0.1778 -0.14224,0.27263 -0.335845,0.27263 l -0.493888,0 0,-0.54526 m 0.877146,-0.31214 c 0.09483,-0.10668 0.134338,-0.23706 0.134338,-0.35164 0,-0.23707 -0.173849,-0.53736 -0.647982,-0.53736 l -0.889,0 0,2.16126 1.007533,0 c 0.474133,0 0.825782,-0.22916 0.825782,-0.66378 0,-0.30029 -0.169898,-0.50575 -0.430671,-0.60848"
           id="path3897" />
        <path
           d="m 36.299908,279.47159 c 0.01581,-0.0751 0.01976,-0.12248 0.01976,-0.20151 0,-0.67959 -0.478085,-1.17743 -1.130018,-1.17743 -0.64403,0 -1.153724,0.5097 -1.153724,1.15373 0,0.64008 0.517596,1.13792 1.185333,1.13792 0.359551,0 0.64008,-0.13039 0.869244,-0.39511 0.08297,-0.10273 0.138289,-0.19361 0.173849,-0.30424 l -0.572911,0 c -0.134337,0.15804 -0.264724,0.21731 -0.482035,0.21731 -0.312138,0 -0.541303,-0.16595 -0.60452,-0.43067 l 1.695026,0 m -1.710831,-0.46228 c 0.08297,-0.28053 0.296334,-0.43462 0.608471,-0.43462 0.323991,0 0.537351,0.15409 0.60452,0.43462 l -1.212991,0"
           id="path3899" />
        <path
           d="m 38.460424,278.14402 -0.525498,0 0,0.82973 -0.778369,0 0,-0.82973 -0.525498,0 0,2.18891 0.525498,0 0,-0.84158 0.778369,0 0,0.84158 0.525498,0 0,-2.18891"
           id="path3901" />
        <path
           d="m 40.713792,278.14402 -0.525498,0 0,0.82973 -0.778369,0 0,-0.82973 -0.525497,0 0,2.18891 0.525497,0 0,-0.84158 0.778369,0 0,0.84158 0.525498,0 0,-2.18891"
           id="path3903" />
        <path
           d="m 41.323498,281.06389 0.565009,0 1.264356,-2.91987 -0.537352,0 -0.596617,1.41845 -0.509694,-1.41845 -0.537351,0 0.762565,1.98345 -0.410916,0.93642"
           id="path3905" />
        <path
           d="m 43.897277,279.49135 0.244969,0 c 0.118533,0.50969 0.580813,0.89295 1.130017,0.89295 0.636129,0 1.165578,-0.51365 1.165578,-1.13002 0,-0.65193 -0.509694,-1.16163 -1.169529,-1.16163 -0.545253,0 -1.003582,0.37931 -1.126066,0.8811 l -0.244969,0 0,-0.82973 -0.525498,0 0,2.18891 0.525498,0 0,-0.84158 m 1.374986,-0.91666 c 0.351649,0 0.636129,0.30028 0.636129,0.66378 0,0.36746 -0.28448,0.66379 -0.632178,0.66379 -0.355599,0 -0.636128,-0.29633 -0.636128,-0.67169 0,-0.35955 0.288431,-0.65588 0.632177,-0.65588"
           id="path3907" />
        <path
           d="m 49.961492,280.33293 0.525497,0 0,-2.18891 -0.774417,0 -0.541303,1.45005 -0.545253,-1.45005 -0.774418,0 0,2.18891 0.525498,0 0,-1.45006 0.584764,1.45006 0.418818,0 0.580814,-1.45006 0,1.45006"
           id="path3909" />
        <path
           d="m 53.131827,278.14402 -0.482035,0 0,0.29238 c -0.181751,-0.24102 -0.399063,-0.34375 -0.715151,-0.34375 -0.647982,0 -1.114214,0.48599 -1.114214,1.15373 0,0.65983 0.462281,1.13792 1.10236,1.13792 0.308187,0 0.517596,-0.0988 0.727005,-0.33585 l 0,0.28448 0.482035,0 0,-2.18891 m -1.141871,0.43067 c 0.375356,0 0.644031,0.28053 0.644031,0.67959 0,0.15804 -0.06322,0.33979 -0.158044,0.45043 -0.10668,0.12643 -0.276578,0.19755 -0.478084,0.19755 -0.383258,0 -0.647983,-0.26077 -0.647983,-0.64403 0,-0.39906 0.264725,-0.68354 0.64008,-0.68354"
           id="path3911" />
        <path
           d="m 53.562189,280.33293 2.52476,0 0,-2.18891 -0.525498,0 0,1.67132 -0.474133,0 0,-1.67132 -0.525498,0 0,1.67132 -0.474134,0 0,-1.67132 -0.525497,0 0,2.18891"
           id="path3913" />
        <path
           d="m 58.457985,278.14402 -0.584764,0 -0.837636,1.43425 0,-1.43425 -0.525497,0 0,2.18891 0.584764,0 0.837635,-1.43425 0,1.43425 0.525498,0 0,-2.18891"
           id="path3915" />
        <path
           d="m 60.716294,278.14402 -0.525497,0 0,0.82973 -0.778369,0 0,-0.82973 -0.525498,0 0,2.18891 0.525498,0 0,-0.84158 0.778369,0 0,0.84158 0.525497,0 0,-2.18891"
           id="path3917" />
        <path
           d="m 61.325997,281.06389 0.565009,0 1.264355,-2.91987 -0.537351,0 -0.596618,1.41845 -0.509693,-1.41845 -0.537351,0 0.762564,1.98345 -0.410915,0.93642"
           id="path3919" />
      </g>
      <text
         x="-163.57143"
         y="115.045"
         transform="matrix(0.28222222,0,0,0.28222222,2.0000006,191.52097)"
         id="text3342"
         xml:space="preserve"
         style="font-size:18px;font-style:normal;font-variant:normal;font-stretch:normal;line-height:125%;letter-spacing:0px;word-spacing:0px;fill:#000000;fill-opacity:1;stroke:none;font-family:URW Gothic L;-inkscape-font-specification:URW Gothic L Book"><tspan
           x="-163.57143"
           y="115.045"
           id="tspan3344"></tspan></text>
    </g>
    <flowRoot
       transform="matrix(3.334254,0,0,3.334254,0,-693.27344)"
       id="flowRoot840"
       xml:space="preserve"
       style="font-size:26.66666603px;font-style:normal;font-weight:normal;line-height:1.25;letter-spacing:0px;word-spacing:0px;fill:#000000;fill-opacity:1;stroke:none;font-family:sans-serif"><flowRegion
         id="flowRegion842"><rect
           width="77.781746"
           height="47.477169"
           x="239.40616"
           y="264.52042"
           id="rect844" /></flowRegion><flowPara
         id="flowPara846" /></flowRoot>    <flowRoot
       transform="matrix(0.88218803,0,0,0.88218803,0,-53.09667)"
       id="flowRoot866"
       xml:space="preserve"
       style="font-size:16px;font-style:normal;font-variant:normal;font-weight:bold;font-stretch:normal;text-align:center;line-height:1.25;letter-spacing:0px;word-spacing:0px;text-anchor:middle;fill:#000000;fill-opacity:1;stroke:none;font-family:Century Gothic;-inkscape-font-specification:Century Gothic Bold"><flowRegion
         id="flowRegion868"
         style="font-size:16px"><rect
           width="241.88977"
           height="148.28261"
           x="18.897638"
           y="229.67015"
           id="rect870"
           style="font-size:16px" /></flowRegion><flowPara
         id="flowPara872" /></flowRoot>    <flowRoot
       transform="matrix(3.334254,0,0,3.334254,0,-693.27344)"
       id="flowRoot874"
       xml:space="preserve"
       style="font-size:26.66666603px;font-style:normal;font-variant:normal;font-weight:bold;font-stretch:normal;text-align:center;line-height:1.25;letter-spacing:0px;word-spacing:0px;text-anchor:middle;fill:#000000;fill-opacity:1;stroke:none;font-family:Century Gothic;-inkscape-font-specification:Century Gothic Bold"><flowRegion
         id="flowRegion876"><rect
           width="241.88977"
           height="148.28261"
           x="18.897638"
           y="229.67015"
           id="rect878" /></flowRegion><flowPara
         id="flowPara880" /></flowRoot>    <g
       transform="matrix(3.334254,0,0,3.334254,0,-693.27344)"
       id="g861">
      <path
         d="M 5,263.0024 V 263.44051 292 h 60 v -28.9976 z m 0.874399,0.8744 h 58.251202 v 27.24879 H 5.874399 z"
         id="rect861"
         style="font-size:medium;font-style:normal;font-variant:normal;font-weight:normal;font-stretch:normal;text-indent:0;text-align:start;text-decoration:none;line-height:normal;letter-spacing:normal;word-spacing:normal;text-transform:none;direction:ltr;writing-mode:lr-tb;text-anchor:start;baseline-shift:baseline;color:#000000;fill:#4c4c4c;fill-opacity:1;fill-rule:nonzero;stroke:none;visibility:visible;display:inline;overflow:visible;enable-background:accumulate;font-family:sans-serif" />
    </g>
  </g>
</svg>
