<?xml version="1.0" encoding="UTF-8" standalone="no"?>
<!-- Created with Inkscape (http://www.inkscape.org/) -->

<svg
   xmlns:dc="http://purl.org/dc/elements/1.1/"
   xmlns:cc="http://creativecommons.org/ns#"
   xmlns:rdf="http://www.w3.org/1999/02/22-rdf-syntax-ns#"
   xmlns:svg="http://www.w3.org/2000/svg"
   xmlns="http://www.w3.org/2000/svg"
   xmlns:xlink="http://www.w3.org/1999/xlink"
   xmlns:sodipodi="http://sodipodi.sourceforge.net/DTD/sodipodi-0.dtd"
   xmlns:inkscape="http://www.inkscape.org/namespaces/inkscape"
   width="70mm"
   height="100mm"
   viewBox="0 0 70 100"
   version="1.1"
   id="svg8"
   inkscape:version="0.92.2 5c3e80d, 2017-08-06"
   sodipodi:docname="sticker.en.svg"
   inkscape:export-filename="/home/emes/doc/dontbuymonero-sticker/sticker.en.png"
   inkscape:export-xdpi="300"
   inkscape:export-ydpi="300">
  <defs
     id="defs2" />
  <sodipodi:namedview
     id="base"
     pagecolor="#ffffff"
     bordercolor="#666666"
     borderopacity="1.0"
     inkscape:pageopacity="0.0"
     inkscape:pageshadow="2"
     inkscape:zoom="1.4"
     inkscape:cx="-154.2393"
     inkscape:cy="89.807384"
     inkscape:document-units="mm"
     inkscape:current-layer="layer1"
     showgrid="false"
     showguides="true"
     inkscape:guide-bbox="true"
     inkscape:snap-to-guides="true"
     inkscape:snap-grids="true"
     inkscape:snap-page="true"
     inkscape:snap-bbox="true"
     inkscape:bbox-nodes="true"
     inkscape:bbox-paths="true"
     inkscape:window-width="1920"
     inkscape:window-height="1136"
     inkscape:window-x="0"
     inkscape:window-y="747"
     inkscape:window-maximized="1"
     inkscape:pagecheckerboard="true"
     inkscape:measure-start="0,0"
     inkscape:measure-end="0,0">
    <sodipodi:guide
       position="5,91.472997"
       orientation="1,0"
       id="guide889"
       inkscape:locked="false"
       inkscape:label=""
       inkscape:color="rgb(0,0,255)" />
    <sodipodi:guide
       position="65,88.533032"
       orientation="1,0"
       id="guide891"
       inkscape:locked="false"
       inkscape:label=""
       inkscape:color="rgb(0,0,255)" />
    <sodipodi:guide
       position="28.86511,95"
       orientation="0,1"
       id="guide893"
       inkscape:locked="false"
       inkscape:label=""
       inkscape:color="rgb(0,0,255)" />
    <sodipodi:guide
       position="36.348657,5"
       orientation="0,1"
       id="guide895"
       inkscape:locked="false"
       inkscape:label=""
       inkscape:color="rgb(0,0,255)" />
    <sodipodi:guide
       position="9,45.435819"
       orientation="1,0"
       id="guide951"
       inkscape:locked="false"
       inkscape:label=""
       inkscape:color="rgb(0,0,255)" />
    <sodipodi:guide
       position="61,64.54559"
       orientation="1,0"
       id="guide953"
       inkscape:locked="false"
       inkscape:label=""
       inkscape:color="rgb(0,0,255)" />
    <sodipodi:guide
       position="25.52424,8"
       orientation="0,1"
       id="guide955"
       inkscape:locked="false"
       inkscape:label=""
       inkscape:color="rgb(0,0,255)" />
    <sodipodi:guide
       position="26.125597,31"
       orientation="0,1"
       id="guide957"
       inkscape:locked="false"
       inkscape:label=""
       inkscape:color="rgb(0,0,255)" />
  </sodipodi:namedview>
  <metadata
     id="metadata5">
    <rdf:RDF>
      <cc:Work
         rdf:about="">
        <dc:format>image/svg+xml</dc:format>
        <dc:type
           rdf:resource="http://purl.org/dc/dcmitype/StillImage" />
        <dc:title />
      </cc:Work>
    </rdf:RDF>
  </metadata>
  <g
     inkscape:label="Layer 1"
     inkscape:groupmode="layer"
     id="layer1"
     transform="translate(0,-197)">
    <rect
       style="fill:#ffffff;fill-opacity:1;stroke:none;stroke-width:1;stroke-linecap:square;stroke-miterlimit:4;stroke-dasharray:none;stroke-opacity:1"
       id="rect858"
       width="70"
       height="100"
       x="0"
       y="197" />
    <g
       id="g875"
       transform="translate(-2.0000006,5.4790253)"
       inkscape:export-xdpi="352.57999"
       inkscape:export-ydpi="352.57999">
      <g
         transform="matrix(1.3011002,0,0,1.3011002,16.420217,-75.468301)"
         id="g915">
        <path
           inkscape:connector-curvature="0"
           d="m 15.817084,222.05063 c -5.391414,0 -9.7639184,4.37197 -9.7639184,9.76365 0,1.07791 0.174625,2.11455 0.4974166,3.08425 h 2.9199417 v -8.21505 l 6.3465601,6.34656 6.346561,-6.34656 v 8.21505 h 2.920206 c 0.322791,-0.9697 0.497416,-2.00634 0.497416,-3.08425 0,-5.39168 -4.372504,-9.76365 -9.764183,-9.76365"
           id="path22"
           style="fill:#ff6600;stroke-width:0.26458332" />
        <path
           inkscape:connector-curvature="0"
           d="m 11.58809,231.71921 v 5.16917 H 7.4738193 c 1.7139708,2.81199 4.8095957,4.69 8.3431057,4.69 3.533511,0 6.6294,-1.87801 8.343107,-4.69 h -4.114007 v -5.16917 l -4.2291,4.2291 z"
           id="path26"
           style="fill:#4c4c4c;stroke-width:0.26458332" />
      </g>
      <g
         transform="matrix(0.88274719,0,0,0.88274719,-10.947117,38.872224)"
         id="g911">
        <path
           inkscape:connector-curvature="0"
           d="m 78.102302,234.59405 c -0.516202,0.53154 -1.142206,0.79639 -1.878277,0.79639 -0.650346,0 -1.225285,-0.20426 -1.728523,-0.61489 -0.646906,-0.52361 -0.969962,-1.23666 -0.969962,-2.13889 0,-0.80778 0.257175,-1.47532 0.771525,-1.99919 0.512497,-0.52573 1.14591,-0.78687 1.900766,-0.78687 0.745331,0 1.379008,0.26881 1.898915,0.80565 0.522023,0.53711 0.782902,1.1938 0.782902,1.97088 0,0.7792 -0.258763,1.43352 -0.777346,1.96692 m 1.083998,-5.01042 c -0.828675,-0.8337 -1.81954,-1.25174 -2.973388,-1.25174 -0.760412,0 -1.471347,0.19129 -2.129366,0.57308 -0.6604,0.38206 -1.178719,0.90012 -1.554956,1.5547 -0.376503,0.65431 -0.565415,1.37133 -0.565415,2.15026 0,1.16338 0.404548,2.16747 1.214437,3.01334 0.809096,0.8472 1.825096,1.26895 3.046413,1.26895 1.167077,0 2.160323,-0.41037 2.979208,-1.23508 0.818886,-0.82285 1.227402,-1.83065 1.227402,-3.02048 0,-1.19936 -0.414337,-2.21668 -1.244335,-3.05303"
           id="path30"
           style="fill:#4c4c4c;stroke-width:0.26458332" />
        <path
           inkscape:connector-curvature="0"
           d="m 69,231.47434 c -0.196585,0.13706 -0.289454,0.20453 -0.809625,0.20453 h -2.046816 v -1.75102 h 1.983316 c 0.397669,0 0.468048,0.0299 0.631032,0.0913 0.162454,0.0595 0.29157,0.15902 0.388937,0.29581 0.09737,0.13705 0.144992,0.29977 0.144992,0.4863 0,0.3138 -0.09737,0.53817 -0.291836,0.6731 m 0.246063,1.61211 c 0.542131,-0.19473 0.94906,-0.48048 1.218935,-0.85752 0.27014,-0.37914 0.403225,-0.84798 0.403225,-1.41155 0,-0.53419 -0.120914,-0.9988 -0.365389,-1.38985 -0.244211,-0.39106 -0.567796,-0.67099 -0.96864,-0.83979 -0.401108,-0.16881 -1.074208,-0.254 -2.021152,-0.254 h -2.997464 v 8.55662 h 1.627981 v -3.6232 h 1.420812 l 1.926167,3.6232 h 1.780646 z"
           id="path34"
           style="fill:#4c4c4c;stroke-width:0.26458332" />
        <path
           inkscape:connector-curvature="0"
           d="m 57.217787,228.33189 h 5.547783 v 1.59411 h -3.929591 v 1.75128 h 3.929591 v 1.56633 h -3.929591 v 2.0447 h 3.929591 v 1.60047 h -5.547783 z"
           id="path38"
           style="fill:#4c4c4c;stroke-width:0.26458332" />
        <path
           inkscape:connector-curvature="0"
           d="m 48.621925,228.33189 h 1.55866 l 3.670829,5.63033 v -5.63033 h 1.627981 v 8.55662 h -1.564481 l -3.665008,-5.61234 v 5.61234 h -1.627981 z"
           id="path42"
           style="fill:#4c4c4c;stroke-width:0.26458332" />
        <use
           transform="translate(-33.088422,-1.0786894e-6)"
           id="use46"
           x="0"
           y="0"
           width="282"
           height="75"
           xlink:href="#path30" />
        <path
           inkscape:connector-curvature="0"
           d="m 29.678129,228.33165 h 1.594114 l 1.977231,5.9682 2.007394,-5.9682 h 1.570302 l 1.441715,8.55689 h -1.570567 l -0.919162,-5.40412 -1.820598,5.40412 h -1.435629 l -1.796521,-5.40412 -0.937154,5.40412 H 28.20096 Z"
           id="path50"
           style="fill:#4c4c4c;stroke-width:0.26458332" />
      </g>
    </g>
    <flowRoot
       xml:space="preserve"
       id="flowRoot840"
       style="font-style:normal;font-weight:normal;font-size:26.66666603px;line-height:1.25;font-family:sans-serif;letter-spacing:0px;word-spacing:0px;fill:#000000;fill-opacity:1;stroke:none"><flowRegion
         id="flowRegion842"><rect
           id="rect844"
           width="77.781746"
           height="47.477169"
           x="239.40616"
           y="264.52042" /></flowRegion><flowPara
         id="flowPara846" /></flowRoot>    <flowRoot
       xml:space="preserve"
       id="flowRoot866"
       style="font-style:normal;font-variant:normal;font-weight:bold;font-stretch:normal;font-size:16px;line-height:1.25;font-family:'Century Gothic';-inkscape-font-specification:'Century Gothic Bold';text-align:center;letter-spacing:0px;word-spacing:0px;text-anchor:middle;fill:#000000;fill-opacity:1;stroke:none"
       transform="matrix(0.26458333,0,0,0.26458333,0,192)"><flowRegion
         id="flowRegion868"
         style="font-size:16px"><rect
           id="rect870"
           width="241.88977"
           height="148.28261"
           x="18.897638"
           y="229.67015"
           style="font-size:16px" /></flowRegion><flowPara
         id="flowPara872" /></flowRoot>    <flowRoot
       xml:space="preserve"
       id="flowRoot874"
       style="font-style:normal;font-variant:normal;font-weight:bold;font-stretch:normal;font-size:26.66666603px;line-height:1.25;font-family:'Century Gothic';-inkscape-font-specification:'Century Gothic Bold';text-align:center;letter-spacing:0px;word-spacing:0px;text-anchor:middle;fill:#000000;fill-opacity:1;stroke:none"><flowRegion
         id="flowRegion876"><rect
           id="rect878"
           width="241.88977"
           height="148.28261"
           x="18.897638"
           y="229.67015" /></flowRegion><flowPara
         id="flowPara880" /></flowRoot>    <g
       id="g861">
      <path
         inkscape:connector-curvature="0"
         id="rect861"
         d="M 5,263.0024 V 263.44051 292 h 60 v -28.9976 z m 0.874399,0.8744 h 58.251202 v 27.24879 H 5.874399 Z"
         style="color:#000000;font-style:normal;font-variant:normal;font-weight:normal;font-stretch:normal;font-size:medium;line-height:normal;font-family:sans-serif;font-variant-ligatures:normal;font-variant-position:normal;font-variant-caps:normal;font-variant-numeric:normal;font-variant-alternates:normal;font-feature-settings:normal;text-indent:0;text-align:start;text-decoration:none;text-decoration-line:none;text-decoration-style:solid;text-decoration-color:#000000;letter-spacing:normal;word-spacing:normal;text-transform:none;writing-mode:lr-tb;direction:ltr;text-orientation:mixed;dominant-baseline:auto;baseline-shift:baseline;text-anchor:start;white-space:normal;shape-padding:0;clip-rule:nonzero;display:inline;overflow:visible;visibility:visible;opacity:1;isolation:auto;mix-blend-mode:normal;color-interpolation:sRGB;color-interpolation-filters:linearRGB;solid-color:#000000;solid-opacity:1;vector-effect:none;fill:#4c4c4c;fill-opacity:1;fill-rule:nonzero;stroke:none;stroke-width:0.87388474;stroke-linecap:square;stroke-linejoin:miter;stroke-miterlimit:4;stroke-dasharray:none;stroke-dashoffset:0;stroke-opacity:1;color-rendering:auto;image-rendering:auto;shape-rendering:auto;text-rendering:auto;enable-background:accumulate" />
    </g>
    <g
       aria-label="DON'T BUY"
       style="font-style:normal;font-variant:normal;font-weight:bold;font-stretch:normal;font-size:12.17356873px;line-height:1.25;font-family:'Century Gothic';-inkscape-font-specification:'Century Gothic Bold';text-align:center;letter-spacing:0px;word-spacing:0px;text-anchor:middle;fill:#4c4c4c;fill-opacity:1;stroke:none;stroke-width:0.76084805"
       id="text1091">
      <path
         d="M 5.0000004,202.21994 H 6.97345 q 1.9080642,0 2.8353478,0.47553 0.9272832,0.46958 1.5276402,1.53358 0.600357,1.064 0.600357,2.48465 0,1.0105 -0.338815,1.86051 -0.332871,0.84406 -0.927284,1.40281 -0.588468,0.55875 -1.277987,0.77274 -0.6895185,0.21399 -2.3895384,0.21399 H 5.0000004 Z m 1.658411,1.60491 v 5.5102 h 0.7727362 q 1.1412721,0 1.6524669,-0.26154 0.5171389,-0.26154 0.8440658,-0.87973 0.3269267,-0.61819 0.3269267,-1.52169 0,-1.39093 -0.7786802,-2.15772 -0.7014068,-0.68952 -2.2528235,-0.68952 z"
         style="fill:#4c4c4c;fill-opacity:1;stroke-width:0.76084805"
         id="path1751" />
      <path
         d="m 17.660987,202 q 1.854567,0 3.186051,1.34338 1.337429,1.34337 1.337429,3.27521 0,1.91401 -1.319596,3.23955 -1.313652,1.32554 -3.191996,1.32554 -1.967505,0 -3.269269,-1.36121 -1.301763,-1.3612 -1.301763,-3.2336 0,-1.25421 0.606301,-2.30632 0.606301,-1.05211 1.664355,-1.66436 Q 16.436497,202 17.660987,202 Z m -0.01783,1.62869 q -1.212602,0 -2.038835,0.84407 -0.826234,0.84407 -0.826234,2.14583 0,1.45037 1.040222,2.29443 0.808401,0.6598 1.854567,0.6598 1.182881,0 2.015059,-0.85595 0.832177,-0.85596 0.832177,-2.11017 0,-1.24827 -0.838121,-2.11016 -0.838122,-0.86785 -2.038835,-0.86785 z"
         style="fill:#4c4c4c;fill-opacity:1;stroke-width:0.76084805"
         id="path1753" />
      <path
         d="m 23.759659,202.21994 h 1.593026 l 3.750743,5.75391 v -5.75391 h 1.664355 v 8.74381 h -1.59897 l -3.744799,-5.73609 v 5.73609 h -1.664355 z"
         style="fill:#4c4c4c;fill-opacity:1;stroke-width:0.76084805"
         id="path1755" />
      <path
         d="M 33.567467,204.99584 H 32.640184 L 32.313257,202 h 1.581137 z"
         style="fill:#4c4c4c;fill-opacity:1;stroke-width:0.76084805"
         id="path1757" />
      <path
         d="m 34.589857,202.21994 h 4.832574 v 1.64058 h -1.593026 v 7.10323 h -1.688131 v -7.10323 h -1.551417 z"
         style="fill:#4c4c4c;fill-opacity:1;stroke-width:0.76084805"
         id="path1759" />
      <path
         d="m 43.963745,210.96375 v -8.74381 h 1.373093 q 1.194769,0 1.747572,0.15454 0.784625,0.20805 1.248267,0.77274 0.463642,0.56469 0.463642,1.33148 0,0.49931 -0.213989,0.90946 -0.208044,0.4042 -0.683574,0.76084 0.796512,0.37448 1.165048,0.93918 0.368536,0.55874 0.368536,1.32554 0,0.73707 -0.380424,1.34337 -0.380424,0.6063 -0.980781,0.90945 -0.600356,0.29721 -1.658411,0.29721 z m 1.664355,-7.15673 v 1.84268 h 0.362591 q 0.606301,0 0.897563,-0.2556 0.297207,-0.2556 0.297207,-0.69546 0,-0.41015 -0.279374,-0.64791 -0.279374,-0.24371 -0.85001,-0.24371 z m 0,3.32871 v 2.24093 h 0.416089 q 1.034277,0 1.390925,-0.26154 0.362592,-0.26154 0.362592,-0.76085 0,-0.56469 -0.422033,-0.89161 -0.422033,-0.32693 -1.402814,-0.32693 z"
         style="fill:#4c4c4c;fill-opacity:1;stroke-width:0.76084805"
         id="path1761" />
      <path
         d="m 50.965922,202.21994 h 1.670299 v 5.6588 q 0,0.73113 0.124827,1.03428 0.130771,0.30315 0.422033,0.48742 0.297206,0.17832 0.713295,0.17832 0.439865,0 0.754904,-0.2021 0.320983,-0.2021 0.439865,-0.51119 0.124827,-0.31504 0.124827,-1.19477 v -5.45076 h 1.670299 v 5.21299 q 0,1.3196 -0.148603,1.8308 -0.148603,0.51119 -0.570636,0.98672 -0.416089,0.47553 -0.962948,0.70735 -0.54686,0.22588 -1.272043,0.22588 -0.95106,0 -1.658411,-0.43392 -0.701407,-0.43987 -1.004557,-1.09372 -0.303151,-0.6598 -0.303151,-2.22311 z"
         style="fill:#4c4c4c;fill-opacity:1;stroke-width:0.76084805"
         id="path1763" />
      <path
         d="m 58.199925,202.21994 h 1.789182 l 1.62869,3.13849 1.616802,-3.13849 h 1.765405 l -2.555974,4.9574 v 3.78641 h -1.676243 v -3.78641 z"
         style="fill:#4c4c4c;fill-opacity:1;stroke-width:0.76084805"
         id="path1765" />
    </g>
    <g
       aria-label="Cryptocurrencies are harmful to the banking system and may weaken the state apparatus"
       transform="matrix(0.26458333,0,0,0.26458333,0,198.06908)"
       style="font-style:normal;font-variant:normal;font-weight:bold;font-stretch:normal;font-size:16px;line-height:1.25;font-family:'Century Gothic';-inkscape-font-specification:'Century Gothic Bold';text-align:center;letter-spacing:0px;word-spacing:0px;text-anchor:middle;fill:#4c4c4c;fill-opacity:1;stroke:none"
       id="flowRoot959">
      <path
         d="m 62.048828,265.84435 -1.53125,1.46094 q -1.5625,-1.64844 -3.515625,-1.64844 -1.648437,0 -2.78125,1.125 -1.125,1.125 -1.125,2.77344 0,1.14844 0.5,2.03906 0.5,0.89063 1.414063,1.39844 0.914062,0.50781 2.03125,0.50781 0.953125,0 1.742187,-0.35156 0.789063,-0.35937 1.734375,-1.29687 l 1.484375,1.54687 q -1.273437,1.24219 -2.40625,1.72656 -1.132812,0.47657 -2.585937,0.47657 -2.679688,0 -4.390625,-1.69532 -1.703125,-1.70312 -1.703125,-4.35937 0,-1.71875 0.773437,-3.05469 0.78125,-1.33594 2.226563,-2.14844 1.453125,-0.8125 3.125,-0.8125 1.421875,0 2.734375,0.60157 1.320312,0.60156 2.273437,1.71093 z"
         style=""
         id="path1768" />
      <path
         d="m 63.220703,266.8131 h 1.828125 v 1.07032 q 0.296875,-0.63282 0.789063,-0.96094 0.492187,-0.32813 1.078125,-0.32813 0.414062,0 0.867187,0.21875 l -0.664062,1.83594 q -0.375,-0.1875 -0.617188,-0.1875 -0.492187,0 -0.835937,0.60938 -0.335938,0.60937 -0.335938,2.39062 l 0.0078,0.41406 v 3.4375 h -2.117188 z"
         style=""
         id="path1770" />
      <path
         d="m 67.900391,266.8131 h 2.179687 l 2.210938,5.33594 2.4375,-5.33594 h 2.1875 l -5.328125,11.60938 h -2.203125 l 1.75,-3.74219 z"
         style=""
         id="path1772" />
      <path
         d="m 80.244141,266.8131 v 0.9375 q 0.578125,-0.57812 1.25,-0.86718 0.671875,-0.28907 1.4375,-0.28907 1.664062,0 2.828125,1.25782 1.164062,1.25781 1.164062,3.22656 0,1.89844 -1.203125,3.17969 -1.203125,1.27343 -2.851562,1.27343 -0.734375,0 -1.367188,-0.25781 -0.632812,-0.26562 -1.257812,-0.85937 v 4.00781 H 78.126953 V 266.8131 Z m 2.242187,1.75 q -1.007812,0 -1.671875,0.6875 -0.664062,0.6875 -0.664062,1.79688 0,1.13281 0.664062,1.83594 0.664063,0.69531 1.671875,0.69531 0.976563,0 1.640625,-0.71094 0.671875,-0.71094 0.671875,-1.8125 0,-1.09375 -0.65625,-1.78906 -0.65625,-0.70313 -1.65625,-0.70313 z"
         style=""
         id="path1774" />
      <path
         d="m 88.947266,263.68029 h 2.125 v 3.13281 h 1.265625 v 1.83594 h -1.265625 v 6.66406 h -2.125 v -6.66406 h -1.09375 v -1.83594 h 1.09375 z"
         style=""
         id="path1776" />
      <path
         d="m 97.494141,266.59435 q 1.203125,0 2.257812,0.60157 1.062497,0.60156 1.656247,1.63281 0.59375,1.03125 0.59375,2.22656 0,1.20313 -0.60156,2.25 -0.59375,1.04688 -1.624999,1.64063 -1.03125,0.58593 -2.273438,0.58593 -1.828125,0 -3.125,-1.29687 -1.289062,-1.30469 -1.289062,-3.16406 0,-1.99219 1.460937,-3.32032 1.28125,-1.15625 2.945313,-1.15625 z m 0.03125,2.00782 q -0.992188,0 -1.65625,0.69531 -0.65625,0.6875 -0.65625,1.76562 0,1.10938 0.648437,1.79688 0.65625,0.6875 1.65625,0.6875 1,0 1.664063,-0.69531 0.664062,-0.69532 0.664062,-1.78907 0,-1.09375 -0.65625,-1.77343 -0.648437,-0.6875 -1.664062,-0.6875 z"
         style=""
         id="path1778" />
      <path
         d="m 112.07227,268.53185 -1.77344,0.97657 q -0.5,-0.52344 -0.99219,-0.72657 -0.48437,-0.20312 -1.14062,-0.20312 -1.19532,0 -1.9375,0.71875 -0.73438,0.71094 -0.73438,1.82812 0,1.08594 0.71094,1.77344 0.71094,0.6875 1.86719,0.6875 1.42968,0 2.22656,-0.97656 l 1.67969,1.14844 q -1.36719,1.77343 -3.85938,1.77343 -2.24219,0 -3.51562,-1.32812 -1.26563,-1.32813 -1.26563,-3.10938 0,-1.23437 0.61719,-2.27343 0.61719,-1.03907 1.71875,-1.63282 1.10937,-0.59375 2.47656,-0.59375 1.26563,0 2.27344,0.50782 1.00781,0.5 1.64844,1.42968 z"
         style=""
         id="path1780" />
      <path
         d="m 113.99414,266.8131 h 2.15625 v 4.09375 q 0,1.19532 0.16406,1.66407 0.16407,0.46093 0.52344,0.71875 0.36719,0.25781 0.89844,0.25781 0.53125,0 0.89844,-0.25 0.375,-0.25781 0.55468,-0.75 0.13282,-0.36719 0.13282,-1.57031 v -4.16407 h 2.14062 v 3.60157 q 0,2.22656 -0.35156,3.04687 -0.42969,1 -1.26563,1.53906 -0.83593,0.53125 -2.125,0.53125 -1.39843,0 -2.26562,-0.625 -0.85938,-0.625 -1.21094,-1.74218 -0.25,-0.77344 -0.25,-2.8125 z"
         style=""
         id="path1782" />
      <path
         d="m 123.0957,266.8131 h 1.82813 v 1.07032 q 0.29687,-0.63282 0.78906,-0.96094 0.49219,-0.32813 1.07813,-0.32813 0.41406,0 0.86718,0.21875 l -0.66406,1.83594 q -0.375,-0.1875 -0.61719,-0.1875 -0.49218,0 -0.83593,0.60938 -0.33594,0.60937 -0.33594,2.39062 l 0.008,0.41406 v 3.4375 h -2.11719 z"
         style=""
         id="path1784" />
      <path
         d="m 128.2207,266.8131 h 1.82813 v 1.07032 q 0.29687,-0.63282 0.78906,-0.96094 0.49219,-0.32813 1.07813,-0.32813 0.41406,0 0.86718,0.21875 l -0.66406,1.83594 q -0.375,-0.1875 -0.61719,-0.1875 -0.49218,0 -0.83593,0.60938 -0.33594,0.60937 -0.33594,2.39062 l 0.008,0.41406 v 3.4375 h -2.11719 z"
         style=""
         id="path1786" />
      <path
         d="m 142.36133,271.68029 h -6.85156 q 0.14843,0.90625 0.78906,1.44531 0.64844,0.53125 1.64844,0.53125 1.19531,0 2.05468,-0.83593 l 1.79688,0.84375 q -0.67188,0.95312 -1.60938,1.41406 -0.9375,0.45312 -2.22656,0.45312 -2,0 -3.25781,-1.25781 -1.25781,-1.26562 -1.25781,-3.16406 0,-1.94531 1.25,-3.22656 1.25781,-1.28907 3.14843,-1.28907 2.00782,0 3.26563,1.28907 1.25781,1.28125 1.25781,3.39062 z m -2.14063,-1.67969 q -0.21093,-0.71093 -0.83593,-1.15625 -0.61719,-0.44531 -1.4375,-0.44531 -0.89063,0 -1.5625,0.5 -0.42188,0.3125 -0.78125,1.10156 z"
         style=""
         id="path1788" />
      <path
         d="m 144.0957,266.8131 h 2.125 v 0.86719 q 0.72657,-0.60937 1.3125,-0.84375 0.59375,-0.24219 1.21094,-0.24219 1.26563,0 2.14844,0.88282 0.74219,0.75 0.74219,2.21875 v 5.61718 h -2.10938 v -3.72656 q 0,-1.52344 -0.14062,-2.02344 -0.13282,-0.5 -0.47657,-0.75781 -0.33593,-0.26562 -0.83593,-0.26562 -0.64844,0 -1.11719,0.4375 -0.46094,0.42968 -0.64063,1.19531 -0.0937,0.39844 -0.0937,1.72656 v 3.41406 h -2.125 z"
         style=""
         id="path1790" />
      <path
         d="m 162.00977,268.53185 -1.77344,0.97657 q -0.5,-0.52344 -0.99219,-0.72657 -0.48437,-0.20312 -1.14062,-0.20312 -1.19532,0 -1.9375,0.71875 -0.73438,0.71094 -0.73438,1.82812 0,1.08594 0.71094,1.77344 0.71094,0.6875 1.86719,0.6875 1.42968,0 2.22656,-0.97656 l 1.67969,1.14844 q -1.36719,1.77343 -3.85938,1.77343 -2.24219,0 -3.51562,-1.32812 -1.26563,-1.32813 -1.26563,-3.10938 0,-1.23437 0.61719,-2.27343 0.61719,-1.03907 1.71875,-1.63282 1.10937,-0.59375 2.47656,-0.59375 1.26563,0 2.27344,0.50782 1.00781,0.5 1.64844,1.42968 z"
         style=""
         id="path1792" />
      <path
         d="m 164.77539,263.3131 q 0.5625,0 0.96094,0.40625 0.40625,0.40625 0.40625,0.98438 0,0.57031 -0.39844,0.97656 -0.39844,0.39844 -0.95312,0.39844 -0.57032,0 -0.97657,-0.40625 -0.39843,-0.41406 -0.39843,-1 0,-0.5625 0.39843,-0.96094 0.39844,-0.39844 0.96094,-0.39844 z m -1.07031,3.5 h 2.14062 v 8.5 h -2.14062 z"
         style=""
         id="path1794" />
      <path
         d="m 176.29883,271.68029 h -6.85156 q 0.14843,0.90625 0.78906,1.44531 0.64844,0.53125 1.64844,0.53125 1.19531,0 2.05468,-0.83593 l 1.79688,0.84375 q -0.67188,0.95312 -1.60938,1.41406 -0.9375,0.45312 -2.22656,0.45312 -2,0 -3.25781,-1.25781 -1.25781,-1.26562 -1.25781,-3.16406 0,-1.94531 1.25,-3.22656 1.25781,-1.28907 3.14843,-1.28907 2.00782,0 3.26563,1.28907 1.25781,1.28125 1.25781,3.39062 z m -2.14063,-1.67969 q -0.21093,-0.71093 -0.83593,-1.15625 -0.61719,-0.44531 -1.4375,-0.44531 -0.89063,0 -1.5625,0.5 -0.42188,0.3125 -0.78125,1.10156 z"
         style=""
         id="path1796" />
      <path
         d="m 183.23633,268.0006 -1.32031,1.32032 q -0.80469,-0.79688 -1.46094,-0.79688 -0.35938,0 -0.5625,0.15625 -0.20313,0.14844 -0.20313,0.375 0,0.17188 0.125,0.32031 0.13282,0.14063 0.64063,0.39063 l 0.78125,0.39062 q 1.23437,0.60938 1.69531,1.24219 0.46094,0.63281 0.46094,1.48438 0,1.13281 -0.83594,1.89062 -0.82812,0.75781 -2.22656,0.75781 -1.85938,0 -2.96875,-1.45312 l 1.3125,-1.42969 q 0.375,0.4375 0.875,0.71094 0.50781,0.26562 0.89844,0.26562 0.42187,0 0.67968,-0.20312 0.25782,-0.20313 0.25782,-0.46875 0,-0.49219 -0.92969,-0.96094 l -0.71875,-0.35937 q -2.0625,-1.03907 -2.0625,-2.60157 0,-1.00781 0.77344,-1.71875 0.78125,-0.71875 1.99218,-0.71875 0.82813,0 1.55469,0.36719 0.73438,0.35938 1.24219,1.03906 z"
         style=""
         id="path1798" />
      <path
         d="m 195.81445,266.8131 h 2.125 v 8.5 h -2.125 v -0.89843 q -0.625,0.59375 -1.25781,0.85937 -0.625,0.25781 -1.35937,0.25781 -1.64844,0 -2.85157,-1.27343 -1.20312,-1.28125 -1.20312,-3.17969 0,-1.96875 1.16406,-3.22656 1.16406,-1.25782 2.82813,-1.25782 0.76562,0 1.4375,0.28907 0.67187,0.28906 1.24218,0.86718 z m -2.24218,1.75 q -0.99219,0 -1.64844,0.70313 -0.65625,0.69531 -0.65625,1.78906 0,1.10156 0.66406,1.8125 0.67188,0.71094 1.64844,0.71094 1.00781,0 1.67187,-0.69531 0.66407,-0.70313 0.66407,-1.83594 0,-1.10938 -0.66407,-1.79688 -0.66406,-0.6875 -1.67968,-0.6875 z"
         style=""
         id="path1800" />
      <path
         d="m 199.5957,266.8131 h 1.82813 v 1.07032 q 0.29687,-0.63282 0.78906,-0.96094 0.49219,-0.32813 1.07813,-0.32813 0.41406,0 0.86718,0.21875 l -0.66406,1.83594 q -0.375,-0.1875 -0.61719,-0.1875 -0.49218,0 -0.83593,0.60938 -0.33594,0.60937 -0.33594,2.39062 l 0.008,0.41406 v 3.4375 h -2.11719 z"
         style=""
         id="path1802" />
      <path
         d="m 213.73633,271.68029 h -6.85156 q 0.14843,0.90625 0.78906,1.44531 0.64844,0.53125 1.64844,0.53125 1.19531,0 2.05468,-0.83593 l 1.79688,0.84375 q -0.67188,0.95312 -1.60938,1.41406 -0.9375,0.45312 -2.22656,0.45312 -2,0 -3.25781,-1.25781 -1.25781,-1.26562 -1.25781,-3.16406 0,-1.94531 1.25,-3.22656 1.25781,-1.28907 3.14843,-1.28907 2.00782,0 3.26563,1.28907 1.25781,1.28125 1.25781,3.39062 z m -2.14063,-1.67969 q -0.21093,-0.71093 -0.83593,-1.15625 -0.61719,-0.44531 -1.4375,-0.44531 -0.89063,0 -1.5625,0.5 -0.42188,0.3125 -0.78125,1.10156 z"
         style=""
         id="path1804" />
      <path
         d="m 45.697266,283.53185 h 2.117187 v 4.14063 q 0.625,-0.53906 1.257813,-0.80469 0.632812,-0.27344 1.28125,-0.27344 1.265625,0 2.132812,0.875 0.742188,0.75782 0.742188,2.22657 v 5.61718 h -2.101563 v -3.72656 q 0,-1.47656 -0.140625,-2 -0.140625,-0.52344 -0.484375,-0.78125 -0.335937,-0.25781 -0.835937,-0.25781 -0.648438,0 -1.117188,0.42969 -0.460937,0.42968 -0.640625,1.17187 -0.09375,0.38281 -0.09375,1.75 v 3.41406 h -2.117187 z"
         style=""
         id="path1806" />
      <path
         d="m 61.564453,286.8131 h 2.125 v 8.5 h -2.125 v -0.89843 q -0.625,0.59375 -1.257812,0.85937 -0.625,0.25781 -1.359375,0.25781 -1.648438,0 -2.851563,-1.27343 -1.203125,-1.28125 -1.203125,-3.17969 0,-1.96875 1.164063,-3.22656 1.164062,-1.25782 2.828125,-1.25782 0.765625,0 1.4375,0.28907 0.671875,0.28906 1.242187,0.86718 z m -2.242187,1.75 q -0.992188,0 -1.648438,0.70313 -0.65625,0.69531 -0.65625,1.78906 0,1.10156 0.664063,1.8125 0.671875,0.71094 1.648437,0.71094 1.007813,0 1.671875,-0.69531 0.664063,-0.70313 0.664063,-1.83594 0,-1.10938 -0.664063,-1.79688 -0.664062,-0.6875 -1.679687,-0.6875 z"
         style=""
         id="path1808" />
      <path
         d="m 65.345703,286.8131 h 1.828125 v 1.07032 q 0.296875,-0.63282 0.789063,-0.96094 0.492187,-0.32813 1.078125,-0.32813 0.414062,0 0.867187,0.21875 l -0.664062,1.83594 q -0.375,-0.1875 -0.617188,-0.1875 -0.492187,0 -0.835937,0.60938 -0.335938,0.60937 -0.335938,2.39062 l 0.0078,0.41406 v 3.4375 h -2.117188 z"
         style=""
         id="path1810" />
      <path
         d="m 70.955078,286.8131 h 2.140625 v 0.97657 q 0.546875,-0.60157 1.210938,-0.89844 0.671875,-0.29688 1.460937,-0.29688 0.796875,0 1.4375,0.39063 0.640625,0.39062 1.03125,1.14062 0.507813,-0.75 1.242188,-1.14062 0.742187,-0.39063 1.617187,-0.39063 0.90625,0 1.59375,0.42188 0.6875,0.42187 0.984375,1.10156 0.304688,0.67969 0.304688,2.21094 v 4.98437 h -2.148438 v -4.3125 q 0,-1.44531 -0.359375,-1.95312 -0.359375,-0.51563 -1.078125,-0.51563 -0.546875,0 -0.984375,0.3125 -0.429687,0.3125 -0.640625,0.86719 -0.210937,0.54688 -0.210937,1.76563 v 3.83593 h -2.148438 v -4.11718 q 0,-1.14063 -0.171875,-1.64844 -0.164062,-0.51563 -0.5,-0.76563 -0.335937,-0.25 -0.8125,-0.25 -0.53125,0 -0.96875,0.32032 -0.429687,0.3125 -0.648437,0.88281 -0.210938,0.57031 -0.210938,1.79687 v 3.78125 h -2.140625 z"
         style=""
         id="path1812" />
      <path
         d="m 84.986328,286.8131 h 0.757813 q 0.0078,-1.67187 0.05469,-1.97656 0.08594,-0.70312 0.585938,-1.10937 0.507812,-0.41407 1.429687,-0.41407 0.664063,0 1.5,0.30469 v 1.625 q -0.460937,-0.13281 -0.757812,-0.13281 -0.375,0 -0.546875,0.15625 -0.125,0.11719 -0.125,0.48437 l -0.0078,1.0625 h 1.351563 v 1.8125 h -1.351563 v 6.6875 h -2.132812 v -6.6875 h -0.757813 z"
         style=""
         id="path1814" />
      <path
         d="m 90.462891,286.8131 h 2.15625 v 4.09375 q 0,1.19532 0.164062,1.66407 0.164063,0.46093 0.523438,0.71875 0.367187,0.25781 0.898437,0.25781 0.53125,0 0.898438,-0.25 0.375,-0.25781 0.554687,-0.75 0.132813,-0.36719 0.132813,-1.57031 v -4.16407 h 2.140625 v 3.60157 q 0,2.22656 -0.351563,3.04687 -0.429687,1 -1.265625,1.53906 -0.835937,0.53125 -2.125,0.53125 -1.398437,0 -2.265625,-0.625 -0.859375,-0.625 -1.210937,-1.74218 -0.25,-0.77344 -0.25,-2.8125 z"
         style=""
         id="path1816" />
      <path
         d="M 99.837891,283.53185 H 101.9707 V 295.3131 H 99.837891 Z"
         style=""
         id="path1818" />
      <path
         d="m 108.63477,283.68029 h 2.125 v 3.13281 h 1.26562 v 1.83594 h -1.26562 v 6.66406 h -2.125 v -6.66406 h -1.09375 v -1.83594 h 1.09375 z"
         style=""
         id="path1820" />
      <path
         d="m 117.18164,286.59435 q 1.20313,0 2.25781,0.60157 1.0625,0.60156 1.65625,1.63281 0.59375,1.03125 0.59375,2.22656 0,1.20313 -0.60156,2.25 -0.59375,1.04688 -1.625,1.64063 -1.03125,0.58593 -2.27344,0.58593 -1.82812,0 -3.125,-1.29687 -1.28906,-1.30469 -1.28906,-3.16406 0,-1.99219 1.46094,-3.32032 1.28125,-1.15625 2.94531,-1.15625 z m 0.0312,2.00782 q -0.99219,0 -1.65625,0.69531 -0.65625,0.6875 -0.65625,1.76562 0,1.10938 0.64844,1.79688 0.65625,0.6875 1.65625,0.6875 1,0 1.66406,-0.69531 0.66406,-0.69532 0.66406,-1.78907 0,-1.09375 -0.65625,-1.77343 -0.64843,-0.6875 -1.66406,-0.6875 z"
         style=""
         id="path1822" />
      <path
         d="m 128.16602,283.68029 h 2.125 v 3.13281 h 1.26562 v 1.83594 h -1.26562 v 6.66406 h -2.125 v -6.66406 h -1.09375 v -1.83594 h 1.09375 z"
         style=""
         id="path1824" />
      <path
         d="m 132.72852,283.53185 h 2.11718 v 4.14063 q 0.625,-0.53906 1.25782,-0.80469 0.63281,-0.27344 1.28125,-0.27344 1.26562,0 2.13281,0.875 0.74219,0.75782 0.74219,2.22657 v 5.61718 h -2.10157 v -3.72656 q 0,-1.47656 -0.14062,-2 -0.14063,-0.52344 -0.48438,-0.78125 -0.33593,-0.25781 -0.83593,-0.25781 -0.64844,0 -1.11719,0.42969 -0.46094,0.42968 -0.64063,1.17187 -0.0937,0.38281 -0.0937,1.75 v 3.41406 h -2.11718 z"
         style=""
         id="path1826" />
      <path
         d="m 150.83008,291.68029 h -6.85156 q 0.14843,0.90625 0.78906,1.44531 0.64844,0.53125 1.64844,0.53125 1.19531,0 2.05468,-0.83593 l 1.79688,0.84375 q -0.67188,0.95312 -1.60938,1.41406 -0.9375,0.45312 -2.22656,0.45312 -2,0 -3.25781,-1.25781 -1.25781,-1.26562 -1.25781,-3.16406 0,-1.94531 1.25,-3.22656 1.25781,-1.28907 3.14843,-1.28907 2.00782,0 3.26563,1.28907 1.25781,1.28125 1.25781,3.39062 z m -2.14063,-1.67969 q -0.21093,-0.71093 -0.83593,-1.15625 -0.61719,-0.44531 -1.4375,-0.44531 -0.89063,0 -1.5625,0.5 -0.42188,0.3125 -0.78125,1.10156 z"
         style=""
         id="path1828" />
      <path
         d="m 159.15039,283.53185 v 4.21875 q 0.57813,-0.57812 1.25,-0.86718 0.67188,-0.28907 1.4375,-0.28907 1.66406,0 2.82813,1.25782 1.16406,1.25781 1.16406,3.22656 0,1.89844 -1.20313,3.17969 -1.20312,1.27343 -2.85156,1.27343 -0.73437,0 -1.36719,-0.25781 -0.63281,-0.26562 -1.25781,-0.85937 v 0.89843 h -2.11719 v -11.78125 z m 2.24219,5.03125 q -1.00781,0 -1.67188,0.6875 -0.66406,0.6875 -0.66406,1.79688 0,1.13281 0.66406,1.83594 0.66407,0.69531 1.67188,0.69531 0.97656,0 1.64062,-0.71094 0.67188,-0.71094 0.67188,-1.8125 0,-1.09375 -0.65625,-1.78906 -0.65625,-0.70313 -1.65625,-0.70313 z"
         style=""
         id="path1830" />
      <path
         d="m 173.87695,286.8131 h 2.125 v 8.5 h -2.125 v -0.89843 q -0.625,0.59375 -1.25781,0.85937 -0.625,0.25781 -1.35937,0.25781 -1.64844,0 -2.85157,-1.27343 -1.20312,-1.28125 -1.20312,-3.17969 0,-1.96875 1.16406,-3.22656 1.16406,-1.25782 2.82813,-1.25782 0.76562,0 1.4375,0.28907 0.67187,0.28906 1.24218,0.86718 z m -2.24218,1.75 q -0.99219,0 -1.64844,0.70313 -0.65625,0.69531 -0.65625,1.78906 0,1.10156 0.66406,1.8125 0.67188,0.71094 1.64844,0.71094 1.00781,0 1.67187,-0.69531 0.66407,-0.70313 0.66407,-1.83594 0,-1.10938 -0.66407,-1.79688 -0.66406,-0.6875 -1.67968,-0.6875 z"
         style=""
         id="path1832" />
      <path
         d="m 178.1582,286.8131 h 2.125 v 0.86719 q 0.72657,-0.60937 1.3125,-0.84375 0.59375,-0.24219 1.21094,-0.24219 1.26563,0 2.14844,0.88282 0.74219,0.75 0.74219,2.21875 v 5.61718 h -2.10938 v -3.72656 q 0,-1.52344 -0.14062,-2.02344 -0.13282,-0.5 -0.47657,-0.75781 -0.33593,-0.26562 -0.83593,-0.26562 -0.64844,0 -1.11719,0.4375 -0.46094,0.42968 -0.64063,1.19531 -0.0937,0.39844 -0.0937,1.72656 v 3.41406 h -2.125 z"
         style=""
         id="path1834" />
      <path
         d="m 187.76758,283.53185 h 2.13281 v 6.78907 l 3.14063,-3.50782 h 2.67187 l -3.65625,4.07813 4.10156,4.42187 h -2.64843 l -3.60938,-3.91406 v 3.91406 h -2.13281 z"
         style=""
         id="path1836" />
      <path
         d="m 197.86914,283.3131 q 0.5625,0 0.96094,0.40625 0.40625,0.40625 0.40625,0.98438 0,0.57031 -0.39844,0.97656 -0.39844,0.39844 -0.95312,0.39844 -0.57032,0 -0.97657,-0.40625 -0.39843,-0.41406 -0.39843,-1 0,-0.5625 0.39843,-0.96094 0.39844,-0.39844 0.96094,-0.39844 z m -1.07031,3.5 h 2.14062 v 8.5 h -2.14062 z"
         style=""
         id="path1838" />
      <path
         d="m 200.87695,286.8131 h 2.125 v 0.86719 q 0.72657,-0.60937 1.3125,-0.84375 0.59375,-0.24219 1.21094,-0.24219 1.26563,0 2.14844,0.88282 0.74219,0.75 0.74219,2.21875 v 5.61718 h -2.10938 v -3.72656 q 0,-1.52344 -0.14062,-2.02344 -0.13282,-0.5 -0.47657,-0.75781 -0.33593,-0.26562 -0.83593,-0.26562 -0.64844,0 -1.11719,0.4375 -0.46094,0.42968 -0.64063,1.19531 -0.0937,0.39844 -0.0937,1.72656 v 3.41406 h -2.125 z"
         style=""
         id="path1840" />
      <path
         d="m 216.75195,286.8131 h 2.125 v 7.28125 q 0,2.15625 -0.86718,3.17188 -1.16407,1.375 -3.50782,1.375 -1.25,0 -2.10156,-0.3125 -0.85156,-0.3125 -1.4375,-0.92188 -0.58594,-0.60156 -0.86719,-1.46875 h 2.35157 q 0.3125,0.35938 0.80468,0.53907 0.49219,0.1875 1.16407,0.1875 0.85937,0 1.38281,-0.26563 0.52344,-0.26562 0.73437,-0.6875 0.21875,-0.42187 0.21875,-1.45312 -0.5625,0.5625 -1.17968,0.8125 -0.61719,0.24218 -1.39844,0.24218 -1.71094,0 -2.89063,-1.23437 -1.17968,-1.23438 -1.17968,-3.125 0,-2.02344 1.25,-3.25 1.13281,-1.10938 2.70312,-1.10938 0.73438,0 1.38281,0.27344 0.65625,0.26563 1.3125,0.88281 z m -2.21093,1.77344 q -1.00782,0 -1.66407,0.67969 -0.65625,0.67187 -0.65625,1.69531 0,1.0625 0.67188,1.74219 0.67187,0.67969 1.6875,0.67969 0.99219,0 1.63281,-0.66407 0.64844,-0.66406 0.64844,-1.74218 0,-1.0625 -0.64844,-1.72657 -0.64844,-0.66406 -1.67187,-0.66406 z"
         style=""
         id="path1842" />
      <path
         d="m 40.970703,308.0006 -1.320312,1.32032 q -0.804688,-0.79688 -1.460938,-0.79688 -0.359375,0 -0.5625,0.15625 -0.203125,0.14844 -0.203125,0.375 0,0.17188 0.125,0.32031 0.132813,0.14063 0.640625,0.39063 l 0.78125,0.39062 q 1.234375,0.60938 1.695313,1.24219 0.460937,0.63281 0.460937,1.48438 0,1.13281 -0.835937,1.89062 -0.828125,0.75781 -2.226563,0.75781 -1.859375,0 -2.96875,-1.45312 l 1.3125,-1.42969 q 0.375,0.4375 0.875,0.71094 0.507813,0.26562 0.898438,0.26562 0.421875,0 0.679687,-0.20312 0.257813,-0.20313 0.257813,-0.46875 0,-0.49219 -0.929688,-0.96094 l -0.71875,-0.35937 q -2.0625,-1.03907 -2.0625,-2.60157 0,-1.00781 0.773438,-1.71875 0.78125,-0.71875 1.992187,-0.71875 0.828125,0 1.554688,0.36719 0.734375,0.35938 1.242187,1.03906 z"
         style=""
         id="path1844" />
      <path
         d="m 41.853516,306.8131 h 2.179687 l 2.210938,5.33594 2.4375,-5.33594 h 2.1875 l -5.328125,11.60938 h -2.203125 l 1.75,-3.74219 z"
         style=""
         id="path1846" />
      <path
         d="m 57.283203,308.0006 -1.320312,1.32032 q -0.804688,-0.79688 -1.460938,-0.79688 -0.359375,0 -0.5625,0.15625 -0.203125,0.14844 -0.203125,0.375 0,0.17188 0.125,0.32031 0.132813,0.14063 0.640625,0.39063 l 0.78125,0.39062 q 1.234375,0.60938 1.695313,1.24219 0.460937,0.63281 0.460937,1.48438 0,1.13281 -0.835937,1.89062 -0.828125,0.75781 -2.226563,0.75781 -1.859375,0 -2.96875,-1.45312 l 1.3125,-1.42969 q 0.375,0.4375 0.875,0.71094 0.507813,0.26562 0.898438,0.26562 0.421875,0 0.679687,-0.20312 0.257813,-0.20313 0.257813,-0.46875 0,-0.49219 -0.929688,-0.96094 l -0.71875,-0.35937 q -2.0625,-1.03907 -2.0625,-2.60157 0,-1.00781 0.773438,-1.71875 0.78125,-0.71875 1.992187,-0.71875 0.828125,0 1.554688,0.36719 0.734375,0.35938 1.242187,1.03906 z"
         style=""
         id="path1848" />
      <path
         d="m 59.369141,303.68029 h 2.125 v 3.13281 h 1.265625 v 1.83594 h -1.265625 v 6.66406 h -2.125 v -6.66406 h -1.09375 v -1.83594 h 1.09375 z"
         style=""
         id="path1850" />
      <path
         d="m 72.439453,311.68029 h -6.851562 q 0.148437,0.90625 0.789062,1.44531 0.648438,0.53125 1.648438,0.53125 1.195312,0 2.054687,-0.83593 l 1.796875,0.84375 q -0.671875,0.95312 -1.609375,1.41406 -0.9375,0.45312 -2.226562,0.45312 -2,0 -3.257813,-1.25781 -1.257812,-1.26562 -1.257812,-3.16406 0,-1.94531 1.25,-3.22656 1.257812,-1.28907 3.148437,-1.28907 2.007813,0 3.265625,1.28907 1.257813,1.28125 1.257813,3.39062 z m -2.140625,-1.67969 q -0.210937,-0.71093 -0.835937,-1.15625 -0.617188,-0.44531 -1.4375,-0.44531 -0.890625,0 -1.5625,0.5 -0.421875,0.3125 -0.78125,1.10156 z"
         style=""
         id="path1852" />
      <path
         d="m 74.158203,306.8131 h 2.140625 v 0.97657 q 0.546875,-0.60157 1.210938,-0.89844 0.671875,-0.29688 1.460937,-0.29688 0.796875,0 1.4375,0.39063 0.640625,0.39062 1.03125,1.14062 0.507813,-0.75 1.242188,-1.14062 0.742187,-0.39063 1.617187,-0.39063 0.90625,0 1.59375,0.42188 0.6875,0.42187 0.984375,1.10156 0.304688,0.67969 0.304688,2.21094 v 4.98437 h -2.148438 v -4.3125 q 0,-1.44531 -0.359375,-1.95312 -0.359375,-0.51563 -1.078125,-0.51563 -0.546875,0 -0.984375,0.3125 -0.429687,0.3125 -0.640625,0.86719 -0.210937,0.54688 -0.210937,1.76563 v 3.83593 h -2.148438 v -4.11718 q 0,-1.14063 -0.171875,-1.64844 -0.164062,-0.51563 -0.5,-0.76563 -0.335937,-0.25 -0.8125,-0.25 -0.53125,0 -0.96875,0.32032 -0.429687,0.3125 -0.648437,0.88281 -0.210938,0.57031 -0.210938,1.79687 v 3.78125 h -2.140625 z"
         style=""
         id="path1854" />
      <path
         d="m 99.955078,306.8131 h 2.125002 v 8.5 h -2.125002 v -0.89843 q -0.625,0.59375 -1.257812,0.85937 -0.625,0.25781 -1.359375,0.25781 -1.648438,0 -2.851563,-1.27343 -1.203125,-1.28125 -1.203125,-3.17969 0,-1.96875 1.164063,-3.22656 1.164062,-1.25782 2.828125,-1.25782 0.765625,0 1.4375,0.28907 0.671875,0.28906 1.242187,0.86718 z m -2.242187,1.75 q -0.992188,0 -1.648438,0.70313 -0.65625,0.69531 -0.65625,1.78906 0,1.10156 0.664063,1.8125 0.671875,0.71094 1.648437,0.71094 1.007813,0 1.671875,-0.69531 0.664062,-0.70313 0.664062,-1.83594 0,-1.10938 -0.664062,-1.79688 -0.664062,-0.6875 -1.679687,-0.6875 z"
         style=""
         id="path1856" />
      <path
         d="m 104.23633,306.8131 h 2.125 v 0.86719 q 0.72656,-0.60937 1.3125,-0.84375 0.59375,-0.24219 1.21094,-0.24219 1.26562,0 2.14843,0.88282 0.74219,0.75 0.74219,2.21875 v 5.61718 h -2.10937 v -3.72656 q 0,-1.52344 -0.14063,-2.02344 -0.13281,-0.5 -0.47656,-0.75781 -0.33594,-0.26562 -0.83594,-0.26562 -0.64844,0 -1.11719,0.4375 -0.46093,0.42968 -0.64062,1.19531 -0.0937,0.39844 -0.0937,1.72656 v 3.41406 h -2.125 z"
         style=""
         id="path1858" />
      <path
         d="m 120.11133,303.53185 h 2.125 v 11.78125 h -2.125 v -0.89843 q -0.625,0.59375 -1.25781,0.85937 -0.625,0.25781 -1.35938,0.25781 -1.64844,0 -2.85156,-1.27343 -1.20313,-1.28125 -1.20313,-3.17969 0,-1.96875 1.16407,-3.22656 1.16406,-1.25782 2.82812,-1.25782 0.76563,0 1.4375,0.28907 0.67188,0.28906 1.24219,0.86718 z m -2.24219,5.03125 q -0.99219,0 -1.64844,0.70313 -0.65625,0.69531 -0.65625,1.78906 0,1.10156 0.66407,1.8125 0.67187,0.71094 1.64843,0.71094 1.00782,0 1.67188,-0.69531 0.66406,-0.70313 0.66406,-1.83594 0,-1.10938 -0.66406,-1.79688 -0.66406,-0.6875 -1.67969,-0.6875 z"
         style=""
         id="path1860" />
      <path
         d="m 128.8457,306.8131 h 2.14063 v 0.97657 q 0.54687,-0.60157 1.21094,-0.89844 0.67187,-0.29688 1.46093,-0.29688 0.79688,0 1.4375,0.39063 0.64063,0.39062 1.03125,1.14062 0.50782,-0.75 1.24219,-1.14062 0.74219,-0.39063 1.61719,-0.39063 0.90625,0 1.59375,0.42188 0.6875,0.42187 0.98437,1.10156 0.30469,0.67969 0.30469,2.21094 v 4.98437 h -2.14844 v -4.3125 q 0,-1.44531 -0.35937,-1.95312 -0.35938,-0.51563 -1.07813,-0.51563 -0.54687,0 -0.98437,0.3125 -0.42969,0.3125 -0.64063,0.86719 -0.21093,0.54688 -0.21093,1.76563 v 3.83593 h -2.14844 v -4.11718 q 0,-1.14063 -0.17188,-1.64844 -0.16406,-0.51563 -0.5,-0.76563 -0.33593,-0.25 -0.8125,-0.25 -0.53125,0 -0.96875,0.32032 -0.42968,0.3125 -0.64843,0.88281 -0.21094,0.57031 -0.21094,1.79687 v 3.78125 h -2.14063 z"
         style=""
         id="path1862" />
      <path
         d="m 150.17383,306.8131 h 2.125 v 8.5 h -2.125 v -0.89843 q -0.625,0.59375 -1.25781,0.85937 -0.625,0.25781 -1.35938,0.25781 -1.64844,0 -2.85156,-1.27343 -1.20313,-1.28125 -1.20313,-3.17969 0,-1.96875 1.16407,-3.22656 1.16406,-1.25782 2.82812,-1.25782 0.76563,0 1.4375,0.28907 0.67188,0.28906 1.24219,0.86718 z m -2.24219,1.75 q -0.99219,0 -1.64844,0.70313 -0.65625,0.69531 -0.65625,1.78906 0,1.10156 0.66407,1.8125 0.67187,0.71094 1.64843,0.71094 1.00782,0 1.67188,-0.69531 0.66406,-0.70313 0.66406,-1.83594 0,-1.10938 -0.66406,-1.79688 -0.66406,-0.6875 -1.67969,-0.6875 z"
         style=""
         id="path1864" />
      <path
         d="m 153.50977,306.8131 h 2.17968 l 2.21094,5.33594 2.4375,-5.33594 h 2.1875 l -5.32812,11.60938 h -2.20313 l 1.75,-3.74219 z"
         style=""
         id="path1866" />
      <path
         d="m 167.25977,306.8131 h 2.08593 l 1.71094,4.83594 1.84375,-4.83594 h 1.27344 l 1.80469,4.78125 1.71093,-4.78125 h 2.10157 l -3.10157,8.5 h -1.35156 l -1.8125,-4.84375 -1.86719,4.84375 h -1.33593 z"
         style=""
         id="path1868" />
      <path
         d="m 189.5332,311.68029 h -6.85156 q 0.14844,0.90625 0.78906,1.44531 0.64844,0.53125 1.64844,0.53125 1.19531,0 2.05469,-0.83593 l 1.79687,0.84375 q -0.67187,0.95312 -1.60937,1.41406 -0.9375,0.45312 -2.22656,0.45312 -2,0 -3.25782,-1.25781 -1.25781,-1.26562 -1.25781,-3.16406 0,-1.94531 1.25,-3.22656 1.25781,-1.28907 3.14844,-1.28907 2.00781,0 3.26562,1.28907 1.25782,1.28125 1.25782,3.39062 z m -2.14062,-1.67969 q -0.21094,-0.71093 -0.83594,-1.15625 -0.61719,-0.44531 -1.4375,-0.44531 -0.89062,0 -1.5625,0.5 -0.42187,0.3125 -0.78125,1.10156 z"
         style=""
         id="path1870" />
      <path
         d="m 197.54883,306.8131 h 2.125 v 8.5 h -2.125 v -0.89843 q -0.625,0.59375 -1.25781,0.85937 -0.625,0.25781 -1.35938,0.25781 -1.64844,0 -2.85156,-1.27343 -1.20313,-1.28125 -1.20313,-3.17969 0,-1.96875 1.16407,-3.22656 1.16406,-1.25782 2.82812,-1.25782 0.76563,0 1.4375,0.28907 0.67188,0.28906 1.24219,0.86718 z m -2.24219,1.75 q -0.99219,0 -1.64844,0.70313 -0.65625,0.69531 -0.65625,1.78906 0,1.10156 0.66407,1.8125 0.67187,0.71094 1.64843,0.71094 1.00782,0 1.67188,-0.69531 0.66406,-0.70313 0.66406,-1.83594 0,-1.10938 -0.66406,-1.79688 -0.66406,-0.6875 -1.67969,-0.6875 z"
         style=""
         id="path1872" />
      <path
         d="m 201.8457,303.53185 h 2.13282 v 6.78907 l 3.14062,-3.50782 h 2.67188 l -3.65625,4.07813 4.10156,4.42187 h -2.64844 l -3.60937,-3.91406 v 3.91406 h -2.13282 z"
         style=""
         id="path1874" />
      <path
         d="m 219.62695,311.68029 h -6.85156 q 0.14844,0.90625 0.78906,1.44531 0.64844,0.53125 1.64844,0.53125 1.19531,0 2.05469,-0.83593 l 1.79687,0.84375 q -0.67187,0.95312 -1.60937,1.41406 -0.9375,0.45312 -2.22656,0.45312 -2,0 -3.25782,-1.25781 -1.25781,-1.26562 -1.25781,-3.16406 0,-1.94531 1.25,-3.22656 1.25781,-1.28907 3.14844,-1.28907 2.00781,0 3.26562,1.28907 1.25782,1.28125 1.25782,3.39062 z m -2.14062,-1.67969 q -0.21094,-0.71093 -0.83594,-1.15625 -0.61719,-0.44531 -1.4375,-0.44531 -0.89062,0 -1.5625,0.5 -0.42187,0.3125 -0.78125,1.10156 z"
         style=""
         id="path1876" />
      <path
         d="m 221.36133,306.8131 h 2.125 v 0.86719 q 0.72656,-0.60937 1.3125,-0.84375 0.59375,-0.24219 1.21094,-0.24219 1.26562,0 2.14843,0.88282 0.74219,0.75 0.74219,2.21875 v 5.61718 h -2.10937 v -3.72656 q 0,-1.52344 -0.14063,-2.02344 -0.13281,-0.5 -0.47656,-0.75781 -0.33594,-0.26562 -0.83594,-0.26562 -0.64844,0 -1.11719,0.4375 -0.46093,0.42968 -0.64062,1.19531 -0.0937,0.39844 -0.0937,1.72656 v 3.41406 h -2.125 z"
         style=""
         id="path1878" />
      <path
         d="m 58.400391,323.68029 h 2.125 v 3.13281 h 1.265625 v 1.83594 h -1.265625 v 6.66406 h -2.125 v -6.66406 h -1.09375 v -1.83594 h 1.09375 z"
         style=""
         id="path1880" />
      <path
         d="m 62.962891,323.53185 h 2.117187 v 4.14063 q 0.625,-0.53906 1.257813,-0.80469 0.632812,-0.27344 1.28125,-0.27344 1.265625,0 2.132812,0.875 0.742188,0.75782 0.742188,2.22657 v 5.61718 h -2.101563 v -3.72656 q 0,-1.47656 -0.140625,-2 -0.140625,-0.52344 -0.484375,-0.78125 -0.335937,-0.25781 -0.835937,-0.25781 -0.648438,0 -1.117188,0.42969 -0.460937,0.42968 -0.640625,1.17187 -0.09375,0.38281 -0.09375,1.75 v 3.41406 h -2.117187 z"
         style=""
         id="path1882" />
      <path
         d="m 81.064453,331.68029 h -6.851562 q 0.148437,0.90625 0.789062,1.44531 0.648438,0.53125 1.648438,0.53125 1.195312,0 2.054687,-0.83593 l 1.796875,0.84375 q -0.671875,0.95312 -1.609375,1.41406 -0.9375,0.45312 -2.226562,0.45312 -2,0 -3.257813,-1.25781 -1.257812,-1.26562 -1.257812,-3.16406 0,-1.94531 1.25,-3.22656 1.257812,-1.28907 3.148437,-1.28907 2.007813,0 3.265625,1.28907 1.257813,1.28125 1.257813,3.39062 z m -2.140625,-1.67969 q -0.210937,-0.71093 -0.835937,-1.15625 -0.617188,-0.44531 -1.4375,-0.44531 -0.890625,0 -1.5625,0.5 -0.421875,0.3125 -0.78125,1.10156 z"
         style=""
         id="path1884" />
      <path
         d="m 92.470703,328.0006 -1.320312,1.32032 q -0.804688,-0.79688 -1.460938,-0.79688 -0.359375,0 -0.5625,0.15625 -0.203125,0.14844 -0.203125,0.375 0,0.17188 0.125,0.32031 0.132813,0.14063 0.640625,0.39063 l 0.78125,0.39062 q 1.234375,0.60938 1.695313,1.24219 0.460937,0.63281 0.460937,1.48438 0,1.13281 -0.835937,1.89062 -0.828125,0.75781 -2.226563,0.75781 -1.859375,0 -2.96875,-1.45312 l 1.3125,-1.42969 q 0.375,0.4375 0.875,0.71094 0.507813,0.26562 0.898438,0.26562 0.421875,0 0.679687,-0.20312 0.257813,-0.20313 0.257813,-0.46875 0,-0.49219 -0.929688,-0.96094 l -0.71875,-0.35937 q -2.0625,-1.03907 -2.0625,-2.60157 0,-1.00781 0.773438,-1.71875 0.78125,-0.71875 1.992187,-0.71875 0.828125,0 1.554688,0.36719 0.734375,0.35938 1.242187,1.03906 z"
         style=""
         id="path1886" />
      <path
         d="m 94.556641,323.68029 h 2.125 v 3.13281 h 1.265625 v 1.83594 h -1.265625 v 6.66406 h -2.125 v -6.66406 h -1.09375 v -1.83594 h 1.09375 z"
         style=""
         id="path1888" />
      <path
         d="m 105.39258,326.8131 h 2.125 v 8.5 h -2.125 v -0.89843 q -0.625,0.59375 -1.25781,0.85937 -0.625,0.25781 -1.35938,0.25781 -1.64844,0 -2.851562,-1.27343 -1.203125,-1.28125 -1.203125,-3.17969 0,-1.96875 1.164063,-3.22656 1.164064,-1.25782 2.828124,-1.25782 0.76563,0 1.4375,0.28907 0.67188,0.28906 1.24219,0.86718 z m -2.24219,1.75 q -0.99219,0 -1.64844,0.70313 -0.65625,0.69531 -0.65625,1.78906 0,1.10156 0.66407,1.8125 0.67187,0.71094 1.64843,0.71094 1.00782,0 1.67188,-0.69531 0.66406,-0.70313 0.66406,-1.83594 0,-1.10938 -0.66406,-1.79688 -0.66406,-0.6875 -1.67969,-0.6875 z"
         style=""
         id="path1890" />
      <path
         d="m 109.93164,323.68029 h 2.125 v 3.13281 h 1.26563 v 1.83594 h -1.26563 v 6.66406 h -2.125 v -6.66406 h -1.09375 v -1.83594 h 1.09375 z"
         style=""
         id="path1892" />
      <path
         d="m 123.00195,331.68029 h -6.85156 q 0.14844,0.90625 0.78906,1.44531 0.64844,0.53125 1.64844,0.53125 1.19531,0 2.05469,-0.83593 l 1.79687,0.84375 q -0.67187,0.95312 -1.60937,1.41406 -0.9375,0.45312 -2.22656,0.45312 -2,0 -3.25782,-1.25781 -1.25781,-1.26562 -1.25781,-3.16406 0,-1.94531 1.25,-3.22656 1.25781,-1.28907 3.14844,-1.28907 2.00781,0 3.26562,1.28907 1.25782,1.28125 1.25782,3.39062 z m -2.14062,-1.67969 q -0.21094,-0.71093 -0.83594,-1.15625 -0.61719,-0.44531 -1.4375,-0.44531 -0.89062,0 -1.5625,0.5 -0.42187,0.3125 -0.78125,1.10156 z"
         style=""
         id="path1894" />
      <path
         d="m 135.48633,326.8131 h 2.125 v 8.5 h -2.125 v -0.89843 q -0.625,0.59375 -1.25781,0.85937 -0.625,0.25781 -1.35938,0.25781 -1.64844,0 -2.85156,-1.27343 -1.20313,-1.28125 -1.20313,-3.17969 0,-1.96875 1.16407,-3.22656 1.16406,-1.25782 2.82812,-1.25782 0.76563,0 1.4375,0.28907 0.67188,0.28906 1.24219,0.86718 z m -2.24219,1.75 q -0.99219,0 -1.64844,0.70313 -0.65625,0.69531 -0.65625,1.78906 0,1.10156 0.66407,1.8125 0.67187,0.71094 1.64843,0.71094 1.00782,0 1.67188,-0.69531 0.66406,-0.70313 0.66406,-1.83594 0,-1.10938 -0.66406,-1.79688 -0.66406,-0.6875 -1.67969,-0.6875 z"
         style=""
         id="path1896" />
      <path
         d="m 141.88477,326.8131 v 0.9375 q 0.57812,-0.57812 1.25,-0.86718 0.67187,-0.28907 1.4375,-0.28907 1.66406,0 2.82812,1.25782 1.16406,1.25781 1.16406,3.22656 0,1.89844 -1.20312,3.17969 -1.20313,1.27343 -2.85156,1.27343 -0.73438,0 -1.36719,-0.25781 -0.63281,-0.26562 -1.25781,-0.85937 v 4.00781 h -2.11719 V 326.8131 Z m 2.24218,1.75 q -1.00781,0 -1.67187,0.6875 -0.66406,0.6875 -0.66406,1.79688 0,1.13281 0.66406,1.83594 0.66406,0.69531 1.67187,0.69531 0.97657,0 1.64063,-0.71094 0.67187,-0.71094 0.67187,-1.8125 0,-1.09375 -0.65625,-1.78906 -0.65625,-0.70313 -1.65625,-0.70313 z"
         style=""
         id="path1898" />
      <path
         d="m 152.44727,326.8131 v 0.9375 q 0.57812,-0.57812 1.25,-0.86718 0.67187,-0.28907 1.4375,-0.28907 1.66406,0 2.82812,1.25782 1.16406,1.25781 1.16406,3.22656 0,1.89844 -1.20312,3.17969 -1.20313,1.27343 -2.85156,1.27343 -0.73438,0 -1.36719,-0.25781 -0.63281,-0.26562 -1.25781,-0.85937 v 4.00781 h -2.11719 V 326.8131 Z m 2.24218,1.75 q -1.00781,0 -1.67187,0.6875 -0.66406,0.6875 -0.66406,1.79688 0,1.13281 0.66406,1.83594 0.66406,0.69531 1.67187,0.69531 0.97657,0 1.64063,-0.71094 0.67187,-0.71094 0.67187,-1.8125 0,-1.09375 -0.65625,-1.78906 -0.65625,-0.70313 -1.65625,-0.70313 z"
         style=""
         id="path1900" />
      <path
         d="m 167.17383,326.8131 h 2.125 v 8.5 h -2.125 v -0.89843 q -0.625,0.59375 -1.25781,0.85937 -0.625,0.25781 -1.35938,0.25781 -1.64844,0 -2.85156,-1.27343 -1.20313,-1.28125 -1.20313,-3.17969 0,-1.96875 1.16407,-3.22656 1.16406,-1.25782 2.82812,-1.25782 0.76563,0 1.4375,0.28907 0.67188,0.28906 1.24219,0.86718 z m -2.24219,1.75 q -0.99219,0 -1.64844,0.70313 -0.65625,0.69531 -0.65625,1.78906 0,1.10156 0.66407,1.8125 0.67187,0.71094 1.64843,0.71094 1.00782,0 1.67188,-0.69531 0.66406,-0.70313 0.66406,-1.83594 0,-1.10938 -0.66406,-1.79688 -0.66406,-0.6875 -1.67969,-0.6875 z"
         style=""
         id="path1902" />
      <path
         d="m 170.95508,326.8131 h 1.82812 v 1.07032 q 0.29688,-0.63282 0.78907,-0.96094 0.49218,-0.32813 1.07812,-0.32813 0.41406,0 0.86719,0.21875 l -0.66406,1.83594 q -0.375,-0.1875 -0.61719,-0.1875 -0.49219,0 -0.83594,0.60938 -0.33594,0.60937 -0.33594,2.39062 l 0.008,0.41406 v 3.4375 h -2.11719 z"
         style=""
         id="path1904" />
      <path
         d="m 182.86133,326.8131 h 2.125 v 8.5 h -2.125 v -0.89843 q -0.625,0.59375 -1.25781,0.85937 -0.625,0.25781 -1.35938,0.25781 -1.64844,0 -2.85156,-1.27343 -1.20313,-1.28125 -1.20313,-3.17969 0,-1.96875 1.16407,-3.22656 1.16406,-1.25782 2.82812,-1.25782 0.76563,0 1.4375,0.28907 0.67188,0.28906 1.24219,0.86718 z m -2.24219,1.75 q -0.99219,0 -1.64844,0.70313 -0.65625,0.69531 -0.65625,1.78906 0,1.10156 0.66407,1.8125 0.67187,0.71094 1.64843,0.71094 1.00782,0 1.67188,-0.69531 0.66406,-0.70313 0.66406,-1.83594 0,-1.10938 -0.66406,-1.79688 -0.66406,-0.6875 -1.67969,-0.6875 z"
         style=""
         id="path1906" />
      <path
         d="m 187.40039,323.68029 h 2.125 v 3.13281 h 1.26563 v 1.83594 h -1.26563 v 6.66406 h -2.125 v -6.66406 h -1.09375 v -1.83594 h 1.09375 z"
         style=""
         id="path1908" />
      <path
         d="m 191.94727,326.8131 h 2.15625 v 4.09375 q 0,1.19532 0.16406,1.66407 0.16406,0.46093 0.52344,0.71875 0.36718,0.25781 0.89843,0.25781 0.53125,0 0.89844,-0.25 0.375,-0.25781 0.55469,-0.75 0.13281,-0.36719 0.13281,-1.57031 v -4.16407 h 2.14063 v 3.60157 q 0,2.22656 -0.35157,3.04687 -0.42968,1 -1.26562,1.53906 -0.83594,0.53125 -2.125,0.53125 -1.39844,0 -2.26563,-0.625 -0.85937,-0.625 -1.21093,-1.74218 -0.25,-0.77344 -0.25,-2.8125 z"
         style=""
         id="path1910" />
      <path
         d="m 206.75195,328.0006 -1.32031,1.32032 q -0.80469,-0.79688 -1.46094,-0.79688 -0.35937,0 -0.5625,0.15625 -0.20312,0.14844 -0.20312,0.375 0,0.17188 0.125,0.32031 0.13281,0.14063 0.64062,0.39063 l 0.78125,0.39062 q 1.23438,0.60938 1.69532,1.24219 0.46093,0.63281 0.46093,1.48438 0,1.13281 -0.83593,1.89062 -0.82813,0.75781 -2.22657,0.75781 -1.85937,0 -2.96875,-1.45312 l 1.3125,-1.42969 q 0.375,0.4375 0.875,0.71094 0.50782,0.26562 0.89844,0.26562 0.42188,0 0.67969,-0.20312 0.25781,-0.20313 0.25781,-0.46875 0,-0.49219 -0.92969,-0.96094 l -0.71875,-0.35937 q -2.0625,-1.03907 -2.0625,-2.60157 0,-1.00781 0.77344,-1.71875 0.78125,-0.71875 1.99219,-0.71875 0.82812,0 1.55469,0.36719 0.73437,0.35938 1.24218,1.03906 z"
         style=""
         id="path1912" />
    </g>
  </g>
</svg>
