<?xml version="1.0" encoding="utf-8"?>
<!-- Generator: Adobe Illustrator 19.0.0, SVG Export Plug-In . SVG Version: 6.00 Build 0)  -->
<svg version="1.1"
	 id="svg8" inkscape:export-ydpi="300" inkscape:version="0.92.2 5c3e80d, 2017-08-06" inkscape:export-xdpi="300" sodipodi:docname="sticker.en.svg" inkscape:export-filename="/home/emes/doc/dontbuymonero-sticker/sticker.en.png" xmlns:dc="http://purl.org/dc/elements/1.1/" xmlns:cc="http://creativecommons.org/ns#" xmlns:rdf="http://www.w3.org/1999/02/22-rdf-syntax-ns#" xmlns:svg="http://www.w3.org/2000/svg" xmlns:sodipodi="http://sodipodi.sourceforge.net/DTD/sodipodi-0.dtd" xmlns:inkscape="http://www.inkscape.org/namespaces/inkscape"
	 xmlns="http://www.w3.org/2000/svg" xmlns:xlink="http://www.w3.org/1999/xlink" x="0px" y="0px" viewBox="-380 139.5 198.4 283.5"
	 enable-background="new -380 139.5 198.4 283.5" xml:space="preserve">
<sodipodi:namedview  inkscape:pageshadow="2" inkscape:current-layer="layer1" inkscape:pageopacity="0.0" inkscape:pagecheckerboard="true" inkscape:window-maximized="1" inkscape:document-units="mm" inkscape:guide-bbox="true" inkscape:snap-bbox="true" inkscape:snap-page="true" inkscape:bbox-nodes="true" inkscape:bbox-paths="true" inkscape:window-width="1920" inkscape:snap-to-guides="true" inkscape:snap-grids="true" inkscape:window-height="1136" inkscape:window-y="747" inkscape:measure-start="0,0" inkscape:window-x="0" showguides="true" showgrid="false" inkscape:cy="89.807384" inkscape:cx="-154.2393" inkscape:zoom="1.4" borderopacity="1.0" bordercolor="#666666" pagecolor="#ffffff" id="base" inkscape:measure-end="0,0">
	
		<sodipodi:guide  inkscape:color="rgb(0,0,255)" inkscape:label="" inkscape:locked="false" orientation="1,0" position="5,91.472997" id="guide889">
		</sodipodi:guide>
	
		<sodipodi:guide  inkscape:color="rgb(0,0,255)" inkscape:label="" inkscape:locked="false" orientation="1,0" position="65,88.533032" id="guide891">
		</sodipodi:guide>
	
		<sodipodi:guide  inkscape:color="rgb(0,0,255)" inkscape:label="" inkscape:locked="false" orientation="0,1" position="28.86511,95" id="guide893">
		</sodipodi:guide>
	
		<sodipodi:guide  inkscape:color="rgb(0,0,255)" inkscape:label="" inkscape:locked="false" orientation="0,1" position="36.348657,5" id="guide895">
		</sodipodi:guide>
	
		<sodipodi:guide  inkscape:color="rgb(0,0,255)" inkscape:label="" inkscape:locked="false" orientation="1,0" position="9,45.435819" id="guide951">
		</sodipodi:guide>
	
		<sodipodi:guide  inkscape:color="rgb(0,0,255)" inkscape:label="" inkscape:locked="false" orientation="1,0" position="61,64.54559" id="guide953">
		</sodipodi:guide>
	
		<sodipodi:guide  inkscape:color="rgb(0,0,255)" inkscape:label="" inkscape:locked="false" orientation="0,1" position="25.52424,8" id="guide955">
		</sodipodi:guide>
	
		<sodipodi:guide  inkscape:color="rgb(0,0,255)" inkscape:label="" inkscape:locked="false" orientation="0,1" position="26.125597,31" id="guide957">
		</sodipodi:guide>
</sodipodi:namedview>
<g id="layer1" transform="translate(0,-197)" inkscape:label="Layer 1" inkscape:groupmode="layer">
	<rect id="rect858" x="-380" y="336.5" fill="#FFFFFF" width="198.4" height="283.5"/>
	<g id="g875" transform="translate(-2.0000006,5.4790253)" inkscape:export-ydpi="352.57999" inkscape:export-xdpi="352.57999">
		<g id="g915" transform="matrix(1.3011002,0,0,1.3011002,16.420217,-75.468301)">
			<path id="path22" inkscape:connector-curvature="0" fill="#FF6600" d="M-226.9,360.2c-15.3,0-27.7,12.4-27.7,27.7
				c0,3.1,0.5,6,1.4,8.7h8.3v-23.3l18,18l18-18v23.3h8.3c0.9-2.7,1.4-5.7,1.4-8.7C-199.2,372.6-211.6,360.2-226.9,360.2"/>
			<path id="path26" inkscape:connector-curvature="0" fill="#4C4C4C" d="M-238.9,387.6v14.7h-11.7c4.9,8,13.6,13.3,23.6,13.3
				s18.8-5.3,23.6-13.3h-11.7v-14.7l-12,12L-238.9,387.6z"/>
		</g>
	</g>
	<g id="flowRoot840">
	</g>
	<g id="flowRoot866" transform="matrix(0.26458333,0,0,0.26458333,0,192)">
	</g>
	<g id="flowRoot874">
	</g>
	<g id="g861">
		<path id="rect861" inkscape:connector-curvature="0" fill="#4C4C4C" d="M-365.8,523.6v1.2v81h170.1v-82.2H-365.8z M-363.3,526.1
			h165.1v77.2h-165.1V526.1z"/>
	</g>
	<g>
		<path fill="#4C4C4C" d="M-363.2,373.4V356h4.6l3.6,6.4c1,1.8,2.1,4,2.8,6h0.1c-0.3-2.3-0.3-4.7-0.3-7.3V356h3.6v17.4h-4.1
			l-3.7-6.7c-1-1.9-2.2-4.1-3-6.2l-0.1,0c0.1,2.3,0.2,4.8,0.2,7.6v5.3H-363.2z"/>
		<path fill="#4C4C4C" d="M-341.3,369l-1.2,4.5h-4.1l5.3-17.4h5.2l5.4,17.4h-4.2l-1.3-4.5H-341.3z M-336.9,366l-1.1-3.7
			c-0.3-1-0.6-2.3-0.9-3.4h-0.1c-0.3,1-0.5,2.4-0.8,3.4l-1,3.7H-336.9z M-334.2,351.9l-3.2,3.2h-3.2l2.2-3.2H-334.2z"/>
		<path fill="#4C4C4C" d="M-310.4,372.9c-0.7,0.4-2.4,0.8-4.5,0.8c-6,0-9.1-3.8-9.1-8.7c0-5.9,4.2-9.3,9.5-9.3c2,0,3.6,0.4,4.3,0.8
			l-0.8,3.1c-0.8-0.3-1.9-0.6-3.3-0.6c-3.1,0-5.6,1.9-5.6,5.8c0,3.5,2.1,5.7,5.6,5.7c1.2,0,2.5-0.3,3.3-0.6L-310.4,372.9z"/>
		<path fill="#4C4C4C" d="M-297.4,366.1h-6.4v4.1h7.2v3.2h-11.1V356h10.8v3.2h-6.8v3.6h6.4V366.1z"/>
		<path fill="#4C4C4C" d="M-294,373.4V356h4.6l3.6,6.4c1,1.8,2.1,4,2.8,6h0.1c-0.3-2.3-0.3-4.7-0.3-7.3V356h3.6v17.4h-4.1l-3.7-6.7
			c-1-1.9-2.2-4.1-3-6.2l-0.1,0c0.1,2.3,0.2,4.8,0.2,7.6v5.3H-294z"/>
		<path fill="#4C4C4C" d="M-276.1,373.4V356h4.6l3.6,6.4c1,1.8,2.1,4,2.8,6h0.1c-0.3-2.3-0.3-4.7-0.3-7.3V356h3.6v17.4h-4.1
			l-3.7-6.7c-1-1.9-2.2-4.1-3-6.2l-0.1,0c0.1,2.3,0.2,4.8,0.2,7.6v5.3H-276.1z"/>
		<path fill="#4C4C4C" d="M-247.9,366.1h-6.4v4.1h7.2v3.2h-11.1V356h10.8v3.2h-6.8v3.6h6.4V366.1z"/>
		<path fill="#4C4C4C" d="M-240.4,369l-1.2,4.5h-4.1l5.3-17.4h5.2l5.4,17.4h-4.2l-1.3-4.5H-240.4z M-236,366l-1.1-3.7
			c-0.3-1-0.6-2.3-0.9-3.4h-0.1c-0.3,1-0.5,2.4-0.8,3.4l-1,3.7H-236z"/>
		<path fill="#4C4C4C" d="M-215.3,372.9c-0.7,0.4-2.4,0.8-4.5,0.8c-6,0-9.1-3.8-9.1-8.7c0-5.9,4.2-9.3,9.5-9.3c2,0,3.6,0.4,4.3,0.8
			l-0.8,3.1c-0.8-0.3-1.9-0.6-3.3-0.6c-3.1,0-5.6,1.9-5.6,5.8c0,3.5,2.1,5.7,5.6,5.7c1.2,0,2.5-0.3,3.3-0.6L-215.3,372.9z"/>
		<path fill="#4C4C4C" d="M-208.8,356v6.7h6.5V356h3.9v17.4h-3.9v-7.3h-6.5v7.3h-4V356H-208.8z"/>
	</g>
</g>
<g>
	<path fill="#4C4C4C" d="M-305.5,340.3c0.6-0.1,1.3-0.1,2.1-0.1c1.3,0,2.1,0.2,2.8,0.7c0.7,0.5,1.1,1.3,1.1,2.5
		c0,1.3-0.5,2.2-1.1,2.7c-0.7,0.6-1.8,0.9-3.1,0.9c-0.8,0-1.3-0.1-1.7-0.1V340.3z M-304,345.8c0.1,0,0.3,0,0.5,0
		c1.4,0,2.3-0.8,2.3-2.4c0-1.4-0.8-2.1-2.1-2.1c-0.3,0-0.6,0-0.7,0.1V345.8z"/>
	<path fill="#4C4C4C" d="M-297,340.2v2.6h2.5v-2.6h1.5v6.7h-1.5v-2.8h-2.5v2.8h-1.5v-6.7H-297z"/>
	<path fill="#4C4C4C" d="M-287.7,344.1h-2.5v1.6h2.8v1.2h-4.3v-6.7h4.2v1.2h-2.6v1.4h2.5V344.1z M-287.9,338.6l-1.2,1.2h-1.2
		l0.8-1.2H-287.9z"/>
	<path fill="#4C4C4C" d="M-284.8,345.2l-0.5,1.7h-1.6l2.1-6.7h2l2.1,6.7h-1.6l-0.5-1.7H-284.8z M-283.1,344.1l-0.4-1.4
		c-0.1-0.4-0.2-0.9-0.3-1.3h0c-0.1,0.4-0.2,0.9-0.3,1.3l-0.4,1.4H-283.1z"/>
	<path fill="#4C4C4C" d="M-279.8,347v-6.7h1.8l1.4,2.5c0.4,0.7,0.8,1.5,1.1,2.3h0c-0.1-0.9-0.1-1.8-0.1-2.8v-2h1.4v6.7h-1.6
		l-1.4-2.6c-0.4-0.7-0.8-1.6-1.2-2.4l0,0c0,0.9,0.1,1.8,0.1,2.9v2H-279.8z"/>
	<path fill="#4C4C4C" d="M-271.3,345.2l-0.5,1.7h-1.6l2.1-6.7h2l2.1,6.7h-1.6l-0.5-1.7H-271.3z M-269.6,344.1l-0.4-1.4
		c-0.1-0.4-0.2-0.9-0.3-1.3h0c-0.1,0.4-0.2,0.9-0.3,1.3l-0.4,1.4H-269.6z"/>
	<path fill="#4C4C4C" d="M-266.3,347v-6.7h1.8l1.4,2.5c0.4,0.7,0.8,1.5,1.1,2.3h0c-0.1-0.9-0.1-1.8-0.1-2.8v-2h1.4v6.7h-1.6
		l-1.4-2.6c-0.4-0.7-0.8-1.6-1.2-2.4l0,0c0,0.9,0.1,1.8,0.1,2.9v2H-266.3z"/>
	<path fill="#4C4C4C" d="M-259.4,347v-6.7h1.8l1.4,2.5c0.4,0.7,0.8,1.5,1.1,2.3h0c-0.1-0.9-0.1-1.8-0.1-2.8v-2h1.4v6.7h-1.6
		l-1.4-2.6c-0.4-0.7-0.8-1.6-1.2-2.4l0,0c0,0.9,0.1,1.8,0.1,2.9v2H-259.4z"/>
	<path fill="#4C4C4C" d="M-347.8,357.2l-0.5,1.7h-1.6l2.1-6.7h2l2.1,6.7h-1.6l-0.5-1.7H-347.8z M-346.1,356.1l-0.4-1.4
		c-0.1-0.4-0.2-0.9-0.3-1.3h0c-0.1,0.4-0.2,0.9-0.3,1.3l-0.4,1.4H-346.1z"/>
	<path fill="#4C4C4C" d="M-341.3,352.2v6.7h-1.5v-6.7H-341.3z"/>
	<path fill="#4C4C4C" d="M-340,352.3c0.5-0.1,1.2-0.1,2-0.1c1,0,1.7,0.1,2.2,0.5c0.4,0.3,0.6,0.8,0.6,1.4c0,0.9-0.6,1.4-1.2,1.7v0
		c0.5,0.2,0.7,0.6,0.9,1.3c0.2,0.8,0.4,1.6,0.5,1.9h-1.6c-0.1-0.2-0.3-0.7-0.5-1.6c-0.2-0.8-0.5-1.1-1.1-1.1h-0.5v2.6h-1.5V352.3z
		 M-338.5,355.2h0.6c0.8,0,1.2-0.4,1.2-1c0-0.6-0.4-0.9-1.1-0.9c-0.4,0-0.6,0-0.7,0.1V355.2z"/>
	<path fill="#4C4C4C" d="M-328.5,358.7c-0.5,0.2-1.4,0.4-2.2,0.4c-1.2,0-2.1-0.3-2.7-0.9c-0.6-0.6-1-1.5-0.9-2.4
		c0-2.2,1.6-3.5,3.8-3.5c0.9,0,1.5,0.2,1.9,0.3l-0.3,1.2c-0.4-0.2-0.8-0.3-1.6-0.3c-1.3,0-2.2,0.7-2.2,2.2c0,1.4,0.9,2.2,2.1,2.2
		c0.3,0,0.6,0,0.7-0.1v-1.4h-1v-1.2h2.5V358.7z"/>
	<path fill="#4C4C4C" d="M-323.3,356.1h-2.5v1.6h2.8v1.2h-4.3v-6.7h4.2v1.2h-2.6v1.4h2.5V356.1z"/>
	<path fill="#4C4C4C" d="M-320.4,357.2l-0.5,1.7h-1.6l2.1-6.7h2l2.1,6.7h-1.6l-0.5-1.7H-320.4z M-318.7,356.1l-0.4-1.4
		c-0.1-0.4-0.2-0.9-0.3-1.3h0c-0.1,0.4-0.2,0.9-0.3,1.3l-0.4,1.4H-318.7z"/>
	<path fill="#4C4C4C" d="M-315.4,352.3c0.6-0.1,1.3-0.1,2.1-0.1c1.3,0,2.1,0.2,2.8,0.7c0.7,0.5,1.1,1.3,1.1,2.5
		c0,1.3-0.5,2.2-1.1,2.7c-0.7,0.6-1.8,0.9-3.1,0.9c-0.8,0-1.3-0.1-1.7-0.1V352.3z M-313.9,357.8c0.1,0,0.3,0,0.5,0
		c1.4,0,2.3-0.8,2.3-2.4c0-1.4-0.8-2.1-2.1-2.1c-0.3,0-0.6,0-0.7,0.1V357.8z"/>
	<path fill="#4C4C4C" d="M-306.2,355.1v1h-2.6v-1H-306.2z"/>
	<path fill="#4C4C4C" d="M-300.3,358.8c-0.3,0.1-0.9,0.3-1.7,0.3c-2.3,0-3.5-1.4-3.5-3.4c0-2.3,1.6-3.6,3.7-3.6
		c0.8,0,1.4,0.2,1.7,0.3l-0.3,1.2c-0.3-0.1-0.7-0.3-1.3-0.3c-1.2,0-2.1,0.7-2.1,2.2c0,1.3,0.8,2.2,2.2,2.2c0.5,0,1-0.1,1.3-0.2
		L-300.3,358.8z"/>
	<path fill="#4C4C4C" d="M-299.3,352.3c0.5-0.1,1.2-0.1,2-0.1c1,0,1.7,0.1,2.2,0.5c0.4,0.3,0.6,0.8,0.6,1.4c0,0.9-0.6,1.4-1.2,1.7v0
		c0.5,0.2,0.7,0.6,0.9,1.3c0.2,0.8,0.4,1.6,0.5,1.9h-1.6c-0.1-0.2-0.3-0.7-0.5-1.6c-0.2-0.8-0.5-1.1-1.1-1.1h-0.5v2.6h-1.5V352.3z
		 M-297.8,355.2h0.6c0.8,0,1.2-0.4,1.2-1c0-0.6-0.4-0.9-1.1-0.9c-0.4,0-0.6,0-0.7,0.1V355.2z"/>
	<path fill="#4C4C4C" d="M-291.8,352.2v6.7h-1.5v-6.7H-291.8z"/>
	<path fill="#4C4C4C" d="M-290.5,352.3c0.5-0.1,1.1-0.1,2.1-0.1c0.9,0,1.6,0.2,2.1,0.5c0.4,0.3,0.7,0.9,0.7,1.6
		c0,0.7-0.2,1.2-0.6,1.6c-0.5,0.5-1.3,0.7-2.2,0.7c-0.2,0-0.4,0-0.5,0v2.4h-1.5V352.3z M-289,355.4c0.1,0,0.3,0,0.5,0
		c0.8,0,1.3-0.4,1.3-1.1c0-0.6-0.4-1-1.2-1c-0.3,0-0.5,0-0.6,0.1V355.4z"/>
	<path fill="#4C4C4C" d="M-283.4,353.5h-1.8v-1.3h5.2v1.3h-1.8v5.5h-1.5V353.5z"/>
	<path fill="#4C4C4C" d="M-275.2,356.1h-2.5v1.6h2.8v1.2h-4.3v-6.7h4.2v1.2h-2.6v1.4h2.5V356.1z"/>
	<path fill="#4C4C4C" d="M-272.3,357.2l-0.5,1.7h-1.6l2.1-6.7h2l2.1,6.7h-1.6l-0.5-1.7H-272.3z M-270.6,356.1l-0.4-1.4
		c-0.1-0.4-0.2-0.9-0.3-1.3h0c-0.1,0.4-0.2,0.9-0.3,1.3l-0.4,1.4H-270.6z"/>
	<path fill="#4C4C4C" d="M-261.9,358.7c-0.5,0.2-1.4,0.4-2.2,0.4c-1.2,0-2.1-0.3-2.7-0.9c-0.6-0.6-1-1.5-1-2.4
		c0-2.2,1.6-3.5,3.8-3.5c0.9,0,1.5,0.2,1.9,0.3l-0.3,1.2c-0.4-0.2-0.8-0.3-1.6-0.3c-1.3,0-2.2,0.7-2.2,2.2c0,1.4,0.9,2.2,2.1,2.2
		c0.3,0,0.6,0,0.7-0.1v-1.4h-1v-1.2h2.5V358.7z"/>
	<path fill="#4C4C4C" d="M-260.7,352.3c0.5-0.1,1.2-0.1,2-0.1c1,0,1.7,0.1,2.2,0.5c0.4,0.3,0.6,0.8,0.6,1.4c0,0.9-0.6,1.4-1.2,1.7v0
		c0.5,0.2,0.7,0.6,0.9,1.3c0.2,0.8,0.4,1.6,0.5,1.9h-1.6c-0.1-0.2-0.3-0.7-0.5-1.6c-0.2-0.8-0.5-1.1-1.1-1.1h-0.5v2.6h-1.5V352.3z
		 M-259.2,355.2h0.6c0.8,0,1.2-0.4,1.2-1c0-0.6-0.4-0.9-1.1-0.9c-0.4,0-0.6,0-0.7,0.1V355.2z"/>
	<path fill="#4C4C4C" d="M-253.1,357.2l-0.5,1.7h-1.6l2.1-6.7h2l2.1,6.7h-1.6l-0.5-1.7H-253.1z M-251.4,356.1l-0.4-1.4
		c-0.1-0.4-0.2-0.9-0.3-1.3h0c-0.1,0.4-0.2,0.9-0.3,1.3l-0.4,1.4H-251.4z"/>
	<path fill="#4C4C4C" d="M-248.1,352.2h4.1v1.2h-2.6v1.5h2.4v1.2h-2.4v2.7h-1.5V352.2z"/>
	<path fill="#4C4C4C" d="M-242,357.2l-0.5,1.7h-1.6l2.1-6.7h2l2.1,6.7h-1.6l-0.5-1.7H-242z M-240.3,356.1l-0.4-1.4
		c-0.1-0.4-0.2-0.9-0.3-1.3h0c-0.1,0.4-0.2,0.9-0.3,1.3l-0.4,1.4H-240.3z"/>
	<path fill="#4C4C4C" d="M-235.5,352.2v6.7h-1.5v-6.7H-235.5z M-234.5,350.6l-1.2,1.2h-1.2l0.8-1.2H-234.5z"/>
	<path fill="#4C4C4C" d="M-228,355.5c0,2.2-1.3,3.5-3.3,3.5c-2,0-3.2-1.5-3.2-3.4c0-2,1.3-3.5,3.3-3.5
		C-229.1,352.1-228,353.7-228,355.5z M-232.8,355.6c0,1.3,0.6,2.2,1.6,2.2c1,0,1.6-1,1.6-2.3c0-1.2-0.6-2.2-1.6-2.2
		C-232.2,353.3-232.8,354.3-232.8,355.6z"/>
	<path fill="#4C4C4C" d="M-222,358.8c-0.3,0.1-0.9,0.3-1.7,0.3c-2.3,0-3.5-1.4-3.5-3.4c0-2.3,1.6-3.6,3.7-3.6c0.8,0,1.4,0.2,1.7,0.3
		l-0.3,1.2c-0.3-0.1-0.7-0.3-1.3-0.3c-1.2,0-2.1,0.7-2.1,2.2c0,1.3,0.8,2.2,2.2,2.2c0.5,0,1-0.1,1.3-0.2L-222,358.8z"/>
	<path fill="#4C4C4C" d="M-219.5,352.2v2.6h2.5v-2.6h1.5v6.7h-1.5v-2.8h-2.5v2.8h-1.5v-6.7H-219.5z"/>
	<path fill="#4C4C4C" d="M-212.8,353.5h-1.8v-1.3h5.2v1.3h-1.8v5.5h-1.5V353.5z"/>
	<path fill="#4C4C4C" d="M-333.1,364.3c0.6-0.1,1.3-0.1,2.1-0.1c1.3,0,2.1,0.2,2.8,0.7c0.7,0.5,1.1,1.3,1.1,2.5
		c0,1.3-0.5,2.2-1.1,2.7c-0.7,0.6-1.8,0.9-3.1,0.9c-0.8,0-1.3-0.1-1.7-0.1V364.3z M-331.5,369.8c0.1,0,0.3,0,0.5,0
		c1.4,0,2.3-0.8,2.3-2.4c0-1.4-0.8-2.1-2.1-2.1c-0.3,0-0.6,0-0.7,0.1V369.8z"/>
	<path fill="#4C4C4C" d="M-324.7,369.2l-0.5,1.7h-1.6l2.1-6.7h2l2.1,6.7h-1.6l-0.5-1.7H-324.7z M-323,368.1l-0.4-1.4
		c-0.1-0.4-0.2-0.9-0.3-1.3h0c-0.1,0.4-0.2,0.9-0.3,1.3l-0.4,1.4H-323z"/>
	<path fill="#4C4C4C" d="M-314,368.4c0-0.8-0.1-1.8-0.1-2.8h0c-0.2,0.9-0.5,1.8-0.7,2.6l-0.8,2.6h-1.2l-0.7-2.6
		c-0.2-0.8-0.4-1.7-0.6-2.6h0c0,0.9-0.1,1.9-0.1,2.8l-0.1,2.6h-1.4l0.4-6.7h2l0.7,2.2c0.2,0.8,0.4,1.6,0.6,2.4h0
		c0.2-0.8,0.4-1.7,0.6-2.4l0.7-2.2h2l0.4,6.7h-1.5L-314,368.4z"/>
	<path fill="#4C4C4C" d="M-309.7,369.2l-0.5,1.7h-1.6l2.1-6.7h2l2.1,6.7h-1.6l-0.5-1.7H-309.7z M-308,368.1l-0.4-1.4
		c-0.1-0.4-0.2-0.9-0.3-1.3h0c-0.1,0.4-0.2,0.9-0.3,1.3l-0.4,1.4H-308z M-307,362.6l-1.2,1.2h-1.2l0.8-1.2H-307z"/>
	<path fill="#4C4C4C" d="M-303.2,364.2v6.7h-1.5v-6.7H-303.2z"/>
	<path fill="#4C4C4C" d="M-301.8,369.4c0.4,0.2,1,0.4,1.7,0.4c0.7,0,1.1-0.3,1.1-0.7c0-0.4-0.3-0.7-1.1-0.9c-1.1-0.4-1.8-1-1.8-2
		c0-1.1,1-2,2.5-2c0.8,0,1.3,0.2,1.7,0.3l-0.3,1.2c-0.3-0.1-0.7-0.3-1.4-0.3s-1,0.3-1,0.6c0,0.4,0.4,0.6,1.2,0.9
		c1.2,0.4,1.7,1.1,1.7,2c0,1.1-0.9,2.1-2.7,2.1c-0.8,0-1.5-0.2-1.9-0.4L-301.8,369.4z"/>
	<path fill="#4C4C4C" d="M-295.2,365.5h-1.8v-1.3h5.2v1.3h-1.8v5.5h-1.5V365.5z"/>
	<path fill="#4C4C4C" d="M-287,368.1h-2.5v1.6h2.8v1.2h-4.3v-6.7h4.2v1.2h-2.6v1.4h2.5V368.1z"/>
	<path fill="#4C4C4C" d="M-278,370.7c-0.5,0.2-1.4,0.4-2.2,0.4c-1.2,0-2.1-0.3-2.7-0.9c-0.6-0.6-1-1.5-0.9-2.4
		c0-2.2,1.6-3.5,3.8-3.5c0.9,0,1.5,0.2,1.9,0.3l-0.3,1.2c-0.4-0.2-0.8-0.3-1.6-0.3c-1.3,0-2.2,0.7-2.2,2.2c0,1.4,0.9,2.2,2.1,2.2
		c0.3,0,0.6,0,0.7-0.1v-1.4h-1v-1.2h2.5V370.7z"/>
	<path fill="#4C4C4C" d="M-270.6,367.5c0,2.2-1.3,3.5-3.3,3.5c-2,0-3.2-1.5-3.2-3.4c0-2,1.3-3.5,3.3-3.5
		C-271.8,364.1-270.6,365.7-270.6,367.5z M-275.5,367.6c0,1.3,0.6,2.2,1.6,2.2c1,0,1.6-1,1.6-2.3c0-1.2-0.6-2.2-1.6-2.2
		C-274.9,365.3-275.5,366.3-275.5,367.6z"/>
	<path fill="#4C4C4C" d="M-267.6,364.3c0.6-0.1,1.3-0.1,2.1-0.1c1.3,0,2.1,0.2,2.8,0.7c0.7,0.5,1.1,1.3,1.1,2.5
		c0,1.3-0.5,2.2-1.1,2.7c-0.7,0.6-1.8,0.9-3.1,0.9c-0.8,0-1.3-0.1-1.7-0.1V364.3z M-266.1,369.8c0.1,0,0.3,0,0.5,0
		c1.4,0,2.3-0.8,2.3-2.4c0-1.4-0.8-2.1-2.1-2.1c-0.3,0-0.6,0-0.7,0.1V369.8z"/>
	<path fill="#4C4C4C" d="M-259.1,364.2v6.7h-1.5v-6.7H-259.1z M-258.2,362.6l-1.2,1.2h-1.2l0.8-1.2H-258.2z"/>
	<path fill="#4C4C4C" d="M-250.8,370.8c-0.3,0.1-0.9,0.3-1.7,0.3c-2.3,0-3.5-1.4-3.5-3.4c0-2.3,1.6-3.6,3.7-3.6
		c0.8,0,1.4,0.2,1.7,0.3l-0.3,1.2c-0.3-0.1-0.7-0.3-1.3-0.3c-1.2,0-2.1,0.7-2.1,2.2c0,1.3,0.8,2.2,2.2,2.2c0.5,0,1-0.1,1.3-0.2
		L-250.8,370.8z"/>
	<path fill="#4C4C4C" d="M-244,367.5c0,2.2-1.3,3.5-3.3,3.5c-2,0-3.2-1.5-3.2-3.4c0-2,1.3-3.5,3.3-3.5
		C-245.1,364.1-244,365.7-244,367.5z M-248.8,367.6c0,1.3,0.6,2.2,1.6,2.2c1,0,1.6-1,1.6-2.3c0-1.2-0.6-2.2-1.6-2.2
		C-248.2,365.3-248.8,366.3-248.8,367.6z M-245.5,362.6l-1.2,1.2h-1.2l0.8-1.2H-245.5z"/>
	<path fill="#4C4C4C" d="M-243,364.3c0.5-0.1,1.2-0.1,2-0.1c1,0,1.7,0.1,2.2,0.5c0.4,0.3,0.6,0.8,0.6,1.4c0,0.9-0.6,1.4-1.2,1.7v0
		c0.5,0.2,0.7,0.6,0.9,1.3c0.2,0.8,0.4,1.6,0.5,1.9h-1.6c-0.1-0.2-0.3-0.7-0.5-1.6c-0.2-0.8-0.5-1.1-1.1-1.1h-0.5v2.6h-1.5V364.3z
		 M-241.5,367.2h0.6c0.8,0,1.2-0.4,1.2-1c0-0.6-0.4-0.9-1.1-0.9c-0.4,0-0.6,0-0.7,0.1V367.2z"/>
	<path fill="#4C4C4C" d="M-235.4,369.2l-0.5,1.7h-1.6l2.1-6.7h2l2.1,6.7h-1.6l-0.5-1.7H-235.4z M-233.7,368.1l-0.4-1.4
		c-0.1-0.4-0.2-0.9-0.3-1.3h0c-0.1,0.4-0.2,0.9-0.3,1.3l-0.4,1.4H-233.7z"/>
	<path fill="#4C4C4C" d="M-230.3,369.4c0.4,0.2,1,0.4,1.7,0.4c0.7,0,1.1-0.3,1.1-0.7c0-0.4-0.3-0.7-1.1-0.9c-1.1-0.4-1.8-1-1.8-2
		c0-1.1,1-2,2.5-2c0.8,0,1.3,0.2,1.7,0.3l-0.3,1.2c-0.3-0.1-0.7-0.3-1.4-0.3c-0.7,0-1,0.3-1,0.6c0,0.4,0.4,0.6,1.3,0.9
		c1.2,0.4,1.7,1.1,1.7,2c0,1.1-0.9,2.1-2.7,2.1c-0.8,0-1.5-0.2-1.9-0.4L-230.3,369.4z"/>
	<path fill="#4C4C4C" d="M-314.6,383v-6.7h1.8l1.4,2.5c0.4,0.7,0.8,1.5,1.1,2.3h0c-0.1-0.9-0.1-1.8-0.1-2.8v-2h1.4v6.7h-1.6
		l-1.4-2.6c-0.4-0.7-0.8-1.6-1.2-2.4l0,0c0,0.9,0.1,1.8,0.1,2.9v2H-314.6z"/>
	<path fill="#4C4C4C" d="M-306.1,381.2l-0.5,1.7h-1.6l2.1-6.7h2l2.1,6.7h-1.6l-0.5-1.7H-306.1z M-304.4,380.1l-0.4-1.4
		c-0.1-0.4-0.2-0.9-0.3-1.3h0c-0.1,0.4-0.2,0.9-0.3,1.3l-0.4,1.4H-304.4z"/>
	<path fill="#4C4C4C" d="M-299.1,376.3c0.4-0.1,1.2-0.1,2-0.1c0.9,0,1.5,0.1,2,0.4c0.5,0.3,0.8,0.7,0.8,1.3c0,0.6-0.4,1.2-1.1,1.4v0
		c0.8,0.2,1.3,0.8,1.3,1.7c0,0.6-0.3,1.1-0.7,1.4c-0.5,0.4-1.3,0.6-2.6,0.6c-0.7,0-1.3-0.1-1.6-0.1V376.3z M-297.6,378.9h0.5
		c0.8,0,1.2-0.3,1.2-0.8c0-0.5-0.4-0.8-1.1-0.8c-0.3,0-0.5,0-0.6,0V378.9z M-297.6,381.9c0.1,0,0.3,0,0.6,0c0.7,0,1.3-0.3,1.3-1
		c0-0.7-0.6-0.9-1.4-0.9h-0.5V381.9z"/>
	<path fill="#4C4C4C" d="M-291.5,381.2l-0.5,1.7h-1.6l2.1-6.7h2l2.1,6.7h-1.6l-0.5-1.7H-291.5z M-289.8,380.1l-0.4-1.4
		c-0.1-0.4-0.2-0.9-0.3-1.3h0c-0.1,0.4-0.2,0.9-0.3,1.3l-0.4,1.4H-289.8z"/>
	<path fill="#4C4C4C" d="M-285,376.2v6.7h-1.5v-6.7H-285z"/>
	<path fill="#4C4C4C" d="M-283.7,383v-6.7h1.8l1.4,2.5c0.4,0.7,0.8,1.5,1.1,2.3h0c-0.1-0.9-0.1-1.8-0.1-2.8v-2h1.4v6.7h-1.6
		l-1.4-2.6c-0.4-0.7-0.8-1.6-1.2-2.4l0,0c0,0.9,0.1,1.8,0.1,2.9v2H-283.7z"/>
	<path fill="#4C4C4C" d="M-271.8,382.8c-0.3,0.1-0.9,0.3-1.7,0.3c-2.3,0-3.5-1.4-3.5-3.4c0-2.3,1.6-3.6,3.7-3.6
		c0.8,0,1.4,0.2,1.7,0.3l-0.3,1.2c-0.3-0.1-0.7-0.3-1.3-0.3c-1.2,0-2.1,0.7-2.1,2.2c0,1.3,0.8,2.2,2.2,2.2c0.5,0,1-0.1,1.3-0.2
		L-271.8,382.8z"/>
	<path fill="#4C4C4C" d="M-267.3,381.2l-0.5,1.7h-1.6l2.1-6.7h2l2.1,6.7h-1.6l-0.5-1.7H-267.3z M-265.5,380.1l-0.4-1.4
		c-0.1-0.4-0.2-0.9-0.3-1.3h0c-0.1,0.4-0.2,0.9-0.3,1.3l-0.4,1.4H-265.5z"/>
	<path fill="#4C4C4C" d="M-256.9,382.7c-0.5,0.2-1.4,0.4-2.2,0.4c-1.2,0-2.1-0.3-2.7-0.9c-0.6-0.6-1-1.5-0.9-2.4
		c0-2.2,1.6-3.5,3.8-3.5c0.9,0,1.5,0.2,1.9,0.3l-0.3,1.2c-0.4-0.2-0.8-0.3-1.6-0.3c-1.3,0-2.2,0.7-2.2,2.2c0,1.4,0.9,2.2,2.1,2.2
		c0.3,0,0.6,0,0.8-0.1v-1.4h-1v-1.2h2.5V382.7z"/>
	<path fill="#4C4C4C" d="M-254.2,376.2v3.9c0,1.2,0.4,1.7,1.2,1.7c0.8,0,1.2-0.6,1.2-1.7v-3.9h1.5v3.8c0,2.1-1,3.1-2.8,3.1
		c-1.7,0-2.7-0.9-2.7-3.1v-3.8H-254.2z"/>
	<path fill="#4C4C4C" d="M-248.8,381.4c0.4,0.2,1,0.4,1.7,0.4c0.7,0,1.1-0.3,1.1-0.7c0-0.4-0.3-0.7-1.1-0.9c-1.1-0.4-1.8-1-1.8-2
		c0-1.1,1-2,2.5-2c0.8,0,1.3,0.2,1.7,0.3l-0.3,1.2c-0.3-0.1-0.8-0.3-1.4-0.3c-0.7,0-1,0.3-1,0.6c0,0.4,0.4,0.6,1.2,0.9
		c1.2,0.4,1.7,1.1,1.7,2c0,1.1-0.9,2.1-2.7,2.1c-0.8,0-1.5-0.2-1.9-0.4L-248.8,381.4z"/>
	<path fill="#4C4C4C" d="M-306.6,394.7c-0.5,0.2-1.4,0.4-2.2,0.4c-1.2,0-2.1-0.3-2.7-0.9c-0.6-0.6-1-1.5-0.9-2.4
		c0-2.2,1.6-3.5,3.8-3.5c0.9,0,1.5,0.2,1.9,0.3l-0.3,1.2c-0.4-0.2-0.8-0.3-1.6-0.3c-1.3,0-2.2,0.7-2.2,2.2c0,1.4,0.9,2.2,2.1,2.2
		c0.3,0,0.6,0,0.7-0.1v-1.4h-1v-1.2h2.5V394.7z"/>
	<path fill="#4C4C4C" d="M-299.2,391.5c0,2.2-1.3,3.5-3.3,3.5c-2,0-3.2-1.5-3.2-3.4c0-2,1.3-3.5,3.3-3.5
		C-300.3,388.1-299.2,389.7-299.2,391.5z M-304.1,391.6c0,1.3,0.6,2.2,1.6,2.2c1,0,1.6-1,1.6-2.3c0-1.2-0.6-2.2-1.6-2.2
		C-303.5,389.3-304.1,390.3-304.1,391.6z"/>
	<path fill="#4C4C4C" d="M-296.2,388.3c0.6-0.1,1.3-0.1,2.1-0.1c1.3,0,2.1,0.2,2.8,0.7c0.7,0.5,1.1,1.3,1.1,2.5
		c0,1.3-0.5,2.2-1.1,2.7c-0.7,0.6-1.8,0.9-3.1,0.9c-0.8,0-1.3-0.1-1.7-0.1V388.3z M-294.7,393.8c0.1,0,0.3,0,0.5,0
		c1.4,0,2.3-0.8,2.3-2.4c0-1.4-0.8-2.1-2.1-2.1c-0.3,0-0.6,0-0.7,0.1V393.8z"/>
	<path fill="#4C4C4C" d="M-287.7,388.2v6.7h-1.5v-6.7H-287.7z M-286.8,386.6l-1.2,1.2h-1.2l0.8-1.2H-286.8z"/>
	<path fill="#4C4C4C" d="M-282.8,393.2l-0.5,1.7h-1.6l2.1-6.7h2l2.1,6.7h-1.6l-0.5-1.7H-282.8z M-281.1,392.1l-0.4-1.4
		c-0.1-0.4-0.2-0.9-0.3-1.3h0c-0.1,0.4-0.2,0.9-0.3,1.3l-0.4,1.4H-281.1z"/>
	<path fill="#4C4C4C" d="M-277.8,395v-6.7h1.8l1.4,2.5c0.4,0.7,0.8,1.5,1.1,2.3h0c-0.1-0.9-0.1-1.8-0.1-2.8v-2h1.4v6.7h-1.6
		l-1.4-2.6c-0.4-0.7-0.8-1.6-1.2-2.4l0,0c0,0.9,0.1,1.8,0.1,2.9v2H-277.8z"/>
	<path fill="#4C4C4C" d="M-268.8,393.4c0.4,0.2,1,0.4,1.7,0.4c0.7,0,1.1-0.3,1.1-0.7c0-0.4-0.3-0.7-1.1-0.9c-1.1-0.4-1.8-1-1.8-2
		c0-1.1,1-2,2.5-2c0.8,0,1.3,0.2,1.7,0.3l-0.3,1.2c-0.3-0.1-0.8-0.3-1.4-0.3c-0.7,0-1,0.3-1,0.6c0,0.4,0.4,0.6,1.2,0.9
		c1.2,0.4,1.7,1.1,1.7,2c0,1.1-0.9,2.1-2.7,2.1c-0.8,0-1.5-0.2-1.9-0.4L-268.8,393.4z"/>
	<path fill="#4C4C4C" d="M-262.2,389.5h-1.8v-1.3h5.2v1.3h-1.8v5.5h-1.5V389.5z"/>
	<path fill="#4C4C4C" d="M-257.2,393.2l-0.5,1.7h-1.6l2.1-6.7h2l2.1,6.7h-1.6l-0.5-1.7H-257.2z M-255.4,392.1l-0.4-1.4
		c-0.1-0.4-0.2-0.9-0.3-1.3h0c-0.1,0.4-0.2,0.9-0.3,1.3l-0.4,1.4H-255.4z M-254.4,386.6l-1.2,1.2h-1.2l0.8-1.2H-254.4z"/>
	<path fill="#4C4C4C" d="M-250.6,388.2v6.7h-1.5v-6.7H-250.6z"/>
	<path fill="#4C4C4C" d="M-248,389.5h-1.8v-1.3h5.2v1.3h-1.8v5.5h-1.5V389.5z"/>
</g>
<g>
	<path fill="#4C4C4C" d="M-321.7,295.9c-0.1-2.3-0.2-5.2-0.2-8h-0.1c-0.6,2.5-1.4,5.3-2.2,7.6l-2.4,7.6h-3.5l-2.1-7.6
		c-0.6-2.3-1.3-5.1-1.8-7.6h-0.1c-0.1,2.6-0.2,5.7-0.3,8.1l-0.3,7.4h-4.1l1.2-19.6h5.9l1.9,6.5c0.6,2.3,1.2,4.7,1.7,7h0.1
		c0.6-2.3,1.2-4.8,1.9-7l2.1-6.5h5.8l1.1,19.6h-4.3L-321.7,295.9z"/>
	<path fill="#4C4C4C" d="M-295.8,293.4c0,6.4-3.9,10.3-9.6,10.3c-5.8,0-9.2-4.4-9.2-9.9c0-5.9,3.7-10.2,9.5-10.2
		C-299.1,283.5-295.8,288-295.8,293.4z M-309.9,293.7c0,3.8,1.8,6.5,4.8,6.5c3,0,4.7-2.8,4.7-6.6c0-3.5-1.7-6.5-4.7-6.5
		C-308.2,287-309.9,289.9-309.9,293.7z"/>
	<path fill="#4C4C4C" d="M-292.9,303.4v-19.6h5.2l4.1,7.2c1.2,2.1,2.3,4.5,3.2,6.7h0.1c-0.3-2.6-0.4-5.2-0.4-8.2v-5.7h4.1v19.6h-4.6
		l-4.2-7.5c-1.2-2.1-2.4-4.6-3.4-6.9l-0.1,0c0.1,2.6,0.2,5.3,0.2,8.5v5.9H-292.9z"/>
	<path fill="#4C4C4C" d="M-261.3,295.1h-7.2v4.6h8v3.6h-12.5v-19.6h12.1v3.6h-7.6v4.1h7.2V295.1z"/>
	<path fill="#4C4C4C" d="M-257.4,284.1c1.4-0.2,3.5-0.4,5.9-0.4c2.9,0,4.9,0.4,6.3,1.5c1.2,0.9,1.8,2.3,1.8,4.1
		c0,2.5-1.8,4.2-3.5,4.8v0.1c1.4,0.6,2.1,1.9,2.6,3.7c0.6,2.2,1.2,4.8,1.6,5.5h-4.5c-0.3-0.6-0.8-2.1-1.4-4.6
		c-0.5-2.4-1.4-3.1-3.2-3.1h-1.3v7.7h-4.4V284.1z M-253,292.5h1.7c2.2,0,3.5-1.1,3.5-2.8c0-1.8-1.2-2.7-3.2-2.7
		c-1.1,0-1.7,0.1-2,0.1V292.5z"/>
	<path fill="#4C4C4C" d="M-222.4,293.4c0,6.4-3.9,10.3-9.6,10.3c-5.8,0-9.2-4.4-9.2-9.9c0-5.9,3.7-10.2,9.5-10.2
		C-225.7,283.5-222.4,288-222.4,293.4z M-236.5,293.7c0,3.8,1.8,6.5,4.8,6.5c3,0,4.7-2.8,4.7-6.6c0-3.5-1.7-6.5-4.7-6.5
		C-234.8,287-236.5,289.9-236.5,293.7z"/>
</g>
</svg>
