<?xml version="1.0" encoding="UTF-8" standalone="no"?>
<!-- Created with Inkscape (http://www.inkscape.org/) -->

<svg
   xmlns:dc="http://purl.org/dc/elements/1.1/"
   xmlns:cc="http://creativecommons.org/ns#"
   xmlns:rdf="http://www.w3.org/1999/02/22-rdf-syntax-ns#"
   xmlns:svg="http://www.w3.org/2000/svg"
   xmlns="http://www.w3.org/2000/svg"
   xmlns:xlink="http://www.w3.org/1999/xlink"
   xmlns:sodipodi="http://sodipodi.sourceforge.net/DTD/sodipodi-0.dtd"
   xmlns:inkscape="http://www.inkscape.org/namespaces/inkscape"
   width="70mm"
   height="100mm"
   viewBox="0 0 70 100"
   version="1.1"
   id="svg8"
   inkscape:version="0.92.2 2405546, 2018-03-11"
   sodipodi:docname="sticker.ua.svg"
   inkscape:export-filename="/tmp/sticker.ua.png"
   inkscape:export-xdpi="300.08286"
   inkscape:export-ydpi="300.08286">
  <defs
     id="defs2" />
  <sodipodi:namedview
     id="base"
     pagecolor="#ffffff"
     bordercolor="#666666"
     borderopacity="1.0"
     inkscape:pageopacity="0.0"
     inkscape:pageshadow="2"
     inkscape:zoom="1.4"
     inkscape:cx="125.35895"
     inkscape:cy="204.38945"
     inkscape:document-units="mm"
     inkscape:current-layer="layer1"
     showgrid="false"
     showguides="true"
     inkscape:guide-bbox="true"
     inkscape:snap-to-guides="true"
     inkscape:snap-grids="true"
     inkscape:snap-page="true"
     inkscape:snap-bbox="true"
     inkscape:bbox-nodes="true"
     inkscape:bbox-paths="true"
     inkscape:window-width="1366"
     inkscape:window-height="731"
     inkscape:window-x="0"
     inkscape:window-y="2178"
     inkscape:window-maximized="0"
     inkscape:pagecheckerboard="true"
     inkscape:measure-start="0,0"
     inkscape:measure-end="0,0"
     inkscape:snap-global="false">
    <sodipodi:guide
       position="5,91.472997"
       orientation="1,0"
       id="guide889"
       inkscape:locked="false"
       inkscape:label=""
       inkscape:color="rgb(0,0,255)" />
    <sodipodi:guide
       position="65,88.533032"
       orientation="1,0"
       id="guide891"
       inkscape:locked="false"
       inkscape:label=""
       inkscape:color="rgb(0,0,255)" />
    <sodipodi:guide
       position="28.86511,95"
       orientation="0,1"
       id="guide893"
       inkscape:locked="false"
       inkscape:label=""
       inkscape:color="rgb(0,0,255)" />
    <sodipodi:guide
       position="36.348657,5"
       orientation="0,1"
       id="guide895"
       inkscape:locked="false"
       inkscape:label=""
       inkscape:color="rgb(0,0,255)" />
    <sodipodi:guide
       position="9,45.435819"
       orientation="1,0"
       id="guide951"
       inkscape:locked="false"
       inkscape:label=""
       inkscape:color="rgb(0,0,255)" />
    <sodipodi:guide
       position="61,64.54559"
       orientation="1,0"
       id="guide953"
       inkscape:locked="false"
       inkscape:label=""
       inkscape:color="rgb(0,0,255)" />
    <sodipodi:guide
       position="25.52424,8"
       orientation="0,1"
       id="guide955"
       inkscape:locked="false"
       inkscape:label=""
       inkscape:color="rgb(0,0,255)" />
    <sodipodi:guide
       position="26.125597,31"
       orientation="0,1"
       id="guide957"
       inkscape:locked="false"
       inkscape:label=""
       inkscape:color="rgb(0,0,255)" />
  </sodipodi:namedview>
  <metadata
     id="metadata5">
    <rdf:RDF>
      <cc:Work
         rdf:about="">
        <dc:format>image/svg+xml</dc:format>
        <dc:type
           rdf:resource="http://purl.org/dc/dcmitype/StillImage" />
        <dc:title />
      </cc:Work>
    </rdf:RDF>
  </metadata>
  <g
     inkscape:label="Layer 1"
     inkscape:groupmode="layer"
     id="layer1"
     transform="translate(0,-197)">
    <rect
       style="fill:#ffffff;fill-opacity:1;stroke:none;stroke-width:1;stroke-linecap:square;stroke-miterlimit:4;stroke-dasharray:none;stroke-opacity:1"
       id="rect858"
       width="70"
       height="100"
       x="0"
       y="197" />
    <g
       id="g875"
       transform="translate(-2.0000006,5.4790253)"
       inkscape:export-xdpi="352.57999"
       inkscape:export-ydpi="352.57999">
      <g
         transform="matrix(1.3011002,0,0,1.3011002,16.420217,-75.468301)"
         id="g915">
        <path
           inkscape:connector-curvature="0"
           d="m 15.817084,222.05063 c -5.391414,0 -9.7639184,4.37197 -9.7639184,9.76365 0,1.07791 0.174625,2.11455 0.4974166,3.08425 h 2.9199417 v -8.21505 l 6.3465601,6.34656 6.346561,-6.34656 v 8.21505 h 2.920206 c 0.322791,-0.9697 0.497416,-2.00634 0.497416,-3.08425 0,-5.39168 -4.372504,-9.76365 -9.764183,-9.76365"
           id="path22"
           style="fill:#ff6600;stroke-width:0.26458332" />
        <path
           inkscape:connector-curvature="0"
           d="m 11.58809,231.71921 v 5.16917 H 7.4738193 c 1.7139708,2.81199 4.8095957,4.69 8.3431057,4.69 3.533511,0 6.6294,-1.87801 8.343107,-4.69 h -4.114007 v -5.16917 l -4.2291,4.2291 z"
           id="path26"
           style="fill:#4c4c4c;stroke-width:0.26458332" />
      </g>
      <g
         transform="matrix(0.88274719,0,0,0.88274719,-10.947117,38.872224)"
         id="g911">
        <path
           inkscape:connector-curvature="0"
           d="m 78.102302,234.59405 c -0.516202,0.53154 -1.142206,0.79639 -1.878277,0.79639 -0.650346,0 -1.225285,-0.20426 -1.728523,-0.61489 -0.646906,-0.52361 -0.969962,-1.23666 -0.969962,-2.13889 0,-0.80778 0.257175,-1.47532 0.771525,-1.99919 0.512497,-0.52573 1.14591,-0.78687 1.900766,-0.78687 0.745331,0 1.379008,0.26881 1.898915,0.80565 0.522023,0.53711 0.782902,1.1938 0.782902,1.97088 0,0.7792 -0.258763,1.43352 -0.777346,1.96692 m 1.083998,-5.01042 c -0.828675,-0.8337 -1.81954,-1.25174 -2.973388,-1.25174 -0.760412,0 -1.471347,0.19129 -2.129366,0.57308 -0.6604,0.38206 -1.178719,0.90012 -1.554956,1.5547 -0.376503,0.65431 -0.565415,1.37133 -0.565415,2.15026 0,1.16338 0.404548,2.16747 1.214437,3.01334 0.809096,0.8472 1.825096,1.26895 3.046413,1.26895 1.167077,0 2.160323,-0.41037 2.979208,-1.23508 0.818886,-0.82285 1.227402,-1.83065 1.227402,-3.02048 0,-1.19936 -0.414337,-2.21668 -1.244335,-3.05303"
           id="path30"
           style="fill:#4c4c4c;stroke-width:0.26458332" />
        <path
           inkscape:connector-curvature="0"
           d="m 69,231.47434 c -0.196585,0.13706 -0.289454,0.20453 -0.809625,0.20453 h -2.046816 v -1.75102 h 1.983316 c 0.397669,0 0.468048,0.0299 0.631032,0.0913 0.162454,0.0595 0.29157,0.15902 0.388937,0.29581 0.09737,0.13705 0.144992,0.29977 0.144992,0.4863 0,0.3138 -0.09737,0.53817 -0.291836,0.6731 m 0.246063,1.61211 c 0.542131,-0.19473 0.94906,-0.48048 1.218935,-0.85752 0.27014,-0.37914 0.403225,-0.84798 0.403225,-1.41155 0,-0.53419 -0.120914,-0.9988 -0.365389,-1.38985 -0.244211,-0.39106 -0.567796,-0.67099 -0.96864,-0.83979 -0.401108,-0.16881 -1.074208,-0.254 -2.021152,-0.254 h -2.997464 v 8.55662 h 1.627981 v -3.6232 h 1.420812 l 1.926167,3.6232 h 1.780646 z"
           id="path34"
           style="fill:#4c4c4c;stroke-width:0.26458332" />
        <path
           inkscape:connector-curvature="0"
           d="m 57.217787,228.33189 h 5.547783 v 1.59411 h -3.929591 v 1.75128 h 3.929591 v 1.56633 h -3.929591 v 2.0447 h 3.929591 v 1.60047 h -5.547783 z"
           id="path38"
           style="fill:#4c4c4c;stroke-width:0.26458332" />
        <path
           inkscape:connector-curvature="0"
           d="m 48.621925,228.33189 h 1.55866 l 3.670829,5.63033 v -5.63033 h 1.627981 v 8.55662 h -1.564481 l -3.665008,-5.61234 v 5.61234 h -1.627981 z"
           id="path42"
           style="fill:#4c4c4c;stroke-width:0.26458332" />
        <use
           transform="translate(-33.088422,-1.0786894e-6)"
           id="use46"
           x="0"
           y="0"
           width="282"
           height="75"
           xlink:href="#path30" />
        <path
           inkscape:connector-curvature="0"
           d="m 29.678129,228.33165 h 1.594114 l 1.977231,5.9682 2.007394,-5.9682 h 1.570302 l 1.441715,8.55689 h -1.570567 l -0.919162,-5.40412 -1.820598,5.40412 h -1.435629 l -1.796521,-5.40412 -0.937154,5.40412 H 28.20096 Z"
           id="path50"
           style="fill:#4c4c4c;stroke-width:0.26458332" />
      </g>
    </g>
    <flowRoot
       xml:space="preserve"
       id="flowRoot840"
       style="font-style:normal;font-weight:normal;font-size:26.66666603px;line-height:1.25;font-family:sans-serif;letter-spacing:0px;word-spacing:0px;fill:#000000;fill-opacity:1;stroke:none"><flowRegion
         id="flowRegion842"><rect
           id="rect844"
           width="77.781746"
           height="47.477169"
           x="239.40616"
           y="264.52042" /></flowRegion><flowPara
         id="flowPara846" /></flowRoot>    <flowRoot
       xml:space="preserve"
       id="flowRoot866"
       style="font-style:normal;font-variant:normal;font-weight:bold;font-stretch:normal;font-size:16px;line-height:1.25;font-family:'Century Gothic';-inkscape-font-specification:'Century Gothic Bold';text-align:center;letter-spacing:0px;word-spacing:0px;text-anchor:middle;fill:#000000;fill-opacity:1;stroke:none"
       transform="matrix(0.26458333,0,0,0.26458333,0,192)"><flowRegion
         id="flowRegion868"
         style="font-size:16px"><rect
           id="rect870"
           width="241.88977"
           height="148.28261"
           x="18.897638"
           y="229.67015"
           style="font-size:16px" /></flowRegion><flowPara
         id="flowPara872" /></flowRoot>    <flowRoot
       xml:space="preserve"
       id="flowRoot874"
       style="font-style:normal;font-variant:normal;font-weight:bold;font-stretch:normal;font-size:26.66666603px;line-height:1.25;font-family:'Century Gothic';-inkscape-font-specification:'Century Gothic Bold';text-align:center;letter-spacing:0px;word-spacing:0px;text-anchor:middle;fill:#000000;fill-opacity:1;stroke:none"><flowRegion
         id="flowRegion876"><rect
           id="rect878"
           width="241.88977"
           height="148.28261"
           x="18.897638"
           y="229.67015" /></flowRegion><flowPara
         id="flowPara880" /></flowRoot>    <g
       id="g861">
      <path
         inkscape:connector-curvature="0"
         id="rect861"
         d="M 5,263.0024 V 263.44051 292 h 60 v -28.9976 z m 0.874399,0.8744 h 58.251202 v 27.24879 H 5.874399 Z"
         style="color:#000000;font-style:normal;font-variant:normal;font-weight:normal;font-stretch:normal;font-size:medium;line-height:normal;font-family:sans-serif;font-variant-ligatures:normal;font-variant-position:normal;font-variant-caps:normal;font-variant-numeric:normal;font-variant-alternates:normal;font-feature-settings:normal;text-indent:0;text-align:start;text-decoration:none;text-decoration-line:none;text-decoration-style:solid;text-decoration-color:#000000;letter-spacing:normal;word-spacing:normal;text-transform:none;writing-mode:lr-tb;direction:ltr;text-orientation:mixed;dominant-baseline:auto;baseline-shift:baseline;text-anchor:start;white-space:normal;shape-padding:0;clip-rule:nonzero;display:inline;overflow:visible;visibility:visible;opacity:1;isolation:auto;mix-blend-mode:normal;color-interpolation:sRGB;color-interpolation-filters:linearRGB;solid-color:#000000;solid-opacity:1;vector-effect:none;fill:#4c4c4c;fill-opacity:1;fill-rule:nonzero;stroke:none;stroke-width:0.87388474;stroke-linecap:square;stroke-linejoin:miter;stroke-miterlimit:4;stroke-dasharray:none;stroke-dashoffset:0;stroke-opacity:1;color-rendering:auto;image-rendering:auto;shape-rendering:auto;text-rendering:auto;enable-background:accumulate" />
    </g>
    <g
       aria-label="НЕ КУПУЙТЕ"
       style="font-style:normal;font-variant:normal;font-weight:bold;font-stretch:normal;font-size:10.78935814px;line-height:1.25;font-family:'Century Gothic';-inkscape-font-specification:'Century Gothic Bold';text-align:start;letter-spacing:0px;word-spacing:0px;text-anchor:start;fill:#4c4c4c;fill-opacity:1;stroke:none;stroke-width:0.26973394"
       id="text1099">
      <path
         d="m 4.9999998,204.07569 h 1.4961805 v 2.92387 H 9.088155 v -2.92387 h 1.490912 v 7.74958 H 9.088155 v -3.39801 H 6.4961803 v 3.39801 H 4.9999998 Z"
         style="fill:#4c4c4c;fill-opacity:1;stroke-width:0.26973394"
         id="path1115" />
      <path
         d="m 12.343928,204.07569 h 4.230398 v 1.4435 h -2.765827 v 1.40135 h 2.765827 v 1.41716 h -2.765827 v 2.03881 h 2.765827 v 1.44876 h -4.230398 z"
         style="fill:#4c4c4c;fill-opacity:1;stroke-width:0.26973394"
         id="path1117" />
      <path
         d="m 20.968039,204.07569 h 1.490912 v 2.66573 l 2.102028,-2.66573 h 1.775398 l -2.707876,3.45596 2.971288,4.29362 h -1.749056 l -2.391782,-3.44016 v 3.44016 h -1.490912 z"
         style="fill:#4c4c4c;fill-opacity:1;stroke-width:0.26973394"
         id="path1119" />
      <path
         d="m 29.823952,210.05514 -2.750022,-5.97945 h 1.664764 l 1.822812,4.31996 1.49618,-4.31996 h 1.517254 l -2.065151,5.54219 q -0.532092,1.42242 -1.159013,1.9071 -0.621652,0.47941 -1.327597,0.47941 -1.148476,0 -2.117833,-1.1274 l 0.969357,-0.97463 q 0.579506,0.67434 1.143208,0.67434 0.252876,0 0.416191,-0.12117 0.163315,-0.12117 0.38985,-0.40039 z"
         style="fill:#4c4c4c;fill-opacity:1;stroke-width:0.26973394"
         id="path1121" />
      <path
         d="m 34.565368,204.07569 h 5.579068 v 7.74958 h -1.490912 v -6.3693 h -2.591975 v 6.3693 h -1.496181 z"
         style="fill:#4c4c4c;fill-opacity:1;stroke-width:0.26973394"
         id="path1123" />
      <path
         d="m 44.069277,210.05514 -2.750022,-5.97945 h 1.664764 l 1.822812,4.31996 1.49618,-4.31996 h 1.517254 l -2.065151,5.54219 q -0.532092,1.42242 -1.159013,1.9071 -0.621652,0.47941 -1.327597,0.47941 -1.148476,0 -2.117833,-1.1274 l 0.969357,-0.97463 q 0.579506,0.67434 1.143208,0.67434 0.252876,0 0.416191,-0.12117 0.163316,-0.12117 0.38985,-0.40039 z"
         style="fill:#4c4c4c;fill-opacity:1;stroke-width:0.26973394"
         id="path1125" />
      <path
         d="m 54.463515,204.07569 v 7.74958 h -1.475108 v -4.85205 l -2.892265,4.85205 h -1.28545 v -7.74958 h 1.475107 v 5.0101 l 2.934411,-5.0101 z M 49.542977,202 h 1.164281 q 0.136975,0.216 0.379314,0.32663 0.247607,0.10537 0.600579,0.10537 0.358241,0 0.647994,-0.12644 0.189657,-0.0843 0.331899,-0.30556 h 1.164282 q -0.100097,0.66907 -0.642726,1.07472 -0.53736,0.40566 -1.506717,0.40566 -0.653262,0 -1.095794,-0.17912 -0.437264,-0.18439 -0.705944,-0.52156 Q 49.611464,202.44253 49.542977,202 Z"
         style="fill:#4c4c4c;fill-opacity:1;stroke-width:0.26973394"
         id="path1127" />
      <path
         d="m 55.469751,204.07569 h 4.283081 v 1.45403 h -1.411889 v 6.29555 h -1.496181 v -6.29555 h -1.375011 z"
         style="fill:#4c4c4c;fill-opacity:1;stroke-width:0.26973394"
         id="path1129" />
      <path
         d="m 60.7696,204.07569 h 4.230398 v 1.4435 h -2.765827 v 1.40135 h 2.765827 v 1.41716 h -2.765827 v 2.03881 h 2.765827 v 1.44876 H 60.7696 Z"
         style="fill:#4c4c4c;fill-opacity:1;stroke-width:0.26973394"
         id="path1131" />
    </g>
    <g
       aria-label="Криптовалюти шкодять банківській системі і можуть ослабити державний апарат"
       style="font-style:normal;font-variant:normal;font-weight:bold;font-stretch:normal;font-size:4.23333311px;line-height:1.25;font-family:'Century Gothic';-inkscape-font-specification:'Century Gothic Bold';text-align:center;letter-spacing:0px;word-spacing:0px;text-anchor:middle;fill:#4c4c4c;fill-opacity:1;stroke:none;stroke-width:0.26458332"
       id="text1103">
      <path
         d="m 9.8888095,267.73725 h 0.5849775 v 1.04593 l 0.824755,-1.04593 h 0.696599 l -1.062468,1.35599 1.165821,1.68465 h -0.686263 l -0.938444,-1.34979 v 1.34979 H 9.8888095 Z"
         style="font-size:4.23333311px;text-align:center;text-anchor:middle;fill:#4c4c4c;fill-opacity:1;stroke-width:0.26458332"
         id="path1134" />
      <path
         d="m 13.012133,268.52893 v 0.24805 q 0.152962,-0.15296 0.330729,-0.22944 0.177767,-0.0765 0.380339,-0.0765 0.440283,0 0.748274,0.33279 0.307992,0.3328 0.307992,0.8537 0,0.50229 -0.318327,0.84129 -0.318327,0.33693 -0.754476,0.33693 -0.194303,0 -0.361735,-0.0682 -0.167431,-0.0703 -0.332796,-0.22738 v 1.0604 H 12.45196 v -3.07165 z m 0.593245,0.46303 q -0.26665,0 -0.44235,0.1819 -0.1757,0.1819 -0.1757,0.47542 0,0.29972 0.1757,0.48576 0.1757,0.18397 0.44235,0.18397 0.258383,0 0.434082,-0.18811 0.177767,-0.1881 0.177767,-0.47955 0,-0.28939 -0.173633,-0.47336 -0.173632,-0.18603 -0.438216,-0.18603 z"
         style="font-size:4.23333311px;text-align:center;text-anchor:middle;fill:#4c4c4c;fill-opacity:1;stroke-width:0.26458332"
         id="path1136" />
      <path
         d="m 15.544278,270.77789 h -0.299724 v -2.24896 h 0.549838 v 1.32085 l 1.15135,-1.32085 h 0.270785 v 2.24896 H 16.66669 v -1.29397 z"
         style="font-size:4.23333311px;text-align:center;text-anchor:middle;fill:#4c4c4c;fill-opacity:1;stroke-width:0.26458332"
         id="path1138" />
      <path
         d="m 18.349274,270.77789 h -0.566373 v -2.24896 h 1.971972 v 2.24896 H 19.1885 v -1.70532 h -0.839226 z"
         style="font-size:4.23333311px;text-align:center;text-anchor:middle;fill:#4c4c4c;fill-opacity:1;stroke-width:0.26458332"
         id="path1140" />
      <path
         d="m 20.12281,268.52893 h 2.095996 v 0.53744 h -0.746208 v 1.71152 h -0.566374 v -1.71152 H 20.12281 Z"
         style="font-size:4.23333311px;text-align:center;text-anchor:middle;fill:#4c4c4c;fill-opacity:1;stroke-width:0.26458332"
         id="path1142" />
      <path
         d="m 23.645076,268.47106 q 0.318326,0 0.597379,0.15916 0.28112,0.15916 0.438216,0.43202 0.157097,0.27285 0.157097,0.58911 0,0.31832 -0.159164,0.59531 -0.157096,0.27699 -0.429948,0.43408 -0.272851,0.15503 -0.601513,0.15503 -0.483692,0 -0.826823,-0.34313 -0.341065,-0.3452 -0.341065,-0.83716 0,-0.5271 0.38654,-0.8785 0.338997,-0.30592 0.779281,-0.30592 z m 0.0083,0.53123 q -0.262516,0 -0.438216,0.18397 -0.173633,0.1819 -0.173633,0.46715 0,0.29353 0.171566,0.47543 0.173632,0.1819 0.438216,0.1819 0.264583,0 0.440283,-0.18397 0.1757,-0.18397 0.1757,-0.47336 0,-0.28938 -0.173633,-0.46922 -0.171566,-0.1819 -0.440283,-0.1819 z"
         style="font-size:4.23333311px;text-align:center;text-anchor:middle;fill:#4c4c4c;fill-opacity:1;stroke-width:0.26458332"
         id="path1144" />
      <path
         d="m 25.300788,270.77789 v -2.24896 h 0.903304 q 0.444418,0 0.603581,0.1757 0.159163,0.17364 0.159163,0.39481 0,0.32866 -0.326595,0.47336 0.446485,0.15296 0.446485,0.57671 0,0.22944 -0.117823,0.38034 -0.117822,0.14882 -0.299723,0.19843 -0.179834,0.0496 -0.504362,0.0496 z m 0.566374,-1.36425 h 0.217041 q 0.138493,0 0.212907,-0.0682 0.07648,-0.0703 0.07648,-0.15503 0,-0.12609 -0.07235,-0.19637 -0.07235,-0.0703 -0.171566,-0.0703 l -0.07235,0.002 h -0.190169 z m 0,0.93017 h 0.283187 q 0.165364,0 0.23151,-0.0765 0.06821,-0.0786 0.06821,-0.15296 0,-0.10956 -0.07648,-0.20051 -0.07441,-0.091 -0.270785,-0.091 h -0.235644 z"
         style="font-size:4.23333311px;text-align:center;text-anchor:middle;fill:#4c4c4c;fill-opacity:1;stroke-width:0.26458332"
         id="path1146" />
      <path
         d="m 29.228196,268.52893 h 0.562239 v 2.24896 h -0.562239 v -0.23771 q -0.165365,0.1571 -0.332797,0.22738 -0.165364,0.0682 -0.359667,0.0682 -0.43615,0 -0.754476,-0.33693 -0.318327,-0.339 -0.318327,-0.84129 0,-0.5209 0.307991,-0.8537 0.307992,-0.33279 0.748275,-0.33279 0.202572,0 0.380339,0.0765 0.177766,0.0765 0.328662,0.22944 z m -0.593246,0.46303 q -0.262516,0 -0.436149,0.18603 -0.173633,0.18397 -0.173633,0.47336 0,0.29145 0.1757,0.47955 0.177767,0.18811 0.436149,0.18811 0.266651,0 0.442351,-0.18397 0.175699,-0.18604 0.175699,-0.48576 0,-0.29352 -0.175699,-0.47542 -0.1757,-0.1819 -0.444418,-0.1819 z"
         style="font-size:4.23333311px;text-align:center;text-anchor:middle;fill:#4c4c4c;fill-opacity:1;stroke-width:0.26458332"
         id="path1148" />
      <path
         d="m 32.370124,270.77789 h -0.574642 l -0.56224,-1.42007 -0.572575,1.42007 h -0.572574 l 0.959114,-2.24896 h 0.363802 z"
         style="font-size:4.23333311px;text-align:center;text-anchor:middle;fill:#4c4c4c;fill-opacity:1;stroke-width:0.26458332"
         id="path1150" />
      <path
         d="m 33.232086,270.77789 h -0.566374 v -2.24896 h 0.566374 v 0.89091 h 0.299723 q 0.103353,-0.44649 0.432015,-0.6966 0.330729,-0.25218 0.713135,-0.25218 0.494027,0 0.841292,0.34313 0.349333,0.34106 0.349333,0.83716 0,0.48576 -0.338998,0.83509 -0.338997,0.34933 -0.84956,0.34933 -0.40721,0 -0.733805,-0.25631 -0.324528,-0.25839 -0.413412,-0.64286 h -0.299723 z m 2.067057,-1.12448 q 0,-0.28938 -0.173633,-0.46922 -0.171565,-0.1819 -0.44235,-0.1819 -0.264583,0 -0.438216,0.1881 -0.171566,0.18604 -0.171566,0.46096 0,0.29559 0.171566,0.47749 0.173633,0.17983 0.438216,0.17983 0.260449,0 0.438216,-0.17983 0.177767,-0.1819 0.177767,-0.47543 z"
         style="font-size:4.23333311px;text-align:center;text-anchor:middle;fill:#4c4c4c;fill-opacity:1;stroke-width:0.26458332"
         id="path1152" />
      <path
         d="m 36.130101,268.52893 h 2.095996 v 0.53744 H 37.47989 v 1.71152 h -0.566374 v -1.71152 h -0.783415 z"
         style="font-size:4.23333311px;text-align:center;text-anchor:middle;fill:#4c4c4c;fill-opacity:1;stroke-width:0.26458332"
         id="path1154" />
      <path
         d="m 38.893755,270.77789 h -0.299723 v -2.24896 h 0.549837 v 1.32085 l 1.151351,-1.32085 h 0.270785 v 2.24896 h -0.549837 v -1.29397 z"
         style="font-size:4.23333311px;text-align:center;text-anchor:middle;fill:#4c4c4c;fill-opacity:1;stroke-width:0.26458332"
         id="path1156" />
      <path
         d="m 45.560017,270.77789 h -3.24528 v -2.24896 h 0.566374 v 1.70739 h 0.773079 v -1.70739 h 0.566374 v 1.70739 h 0.775146 v -1.70739 h 0.564307 z"
         style="font-size:4.23333311px;text-align:center;text-anchor:middle;fill:#4c4c4c;fill-opacity:1;stroke-width:0.26458332"
         id="path1158" />
      <path
         d="m 46.128457,268.52893 h 0.564307 v 0.8413 l 0.777214,-0.8413 h 0.68833 l -1.002523,1.09555 1.014925,1.15341 h -0.748275 l -0.669726,-0.79375 -0.05995,0.0703 v 0.72347 h -0.564307 z"
         style="font-size:4.23333311px;text-align:center;text-anchor:middle;fill:#4c4c4c;fill-opacity:1;stroke-width:0.26458332"
         id="path1160" />
      <path
         d="m 49.458485,268.47106 q 0.318327,0 0.59738,0.15916 0.28112,0.15916 0.438216,0.43202 0.157096,0.27285 0.157096,0.58911 0,0.31832 -0.159163,0.59531 -0.157096,0.27699 -0.429948,0.43408 -0.272851,0.15503 -0.601514,0.15503 -0.483691,0 -0.826822,-0.34313 -0.341065,-0.3452 -0.341065,-0.83716 0,-0.5271 0.38654,-0.8785 0.338997,-0.30592 0.77928,-0.30592 z m 0.0083,0.53123 q -0.262517,0 -0.438216,0.18397 -0.173633,0.1819 -0.173633,0.46715 0,0.29353 0.171565,0.47543 0.173633,0.1819 0.438217,0.1819 0.264583,0 0.440283,-0.18397 0.1757,-0.18397 0.1757,-0.47336 0,-0.28938 -0.173633,-0.46922 -0.171566,-0.1819 -0.440283,-0.1819 z"
         style="font-size:4.23333311px;text-align:center;text-anchor:middle;fill:#4c4c4c;fill-opacity:1;stroke-width:0.26458332"
         id="path1162" />
      <path
         d="m 51.405653,270.77789 v 0.39068 h -0.502295 v -0.86817 h 0.338998 l 0.775146,-1.77147 h 0.363802 l 0.785482,1.77147 h 0.345198 v 0.86817 H 52.97455 v -0.39068 z m 1.161686,-0.47749 -0.367936,-0.94671 -0.380338,0.94671 z"
         style="font-size:4.23333311px;text-align:center;text-anchor:middle;fill:#4c4c4c;fill-opacity:1;stroke-width:0.26458332"
         id="path1164" />
      <path
         d="m 54.249922,269.85599 q -0.181901,-0.06 -0.299723,-0.22531 -0.115755,-0.16744 -0.115755,-0.37621 0,-0.25011 0.142627,-0.43821 0.142627,-0.18811 0.338997,-0.23772 0.198438,-0.0496 0.61805,-0.0496 h 0.570508 v 2.24896 h -0.566373 v -0.81442 h -0.109555 l -0.535367,0.81442 h -0.66766 z m 0.688331,-0.31626 v -0.53951 h -0.196371 q -0.320394,0 -0.320394,0.26872 0,0.27079 0.357601,0.27079 z"
         style="font-size:4.23333311px;text-align:center;text-anchor:middle;fill:#4c4c4c;fill-opacity:1;stroke-width:0.26458332"
         id="path1166" />
      <path
         d="m 55.874631,268.52893 h 2.095996 v 0.53744 h -0.746208 v 1.71152 h -0.566373 v -1.71152 h -0.783415 z"
         style="font-size:4.23333311px;text-align:center;text-anchor:middle;fill:#4c4c4c;fill-opacity:1;stroke-width:0.26458332"
         id="path1168" />
      <path
         d="m 58.904938,269.33922 h 0.167431 q 0.353467,0 0.541569,0.0558 0.190169,0.0537 0.320394,0.22738 0.130225,0.17363 0.130225,0.43615 0,0.26045 -0.117823,0.43408 -0.117822,0.17156 -0.30179,0.22944 -0.181901,0.0558 -0.51263,0.0558 h -0.79375 v -2.24896 h 0.566374 z m 0,1.00459 h 0.171565 q 0.152962,0 0.221175,-0.0207 0.06821,-0.0227 0.11989,-0.0848 0.05168,-0.062 0.05168,-0.15089 0,-0.28939 -0.330729,-0.28939 h -0.233577 z"
         style="font-size:4.23333311px;text-align:center;text-anchor:middle;fill:#4c4c4c;fill-opacity:1;stroke-width:0.26458332"
         id="path1170" />
      <path
         d="m 15.90808,272.90489 v 0.53331 q -0.241846,0.0269 -0.469222,0.0289 -0.413411,0.004 -0.622184,0.0372 -0.208773,0.031 -0.367936,0.14883 -0.159164,0.11575 -0.22531,0.26872 -0.06615,0.15089 -0.08061,0.43615 0.243913,-0.58498 0.837158,-0.58498 0.436149,0 0.754476,0.32039 0.320394,0.31833 0.320394,0.82269 0,0.5209 -0.343131,0.8661 -0.343132,0.3452 -0.847494,0.3452 -0.411344,0 -0.725537,-0.25218 -0.312126,-0.25218 -0.401009,-0.59945 -0.08888,-0.34933 -0.08888,-0.74414 0,-0.50643 0.12609,-0.82269 0.12609,-0.31833 0.330729,-0.47749 0.206706,-0.15916 0.47749,-0.21291 0.270785,-0.0537 0.795817,-0.0765 0.355534,-0.0165 0.529167,-0.0372 z m -0.423747,2.04019 q 0,-0.28112 -0.169498,-0.46509 -0.167432,-0.18603 -0.444418,-0.18603 -0.264583,0 -0.438216,0.18603 -0.173633,0.18604 -0.173633,0.46509 0,0.29352 0.171566,0.47542 0.173633,0.17984 0.438216,0.17984 0.260449,0 0.438216,-0.17984 0.177767,-0.1819 0.177767,-0.47542 z m -1.265039,1.10381 z"
         style="font-size:4.23333311px;text-align:center;text-anchor:middle;fill:#4c4c4c;fill-opacity:1;stroke-width:0.26458332"
         id="path1172" />
      <path
         d="m 18.181843,273.8206 h 0.562239 v 2.24896 h -0.562239 v -0.23771 q -0.165365,0.15709 -0.332796,0.22737 -0.165365,0.0682 -0.359668,0.0682 -0.436149,0 -0.754476,-0.33693 -0.318327,-0.339 -0.318327,-0.8413 0,-0.52089 0.307992,-0.85369 0.307991,-0.3328 0.748274,-0.3328 0.202572,0 0.380339,0.0765 0.177767,0.0765 0.328662,0.22945 z m -0.593246,0.46302 q -0.262516,0 -0.436149,0.18604 -0.173632,0.18397 -0.173632,0.47335 0,0.29146 0.175699,0.47956 0.177767,0.1881 0.43615,0.1881 0.26665,0 0.44235,-0.18397 0.1757,-0.18603 0.1757,-0.48575 0,-0.29353 -0.1757,-0.47543 -0.1757,-0.1819 -0.444418,-0.1819 z"
         style="font-size:4.23333311px;text-align:center;text-anchor:middle;fill:#4c4c4c;fill-opacity:1;stroke-width:0.26458332"
         id="path1174" />
      <path
         d="m 19.878897,274.63089 h 0.839225 v -0.81029 h 0.566374 v 2.24896 h -0.566374 v -0.93224 h -0.839225 v 0.93224 h -0.566374 v -2.24896 h 0.566374 z"
         style="font-size:4.23333311px;text-align:center;text-anchor:middle;fill:#4c4c4c;fill-opacity:1;stroke-width:0.26458332"
         id="path1176" />
      <path
         d="m 21.852936,273.8206 h 0.564307 v 0.84129 l 0.777214,-0.84129 h 0.68833 l -1.002523,1.09554 1.014925,1.15342 h -0.748275 l -0.669726,-0.79375 -0.05995,0.0703 v 0.72347 h -0.564307 z"
         style="font-size:4.23333311px;text-align:center;text-anchor:middle;fill:#4c4c4c;fill-opacity:1;stroke-width:0.26458332"
         id="path1178" />
      <path
         d="m 24.347874,272.89456 q 0.148828,0 0.254248,0.10749 0.107487,0.10748 0.107487,0.26045 0,0.15089 -0.10542,0.25838 -0.10542,0.10542 -0.252181,0.10542 -0.150895,0 -0.258382,-0.10749 -0.10542,-0.10955 -0.10542,-0.26458 0,-0.14883 0.10542,-0.25425 0.10542,-0.10542 0.254248,-0.10542 z m -0.283187,0.92604 h 0.566374 v 2.24896 h -0.566374 z"
         style="font-size:4.23333311px;text-align:center;text-anchor:middle;fill:#4c4c4c;fill-opacity:1;stroke-width:0.26458332"
         id="path1180" />
      <path
         d="m 25.143692,276.06956 v -2.24896 h 0.903304 q 0.444417,0 0.60358,0.1757 0.159164,0.17363 0.159164,0.39481 0,0.32866 -0.326595,0.47336 0.446484,0.15296 0.446484,0.5767 0,0.22945 -0.117822,0.38034 -0.117822,0.14883 -0.299723,0.19844 -0.179834,0.0496 -0.504362,0.0496 z m 0.566373,-1.36426 h 0.217041 q 0.138493,0 0.212907,-0.0682 0.07648,-0.0703 0.07648,-0.15503 0,-0.12609 -0.07235,-0.19637 -0.07235,-0.0703 -0.171565,-0.0703 l -0.07235,0.002 h -0.19017 z m 0,0.93018 h 0.283187 q 0.165365,0 0.231511,-0.0765 0.06821,-0.0786 0.06821,-0.15297 0,-0.10955 -0.07648,-0.2005 -0.07441,-0.091 -0.270784,-0.091 h -0.235645 z"
         style="font-size:4.23333311px;text-align:center;text-anchor:middle;fill:#4c4c4c;fill-opacity:1;stroke-width:0.26458332"
         id="path1182" />
      <path
         d="m 29.610602,274.27535 -0.469222,0.25839 q -0.132292,-0.1385 -0.262516,-0.19224 -0.128158,-0.0537 -0.301791,-0.0537 -0.316259,0 -0.51263,0.19017 -0.194303,0.1881 -0.194303,0.48369 0,0.28732 0.188102,0.46922 0.188102,0.1819 0.494027,0.1819 0.378271,0 0.589111,-0.25838 l 0.444417,0.30386 q -0.361735,0.46922 -1.021126,0.46922 -0.593245,0 -0.930176,-0.3514 -0.334863,-0.3514 -0.334863,-0.82269 0,-0.3266 0.163298,-0.60152 0.163297,-0.27491 0.454752,-0.43201 0.293522,-0.1571 0.655257,-0.1571 0.334864,0 0.601514,0.13436 0.26665,0.13229 0.436149,0.37827 z"
         style="font-size:4.23333311px;text-align:center;text-anchor:middle;fill:#4c4c4c;fill-opacity:1;stroke-width:0.26458332"
         id="path1184" />
      <path
         d="m 30.685471,274.63089 h 0.167431 q 0.353467,0 0.541569,0.0558 0.19017,0.0537 0.320394,0.22737 0.130225,0.17364 0.130225,0.43615 0,0.26045 -0.117823,0.43409 -0.117822,0.17156 -0.30179,0.22944 -0.181901,0.0558 -0.51263,0.0558 h -0.79375 v -2.24896 h 0.566374 z m 0,1.00459 h 0.171565 q 0.152963,0 0.221176,-0.0207 0.06821,-0.0227 0.119889,-0.0847 0.05168,-0.062 0.05168,-0.1509 0,-0.28939 -0.330729,-0.28939 h -0.233577 z"
         style="font-size:4.23333311px;text-align:center;text-anchor:middle;fill:#4c4c4c;fill-opacity:1;stroke-width:0.26458332"
         id="path1186" />
      <path
         d="m 32.279173,273.8206 h 0.564306 v 0.84129 l 0.777214,-0.84129 h 0.68833 l -1.002523,1.09554 1.014925,1.15342 H 33.57315 l -0.669726,-0.79375 -0.05994,0.0703 v 0.72347 h -0.564306 z"
         style="font-size:4.23333311px;text-align:center;text-anchor:middle;fill:#4c4c4c;fill-opacity:1;stroke-width:0.26458332"
         id="path1188" />
      <path
         d="m 34.774111,272.89456 q 0.148829,0 0.254248,0.10749 0.107487,0.10748 0.107487,0.26045 0,0.15089 -0.10542,0.25838 -0.105419,0.10542 -0.252181,0.10542 -0.150895,0 -0.258382,-0.10749 -0.10542,-0.10955 -0.10542,-0.26458 0,-0.14883 0.10542,-0.25425 0.10542,-0.10542 0.254248,-0.10542 z m -0.283186,0.92604 h 0.566373 v 2.24896 h -0.566373 z"
         style="font-size:4.23333311px;text-align:center;text-anchor:middle;fill:#4c4c4c;fill-opacity:1;stroke-width:0.26458332"
         id="path1190" />
      <path
         d="M 35.867583,276.06956 H 35.56786 v -2.24896 h 0.549837 v 1.32085 l 1.151351,-1.32085 h 0.270784 v 2.24896 h -0.549837 v -1.29398 z m -0.134359,-3.24115 h 0.45682 q 0.05374,0.0847 0.148828,0.12816 0.09715,0.0413 0.235645,0.0413 0.14056,0 0.254248,-0.0496 0.07441,-0.0331 0.130224,-0.11989 h 0.45682 q -0.03927,0.26252 -0.252181,0.42168 -0.21084,0.15917 -0.591178,0.15917 -0.256315,0 -0.429948,-0.0703 -0.171566,-0.0723 -0.276986,-0.20464 -0.10542,-0.13229 -0.132292,-0.30593 z"
         style="font-size:4.23333311px;text-align:center;text-anchor:middle;fill:#4c4c4c;fill-opacity:1;stroke-width:0.26458332"
         id="path1192" />
      <path
         d="m 41.492046,274.27535 -0.469222,0.25839 q -0.132292,-0.1385 -0.262516,-0.19224 -0.128158,-0.0537 -0.301791,-0.0537 -0.316259,0 -0.51263,0.19017 -0.194303,0.1881 -0.194303,0.48369 0,0.28732 0.188102,0.46922 0.188102,0.1819 0.494027,0.1819 0.378271,0 0.589111,-0.25838 l 0.444417,0.30386 q -0.361735,0.46922 -1.021126,0.46922 -0.593245,0 -0.930176,-0.3514 -0.334863,-0.3514 -0.334863,-0.82269 0,-0.3266 0.163298,-0.60152 0.163297,-0.27491 0.454752,-0.43201 0.293522,-0.1571 0.655257,-0.1571 0.334864,0 0.601514,0.13436 0.26665,0.13229 0.436149,0.37827 z"
         style="font-size:4.23333311px;text-align:center;text-anchor:middle;fill:#4c4c4c;fill-opacity:1;stroke-width:0.26458332"
         id="path1194" />
      <path
         d="m 42.300265,276.06956 h -0.299723 v -2.24896 h 0.549837 v 1.32085 l 1.151351,-1.32085 h 0.270784 v 2.24896 h -0.549837 v -1.29398 z"
         style="font-size:4.23333311px;text-align:center;text-anchor:middle;fill:#4c4c4c;fill-opacity:1;stroke-width:0.26458332"
         id="path1196" />
      <path
         d="m 46.742372,274.27535 -0.469222,0.25839 q -0.132292,-0.1385 -0.262516,-0.19224 -0.128158,-0.0537 -0.30179,-0.0537 -0.31626,0 -0.512631,0.19017 -0.194303,0.1881 -0.194303,0.48369 0,0.28732 0.188102,0.46922 0.188102,0.1819 0.494027,0.1819 0.378271,0 0.589111,-0.25838 l 0.444417,0.30386 q -0.361735,0.46922 -1.021126,0.46922 -0.593245,0 -0.930176,-0.3514 -0.334863,-0.3514 -0.334863,-0.82269 0,-0.3266 0.163298,-0.60152 0.163297,-0.27491 0.454752,-0.43201 0.293522,-0.1571 0.655257,-0.1571 0.334864,0 0.601514,0.13436 0.26665,0.13229 0.436149,0.37827 z"
         style="font-size:4.23333311px;text-align:center;text-anchor:middle;fill:#4c4c4c;fill-opacity:1;stroke-width:0.26458332"
         id="path1198" />
      <path
         d="m 47.052431,273.8206 h 2.095996 v 0.53744 h -0.746208 v 1.71152 h -0.566374 v -1.71152 h -0.783414 z"
         style="font-size:4.23333311px;text-align:center;text-anchor:middle;fill:#4c4c4c;fill-opacity:1;stroke-width:0.26458332"
         id="path1200" />
      <path
         d="m 51.771523,275.10838 h -1.812809 q 0.03927,0.23978 0.208772,0.3824 0.171566,0.14056 0.436149,0.14056 0.31626,0 0.543636,-0.22117 l 0.475424,0.22324 q -0.177767,0.25218 -0.425814,0.37414 -0.248047,0.11989 -0.589111,0.11989 -0.529167,0 -0.861963,-0.3328 -0.332796,-0.33486 -0.332796,-0.83716 0,-0.51469 0.330729,-0.85369 0.332796,-0.34107 0.833024,-0.34107 0.531233,0 0.86403,0.34107 0.332796,0.339 0.332796,0.8971 z m -0.566374,-0.44442 q -0.05581,-0.1881 -0.221175,-0.30592 -0.163298,-0.11783 -0.380339,-0.11783 -0.235644,0 -0.413411,0.1323 -0.111621,0.0827 -0.206706,0.29145 z"
         style="font-size:4.23333311px;text-align:center;text-anchor:middle;fill:#4c4c4c;fill-opacity:1;stroke-width:0.26458332"
         id="path1202" />
      <path
         d="m 53.607069,275.2386 0.690398,-1.418 h 0.37207 l 0.562239,2.24896 h -0.551904 l -0.299723,-1.31878 -0.669727,1.31878 h -0.23151 l -0.655257,-1.31878 -0.301791,1.31878 h -0.549837 l 0.56224,-2.24896 h 0.37207 z"
         style="font-size:4.23333311px;text-align:center;text-anchor:middle;fill:#4c4c4c;fill-opacity:1;stroke-width:0.26458332"
         id="path1204" />
      <path
         d="m 55.767144,272.89456 q 0.148828,0 0.254248,0.10749 0.107487,0.10748 0.107487,0.26045 0,0.15089 -0.10542,0.25838 -0.10542,0.10542 -0.252181,0.10542 -0.150895,0 -0.258382,-0.10749 -0.10542,-0.10955 -0.10542,-0.26458 0,-0.14883 0.10542,-0.25425 0.10542,-0.10542 0.254248,-0.10542 z m -0.283187,0.92604 h 0.566374 v 2.24896 h -0.566374 z"
         style="font-size:4.23333311px;text-align:center;text-anchor:middle;fill:#4c4c4c;fill-opacity:1;stroke-width:0.26458332"
         id="path1206" />
      <path
         d="m 15.215616,278.18623 q 0.148828,0 0.254248,0.10748 0.107487,0.10749 0.107487,0.26045 0,0.1509 -0.10542,0.25838 -0.10542,0.10542 -0.252181,0.10542 -0.150895,0 -0.258382,-0.10748 -0.10542,-0.10956 -0.10542,-0.26459 0,-0.14882 0.10542,-0.25424 0.10542,-0.10542 0.254248,-0.10542 z m -0.283187,0.92604 h 0.566374 v 2.24896 h -0.566374 z"
         style="font-size:4.23333311px;text-align:center;text-anchor:middle;fill:#4c4c4c;fill-opacity:1;stroke-width:0.26458332"
         id="path1208" />
      <path
         d="m 18.57045,280.53027 0.690397,-1.418 h 0.37207 l 0.56224,2.24896 h -0.551905 l -0.299723,-1.31879 -0.669726,1.31879 h -0.231511 l -0.655257,-1.31879 -0.30179,1.31879 h -0.549837 l 0.562239,-2.24896 h 0.37207 z"
         style="font-size:4.23333311px;text-align:center;text-anchor:middle;fill:#4c4c4c;fill-opacity:1;stroke-width:0.26458332"
         id="path1210" />
      <path
         d="m 21.565615,279.05439 q 0.318327,0 0.59738,0.15916 0.28112,0.15917 0.438216,0.43202 0.157096,0.27285 0.157096,0.58911 0,0.31833 -0.159163,0.59531 -0.157096,0.27699 -0.429948,0.43408 -0.272852,0.15503 -0.601514,0.15503 -0.483691,0 -0.826823,-0.34313 -0.341064,-0.3452 -0.341064,-0.83716 0,-0.5271 0.38654,-0.8785 0.338997,-0.30592 0.77928,-0.30592 z m 0.0083,0.53123 q -0.262517,0 -0.438217,0.18397 -0.173632,0.1819 -0.173632,0.46716 0,0.29352 0.171565,0.47542 0.173633,0.1819 0.438216,0.1819 0.264584,0 0.440284,-0.18397 0.175699,-0.18397 0.175699,-0.47335 0,-0.28939 -0.173632,-0.46923 -0.171566,-0.1819 -0.440283,-0.1819 z"
         style="font-size:4.23333311px;text-align:center;text-anchor:middle;fill:#4c4c4c;fill-opacity:1;stroke-width:0.26458332"
         id="path1212" />
      <path
         d="m 24.360277,280.63776 -0.05994,-0.0703 -0.669726,0.79375 h -0.748275 l 1.014925,-1.15342 -1.002523,-1.09554 h 0.68833 l 0.777214,0.84129 v -0.84129 h 0.564307 v 0.84129 l 0.775146,-0.84129 h 0.690397 l -1.002523,1.09554 1.014925,1.15342 h -0.748274 l -0.669727,-0.79375 -0.05994,0.0703 v 0.72347 h -0.564307 z"
         style="font-size:4.23333311px;text-align:center;text-anchor:middle;fill:#4c4c4c;fill-opacity:1;stroke-width:0.26458332"
         id="path1214" />
      <path
         d="m 26.385992,279.11227 h 0.576709 l 0.584977,1.4118 0.644922,-1.4118 h 0.578776 l -1.409733,3.07164 h -0.58291 l 0.463021,-0.99012 z"
         style="font-size:4.23333311px;text-align:center;text-anchor:middle;fill:#4c4c4c;fill-opacity:1;stroke-width:0.26458332"
         id="path1216" />
      <path
         d="m 28.891266,279.11227 h 2.095996 v 0.53743 h -0.746207 v 1.71153 h -0.566374 v -1.71153 h -0.783415 z"
         style="font-size:4.23333311px;text-align:center;text-anchor:middle;fill:#4c4c4c;fill-opacity:1;stroke-width:0.26458332"
         id="path1218" />
      <path
         d="m 31.921571,279.92255 h 0.167431 q 0.353467,0 0.541569,0.0558 0.19017,0.0537 0.320394,0.22738 0.130225,0.17363 0.130225,0.43615 0,0.26045 -0.117822,0.43408 -0.117823,0.17157 -0.301791,0.22945 -0.181901,0.0558 -0.51263,0.0558 h -0.79375 v -2.24896 h 0.566374 z m 0,1.00459 h 0.171566 q 0.152962,0 0.221175,-0.0207 0.06821,-0.0227 0.119889,-0.0847 0.05168,-0.062 0.05168,-0.15089 0,-0.28939 -0.330729,-0.28939 h -0.233577 z"
         style="font-size:4.23333311px;text-align:center;text-anchor:middle;fill:#4c4c4c;fill-opacity:1;stroke-width:0.26458332"
         id="path1220" />
      <path
         d="m 35.753895,279.05439 q 0.318327,0 0.597379,0.15916 0.28112,0.15917 0.438217,0.43202 0.157096,0.27285 0.157096,0.58911 0,0.31833 -0.159164,0.59531 -0.157096,0.27699 -0.429947,0.43408 -0.272852,0.15503 -0.601514,0.15503 -0.483691,0 -0.826823,-0.34313 -0.341064,-0.3452 -0.341064,-0.83716 0,-0.5271 0.386539,-0.8785 0.338998,-0.30592 0.779281,-0.30592 z m 0.0083,0.53123 q -0.262516,0 -0.438216,0.18397 -0.173633,0.1819 -0.173633,0.46716 0,0.29352 0.171566,0.47542 0.173633,0.1819 0.438216,0.1819 0.264583,0 0.440283,-0.18397 0.1757,-0.18397 0.1757,-0.47335 0,-0.28939 -0.173633,-0.46923 -0.171565,-0.1819 -0.440283,-0.1819 z"
         style="font-size:4.23333311px;text-align:center;text-anchor:middle;fill:#4c4c4c;fill-opacity:1;stroke-width:0.26458332"
         id="path1222" />
      <path
         d="m 39.611023,279.56702 -0.469221,0.25838 q -0.132292,-0.13849 -0.262517,-0.19223 -0.128157,-0.0537 -0.30179,-0.0537 -0.31626,0 -0.51263,0.19017 -0.194304,0.1881 -0.194304,0.48369 0,0.28732 0.188103,0.46923 0.188102,0.1819 0.494026,0.1819 0.378272,0 0.589112,-0.25839 l 0.444417,0.30386 q -0.361735,0.46922 -1.021126,0.46922 -0.593246,0 -0.930176,-0.3514 -0.334863,-0.3514 -0.334863,-0.82269 0,-0.32659 0.163297,-0.60151 0.163298,-0.27492 0.454753,-0.43201 0.293522,-0.1571 0.655257,-0.1571 0.334863,0 0.601513,0.13436 0.266651,0.13229 0.436149,0.37827 z"
         style="font-size:4.23333311px;text-align:center;text-anchor:middle;fill:#4c4c4c;fill-opacity:1;stroke-width:0.26458332"
         id="path1224" />
      <path
         d="m 42.130766,281.36123 h -0.574642 l -0.562239,-1.42007 -0.572575,1.42007 h -0.572575 l 0.959114,-2.24896 h 0.363803 z"
         style="font-size:4.23333311px;text-align:center;text-anchor:middle;fill:#4c4c4c;fill-opacity:1;stroke-width:0.26458332"
         id="path1226" />
      <path
         d="m 44.090338,279.11227 h 0.562239 v 2.24896 h -0.562239 v -0.23772 q -0.165365,0.1571 -0.332797,0.22738 -0.165364,0.0682 -0.359668,0.0682 -0.436149,0 -0.754475,-0.33693 -0.318327,-0.33899 -0.318327,-0.84129 0,-0.5209 0.307991,-0.85369 0.307992,-0.3328 0.748275,-0.3328 0.202572,0 0.380338,0.0765 0.177767,0.0765 0.328663,0.22944 z m -0.593246,0.46302 q -0.262516,0 -0.436149,0.18603 -0.173633,0.18397 -0.173633,0.47336 0,0.29145 0.1757,0.47956 0.177767,0.1881 0.436149,0.1881 0.266651,0 0.44235,-0.18397 0.1757,-0.18603 0.1757,-0.48576 0,-0.29352 -0.1757,-0.47542 -0.175699,-0.1819 -0.444417,-0.1819 z"
         style="font-size:4.23333311px;text-align:center;text-anchor:middle;fill:#4c4c4c;fill-opacity:1;stroke-width:0.26458332"
         id="path1228" />
      <path
         d="m 47.372824,278.19656 v 0.5333 q -0.241846,0.0269 -0.469222,0.0289 -0.413412,0.004 -0.622185,0.0372 -0.208772,0.031 -0.367936,0.14883 -0.159163,0.11575 -0.225309,0.26871 -0.06615,0.1509 -0.08062,0.43615 0.243913,-0.58497 0.837158,-0.58497 0.436149,0 0.754476,0.32039 0.320394,0.31833 0.320394,0.82269 0,0.5209 -0.343132,0.86609 -0.343131,0.3452 -0.847493,0.3452 -0.411345,0 -0.725537,-0.25218 -0.312126,-0.25218 -0.401009,-0.59944 -0.08888,-0.34934 -0.08888,-0.74414 0,-0.50643 0.126091,-0.82269 0.12609,-0.31833 0.330729,-0.47749 0.206705,-0.15917 0.47749,-0.21291 0.270784,-0.0537 0.795817,-0.0765 0.355534,-0.0165 0.529167,-0.0372 z m -0.423747,2.04019 q 0,-0.28112 -0.169499,-0.46509 -0.167431,-0.18604 -0.444417,-0.18604 -0.264583,0 -0.438216,0.18604 -0.173633,0.18603 -0.173633,0.46509 0,0.29352 0.171566,0.47542 0.173633,0.17983 0.438216,0.17983 0.260449,0 0.438216,-0.17983 0.177767,-0.1819 0.177767,-0.47542 z m -1.265039,1.10381 z"
         style="font-size:4.23333311px;text-align:center;text-anchor:middle;fill:#4c4c4c;fill-opacity:1;stroke-width:0.26458332"
         id="path1230" />
      <path
         d="m 48.282328,281.36123 h -0.299724 v -2.24896 h 0.549837 v 1.32085 l 1.151351,-1.32085 h 0.270785 v 2.24896 H 49.40474 v -1.29398 z"
         style="font-size:4.23333311px;text-align:center;text-anchor:middle;fill:#4c4c4c;fill-opacity:1;stroke-width:0.26458332"
         id="path1232" />
      <path
         d="m 50.322516,279.11227 h 2.095996 v 0.53743 h -0.746208 v 1.71153 h -0.566373 v -1.71153 h -0.783415 z"
         style="font-size:4.23333311px;text-align:center;text-anchor:middle;fill:#4c4c4c;fill-opacity:1;stroke-width:0.26458332"
         id="path1234" />
      <path
         d="m 53.086168,281.36123 h -0.299723 v -2.24896 h 0.549837 v 1.32085 l 1.151351,-1.32085 h 0.270784 v 2.24896 H 54.20858 v -1.29398 z"
         style="font-size:4.23333311px;text-align:center;text-anchor:middle;fill:#4c4c4c;fill-opacity:1;stroke-width:0.26458332"
         id="path1236" />
      <path
         d="m 14.694717,286.65289 v 0.39068 h -0.502294 v -0.86817 h 0.338997 l 0.775146,-1.77147 h 0.363802 l 0.785482,1.77147 h 0.345199 v 0.86817 h -0.537435 v -0.39068 z m 1.161687,-0.47749 -0.367937,-0.94671 -0.380338,0.94671 z"
         style="font-size:4.23333311px;text-align:center;text-anchor:middle;fill:#4c4c4c;fill-opacity:1;stroke-width:0.26458332"
         id="path1238" />
      <path
         d="m 19.409675,285.69171 h -1.812809 q 0.03927,0.23978 0.208773,0.38241 0.171565,0.14056 0.436149,0.14056 0.316259,0 0.543636,-0.22118 l 0.475423,0.22324 q -0.177767,0.25218 -0.425814,0.37414 -0.248047,0.11989 -0.589111,0.11989 -0.529167,0 -0.861963,-0.3328 -0.332796,-0.33486 -0.332796,-0.83715 0,-0.5147 0.330729,-0.8537 0.332796,-0.34106 0.833024,-0.34106 0.531234,0 0.86403,0.34106 0.332796,0.339 0.332796,0.8971 z m -0.566374,-0.44442 q -0.05581,-0.1881 -0.221175,-0.30592 -0.163297,-0.11782 -0.380338,-0.11782 -0.235645,0 -0.413412,0.13229 -0.111621,0.0827 -0.206706,0.29145 z"
         style="font-size:4.23333311px;text-align:center;text-anchor:middle;fill:#4c4c4c;fill-opacity:1;stroke-width:0.26458332"
         id="path1240" />
      <path
         d="m 20.428734,284.40393 v 0.24805 q 0.152962,-0.15296 0.330729,-0.22944 0.177767,-0.0765 0.380339,-0.0765 0.440283,0 0.748274,0.33279 0.307992,0.3328 0.307992,0.8537 0,0.50229 -0.318327,0.84129 -0.318327,0.33693 -0.754476,0.33693 -0.194303,0 -0.361735,-0.0682 -0.167431,-0.0703 -0.332796,-0.22738 v 1.0604 h -0.560172 v -3.07165 z m 0.593245,0.46302 q -0.26665,0 -0.44235,0.18191 -0.1757,0.1819 -0.1757,0.47542 0,0.29972 0.1757,0.48576 0.1757,0.18397 0.44235,0.18397 0.258383,0 0.434082,-0.18811 0.177767,-0.1881 0.177767,-0.47955 0,-0.28939 -0.173632,-0.47336 -0.173633,-0.18604 -0.438217,-0.18604 z"
         style="font-size:4.23333311px;text-align:center;text-anchor:middle;fill:#4c4c4c;fill-opacity:1;stroke-width:0.26458332"
         id="path1242" />
      <path
         d="m 23.802171,285.92942 -0.05995,-0.0703 -0.669726,0.79375 h -0.748275 l 1.014925,-1.15342 -1.002522,-1.09554 h 0.68833 l 0.777213,0.8413 v -0.8413 h 0.564307 v 0.8413 l 0.775146,-0.8413 h 0.690397 l -1.002523,1.09554 1.014926,1.15342 h -0.748275 l -0.669727,-0.79375 -0.05994,0.0703 v 0.72347 h -0.564307 z"
         style="font-size:4.23333311px;text-align:center;text-anchor:middle;fill:#4c4c4c;fill-opacity:1;stroke-width:0.26458332"
         id="path1244" />
      <path
         d="m 27.739915,284.40393 h 0.56224 v 2.24896 h -0.56224 v -0.23771 q -0.165364,0.1571 -0.332796,0.22738 -0.165365,0.0682 -0.359668,0.0682 -0.436149,0 -0.754476,-0.33693 -0.318327,-0.339 -0.318327,-0.84129 0,-0.5209 0.307992,-0.8537 0.307991,-0.33279 0.748275,-0.33279 0.202571,0 0.380338,0.0765 0.177767,0.0765 0.328662,0.22944 z m -0.593245,0.46302 q -0.262516,0 -0.436149,0.18604 -0.173633,0.18397 -0.173633,0.47336 0,0.29145 0.1757,0.47955 0.177767,0.18811 0.436149,0.18811 0.26665,0 0.44235,-0.18397 0.1757,-0.18604 0.1757,-0.48576 0,-0.29352 -0.1757,-0.47542 -0.1757,-0.18191 -0.444417,-0.18191 z"
         style="font-size:4.23333311px;text-align:center;text-anchor:middle;fill:#4c4c4c;fill-opacity:1;stroke-width:0.26458332"
         id="path1246" />
      <path
         d="m 28.872663,286.65289 v -2.24896 h 0.903304 q 0.444417,0 0.60358,0.1757 0.159164,0.17364 0.159164,0.39481 0,0.32866 -0.326595,0.47336 0.446484,0.15296 0.446484,0.57671 0,0.22944 -0.117822,0.38034 -0.117822,0.14882 -0.299723,0.19843 -0.179834,0.0496 -0.504362,0.0496 z m 0.566373,-1.36426 h 0.217041 q 0.138493,0 0.212907,-0.0682 0.07648,-0.0703 0.07648,-0.15503 0,-0.12609 -0.07235,-0.19637 -0.07235,-0.0703 -0.171565,-0.0703 l -0.07235,0.002 h -0.19017 z m 0,0.93018 h 0.283187 q 0.165365,0 0.231511,-0.0765 0.06821,-0.0786 0.06821,-0.15296 0,-0.10956 -0.07648,-0.20051 -0.07441,-0.091 -0.270784,-0.091 h -0.235645 z"
         style="font-size:4.23333311px;text-align:center;text-anchor:middle;fill:#4c4c4c;fill-opacity:1;stroke-width:0.26458332"
         id="path1248" />
      <path
         d="m 31.702463,285.21422 h 0.839225 v -0.81029 h 0.566374 v 2.24896 h -0.566374 v -0.93224 h -0.839225 v 0.93224 h -0.566374 v -2.24896 h 0.566374 z"
         style="font-size:4.23333311px;text-align:center;text-anchor:middle;fill:#4c4c4c;fill-opacity:1;stroke-width:0.26458332"
         id="path1250" />
      <path
         d="m 33.97416,286.65289 h -0.299724 v -2.24896 h 0.549838 v 1.32085 l 1.15135,-1.32085 h 0.270785 v 2.24896 h -0.549837 v -1.29398 z"
         style="font-size:4.23333311px;text-align:center;text-anchor:middle;fill:#4c4c4c;fill-opacity:1;stroke-width:0.26458332"
         id="path1252" />
      <path
         d="m 36.512507,286.65289 h -0.299723 v -2.24896 h 0.549837 v 1.32085 l 1.151351,-1.32085 h 0.270784 v 2.24896 h -0.549837 v -1.29398 z m -0.134359,-3.24114 h 0.45682 q 0.05374,0.0848 0.148828,0.12815 0.09715,0.0414 0.235644,0.0414 0.14056,0 0.254248,-0.0496 0.07441,-0.0331 0.130225,-0.11989 h 0.45682 q -0.03927,0.26251 -0.252181,0.42168 -0.21084,0.15916 -0.591179,0.15916 -0.256315,0 -0.429947,-0.0703 -0.171566,-0.0723 -0.276986,-0.20464 -0.10542,-0.13229 -0.132292,-0.30592 z"
         style="font-size:4.23333311px;text-align:center;text-anchor:middle;fill:#4c4c4c;fill-opacity:1;stroke-width:0.26458332"
         id="path1254" />
      <path
         d="m 41.597466,284.40393 h 0.562239 v 2.24896 h -0.562239 v -0.23771 q -0.165365,0.1571 -0.332796,0.22738 -0.165365,0.0682 -0.359668,0.0682 -0.436149,0 -0.754476,-0.33693 -0.318327,-0.339 -0.318327,-0.84129 0,-0.5209 0.307992,-0.8537 0.307991,-0.33279 0.748274,-0.33279 0.202572,0 0.380339,0.0765 0.177767,0.0765 0.328662,0.22944 z m -0.593246,0.46302 q -0.262516,0 -0.436149,0.18604 -0.173632,0.18397 -0.173632,0.47336 0,0.29145 0.175699,0.47955 0.177767,0.18811 0.43615,0.18811 0.26665,0 0.44235,-0.18397 0.1757,-0.18604 0.1757,-0.48576 0,-0.29352 -0.1757,-0.47542 -0.1757,-0.18191 -0.444418,-0.18191 z"
         style="font-size:4.23333311px;text-align:center;text-anchor:middle;fill:#4c4c4c;fill-opacity:1;stroke-width:0.26458332"
         id="path1256" />
      <path
         d="m 43.294521,286.65289 h -0.566374 v -2.24896 h 1.971973 v 2.24896 h -0.566374 v -1.70532 h -0.839225 z"
         style="font-size:4.23333311px;text-align:center;text-anchor:middle;fill:#4c4c4c;fill-opacity:1;stroke-width:0.26458332"
         id="path1258" />
      <path
         d="m 46.930474,284.40393 h 0.562239 v 2.24896 h -0.562239 v -0.23771 q -0.165365,0.1571 -0.332797,0.22738 -0.165364,0.0682 -0.359667,0.0682 -0.43615,0 -0.754476,-0.33693 -0.318327,-0.339 -0.318327,-0.84129 0,-0.5209 0.307991,-0.8537 0.307992,-0.33279 0.748275,-0.33279 0.202572,0 0.380339,0.0765 0.177767,0.0765 0.328662,0.22944 z m -0.593246,0.46302 q -0.262516,0 -0.436149,0.18604 -0.173633,0.18397 -0.173633,0.47336 0,0.29145 0.1757,0.47955 0.177767,0.18811 0.436149,0.18811 0.266651,0 0.442351,-0.18397 0.175699,-0.18604 0.175699,-0.48576 0,-0.29352 -0.175699,-0.47542 -0.1757,-0.18191 -0.444418,-0.18191 z"
         style="font-size:4.23333311px;text-align:center;text-anchor:middle;fill:#4c4c4c;fill-opacity:1;stroke-width:0.26458332"
         id="path1260" />
      <path
         d="m 48.623393,284.40393 v 0.24805 q 0.152962,-0.15296 0.330729,-0.22944 0.177767,-0.0765 0.380338,-0.0765 0.440284,0 0.748275,0.33279 0.307992,0.3328 0.307992,0.8537 0,0.50229 -0.318327,0.84129 -0.318327,0.33693 -0.754476,0.33693 -0.194303,0 -0.361735,-0.0682 -0.167432,-0.0703 -0.332796,-0.22738 v 1.0604 H 48.06322 v -3.07165 z m 0.593245,0.46302 q -0.26665,0 -0.44235,0.18191 -0.1757,0.1819 -0.1757,0.47542 0,0.29972 0.1757,0.48576 0.1757,0.18397 0.44235,0.18397 0.258382,0 0.434082,-0.18811 0.177767,-0.1881 0.177767,-0.47955 0,-0.28939 -0.173633,-0.47336 -0.173632,-0.18604 -0.438216,-0.18604 z"
         style="font-size:4.23333311px;text-align:center;text-anchor:middle;fill:#4c4c4c;fill-opacity:1;stroke-width:0.26458332"
         id="path1262" />
      <path
         d="m 52.519797,284.40393 h 0.562239 v 2.24896 h -0.562239 v -0.23771 q -0.165365,0.1571 -0.332796,0.22738 -0.165365,0.0682 -0.359668,0.0682 -0.436149,0 -0.754476,-0.33693 -0.318327,-0.339 -0.318327,-0.84129 0,-0.5209 0.307991,-0.8537 0.307992,-0.33279 0.748275,-0.33279 0.202572,0 0.380339,0.0765 0.177767,0.0765 0.328662,0.22944 z m -0.593246,0.46302 q -0.262516,0 -0.436149,0.18604 -0.173633,0.18397 -0.173633,0.47336 0,0.29145 0.1757,0.47955 0.177767,0.18811 0.436149,0.18811 0.266651,0 0.442351,-0.18397 0.175699,-0.18604 0.175699,-0.48576 0,-0.29352 -0.175699,-0.47542 -0.1757,-0.18191 -0.444418,-0.18191 z"
         style="font-size:4.23333311px;text-align:center;text-anchor:middle;fill:#4c4c4c;fill-opacity:1;stroke-width:0.26458332"
         id="path1264" />
      <path
         d="m 53.452041,284.40393 h 2.095996 v 0.53744 h -0.746208 v 1.71152 h -0.566374 v -1.71152 h -0.783414 z"
         style="font-size:4.23333311px;text-align:center;text-anchor:middle;fill:#4c4c4c;fill-opacity:1;stroke-width:0.26458332"
         id="path1266" />
    </g>
  </g>
</svg>
