<?xml version="1.0" encoding="UTF-8" standalone="no"?>
<!-- Created with Inkscape (http://www.inkscape.org/) -->

<svg
   xmlns:dc="http://purl.org/dc/elements/1.1/"
   xmlns:cc="http://creativecommons.org/ns#"
   xmlns:rdf="http://www.w3.org/1999/02/22-rdf-syntax-ns#"
   xmlns:svg="http://www.w3.org/2000/svg"
   xmlns="http://www.w3.org/2000/svg"
   xmlns:xlink="http://www.w3.org/1999/xlink"
   xmlns:sodipodi="http://sodipodi.sourceforge.net/DTD/sodipodi-0.dtd"
   xmlns:inkscape="http://www.inkscape.org/namespaces/inkscape"
   width="70mm"
   height="100mm"
   viewBox="0 0 70 100"
   version="1.1"
   id="svg8"
   inkscape:version="0.92.2 5c3e80d, 2017-08-06"
   sodipodi:docname="sticker.pt.svg"
   inkscape:export-filename="/home/emes/doc/dontbuymonero-sticker/sticker.pl.png"
   inkscape:export-xdpi="300"
   inkscape:export-ydpi="300">
  <defs
     id="defs2" />
  <sodipodi:namedview
     id="base"
     pagecolor="#ffffff"
     bordercolor="#666666"
     borderopacity="1.0"
     inkscape:pageopacity="0.0"
     inkscape:pageshadow="2"
     inkscape:zoom="1.979899"
     inkscape:cx="84.032648"
     inkscape:cy="146.70522"
     inkscape:document-units="mm"
     inkscape:current-layer="layer1"
     showgrid="false"
     showguides="true"
     inkscape:guide-bbox="true"
     inkscape:snap-to-guides="true"
     inkscape:snap-grids="true"
     inkscape:snap-page="true"
     inkscape:snap-bbox="true"
     inkscape:bbox-nodes="true"
     inkscape:bbox-paths="true"
     inkscape:window-width="1920"
     inkscape:window-height="1136"
     inkscape:window-x="0"
     inkscape:window-y="747"
     inkscape:window-maximized="1"
     inkscape:pagecheckerboard="true">
    <sodipodi:guide
       position="5,91.472997"
       orientation="1,0"
       id="guide889"
       inkscape:locked="false"
       inkscape:label=""
       inkscape:color="rgb(0,0,255)" />
    <sodipodi:guide
       position="65,88.533032"
       orientation="1,0"
       id="guide891"
       inkscape:locked="false"
       inkscape:label=""
       inkscape:color="rgb(0,0,255)" />
    <sodipodi:guide
       position="28.86511,95"
       orientation="0,1"
       id="guide893"
       inkscape:locked="false"
       inkscape:label=""
       inkscape:color="rgb(0,0,255)" />
    <sodipodi:guide
       position="36.348657,5"
       orientation="0,1"
       id="guide895"
       inkscape:locked="false"
       inkscape:label=""
       inkscape:color="rgb(0,0,255)" />
    <sodipodi:guide
       position="8,36.74956"
       orientation="1,0"
       id="guide1093"
       inkscape:locked="false"
       inkscape:label=""
       inkscape:color="rgb(0,0,255)" />
    <sodipodi:guide
       position="62,37.685003"
       orientation="1,0"
       id="guide1095"
       inkscape:locked="false"
       inkscape:label=""
       inkscape:color="rgb(0,0,255)" />
  </sodipodi:namedview>
  <metadata
     id="metadata5">
    <rdf:RDF>
      <cc:Work
         rdf:about="">
        <dc:format>image/svg+xml</dc:format>
        <dc:type
           rdf:resource="http://purl.org/dc/dcmitype/StillImage" />
        <dc:title></dc:title>
      </cc:Work>
    </rdf:RDF>
  </metadata>
  <g
     inkscape:label="Layer 1"
     inkscape:groupmode="layer"
     id="layer1"
     transform="translate(0,-197)">
    <rect
       style="fill:#ffffff;fill-opacity:1;stroke:none;stroke-width:1;stroke-linecap:square;stroke-miterlimit:4;stroke-dasharray:none;stroke-opacity:1"
       id="rect858"
       width="70"
       height="100"
       x="0"
       y="197" />
    <g
       id="g875"
       transform="translate(-2.0000006,5.4790253)"
       inkscape:export-xdpi="352.57999"
       inkscape:export-ydpi="352.57999">
      <g
         transform="matrix(1.3011002,0,0,1.3011002,16.420217,-75.468301)"
         id="g915">
        <path
           inkscape:connector-curvature="0"
           d="m 15.817084,222.05063 c -5.391414,0 -9.7639184,4.37197 -9.7639184,9.76365 0,1.07791 0.174625,2.11455 0.4974166,3.08425 h 2.9199417 v -8.21505 l 6.3465601,6.34656 6.346561,-6.34656 v 8.21505 h 2.920206 c 0.322791,-0.9697 0.497416,-2.00634 0.497416,-3.08425 0,-5.39168 -4.372504,-9.76365 -9.764183,-9.76365"
           id="path22"
           style="fill:#ff6600;stroke-width:0.26458332" />
        <path
           inkscape:connector-curvature="0"
           d="m 11.58809,231.71921 v 5.16917 H 7.4738193 c 1.7139708,2.81199 4.8095957,4.69 8.3431057,4.69 3.533511,0 6.6294,-1.87801 8.343107,-4.69 h -4.114007 v -5.16917 l -4.2291,4.2291 z"
           id="path26"
           style="fill:#4c4c4c;stroke-width:0.26458332" />
      </g>
      <g
         transform="matrix(0.88274719,0,0,0.88274719,-10.947117,38.872224)"
         id="g911">
        <path
           inkscape:connector-curvature="0"
           d="m 78.102302,234.59405 c -0.516202,0.53154 -1.142206,0.79639 -1.878277,0.79639 -0.650346,0 -1.225285,-0.20426 -1.728523,-0.61489 -0.646906,-0.52361 -0.969962,-1.23666 -0.969962,-2.13889 0,-0.80778 0.257175,-1.47532 0.771525,-1.99919 0.512497,-0.52573 1.14591,-0.78687 1.900766,-0.78687 0.745331,0 1.379008,0.26881 1.898915,0.80565 0.522023,0.53711 0.782902,1.1938 0.782902,1.97088 0,0.7792 -0.258763,1.43352 -0.777346,1.96692 m 1.083998,-5.01042 c -0.828675,-0.8337 -1.81954,-1.25174 -2.973388,-1.25174 -0.760412,0 -1.471347,0.19129 -2.129366,0.57308 -0.6604,0.38206 -1.178719,0.90012 -1.554956,1.5547 -0.376503,0.65431 -0.565415,1.37133 -0.565415,2.15026 0,1.16338 0.404548,2.16747 1.214437,3.01334 0.809096,0.8472 1.825096,1.26895 3.046413,1.26895 1.167077,0 2.160323,-0.41037 2.979208,-1.23508 0.818886,-0.82285 1.227402,-1.83065 1.227402,-3.02048 0,-1.19936 -0.414337,-2.21668 -1.244335,-3.05303"
           id="path30"
           style="fill:#4c4c4c;stroke-width:0.26458332" />
        <path
           inkscape:connector-curvature="0"
           d="m 69,231.47434 c -0.196585,0.13706 -0.289454,0.20453 -0.809625,0.20453 h -2.046816 v -1.75102 h 1.983316 c 0.397669,0 0.468048,0.0299 0.631032,0.0913 0.162454,0.0595 0.29157,0.15902 0.388937,0.29581 0.09737,0.13705 0.144992,0.29977 0.144992,0.4863 0,0.3138 -0.09737,0.53817 -0.291836,0.6731 m 0.246063,1.61211 c 0.542131,-0.19473 0.94906,-0.48048 1.218935,-0.85752 0.27014,-0.37914 0.403225,-0.84798 0.403225,-1.41155 0,-0.53419 -0.120914,-0.9988 -0.365389,-1.38985 -0.244211,-0.39106 -0.567796,-0.67099 -0.96864,-0.83979 -0.401108,-0.16881 -1.074208,-0.254 -2.021152,-0.254 h -2.997464 v 8.55662 h 1.627981 v -3.6232 h 1.420812 l 1.926167,3.6232 h 1.780646 z"
           id="path34"
           style="fill:#4c4c4c;stroke-width:0.26458332" />
        <path
           inkscape:connector-curvature="0"
           d="m 57.217787,228.33189 h 5.547783 v 1.59411 h -3.929591 v 1.75128 h 3.929591 v 1.56633 h -3.929591 v 2.0447 h 3.929591 v 1.60047 h -5.547783 z"
           id="path38"
           style="fill:#4c4c4c;stroke-width:0.26458332" />
        <path
           inkscape:connector-curvature="0"
           d="m 48.621925,228.33189 h 1.55866 l 3.670829,5.63033 v -5.63033 h 1.627981 v 8.55662 h -1.564481 l -3.665008,-5.61234 v 5.61234 h -1.627981 z"
           id="path42"
           style="fill:#4c4c4c;stroke-width:0.26458332" />
        <use
           transform="translate(-33.088422,-1.0786894e-6)"
           id="use46"
           x="0"
           y="0"
           width="282"
           height="75"
           xlink:href="#path30" />
        <path
           inkscape:connector-curvature="0"
           d="m 29.678129,228.33165 h 1.594114 l 1.977231,5.9682 2.007394,-5.9682 h 1.570302 l 1.441715,8.55689 h -1.570567 l -0.919162,-5.40412 -1.820598,5.40412 h -1.435629 l -1.796521,-5.40412 -0.937154,5.40412 H 28.20096 Z"
           id="path50"
           style="fill:#4c4c4c;stroke-width:0.26458332" />
      </g>
    </g>
    <flowRoot
       xml:space="preserve"
       id="flowRoot840"
       style="font-style:normal;font-weight:normal;font-size:26.66666603px;line-height:1.25;font-family:sans-serif;letter-spacing:0px;word-spacing:0px;fill:#000000;fill-opacity:1;stroke:none"><flowRegion
         id="flowRegion842"><rect
           id="rect844"
           width="77.781746"
           height="47.477169"
           x="239.40616"
           y="264.52042" /></flowRegion><flowPara
         id="flowPara846" /></flowRoot>    <flowRoot
       xml:space="preserve"
       id="flowRoot866"
       style="font-style:normal;font-variant:normal;font-weight:bold;font-stretch:normal;font-size:16px;line-height:1.25;font-family:'Century Gothic';-inkscape-font-specification:'Century Gothic Bold';text-align:center;letter-spacing:0px;word-spacing:0px;text-anchor:middle;fill:#000000;fill-opacity:1;stroke:none"
       transform="matrix(0.26458333,0,0,0.26458333,0,192)"><flowRegion
         id="flowRegion868"
         style="font-size:16px"><rect
           id="rect870"
           width="241.88977"
           height="148.28261"
           x="18.897638"
           y="229.67015"
           style="font-size:16px" /></flowRegion><flowPara
         id="flowPara872" /></flowRoot>    <flowRoot
       xml:space="preserve"
       id="flowRoot874"
       style="font-style:normal;font-variant:normal;font-weight:bold;font-stretch:normal;font-size:26.66666603px;line-height:1.25;font-family:'Century Gothic';-inkscape-font-specification:'Century Gothic Bold';text-align:center;letter-spacing:0px;word-spacing:0px;text-anchor:middle;fill:#000000;fill-opacity:1;stroke:none"><flowRegion
         id="flowRegion876"><rect
           id="rect878"
           width="241.88977"
           height="148.28261"
           x="18.897638"
           y="229.67015" /></flowRegion><flowPara
         id="flowPara880" /></flowRoot>    <g
       id="g861">
      <path
         inkscape:connector-curvature="0"
         id="rect861"
         d="M 5,263.0024 V 263.44051 292 h 60 v -28.9976 z m 0.874399,0.8744 h 58.251202 v 27.24879 H 5.874399 Z"
         style="color:#000000;font-style:normal;font-variant:normal;font-weight:normal;font-stretch:normal;font-size:medium;line-height:normal;font-family:sans-serif;font-variant-ligatures:normal;font-variant-position:normal;font-variant-caps:normal;font-variant-numeric:normal;font-variant-alternates:normal;font-feature-settings:normal;text-indent:0;text-align:start;text-decoration:none;text-decoration-line:none;text-decoration-style:solid;text-decoration-color:#000000;letter-spacing:normal;word-spacing:normal;text-transform:none;writing-mode:lr-tb;direction:ltr;text-orientation:mixed;dominant-baseline:auto;baseline-shift:baseline;text-anchor:start;white-space:normal;shape-padding:0;clip-rule:nonzero;display:inline;overflow:visible;visibility:visible;opacity:1;isolation:auto;mix-blend-mode:normal;color-interpolation:sRGB;color-interpolation-filters:linearRGB;solid-color:#000000;solid-opacity:1;vector-effect:none;fill:#4c4c4c;fill-opacity:1;fill-rule:nonzero;stroke:none;stroke-width:0.87388474;stroke-linecap:square;stroke-linejoin:miter;stroke-miterlimit:4;stroke-dasharray:none;stroke-dashoffset:0;stroke-opacity:1;color-rendering:auto;image-rendering:auto;shape-rendering:auto;text-rendering:auto;enable-background:accumulate" />
    </g>
    <g
       aria-label="Las criptomonedas son dañinas para el sistema bancario y pueden debilitar el aparato del estado"
       transform="matrix(0.26458333,0,0,0.26458333,-0.75748281,197.40091)"
       style="font-style:normal;font-variant:normal;font-weight:bold;font-stretch:normal;font-size:16px;line-height:1.25;font-family:'Century Gothic';-inkscape-font-specification:'Century Gothic Bold';text-align:center;letter-spacing:0px;word-spacing:0px;text-anchor:middle;fill:#4c4c4c;fill-opacity:1;stroke:none"
       id="flowRoot1097">
      <path
         d="m 54.508462,264.26102 h 2.005208 v 8.6224 h 2.921875 v 1.91211 h -4.927083 z"
         style="font-size:14.66666698px;fill:#4c4c4c;fill-opacity:1"
         id="path1274" />
      <path
         d="m 66.496743,267.00386 h 1.947917 v 7.79167 h -1.947917 v -0.82357 q -0.572917,0.54427 -1.152995,0.78776 -0.572916,0.23633 -1.246093,0.23633 -1.511068,0 -2.613933,-1.16732 -1.102864,-1.17448 -1.102864,-2.91472 0,-1.80468 1.067057,-2.95768 1.067057,-1.15299 2.592448,-1.15299 0.701823,0 1.317708,0.26497 0.615886,0.26498 1.138672,0.79492 z m -2.055338,1.60416 q -0.909506,0 -1.511068,0.64454 -0.601563,0.63737 -0.601563,1.63997 0,1.00977 0.608724,1.66146 0.615886,0.65169 1.511068,0.65169 0.923828,0 1.532552,-0.63737 0.608724,-0.64453 0.608724,-1.68294 0,-1.01693 -0.608724,-1.64714 -0.608724,-0.63021 -1.539713,-0.63021 z"
         style="font-size:14.66666698px;fill:#4c4c4c;fill-opacity:1"
         id="path1276" />
      <path
         d="m 75.190755,268.0924 -1.210287,1.21029 q -0.73763,-0.73047 -1.339192,-0.73047 -0.329427,0 -0.515625,0.14323 -0.186198,0.13606 -0.186198,0.34375 0,0.15755 0.114583,0.29362 0.121745,0.1289 0.58724,0.35807 l 0.716145,0.35807 q 1.131511,0.5586 1.554037,1.13867 0.422526,0.58008 0.422526,1.36068 0,1.03841 -0.766276,1.73307 -0.759115,0.69467 -2.041016,0.69467 -1.704427,0 -2.721354,-1.33204 l 1.203125,-1.31054 q 0.34375,0.40104 0.802083,0.65169 0.465495,0.24349 0.823568,0.24349 0.386719,0 0.623047,-0.1862 0.236328,-0.1862 0.236328,-0.42969 0,-0.45117 -0.852213,-0.88085 l -0.658855,-0.32943 q -1.890625,-0.95248 -1.890625,-2.38477 0,-0.92383 0.708985,-1.57552 0.716146,-0.65885 1.826172,-0.65885 0.759114,0 1.42513,0.33659 0.673177,0.32942 1.138672,0.95247 z"
         style="font-size:14.66666698px;fill:#4c4c4c;fill-opacity:1"
         id="path1278" />
      <path
         d="m 88.589843,268.57938 -1.625651,0.89518 q -0.458334,-0.47982 -0.909506,-0.66601 -0.44401,-0.1862 -1.045572,-0.1862 -1.095704,0 -1.776042,0.65885 -0.673177,0.65169 -0.673177,1.67578 0,0.99545 0.651692,1.62565 0.651693,0.63021 1.711589,0.63021 1.310547,0 2.041016,-0.89518 l 1.539713,1.05273 q -1.253255,1.62566 -3.53776,1.62566 -2.055339,0 -3.222657,-1.21745 -1.160156,-1.21745 -1.160156,-2.85026 0,-1.13151 0.565755,-2.08399 0.565756,-0.95247 1.575521,-1.49674 1.016927,-0.54427 2.270183,-0.54427 1.160156,0 2.083984,0.46549 0.923828,0.45834 1.511068,1.31055 z"
         style="font-size:14.66666698px;fill:#4c4c4c;fill-opacity:1"
         id="path1280" />
      <path
         d="m 89.90039,267.00386 h 1.675781 v 0.98112 q 0.272136,-0.58008 0.723308,-0.88086 0.451172,-0.30078 0.988281,-0.30078 0.379557,0 0.794922,0.20052 l -0.608724,1.68294 q -0.34375,-0.17187 -0.565755,-0.17187 -0.451172,0 -0.766276,0.55859 -0.307943,0.55859 -0.307943,2.19141 l 0.0072,0.37955 v 3.15105 H 89.90039 Z"
         style="font-size:14.66666698px;fill:#4c4c4c;fill-opacity:1"
         id="path1282" />
      <path
         d="m 95.822917,263.79552 q 0.515625,0 0.88086,0.3724 0.372396,0.3724 0.372396,0.90234 0,0.52279 -0.365235,0.89519 -0.365234,0.36523 -0.873698,0.36523 -0.522786,0 -0.895182,-0.37239 -0.365234,-0.37956 -0.365234,-0.91667 0,-0.51563 0.365234,-0.88086 0.365234,-0.36524 0.880859,-0.36524 z m -0.981119,3.20834 h 1.962239 v 7.79167 h -1.962239 z"
         style="font-size:14.66666698px;fill:#4c4c4c;fill-opacity:1"
         id="path1284" />
      <path
         d="m 100.52083,267.00386 v 0.85937 q 0.52995,-0.52994 1.14584,-0.79492 0.61588,-0.26497 1.31771,-0.26497 1.52539,0 2.59244,1.15299 1.06706,1.153 1.06706,2.95768 0,1.74024 -1.10286,2.91472 -1.10287,1.16732 -2.61394,1.16732 -0.67317,0 -1.25325,-0.23633 -0.58008,-0.24349 -1.153,-0.78776 v 3.67383 h -1.940751 v -10.64193 z m 2.05534,1.60416 q -0.92383,0 -1.53255,0.63021 -0.60872,0.63021 -0.60872,1.64714 0,1.03841 0.60872,1.68294 0.60872,0.63737 1.53255,0.63737 0.89519,0 1.50391,-0.65169 0.61588,-0.65169 0.61588,-1.66146 0,-1.0026 -0.60156,-1.63997 -0.60156,-0.64454 -1.51823,-0.64454 z"
         style="font-size:14.66666698px;fill:#4c4c4c;fill-opacity:1"
         id="path1286" />
      <path
         d="m 108.4987,264.13211 h 1.94791 v 2.87175 h 1.16016 v 1.68294 h -1.16016 v 6.10873 h -1.94791 v -6.10873 h -1.00261 v -1.68294 h 1.00261 z"
         style="font-size:14.66666698px;fill:#4c4c4c;fill-opacity:1"
         id="path1288" />
      <path
         d="m 116.33333,266.80334 q 1.10287,0 2.06967,0.55143 0.97395,0.55143 1.51822,1.49674 0.54428,0.94532 0.54428,2.04102 0,1.10286 -0.55144,2.0625 -0.54427,0.95964 -1.48958,1.50391 -0.94531,0.53711 -2.08398,0.53711 -1.67579,0 -2.86459,-1.18881 -1.18164,-1.19596 -1.18164,-2.90039 0,-1.82617 1.33919,-3.04362 1.17448,-1.05989 2.69987,-1.05989 z m 0.0286,1.84049 q -0.90951,0 -1.51823,0.63737 -0.60156,0.63021 -0.60156,1.61849 0,1.01693 0.5944,1.64714 0.60156,0.63021 1.51823,0.63021 0.91667,0 1.52539,-0.63737 0.60872,-0.63737 0.60872,-1.63998 0,-1.0026 -0.60156,-1.62565 -0.5944,-0.63021 -1.52539,-0.63021 z"
         style="font-size:14.66666698px;fill:#4c4c4c;fill-opacity:1"
         id="path1290" />
      <path
         d="m 122.05534,267.00386 h 1.96224 v 0.89518 q 0.5013,-0.55143 1.11003,-0.82357 0.61588,-0.27213 1.33919,-0.27213 0.73047,0 1.31771,0.35807 0.58724,0.35807 0.94531,1.04557 0.4655,-0.6875 1.13867,-1.04557 0.68034,-0.35807 1.48242,-0.35807 0.83073,0 1.46094,0.38672 0.63021,0.38671 0.90235,1.00976 0.27929,0.62305 0.27929,2.02669 v 4.56902 h -1.9694 v -3.95313 q 0,-1.32487 -0.32942,-1.79036 -0.32943,-0.47266 -0.98829,-0.47266 -0.5013,0 -0.90234,0.28646 -0.39388,0.28646 -0.58724,0.79492 -0.19336,0.5013 -0.19336,1.61849 v 3.51628 h -1.9694 v -3.77409 q 0,-1.04558 -0.15755,-1.51107 -0.15039,-0.47266 -0.45834,-0.70182 -0.30794,-0.22917 -0.74479,-0.22917 -0.48698,0 -0.88802,0.29362 -0.39388,0.28646 -0.5944,0.80924 -0.19336,0.52279 -0.19336,1.64714 v 3.46615 h -1.96224 z"
         style="font-size:14.66666698px;fill:#4c4c4c;fill-opacity:1"
         id="path1292" />
      <path
         d="m 139.50781,266.80334 q 1.10287,0 2.06966,0.55143 0.97396,0.55143 1.51823,1.49674 0.54427,0.94532 0.54427,2.04102 0,1.10286 -0.55143,2.0625 -0.54427,0.95964 -1.48958,1.50391 -0.94532,0.53711 -2.08399,0.53711 -1.67578,0 -2.86458,-1.18881 -1.18164,-1.19596 -1.18164,-2.90039 0,-1.82617 1.33919,-3.04362 1.17448,-1.05989 2.69987,-1.05989 z m 0.0286,1.84049 q -0.90951,0 -1.51823,0.63737 -0.60157,0.63021 -0.60157,1.61849 0,1.01693 0.59441,1.64714 0.60156,0.63021 1.51823,0.63021 0.91666,0 1.52539,-0.63737 0.60872,-0.63737 0.60872,-1.63998 0,-1.0026 -0.60156,-1.62565 -0.5944,-0.63021 -1.52539,-0.63021 z"
         style="font-size:14.66666698px;fill:#4c4c4c;fill-opacity:1"
         id="path1294" />
      <path
         d="m 145.24414,267.00386 h 1.94792 v 0.79492 q 0.66601,-0.55859 1.20312,-0.77344 0.54427,-0.222 1.11003,-0.222 1.16016,0 1.9694,0.80924 0.68034,0.6875 0.68034,2.03386 v 5.14909 h -1.93359 v -3.41602 q 0,-1.39648 -0.12891,-1.85482 -0.12175,-0.45833 -0.43685,-0.69466 -0.30794,-0.24349 -0.76628,-0.24349 -0.5944,0 -1.02408,0.40104 -0.42253,0.39388 -0.58724,1.09571 -0.0859,0.36523 -0.0859,1.58268 v 3.12956 h -1.94792 z"
         style="font-size:14.66666698px;fill:#4c4c4c;fill-opacity:1"
         id="path1296" />
      <path
         d="m 161.8444,271.46545 h -6.28059 q 0.13606,0.83073 0.7233,1.32487 0.5944,0.48698 1.51107,0.48698 1.0957,0 1.88346,-0.76628 l 1.64714,0.77344 q -0.61589,0.8737 -1.47526,1.29622 -0.85938,0.41537 -2.04102,0.41537 -1.83333,0 -2.98632,-1.153 -1.153,-1.16016 -1.153,-2.90039 0,-1.7832 1.14583,-2.95768 1.153,-1.18164 2.88607,-1.18164 1.8405,0 2.99349,1.18164 1.153,1.17448 1.153,3.10807 z m -1.96224,-1.53972 q -0.19335,-0.65169 -0.76627,-1.05989 -0.56576,-0.40821 -1.31771,-0.40821 -0.81641,0 -1.43229,0.45834 -0.38672,0.28646 -0.71615,1.00976 z"
         style="font-size:14.66666698px;fill:#4c4c4c;fill-opacity:1"
         id="path1298" />
      <path
         d="m 169.19206,263.99605 h 1.94792 v 10.79948 h -1.94792 v -0.82357 q -0.57291,0.54427 -1.15299,0.78776 -0.57292,0.23633 -1.2461,0.23633 -1.51106,0 -2.61393,-1.16732 -1.10286,-1.17448 -1.10286,-2.91472 0,-1.80468 1.06706,-2.95768 1.06705,-1.15299 2.59244,-1.15299 0.70183,0 1.31771,0.26497 0.61589,0.26498 1.13867,0.79492 z m -2.05534,4.61197 q -0.9095,0 -1.51106,0.64454 -0.60157,0.63737 -0.60157,1.63997 0,1.00977 0.60873,1.66146 0.61588,0.65169 1.51107,0.65169 0.92382,0 1.53255,-0.63737 0.60872,-0.64453 0.60872,-1.68294 0,-1.01693 -0.60872,-1.64714 -0.60873,-0.63021 -1.53972,-0.63021 z"
         style="font-size:14.66666698px;fill:#4c4c4c;fill-opacity:1"
         id="path1300" />
      <path
         d="m 178.87435,267.00386 h 1.94792 v 7.79167 h -1.94792 v -0.82357 q -0.57291,0.54427 -1.15299,0.78776 -0.57292,0.23633 -1.2461,0.23633 -1.51106,0 -2.61393,-1.16732 -1.10286,-1.17448 -1.10286,-2.91472 0,-1.80468 1.06705,-2.95768 1.06706,-1.15299 2.59245,-1.15299 0.70183,0 1.31771,0.26497 0.61589,0.26498 1.13867,0.79492 z m -2.05534,1.60416 q -0.9095,0 -1.51106,0.64454 -0.60157,0.63737 -0.60157,1.63997 0,1.00977 0.60873,1.66146 0.61588,0.65169 1.51107,0.65169 0.92382,0 1.53255,-0.63737 0.60872,-0.64453 0.60872,-1.68294 0,-1.01693 -0.60872,-1.64714 -0.60873,-0.63021 -1.53972,-0.63021 z"
         style="font-size:14.66666698px;fill:#4c4c4c;fill-opacity:1"
         id="path1302" />
      <path
         d="m 187.56837,268.0924 -1.21029,1.21029 q -0.73763,-0.73047 -1.33919,-0.73047 -0.32943,0 -0.51563,0.14323 -0.18619,0.13606 -0.18619,0.34375 0,0.15755 0.11458,0.29362 0.12174,0.1289 0.58724,0.35807 l 0.71614,0.35807 q 1.13151,0.5586 1.55404,1.13867 0.42253,0.58008 0.42253,1.36068 0,1.03841 -0.76628,1.73307 -0.75911,0.69467 -2.04101,0.69467 -1.70443,0 -2.72136,-1.33204 l 1.20313,-1.31054 q 0.34375,0.40104 0.80208,0.65169 0.46549,0.24349 0.82357,0.24349 0.38672,0 0.62304,-0.1862 0.23633,-0.1862 0.23633,-0.42969 0,-0.45117 -0.85221,-0.88085 l -0.65886,-0.32943 q -1.89062,-0.95248 -1.89062,-2.38477 0,-0.92383 0.70898,-1.57552 0.71615,-0.65885 1.82618,-0.65885 0.75911,0 1.42513,0.33659 0.67317,0.32942 1.13867,0.95247 z"
         style="font-size:14.66666698px;fill:#4c4c4c;fill-opacity:1"
         id="path1304" />
      <path
         d="m 198.11002,268.0924 -1.21028,1.21029 q -0.73763,-0.73047 -1.33919,-0.73047 -0.32943,0 -0.51563,0.14323 -0.1862,0.13606 -0.1862,0.34375 0,0.15755 0.11459,0.29362 0.12174,0.1289 0.58724,0.35807 l 0.71614,0.35807 q 1.13151,0.5586 1.55404,1.13867 0.42252,0.58008 0.42252,1.36068 0,1.03841 -0.76627,1.73307 -0.75912,0.69467 -2.04102,0.69467 -1.70443,0 -2.72135,-1.33204 l 1.20312,-1.31054 q 0.34375,0.40104 0.80209,0.65169 0.46549,0.24349 0.82356,0.24349 0.38672,0 0.62305,-0.1862 0.23633,-0.1862 0.23633,-0.42969 0,-0.45117 -0.85221,-0.88085 l -0.65886,-0.32943 q -1.89062,-0.95248 -1.89062,-2.38477 0,-0.92383 0.70898,-1.57552 0.71615,-0.65885 1.82617,-0.65885 0.75912,0 1.42513,0.33659 0.67318,0.32942 1.13867,0.95247 z"
         style="font-size:14.66666698px;fill:#4c4c4c;fill-opacity:1"
         id="path1306" />
      <path
         d="m 203.44531,266.80334 q 1.10287,0 2.06966,0.55143 0.97396,0.55143 1.51823,1.49674 0.54427,0.94532 0.54427,2.04102 0,1.10286 -0.55143,2.0625 -0.54427,0.95964 -1.48958,1.50391 -0.94532,0.53711 -2.08399,0.53711 -1.67578,0 -2.86458,-1.18881 -1.18164,-1.19596 -1.18164,-2.90039 0,-1.82617 1.33919,-3.04362 1.17448,-1.05989 2.69987,-1.05989 z m 0.0286,1.84049 q -0.90951,0 -1.51823,0.63737 -0.60157,0.63021 -0.60157,1.61849 0,1.01693 0.59441,1.64714 0.60156,0.63021 1.51823,0.63021 0.91666,0 1.52539,-0.63737 0.60872,-0.63737 0.60872,-1.63998 0,-1.0026 -0.60156,-1.62565 -0.5944,-0.63021 -1.52539,-0.63021 z"
         style="font-size:14.66666698px;fill:#4c4c4c;fill-opacity:1"
         id="path1308" />
      <path
         d="m 209.18165,267.00386 h 1.94792 v 0.79492 q 0.66601,-0.55859 1.20312,-0.77344 0.54427,-0.222 1.11003,-0.222 1.16015,0 1.9694,0.80924 0.68034,0.6875 0.68034,2.03386 v 5.14909 h -1.9336 v -3.41602 q 0,-1.39648 -0.1289,-1.85482 -0.12175,-0.45833 -0.43685,-0.69466 -0.30795,-0.24349 -0.76628,-0.24349 -0.5944,0 -1.02409,0.40104 -0.42252,0.39388 -0.58724,1.09571 -0.0859,0.36523 -0.0859,1.58268 v 3.12956 h -1.94792 z"
         style="font-size:14.66666698px;fill:#4c4c4c;fill-opacity:1"
         id="path1310" />
      <path
         d="m 57.272785,283.99605 h 1.947916 v 10.79948 h -1.947916 v -0.82357 q -0.572917,0.54427 -1.152995,0.78776 -0.572917,0.23633 -1.246094,0.23633 -1.511068,0 -2.613932,-1.16732 -1.102865,-1.17448 -1.102865,-2.91472 0,-1.80468 1.067058,-2.95768 1.067057,-1.15299 2.592448,-1.15299 0.701822,0 1.317708,0.26497 0.615885,0.26498 1.138672,0.79492 z m -2.055339,4.61197 q -0.909505,0 -1.511068,0.64454 -0.601562,0.63737 -0.601562,1.63997 0,1.00977 0.608724,1.66146 0.615885,0.65169 1.511068,0.65169 0.923828,0 1.532552,-0.63737 0.608724,-0.64453 0.608724,-1.68294 0,-1.01693 -0.608724,-1.64714 -0.608724,-0.63021 -1.539714,-0.63021 z"
         style="font-size:14.66666698px;fill:#4c4c4c;fill-opacity:1"
         id="path1312" />
      <path
         d="m 66.955077,287.00386 h 1.947916 v 7.79167 h -1.947916 v -0.82357 q -0.572917,0.54427 -1.152995,0.78776 -0.572917,0.23633 -1.246094,0.23633 -1.511068,0 -2.613932,-1.16732 -1.102865,-1.17448 -1.102865,-2.91472 0,-1.80468 1.067058,-2.95768 1.067057,-1.15299 2.592447,-1.15299 0.701823,0 1.317709,0.26497 0.615885,0.26498 1.138672,0.79492 z m -2.055339,1.60416 q -0.909505,0 -1.511068,0.64454 -0.601562,0.63737 -0.601562,1.63997 0,1.00977 0.608724,1.66146 0.615885,0.65169 1.511068,0.65169 0.923828,0 1.532552,-0.63737 0.608724,-0.64453 0.608724,-1.68294 0,-1.01693 -0.608724,-1.64714 -0.608724,-0.63021 -1.539714,-0.63021 z"
         style="font-size:14.66666698px;fill:#4c4c4c;fill-opacity:1"
         id="path1314" />
      <path
         d="m 70.879556,287.00386 h 1.947917 v 0.79492 q 0.666015,-0.55859 1.203125,-0.77344 0.544271,-0.222 1.110026,-0.222 1.160156,0 1.969401,0.80924 0.680339,0.6875 0.680339,2.03386 v 5.14909 H 75.85677 v -3.41602 q 0,-1.39648 -0.128906,-1.85482 -0.121745,-0.45833 -0.436849,-0.69466 -0.307943,-0.24349 -0.766277,-0.24349 -0.594401,0 -1.024088,0.40104 -0.422526,0.39388 -0.58724,1.09571 -0.08594,0.36523 -0.08594,1.58268 v 3.12956 h -1.947917 z m 1.217448,-1.45378 -0.78776,-1.18164 q 0.916666,-0.70898 1.854817,-0.70898 0.350912,0 1.203125,0.24349 0.580079,0.15755 0.923829,0.15755 0.601562,0 1.246093,-0.3724 l 0.744792,1.11719 q -0.902344,0.77344 -1.747396,0.77344 -0.451172,0 -1.08138,-0.19336 -0.515625,-0.15039 -0.651693,-0.17904 -0.186198,-0.0286 -0.44401,-0.0286 -0.630209,0 -1.260417,0.37239 z"
         style="font-size:14.66666698px;fill:#4c4c4c;fill-opacity:1"
         id="path1316" />
      <path
         d="m 80.440104,283.79552 q 0.515625,0 0.880859,0.3724 0.372396,0.3724 0.372396,0.90234 0,0.52279 -0.365235,0.89519 -0.365234,0.36523 -0.873697,0.36523 -0.522787,0 -0.895183,-0.37239 -0.365234,-0.37956 -0.365234,-0.91667 0,-0.51563 0.365234,-0.88086 0.365235,-0.36524 0.88086,-0.36524 z m -0.98112,3.20834 h 1.962239 v 7.79167 h -1.962239 z"
         style="font-size:14.66666698px;fill:#4c4c4c;fill-opacity:1"
         id="path1318" />
      <path
         d="m 83.197265,287.00386 h 1.947917 v 0.79492 q 0.666015,-0.55859 1.203125,-0.77344 0.544271,-0.222 1.110026,-0.222 1.160156,0 1.969401,0.80924 0.680339,0.6875 0.680339,2.03386 v 5.14909 h -1.933594 v -3.41602 q 0,-1.39648 -0.128907,-1.85482 -0.121744,-0.45833 -0.436848,-0.69466 -0.307943,-0.24349 -0.766277,-0.24349 -0.594401,0 -1.024088,0.40104 -0.422526,0.39388 -0.58724,1.09571 -0.08594,0.36523 -0.08594,1.58268 v 3.12956 h -1.947917 z"
         style="font-size:14.66666698px;fill:#4c4c4c;fill-opacity:1"
         id="path1320" />
      <path
         d="m 97.749347,287.00386 h 1.947917 v 7.79167 h -1.947917 v -0.82357 q -0.572916,0.54427 -1.152995,0.78776 -0.572916,0.23633 -1.246093,0.23633 -1.511068,0 -2.613933,-1.16732 -1.102864,-1.17448 -1.102864,-2.91472 0,-1.80468 1.067057,-2.95768 1.067057,-1.15299 2.592448,-1.15299 0.701823,0 1.317708,0.26497 0.615886,0.26498 1.138672,0.79492 z m -2.055338,1.60416 q -0.909506,0 -1.511068,0.64454 -0.601563,0.63737 -0.601563,1.63997 0,1.00977 0.608724,1.66146 0.615886,0.65169 1.511068,0.65169 0.923828,0 1.532552,-0.63737 0.608724,-0.64453 0.608724,-1.68294 0,-1.01693 -0.608724,-1.64714 -0.608724,-0.63021 -1.539713,-0.63021 z"
         style="font-size:14.66666698px;fill:#4c4c4c;fill-opacity:1"
         id="path1322" />
      <path
         d="m 106.44336,288.0924 -1.21029,1.21029 q -0.73763,-0.73047 -1.33919,-0.73047 -0.32943,0 -0.51563,0.14323 -0.18619,0.13606 -0.18619,0.34375 0,0.15755 0.11458,0.29362 0.12174,0.1289 0.58724,0.35807 l 0.71615,0.35807 q 1.13151,0.5586 1.55403,1.13867 0.42253,0.58008 0.42253,1.36068 0,1.03841 -0.76628,1.73307 -0.75911,0.69467 -2.04101,0.69467 -1.70443,0 -2.72136,-1.33204 l 1.20313,-1.31054 q 0.34375,0.40104 0.80208,0.65169 0.4655,0.24349 0.82357,0.24349 0.38672,0 0.62305,-0.1862 0.23632,-0.1862 0.23632,-0.42969 0,-0.45117 -0.85221,-0.88085 l -0.65885,-0.32943 q -1.89063,-0.95248 -1.89063,-2.38477 0,-0.92383 0.70898,-1.57552 0.71615,-0.65885 1.82618,-0.65885 0.75911,0 1.42513,0.33659 0.67317,0.32942 1.13867,0.95247 z"
         style="font-size:14.66666698px;fill:#4c4c4c;fill-opacity:1"
         id="path1324" />
      <path
         d="m 114.15625,287.00386 v 0.85937 q 0.52995,-0.52994 1.14583,-0.79492 0.61589,-0.26497 1.31771,-0.26497 1.52539,0 2.59245,1.15299 1.06706,1.153 1.06706,2.95768 0,1.74024 -1.10287,2.91472 -1.10286,1.16732 -2.61393,1.16732 -0.67318,0 -1.25325,-0.23633 -0.58008,-0.24349 -1.153,-0.78776 v 3.67383 h -1.94075 v -10.64193 z m 2.05534,1.60416 q -0.92383,0 -1.53255,0.63021 -0.60873,0.63021 -0.60873,1.64714 0,1.03841 0.60873,1.68294 0.60872,0.63737 1.53255,0.63737 0.89518,0 1.50391,-0.65169 0.61588,-0.65169 0.61588,-1.66146 0,-1.0026 -0.60156,-1.63997 -0.60156,-0.64454 -1.51823,-0.64454 z"
         style="font-size:14.66666698px;fill:#4c4c4c;fill-opacity:1"
         id="path1326" />
      <path
         d="m 127.6556,287.00386 h 1.94791 v 7.79167 h -1.94791 v -0.82357 q -0.57292,0.54427 -1.153,0.78776 -0.57291,0.23633 -1.24609,0.23633 -1.51107,0 -2.61393,-1.16732 -1.10287,-1.17448 -1.10287,-2.91472 0,-1.80468 1.06706,-2.95768 1.06706,-1.15299 2.59245,-1.15299 0.70182,0 1.31771,0.26497 0.61588,0.26498 1.13867,0.79492 z m -2.05534,1.60416 q -0.90951,0 -1.51107,0.64454 -0.60156,0.63737 -0.60156,1.63997 0,1.00977 0.60872,1.66146 0.61589,0.65169 1.51107,0.65169 0.92383,0 1.53255,-0.63737 0.60873,-0.64453 0.60873,-1.68294 0,-1.01693 -0.60873,-1.64714 -0.60872,-0.63021 -1.53971,-0.63021 z"
         style="font-size:14.66666698px;fill:#4c4c4c;fill-opacity:1"
         id="path1328" />
      <path
         d="m 131.12175,287.00386 h 1.67578 v 0.98112 q 0.27213,-0.58008 0.72331,-0.88086 0.45117,-0.30078 0.98828,-0.30078 0.37956,0 0.79492,0.20052 l -0.60872,1.68294 q -0.34375,-0.17187 -0.56576,-0.17187 -0.45117,0 -0.76628,0.55859 -0.30794,0.55859 -0.30794,2.19141 l 0.007,0.37955 v 3.15105 h -1.94075 z"
         style="font-size:14.66666698px;fill:#4c4c4c;fill-opacity:1"
         id="path1330" />
      <path
         d="m 142.03581,287.00386 h 1.94791 v 7.79167 h -1.94791 v -0.82357 q -0.57292,0.54427 -1.153,0.78776 -0.57291,0.23633 -1.24609,0.23633 -1.51107,0 -2.61393,-1.16732 -1.10287,-1.17448 -1.10287,-2.91472 0,-1.80468 1.06706,-2.95768 1.06706,-1.15299 2.59245,-1.15299 0.70182,0 1.31771,0.26497 0.61588,0.26498 1.13867,0.79492 z m -2.05534,1.60416 q -0.90951,0 -1.51107,0.64454 -0.60156,0.63737 -0.60156,1.63997 0,1.00977 0.60872,1.66146 0.61589,0.65169 1.51107,0.65169 0.92383,0 1.53255,-0.63737 0.60873,-0.64453 0.60873,-1.68294 0,-1.01693 -0.60873,-1.64714 -0.60872,-0.63021 -1.53971,-0.63021 z"
         style="font-size:14.66666698px;fill:#4c4c4c;fill-opacity:1"
         id="path1332" />
      <path
         d="m 157.86263,291.46545 h -6.2806 q 0.13607,0.83073 0.72331,1.32487 0.5944,0.48698 1.51107,0.48698 1.0957,0 1.88346,-0.76628 l 1.64714,0.77344 q -0.61589,0.8737 -1.47526,1.29622 -0.85938,0.41537 -2.04102,0.41537 -1.83333,0 -2.98633,-1.153 -1.15299,-1.16016 -1.15299,-2.90039 0,-1.7832 1.14583,-2.95768 1.153,-1.18164 2.88607,-1.18164 1.8405,0 2.99349,1.18164 1.153,1.17448 1.153,3.10807 z m -1.96224,-1.53972 q -0.19336,-0.65169 -0.76627,-1.05989 -0.56576,-0.40821 -1.31771,-0.40821 -0.81641,0 -1.43229,0.45834 -0.38672,0.28646 -0.71615,1.00976 z"
         style="font-size:14.66666698px;fill:#4c4c4c;fill-opacity:1"
         id="path1334" />
      <path
         d="m 159.2448,283.99605 h 1.95508 v 10.79948 h -1.95508 z"
         style="font-size:14.66666698px;fill:#4c4c4c;fill-opacity:1"
         id="path1336" />
      <path
         d="m 171.8418,288.0924 -1.21029,1.21029 q -0.73763,-0.73047 -1.33919,-0.73047 -0.32943,0 -0.51562,0.14323 -0.1862,0.13606 -0.1862,0.34375 0,0.15755 0.11458,0.29362 0.12175,0.1289 0.58724,0.35807 l 0.71615,0.35807 q 1.13151,0.5586 1.55403,1.13867 0.42253,0.58008 0.42253,1.36068 0,1.03841 -0.76628,1.73307 -0.75911,0.69467 -2.04101,0.69467 -1.70443,0 -2.72136,-1.33204 l 1.20313,-1.31054 q 0.34375,0.40104 0.80208,0.65169 0.4655,0.24349 0.82357,0.24349 0.38672,0 0.62305,-0.1862 0.23632,-0.1862 0.23632,-0.42969 0,-0.45117 -0.85221,-0.88085 l -0.65885,-0.32943 q -1.89063,-0.95248 -1.89063,-2.38477 0,-0.92383 0.70899,-1.57552 0.71614,-0.65885 1.82617,-0.65885 0.75911,0 1.42513,0.33659 0.67318,0.32942 1.13867,0.95247 z"
         style="font-size:14.66666698px;fill:#4c4c4c;fill-opacity:1"
         id="path1338" />
      <path
         d="m 174.28386,283.79552 q 0.51562,0 0.88086,0.3724 0.37239,0.3724 0.37239,0.90234 0,0.52279 -0.36523,0.89519 -0.36524,0.36523 -0.8737,0.36523 -0.52279,0 -0.89518,-0.37239 -0.36524,-0.37956 -0.36524,-0.91667 0,-0.51563 0.36524,-0.88086 0.36523,-0.36524 0.88086,-0.36524 z m -0.98112,3.20834 h 1.96224 v 7.79167 h -1.96224 z"
         style="font-size:14.66666698px;fill:#4c4c4c;fill-opacity:1"
         id="path1340" />
      <path
         d="m 181.81055,288.0924 -1.21029,1.21029 q -0.73763,-0.73047 -1.33919,-0.73047 -0.32943,0 -0.51562,0.14323 -0.1862,0.13606 -0.1862,0.34375 0,0.15755 0.11458,0.29362 0.12175,0.1289 0.58724,0.35807 l 0.71615,0.35807 q 1.13151,0.5586 1.55403,1.13867 0.42253,0.58008 0.42253,1.36068 0,1.03841 -0.76628,1.73307 -0.75911,0.69467 -2.04101,0.69467 -1.70443,0 -2.72136,-1.33204 l 1.20313,-1.31054 q 0.34375,0.40104 0.80208,0.65169 0.4655,0.24349 0.82357,0.24349 0.38672,0 0.62305,-0.1862 0.23632,-0.1862 0.23632,-0.42969 0,-0.45117 -0.85221,-0.88085 l -0.65885,-0.32943 q -1.89063,-0.95248 -1.89063,-2.38477 0,-0.92383 0.70899,-1.57552 0.71614,-0.65885 1.82617,-0.65885 0.75911,0 1.42513,0.33659 0.67318,0.32942 1.13867,0.95247 z"
         style="font-size:14.66666698px;fill:#4c4c4c;fill-opacity:1"
         id="path1342" />
      <path
         d="m 183.72266,284.13211 h 1.94792 v 2.87175 h 1.16015 v 1.68294 h -1.16015 v 6.10873 h -1.94792 v -6.10873 h -1.0026 v -1.68294 h 1.0026 z"
         style="font-size:14.66666698px;fill:#4c4c4c;fill-opacity:1"
         id="path1344" />
      <path
         d="m 195.70377,291.46545 h -6.28059 q 0.13606,0.83073 0.7233,1.32487 0.5944,0.48698 1.51107,0.48698 1.0957,0 1.88346,-0.76628 l 1.64714,0.77344 q -0.61589,0.8737 -1.47526,1.29622 -0.85938,0.41537 -2.04102,0.41537 -1.83333,0 -2.98632,-1.153 -1.153,-1.16016 -1.153,-2.90039 0,-1.7832 1.14583,-2.95768 1.153,-1.18164 2.88607,-1.18164 1.8405,0 2.99349,1.18164 1.153,1.17448 1.153,3.10807 z m -1.96224,-1.53972 q -0.19335,-0.65169 -0.76627,-1.05989 -0.56576,-0.40821 -1.31771,-0.40821 -0.81641,0 -1.43229,0.45834 -0.38672,0.28646 -0.71615,1.00976 z"
         style="font-size:14.66666698px;fill:#4c4c4c;fill-opacity:1"
         id="path1346" />
      <path
         d="m 197.27931,287.00386 h 1.96223 v 0.89518 q 0.50131,-0.55143 1.11003,-0.82357 0.61589,-0.27213 1.33919,-0.27213 0.73047,0 1.31771,0.35807 0.58724,0.35807 0.94531,1.04557 0.4655,-0.6875 1.13868,-1.04557 0.68034,-0.35807 1.48242,-0.35807 0.83073,0 1.46094,0.38672 0.6302,0.38671 0.90234,1.00976 0.2793,0.62305 0.2793,2.02669 v 4.56902 h -1.9694 v -3.95313 q 0,-1.32487 -0.32943,-1.79036 -0.32943,-0.47266 -0.98828,-0.47266 -0.50131,0 -0.90235,0.28646 -0.39388,0.28646 -0.58724,0.79492 -0.19336,0.5013 -0.19336,1.61849 v 3.51628 h -1.9694 v -3.77409 q 0,-1.04558 -0.15755,-1.51107 -0.15039,-0.47266 -0.45833,-0.70182 -0.30794,-0.22917 -0.74479,-0.22917 -0.48698,0 -0.88802,0.29362 -0.39388,0.28646 -0.59441,0.80924 -0.19336,0.52279 -0.19336,1.64714 v 3.46615 h -1.96223 z"
         style="font-size:14.66666698px;fill:#4c4c4c;fill-opacity:1"
         id="path1348" />
      <path
         d="m 216.83008,287.00386 h 1.94792 v 7.79167 h -1.94792 v -0.82357 q -0.57292,0.54427 -1.15299,0.78776 -0.57292,0.23633 -1.2461,0.23633 -1.51106,0 -2.61393,-1.16732 -1.10286,-1.17448 -1.10286,-2.91472 0,-1.80468 1.06705,-2.95768 1.06706,-1.15299 2.59245,-1.15299 0.70182,0 1.31771,0.26497 0.61589,0.26498 1.13867,0.79492 z m -2.05534,1.60416 q -0.9095,0 -1.51106,0.64454 -0.60157,0.63737 -0.60157,1.63997 0,1.00977 0.60873,1.66146 0.61588,0.65169 1.51106,0.65169 0.92383,0 1.53256,-0.63737 0.60872,-0.64453 0.60872,-1.68294 0,-1.01693 -0.60872,-1.64714 -0.60873,-0.63021 -1.53972,-0.63021 z"
         style="font-size:14.66666698px;fill:#4c4c4c;fill-opacity:1"
         id="path1350" />
      <path
         d="m 38.316404,303.99605 v 3.86718 q 0.529948,-0.52994 1.145834,-0.79492 0.615885,-0.26497 1.317708,-0.26497 1.525391,0 2.592448,1.15299 1.067057,1.153 1.067057,2.95768 0,1.74024 -1.102864,2.91472 -1.102865,1.16732 -2.613933,1.16732 -0.673177,0 -1.253255,-0.23633 -0.580078,-0.24349 -1.152995,-0.78776 v 0.82357 h -1.940755 v -10.79948 z m 2.055339,4.61197 q -0.923828,0 -1.532552,0.63021 -0.608724,0.63021 -0.608724,1.64714 0,1.03841 0.608724,1.68294 0.608724,0.63737 1.532552,0.63737 0.895182,0 1.503906,-0.65169 0.615885,-0.65169 0.615885,-1.66146 0,-1.0026 -0.601562,-1.63997 -0.601563,-0.64454 -1.518229,-0.64454 z"
         style="font-size:14.66666698px;fill:#4c4c4c;fill-opacity:1"
         id="path1352" />
      <path
         d="m 51.815754,307.00386 h 1.947916 v 7.79167 h -1.947916 v -0.82357 q -0.572917,0.54427 -1.152995,0.78776 -0.572917,0.23633 -1.246094,0.23633 -1.511068,0 -2.613932,-1.16732 -1.102865,-1.17448 -1.102865,-2.91472 0,-1.80468 1.067057,-2.95768 1.067058,-1.15299 2.592448,-1.15299 0.701823,0 1.317709,0.26497 0.615885,0.26498 1.138672,0.79492 z m -2.055339,1.60416 q -0.909505,0 -1.511068,0.64454 -0.601562,0.63737 -0.601562,1.63997 0,1.00977 0.608724,1.66146 0.615885,0.65169 1.511067,0.65169 0.923829,0 1.532552,-0.63737 0.608724,-0.64453 0.608724,-1.68294 0,-1.01693 -0.608724,-1.64714 -0.608723,-0.63021 -1.539713,-0.63021 z"
         style="font-size:14.66666698px;fill:#4c4c4c;fill-opacity:1"
         id="path1354" />
      <path
         d="m 55.740233,307.00386 h 1.947917 v 0.79492 q 0.666015,-0.55859 1.203125,-0.77344 0.54427,-0.222 1.110026,-0.222 1.160156,0 1.969401,0.80924 0.680338,0.6875 0.680338,2.03386 v 5.14909 h -1.933593 v -3.41602 q 0,-1.39648 -0.128907,-1.85482 -0.121745,-0.45833 -0.436849,-0.69466 -0.307942,-0.24349 -0.766276,-0.24349 -0.594401,0 -1.024088,0.40104 -0.422526,0.39388 -0.58724,1.09571 -0.08594,0.36523 -0.08594,1.58268 v 3.12956 h -1.947917 z"
         style="font-size:14.66666698px;fill:#4c4c4c;fill-opacity:1"
         id="path1356" />
      <path
         d="m 72.161458,308.57938 -1.625651,0.89518 q -0.458334,-0.47982 -0.909506,-0.66601 -0.44401,-0.1862 -1.045573,-0.1862 -1.095703,0 -1.776041,0.65885 -0.673177,0.65169 -0.673177,1.67578 0,0.99545 0.651692,1.62565 0.651693,0.63021 1.711589,0.63021 1.310547,0 2.041016,-0.89518 l 1.539713,1.05273 q -1.253255,1.62566 -3.53776,1.62566 -2.055339,0 -3.222657,-1.21745 -1.160156,-1.21745 -1.160156,-2.85026 0,-1.13151 0.565755,-2.08399 0.565755,-0.95247 1.575521,-1.49674 1.016927,-0.54427 2.270182,-0.54427 1.160157,0 2.083985,0.46549 0.923828,0.45834 1.511068,1.31055 z"
         style="font-size:14.66666698px;fill:#4c4c4c;fill-opacity:1"
         id="path1358" />
      <path
         d="m 79.688149,307.00386 h 1.947917 v 7.79167 h -1.947917 v -0.82357 q -0.572917,0.54427 -1.152995,0.78776 -0.572916,0.23633 -1.246094,0.23633 -1.511067,0 -2.613932,-1.16732 -1.102865,-1.17448 -1.102865,-2.91472 0,-1.80468 1.067058,-2.95768 1.067057,-1.15299 2.592448,-1.15299 0.701823,0 1.317708,0.26497 0.615886,0.26498 1.138672,0.79492 z m -2.055339,1.60416 q -0.909505,0 -1.511067,0.64454 -0.601563,0.63737 -0.601563,1.63997 0,1.00977 0.608724,1.66146 0.615886,0.65169 1.511068,0.65169 0.923828,0 1.532552,-0.63737 0.608724,-0.64453 0.608724,-1.68294 0,-1.01693 -0.608724,-1.64714 -0.608724,-0.63021 -1.539714,-0.63021 z"
         style="font-size:14.66666698px;fill:#4c4c4c;fill-opacity:1"
         id="path1360" />
      <path
         d="m 83.154296,307.00386 h 1.675781 v 0.98112 q 0.272136,-0.58008 0.723308,-0.88086 0.451171,-0.30078 0.988281,-0.30078 0.379557,0 0.794922,0.20052 l -0.608724,1.68294 q -0.34375,-0.17187 -0.565755,-0.17187 -0.451172,0 -0.766276,0.55859 -0.307943,0.55859 -0.307943,2.19141 l 0.0072,0.37955 v 3.15105 h -1.940755 z"
         style="font-size:14.66666698px;fill:#4c4c4c;fill-opacity:1"
         id="path1362" />
      <path
         d="m 89.076823,303.79552 q 0.515625,0 0.88086,0.3724 0.372396,0.3724 0.372396,0.90234 0,0.52279 -0.365235,0.89519 -0.365234,0.36523 -0.873698,0.36523 -0.522786,0 -0.895182,-0.37239 -0.365234,-0.37956 -0.365234,-0.91667 0,-0.51563 0.365234,-0.88086 0.365234,-0.36524 0.880859,-0.36524 z m -0.981119,3.20834 h 1.962239 v 7.79167 h -1.962239 z"
         style="font-size:14.66666698px;fill:#4c4c4c;fill-opacity:1"
         id="path1364" />
      <path
         d="m 95.49349,306.80334 q 1.102865,0 2.069662,0.55143 0.973958,0.55143 1.518229,1.49674 0.544271,0.94532 0.544271,2.04102 0,1.10286 -0.551433,2.0625 -0.544271,0.95964 -1.489583,1.50391 -0.945313,0.53711 -2.083984,0.53711 -1.675782,0 -2.864584,-1.18881 -1.181641,-1.19596 -1.181641,-2.90039 0,-1.82617 1.339193,-3.04362 1.174479,-1.05989 2.69987,-1.05989 z m 0.02865,1.84049 q -0.909505,0 -1.518229,0.63737 -0.601563,0.63021 -0.601563,1.61849 0,1.01693 0.594401,1.64714 0.601563,0.63021 1.518229,0.63021 0.916667,0 1.525391,-0.63737 0.608724,-0.63737 0.608724,-1.63998 0,-1.0026 -0.601562,-1.62565 -0.594401,-0.63021 -1.525391,-0.63021 z"
         style="font-size:14.66666698px;fill:#4c4c4c;fill-opacity:1"
         id="path1366" />
      <path
         d="m 104.45964,307.00386 h 1.99804 l 2.0267,4.89127 2.23437,-4.89127 h 2.00521 l -4.88412,10.64193 h -2.01953 l 1.60417,-3.43034 z"
         style="font-size:14.66666698px;fill:#4c4c4c;fill-opacity:1"
         id="path1368" />
      <path
         d="m 119.87109,307.00386 v 0.85937 q 0.52995,-0.52994 1.14584,-0.79492 0.61588,-0.26497 1.3177,-0.26497 1.52539,0 2.59245,1.15299 1.06706,1.153 1.06706,2.95768 0,1.74024 -1.10287,2.91472 -1.10286,1.16732 -2.61393,1.16732 -0.67318,0 -1.25325,-0.23633 -0.58008,-0.24349 -1.153,-0.78776 v 3.67383 h -1.94075 v -10.64193 z m 2.05534,1.60416 q -0.92383,0 -1.53255,0.63021 -0.60873,0.63021 -0.60873,1.64714 0,1.03841 0.60873,1.68294 0.60872,0.63737 1.53255,0.63737 0.89518,0 1.50391,-0.65169 0.61588,-0.65169 0.61588,-1.66146 0,-1.0026 -0.60156,-1.63997 -0.60156,-0.64454 -1.51823,-0.64454 z"
         style="font-size:14.66666698px;fill:#4c4c4c;fill-opacity:1"
         id="path1370" />
      <path
         d="m 127.60547,307.00386 h 1.97656 v 3.7526 q 0,1.09571 0.15039,1.52539 0.1504,0.42253 0.47982,0.65886 0.33659,0.23633 0.82357,0.23633 0.48698,0 0.82357,-0.22917 0.34375,-0.23633 0.50846,-0.6875 0.12175,-0.33659 0.12175,-1.43945 v -3.81706 h 1.96224 v 3.30143 q 0,2.04102 -0.32227,2.79297 -0.39388,0.91667 -1.16016,1.41081 -0.76627,0.48698 -1.94791,0.48698 -1.2819,0 -2.07683,-0.57292 -0.78776,-0.57292 -1.11002,-1.59701 -0.22917,-0.70898 -0.22917,-2.57812 z"
         style="font-size:14.66666698px;fill:#4c4c4c;fill-opacity:1"
         id="path1372" />
      <path
         d="m 144.2129,311.46545 h -6.2806 q 0.13606,0.83073 0.7233,1.32487 0.59441,0.48698 1.51107,0.48698 1.09571,0 1.88347,-0.76628 l 1.64713,0.77344 q -0.61588,0.8737 -1.47526,1.29622 -0.85937,0.41537 -2.04101,0.41537 -1.83334,0 -2.98633,-1.153 -1.153,-1.16016 -1.153,-2.90039 0,-1.7832 1.14584,-2.95768 1.15299,-1.18164 2.88606,-1.18164 1.8405,0 2.99349,1.18164 1.153,1.17448 1.153,3.10807 z m -1.96224,-1.53972 q -0.19336,-0.65169 -0.76628,-1.05989 -0.56575,-0.40821 -1.31771,-0.40821 -0.8164,0 -1.43229,0.45834 -0.38672,0.28646 -0.71615,1.00976 z"
         style="font-size:14.66666698px;fill:#4c4c4c;fill-opacity:1"
         id="path1374" />
      <path
         d="m 151.56055,303.99605 h 1.94791 v 10.79948 h -1.94791 v -0.82357 q -0.57292,0.54427 -1.153,0.78776 -0.57291,0.23633 -1.24609,0.23633 -1.51107,0 -2.61393,-1.16732 -1.10287,-1.17448 -1.10287,-2.91472 0,-1.80468 1.06706,-2.95768 1.06706,-1.15299 2.59245,-1.15299 0.70182,0 1.31771,0.26497 0.61588,0.26498 1.13867,0.79492 z m -2.05534,4.61197 q -0.90951,0 -1.51107,0.64454 -0.60156,0.63737 -0.60156,1.63997 0,1.00977 0.60872,1.66146 0.61589,0.65169 1.51107,0.65169 0.92383,0 1.53255,-0.63737 0.60873,-0.64453 0.60873,-1.68294 0,-1.01693 -0.60873,-1.64714 -0.60872,-0.63021 -1.53971,-0.63021 z"
         style="font-size:14.66666698px;fill:#4c4c4c;fill-opacity:1"
         id="path1376" />
      <path
         d="m 163.29102,311.46545 h -6.2806 q 0.13607,0.83073 0.72331,1.32487 0.5944,0.48698 1.51107,0.48698 1.0957,0 1.88346,-0.76628 l 1.64714,0.77344 q -0.61589,0.8737 -1.47526,1.29622 -0.85938,0.41537 -2.04102,0.41537 -1.83333,0 -2.98633,-1.153 -1.15299,-1.16016 -1.15299,-2.90039 0,-1.7832 1.14583,-2.95768 1.153,-1.18164 2.88607,-1.18164 1.84049,0 2.99349,1.18164 1.15299,1.17448 1.15299,3.10807 z m -1.96224,-1.53972 q -0.19336,-0.65169 -0.76627,-1.05989 -0.56576,-0.40821 -1.31771,-0.40821 -0.81641,0 -1.43229,0.45834 -0.38672,0.28646 -0.71615,1.00976 z"
         style="font-size:14.66666698px;fill:#4c4c4c;fill-opacity:1"
         id="path1378" />
      <path
         d="m 164.88087,307.00386 h 1.94791 v 0.79492 q 0.66602,-0.55859 1.20313,-0.77344 0.54427,-0.222 1.11003,-0.222 1.16015,0 1.9694,0.80924 0.68033,0.6875 0.68033,2.03386 v 5.14909 h -1.93359 v -3.41602 q 0,-1.39648 -0.12891,-1.85482 -0.12174,-0.45833 -0.43684,-0.69466 -0.30795,-0.24349 -0.76628,-0.24349 -0.5944,0 -1.02409,0.40104 -0.42252,0.39388 -0.58724,1.09571 -0.0859,0.36523 -0.0859,1.58268 v 3.12956 h -1.94791 z"
         style="font-size:14.66666698px;fill:#4c4c4c;fill-opacity:1"
         id="path1380" />
      <path
         d="m 183.52931,303.99605 h 1.94791 v 10.79948 h -1.94791 v -0.82357 q -0.57292,0.54427 -1.153,0.78776 -0.57292,0.23633 -1.24609,0.23633 -1.51107,0 -2.61394,-1.16732 -1.10286,-1.17448 -1.10286,-2.91472 0,-1.80468 1.06706,-2.95768 1.06705,-1.15299 2.59244,-1.15299 0.70183,0 1.31771,0.26497 0.61589,0.26498 1.13868,0.79492 z m -2.05534,4.61197 q -0.90951,0 -1.51107,0.64454 -0.60156,0.63737 -0.60156,1.63997 0,1.00977 0.60872,1.66146 0.61589,0.65169 1.51107,0.65169 0.92383,0 1.53255,-0.63737 0.60872,-0.64453 0.60872,-1.68294 0,-1.01693 -0.60872,-1.64714 -0.60872,-0.63021 -1.53971,-0.63021 z"
         style="font-size:14.66666698px;fill:#4c4c4c;fill-opacity:1"
         id="path1382" />
      <path
         d="m 195.25976,311.46545 h -6.2806 q 0.13607,0.83073 0.72331,1.32487 0.5944,0.48698 1.51107,0.48698 1.0957,0 1.88346,-0.76628 l 1.64714,0.77344 q -0.61589,0.8737 -1.47526,1.29622 -0.85938,0.41537 -2.04102,0.41537 -1.83333,0 -2.98633,-1.153 -1.15299,-1.16016 -1.15299,-2.90039 0,-1.7832 1.14583,-2.95768 1.153,-1.18164 2.88607,-1.18164 1.8405,0 2.99349,1.18164 1.153,1.17448 1.153,3.10807 z m -1.96224,-1.53972 q -0.19336,-0.65169 -0.76627,-1.05989 -0.56576,-0.40821 -1.31771,-0.40821 -0.81641,0 -1.43229,0.45834 -0.38672,0.28646 -0.71615,1.00976 z"
         style="font-size:14.66666698px;fill:#4c4c4c;fill-opacity:1"
         id="path1384" />
      <path
         d="m 198.79037,303.99605 v 3.86718 q 0.52995,-0.52994 1.14584,-0.79492 0.61588,-0.26497 1.3177,-0.26497 1.5254,0 2.59245,1.15299 1.06706,1.153 1.06706,2.95768 0,1.74024 -1.10286,2.91472 -1.10287,1.16732 -2.61394,1.16732 -0.67317,0 -1.25325,-0.23633 -0.58008,-0.24349 -1.153,-0.78776 v 0.82357 h -1.94075 v -10.79948 z m 2.05534,4.61197 q -0.92383,0 -1.53255,0.63021 -0.60872,0.63021 -0.60872,1.64714 0,1.03841 0.60872,1.68294 0.60872,0.63737 1.53255,0.63737 0.89518,0 1.50391,-0.65169 0.61588,-0.65169 0.61588,-1.66146 0,-1.0026 -0.60156,-1.63997 -0.60156,-0.64454 -1.51823,-0.64454 z"
         style="font-size:14.66666698px;fill:#4c4c4c;fill-opacity:1"
         id="path1386" />
      <path
         d="m 207.29819,303.79552 q 0.51563,0 0.88086,0.3724 0.3724,0.3724 0.3724,0.90234 0,0.52279 -0.36524,0.89519 -0.36523,0.36523 -0.8737,0.36523 -0.52278,0 -0.89518,-0.37239 -0.36523,-0.37956 -0.36523,-0.91667 0,-0.51563 0.36523,-0.88086 0.36524,-0.36524 0.88086,-0.36524 z m -0.98112,3.20834 h 1.96224 v 7.79167 h -1.96224 z"
         style="font-size:14.66666698px;fill:#4c4c4c;fill-opacity:1"
         id="path1388" />
      <path
         d="m 209.84767,303.99605 h 1.95508 v 10.79948 h -1.95508 z"
         style="font-size:14.66666698px;fill:#4c4c4c;fill-opacity:1"
         id="path1390" />
      <path
         d="m 214.34507,303.79552 q 0.51562,0 0.88085,0.3724 0.3724,0.3724 0.3724,0.90234 0,0.52279 -0.36523,0.89519 -0.36524,0.36523 -0.8737,0.36523 -0.52279,0 -0.89518,-0.37239 -0.36524,-0.37956 -0.36524,-0.91667 0,-0.51563 0.36524,-0.88086 0.36523,-0.36524 0.88086,-0.36524 z m -0.98112,3.20834 h 1.96224 v 7.79167 h -1.96224 z"
         style="font-size:14.66666698px;fill:#4c4c4c;fill-opacity:1"
         id="path1392" />
      <path
         d="m 217.33855,304.13211 h 1.94792 v 2.87175 h 1.16016 v 1.68294 h -1.16016 v 6.10873 h -1.94792 v -6.10873 h -1.0026 v -1.68294 h 1.0026 z"
         style="font-size:14.66666698px;fill:#4c4c4c;fill-opacity:1"
         id="path1394" />
      <path
         d="m 227.27149,307.00386 h 1.94792 v 7.79167 h -1.94792 v -0.82357 q -0.57291,0.54427 -1.15299,0.78776 -0.57292,0.23633 -1.2461,0.23633 -1.51106,0 -2.61393,-1.16732 -1.10286,-1.17448 -1.10286,-2.91472 0,-1.80468 1.06705,-2.95768 1.06706,-1.15299 2.59245,-1.15299 0.70183,0 1.31771,0.26497 0.61589,0.26498 1.13867,0.79492 z m -2.05534,1.60416 q -0.9095,0 -1.51106,0.64454 -0.60157,0.63737 -0.60157,1.63997 0,1.00977 0.60873,1.66146 0.61588,0.65169 1.51107,0.65169 0.92382,0 1.53255,-0.63737 0.60872,-0.64453 0.60872,-1.68294 0,-1.01693 -0.60872,-1.64714 -0.60873,-0.63021 -1.53972,-0.63021 z"
         style="font-size:14.66666698px;fill:#4c4c4c;fill-opacity:1"
         id="path1396" />
      <path
         d="m 230.73764,307.00386 h 1.67578 v 0.98112 q 0.27214,-0.58008 0.72331,-0.88086 0.45117,-0.30078 0.98828,-0.30078 0.37956,0 0.79493,0.20052 l -0.60873,1.68294 q -0.34375,-0.17187 -0.56575,-0.17187 -0.45118,0 -0.76628,0.55859 -0.30794,0.55859 -0.30794,2.19141 l 0.007,0.37955 v 3.15105 h -1.94076 z"
         style="font-size:14.66666698px;fill:#4c4c4c;fill-opacity:1"
         id="path1398" />
      <path
         d="m 66.912108,331.46545 h -6.280599 q 0.136068,0.83073 0.723307,1.32487 0.594401,0.48698 1.511068,0.48698 1.095703,0 1.883463,-0.76628 l 1.647136,0.77344 q -0.615886,0.8737 -1.475261,1.29622 -0.859375,0.41537 -2.041015,0.41537 -1.833334,0 -2.986328,-1.153 -1.152995,-1.16016 -1.152995,-2.90039 0,-1.7832 1.145833,-2.95768 1.152995,-1.18164 2.886068,-1.18164 1.840495,0 2.99349,1.18164 1.152994,1.17448 1.152994,3.10807 z m -1.96224,-1.53972 q -0.193359,-0.65169 -0.766276,-1.05989 -0.565755,-0.40821 -1.317708,-0.40821 -0.816406,0 -1.432292,0.45834 -0.386719,0.28646 -0.716146,1.00976 z"
         style="font-size:14.66666698px;fill:#4c4c4c;fill-opacity:1"
         id="path1400" />
      <path
         d="m 68.29427,323.99605 h 1.955078 v 10.79948 H 68.29427 Z"
         style="font-size:14.66666698px;fill:#4c4c4c;fill-opacity:1"
         id="path1402" />
      <path
         d="m 81.879556,327.00386 h 1.947916 v 7.79167 h -1.947916 v -0.82357 q -0.572917,0.54427 -1.152995,0.78776 -0.572917,0.23633 -1.246094,0.23633 -1.511068,0 -2.613932,-1.16732 -1.102865,-1.17448 -1.102865,-2.91472 0,-1.80468 1.067058,-2.95768 1.067057,-1.15299 2.592448,-1.15299 0.701822,0 1.317708,0.26497 0.615885,0.26498 1.138672,0.79492 z m -2.055339,1.60416 q -0.909505,0 -1.511068,0.64454 -0.601562,0.63737 -0.601562,1.63997 0,1.00977 0.608724,1.66146 0.615885,0.65169 1.511068,0.65169 0.923828,0 1.532552,-0.63737 0.608724,-0.64453 0.608724,-1.68294 0,-1.01693 -0.608724,-1.64714 -0.608724,-0.63021 -1.539714,-0.63021 z"
         style="font-size:14.66666698px;fill:#4c4c4c;fill-opacity:1"
         id="path1404" />
      <path
         d="m 87.744791,327.00386 v 0.85937 q 0.529948,-0.52994 1.145834,-0.79492 0.615885,-0.26497 1.317708,-0.26497 1.525391,0 2.592448,1.15299 1.067057,1.153 1.067057,2.95768 0,1.74024 -1.102864,2.91472 -1.102865,1.16732 -2.613933,1.16732 -0.673177,0 -1.253255,-0.23633 -0.580078,-0.24349 -1.152995,-0.78776 v 3.67383 h -1.940755 v -10.64193 z m 2.055339,1.60416 q -0.923828,0 -1.532552,0.63021 -0.608724,0.63021 -0.608724,1.64714 0,1.03841 0.608724,1.68294 0.608724,0.63737 1.532552,0.63737 0.895182,0 1.503906,-0.65169 0.615886,-0.65169 0.615886,-1.66146 0,-1.0026 -0.601563,-1.63997 -0.601562,-0.64454 -1.518229,-0.64454 z"
         style="font-size:14.66666698px;fill:#4c4c4c;fill-opacity:1"
         id="path1406" />
      <path
         d="m 101.24414,327.00386 h 1.94792 v 7.79167 h -1.94792 v -0.82357 q -0.57292,0.54427 -1.15299,0.78776 -0.57292,0.23633 -1.246097,0.23633 -1.511068,0 -2.613932,-1.16732 -1.102865,-1.17448 -1.102865,-2.91472 0,-1.80468 1.067057,-2.95768 1.067058,-1.15299 2.592448,-1.15299 0.701823,0 1.317709,0.26497 0.61589,0.26498 1.13867,0.79492 z m -2.055337,1.60416 q -0.909505,0 -1.511068,0.64454 -0.601562,0.63737 -0.601562,1.63997 0,1.00977 0.608724,1.66146 0.615885,0.65169 1.511068,0.65169 0.923825,0 1.532555,-0.63737 0.60872,-0.64453 0.60872,-1.68294 0,-1.01693 -0.60872,-1.64714 -0.60873,-0.63021 -1.539717,-0.63021 z"
         style="font-size:14.66666698px;fill:#4c4c4c;fill-opacity:1"
         id="path1408" />
      <path
         d="m 104.71028,327.00386 h 1.67579 v 0.98112 q 0.27213,-0.58008 0.7233,-0.88086 0.45118,-0.30078 0.98828,-0.30078 0.37956,0 0.79493,0.20052 l -0.60873,1.68294 q -0.34375,-0.17187 -0.56575,-0.17187 -0.45117,0 -0.76628,0.55859 -0.30794,0.55859 -0.30794,2.19141 l 0.007,0.37955 v 3.15105 h -1.94076 z"
         style="font-size:14.66666698px;fill:#4c4c4c;fill-opacity:1"
         id="path1410" />
      <path
         d="m 115.62435,327.00386 h 1.94792 v 7.79167 h -1.94792 v -0.82357 q -0.57292,0.54427 -1.153,0.78776 -0.57291,0.23633 -1.24609,0.23633 -1.51107,0 -2.61393,-1.16732 -1.10287,-1.17448 -1.10287,-2.91472 0,-1.80468 1.06706,-2.95768 1.06706,-1.15299 2.59245,-1.15299 0.70182,0 1.31771,0.26497 0.61588,0.26498 1.13867,0.79492 z m -2.05534,1.60416 q -0.90951,0 -1.51107,0.64454 -0.60156,0.63737 -0.60156,1.63997 0,1.00977 0.60872,1.66146 0.61589,0.65169 1.51107,0.65169 0.92383,0 1.53255,-0.63737 0.60873,-0.64453 0.60873,-1.68294 0,-1.01693 -0.60873,-1.64714 -0.60872,-0.63021 -1.53971,-0.63021 z"
         style="font-size:14.66666698px;fill:#4c4c4c;fill-opacity:1"
         id="path1412" />
      <path
         d="m 119.78516,324.13211 h 1.94791 v 2.87175 h 1.16016 v 1.68294 h -1.16016 v 6.10873 h -1.94791 v -6.10873 h -1.00261 v -1.68294 h 1.00261 z"
         style="font-size:14.66666698px;fill:#4c4c4c;fill-opacity:1"
         id="path1414" />
      <path
         d="m 127.6198,326.80334 q 1.10286,0 2.06966,0.55143 0.97396,0.55143 1.51823,1.49674 0.54427,0.94532 0.54427,2.04102 0,1.10286 -0.55144,2.0625 -0.54427,0.95964 -1.48958,1.50391 -0.94531,0.53711 -2.08398,0.53711 -1.67578,0 -2.86459,-1.18881 -1.18164,-1.19596 -1.18164,-2.90039 0,-1.82617 1.3392,-3.04362 1.17447,-1.05989 2.69987,-1.05989 z m 0.0286,1.84049 q -0.9095,0 -1.51823,0.63737 -0.60156,0.63021 -0.60156,1.61849 0,1.01693 0.5944,1.64714 0.60156,0.63021 1.51823,0.63021 0.91667,0 1.52539,-0.63737 0.60872,-0.63737 0.60872,-1.63998 0,-1.0026 -0.60156,-1.62565 -0.5944,-0.63021 -1.52539,-0.63021 z"
         style="font-size:14.66666698px;fill:#4c4c4c;fill-opacity:1"
         id="path1416" />
      <path
         d="m 143.21029,323.99605 h 1.94792 v 10.79948 h -1.94792 v -0.82357 q -0.57292,0.54427 -1.15299,0.78776 -0.57292,0.23633 -1.2461,0.23633 -1.51107,0 -2.61393,-1.16732 -1.10287,-1.17448 -1.10287,-2.91472 0,-1.80468 1.06706,-2.95768 1.06706,-1.15299 2.59245,-1.15299 0.70182,0 1.31771,0.26497 0.61588,0.26498 1.13867,0.79492 z m -2.05534,4.61197 q -0.9095,0 -1.51107,0.64454 -0.60156,0.63737 -0.60156,1.63997 0,1.00977 0.60873,1.66146 0.61588,0.65169 1.51106,0.65169 0.92383,0 1.53256,-0.63737 0.60872,-0.64453 0.60872,-1.68294 0,-1.01693 -0.60872,-1.64714 -0.60873,-0.63021 -1.53972,-0.63021 z"
         style="font-size:14.66666698px;fill:#4c4c4c;fill-opacity:1"
         id="path1418" />
      <path
         d="m 154.94076,331.46545 h -6.2806 q 0.13606,0.83073 0.7233,1.32487 0.59441,0.48698 1.51107,0.48698 1.09571,0 1.88347,-0.76628 l 1.64713,0.77344 q -0.61588,0.8737 -1.47526,1.29622 -0.85937,0.41537 -2.04101,0.41537 -1.83334,0 -2.98633,-1.153 -1.153,-1.16016 -1.153,-2.90039 0,-1.7832 1.14584,-2.95768 1.15299,-1.18164 2.88606,-1.18164 1.8405,0 2.99349,1.18164 1.153,1.17448 1.153,3.10807 z m -1.96224,-1.53972 q -0.19336,-0.65169 -0.76628,-1.05989 -0.56575,-0.40821 -1.31771,-0.40821 -0.8164,0 -1.43229,0.45834 -0.38672,0.28646 -0.71615,1.00976 z"
         style="font-size:14.66666698px;fill:#4c4c4c;fill-opacity:1"
         id="path1420" />
      <path
         d="m 156.32292,323.99605 h 1.95508 v 10.79948 h -1.95508 z"
         style="font-size:14.66666698px;fill:#4c4c4c;fill-opacity:1"
         id="path1422" />
      <path
         d="m 171.95638,331.46545 h -6.2806 q 0.13607,0.83073 0.72331,1.32487 0.5944,0.48698 1.51107,0.48698 1.0957,0 1.88346,-0.76628 l 1.64714,0.77344 q -0.61589,0.8737 -1.47526,1.29622 -0.85938,0.41537 -2.04102,0.41537 -1.83333,0 -2.98633,-1.153 -1.15299,-1.16016 -1.15299,-2.90039 0,-1.7832 1.14583,-2.95768 1.153,-1.18164 2.88607,-1.18164 1.84049,0 2.99349,1.18164 1.15299,1.17448 1.15299,3.10807 z m -1.96224,-1.53972 q -0.19336,-0.65169 -0.76627,-1.05989 -0.56576,-0.40821 -1.31771,-0.40821 -0.81641,0 -1.43229,0.45834 -0.38672,0.28646 -0.71615,1.00976 z"
         style="font-size:14.66666698px;fill:#4c4c4c;fill-opacity:1"
         id="path1424" />
      <path
         d="m 178.31576,328.0924 -1.21029,1.21029 q -0.73763,-0.73047 -1.33919,-0.73047 -0.32943,0 -0.51563,0.14323 -0.18619,0.13606 -0.18619,0.34375 0,0.15755 0.11458,0.29362 0.12174,0.1289 0.58724,0.35807 l 0.71615,0.35807 q 1.13151,0.5586 1.55403,1.13867 0.42253,0.58008 0.42253,1.36068 0,1.03841 -0.76628,1.73307 -0.75911,0.69467 -2.04101,0.69467 -1.70443,0 -2.72136,-1.33204 l 1.20313,-1.31054 q 0.34375,0.40104 0.80208,0.65169 0.4655,0.24349 0.82357,0.24349 0.38672,0 0.62304,-0.1862 0.23633,-0.1862 0.23633,-0.42969 0,-0.45117 -0.85221,-0.88085 l -0.65885,-0.32943 q -1.89063,-0.95248 -1.89063,-2.38477 0,-0.92383 0.70898,-1.57552 0.71615,-0.65885 1.82618,-0.65885 0.75911,0 1.42513,0.33659 0.67317,0.32942 1.13867,0.95247 z"
         style="font-size:14.66666698px;fill:#4c4c4c;fill-opacity:1"
         id="path1426" />
      <path
         d="m 180.22787,324.13211 h 1.94791 v 2.87175 h 1.16016 v 1.68294 h -1.16016 v 6.10873 h -1.94791 v -6.10873 h -1.00261 v -1.68294 h 1.00261 z"
         style="font-size:14.66666698px;fill:#4c4c4c;fill-opacity:1"
         id="path1428" />
      <path
         d="m 190.16081,327.00386 h 1.94792 v 7.79167 h -1.94792 v -0.82357 q -0.57291,0.54427 -1.15299,0.78776 -0.57292,0.23633 -1.2461,0.23633 -1.51106,0 -2.61393,-1.16732 -1.10286,-1.17448 -1.10286,-2.91472 0,-1.80468 1.06706,-2.95768 1.06705,-1.15299 2.59244,-1.15299 0.70183,0 1.31771,0.26497 0.61589,0.26498 1.13867,0.79492 z m -2.05534,1.60416 q -0.9095,0 -1.51106,0.64454 -0.60157,0.63737 -0.60157,1.63997 0,1.00977 0.60873,1.66146 0.61588,0.65169 1.51107,0.65169 0.92382,0 1.53255,-0.63737 0.60872,-0.64453 0.60872,-1.68294 0,-1.01693 -0.60872,-1.64714 -0.60873,-0.63021 -1.53972,-0.63021 z"
         style="font-size:14.66666698px;fill:#4c4c4c;fill-opacity:1"
         id="path1430" />
      <path
         d="m 199.8431,323.99605 h 1.94792 v 10.79948 h -1.94792 v -0.82357 q -0.57291,0.54427 -1.15299,0.78776 -0.57292,0.23633 -1.2461,0.23633 -1.51106,0 -2.61393,-1.16732 -1.10286,-1.17448 -1.10286,-2.91472 0,-1.80468 1.06705,-2.95768 1.06706,-1.15299 2.59245,-1.15299 0.70183,0 1.31771,0.26497 0.61589,0.26498 1.13867,0.79492 z m -2.05534,4.61197 q -0.9095,0 -1.51106,0.64454 -0.60157,0.63737 -0.60157,1.63997 0,1.00977 0.60873,1.66146 0.61588,0.65169 1.51107,0.65169 0.92382,0 1.53255,-0.63737 0.60872,-0.64453 0.60872,-1.68294 0,-1.01693 -0.60872,-1.64714 -0.60873,-0.63021 -1.53972,-0.63021 z"
         style="font-size:14.66666698px;fill:#4c4c4c;fill-opacity:1"
         id="path1432" />
      <path
         d="m 207.42709,326.80334 q 1.10287,0 2.06966,0.55143 0.97396,0.55143 1.51823,1.49674 0.54427,0.94532 0.54427,2.04102 0,1.10286 -0.55143,2.0625 -0.54427,0.95964 -1.48958,1.50391 -0.94531,0.53711 -2.08399,0.53711 -1.67578,0 -2.86458,-1.18881 -1.18164,-1.19596 -1.18164,-2.90039 0,-1.82617 1.33919,-3.04362 1.17448,-1.05989 2.69987,-1.05989 z m 0.0286,1.84049 q -0.90951,0 -1.51823,0.63737 -0.60156,0.63021 -0.60156,1.61849 0,1.01693 0.5944,1.64714 0.60156,0.63021 1.51823,0.63021 0.91666,0 1.52539,-0.63737 0.60872,-0.63737 0.60872,-1.63998 0,-1.0026 -0.60156,-1.62565 -0.5944,-0.63021 -1.52539,-0.63021 z"
         style="font-size:14.66666698px;fill:#4c4c4c;fill-opacity:1"
         id="path1434" />
    </g>
    <g
       aria-label="NO COMPRE"
       style="font-style:normal;font-variant:normal;font-weight:bold;font-stretch:normal;font-size:4.34978533px;line-height:1.25;font-family:'Century Gothic';-inkscape-font-specification:'Century Gothic Bold';text-align:center;letter-spacing:0px;word-spacing:0px;text-anchor:middle;fill:#000000;fill-opacity:1;stroke:none;stroke-width:0.27186158"
       id="text1107">
      <path
         d="m 5.0000002,202.18336 h 1.3281572 l 3.1271164,4.79723 v -4.79723 h 1.3876272 v 7.29 H 9.5097877 L 6.3876271,204.691 v 4.78236 H 5.0000002 Z"
         style="font-size:10.14949989px;fill:#4c4c4c;fill-opacity:1;stroke-width:0.27186158"
         id="path1257" />
      <path
         d="m 15.952341,202 q 1.546213,0 2.656315,1.12001 1.115057,1.12001 1.115057,2.73065 0,1.59577 -1.10019,2.70092 -1.095234,1.10514 -2.66127,1.10514 -1.640373,0 -2.725696,-1.13488 -1.085322,-1.13488 -1.085322,-2.69596 0,-1.04567 0.505492,-1.92285 0.505493,-0.87718 1.387627,-1.38763 Q 14.931444,202 15.952341,202 Z m -0.01487,1.35789 q -1.010986,0 -1.699843,0.70372 -0.688858,0.70373 -0.688858,1.78905 0,1.20922 0.867267,1.91294 0.67399,0.5501 1.546213,0.5501 0.986206,0 1.68002,-0.71364 0.693813,-0.71363 0.693813,-1.75931 0,-1.04072 -0.698769,-1.75931 -0.698769,-0.72355 -1.699843,-0.72355 z"
         style="font-size:10.14949989px;fill:#4c4c4c;fill-opacity:1;stroke-width:0.27186158"
         id="path1259" />
      <path
         d="m 30.567027,203.46692 -0.971339,0.92673 q -0.991162,-1.04567 -2.230114,-1.04567 -1.045676,0 -1.764269,0.71363 -0.713637,0.71364 -0.713637,1.75932 0,0.7285 0.317172,1.29346 0.317172,0.56496 0.897002,0.88709 0.57983,0.32213 1.288511,0.32213 0.604608,0 1.105145,-0.22301 0.500537,-0.22797 1.10019,-0.82267 l 0.941604,0.98125 q -0.807797,0.78798 -1.526389,1.09524 -0.718593,0.3023 -1.640374,0.3023 -1.699843,0 -2.785165,-1.07541 -1.080367,-1.08036 -1.080367,-2.76534 0,-1.09028 0.490625,-1.93772 0.495581,-0.84745 1.412406,-1.36285 Q 26.329809,202 27.390353,202 q 0.901957,0 1.734533,0.38159 0.837532,0.3816 1.442141,1.08533 z"
         style="font-size:10.14949989px;fill:#4c4c4c;fill-opacity:1;stroke-width:0.27186158"
         id="path1261" />
      <path
         d="m 35.220533,202 q 1.546213,0 2.656314,1.12001 1.115058,1.12001 1.115058,2.73065 0,1.59577 -1.10019,2.70092 -1.095234,1.10514 -2.66127,1.10514 -1.640374,0 -2.725696,-1.13488 -1.085323,-1.13488 -1.085323,-2.69596 0,-1.04567 0.505493,-1.92285 0.505493,-0.87718 1.387627,-1.38763 Q 34.199636,202 35.220533,202 Z m -0.01487,1.35789 q -1.010986,0 -1.699843,0.70372 -0.688858,0.70373 -0.688858,1.78905 0,1.20922 0.867267,1.91294 0.67399,0.5501 1.546213,0.5501 0.986206,0 1.680019,-0.71364 0.693814,-0.71363 0.693814,-1.75931 0,-1.04072 -0.698769,-1.75931 -0.69877,-0.72355 -1.699843,-0.72355 z"
         style="font-size:10.14949989px;fill:#4c4c4c;fill-opacity:1;stroke-width:0.27186158"
         id="path1263" />
      <path
         d="m 41.003964,202.18336 h 1.357892 l 1.684976,5.08466 1.709755,-5.08466 h 1.338068 l 1.229041,7.29 h -1.338068 l -0.783018,-4.60395 -1.551169,4.60395 h -1.224085 l -1.531346,-4.60395 -0.797885,4.60395 h -1.352937 z"
         style="font-size:10.14949989px;fill:#4c4c4c;fill-opacity:1;stroke-width:0.27186158"
         id="path1265" />
      <path
         d="m 49.433799,202.18336 h 1.471876 q 1.19435,0 1.719666,0.22301 0.530272,0.21806 0.832576,0.71364 0.30726,0.49062 0.30726,1.17948 0,0.7632 -0.40142,1.26869 -0.396465,0.50549 -1.080367,0.70372 -0.401421,0.11399 -1.461964,0.11399 v 3.08747 h -1.387627 z m 1.387627,2.84959 h 0.441067 q 0.52036,0 0.723548,-0.0743 0.203189,-0.0743 0.317172,-0.24283 0.11894,-0.17345 0.11894,-0.41629 0,-0.42124 -0.327084,-0.61452 -0.237879,-0.14372 -0.882134,-0.14372 h -0.391509 z"
         style="font-size:10.14949989px;fill:#4c4c4c;fill-opacity:1;stroke-width:0.27186158"
         id="path1267" />
      <path
         d="m 55.222185,202.18336 h 1.471876 q 1.209218,0 1.719666,0.21806 0.515404,0.2131 0.82762,0.71363 0.312216,0.50054 0.312216,1.18444 0,0.71859 -0.346906,1.20426 -0.341951,0.48072 -1.035765,0.72851 l 1.724622,3.2411 h -1.516478 l -1.640373,-3.08747 h -0.128851 v 3.08747 h -1.387627 z m 1.387627,2.84959 h 0.436111 q 0.664079,0 0.911869,-0.17345 0.252747,-0.17345 0.252747,-0.57488 0,-0.23787 -0.123895,-0.41133 -0.123896,-0.17841 -0.33204,-0.25274 -0.208144,-0.0793 -0.763195,-0.0793 h -0.381597 z"
         style="font-size:10.14949989px;fill:#4c4c4c;fill-opacity:1;stroke-width:0.27186158"
         id="path1269" />
      <path
         d="m 61.020481,202.18336 h 3.979516 v 1.35789 h -2.6018 v 1.31825 h 2.6018 v 1.33311 h -2.6018 v 1.9179 h 2.6018 v 1.36285 h -3.979516 z"
         style="font-size:10.14949989px;fill:#4c4c4c;fill-opacity:1;stroke-width:0.27186158"
         id="path1271" />
    </g>
  </g>
</svg>
